# https://github.com/mikedh/trimesh
v 0.00254068 0.05630074 0.00989086
v 0.00254068 0.05630074 0.01139633
v -0.00017943 0.05630074 0.01028447
v -0.00017943 0.06174116 0.00263062
v -0.00012565 0.06175284 0.00263062
v 0.00016112 0.06181709 0.00263062
v 0.00105894 0.06201862 0.00263062
v 0.00114574 0.06203833 0.00263062
v 0.00254068 0.06247424 0.00263062
v 0.00254068 0.05631024 0.01139191
v 0.00212025 0.05630074 0.01149186
v -0.00017943 0.05630074 0.01166611
v -0.00017943 0.06375932 0.00263062
v 0.00254068 0.06353151 0.00263062
v 0.00254068 0.05636354 0.01136626
v 0.00201774 0.05632119 0.01150424
v 0.00199272 0.05630074 0.01151928
v 0.00248663 0.05637960 0.01137068
v 0.00252923 0.05643217 0.01133530
v 0.00009721 0.05630074 0.01166611
v -0.00017943 0.05632557 0.01165550
v -0.00017943 0.06374544 0.00269342
v -0.00011659 0.06375859 0.00263062
v 0.00249674 0.06354173 0.00263062
v 0.00254068 0.06351617 0.00269431
v 0.00254068 0.05644093 0.01132822
v 0.00189739 0.05634601 0.01151751
v 0.00242938 0.05645408 0.01134591
v 0.00219774 0.05650227 0.01137156
v 0.00189739 0.05630074 0.01153874
v 0.00254068 0.05651760 0.01128842
v 0.00024712 0.05630074 0.01166523
v 0.00009721 0.05632484 0.01165550
v -0.00005296 0.05632557 0.01165550
v -0.00017943 0.05633725 0.01165019
v -0.00005296 0.06375713 0.00263062
v -0.00017943 0.06371040 0.00284379
v 0.00243391 0.06355633 0.00263062
v 0.00244429 0.06350814 0.00281372
v 0.00238705 0.06349573 0.00291367
v 0.00254068 0.06349792 0.00276330
v 0.00174856 0.05638544 0.01152812
v 0.00174509 0.05630074 0.01156881
v 0.00184388 0.05630074 0.01154935
v 0.00189739 0.05642122 0.01147859
v 0.00179941 0.05644166 0.01148921
v 0.00169930 0.05646211 0.01149982
v 0.00205449 0.05653804 0.01138395
v 0.00254068 0.05672424 0.01118050
v 0.00241900 0.05674979 0.01119377
v 0.00051631 0.05630074 0.01166257
v 0.00024712 0.05639858 0.01162012
v -0.00005296 0.05640004 0.01162100
v -0.00017943 0.05640077 0.01162100
v -0.00005296 0.06373668 0.00271730
v 0.00003331 0.06375421 0.00263062
v -0.00017943 0.06365855 0.00306316
v 0.00219241 0.06360963 0.00263062
v 0.00234764 0.06355414 0.00271730
v 0.00228693 0.06350595 0.00295170
v 0.00234125 0.06347602 0.00300831
v 0.00249781 0.06343732 0.00301716
v 0.00254068 0.06342636 0.00301716
v 0.00249568 0.06348186 0.00286502
v 0.00219774 0.06358700 0.00271730
v 0.00254068 0.06348186 0.00282168
v 0.00159732 0.05637595 0.01156085
v 0.00165536 0.05630074 0.01158562
v 0.00189739 0.05652636 0.01142375
v 0.00174856 0.05651760 0.01146002
v 0.00199405 0.05690969 0.01119908
v 0.00177651 0.05673592 0.01133618
v 0.00173498 0.05668189 0.01137333
v 0.00159732 0.05647817 0.01150955
v 0.00205449 0.05667020 0.01131407
v 0.00254068 0.05682646 0.01112655
v 0.00219774 0.05679433 0.01121765
v 0.00066914 0.05630074 0.01166080
v 0.00054719 0.05639566 0.01161835
v 0.00039729 0.05639712 0.01161923
v 0.00039729 0.05652636 0.01155201
v 0.00009721 0.05652636 0.01155378
v -0.00005296 0.05652636 0.01155466
v -0.00017943 0.05652636 0.01155466
v -0.00005296 0.06370090 0.00286767
v 0.00009721 0.06364760 0.00307023
v 0.00009721 0.06373157 0.00271730
v 0.00018348 0.06374909 0.00263062
v -0.00017943 0.06364541 0.00311623
v -0.00015920 0.06365198 0.00308792
v -0.00005296 0.06366805 0.00300566
v 0.00204757 0.06363592 0.00263062
v 0.00219774 0.06351471 0.00298178
v 0.00211200 0.06350084 0.00308615
v 0.00219774 0.06349208 0.00305696
v 0.00219774 0.06354611 0.00286767
v 0.00250447 0.06338182 0.00317726
v 0.00254068 0.06337744 0.00316488
v 0.00254068 0.06346944 0.00286590
v 0.00204757 0.06361401 0.00271730
v 0.00144742 0.05637595 0.01158120
v 0.00159732 0.05630074 0.01159623
v 0.00189739 0.05663808 0.01136449
v 0.00209416 0.05688998 0.01118847
v 0.00219774 0.05697614 0.01111947
v 0.00219774 0.05708128 0.01106109
v 0.00204757 0.05710830 0.01107701
v 0.00189739 0.05700096 0.01116635
v 0.00167640 0.05675271 0.01134503
v 0.00144742 0.05649642 0.01151928
v 0.00159732 0.05655265 0.01146798
v 0.00144742 0.05657163 0.01147771
v 0.00254068 0.05693890 0.01106551
v 0.00097587 0.05630074 0.01165638
v 0.00099744 0.05631389 0.01165019
v 0.00099744 0.05638909 0.01161569
v 0.00084753 0.05639128 0.01161658
v 0.00084753 0.05652636 0.01154670
v 0.00069736 0.05661179 0.01150070
v 0.00039729 0.05661471 0.01150247
v 0.00009721 0.05661617 0.01150336
v -0.00017943 0.05661617 0.01150336
v 0.00009721 0.06362278 0.00316753
v 0.00024712 0.06361694 0.00316753
v 0.00024712 0.06364468 0.00305785
v 0.00024712 0.06366294 0.00298266
v 0.00039729 0.06371989 0.00271730
v 0.00039729 0.06374033 0.00263062
v -0.00017943 0.06363519 0.00315603
v 0.00200603 0.06364176 0.00263062
v 0.00204757 0.06357313 0.00286767
v 0.00201215 0.06350960 0.00311446
v 0.00205635 0.06348478 0.00316576
v 0.00204757 0.06343367 0.00331790
v 0.00219774 0.06345411 0.00316753
v 0.00205635 0.06352640 0.00302866
v 0.00234764 0.06342052 0.00316753
v 0.00254068 0.06332487 0.00331702
v 0.00254068 0.06336065 0.00321441
v 0.00194612 0.06364979 0.00263062
v 0.00189739 0.06359357 0.00286767
v 0.00129725 0.05637595 0.01159800
v 0.00144742 0.05630074 0.01161658
v 0.00229918 0.05706157 0.01105048
v 0.00254068 0.05733684 0.01084350
v 0.00251192 0.05744125 0.01079043
v 0.00234764 0.05733538 0.01088507
v 0.00196316 0.05719811 0.01104252
v 0.00226776 0.05734998 0.01089303
v 0.00190671 0.05713969 0.01108586
v 0.00186305 0.05721344 0.01105136
v 0.00159732 0.05676220 0.01135033
v 0.00159732 0.05667604 0.01139898
v 0.00174749 0.05712655 0.01112036
v 0.00159732 0.05696811 0.01123269
v 0.00159732 0.05683668 0.01130788
v 0.00129725 0.05651176 0.01152812
v 0.00144742 0.05667604 0.01141844
v 0.00129725 0.05658696 0.01148655
v 0.00254068 0.05701411 0.01102394
v 0.00110101 0.05630074 0.01165196
v 0.00111166 0.05630877 0.01164754
v 0.00115613 0.05636573 0.01161746
v 0.00114468 0.05653804 0.01152901
v 0.00099744 0.05652636 0.01154405
v 0.00069736 0.05668700 0.01145825
v 0.00054719 0.05668846 0.01145913
v 0.00054719 0.05689582 0.01134149
v 0.00039729 0.05682135 0.01138483
v 0.00024712 0.05689728 0.01134237
v -0.00017943 0.05681988 0.01138483
v 0.00054719 0.05738284 0.01106286
v 0.00024712 0.05717693 0.01118050
v -0.00005296 0.05710027 0.01122296
v -0.00017943 0.06359357 0.00331790
v -0.00005296 0.06358919 0.00331790
v 0.00009721 0.06358335 0.00331790
v 0.00039729 0.06361036 0.00316753
v 0.00039729 0.06364176 0.00304458
v 0.00039729 0.06368411 0.00286767
v 0.00054719 0.06367754 0.00286767
v 0.00069736 0.06372646 0.00263062
v 0.00189739 0.06355268 0.00301716
v 0.00189739 0.06351690 0.00314188
v 0.00189739 0.06349500 0.00321706
v 0.00189739 0.06346287 0.00331790
v 0.00189739 0.06341103 0.00346739
v 0.00219774 0.06340081 0.00331790
v 0.00199857 0.06335846 0.00355849
v 0.00204810 0.06337817 0.00347358
v 0.00233699 0.06332122 0.00345500
v 0.00254068 0.06317957 0.00372655
v 0.00186038 0.06365855 0.00263062
v 0.00184680 0.06365563 0.00265185
v 0.00189713 0.06363519 0.00270846
v 0.00174749 0.06360963 0.00286767
v 0.00174749 0.06357021 0.00301716
v 0.00120965 0.05630074 0.01164311
v 0.00129725 0.05630074 0.01163338
v 0.00254068 0.05729595 0.01086650
v 0.00254068 0.05745074 0.01077893
v 0.00247118 0.05751865 0.01075416
v 0.00190671 0.05726893 0.01101067
v 0.00216765 0.05736678 0.01090365
v 0.00252577 0.05778735 0.01058610
v 0.00174749 0.05722877 0.01106109
v 0.00159732 0.05712655 0.01114158
v 0.00152223 0.05705135 0.01119466
v 0.00119261 0.05659646 0.01149186
v 0.00142212 0.05706084 0.01119996
v 0.00129725 0.05697614 0.01126188
v 0.00114761 0.05688049 0.01133264
v 0.00111645 0.05630074 0.01165107
v 0.00109276 0.05660449 0.01149628
v 0.00099744 0.05660741 0.01149805
v 0.00069736 0.05710100 0.01122296
v 0.00054719 0.05710246 0.01122385
v -0.00017943 0.05719008 0.01116900
v 0.00024712 0.05786401 0.01078070
v 0.00069736 0.05727624 0.01112213
v 0.00069736 0.05738065 0.01106109
v 0.00069736 0.05765811 0.01089834
v 0.00054719 0.05802684 0.01068340
v 0.00039729 0.05793849 0.01073647
v 0.00024712 0.05802684 0.01068517
v 0.00009721 0.05793776 0.01073647
v -0.00017943 0.06356071 0.00344350
v -0.00017943 0.06352421 0.00358238
v 0.00024712 0.06357678 0.00331790
v 0.00054719 0.06360379 0.00316753
v 0.00069630 0.06363811 0.00300478
v 0.00064571 0.06365417 0.00294728
v 0.00069736 0.06370602 0.00271730
v 0.00084753 0.06371916 0.00263062
v 0.00099744 0.06366367 0.00283672
v 0.00139523 0.06365417 0.00279691
v 0.00144608 0.06366732 0.00272969
v 0.00175335 0.06352421 0.00317903
v 0.00180740 0.06350084 0.00323652
v 0.00175335 0.06348405 0.00330994
v 0.00174749 0.06343148 0.00346739
v 0.00178770 0.06334897 0.00368233
v 0.00189739 0.06334094 0.00365933
v 0.00197940 0.06320440 0.00399634
v 0.00234764 0.06319198 0.00381147
v 0.00204810 0.06332852 0.00361245
v 0.00252816 0.06304303 0.00411575
v 0.00254068 0.06311020 0.00392027
v 0.00174749 0.06366878 0.00263062
v 0.00174749 0.06366001 0.00267131
v 0.00174749 0.06364103 0.00274649
v 0.00167427 0.06367535 0.00263062
v 0.00159732 0.06358554 0.00301716
v 0.00254068 0.05753763 0.01072851
v 0.00254068 0.05757268 0.01070816
v 0.00254068 0.05778516 0.01058433
v 0.00174749 0.05730398 0.01101510
v 0.00242565 0.05780268 0.01059494
v 0.00189739 0.05740547 0.01092841
v 0.00254068 0.05779903 0.01057548
v 0.00254068 0.05790782 0.01050472
v 0.00254068 0.05797573 0.01046050
v 0.00249781 0.05798157 0.01046492
v 0.00248450 0.05786182 0.01054541
v 0.00159732 0.05732151 0.01102571
v 0.00159732 0.05724630 0.01107082
v 0.00144742 0.05733684 0.01103544
v 0.00144742 0.05726163 0.01107967
v 0.00146233 0.05711706 0.01116281
v 0.00129725 0.05714773 0.01116281
v 0.00114761 0.05708566 0.01121412
v 0.00099744 0.05681331 0.01138041
v 0.00099744 0.05716817 0.01117520
v 0.00099744 0.05688852 0.01133707
v 0.00084753 0.05709735 0.01122119
v -0.00017943 0.05766760 0.01089038
v 0.00009721 0.05802684 0.01068428
v 0.00084753 0.05737700 0.01105932
v 0.00084753 0.05717255 0.01117785
v 0.00084753 0.05765373 0.01089569
v 0.00069736 0.05785963 0.01077893
v 0.00069736 0.05813490 0.01061440
v 0.00054719 0.05813855 0.01061617
v 0.00039729 0.05814001 0.01061706
v 0.00024712 0.05814074 0.01061794
v -0.00017943 0.05785963 0.01077804
v -0.00017943 0.05773112 0.01085323
v -0.00017943 0.06349865 0.00367614
v 0.00069736 0.06359649 0.00316753
v 0.00114761 0.06361256 0.00301716
v 0.00144608 0.06363738 0.00285529
v 0.00074556 0.06365198 0.00293667
v 0.00099744 0.06371186 0.00263062
v 0.00149508 0.06365125 0.00278718
v 0.00159732 0.06366659 0.00269784
v 0.00159732 0.06368192 0.00263062
v 0.00159732 0.06354319 0.00316753
v 0.00170728 0.06350668 0.00325421
v 0.00159732 0.06348697 0.00334444
v 0.00174163 0.06337452 0.00362660
v 0.00144742 0.06345630 0.00346739
v 0.00144742 0.06340300 0.00361776
v 0.00159732 0.06339059 0.00361776
v 0.00159732 0.06335846 0.00370798
v 0.00164605 0.06320074 0.00413698
v 0.00174749 0.06315694 0.00421747
v 0.00189739 0.06324601 0.00391761
v 0.00189739 0.06330151 0.00376724
v 0.00189739 0.06321024 0.00401403
v 0.00189420 0.06307589 0.00437580
v 0.00194186 0.06304814 0.00443064
v 0.00204757 0.06306713 0.00433069
v 0.00214502 0.06305763 0.00430592
v 0.00234764 0.06309998 0.00406798
v 0.00234764 0.06306274 0.00417059
v 0.00224486 0.06304668 0.00427585
v 0.00234764 0.06303500 0.00424577
v 0.00248609 0.06301894 0.00420509
v 0.00254068 0.06300360 0.00420951
v 0.00254068 0.06304157 0.00411044
v 0.00254068 0.06306567 0.00404410
v 0.00159732 0.06364760 0.00277303
v 0.00144742 0.06359576 0.00301716
v 0.00144742 0.06355414 0.00316753
v 0.00174350 0.05743687 0.01093284
v 0.00159732 0.05742665 0.01096026
v 0.00234764 0.05788811 0.01055249
v 0.00219774 0.05790709 0.01056487
v 0.00219774 0.05783189 0.01061352
v 0.00204757 0.05785014 0.01062590
v 0.00254068 0.05808014 0.01038619
v 0.00249781 0.05805677 0.01041185
v 0.00234764 0.05800055 0.01047730
v 0.00234764 0.05807503 0.01042511
v 0.00124453 0.05735582 0.01104694
v 0.00109462 0.05810716 0.01059760
v 0.00099744 0.05811665 0.01060379
v 0.00114761 0.05763620 0.01088507
v 0.00114761 0.05727624 0.01110355
v 0.00099744 0.05737262 0.01105667
v 0.00009721 0.05814074 0.01061706
v -0.00017943 0.05794871 0.01072585
v 0.00092342 0.05765154 0.01089392
v 0.00084753 0.05802684 0.01067190
v 0.00084753 0.05812760 0.01060998
v 0.00069736 0.05821011 0.01056752
v 0.00054719 0.05821376 0.01057018
v 0.00039729 0.05821522 0.01057106
v 0.00024712 0.05821595 0.01057195
v -0.00017943 0.06347528 0.00375132
v -0.00005296 0.06349500 0.00366552
v 0.00009721 0.06351252 0.00357618
v 0.00054719 0.06356217 0.00331790
v 0.00084753 0.06358846 0.00316753
v 0.00129725 0.06360452 0.00301716
v 0.00114761 0.06357240 0.00316753
v 0.00159732 0.06351179 0.00326925
v 0.00144742 0.06349281 0.00336124
v 0.00084753 0.06348916 0.00350011
v 0.00084753 0.06344827 0.00361776
v 0.00038531 0.06337306 0.00392734
v 0.00144742 0.06324163 0.00406798
v 0.00159652 0.06322557 0.00407948
v 0.00149614 0.06305106 0.00458809
v 0.00159732 0.06307297 0.00449698
v 0.00174749 0.06310071 0.00436784
v 0.00174749 0.06306274 0.00446868
v 0.00204757 0.06303865 0.00440587
v 0.00174749 0.06303354 0.00454386
v 0.00174749 0.06298243 0.00466770
v 0.00189420 0.06302405 0.00450760
v 0.00204757 0.06299192 0.00451821
v 0.00219614 0.06302478 0.00436076
v 0.00234764 0.06298608 0.00436784
v 0.00250846 0.06294154 0.00438022
v 0.00254068 0.06294884 0.00434307
v 0.00129725 0.06356363 0.00316753
v 0.00046385 0.06350230 0.00354080
v 0.00110181 0.06350522 0.00339839
v 0.00129725 0.06352202 0.00330286
v 0.00144742 0.06351690 0.00328606
v 0.00174350 0.05756392 0.01085234
v 0.00189739 0.05775011 0.01071170
v 0.00159732 0.05759093 0.01085588
v 0.00218282 0.05803487 0.01048084
v 0.00204757 0.05792535 0.01057637
v 0.00189739 0.05786693 0.01063740
v 0.00254068 0.05815316 0.01033224
v 0.00249781 0.05815900 0.01033666
v 0.00222276 0.05808963 0.01043573
v 0.00249781 0.05823420 0.01028094
v 0.00239716 0.05824589 0.01028978
v 0.00114761 0.05743906 0.01100625
v 0.00114761 0.05736385 0.01105225
v 0.00159732 0.05778443 0.01073293
v 0.00189739 0.05794214 0.01058787
v 0.00204757 0.05802684 0.01050738
v 0.00212265 0.05810204 0.01044369
v 0.00099744 0.05819185 0.01055337
v 0.00084753 0.05820281 0.01056222
v 0.00099744 0.05802684 0.01065952
v 0.00102326 0.05764643 0.01089126
v -0.00005296 0.05813782 0.01061617
v 0.00009721 0.05821522 0.01057106
v -0.00005296 0.05821303 0.01057018
v -0.00017943 0.05804436 0.01066924
v 0.00099744 0.05784576 0.01077097
v 0.00069736 0.05831890 0.01049234
v 0.00054719 0.05832474 0.01049499
v 0.00039196 0.05834154 0.01048615
v 0.00024712 0.05832693 0.01049765
v 0.00009721 0.06349062 0.00365048
v -0.00017943 0.06347017 0.00376724
v 0.00024712 0.06350887 0.00356115
v 0.00084753 0.06354611 0.00331790
v 0.00040714 0.06348405 0.00360714
v -0.00005296 0.06346214 0.00376724
v 0.00009721 0.06345119 0.00376724
v 0.00024712 0.06344024 0.00376724
v -0.00017943 0.06341906 0.00391761
v -0.00005296 0.06340957 0.00391761
v 0.00024712 0.06332925 0.00407771
v 0.00139603 0.06305471 0.00459782
v 0.00129725 0.06302843 0.00468096
v 0.00144662 0.06302697 0.00465531
v 0.00159732 0.06300506 0.00466770
v 0.00159732 0.06304449 0.00457217
v 0.00174749 0.06292620 0.00478888
v 0.00189739 0.06291160 0.00475969
v 0.00189739 0.06295395 0.00466770
v 0.00203345 0.06292547 0.00466947
v 0.00219774 0.06295760 0.00451821
v 0.00254068 0.06291890 0.00441295
v 0.00254068 0.06293716 0.00437138
v 0.00174749 0.05776763 0.01072232
v 0.00254068 0.05822836 0.01027651
v 0.00254068 0.05825611 0.01025528
v 0.00254068 0.05837805 0.01016152
v 0.00250527 0.05834008 0.01019779
v 0.00234737 0.05831525 0.01024555
v 0.00218282 0.05816192 0.01038885
v 0.00099744 0.05829627 0.01047819
v 0.00084753 0.05830941 0.01048703
v -0.00017943 0.05814731 0.01060733
v -0.00017943 0.05813563 0.01061440
v 0.00012624 0.05840287 0.01044546
v 0.00008443 0.05834154 0.01048615
v -0.00017943 0.05821084 0.01056841
v -0.00005296 0.05832474 0.01049499
v 0.00069736 0.05839411 0.01043838
v 0.00054719 0.05839922 0.01044280
v 0.00033844 0.05840214 0.01044457
v 0.00024712 0.05840287 0.01044546
v -0.00017943 0.06337890 0.00402199
v -0.00005296 0.06336795 0.00403083
v 0.00009721 0.06333436 0.00409275
v 0.00114761 0.06306274 0.00461816
v 0.00114761 0.06303281 0.00469335
v 0.00129725 0.06296855 0.00481807
v 0.00144742 0.06295468 0.00481807
v 0.00158907 0.06293205 0.00482691
v 0.00163326 0.06289700 0.00488264
v 0.00174749 0.06288751 0.00486406
v 0.00197434 0.06290284 0.00474377
v 0.00189739 0.06287290 0.00483487
v 0.00204757 0.06274367 0.00502505
v 0.00228267 0.06260494 0.00519753
v 0.00207419 0.06289189 0.00472077
v 0.00219774 0.06287728 0.00468893
v 0.00233326 0.06292402 0.00451733
v 0.00246586 0.06291379 0.00446602
v 0.00254068 0.06289116 0.00447310
v 0.00254068 0.05842332 0.01012437
v 0.00246000 0.05841017 0.01015091
v 0.00234764 0.05842258 0.01016064
v 0.00219774 0.05843865 0.01017391
v 0.00183136 0.05855401 0.01014560
v 0.00219774 0.05834227 0.01024909
v 0.00114761 0.05852846 0.01027651
v 0.00099744 0.05837147 0.01042069
v 0.00084753 0.05838462 0.01043042
v 0.00069736 0.05856935 0.01030747
v 0.00024712 0.05858176 0.01031632
v 0.00009721 0.05858103 0.01031543
v 0.00008443 0.05846274 0.01040123
v -0.00005296 0.05839995 0.01044280
v -0.00017943 0.05833351 0.01048526
v 0.00054719 0.05857592 0.01031278
v 0.00039196 0.05846201 0.01040035
v 0.00039729 0.05857957 0.01031455
v -0.00017943 0.06334605 0.00410248
v 0.00009721 0.06328471 0.00421747
v -0.00005296 0.06333802 0.00410602
v 0.00039729 0.06322046 0.00433600
v 0.00084753 0.06307151 0.00463851
v 0.00099744 0.06303646 0.00470396
v 0.00114761 0.06297805 0.00481807
v 0.00114761 0.06292255 0.00493217
v 0.00129725 0.06291817 0.00492156
v 0.00144742 0.06291014 0.00490652
v 0.00153315 0.06290430 0.00489591
v 0.00174749 0.06283128 0.00496844
v 0.00158907 0.06286414 0.00495517
v 0.00174749 0.06273052 0.00515242
v 0.00186731 0.06276119 0.00505866
v 0.00196742 0.06275170 0.00504097
v 0.00219774 0.06272760 0.00499232
v 0.00203345 0.06285976 0.00480303
v 0.00219774 0.06261370 0.00521434
v 0.00233859 0.06256186 0.00525591
v 0.00238279 0.06259325 0.00517453
v 0.00219774 0.06281449 0.00481807
v 0.00254068 0.06275827 0.00475438
v 0.00254068 0.06281960 0.00462524
v 0.00249781 0.06266700 0.00496844
v 0.00254068 0.06272249 0.00482957
v 0.00254068 0.06287071 0.00451733
v 0.00254068 0.05850217 0.01005715
v 0.00234764 0.05849779 0.01009784
v 0.00193148 0.05854306 0.01013676
v 0.00119500 0.05869639 0.01013941
v 0.00144742 0.05875919 0.01004211
v 0.00129352 0.05878766 0.01004565
v 0.00114628 0.05876503 0.01009076
v 0.00109542 0.05870662 0.01014737
v 0.00099744 0.05854379 0.01028801
v 0.00081718 0.05855985 0.01030039
v 0.00069736 0.05864382 0.01024998
v 0.00054719 0.05865112 0.01025528
v 0.00024712 0.05865697 0.01026059
v 0.00009721 0.05865624 0.01026059
v -0.00005296 0.05847662 0.01038708
v -0.00017943 0.05857519 0.01031101
v -0.00017943 0.05840871 0.01043131
v 0.00039729 0.05875262 0.01018364
v -0.00017943 0.06334094 0.00411486
v 0.00009721 0.06322849 0.00435457
v 0.00039729 0.06314525 0.00451821
v 0.00069736 0.06307589 0.00464647
v 0.00084753 0.06304011 0.00471281
v 0.00084753 0.06299265 0.00481807
v 0.00099744 0.06292694 0.00494102
v 0.00099744 0.06288897 0.00501620
v 0.00114761 0.06288386 0.00500736
v 0.00084753 0.06278017 0.00524530
v 0.00084753 0.06268817 0.00541866
v 0.00099744 0.06267649 0.00541866
v 0.00099744 0.06261954 0.00552392
v 0.00114761 0.06266262 0.00541866
v 0.00129725 0.06287728 0.00499674
v 0.00129725 0.06272030 0.00528421
v 0.00149694 0.06274951 0.00518780
v 0.00194213 0.06259763 0.00533375
v 0.00159732 0.06274220 0.00517453
v 0.00159732 0.06262611 0.00538505
v 0.00174749 0.06261370 0.00536382
v 0.00204757 0.06258814 0.00531606
v 0.00204757 0.06269475 0.00511792
v 0.00219774 0.06257354 0.00528864
v 0.00234764 0.06248300 0.00539743
v 0.00249781 0.06246621 0.00536736
v 0.00249781 0.06251732 0.00526829
v 0.00254068 0.06261151 0.00506043
v 0.00233832 0.06271227 0.00495605
v 0.00254068 0.06265532 0.00496932
v 0.00254068 0.05866354 0.00991828
v 0.00219774 0.05883951 0.00983336
v 0.00174749 0.05888916 0.00987582
v 0.00174749 0.05872633 0.01001469
v 0.00159732 0.05874239 0.01002884
v 0.00159732 0.05890522 0.00988997
v 0.00143730 0.05893662 0.00989263
v 0.00129352 0.05891471 0.00993774
v 0.00134091 0.05884535 0.00998815
v 0.00124106 0.05885630 0.00999700
v 0.00114761 0.05886506 0.01000585
v 0.00099744 0.05887966 0.01001734
v 0.00099744 0.05879058 0.01009253
v 0.00099744 0.05871538 0.01015445
v 0.00099744 0.05862703 0.01022344
v 0.00084753 0.05872779 0.01016506
v 0.00069736 0.05874020 0.01017479
v 0.00054719 0.05874824 0.01018010
v 0.00009721 0.05875700 0.01018541
v 0.00024712 0.05875627 0.01018541
v 0.00009721 0.05883220 0.01012880
v -0.00005296 0.05865331 0.01025794
v -0.00005296 0.05883001 0.01012703
v -0.00017943 0.05882709 0.01012526
v -0.00017943 0.05875189 0.01018098
v 0.00039729 0.05882782 0.01012437
v 0.00024712 0.05883074 0.01012703
v -0.00017943 0.06322995 0.00437934
v -0.00005296 0.06323214 0.00436165
v 0.00009721 0.06319709 0.00442887
v 0.00024712 0.06315255 0.00451821
v 0.00054719 0.06307954 0.00465443
v 0.00054719 0.06304668 0.00472961
v -0.00005296 0.06302551 0.00483399
v 0.00024712 0.06294884 0.00496844
v 0.00054719 0.06293716 0.00496401
v 0.00069736 0.06293351 0.00495694
v 0.00069736 0.06289700 0.00503212
v 0.00084753 0.06289335 0.00502416
v 0.00039729 0.06275535 0.00534879
v 0.00048036 0.06275316 0.00534436
v 0.00099744 0.06283640 0.00511792
v 0.00009721 0.06261297 0.00566279
v 0.00024712 0.06260786 0.00565306
v 0.00024712 0.06256843 0.00572825
v 0.00054719 0.06259690 0.00563272
v 0.00069736 0.06253922 0.00571852
v 0.00084753 0.06258522 0.00561061
v 0.00084753 0.06252681 0.00571852
v 0.00099744 0.06257865 0.00559911
v 0.00114761 0.06261224 0.00551066
v 0.00125278 0.06260639 0.00550004
v 0.00135289 0.06260055 0.00548943
v 0.00144742 0.06263633 0.00540363
v 0.00189447 0.06256405 0.00540716
v 0.00204757 0.06253046 0.00541866
v 0.00159732 0.06258376 0.00546024
v 0.00174749 0.06257135 0.00543812
v 0.00220386 0.06249322 0.00543016
v 0.00234764 0.06244065 0.00547262
v 0.00254068 0.06234208 0.00557257
v 0.00254068 0.06242021 0.00543105
v 0.00254068 0.06246036 0.00535763
v 0.00254068 0.06250563 0.00526918
v 0.00254068 0.05898773 0.00963876
v 0.00249781 0.05896801 0.00966442
v 0.00189739 0.05919728 0.00958304
v 0.00160291 0.05924036 0.00960161
v 0.00151904 0.05915128 0.00969361
v 0.00138058 0.05900379 0.00984575
v 0.00129725 0.05917538 0.00971395
v 0.00114761 0.05910309 0.00980240
v 0.00084753 0.05896728 0.00996427
v 0.00084753 0.05889208 0.01002796
v 0.00099744 0.05927979 0.00967503
v 0.00084753 0.05913011 0.00982540
v 0.00084753 0.05880300 0.01010314
v 0.00069736 0.05881541 0.01011376
v 0.00054719 0.05882344 0.01012083
v 0.00024712 0.05892420 0.01005273
v 0.00009721 0.05892639 0.01005361
v -0.00017943 0.05900014 0.00999258
v -0.00014615 0.06320221 0.00444126
v -0.00005296 0.06316570 0.00451821
v -0.00017943 0.06317519 0.00450671
v 0.00009721 0.06315913 0.00451821
v 0.00025164 0.06308100 0.00468185
v -0.00005296 0.06305982 0.00475880
v -0.00017943 0.06302843 0.00483930
v -0.00017943 0.06296782 0.00496844
v -0.00017943 0.06292475 0.00505689
v 0.00036773 0.06290503 0.00504716
v 0.00054719 0.06290065 0.00503920
v 0.00054719 0.06286195 0.00511792
v -0.00017943 0.06262830 0.00566279
v -0.00017943 0.06258887 0.00574240
v 0.00009721 0.06257354 0.00573798
v -0.00005296 0.06257865 0.00574682
v 0.00054719 0.06255090 0.00571852
v 0.00009721 0.06250344 0.00586801
v 0.00024499 0.06248592 0.00588127
v 0.00039729 0.06248738 0.00585739
v 0.00054719 0.06248154 0.00584678
v 0.00054719 0.06244065 0.00592196
v 0.00069736 0.06243481 0.00591046
v 0.00084753 0.06246913 0.00582378
v 0.00099744 0.06251293 0.00571852
v 0.00114761 0.06257062 0.00558584
v 0.00144742 0.06259398 0.00547881
v 0.00114947 0.06248884 0.00573090
v 0.00104510 0.06229973 0.00608825
v 0.00114761 0.06224059 0.00616875
v 0.00174669 0.06249030 0.00557876
v 0.00204757 0.06246986 0.00552304
v 0.00215806 0.06245963 0.00550535
v 0.00139496 0.06215662 0.00625012
v 0.00159732 0.06252097 0.00556815
v 0.00144742 0.06247643 0.00568491
v 0.00114761 0.06213179 0.00635892
v 0.00225818 0.06244941 0.00548854
v 0.00234764 0.06232236 0.00567695
v 0.00249781 0.06218874 0.00585562
v 0.00246080 0.06231068 0.00565749
v 0.00254068 0.06231652 0.00561768
v 0.00254068 0.05904979 0.00958481
v 0.00234657 0.05922722 0.00946894
v 0.00174350 0.05951490 0.00933626
v 0.00144742 0.05964487 0.00928053
v 0.00129725 0.05957478 0.00936987
v 0.00129725 0.05925059 0.00964938
v 0.00114761 0.05959084 0.00938402
v 0.00114761 0.05951563 0.00944859
v 0.00069736 0.05897970 0.00997489
v 0.00069736 0.05890449 0.01003857
v 0.00105708 0.05959960 0.00939110
v 0.00099744 0.05936741 0.00959985
v 0.00080892 0.05945868 0.00954943
v 0.00069736 0.05914252 0.00983602
v 0.00059246 0.05914982 0.00984221
v 0.00054719 0.05891325 0.01004565
v 0.00039729 0.05899357 0.00998727
v 0.00024712 0.05899868 0.00999169
v 0.00009721 0.05900160 0.00999346
v -0.00017943 0.05909141 0.00991916
v -0.00017943 0.06311532 0.00464470
v -0.00005296 0.06309998 0.00466770
v -0.00017943 0.06306859 0.00474996
v -0.00017943 0.06273782 0.00543901
v 0.00009721 0.06287436 0.00513473
v 0.00009721 0.06276265 0.00536294
v -0.00017943 0.06253046 0.00584943
v -0.00005296 0.06251367 0.00586801
v 0.00019360 0.06245379 0.00594673
v 0.00039729 0.06244649 0.00593258
v 0.00054719 0.06238735 0.00601838
v 0.00069736 0.06237494 0.00601838
v 0.00084753 0.06242751 0.00589896
v 0.00099744 0.06246182 0.00580963
v 0.00099744 0.06241948 0.00588481
v 0.00084753 0.06236033 0.00601838
v 0.00084753 0.06230995 0.00610771
v 0.00088561 0.06214859 0.00638634
v 0.00099744 0.06214202 0.00637573
v 0.00114761 0.06217487 0.00628374
v 0.00174669 0.06241436 0.00570791
v 0.00189739 0.06238151 0.00571852
v 0.00159732 0.06218290 0.00614575
v 0.00189739 0.06227563 0.00589808
v 0.00232208 0.06216173 0.00595911
v 0.00236228 0.06219897 0.00588304
v 0.00234764 0.06227855 0.00575213
v 0.00249781 0.06214493 0.00593081
v 0.00129725 0.06212011 0.00633858
v 0.00144608 0.06211354 0.00630762
v 0.00114761 0.06206535 0.00646860
v 0.00254068 0.06215297 0.00590162
v 0.00254068 0.06218436 0.00584766
v 0.00254068 0.06226176 0.00571321
v 0.00254068 0.05921043 0.00944505
v 0.00241287 0.05930024 0.00939198
v 0.00219774 0.05948497 0.00927257
v 0.00174749 0.05961055 0.00925134
v 0.00144742 0.05971935 0.00921507
v 0.00114787 0.05981573 0.00918854
v 0.00119793 0.05974709 0.00923896
v 0.00109808 0.05975732 0.00924869
v 0.00100329 0.05954046 0.00945036
v 0.00100329 0.05966604 0.00934245
v 0.00099744 0.05944262 0.00953527
v 0.00095697 0.05960836 0.00939906
v 0.00069736 0.05946744 0.00955739
v 0.00084753 0.05969233 0.00934245
v 0.00069736 0.05986684 0.00921331
v 0.00069736 0.05954265 0.00949282
v 0.00066009 0.05930827 0.00969891
v 0.00039729 0.05932068 0.00970953
v 0.00024712 0.05932652 0.00971483
v 0.00054719 0.05898846 0.00998196
v 0.00054719 0.05971424 0.00936102
v 0.00054719 0.05963903 0.00942559
v 0.00009721 0.05916662 0.00985636
v -0.00017943 0.05916808 0.00985724
v -0.00005296 0.05916808 0.00985724
v -0.00017943 0.06252024 0.00586801
v -0.00005296 0.06246255 0.00596000
v 0.00009721 0.06245744 0.00595204
v 0.00039729 0.06239903 0.00601838
v 0.00054719 0.06228220 0.00620767
v 0.00069736 0.06231798 0.00612098
v 0.00069736 0.06220700 0.00631823
v 0.00078549 0.06215370 0.00639607
v 0.00084034 0.06211135 0.00645533
v 0.00099744 0.06208506 0.00646860
v 0.00174749 0.06212522 0.00619794
v 0.00174749 0.06216976 0.00612275
v 0.00190538 0.06211865 0.00616079
v 0.00220945 0.06204855 0.00618290
v 0.00242193 0.06215224 0.00594319
v 0.00249781 0.06209236 0.00601838
v 0.00254068 0.06202081 0.00612364
v 0.00254068 0.06210332 0.00598565
v 0.00254068 0.06214055 0.00592285
v 0.00128713 0.06203760 0.00647656
v 0.00144742 0.06203176 0.00644118
v 0.00159732 0.06201862 0.00641907
v 0.00159732 0.06207995 0.00631823
v 0.00099744 0.06202081 0.00657209
v 0.00114761 0.06201059 0.00655617
v 0.00123041 0.06200401 0.00654556
v 0.00254068 0.05937909 0.00929645
v 0.00234764 0.05946744 0.00925753
v 0.00219774 0.05955944 0.00920623
v 0.00204757 0.05957697 0.00922127
v 0.00174749 0.05968576 0.00918500
v 0.00122855 0.05990408 0.00909478
v 0.00114761 0.05991284 0.00910274
v 0.00099744 0.05976681 0.00925576
v 0.00099744 0.05992744 0.00911512
v 0.00099744 0.05984201 0.00919031
v 0.00084753 0.05994058 0.00912751
v 0.00084753 0.05977922 0.00926726
v 0.00069736 0.05995373 0.00913812
v 0.00024712 0.05948789 0.00957508
v 0.00009721 0.05940538 0.00965292
v 0.00009721 0.05933017 0.00971749
v 0.00009721 0.05924182 0.00979267
v 0.00054719 0.05987560 0.00922038
v 0.00039729 0.05971935 0.00936544
v -0.00005296 0.05933236 0.00971926
v -0.00005296 0.05924328 0.00979444
v -0.00017943 0.05924328 0.00979533
v -0.00017943 0.05934551 0.00971041
v -0.00017943 0.06246548 0.00596442
v 0.00054719 0.06221868 0.00631823
v 0.00054719 0.06216392 0.00641288
v 0.00069736 0.06215808 0.00640403
v 0.00069736 0.06211281 0.00647833
v 0.00084753 0.06202957 0.00658536
v 0.00175228 0.06204417 0.00633062
v 0.00189739 0.06203614 0.00629966
v 0.00204757 0.06202227 0.00627666
v 0.00220945 0.06196970 0.00631204
v 0.00251032 0.06182001 0.00646241
v 0.00254068 0.06181344 0.00646330
v 0.00133053 0.06199525 0.00653229
v 0.00159013 0.06188938 0.00662782
v 0.00159732 0.06197189 0.00649425
v 0.00175228 0.06196459 0.00645976
v 0.00170542 0.06200839 0.00640315
v 0.00099744 0.06197189 0.00664728
v 0.00114761 0.06196240 0.00663136
v 0.00128713 0.06195655 0.00660482
v 0.00144742 0.06192005 0.00661897
v 0.00135289 0.06169954 0.00698959
v 0.00144742 0.06173970 0.00690202
v 0.00254068 0.05944335 0.00923896
v 0.00244190 0.05945649 0.00924780
v 0.00234764 0.05954265 0.00919031
v 0.00219774 0.05964341 0.00913104
v 0.00184947 0.05975878 0.00909920
v 0.00159732 0.05978725 0.00912485
v 0.00128846 0.05997563 0.00901694
v 0.00114761 0.05998732 0.00903463
v 0.00099744 0.06000192 0.00904790
v 0.00084753 0.06001579 0.00906028
v 0.00069736 0.06002820 0.00907178
v 0.00054719 0.05996176 0.00914520
v 0.00024712 0.05956309 0.00950962
v 0.00009721 0.05956674 0.00951316
v -0.00005296 0.05949373 0.00958039
v -0.00005296 0.05940684 0.00965557
v 0.00039729 0.05988071 0.00922480
v -0.00017943 0.05942217 0.00964496
v -0.00017943 0.06242605 0.00602811
v 0.00024712 0.06216976 0.00642084
v 0.00039729 0.06216684 0.00641730
v 0.00054719 0.06211792 0.00648806
v 0.00069736 0.06203760 0.00659863
v 0.00084753 0.06198065 0.00666055
v 0.00189739 0.06199014 0.00637484
v 0.00219774 0.06188719 0.00645003
v 0.00234764 0.06182659 0.00650222
v 0.00254068 0.06168713 0.00666939
v 0.00159732 0.06172655 0.00688168
v 0.00189154 0.06173970 0.00677819
v 0.00189739 0.06182221 0.00664551
v 0.00189739 0.06186893 0.00657032
v 0.00219774 0.06178278 0.00661897
v 0.00099744 0.06189741 0.00676050
v 0.00114761 0.06177401 0.00691883
v 0.00125278 0.06170684 0.00700021
v 0.00114761 0.06188719 0.00674635
v 0.00130071 0.06166230 0.00705770
v 0.00144742 0.06156811 0.00716650
v 0.00144742 0.06163236 0.00706920
v 0.00144742 0.06169151 0.00697721
v 0.00254068 0.05957405 0.00911954
v 0.00246213 0.05961201 0.00910274
v 0.00234764 0.05962589 0.00911512
v 0.00219774 0.05971862 0.00906205
v 0.00159732 0.05994351 0.00898156
v 0.00159732 0.06001871 0.00891168
v 0.00134863 0.06004646 0.00893822
v 0.00124879 0.06005741 0.00894883
v 0.00114761 0.06006836 0.00895945
v 0.00099744 0.06008151 0.00897271
v 0.00084753 0.06009392 0.00898510
v 0.00054719 0.06003624 0.00907886
v 0.00084753 0.06016912 0.00891080
v 0.00069736 0.06010341 0.00899660
v 0.00039729 0.05996541 0.00914962
v 0.00024712 0.05964925 0.00943444
v -0.00017943 0.05957112 0.00951670
v 0.00024712 0.05980989 0.00929380
v 0.00009721 0.05981281 0.00929734
v -0.00017943 0.05950760 0.00957154
v 0.00024712 0.05996979 0.00915316
v 0.00024712 0.05988436 0.00922834
v -0.00017943 0.06241874 0.00603960
v 0.00009721 0.06217049 0.00642084
v 0.00024712 0.06212011 0.00649514
v 0.00054719 0.06199306 0.00668001
v 0.00054719 0.06204271 0.00660482
v 0.00039729 0.06211938 0.00649249
v -0.00005296 0.06229462 0.00623155
v -0.00017943 0.06234427 0.00615636
v 0.00069736 0.06198868 0.00667293
v 0.00085925 0.06189814 0.00678350
v 0.00235403 0.06166522 0.00676050
v 0.00254068 0.06164551 0.00673573
v 0.00160344 0.06159732 0.00708158
v 0.00174749 0.06166522 0.00693564
v 0.00193760 0.06169589 0.00683391
v 0.00204757 0.06168566 0.00681799
v 0.00204757 0.06173313 0.00674281
v 0.00219774 0.06171925 0.00672069
v 0.00114761 0.06171341 0.00700994
v 0.00114761 0.06166303 0.00708512
v 0.00129725 0.06157906 0.00718154
v 0.00144742 0.06151627 0.00724168
v 0.00159732 0.06142938 0.00733102
v 0.00155765 0.06155862 0.00715323
v 0.00254068 0.05967262 0.00902755
v 0.00250633 0.05966824 0.00903994
v 0.00234764 0.05970109 0.00904524
v 0.00174749 0.06000119 0.00889576
v 0.00159732 0.06017278 0.00876662
v 0.00130390 0.06012824 0.00887011
v 0.00144742 0.06034290 0.00863482
v 0.00136754 0.06035093 0.00864278
v 0.00114761 0.06022024 0.00881173
v 0.00099744 0.06015671 0.00889930
v 0.00099744 0.06023265 0.00882500
v 0.00069736 0.06017862 0.00891964
v 0.00054719 0.06010925 0.00900367
v 0.00039729 0.06003989 0.00908239
v 0.00099744 0.06030713 0.00874804
v 0.00084753 0.06024141 0.00883561
v -0.00017943 0.05973103 0.00937518
v 0.00009721 0.05988801 0.00923100
v 0.00009721 0.05997125 0.00915581
v 0.00024712 0.06004354 0.00908593
v -0.00017943 0.06229462 0.00623155
v -0.00005296 0.06216976 0.00641907
v 0.00009721 0.06211938 0.00649602
v 0.00024712 0.06204563 0.00660394
v 0.00039729 0.06204490 0.00660482
v 0.00069736 0.06186236 0.00685780
v 0.00069736 0.06192370 0.00676846
v 0.00039729 0.06199233 0.00668001
v 0.00054719 0.06181052 0.00693564
v 0.00081718 0.06185725 0.00685072
v 0.00099744 0.06172217 0.00702232
v 0.00219774 0.06167179 0.00679588
v 0.00249781 0.06156884 0.00686841
v 0.00254068 0.06156446 0.00686222
v 0.00189739 0.06157614 0.00703028
v 0.00189154 0.06165792 0.00690645
v 0.00099744 0.06167033 0.00709750
v 0.00114761 0.06158782 0.00719303
v 0.00129725 0.06152576 0.00725672
v 0.00144742 0.06144106 0.00734517
v 0.00159732 0.06137535 0.00740621
v 0.00189739 0.06122274 0.00755039
v 0.00174749 0.06136367 0.00738675
v 0.00174749 0.06154036 0.00712669
v 0.00204757 0.06120960 0.00753004
v 0.00254068 0.05991138 0.00880200
v 0.00249781 0.05991649 0.00880730
v 0.00234764 0.05978068 0.00897006
v 0.00219774 0.05987341 0.00891610
v 0.00219774 0.05995300 0.00884092
v 0.00200257 0.06035897 0.00850037
v 0.00174749 0.06023484 0.00867463
v 0.00159732 0.06025163 0.00869143
v 0.00159732 0.06032684 0.00861890
v 0.00174749 0.06046265 0.00845526
v 0.00159732 0.06047871 0.00847030
v 0.00136168 0.06049989 0.00849153
v 0.00126742 0.06035970 0.00865163
v 0.00159732 0.06055246 0.00839511
v 0.00144742 0.06049259 0.00848357
v 0.00114761 0.06029544 0.00873654
v 0.00114761 0.06036992 0.00866136
v 0.00069736 0.06024871 0.00884446
v 0.00054719 0.06018446 0.00892495
v 0.00099744 0.06037941 0.00867286
v 0.00084753 0.06038671 0.00868170
v -0.00005296 0.05981427 0.00929910
v -0.00005296 0.05988947 0.00923188
v -0.00017943 0.05982668 0.00928937
v 0.00009721 0.06004573 0.00908770
v 0.00024712 0.06011436 0.00901075
v 0.00039729 0.06018738 0.00892760
v -0.00017943 0.06223547 0.00631823
v -0.00017943 0.06217925 0.00640049
v -0.00017943 0.06216830 0.00641642
v -0.00005296 0.06211719 0.00649425
v 0.00009721 0.06204417 0.00660217
v 0.00009721 0.06199087 0.00667735
v 0.00024712 0.06192808 0.00676846
v 0.00069736 0.06167982 0.00711254
v 0.00084753 0.06167544 0.00710635
v 0.00084753 0.06172874 0.00703116
v 0.00024712 0.06173458 0.00703913
v 0.00024712 0.06168055 0.00711431
v 0.00039729 0.06168128 0.00711431
v 0.00054719 0.06168128 0.00711520
v 0.00218788 0.06158928 0.00692679
v 0.00204757 0.06156227 0.00700817
v 0.00254068 0.06153452 0.00690733
v 0.00099744 0.06159512 0.00720188
v 0.00114761 0.06153379 0.00726822
v 0.00149960 0.06125049 0.00759107
v 0.00144742 0.06138484 0.00742036
v 0.00159732 0.06130014 0.00750793
v 0.00174749 0.06123370 0.00756808
v 0.00189739 0.06114754 0.00765476
v 0.00204757 0.06113440 0.00763795
v 0.00241474 0.06140090 0.00714173
v 0.00219774 0.06111979 0.00761849
v 0.00218416 0.06120084 0.00750351
v 0.00254068 0.06006398 0.00865517
v 0.00249781 0.05999170 0.00873566
v 0.00234764 0.06000995 0.00875335
v 0.00189739 0.06037065 0.00851187
v 0.00210268 0.06034728 0.00848887
v 0.00211120 0.06049916 0.00834116
v 0.00201109 0.06051084 0.00835177
v 0.00189739 0.06044586 0.00843934
v 0.00189739 0.06052325 0.00836415
v 0.00174749 0.06053858 0.00838008
v 0.00174749 0.06061379 0.00830401
v 0.00126157 0.06050792 0.00850037
v 0.00159732 0.06062766 0.00831816
v 0.00144742 0.06056487 0.00840927
v 0.00114761 0.06051595 0.00850922
v 0.00069736 0.06032392 0.00876308
v 0.00054719 0.06032830 0.00876750
v 0.00099744 0.06045462 0.00859236
v 0.00099744 0.06052252 0.00851718
v 0.00084753 0.06046119 0.00859856
v 0.00069736 0.06046703 0.00860475
v -0.00017943 0.05990262 0.00922038
v 0.00009721 0.06019030 0.00893114
v -0.00005296 0.06018957 0.00893026
v -0.00005296 0.06011436 0.00901163
v -0.00005296 0.06004427 0.00908682
v -0.00017943 0.05998074 0.00914608
v 0.00024712 0.06018957 0.00893026
v -0.00017943 0.06211500 0.00649160
v -0.00005296 0.06198868 0.00667470
v 0.00009721 0.06186236 0.00685691
v 0.00054719 0.06155132 0.00729122
v 0.00069736 0.06154913 0.00728856
v 0.00084753 0.06154474 0.00728326
v 0.00099744 0.06154036 0.00727707
v 0.00009721 0.06173313 0.00703736
v 0.00009721 0.06160462 0.00721426
v 0.00024712 0.06160608 0.00721603
v 0.00024712 0.06155059 0.00729122
v 0.00249781 0.06151846 0.00694360
v 0.00254068 0.06146224 0.00701436
v 0.00113749 0.06144763 0.00738056
v 0.00108078 0.06140309 0.00744424
v 0.00144742 0.06111906 0.00776444
v 0.00159732 0.06111249 0.00775560
v 0.00159732 0.06117967 0.00766803
v 0.00169983 0.06110592 0.00774764
v 0.00174882 0.06114973 0.00768041
v 0.00179968 0.06109862 0.00773879
v 0.00189739 0.06109131 0.00772906
v 0.00204757 0.06107890 0.00771314
v 0.00254068 0.06138849 0.00712316
v 0.00219774 0.06106430 0.00769368
v 0.00230504 0.06110884 0.00760346
v 0.00254068 0.06021585 0.00850745
v 0.00249781 0.06022170 0.00851276
v 0.00234764 0.06031662 0.00845880
v 0.00219774 0.06056487 0.00825536
v 0.00211413 0.06065030 0.00819167
v 0.00189739 0.06059846 0.00828897
v 0.00201428 0.06066052 0.00820229
v 0.00189739 0.06067147 0.00821378
v 0.00174749 0.06068462 0.00822882
v 0.00144742 0.06063935 0.00833054
v 0.00159732 0.06069703 0.00824297
v 0.00133026 0.06064738 0.00833850
v 0.00123041 0.06065249 0.00834470
v 0.00114761 0.06065687 0.00834912
v 0.00054719 0.06039547 0.00869232
v 0.00099744 0.06066271 0.00835619
v 0.00084753 0.06052836 0.00852337
v 0.00069736 0.06053274 0.00852956
v 0.00054719 0.06053566 0.00853310
v 0.00054719 0.06047068 0.00860740
v 0.00009721 0.06025747 0.00885595
v -0.00017943 0.06033122 0.00877104
v -0.00017943 0.06025674 0.00885419
v -0.00017943 0.06018884 0.00892937
v -0.00017943 0.06004281 0.00908505
v -0.00017943 0.06012531 0.00899748
v 0.00024712 0.06025674 0.00885507
v -0.00017943 0.06204052 0.00659598
v -0.00017943 0.06198649 0.00667116
v -0.00005296 0.06185944 0.00685426
v 0.00054719 0.06148925 0.00736817
v 0.00024712 0.06141624 0.00746016
v 0.00009721 0.06114535 0.00779717
v 0.00069736 0.06148487 0.00736817
v 0.00084753 0.06134906 0.00752739
v 0.00084753 0.06140967 0.00745220
v 0.00099744 0.06134541 0.00752208
v -0.00005296 0.06167617 0.00710812
v -0.00005296 0.06154620 0.00728503
v 0.00009721 0.06154913 0.00728945
v -0.00005296 0.06141478 0.00745928
v -0.00005296 0.06135563 0.00753446
v 0.00009721 0.06141551 0.00746016
v 0.00099744 0.06127020 0.00761584
v 0.00114761 0.06120522 0.00768483
v 0.00129725 0.06112490 0.00777152
v 0.00144742 0.06105773 0.00783963
v 0.00144742 0.06098325 0.00793073
v 0.00159732 0.06097595 0.00792189
v 0.00174749 0.06096573 0.00790951
v 0.00190112 0.06100662 0.00783078
v 0.00204757 0.06100443 0.00780425
v 0.00219774 0.06098909 0.00778656
v 0.00254068 0.06127532 0.00728945
v 0.00235217 0.06105408 0.00765918
v 0.00240515 0.06109789 0.00758754
v 0.00254068 0.06123370 0.00734960
v 0.00254068 0.06036700 0.00835796
v 0.00249781 0.06037357 0.00836415
v 0.00234764 0.06054516 0.00823590
v 0.00234764 0.06046849 0.00831108
v 0.00219774 0.06063935 0.00818017
v 0.00219774 0.06070725 0.00810499
v 0.00219774 0.06078246 0.00802096
v 0.00219774 0.06084890 0.00794666
v 0.00208937 0.06079487 0.00803599
v 0.00198925 0.06080509 0.00804661
v 0.00189739 0.06074595 0.00813152
v 0.00174749 0.06075982 0.00814568
v 0.00144742 0.06070652 0.00825536
v 0.00159732 0.06077151 0.00815894
v 0.00144742 0.06078100 0.00816956
v 0.00144742 0.06084598 0.00809437
v 0.00129725 0.06078903 0.00817840
v 0.00114761 0.06072551 0.00826863
v 0.00039729 0.06039693 0.00869409
v 0.00114761 0.06079560 0.00818548
v 0.00098253 0.06074887 0.00825359
v 0.00092262 0.06080217 0.00819344
v 0.00069736 0.06067001 0.00836592
v 0.00069736 0.06060795 0.00844022
v 0.00024712 0.06053785 0.00853487
v 0.00039729 0.06047214 0.00860917
v 0.00054719 0.06067293 0.00836858
v 0.00039729 0.06067366 0.00837035
v 0.00024712 0.06067513 0.00837123
v 0.00024712 0.06061233 0.00844642
v 0.00009721 0.06039839 0.00869674
v -0.00017943 0.06048382 0.00859944
v -0.00017943 0.06039839 0.00869585
v 0.00024712 0.06033122 0.00877104
v -0.00017943 0.06181125 0.00691352
v 0.00054719 0.06141551 0.00745928
v 0.00069736 0.06141332 0.00745663
v -0.00017943 0.06122055 0.00770341
v -0.00017943 0.06114535 0.00779717
v 0.00039729 0.06128043 0.00762734
v -0.00005296 0.06108474 0.00787236
v -0.00017943 0.06102195 0.00795019
v 0.00009721 0.06100954 0.00796435
v 0.00099744 0.06113440 0.00778302
v -0.00017943 0.06155205 0.00726910
v -0.00017943 0.06147903 0.00736817
v -0.00017943 0.06142354 0.00744247
v -0.00017943 0.06136440 0.00752031
v -0.00017943 0.06127970 0.00762822
v 0.00114761 0.06106941 0.00785290
v 0.00129725 0.06106357 0.00784670
v 0.00129725 0.06098909 0.00793781
v 0.00114761 0.06093287 0.00802007
v 0.00129725 0.06092703 0.00801300
v 0.00129725 0.06085182 0.00810322
v 0.00144742 0.06092046 0.00800592
v 0.00159732 0.06091243 0.00799707
v 0.00195358 0.06094893 0.00788916
v 0.00174749 0.06090074 0.00798469
v 0.00204757 0.06094017 0.00787943
v 0.00234764 0.06096938 0.00776356
v 0.00219774 0.06092411 0.00786086
v 0.00234764 0.06090366 0.00783874
v 0.00243684 0.06095624 0.00774852
v 0.00249115 0.06100005 0.00767510
v 0.00249781 0.06108401 0.00756984
v 0.00254068 0.06115703 0.00745486
v 0.00254068 0.06051522 0.00820671
v 0.00249781 0.06052252 0.00821378
v 0.00234764 0.06061963 0.00815894
v 0.00234764 0.06068754 0.00808376
v 0.00234764 0.06076274 0.00799884
v 0.00204251 0.06085474 0.00797850
v 0.00189739 0.06081312 0.00805634
v 0.00174749 0.06082627 0.00807049
v 0.00159732 0.06083722 0.00808376
v 0.00099744 0.06093725 0.00802449
v 0.00069736 0.06080728 0.00819963
v 0.00009721 0.06053785 0.00853575
v 0.00009721 0.06047360 0.00861094
v 0.00009721 0.06061306 0.00844730
v 0.00024712 0.06039767 0.00869585
v 0.00054719 0.06080947 0.00820229
v 0.00024712 0.06075033 0.00828012
v 0.00009721 0.06067586 0.00837212
v -0.00017943 0.06055027 0.00852249
v 0.00024712 0.06100881 0.00796346
v 0.00054719 0.06114316 0.00779363
v 0.00069736 0.06114097 0.00779098
v -0.00017943 0.06108474 0.00787236
v -0.00017943 0.06089490 0.00810587
v -0.00005296 0.06094893 0.00803953
v 0.00009721 0.06088395 0.00811825
v 0.00084753 0.06107671 0.00786174
v 0.00099744 0.06107306 0.00785820
v 0.00250287 0.06074960 0.00796081
v 0.00254068 0.06086789 0.00781132
v 0.00253668 0.06094017 0.00772995
v 0.00254068 0.06099567 0.00766184
v 0.00254068 0.06107671 0.00756100
v 0.00254068 0.06109351 0.00753977
v 0.00254068 0.06058897 0.00812622
v 0.00249781 0.06059700 0.00813329
v 0.00249781 0.06066490 0.00805811
v 0.00084753 0.06094017 0.00802892
v -0.00005296 0.06053858 0.00853575
v -0.00017943 0.06062328 0.00843580
v 0.00039729 0.06088030 0.00811825
v 0.00009721 0.06075106 0.00828101
v 0.00039729 0.06094674 0.00803688
v 0.00024712 0.06088249 0.00811825
v -0.00017943 0.06075106 0.00828189
v -0.00017943 0.06082408 0.00819256
v -0.00005296 0.06088468 0.00811825
v 0.00254068 0.06067513 0.00803157
v 0.00254068 0.06073427 0.00796435
v 0.00254068 0.06093944 0.00772906
v 0.00254068 0.06065833 0.00805015
v -0.00005296 0.06081239 0.00820671
f 1 2 11
f 1 11 17
f 1 17 30
f 1 30 44
f 1 44 43
f 1 43 68
f 1 68 102
f 1 102 143
f 1 143 199
f 1 199 198
f 1 198 213
f 1 213 161
f 1 161 114
f 1 114 78
f 1 78 51
f 1 51 32
f 1 32 20
f 1 20 12
f 1 12 3
f 1 3 4
f 1 4 5
f 1 5 6
f 1 6 7
f 1 7 8
f 1 8 9
f 1 9 14
f 1 14 25
f 1 25 41
f 1 41 66
f 1 66 99
f 1 99 63
f 1 63 98
f 1 98 139
f 1 139 138
f 1 138 192
f 1 192 248
f 1 248 321
f 1 321 320
f 1 320 319
f 1 319 376
f 1 376 434
f 1 434 433
f 1 433 472
f 1 472 517
f 1 517 514
f 1 514 513
f 1 513 516
f 1 516 565
f 1 565 563
f 1 563 629
f 1 629 628
f 1 628 627
f 1 627 626
f 1 626 689
f 1 689 743
f 1 743 742
f 1 742 741
f 1 741 787
f 1 787 786
f 1 786 785
f 1 785 829
f 1 829 868
f 1 868 915
f 1 915 961
f 1 961 1016
f 1 1016 1068
f 1 1068 1079
f 1 1079 1135
f 1 1135 1138
f 1 1138 1205
f 1 1205 1239
f 1 1239 1238
f 1 1238 1237
f 1 1237 1255
f 1 1255 1235
f 1 1235 1254
f 1 1254 1253
f 1 1253 1256
f 1 1256 1240
f 1 1240 1206
f 1 1206 1139
f 1 1139 1082
f 1 1082 1028
f 1 1028 973
f 1 973 928
f 1 928 882
f 1 882 841
f 1 841 795
f 1 795 744
f 1 744 690
f 1 690 630
f 1 630 566
f 1 566 518
f 1 518 473
f 1 473 438
f 1 438 437
f 1 437 436
f 1 436 388
f 1 388 331
f 1 331 262
f 1 262 261
f 1 261 260
f 1 260 256
f 1 256 255
f 1 255 254
f 1 254 201
f 1 201 145
f 1 145 200
f 1 200 160
f 1 160 113
f 1 113 76
f 1 76 49
f 1 49 31
f 1 31 26
f 1 26 15
f 1 15 10
f 1 10 2
f 2 10 11
f 3 12 21
f 3 21 35
f 3 35 54
f 3 54 84
f 3 84 122
f 3 122 171
f 3 171 218
f 3 218 276
f 3 276 287
f 3 287 286
f 3 286 342
f 3 342 406
f 3 406 445
f 3 445 444
f 3 444 448
f 3 448 487
f 3 487 534
f 3 534 533
f 3 533 590
f 3 590 589
f 3 589 647
f 3 647 709
f 3 709 767
f 3 767 816
f 3 816 817
f 3 817 858
f 3 858 901
f 3 901 898
f 3 898 944
f 3 944 996
f 3 996 1049
f 3 1049 1054
f 3 1054 1106
f 3 1106 1107
f 3 1107 1105
f 3 1105 1104
f 3 1104 1103
f 3 1103 1171
f 3 1171 1170
f 3 1170 1224
f 3 1224 1245
f 3 1245 1250
f 3 1250 1251
f 3 1251 1229
f 3 1229 1180
f 3 1180 1228
f 3 1228 1177
f 3 1177 1176
f 3 1176 1187
f 3 1187 1186
f 3 1186 1185
f 3 1185 1184
f 3 1184 1183
f 3 1183 1173
f 3 1173 1110
f 3 1110 1109
f 3 1109 1056
f 3 1056 1002
f 3 1002 1001
f 3 1001 1000
f 3 1000 948
f 3 948 911
f 3 911 904
f 3 904 859
f 3 859 818
f 3 818 769
f 3 769 716
f 3 716 661
f 3 661 660
f 3 660 713
f 3 713 656
f 3 656 655
f 3 655 654
f 3 654 712
f 3 712 710
f 3 710 650
f 3 650 593
f 3 593 536
f 3 536 491
f 3 491 454
f 3 454 420
f 3 420 413
f 3 413 350
f 3 350 288
f 3 288 228
f 3 228 227
f 3 227 175
f 3 175 129
f 3 129 89
f 3 89 57
f 3 57 37
f 3 37 22
f 3 22 13
f 3 13 4
f 4 13 23
f 4 23 36
f 4 36 56
f 4 56 88
f 4 88 128
f 4 128 182
f 4 182 234
f 4 234 293
f 4 293 296
f 4 296 252
f 4 252 249
f 4 249 193
f 4 193 140
f 4 140 130
f 4 130 92
f 4 92 58
f 4 58 38
f 4 38 24
f 4 24 14
f 4 14 9
f 4 9 8
f 4 8 7
f 4 7 6
f 4 6 5
f 10 15 11
f 11 16 17
f 11 15 18
f 11 18 19
f 11 19 16
f 12 20 34
f 12 34 21
f 13 22 23
f 14 24 25
f 15 26 19
f 15 19 18
f 16 27 17
f 16 19 28
f 16 28 29
f 16 29 27
f 17 27 30
f 19 26 31
f 19 31 28
f 20 32 33
f 20 33 34
f 21 34 35
f 22 36 23
f 22 37 36
f 24 38 25
f 25 38 39
f 25 39 40
f 25 40 41
f 27 42 43
f 27 43 44
f 27 44 30
f 27 29 45
f 27 45 46
f 27 46 47
f 27 47 42
f 28 31 29
f 29 48 46
f 29 46 45
f 29 31 49
f 29 49 50
f 29 50 48
f 32 51 52
f 32 52 33
f 33 52 53
f 33 53 54
f 33 54 34
f 34 54 35
f 36 37 55
f 36 55 56
f 37 57 55
f 38 58 59
f 38 59 39
f 39 59 40
f 40 60 61
f 40 61 62
f 40 62 63
f 40 63 64
f 40 64 41
f 40 59 65
f 40 65 60
f 41 64 66
f 42 67 68
f 42 68 43
f 42 47 67
f 46 48 69
f 46 69 47
f 47 69 70
f 47 70 71
f 47 71 72
f 47 72 73
f 47 73 74
f 47 74 67
f 48 50 75
f 48 75 69
f 49 76 50
f 50 76 77
f 50 77 75
f 51 78 79
f 51 79 80
f 51 80 52
f 52 80 81
f 52 81 82
f 52 82 83
f 52 83 53
f 53 83 54
f 54 83 84
f 55 85 86
f 55 86 87
f 55 87 88
f 55 88 56
f 55 57 85
f 57 89 90
f 57 90 91
f 57 91 85
f 58 92 65
f 58 65 59
f 60 93 94
f 60 94 95
f 60 95 61
f 60 65 96
f 60 96 93
f 61 95 97
f 61 97 62
f 62 97 98
f 62 98 63
f 63 99 64
f 64 99 66
f 65 100 131
f 65 131 96
f 65 92 100
f 67 101 143
f 67 143 102
f 67 102 68
f 67 74 101
f 69 75 103
f 69 103 70
f 70 103 71
f 71 104 105
f 71 105 106
f 71 106 107
f 71 107 108
f 71 108 72
f 71 103 104
f 72 108 109
f 72 109 73
f 73 109 74
f 74 110 101
f 74 109 111
f 74 111 112
f 74 112 110
f 75 77 103
f 76 113 105
f 76 105 104
f 76 104 77
f 77 104 103
f 78 114 115
f 78 115 116
f 78 116 117
f 78 117 79
f 79 117 118
f 79 118 81
f 79 81 80
f 81 118 119
f 81 119 120
f 81 120 82
f 82 120 83
f 83 120 121
f 83 121 122
f 83 122 84
f 85 91 86
f 86 90 123
f 86 123 124
f 86 124 125
f 86 125 126
f 86 126 88
f 86 88 87
f 86 91 90
f 88 126 127
f 88 127 128
f 89 129 123
f 89 123 90
f 92 130 100
f 93 96 131
f 93 131 94
f 94 132 133
f 94 133 134
f 94 134 135
f 94 135 95
f 94 131 136
f 94 136 132
f 95 135 137
f 95 137 97
f 97 137 138
f 97 138 139
f 97 139 98
f 100 130 140
f 100 140 141
f 100 141 131
f 101 142 199
f 101 199 143
f 101 110 142
f 105 113 144
f 105 144 106
f 106 144 145
f 106 145 146
f 106 146 147
f 106 147 107
f 107 148 108
f 107 147 149
f 107 149 148
f 108 148 150
f 108 150 151
f 108 151 109
f 109 152 153
f 109 153 111
f 109 151 154
f 109 154 155
f 109 155 156
f 109 156 152
f 110 157 142
f 110 112 159
f 110 159 157
f 111 153 112
f 112 153 152
f 112 152 158
f 112 158 159
f 113 160 144
f 114 161 115
f 115 161 116
f 116 161 162
f 116 162 163
f 116 163 164
f 116 164 165
f 116 165 118
f 116 118 117
f 118 165 166
f 118 166 119
f 119 166 120
f 120 166 167
f 120 167 168
f 120 168 217
f 120 217 169
f 120 169 121
f 121 169 217
f 121 217 170
f 121 170 122
f 122 170 172
f 122 172 173
f 122 173 174
f 122 174 171
f 123 129 175
f 123 175 176
f 123 176 177
f 123 177 124
f 124 178 179
f 124 179 125
f 124 177 178
f 125 179 126
f 126 179 180
f 126 180 127
f 127 180 181
f 127 181 128
f 128 181 182
f 131 141 183
f 131 183 132
f 131 132 136
f 132 184 185
f 132 185 186
f 132 186 133
f 132 183 184
f 133 186 187
f 133 187 134
f 134 188 135
f 134 187 189
f 134 189 190
f 134 190 188
f 135 188 138
f 135 138 137
f 138 188 191
f 138 191 192
f 140 193 194
f 140 194 195
f 140 195 141
f 141 196 197
f 141 197 183
f 141 195 194
f 141 194 196
f 142 157 163
f 142 163 198
f 142 198 199
f 144 160 200
f 144 200 145
f 145 201 146
f 146 149 147
f 146 201 202
f 146 202 149
f 148 203 151
f 148 151 150
f 148 149 204
f 148 204 205
f 148 205 203
f 149 202 204
f 151 203 206
f 151 206 154
f 152 156 158
f 154 206 207
f 154 207 155
f 155 208 156
f 155 207 208
f 156 208 158
f 157 159 164
f 157 164 163
f 158 208 159
f 159 209 164
f 159 208 210
f 159 210 211
f 159 211 212
f 159 212 209
f 161 213 162
f 162 213 163
f 163 213 198
f 164 209 214
f 164 214 165
f 165 214 215
f 165 215 166
f 166 168 167
f 166 215 216
f 166 216 168
f 168 216 217
f 170 217 172
f 171 174 218
f 172 219 174
f 172 174 173
f 172 217 216
f 172 216 220
f 172 220 221
f 172 221 222
f 172 222 223
f 172 223 224
f 172 224 225
f 172 225 219
f 174 219 226
f 174 226 218
f 175 227 176
f 176 227 228
f 176 228 177
f 177 229 230
f 177 230 178
f 177 228 229
f 178 230 179
f 179 231 232
f 179 232 180
f 179 230 231
f 180 232 181
f 181 233 182
f 181 232 233
f 182 233 235
f 182 235 236
f 182 236 237
f 182 237 234
f 183 197 238
f 183 238 184
f 184 238 239
f 184 239 185
f 185 239 186
f 186 239 240
f 186 240 241
f 186 241 187
f 187 241 242
f 187 242 243
f 187 243 244
f 187 244 189
f 188 192 191
f 188 190 245
f 188 245 192
f 189 246 190
f 189 244 246
f 190 246 245
f 192 245 247
f 192 247 248
f 193 249 194
f 194 250 251
f 194 251 196
f 194 249 252
f 194 252 250
f 196 251 253
f 196 253 197
f 197 253 238
f 201 254 202
f 202 254 255
f 202 255 256
f 202 256 205
f 202 205 204
f 203 257 206
f 203 205 258
f 203 258 259
f 203 259 257
f 205 256 260
f 205 260 261
f 205 261 262
f 205 262 263
f 205 263 264
f 205 264 258
f 206 257 265
f 206 265 266
f 206 266 207
f 207 266 267
f 207 267 208
f 208 267 268
f 208 268 269
f 208 269 270
f 208 270 210
f 209 212 214
f 210 270 211
f 211 270 212
f 212 270 271
f 212 271 214
f 214 272 215
f 214 271 273
f 214 273 274
f 214 274 272
f 215 272 216
f 216 275 220
f 216 272 275
f 218 226 276
f 219 225 277
f 219 277 226
f 220 278 221
f 220 275 279
f 220 279 278
f 221 278 222
f 222 280 281
f 222 281 223
f 222 278 280
f 223 281 282
f 223 282 283
f 223 283 284
f 223 284 285
f 223 285 224
f 224 285 225
f 225 285 341
f 225 341 277
f 226 277 342
f 226 342 286
f 226 286 287
f 226 287 276
f 228 288 229
f 229 288 230
f 230 288 289
f 230 289 231
f 231 290 291
f 231 291 236
f 231 236 292
f 231 292 232
f 231 289 290
f 232 292 233
f 233 292 235
f 234 237 293
f 235 292 236
f 236 291 294
f 236 294 237
f 237 294 295
f 237 295 296
f 237 296 293
f 238 297 298
f 238 298 239
f 238 253 297
f 239 298 240
f 240 298 299
f 240 299 241
f 241 300 242
f 241 299 301
f 241 301 302
f 241 302 303
f 241 303 304
f 241 304 305
f 241 305 300
f 242 300 305
f 242 305 306
f 242 306 307
f 242 307 308
f 242 308 243
f 243 308 244
f 244 308 307
f 244 307 309
f 244 309 310
f 244 310 311
f 244 311 312
f 244 312 313
f 244 313 246
f 245 314 247
f 245 246 314
f 246 313 314
f 247 315 316
f 247 316 317
f 247 317 318
f 247 318 319
f 247 319 320
f 247 320 321
f 247 321 248
f 247 314 315
f 250 252 296
f 250 296 295
f 250 295 322
f 250 322 251
f 251 322 253
f 253 322 294
f 253 294 291
f 253 291 323
f 253 323 324
f 253 324 297
f 257 259 325
f 257 325 326
f 257 326 265
f 258 264 263
f 258 263 327
f 258 327 328
f 258 328 329
f 258 329 259
f 259 329 330
f 259 330 325
f 262 331 332
f 262 332 263
f 263 333 328
f 263 328 327
f 263 332 334
f 263 334 333
f 265 267 266
f 265 326 267
f 267 335 268
f 267 326 336
f 267 336 337
f 267 337 338
f 267 338 335
f 268 335 269
f 269 335 270
f 270 335 339
f 270 339 271
f 271 339 340
f 271 340 273
f 272 274 279
f 272 279 275
f 273 279 274
f 273 340 278
f 273 278 279
f 277 341 342
f 278 340 280
f 280 343 281
f 280 340 343
f 281 343 282
f 282 344 345
f 282 345 346
f 282 346 347
f 282 347 283
f 282 343 344
f 283 347 348
f 283 348 284
f 284 348 349
f 284 349 285
f 285 349 341
f 288 350 351
f 288 351 352
f 288 352 353
f 288 353 289
f 289 353 415
f 289 415 354
f 289 354 290
f 290 355 291
f 290 354 356
f 290 356 355
f 291 355 323
f 294 322 295
f 297 324 357
f 297 357 298
f 298 357 299
f 299 357 358
f 299 358 301
f 301 359 360
f 301 360 302
f 301 358 359
f 302 304 303
f 302 360 361
f 302 361 362
f 302 362 363
f 302 363 304
f 304 363 305
f 305 363 364
f 305 364 365
f 305 365 306
f 306 365 366
f 306 366 310
f 306 310 309
f 306 309 307
f 310 366 367
f 310 367 311
f 311 368 312
f 311 367 369
f 311 369 370
f 311 370 371
f 311 371 372
f 311 372 368
f 312 368 313
f 313 368 373
f 313 373 316
f 313 316 315
f 313 315 314
f 316 373 317
f 317 373 318
f 318 373 374
f 318 374 375
f 318 375 376
f 318 376 319
f 323 355 356
f 323 356 377
f 323 377 324
f 324 377 378
f 324 378 379
f 324 379 380
f 324 380 381
f 324 381 357
f 325 382 326
f 325 330 383
f 325 383 382
f 326 382 384
f 326 384 336
f 328 333 385
f 328 385 386
f 328 386 330
f 328 330 329
f 330 387 383
f 330 386 396
f 330 396 387
f 331 388 389
f 331 389 332
f 332 389 334
f 333 334 385
f 334 390 385
f 334 389 391
f 334 391 392
f 334 392 390
f 335 338 393
f 335 393 394
f 335 394 339
f 336 384 395
f 336 395 387
f 336 387 396
f 336 396 397
f 336 397 398
f 336 398 399
f 336 399 337
f 337 399 400
f 337 400 345
f 337 345 401
f 337 401 338
f 338 401 402
f 338 402 393
f 339 394 340
f 340 394 402
f 340 402 343
f 341 403 342
f 341 349 404
f 341 404 405
f 341 405 403
f 342 403 406
f 343 402 344
f 344 407 345
f 344 402 407
f 345 407 401
f 345 400 346
f 346 400 408
f 346 408 409
f 346 409 347
f 347 409 410
f 347 410 348
f 348 410 411
f 348 411 349
f 349 411 404
f 350 412 351
f 350 413 412
f 351 412 378
f 351 378 414
f 351 414 352
f 352 414 353
f 353 414 415
f 354 415 356
f 356 415 377
f 357 381 379
f 357 379 358
f 358 379 359
f 359 379 378
f 359 378 416
f 359 416 417
f 359 417 418
f 359 418 419
f 359 419 360
f 360 419 420
f 360 420 421
f 360 421 361
f 361 421 422
f 361 422 364
f 361 364 362
f 362 364 363
f 364 423 424
f 364 424 425
f 364 425 426
f 364 426 427
f 364 427 365
f 364 422 420
f 364 420 423
f 365 427 367
f 365 367 366
f 367 427 369
f 368 372 373
f 369 427 426
f 369 426 370
f 370 426 428
f 370 428 429
f 370 429 430
f 370 430 372
f 370 372 371
f 372 430 431
f 372 431 432
f 372 432 373
f 373 432 374
f 374 432 375
f 375 433 434
f 375 434 376
f 375 432 433
f 377 415 378
f 378 412 417
f 378 417 416
f 378 415 414
f 379 381 380
f 382 383 435
f 382 435 395
f 382 395 384
f 383 387 435
f 385 397 386
f 385 390 398
f 385 398 397
f 386 397 396
f 387 395 435
f 388 436 391
f 388 391 389
f 390 392 398
f 391 436 437
f 391 437 438
f 391 438 439
f 391 439 440
f 391 440 392
f 392 440 441
f 392 441 398
f 393 402 394
f 398 441 442
f 398 442 399
f 399 442 443
f 399 443 400
f 400 443 408
f 401 407 402
f 403 405 444
f 403 444 445
f 403 445 406
f 404 411 446
f 404 446 447
f 404 447 405
f 405 448 444
f 405 447 449
f 405 449 448
f 408 443 450
f 408 450 451
f 408 451 409
f 409 451 410
f 410 451 452
f 410 452 453
f 410 453 411
f 411 453 446
f 412 413 417
f 413 420 417
f 417 420 418
f 418 420 419
f 420 422 421
f 420 454 455
f 420 455 456
f 420 456 423
f 423 457 424
f 423 456 457
f 424 457 458
f 424 458 459
f 424 459 425
f 425 459 460
f 425 460 426
f 426 460 461
f 426 461 428
f 428 461 462
f 428 462 463
f 428 463 465
f 428 465 429
f 429 464 431
f 429 431 430
f 429 465 466
f 429 466 467
f 429 467 464
f 431 464 468
f 431 468 432
f 432 468 469
f 432 469 470
f 432 470 433
f 433 470 471
f 433 471 472
f 438 473 474
f 438 474 439
f 439 474 440
f 440 474 475
f 440 475 476
f 440 476 477
f 440 477 478
f 440 478 442
f 440 442 441
f 442 478 479
f 442 479 480
f 442 480 481
f 442 481 443
f 443 481 482
f 443 482 450
f 446 483 484
f 446 484 485
f 446 485 486
f 446 486 449
f 446 449 447
f 446 453 483
f 448 449 487
f 449 486 487
f 450 482 488
f 450 488 451
f 451 489 452
f 451 488 490
f 451 490 483
f 451 483 489
f 452 489 483
f 452 483 453
f 454 491 492
f 454 492 493
f 454 493 494
f 454 494 455
f 455 494 456
f 456 494 457
f 457 494 458
f 458 495 496
f 458 496 497
f 458 497 459
f 458 494 495
f 459 497 498
f 459 498 499
f 459 499 460
f 460 499 500
f 460 500 461
f 461 500 501
f 461 501 462
f 462 502 463
f 462 501 503
f 462 503 504
f 462 504 502
f 463 502 505
f 463 505 506
f 463 506 465
f 464 467 507
f 464 507 508
f 464 508 468
f 465 506 466
f 466 506 509
f 466 509 467
f 467 509 510
f 467 510 511
f 467 511 507
f 468 508 507
f 468 507 512
f 468 512 469
f 469 513 514
f 469 514 470
f 469 512 515
f 469 515 516
f 469 516 513
f 470 514 517
f 470 517 471
f 471 517 472
f 473 518 519
f 473 519 474
f 474 520 477
f 474 477 475
f 474 519 520
f 475 477 476
f 477 521 479
f 477 479 478
f 477 520 522
f 477 522 523
f 477 523 524
f 477 524 521
f 479 521 525
f 479 525 526
f 479 526 480
f 480 526 527
f 480 527 481
f 481 527 482
f 482 527 528
f 482 528 529
f 482 529 488
f 483 490 530
f 483 530 531
f 483 531 484
f 484 531 532
f 484 532 485
f 485 532 486
f 486 532 533
f 486 533 534
f 486 534 487
f 488 529 535
f 488 535 530
f 488 530 490
f 491 536 537
f 491 537 492
f 492 537 494
f 492 494 493
f 494 537 538
f 494 538 495
f 495 538 496
f 496 538 539
f 496 539 540
f 496 540 497
f 497 541 542
f 497 542 498
f 497 540 541
f 498 542 543
f 498 543 544
f 498 544 499
f 499 544 545
f 499 545 546
f 499 546 547
f 499 547 548
f 499 548 549
f 499 549 550
f 499 550 500
f 500 550 551
f 500 551 552
f 500 552 501
f 501 552 503
f 502 504 553
f 502 553 505
f 503 552 554
f 503 554 504
f 504 554 555
f 504 555 556
f 504 556 553
f 505 553 557
f 505 557 506
f 506 558 509
f 506 557 558
f 507 511 512
f 509 557 559
f 509 559 510
f 509 558 557
f 510 559 560
f 510 560 561
f 510 561 511
f 511 561 562
f 511 562 563
f 511 563 564
f 511 564 512
f 512 564 563
f 512 563 515
f 515 563 565
f 515 565 516
f 518 566 567
f 518 567 519
f 519 567 568
f 519 568 520
f 520 568 569
f 520 569 570
f 520 570 522
f 521 524 525
f 522 570 571
f 522 571 572
f 522 572 573
f 522 573 574
f 522 574 575
f 522 575 523
f 523 575 524
f 524 575 576
f 524 576 577
f 524 577 578
f 524 578 525
f 525 579 580
f 525 580 526
f 525 578 579
f 526 580 527
f 527 580 579
f 527 579 581
f 527 581 582
f 527 582 528
f 528 582 583
f 528 583 529
f 529 583 535
f 530 584 531
f 530 535 585
f 530 585 586
f 530 586 584
f 531 587 533
f 531 533 532
f 531 584 588
f 531 588 589
f 531 589 590
f 531 590 587
f 533 587 590
f 535 583 644
f 535 644 591
f 535 591 592
f 535 592 585
f 536 593 594
f 536 594 537
f 537 594 595
f 537 595 596
f 537 596 538
f 538 596 539
f 539 597 540
f 539 596 597
f 540 597 598
f 540 598 541
f 541 599 600
f 541 600 601
f 541 601 602
f 541 602 542
f 541 598 599
f 542 602 603
f 542 603 604
f 542 604 605
f 542 605 606
f 542 606 543
f 543 606 544
f 544 606 607
f 544 607 545
f 545 607 606
f 545 606 608
f 545 608 609
f 545 609 610
f 545 610 611
f 545 611 546
f 546 611 547
f 547 611 612
f 547 612 613
f 547 613 548
f 548 613 614
f 548 614 615
f 548 615 549
f 549 615 616
f 549 616 551
f 549 551 550
f 551 616 617
f 551 617 618
f 551 618 552
f 552 618 619
f 552 619 555
f 552 555 554
f 553 556 620
f 553 620 621
f 553 621 557
f 555 619 674
f 555 674 622
f 555 622 556
f 556 622 623
f 556 623 620
f 557 621 624
f 557 624 560
f 557 560 559
f 560 624 625
f 560 625 626
f 560 626 561
f 561 626 627
f 561 627 628
f 561 628 562
f 562 628 629
f 562 629 563
f 566 630 631
f 566 631 567
f 567 631 632
f 567 632 568
f 568 632 633
f 568 633 634
f 568 634 571
f 568 571 570
f 568 570 569
f 571 634 635
f 571 635 572
f 572 635 573
f 573 575 574
f 573 635 636
f 573 636 637
f 573 637 575
f 575 637 576
f 576 637 577
f 577 638 639
f 577 639 642
f 577 642 578
f 577 637 640
f 577 640 641
f 577 641 638
f 578 642 581
f 578 581 579
f 581 642 643
f 581 643 582
f 582 643 644
f 582 644 583
f 584 586 588
f 585 592 586
f 586 592 645
f 586 645 646
f 586 646 647
f 586 647 588
f 588 647 589
f 591 644 645
f 591 645 592
f 593 648 649
f 593 649 594
f 593 650 648
f 594 649 595
f 595 649 651
f 595 651 596
f 596 651 652
f 596 652 597
f 597 652 598
f 598 652 653
f 598 653 599
f 599 654 655
f 599 655 600
f 599 653 654
f 600 655 656
f 600 656 657
f 600 657 658
f 600 658 601
f 601 658 603
f 601 603 602
f 603 658 659
f 603 659 605
f 603 605 604
f 605 659 660
f 605 660 661
f 605 661 606
f 606 661 608
f 608 662 610
f 608 610 609
f 608 661 663
f 608 663 662
f 610 664 611
f 610 662 665
f 610 665 666
f 610 666 667
f 610 667 664
f 611 664 612
f 612 614 613
f 612 664 668
f 612 668 669
f 612 669 670
f 612 670 614
f 614 670 671
f 614 671 615
f 615 671 672
f 615 672 616
f 616 672 673
f 616 673 617
f 617 673 618
f 618 674 619
f 618 673 675
f 618 675 676
f 618 676 677
f 618 677 674
f 620 623 678
f 620 678 679
f 620 679 621
f 621 679 680
f 621 680 624
f 622 681 682
f 622 682 678
f 622 678 623
f 622 674 683
f 622 683 684
f 622 684 681
f 624 680 685
f 624 685 625
f 625 685 686
f 625 686 687
f 625 687 688
f 625 688 689
f 625 689 626
f 630 690 631
f 631 690 691
f 631 691 632
f 632 691 692
f 632 692 693
f 632 693 694
f 632 694 633
f 633 695 636
f 633 636 634
f 633 694 696
f 633 696 695
f 634 636 635
f 636 695 696
f 636 696 697
f 636 697 637
f 637 697 640
f 638 698 699
f 638 699 639
f 638 641 703
f 638 703 698
f 639 699 643
f 639 643 642
f 640 697 700
f 640 700 701
f 640 701 702
f 640 702 641
f 641 702 703
f 643 699 704
f 643 704 705
f 643 705 644
f 644 705 706
f 644 706 707
f 644 707 645
f 645 707 708
f 645 708 646
f 646 708 647
f 647 708 709
f 648 650 649
f 649 650 710
f 649 710 711
f 649 711 652
f 649 652 651
f 652 711 653
f 653 711 710
f 653 710 712
f 653 712 654
f 656 713 714
f 656 714 657
f 657 714 715
f 657 715 658
f 658 715 660
f 658 660 659
f 660 715 714
f 660 714 713
f 661 716 717
f 661 717 663
f 662 663 717
f 662 717 665
f 664 667 668
f 665 717 718
f 665 718 666
f 666 718 719
f 666 719 667
f 667 719 669
f 667 669 668
f 669 719 720
f 669 720 670
f 670 720 721
f 670 721 722
f 670 722 671
f 671 722 672
f 672 722 723
f 672 723 673
f 673 723 675
f 674 677 683
f 675 723 676
f 676 723 724
f 676 724 725
f 676 725 726
f 676 726 727
f 676 727 728
f 676 728 677
f 677 728 729
f 677 729 683
f 678 730 731
f 678 731 679
f 678 682 681
f 678 681 732
f 678 732 730
f 679 731 733
f 679 733 734
f 679 734 680
f 680 686 685
f 680 734 735
f 680 735 736
f 680 736 737
f 680 737 687
f 680 687 686
f 681 738 739
f 681 739 732
f 681 684 738
f 683 729 684
f 684 728 740
f 684 740 738
f 684 729 728
f 687 737 741
f 687 741 742
f 687 742 688
f 688 743 689
f 688 742 743
f 690 744 691
f 691 744 745
f 691 745 692
f 692 745 746
f 692 746 747
f 692 747 748
f 692 748 693
f 693 748 749
f 693 749 750
f 693 750 694
f 694 750 696
f 696 750 751
f 696 751 700
f 696 700 697
f 698 703 704
f 698 704 699
f 700 752 701
f 700 751 753
f 700 753 752
f 701 754 755
f 701 755 702
f 701 752 754
f 702 756 703
f 702 755 757
f 702 757 758
f 702 758 759
f 702 759 756
f 703 756 760
f 703 760 704
f 704 761 762
f 704 762 763
f 704 763 705
f 704 760 764
f 704 764 765
f 704 765 761
f 705 763 706
f 706 763 762
f 706 762 707
f 707 762 766
f 707 766 708
f 708 767 709
f 708 766 768
f 708 768 767
f 716 769 717
f 717 769 770
f 717 770 771
f 717 771 718
f 718 772 719
f 718 771 773
f 718 773 772
f 719 772 720
f 720 772 773
f 720 773 774
f 720 774 721
f 721 774 722
f 722 774 725
f 722 725 723
f 723 725 724
f 725 774 775
f 725 775 726
f 726 775 727
f 727 776 777
f 727 777 778
f 727 778 728
f 727 775 776
f 728 778 740
f 730 732 731
f 731 732 733
f 732 739 779
f 732 779 780
f 732 780 733
f 733 780 781
f 733 781 734
f 734 781 782
f 734 782 783
f 734 783 735
f 735 783 737
f 735 737 736
f 737 783 784
f 737 784 785
f 737 785 786
f 737 786 787
f 737 787 741
f 738 740 788
f 738 788 739
f 739 788 789
f 739 789 790
f 739 790 791
f 739 791 779
f 740 778 792
f 740 792 793
f 740 793 794
f 740 794 788
f 744 795 745
f 745 795 746
f 746 795 796
f 746 796 797
f 746 797 798
f 746 798 799
f 746 799 748
f 746 748 747
f 748 799 800
f 748 800 749
f 749 800 801
f 749 801 751
f 749 751 750
f 751 802 753
f 751 801 803
f 751 803 804
f 751 804 805
f 751 805 802
f 752 753 755
f 752 755 754
f 753 802 805
f 753 805 806
f 753 806 757
f 753 757 755
f 756 759 760
f 757 806 807
f 757 807 758
f 758 807 764
f 758 764 760
f 758 760 759
f 761 765 764
f 761 764 762
f 762 808 854
f 762 854 809
f 762 809 810
f 762 810 811
f 762 811 766
f 762 764 808
f 764 807 812
f 764 812 857
f 764 857 813
f 764 813 808
f 766 811 814
f 766 814 815
f 766 815 768
f 767 768 816
f 768 815 817
f 768 817 816
f 769 818 770
f 770 819 773
f 770 773 771
f 770 818 820
f 770 820 819
f 773 819 821
f 773 821 775
f 773 775 774
f 775 821 776
f 776 821 822
f 776 822 777
f 777 822 823
f 777 823 792
f 777 792 778
f 779 781 780
f 779 791 824
f 779 824 781
f 781 824 825
f 781 825 826
f 781 826 782
f 782 826 827
f 782 827 828
f 782 828 785
f 782 785 783
f 783 785 784
f 785 828 829
f 788 794 830
f 788 830 789
f 789 830 831
f 789 831 832
f 789 832 790
f 790 832 833
f 790 833 834
f 790 834 824
f 790 824 791
f 792 823 864
f 792 864 835
f 792 835 836
f 792 836 793
f 793 836 794
f 794 837 838
f 794 838 830
f 794 836 839
f 794 839 840
f 794 840 837
f 795 841 842
f 795 842 796
f 796 842 843
f 796 843 797
f 797 843 844
f 797 844 845
f 797 845 798
f 798 845 799
f 799 845 846
f 799 846 800
f 800 846 845
f 800 845 847
f 800 847 848
f 800 848 801
f 801 848 849
f 801 849 803
f 803 849 850
f 803 850 805
f 803 805 804
f 805 850 851
f 805 851 807
f 805 807 806
f 807 852 812
f 807 851 893
f 807 893 852
f 808 853 854
f 808 813 853
f 809 854 855
f 809 855 856
f 809 856 810
f 810 814 811
f 810 856 814
f 812 852 857
f 813 857 853
f 814 856 858
f 814 858 817
f 814 817 815
f 818 859 860
f 818 860 861
f 818 861 820
f 819 820 821
f 820 861 862
f 820 862 822
f 820 822 821
f 822 862 863
f 822 863 823
f 823 863 864
f 824 834 865
f 824 865 825
f 825 865 826
f 826 865 866
f 826 866 867
f 826 867 827
f 827 867 828
f 828 867 868
f 828 868 829
f 830 838 831
f 831 869 870
f 831 870 871
f 831 871 832
f 831 838 869
f 832 871 833
f 833 865 834
f 833 871 872
f 833 872 873
f 833 873 865
f 835 864 874
f 835 874 875
f 835 875 876
f 835 876 877
f 835 877 836
f 836 877 876
f 836 876 839
f 837 840 838
f 838 840 869
f 839 876 878
f 839 878 879
f 839 879 880
f 839 880 881
f 839 881 840
f 840 881 869
f 841 882 883
f 841 883 884
f 841 884 843
f 841 843 842
f 843 884 844
f 844 884 885
f 844 885 845
f 845 885 886
f 845 886 847
f 847 886 887
f 847 887 888
f 847 888 889
f 847 889 890
f 847 890 848
f 848 890 849
f 849 890 891
f 849 891 850
f 850 891 892
f 850 892 851
f 851 892 894
f 851 894 895
f 851 895 893
f 852 896 857
f 852 893 896
f 853 857 897
f 853 897 854
f 854 898 855
f 854 897 899
f 854 899 900
f 854 900 898
f 855 898 856
f 856 898 901
f 856 901 858
f 857 896 902
f 857 902 903
f 857 903 899
f 857 899 897
f 859 904 860
f 860 905 906
f 860 906 907
f 860 907 908
f 860 908 909
f 860 909 862
f 860 862 861
f 860 904 910
f 860 910 911
f 860 911 905
f 862 909 908
f 862 908 863
f 863 908 912
f 863 912 864
f 864 912 913
f 864 913 874
f 865 873 868
f 865 868 866
f 866 868 867
f 868 914 915
f 868 873 914
f 869 881 916
f 869 916 917
f 869 917 870
f 870 917 918
f 870 918 919
f 870 919 914
f 870 914 920
f 870 920 871
f 871 920 921
f 871 921 873
f 871 873 872
f 873 921 914
f 874 913 922
f 874 922 875
f 875 922 876
f 876 922 923
f 876 923 878
f 878 923 924
f 878 924 879
f 879 924 925
f 879 925 926
f 879 926 927
f 879 927 880
f 880 927 916
f 880 916 881
f 882 928 929
f 882 929 883
f 883 929 930
f 883 930 884
f 884 930 885
f 885 930 931
f 885 931 887
f 885 887 886
f 887 931 932
f 887 932 888
f 888 932 889
f 889 932 933
f 889 933 890
f 890 933 934
f 890 934 935
f 890 935 936
f 890 936 891
f 891 936 937
f 891 937 892
f 892 937 938
f 892 938 894
f 893 895 939
f 893 939 940
f 893 940 941
f 893 941 902
f 893 902 896
f 894 939 895
f 894 938 942
f 894 942 992
f 894 992 943
f 894 943 939
f 898 900 945
f 898 945 944
f 899 903 900
f 900 903 902
f 900 902 945
f 902 946 945
f 902 941 947
f 902 947 946
f 904 911 910
f 905 911 948
f 905 948 949
f 905 949 950
f 905 950 906
f 906 950 951
f 906 951 952
f 906 952 907
f 907 953 954
f 907 954 912
f 907 912 908
f 907 952 951
f 907 951 955
f 907 955 956
f 907 956 953
f 912 954 957
f 912 957 913
f 913 957 958
f 913 958 923
f 913 923 922
f 914 921 920
f 914 919 959
f 914 959 960
f 914 960 915
f 915 960 961
f 916 927 962
f 916 962 963
f 916 963 917
f 917 963 918
f 918 963 919
f 919 963 959
f 923 958 964
f 923 964 965
f 923 965 924
f 924 965 966
f 924 966 925
f 925 966 967
f 925 967 968
f 925 968 926
f 926 968 969
f 926 969 970
f 926 970 927
f 927 971 962
f 927 970 972
f 927 972 971
f 928 973 929
f 929 973 974
f 929 974 975
f 929 975 930
f 930 975 977
f 930 977 976
f 930 976 931
f 931 976 977
f 931 977 978
f 931 978 979
f 931 979 932
f 932 979 980
f 932 980 933
f 933 980 934
f 934 980 981
f 934 981 982
f 934 982 983
f 934 983 935
f 935 984 985
f 935 985 936
f 935 983 986
f 935 986 987
f 935 987 984
f 936 938 937
f 936 985 988
f 936 988 938
f 938 988 989
f 938 989 942
f 939 990 991
f 939 991 940
f 939 943 992
f 939 992 993
f 939 993 990
f 940 947 941
f 940 991 947
f 942 989 992
f 944 945 994
f 944 994 995
f 944 995 996
f 945 946 995
f 945 995 994
f 946 947 997
f 946 997 995
f 947 998 997
f 947 991 999
f 947 999 998
f 948 1000 949
f 949 1000 1001
f 949 1001 1002
f 949 1002 1003
f 949 1003 950
f 950 1003 1004
f 950 1004 951
f 951 1004 1005
f 951 1005 1006
f 951 1006 955
f 953 957 954
f 953 956 1007
f 953 1007 1008
f 953 1008 1009
f 953 1009 964
f 953 964 957
f 955 1006 1010
f 955 1010 956
f 956 1010 1011
f 956 1011 1012
f 956 1012 1013
f 956 1013 1007
f 957 964 958
f 959 963 960
f 960 963 1014
f 960 1014 1015
f 960 1015 1016
f 960 1016 961
f 962 971 1015
f 962 1015 1014
f 962 1014 963
f 964 1009 1008
f 964 1008 1017
f 964 1017 1018
f 964 1018 965
f 965 1018 966
f 966 1018 1019
f 966 1019 1020
f 966 1020 967
f 967 1020 1021
f 967 1021 968
f 968 1021 1022
f 968 1022 1023
f 968 1023 969
f 969 1023 1024
f 969 1024 972
f 969 972 970
f 971 1025 1015
f 971 972 1025
f 972 1024 1026
f 972 1026 1027
f 972 1027 1025
f 973 1028 1029
f 973 1029 974
f 974 1029 1030
f 974 1030 975
f 975 1030 977
f 977 1030 978
f 978 1031 980
f 978 980 979
f 978 1030 1032
f 978 1032 1033
f 978 1033 1034
f 978 1034 1035
f 978 1035 1031
f 980 1031 1035
f 980 1035 981
f 981 1035 982
f 982 1035 1034
f 982 1034 1036
f 982 1036 1037
f 982 1037 983
f 983 1037 1038
f 983 1038 986
f 984 1039 985
f 984 987 1040
f 984 1040 1041
f 984 1041 1039
f 985 1039 989
f 985 989 988
f 986 1038 1040
f 986 1040 987
f 989 1039 1042
f 989 1042 992
f 990 1043 991
f 990 993 1043
f 991 1043 1044
f 991 1044 999
f 992 1042 1045
f 992 1045 993
f 993 1045 1046
f 993 1046 1047
f 993 1047 1048
f 993 1048 1043
f 995 997 1049
f 995 1049 996
f 997 1050 1051
f 997 1051 1052
f 997 1052 1053
f 997 1053 1054
f 997 1054 1049
f 997 998 1055
f 997 1055 1050
f 998 999 1055
f 999 1044 1055
f 1002 1056 1003
f 1003 1056 1057
f 1003 1057 1005
f 1003 1005 1004
f 1005 1057 1058
f 1005 1058 1010
f 1005 1010 1006
f 1007 1013 1059
f 1007 1059 1060
f 1007 1060 1061
f 1007 1061 1008
f 1008 1061 1062
f 1008 1062 1017
f 1010 1063 1011
f 1010 1058 1063
f 1011 1063 1064
f 1011 1064 1065
f 1011 1065 1012
f 1012 1065 1013
f 1013 1065 1066
f 1013 1066 1059
f 1015 1067 1016
f 1015 1025 1067
f 1016 1067 1068
f 1017 1062 1018
f 1018 1062 1069
f 1018 1069 1019
f 1019 1070 1071
f 1019 1071 1072
f 1019 1072 1073
f 1019 1073 1021
f 1019 1021 1020
f 1019 1069 1070
f 1021 1073 1074
f 1021 1074 1075
f 1021 1075 1023
f 1021 1023 1022
f 1023 1075 1076
f 1023 1076 1077
f 1023 1077 1078
f 1023 1078 1024
f 1024 1078 1080
f 1024 1080 1026
f 1025 1079 1068
f 1025 1068 1067
f 1025 1027 1079
f 1026 1080 1081
f 1026 1081 1027
f 1027 1081 1079
f 1028 1082 1083
f 1028 1083 1084
f 1028 1084 1033
f 1028 1033 1029
f 1029 1032 1030
f 1029 1033 1032
f 1033 1084 1085
f 1033 1085 1086
f 1033 1086 1034
f 1034 1086 1036
f 1036 1087 1037
f 1036 1086 1087
f 1037 1087 1038
f 1038 1087 1088
f 1038 1088 1089
f 1038 1089 1090
f 1038 1090 1040
f 1039 1041 1040
f 1039 1040 1091
f 1039 1091 1042
f 1040 1090 1092
f 1040 1092 1091
f 1042 1046 1045
f 1042 1091 1093
f 1042 1093 1094
f 1042 1094 1095
f 1042 1095 1046
f 1043 1048 1044
f 1044 1048 1096
f 1044 1096 1108
f 1044 1108 1055
f 1046 1095 1097
f 1046 1097 1098
f 1046 1098 1047
f 1047 1098 1048
f 1048 1098 1099
f 1048 1099 1100
f 1048 1100 1101
f 1048 1101 1096
f 1050 1055 1108
f 1050 1108 1102
f 1050 1102 1171
f 1050 1171 1103
f 1050 1103 1104
f 1050 1104 1051
f 1051 1104 1105
f 1051 1105 1052
f 1052 1105 1053
f 1053 1106 1054
f 1053 1105 1107
f 1053 1107 1106
f 1056 1109 1057
f 1057 1110 1111
f 1057 1111 1063
f 1057 1063 1058
f 1057 1109 1110
f 1059 1112 1060
f 1059 1066 1113
f 1059 1113 1114
f 1059 1114 1112
f 1060 1112 1115
f 1060 1115 1116
f 1060 1116 1117
f 1060 1117 1118
f 1060 1118 1070
f 1060 1070 1061
f 1061 1070 1062
f 1062 1070 1069
f 1063 1119 1064
f 1063 1111 1119
f 1064 1120 1121
f 1064 1121 1066
f 1064 1066 1065
f 1064 1119 1120
f 1066 1121 1122
f 1066 1122 1123
f 1066 1123 1124
f 1066 1124 1113
f 1070 1118 1125
f 1070 1125 1126
f 1070 1126 1127
f 1070 1127 1071
f 1071 1127 1189
f 1071 1189 1128
f 1071 1128 1072
f 1072 1128 1129
f 1072 1129 1130
f 1072 1130 1074
f 1072 1074 1073
f 1074 1130 1131
f 1074 1131 1076
f 1074 1076 1075
f 1076 1131 1077
f 1077 1131 1132
f 1077 1132 1133
f 1077 1133 1078
f 1078 1133 1134
f 1078 1134 1080
f 1079 1081 1135
f 1080 1136 1137
f 1080 1137 1081
f 1080 1134 1136
f 1081 1137 1138
f 1081 1138 1135
f 1082 1139 1140
f 1082 1140 1141
f 1082 1141 1142
f 1082 1142 1083
f 1083 1142 1084
f 1084 1142 1085
f 1085 1142 1141
f 1085 1141 1086
f 1086 1143 1144
f 1086 1144 1145
f 1086 1145 1146
f 1086 1146 1147
f 1086 1147 1088
f 1086 1088 1087
f 1086 1141 1143
f 1088 1147 1148
f 1088 1148 1149
f 1088 1149 1089
f 1089 1149 1090
f 1090 1149 1150
f 1090 1150 1092
f 1091 1092 1151
f 1091 1151 1093
f 1092 1150 1152
f 1092 1152 1151
f 1093 1151 1153
f 1093 1153 1154
f 1093 1154 1094
f 1094 1154 1155
f 1094 1155 1095
f 1095 1155 1156
f 1095 1156 1097
f 1096 1101 1164
f 1096 1164 1157
f 1096 1157 1108
f 1097 1156 1158
f 1097 1158 1159
f 1097 1159 1160
f 1097 1160 1161
f 1097 1161 1162
f 1097 1162 1099
f 1097 1099 1098
f 1099 1162 1100
f 1100 1163 1164
f 1100 1164 1101
f 1100 1162 1161
f 1100 1161 1165
f 1100 1165 1166
f 1100 1166 1167
f 1100 1167 1168
f 1100 1168 1163
f 1102 1169 1170
f 1102 1170 1171
f 1102 1108 1172
f 1102 1172 1169
f 1108 1157 1172
f 1110 1173 1119
f 1110 1119 1111
f 1112 1114 1174
f 1112 1174 1175
f 1112 1175 1115
f 1113 1124 1176
f 1113 1176 1177
f 1113 1177 1114
f 1114 1178 1174
f 1114 1177 1228
f 1114 1228 1179
f 1114 1179 1180
f 1114 1180 1181
f 1114 1181 1178
f 1115 1175 1116
f 1116 1125 1117
f 1116 1175 1182
f 1116 1182 1125
f 1117 1125 1118
f 1119 1173 1183
f 1119 1183 1120
f 1120 1183 1184
f 1120 1184 1121
f 1121 1184 1185
f 1121 1185 1186
f 1121 1186 1122
f 1122 1186 1187
f 1122 1187 1176
f 1122 1176 1123
f 1123 1176 1124
f 1125 1182 1188
f 1125 1188 1126
f 1126 1188 1127
f 1127 1188 1189
f 1128 1189 1190
f 1128 1190 1129
f 1129 1190 1191
f 1129 1191 1192
f 1129 1192 1158
f 1129 1158 1193
f 1129 1193 1155
f 1129 1155 1194
f 1129 1194 1130
f 1130 1194 1154
f 1130 1154 1195
f 1130 1195 1131
f 1131 1196 1132
f 1131 1195 1197
f 1131 1197 1196
f 1132 1196 1133
f 1133 1196 1198
f 1133 1198 1134
f 1134 1199 1136
f 1134 1198 1147
f 1134 1147 1200
f 1134 1200 1201
f 1134 1201 1199
f 1136 1199 1202
f 1136 1202 1137
f 1137 1202 1203
f 1137 1203 1204
f 1137 1204 1205
f 1137 1205 1138
f 1139 1206 1207
f 1139 1207 1141
f 1139 1141 1140
f 1141 1207 1208
f 1141 1208 1143
f 1143 1208 1209
f 1143 1209 1144
f 1144 1209 1145
f 1145 1209 1146
f 1146 1201 1200
f 1146 1200 1147
f 1146 1209 1210
f 1146 1210 1201
f 1147 1211 1148
f 1147 1198 1211
f 1148 1211 1196
f 1148 1196 1212
f 1148 1212 1149
f 1149 1212 1150
f 1150 1212 1213
f 1150 1213 1152
f 1151 1152 1214
f 1151 1214 1153
f 1152 1213 1214
f 1153 1214 1195
f 1153 1195 1154
f 1154 1194 1155
f 1155 1193 1158
f 1155 1158 1156
f 1157 1164 1172
f 1158 1192 1191
f 1158 1191 1159
f 1159 1191 1160
f 1160 1191 1215
f 1160 1215 1216
f 1160 1216 1161
f 1161 1216 1165
f 1163 1217 1218
f 1163 1218 1164
f 1163 1168 1219
f 1163 1219 1217
f 1164 1218 1169
f 1164 1169 1220
f 1164 1220 1172
f 1165 1216 1221
f 1165 1221 1222
f 1165 1222 1166
f 1166 1222 1167
f 1167 1223 1219
f 1167 1219 1168
f 1167 1222 1247
f 1167 1247 1223
f 1169 1218 1170
f 1169 1172 1220
f 1170 1218 1224
f 1174 1178 1225
f 1174 1225 1226
f 1174 1226 1227
f 1174 1227 1175
f 1175 1227 1182
f 1178 1181 1225
f 1179 1228 1180
f 1180 1229 1230
f 1180 1230 1181
f 1181 1230 1231
f 1181 1231 1225
f 1182 1227 1232
f 1182 1232 1233
f 1182 1233 1188
f 1188 1233 1215
f 1188 1215 1191
f 1188 1191 1189
f 1189 1191 1190
f 1195 1214 1197
f 1196 1197 1213
f 1196 1213 1212
f 1196 1211 1198
f 1197 1214 1213
f 1199 1201 1202
f 1201 1234 1202
f 1201 1210 1234
f 1202 1234 1235
f 1202 1235 1236
f 1202 1236 1237
f 1202 1237 1203
f 1203 1237 1204
f 1204 1237 1238
f 1204 1238 1239
f 1204 1239 1205
f 1206 1240 1241
f 1206 1241 1207
f 1207 1241 1208
f 1208 1241 1242
f 1208 1242 1209
f 1209 1242 1234
f 1209 1234 1210
f 1215 1243 1216
f 1215 1233 1232
f 1215 1232 1243
f 1216 1243 1232
f 1216 1232 1227
f 1216 1227 1226
f 1216 1226 1221
f 1217 1244 1218
f 1217 1219 1244
f 1218 1244 1224
f 1219 1223 1245
f 1219 1245 1224
f 1219 1224 1244
f 1221 1246 1222
f 1221 1226 1246
f 1222 1246 1248
f 1222 1248 1249
f 1222 1249 1231
f 1222 1231 1247
f 1223 1247 1250
f 1223 1250 1245
f 1225 1231 1249
f 1225 1249 1226
f 1226 1249 1248
f 1226 1248 1246
f 1229 1251 1252
f 1229 1252 1230
f 1230 1252 1231
f 1231 1252 1247
f 1234 1242 1253
f 1234 1253 1254
f 1234 1254 1235
f 1235 1255 1236
f 1236 1255 1237
f 1240 1256 1241
f 1241 1256 1253
f 1241 1253 1242
f 1247 1252 1257
f 1247 1257 1250
f 1250 1257 1251
f 1251 1257 1252

