# https://github.com/mikedh/trimesh
v 0.00138527 0.01931343 -0.01790095
v 0.00159807 0.01931343 -0.01787863
v 0.00138527 0.01916387 -0.01789447
v 0.00138527 0.01936936 -0.01789663
v 0.00204847 0.01946360 -0.01782248
v 0.00219803 0.01946360 -0.01780737
v 0.00189805 0.01931343 -0.01784696
v 0.00174764 0.01916326 -0.01785416
v 0.00138527 0.01901309 -0.01787935
v 0.00138527 0.01946056 -0.01788799
v 0.00189805 0.01946360 -0.01783760
v 0.00246467 0.01956817 -0.01776922
v 0.00234844 0.01946360 -0.01779081
v 0.00256467 0.01951649 -0.01776418
v 0.00250826 0.01946481 -0.01777282
v 0.00258176 0.01941617 -0.01776634
v 0.00204847 0.01931343 -0.01782968
v 0.00257407 0.01923682 -0.01776490
v 0.00204847 0.01916326 -0.01781961
v 0.00140664 0.01895472 -0.01786927
v 0.00138527 0.01895472 -0.01787143
v 0.00159807 0.01901309 -0.01785488
v 0.00138527 0.01952561 -0.01788007
v 0.00250826 0.01961620 -0.01775698
v 0.00138527 0.01967578 -0.01786136
v 0.00138527 0.01982534 -0.01784120
v 0.00239203 0.01966848 -0.01776202
v 0.00264842 0.01961316 -0.01773898
v 0.00279798 0.01946360 -0.01773610
v 0.00263816 0.01946481 -0.01775698
v 0.00265526 0.01931343 -0.01775554
v 0.00258005 0.01931343 -0.01776562
v 0.00249800 0.01931343 -0.01777641
v 0.00234844 0.01931343 -0.01779513
v 0.00279798 0.01931343 -0.01773466
v 0.00279798 0.01916326 -0.01772675
v 0.00263389 0.01917724 -0.01775122
v 0.00253133 0.01913711 -0.01775986
v 0.00234844 0.01916326 -0.01778505
v 0.00204847 0.01901309 -0.01780305
v 0.00225785 0.01895472 -0.01777066
v 0.00138527 0.01895472 -0.01703930
v 0.00138527 0.02034698 -0.01775842
v 0.00138527 0.02042723 -0.01774258
v 0.00279798 0.01961316 -0.01771523
v 0.00138527 0.02516517 -0.01663835
v 0.00294840 0.01946360 -0.01770875
v 0.00294840 0.01931343 -0.01770659
v 0.00294840 0.01916326 -0.01769867
v 0.00294840 0.01901309 -0.01767780
v 0.00279798 0.01901309 -0.01770443
v 0.00264842 0.01901309 -0.01772675
v 0.00243134 0.01908179 -0.01776562
v 0.00229033 0.01895472 -0.01776634
v 0.00138613 0.01895472 -0.01663979
v 0.00138527 0.01895533 -0.01663979
v 0.00294840 0.01961316 -0.01768284
v 0.00321675 0.01957242 -0.01762741
v 0.00138527 0.02516517 -0.01549884
v 0.00399789 0.02516517 -0.01592714
v 0.00309881 0.01946360 -0.01767420
v 0.00354835 0.01931343 -0.01757414
v 0.00342015 0.01931343 -0.01760293
v 0.00324837 0.01931343 -0.01764108
v 0.00309881 0.01931343 -0.01767420
v 0.00333469 0.01920764 -0.01761733
v 0.00325948 0.01915961 -0.01763029
v 0.00354835 0.01901309 -0.01755470
v 0.00339879 0.01901309 -0.01758710
v 0.00329367 0.01901309 -0.01760941
v 0.00321846 0.01901309 -0.01762453
v 0.00309881 0.01901309 -0.01764828
v 0.00316205 0.01895472 -0.01762741
v 0.00279798 0.01895472 -0.01768787
v 0.01011620 0.01895472 -0.01277640
v 0.01011620 0.02066130 -0.01124243
v 0.01011620 0.02081512 -0.01110494
v 0.00138527 0.02023937 -0.01606463
v 0.01011620 0.02096104 -0.01101208
v 0.01011620 0.02110391 -0.01092138
v 0.00331674 0.01952135 -0.01761301
v 0.00138527 0.02516031 -0.01549884
v 0.01011620 0.02516517 -0.01054778
v 0.00414830 0.02516517 -0.01588396
v 0.00414915 0.02516457 -0.01588396
v 0.00393892 0.01940219 -0.01746904
v 0.00334067 0.01942104 -0.01761877
v 0.00369876 0.01931343 -0.01753959
v 0.00396455 0.01916326 -0.01747408
v 0.00384918 0.01916326 -0.01750000
v 0.00339024 0.01915961 -0.01760149
v 0.00393892 0.01901309 -0.01746832
v 0.00390644 0.01895472 -0.01747048
v 0.01011620 0.01895472 -0.01410379
v 0.00138527 0.02054336 -0.01593218
v 0.01011620 0.02126381 -0.01086019
v 0.00384918 0.01931343 -0.01750288
v 0.00138527 0.02451160 -0.01553339
v 0.01011620 0.02506972 -0.01055282
v 0.01011620 0.02516457 -0.01054778
v 0.01011620 0.02516517 -0.01212495
v 0.00437905 0.02516517 -0.01581629
v 0.00429872 0.02516457 -0.01584005
v 0.00440640 0.01942104 -0.01732580
v 0.00445340 0.01931343 -0.01733659
v 0.00429872 0.01931343 -0.01738194
v 0.00414915 0.01931343 -0.01742369
v 0.00403634 0.01931343 -0.01745465
v 0.00396114 0.01931343 -0.01747408
v 0.00414915 0.01916326 -0.01743017
v 0.00403891 0.01916326 -0.01745681
v 0.00414915 0.01901309 -0.01742009
v 0.00420727 0.01895472 -0.01740138
v 0.01011620 0.01901309 -0.01410091
v 0.01001707 0.01895472 -0.01419593
v 0.00998715 0.01901309 -0.01422256
v 0.00138527 0.02084309 -0.01582637
v 0.01011620 0.02131913 -0.01085227
v 0.00429872 0.01916326 -0.01739274
v 0.00138527 0.02441858 -0.01553843
v 0.01011620 0.02491043 -0.01056146
v 0.01011620 0.01946360 -0.01402173
v 0.00997604 0.02516517 -0.01226532
v 0.00459784 0.02516517 -0.01574863
v 0.00459869 0.02516457 -0.01574863
v 0.00445426 0.02516457 -0.01579326
v 0.00474825 0.02516517 -0.01570112
v 0.00450639 0.01936328 -0.01730852
v 0.00454314 0.01926297 -0.01732004
v 0.00455596 0.01916326 -0.01732364
v 0.00444913 0.01916326 -0.01735243
v 0.00462775 0.01901309 -0.01730348
v 0.00444913 0.01901309 -0.01734811
v 0.00429872 0.01901309 -0.01738482
v 0.00429872 0.01895472 -0.01737978
v 0.01011620 0.01905808 -0.01409731
v 0.00967350 0.01916326 -0.01450906
v 0.00974786 0.01916326 -0.01443852
v 0.00993930 0.01895472 -0.01426791
v 0.00975128 0.01901309 -0.01444139
v 0.00951796 0.01916326 -0.01465375
v 0.00959317 0.01916326 -0.01458392
v 0.00138527 0.02165169 -0.01574143
v 0.01011620 0.02149970 -0.01082780
v 0.01011620 0.02156415 -0.01081988
v 0.01011620 0.02171432 -0.01080404
v 0.00138527 0.02225116 -0.01568456
v 0.01011620 0.02441433 -0.01059241
v 0.01011620 0.02456450 -0.01058233
v 0.01011620 0.02471467 -0.01057297
v 0.00960086 0.02516517 -0.01264036
v 0.01011620 0.01943806 -0.01402965
v 0.01002220 0.01946360 -0.01411315
v 0.00899663 0.02516517 -0.01323782
v 0.00907355 0.02516517 -0.01316296
v 0.00914876 0.02516517 -0.01308953
v 0.00930003 0.02516517 -0.01293981
v 0.00483970 0.02516517 -0.01567016
v 0.00484055 0.02516457 -0.01567016
v 0.00459527 0.01931343 -0.01728908
v 0.00520890 0.02516517 -0.01553555
v 0.00474911 0.01931343 -0.01723006
v 0.00474911 0.01916326 -0.01726173
v 0.00463031 0.01916326 -0.01730204
v 0.00461493 0.01895472 -0.01730060
v 0.00454570 0.01895472 -0.01732004
v 0.00474911 0.01901309 -0.01726749
v 0.00435939 0.01895472 -0.01736539
v 0.01011620 0.01916326 -0.01408723
v 0.00943079 0.01931343 -0.01472213
v 0.00951027 0.01931343 -0.01464727
v 0.00978204 0.01895472 -0.01441188
v 0.00967607 0.01901309 -0.01451050
v 0.00943677 0.01916326 -0.01472861
v 0.00935558 0.01931343 -0.01479196
v 0.00138527 0.02210159 -0.01569824
v 0.01011620 0.02186449 -0.01078965
v 0.01011620 0.02216361 -0.01076157
v 0.01011620 0.02231378 -0.01074789
v 0.01011620 0.01932194 -0.01406204
v 0.00971709 0.01946360 -0.01440828
v 0.00892143 0.02516517 -0.01330765
v 0.00948976 0.01946360 -0.01462783
v 0.00934020 0.01942833 -0.01477828
v 0.00491491 0.02516517 -0.01564281
v 0.00532855 0.02516517 -0.01549092
v 0.00549948 0.02516457 -0.01542254
v 0.00496960 0.01921494 -0.01716239
v 0.00489952 0.01901309 -0.01720702
v 0.00491149 0.01916447 -0.01719406
v 0.00474911 0.01895472 -0.01725885
v 0.00495251 0.01895472 -0.01718039
v 0.00481150 0.01895472 -0.01723510
v 0.01011620 0.01919305 -0.01408291
v 0.00973846 0.01931343 -0.01442844
v 0.00962394 0.01895472 -0.01455441
v 0.00959317 0.01901309 -0.01458536
v 0.00936156 0.01916326 -0.01479700
v 0.00927268 0.01931343 -0.01486682
v 0.00918551 0.01941374 -0.01492297
v 0.01011620 0.01931343 -0.01406420
v 0.00981623 0.01931343 -0.01435358
v 0.00883938 0.02516517 -0.01338323
v 0.00549862 0.02516517 -0.01542254
v 0.00560460 0.02516517 -0.01537791
v 0.00567980 0.02516517 -0.01534479
v 0.00525078 0.01934079 -0.01700475
v 0.00527556 0.01924108 -0.01701482
v 0.00503712 0.01916447 -0.01713504
v 0.00497900 0.01911462 -0.01716671
v 0.00498157 0.01901309 -0.01716815
v 0.00497986 0.01895472 -0.01716743
v 0.00938464 0.01895472 -0.01476532
v 0.00943335 0.01901309 -0.01472717
v 0.00927781 0.01916326 -0.01487186
v 0.00919833 0.01931343 -0.01493377
v 0.00902142 0.01937240 -0.01506118
v 0.00843258 0.02516517 -0.01372155
v 0.00850864 0.02516457 -0.01366181
v 0.00860265 0.02516517 -0.01358695
v 0.00867786 0.02516517 -0.01352576
v 0.00876418 0.02516517 -0.01345090
v 0.00579774 0.02516517 -0.01528865
v 0.00579860 0.02516457 -0.01528865
v 0.00574219 0.01956087 -0.01672329
v 0.00564904 0.01946360 -0.01679167
v 0.00533453 0.01930005 -0.01697451
v 0.00519950 0.01916326 -0.01705729
v 0.00555930 0.01934990 -0.01685790
v 0.00563707 0.01930552 -0.01682910
v 0.00557896 0.01925020 -0.01686654
v 0.00566015 0.01916326 -0.01683342
v 0.00536188 0.01901309 -0.01698459
v 0.00519950 0.01901309 -0.01706305
v 0.00523967 0.01895472 -0.01704218
v 0.00930259 0.01895472 -0.01483659
v 0.00919747 0.01901309 -0.01493305
v 0.00927183 0.01901309 -0.01486826
v 0.00920260 0.01916326 -0.01493737
v 0.00903167 0.01927269 -0.01506910
v 0.00908894 0.01931890 -0.01501871
v 0.00896245 0.01931890 -0.01511301
v 0.00884793 0.01931343 -0.01519579
v 0.00875050 0.01942955 -0.01523034
v 0.00800099 0.02516457 -0.01403253
v 0.00807619 0.02516457 -0.01398070
v 0.00818217 0.02516517 -0.01390583
v 0.00825738 0.02516517 -0.01385257
v 0.00834968 0.02516457 -0.01378418
v 0.00598747 0.02516517 -0.01519723
v 0.00609772 0.02516517 -0.01514396
v 0.00584218 0.01946360 -0.01669953
v 0.00576698 0.01946360 -0.01673553
v 0.00586355 0.01936024 -0.01670961
v 0.00647034 0.01937848 -0.01641304
v 0.00641222 0.01932255 -0.01645047
v 0.00648658 0.01927816 -0.01642096
v 0.00566613 0.01901309 -0.01683630
v 0.00559092 0.01901309 -0.01687302
v 0.00549948 0.01901309 -0.01691765
v 0.00626694 0.01916326 -0.01653685
v 0.00592423 0.01895472 -0.01671105
v 0.00571826 0.01895472 -0.01681111
v 0.00561998 0.01895472 -0.01685862
v 0.00926926 0.01895472 -0.01486538
v 0.00919405 0.01895472 -0.01493017
v 0.00902655 0.01895472 -0.01506550
v 0.00910432 0.01901309 -0.01500791
v 0.00910859 0.01916326 -0.01501223
v 0.00903338 0.01916326 -0.01507053
v 0.00894963 0.01916326 -0.01513316
v 0.00885733 0.01916326 -0.01520155
v 0.00878212 0.01916326 -0.01525337
v 0.00877272 0.01931343 -0.01524546
v 0.00856761 0.01936754 -0.01535991
v 0.00717199 0.02516517 -0.01458392
v 0.00729079 0.02516517 -0.01450906
v 0.00744889 0.02516517 -0.01440396
v 0.00774032 0.02516517 -0.01420961
v 0.00781553 0.02516517 -0.01415850
v 0.00800013 0.02516517 -0.01403253
v 0.00807534 0.02516517 -0.01398070
v 0.00639855 0.02516517 -0.01499855
v 0.00614729 0.01946360 -0.01655197
v 0.00707713 0.01939490 -0.01611574
v 0.00738052 0.01940097 -0.01596746
v 0.00678912 0.01928789 -0.01627195
v 0.00717712 0.01916326 -0.01609127
v 0.00699936 0.01916326 -0.01617837
v 0.00627292 0.01901309 -0.01653973
v 0.00613789 0.01895472 -0.01660667
v 0.00885562 0.01901309 -0.01519939
v 0.00894963 0.01901309 -0.01512812
v 0.00902911 0.01901309 -0.01506766
v 0.00880520 0.01895472 -0.01523106
v 0.00878041 0.01901309 -0.01525554
v 0.00867444 0.01901309 -0.01533040
v 0.00859923 0.01901309 -0.01537935
v 0.00866675 0.01916326 -0.01532824
v 0.00858385 0.01926722 -0.01536927
v 0.00864025 0.01931586 -0.01532680
v 0.00851035 0.01931586 -0.01540022
v 0.00827447 0.01938699 -0.01551396
v 0.00681476 0.02516517 -0.01478692
v 0.00688996 0.02516517 -0.01474517
v 0.00699850 0.02516517 -0.01468398
v 0.00709679 0.02516517 -0.01462783
v 0.00652076 0.02516517 -0.01493809
v 0.00652162 0.02516457 -0.01493809
v 0.00765913 0.01950494 -0.01580621
v 0.00735659 0.01950129 -0.01595594
v 0.00705405 0.01949460 -0.01610495
v 0.00668229 0.01946360 -0.01629282
v 0.00760529 0.01945812 -0.01584364
v 0.00768135 0.01940523 -0.01581773
v 0.00759931 0.01931343 -0.01587244
v 0.00729933 0.01931343 -0.01601928
v 0.00699936 0.01901309 -0.01618341
v 0.00680450 0.01901309 -0.01627915
v 0.00747966 0.01916326 -0.01594226
v 0.00653102 0.01895472 -0.01641448
v 0.00639855 0.01895472 -0.01647926
v 0.00877614 0.01895472 -0.01525265
v 0.00871119 0.01895472 -0.01529872
v 0.00859667 0.01895472 -0.01537719
v 0.00859239 0.01916326 -0.01537431
v 0.00854453 0.01895472 -0.01540526
v 0.00849924 0.01901309 -0.01543190
v 0.00849924 0.01916326 -0.01542326
v 0.00828900 0.01928728 -0.01552116
v 0.00821379 0.01932741 -0.01555427
v 0.00806508 0.01931343 -0.01563345
v 0.00777024 0.01931343 -0.01578606
v 0.00773861 0.01945812 -0.01577598
v 0.00669853 0.02516517 -0.01484739
v 0.00659597 0.02516517 -0.01489993
v 0.00659682 0.02516457 -0.01489993
v 0.00769503 0.01931343 -0.01582493
v 0.00759931 0.01916326 -0.01588323
v 0.00718139 0.01901309 -0.01609343
v 0.00699936 0.01895472 -0.01618413
v 0.00680536 0.01895472 -0.01627987
v 0.00830353 0.01895472 -0.01552907
v 0.00838130 0.01901309 -0.01549236
v 0.00807876 0.01916326 -0.01564065
v 0.00829925 0.01916326 -0.01552691
v 0.00837446 0.01916326 -0.01548804
v 0.00770528 0.01916326 -0.01582997
v 0.00789929 0.01916326 -0.01573207
v 0.00789929 0.01901309 -0.01573567
v 0.00778306 0.01901309 -0.01579398
v 0.00759931 0.01901309 -0.01588611
v 0.00729933 0.01901309 -0.01603512
v 0.00710704 0.01895472 -0.01613086
v 0.00800611 0.01895472 -0.01568024
v 0.00800782 0.01901309 -0.01568096
v 0.00770699 0.01895472 -0.01583069
v 0.00748222 0.01895472 -0.01594370
v 0.00729933 0.01895472 -0.01603512
v 0.00718225 0.01895472 -0.01609343
f 1 2 3
f 1 3 9
f 1 9 21
f 1 21 42
f 1 42 56
f 1 56 78
f 1 78 95
f 1 95 117
f 1 117 143
f 1 143 176
f 1 176 147
f 1 147 120
f 1 120 98
f 1 98 82
f 1 82 59
f 1 59 46
f 1 46 44
f 1 44 43
f 1 43 26
f 1 26 25
f 1 25 23
f 1 23 10
f 1 10 4
f 1 4 5
f 1 5 6
f 1 6 2
f 2 6 7
f 2 7 3
f 3 8 9
f 3 7 8
f 4 10 11
f 4 11 5
f 5 11 12
f 5 12 6
f 6 13 7
f 6 12 14
f 6 14 13
f 7 13 15
f 7 15 16
f 7 16 17
f 7 17 18
f 7 18 8
f 8 18 19
f 8 19 9
f 9 20 21
f 9 19 22
f 9 22 20
f 10 23 11
f 11 23 12
f 12 24 14
f 12 23 25
f 12 25 26
f 12 26 27
f 12 27 24
f 13 14 15
f 14 24 28
f 14 28 29
f 14 29 30
f 14 30 16
f 14 16 15
f 16 30 29
f 16 29 31
f 16 31 32
f 16 32 33
f 16 33 34
f 16 34 17
f 17 34 18
f 18 33 32
f 18 32 31
f 18 31 35
f 18 35 36
f 18 36 37
f 18 37 38
f 18 38 39
f 18 39 19
f 18 34 33
f 19 39 40
f 19 40 22
f 20 22 40
f 20 40 41
f 20 41 54
f 20 54 74
f 20 74 73
f 20 73 93
f 20 93 113
f 20 113 135
f 20 135 168
f 20 168 166
f 20 166 165
f 20 165 191
f 20 191 193
f 20 193 192
f 20 192 212
f 20 212 235
f 20 235 264
f 20 264 263
f 20 263 262
f 20 262 291
f 20 291 322
f 20 322 321
f 20 321 342
f 20 342 341
f 20 341 354
f 20 354 360
f 20 360 359
f 20 359 358
f 20 358 357
f 20 357 355
f 20 355 343
f 20 343 327
f 20 327 325
f 20 325 324
f 20 324 323
f 20 323 295
f 20 295 267
f 20 267 266
f 20 266 265
f 20 265 236
f 20 236 213
f 20 213 196
f 20 196 172
f 20 172 139
f 20 139 115
f 20 115 94
f 20 94 75
f 20 75 55
f 20 55 42
f 20 42 21
f 24 27 28
f 26 43 27
f 27 43 44
f 27 44 28
f 28 45 29
f 28 44 46
f 28 46 45
f 29 45 47
f 29 47 35
f 29 35 31
f 35 47 48
f 35 48 49
f 35 49 36
f 36 49 50
f 36 50 51
f 36 51 52
f 36 52 38
f 36 38 37
f 38 52 53
f 38 53 39
f 39 53 40
f 40 53 41
f 41 53 54
f 42 55 56
f 45 57 47
f 45 46 57
f 46 58 57
f 46 59 83
f 46 83 101
f 46 101 123
f 46 123 151
f 46 151 157
f 46 157 156
f 46 156 155
f 46 155 154
f 46 154 182
f 46 182 203
f 46 203 222
f 46 222 221
f 46 221 220
f 46 220 218
f 46 218 248
f 46 248 247
f 46 247 282
f 46 282 281
f 46 281 280
f 46 280 279
f 46 279 278
f 46 278 277
f 46 277 276
f 46 276 307
f 46 307 306
f 46 306 305
f 46 305 304
f 46 304 335
f 46 335 336
f 46 336 308
f 46 308 283
f 46 283 251
f 46 251 250
f 46 250 223
f 46 223 206
f 46 206 205
f 46 205 204
f 46 204 186
f 46 186 161
f 46 161 185
f 46 185 158
f 46 158 127
f 46 127 124
f 46 124 102
f 46 102 84
f 46 84 60
f 46 60 58
f 47 57 61
f 47 61 88
f 47 88 62
f 47 62 63
f 47 63 64
f 47 64 65
f 47 65 48
f 48 65 49
f 49 65 66
f 49 66 67
f 49 67 68
f 49 68 69
f 49 69 70
f 49 70 71
f 49 71 72
f 49 72 50
f 50 72 73
f 50 73 51
f 51 73 74
f 51 74 54
f 51 54 52
f 52 54 53
f 55 75 76
f 55 76 77
f 55 77 56
f 56 77 79
f 56 79 80
f 56 80 78
f 57 58 61
f 58 81 61
f 58 60 81
f 59 82 100
f 59 100 83
f 60 84 85
f 60 85 86
f 60 86 81
f 61 81 87
f 61 87 88
f 62 88 89
f 62 89 90
f 62 90 63
f 63 90 66
f 63 66 64
f 64 66 65
f 66 91 67
f 66 90 91
f 67 91 68
f 68 91 92
f 68 92 93
f 68 93 69
f 69 93 70
f 70 73 71
f 70 93 73
f 71 73 72
f 75 94 114
f 75 114 136
f 75 136 169
f 75 169 194
f 75 194 201
f 75 201 180
f 75 180 152
f 75 152 122
f 75 122 101
f 75 101 83
f 75 83 100
f 75 100 99
f 75 99 121
f 75 121 150
f 75 150 149
f 75 149 148
f 75 148 179
f 75 179 178
f 75 178 177
f 75 177 146
f 75 146 145
f 75 145 144
f 75 144 118
f 75 118 96
f 75 96 80
f 75 80 79
f 75 79 77
f 75 77 76
f 78 80 95
f 80 96 95
f 81 86 97
f 81 97 87
f 82 98 99
f 82 99 100
f 84 102 85
f 85 102 103
f 85 103 86
f 86 103 102
f 86 102 104
f 86 104 105
f 86 105 106
f 86 106 107
f 86 107 108
f 86 108 109
f 86 109 97
f 87 97 88
f 88 97 110
f 88 110 111
f 88 111 89
f 89 92 90
f 89 111 112
f 89 112 92
f 90 92 91
f 92 112 93
f 93 112 113
f 94 115 116
f 94 116 114
f 95 96 117
f 96 118 117
f 97 109 119
f 97 119 110
f 98 120 99
f 99 120 121
f 101 122 123
f 102 124 125
f 102 125 126
f 102 126 104
f 104 126 125
f 104 125 127
f 104 127 128
f 104 128 105
f 105 128 129
f 105 129 106
f 106 129 107
f 107 129 108
f 108 129 130
f 108 130 131
f 108 131 119
f 108 119 109
f 110 119 132
f 110 132 133
f 110 133 134
f 110 134 111
f 111 134 112
f 112 134 113
f 113 134 135
f 114 116 137
f 114 137 138
f 114 138 136
f 115 139 140
f 115 140 116
f 116 140 141
f 116 141 142
f 116 142 137
f 117 118 144
f 117 144 145
f 117 145 146
f 117 146 143
f 119 131 132
f 120 147 148
f 120 148 149
f 120 149 150
f 120 150 121
f 122 151 123
f 122 152 153
f 122 153 154
f 122 154 155
f 122 155 156
f 122 156 157
f 122 157 151
f 124 127 125
f 127 158 159
f 127 159 128
f 128 160 129
f 128 159 161
f 128 161 160
f 129 160 162
f 129 162 163
f 129 163 164
f 129 164 130
f 130 164 132
f 130 132 131
f 132 165 166
f 132 166 133
f 132 164 167
f 132 167 165
f 133 166 134
f 134 166 168
f 134 168 135
f 136 138 169
f 137 142 170
f 137 170 171
f 137 171 138
f 138 171 169
f 139 172 173
f 139 173 140
f 140 173 174
f 140 174 141
f 141 174 175
f 141 175 170
f 141 170 142
f 143 146 176
f 146 177 176
f 147 176 178
f 147 178 179
f 147 179 148
f 152 180 181
f 152 181 153
f 153 181 154
f 154 181 183
f 154 183 184
f 154 184 182
f 158 185 159
f 159 185 161
f 160 161 186
f 160 186 162
f 162 186 187
f 162 187 188
f 162 188 163
f 163 189 167
f 163 167 164
f 163 188 190
f 163 190 189
f 165 167 191
f 167 189 192
f 167 192 193
f 167 193 191
f 169 171 195
f 169 195 194
f 170 175 184
f 170 184 171
f 171 184 183
f 171 183 195
f 172 196 197
f 172 197 173
f 173 197 198
f 173 198 174
f 174 198 175
f 175 198 199
f 175 199 200
f 175 200 184
f 176 177 178
f 180 201 202
f 180 202 183
f 180 183 181
f 182 184 203
f 183 202 195
f 184 200 203
f 186 204 187
f 187 204 205
f 187 205 188
f 188 205 206
f 188 206 207
f 188 207 208
f 188 208 209
f 188 209 210
f 188 210 190
f 189 190 210
f 189 210 211
f 189 211 212
f 189 212 192
f 194 195 202
f 194 202 201
f 196 213 214
f 196 214 197
f 197 214 215
f 197 215 198
f 198 215 216
f 198 216 199
f 199 216 200
f 200 216 217
f 200 217 218
f 200 218 219
f 200 219 220
f 200 220 221
f 200 221 222
f 200 222 203
f 206 223 224
f 206 224 225
f 206 225 226
f 206 226 207
f 207 227 208
f 207 226 227
f 208 228 209
f 208 227 226
f 208 226 229
f 208 229 230
f 208 230 231
f 208 231 232
f 208 232 228
f 209 228 210
f 210 233 234
f 210 234 211
f 210 228 232
f 210 232 233
f 211 234 235
f 211 235 212
f 213 236 237
f 213 237 238
f 213 238 214
f 214 238 215
f 215 238 237
f 215 237 239
f 215 239 216
f 216 239 240
f 216 240 241
f 216 241 217
f 217 241 240
f 217 240 242
f 217 242 243
f 217 243 244
f 217 244 245
f 217 245 246
f 217 246 247
f 217 247 248
f 217 248 249
f 217 249 218
f 218 220 219
f 218 249 248
f 223 250 224
f 224 250 251
f 224 251 252
f 224 252 225
f 225 253 226
f 225 252 253
f 226 253 229
f 229 253 252
f 229 252 254
f 229 254 230
f 230 254 255
f 230 255 231
f 231 255 256
f 231 256 257
f 231 257 232
f 232 258 259
f 232 259 260
f 232 260 233
f 232 257 261
f 232 261 290
f 232 290 258
f 233 260 262
f 233 262 263
f 233 263 264
f 233 264 234
f 234 264 235
f 236 265 237
f 237 265 266
f 237 266 267
f 237 267 268
f 237 268 239
f 239 268 269
f 239 269 240
f 240 270 271
f 240 271 272
f 240 272 243
f 240 243 242
f 240 269 270
f 243 272 273
f 243 273 274
f 243 274 244
f 244 274 275
f 244 275 276
f 244 276 277
f 244 277 278
f 244 278 279
f 244 279 280
f 244 280 245
f 245 280 281
f 245 281 282
f 245 282 246
f 246 282 247
f 251 283 252
f 252 283 284
f 252 284 255
f 252 255 254
f 255 284 285
f 255 285 286
f 255 286 256
f 256 286 257
f 257 286 287
f 257 287 288
f 257 288 289
f 257 289 261
f 258 262 259
f 258 290 291
f 258 291 262
f 259 262 260
f 261 289 290
f 267 292 293
f 267 293 294
f 267 294 268
f 267 295 292
f 268 294 269
f 269 294 270
f 270 294 293
f 270 293 292
f 270 292 271
f 271 292 296
f 271 296 272
f 272 296 297
f 272 297 273
f 273 297 298
f 273 298 299
f 273 299 274
f 274 299 300
f 274 300 301
f 274 301 275
f 275 301 300
f 275 300 302
f 275 302 303
f 275 303 304
f 275 304 305
f 275 305 306
f 275 306 307
f 275 307 276
f 283 308 309
f 283 309 310
f 283 310 311
f 283 311 312
f 283 312 313
f 283 313 284
f 284 313 285
f 285 313 286
f 286 311 314
f 286 314 315
f 286 315 316
f 286 316 317
f 286 317 287
f 286 313 312
f 286 312 311
f 287 317 316
f 287 316 288
f 288 318 319
f 288 319 290
f 288 290 289
f 288 316 320
f 288 320 318
f 290 319 321
f 290 321 322
f 290 322 291
f 292 295 296
f 295 323 296
f 296 323 324
f 296 324 297
f 297 325 298
f 297 324 325
f 298 326 299
f 298 325 327
f 298 327 328
f 298 328 326
f 299 326 300
f 300 326 329
f 300 329 330
f 300 330 303
f 300 303 302
f 303 330 331
f 303 331 332
f 303 332 333
f 303 333 315
f 303 315 334
f 303 334 310
f 303 310 304
f 304 310 335
f 308 336 337
f 308 337 309
f 309 337 310
f 310 334 315
f 310 315 314
f 310 314 311
f 310 337 335
f 315 333 338
f 315 338 316
f 316 338 339
f 316 339 320
f 318 320 339
f 318 339 340
f 318 340 341
f 318 341 342
f 318 342 319
f 319 342 321
f 326 328 329
f 327 343 328
f 328 343 344
f 328 344 345
f 328 345 346
f 328 346 347
f 328 347 329
f 329 347 330
f 330 346 345
f 330 345 338
f 330 338 333
f 330 333 332
f 330 332 331
f 330 347 346
f 335 337 336
f 338 348 339
f 338 345 349
f 338 349 348
f 339 348 350
f 339 350 351
f 339 351 352
f 339 352 353
f 339 353 340
f 340 353 341
f 341 353 354
f 343 355 344
f 344 355 356
f 344 356 349
f 344 349 345
f 348 349 356
f 348 356 350
f 350 356 355
f 350 355 357
f 350 357 358
f 350 358 351
f 351 358 352
f 352 358 359
f 352 359 360
f 352 360 354
f 352 354 353

