# https://github.com/mikedh/trimesh
v 0.01322946 0.05451286 -0.00058525
v 0.01301766 0.05517544 -0.00103497
v 0.01322610 0.05451286 -0.00043453
v 0.01322854 0.05451286 -0.00073475
v 0.01306124 0.05504279 -0.00118570
v 0.01301979 0.05517544 -0.00118570
v 0.01296342 0.05532542 -0.00103497
v 0.01301309 0.05517544 -0.00088548
v 0.01296677 0.05532542 -0.00118570
v 0.01322275 0.05451286 -0.00033527
v 0.01322488 0.05451286 -0.00088548
v 0.01306063 0.05503544 -0.00133520
v 0.01301888 0.05517544 -0.00133520
v 0.01296646 0.05532542 -0.00133520
v 0.01293325 0.05541695 -0.00118570
v 0.01293111 0.05541205 -0.00103497
v 0.01300760 0.05517544 -0.00073475
v 0.01300120 0.05517544 -0.00058525
v 0.01304722 0.05502529 -0.00043453
v 0.01303991 0.05502529 -0.00028503
v 0.01321879 0.05451286 -0.00025685
v 0.01322245 0.05451286 -0.00097616
v 0.01322031 0.05451286 -0.00105335
v 0.01301553 0.05517544 -0.00148469
v 0.01296402 0.05532542 -0.00148469
v 0.01293294 0.05541643 -0.00133520
v 0.01293203 0.05541398 -0.00148469
v 0.01290094 0.05549203 -0.00118570
v 0.01289942 0.05548713 -0.00103497
v 0.01290216 0.05546333 -0.00087322
v 0.01292837 0.05540558 -0.00091489
v 0.01295153 0.05534012 -0.00087322
v 0.01299389 0.05517544 -0.00043453
v 0.01292593 0.05539998 -0.00081440
v 0.01292410 0.05539508 -0.00073475
v 0.01298597 0.05517544 -0.00028503
v 0.01303076 0.05502529 -0.00013431
v 0.01321117 0.05451286 -0.00013431
v 0.01321605 0.05451286 -0.00118570
v 0.01305362 0.05502529 -0.00163542
v 0.01301035 0.05517544 -0.00163542
v 0.01295945 0.05532542 -0.00163542
v 0.01293020 0.05540960 -0.00163542
v 0.01290033 0.05549151 -0.00133520
v 0.01289790 0.05548451 -0.00163542
v 0.01289911 0.05548906 -0.00148469
v 0.01283786 0.05562539 -0.00133520
v 0.01283847 0.05562539 -0.00118570
v 0.01283664 0.05562539 -0.00103497
v 0.01283268 0.05562539 -0.00088548
v 0.01282659 0.05562539 -0.00073475
v 0.01289058 0.05547541 -0.00073475
v 0.01294940 0.05531020 -0.00058525
v 0.01294574 0.05529952 -0.00043453
v 0.01288266 0.05547541 -0.00058525
v 0.01292014 0.05538510 -0.00058525
v 0.01294147 0.05528850 -0.00028503
v 0.01293690 0.05527712 -0.00013431
v 0.01297682 0.05517544 -0.00013431
v 0.01296646 0.05517544 0.00001519
v 0.01302010 0.05502529 0.00001519
v 0.01320477 0.05451286 -0.00004608
v 0.01321452 0.05451286 -0.00122614
v 0.01319654 0.05451286 -0.00163542
v 0.01318801 0.05451286 -0.00178491
v 0.01304356 0.05502529 -0.00178491
v 0.01321026 0.05451286 -0.00133520
v 0.01320355 0.05451286 -0.00148469
v 0.01300029 0.05517544 -0.00178491
v 0.01292807 0.05540453 -0.00172732
v 0.01283573 0.05562539 -0.00148469
v 0.01282780 0.05562539 -0.00178491
v 0.01283299 0.05562539 -0.00163542
v 0.01278880 0.05572584 -0.00133520
v 0.01275131 0.05579900 -0.00148469
v 0.01269067 0.05592552 -0.00133520
v 0.01275192 0.05580109 -0.00118570
v 0.01278849 0.05572514 -0.00103497
v 0.01278758 0.05572374 -0.00088548
v 0.01278514 0.05571954 -0.00073475
v 0.01263399 0.05601740 -0.00028503
v 0.01267421 0.05592552 -0.00028503
v 0.01263033 0.05600953 -0.00013431
v 0.01275131 0.05576364 -0.00042595
v 0.01281897 0.05562539 -0.00058525
v 0.01291588 0.05537443 -0.00043453
v 0.01291161 0.05536358 -0.00028503
v 0.01287413 0.05547541 -0.00043453
v 0.01277569 0.05569924 -0.00036959
v 0.01290704 0.05535203 -0.00013431
v 0.01290216 0.05533995 0.00001519
v 0.01293203 0.05526487 0.00001519
v 0.01292837 0.05525595 0.00012057
v 0.01295092 0.05518804 0.00016836
v 0.01300913 0.05502529 0.00016591
v 0.01320020 0.05451286 0.00001519
v 0.01317734 0.05451286 -0.00193441
v 0.01316516 0.05451286 -0.00208514
v 0.01294666 0.05533505 -0.00178124
v 0.01315175 0.05451286 -0.00223586
v 0.01301583 0.05502529 -0.00208514
v 0.01298597 0.05517544 -0.00193564
v 0.01294361 0.05530145 -0.00193564
v 0.01292319 0.05539140 -0.00182780
v 0.01287961 0.05547541 -0.00193564
v 0.01277722 0.05570257 -0.00201896
v 0.01289881 0.05546281 -0.00178124
v 0.01278057 0.05570939 -0.00193564
v 0.01275010 0.05579637 -0.00163542
v 0.01268732 0.05592552 -0.00163542
v 0.01263856 0.05602580 -0.00163542
v 0.01278453 0.05571762 -0.00178491
v 0.01262881 0.05600585 -0.00219665
v 0.01263186 0.05601215 -0.00208514
v 0.01268397 0.05592552 -0.00178491
v 0.01263704 0.05602248 -0.00178491
v 0.01250447 0.05630074 -0.00163542
v 0.01260290 0.05610281 -0.00148469
v 0.01260199 0.05610088 -0.00163542
v 0.01254257 0.05622566 -0.00133520
v 0.01250539 0.05630074 -0.00148469
v 0.01254226 0.05622566 -0.00118570
v 0.01263947 0.05602721 -0.00103497
v 0.01268854 0.05592552 -0.00088548
v 0.01260077 0.05609861 -0.00058525
v 0.01275101 0.05579864 -0.00088548
v 0.01263643 0.05602178 -0.00043453
v 0.01249381 0.05630074 0.00001519
v 0.01252824 0.05622566 0.00001519
v 0.01248863 0.05630074 0.00016591
v 0.01252123 0.05622566 0.00016591
v 0.01262759 0.05600358 -0.00003873
v 0.01273852 0.05577554 -0.00028503
v 0.01277844 0.05570554 -0.00046884
v 0.01286529 0.05547541 -0.00028503
v 0.01285615 0.05547541 -0.00013431
v 0.01277326 0.05569346 -0.00028503
v 0.01276899 0.05568279 -0.00013431
v 0.01284670 0.05547541 0.00001519
v 0.01283695 0.05547541 0.00016591
v 0.01290216 0.05531370 0.00016836
v 0.01292471 0.05524667 0.00021983
v 0.01292075 0.05523512 0.00031541
v 0.01294818 0.05516004 0.00031541
v 0.01318893 0.05451286 0.00016591
v 0.01313620 0.05451286 -0.00238536
v 0.01297134 0.05517544 -0.00208514
v 0.01293629 0.05528027 -0.00208514
v 0.01291801 0.05537653 -0.00193564
v 0.01291100 0.05535535 -0.00208514
v 0.01286468 0.05547541 -0.00208514
v 0.01276625 0.05567614 -0.00223586
v 0.01272480 0.05577554 -0.00223586
v 0.01265227 0.05591275 -0.00238536
v 0.01262088 0.05598765 -0.00238536
v 0.01262515 0.05599815 -0.00229590
v 0.01253830 0.05622566 -0.00178491
v 0.01267940 0.05592552 -0.00193564
v 0.01259864 0.05609318 -0.00193564
v 0.01247705 0.05630074 -0.00246746
v 0.01248131 0.05630074 -0.00237678
v 0.01248771 0.05630074 -0.00223586
v 0.01248863 0.05630074 -0.00221503
v 0.01249807 0.05630074 -0.00193564
v 0.01250173 0.05630074 -0.00178491
v 0.01250478 0.05630074 -0.00159375
v 0.01250539 0.05630074 -0.00129231
v 0.01250508 0.05630074 -0.00118570
v 0.01254135 0.05622566 -0.00103497
v 0.01250325 0.05630074 -0.00088548
v 0.01253921 0.05622566 -0.00073475
v 0.01253678 0.05622566 -0.00043453
v 0.01253495 0.05622566 -0.00028503
v 0.01259986 0.05609668 -0.00043453
v 0.01249624 0.05630074 -0.00013431
v 0.01248162 0.05630074 0.00029335
v 0.01247613 0.05630074 0.00038893
v 0.01258493 0.05607551 0.00016591
v 0.01262454 0.05599658 0.00006175
v 0.01276442 0.05567194 0.00001519
v 0.01262149 0.05598905 0.00016591
v 0.01271139 0.05577554 0.00016591
v 0.01270164 0.05577554 0.00031541
v 0.01261205 0.05596595 0.00046491
v 0.01278575 0.05557306 0.00031541
v 0.01282598 0.05547541 0.00031541
v 0.01288632 0.05532542 0.00031541
v 0.01287199 0.05532542 0.00046491
v 0.01317338 0.05451286 0.00031909
v 0.01291313 0.05521114 0.00046491
v 0.01311975 0.05451286 -0.00253608
v 0.01299968 0.05502529 -0.00223586
v 0.01308044 0.05451286 -0.00289390
v 0.01307587 0.05451286 -0.00293433
v 0.01305484 0.05456414 -0.00298212
v 0.01295001 0.05518664 -0.00224076
v 0.01293050 0.05526312 -0.00219420
v 0.01290582 0.05531807 -0.00224076
v 0.01284853 0.05547541 -0.00223586
v 0.01279733 0.05560106 -0.00223586
v 0.01264435 0.05589402 -0.00253608
v 0.01261327 0.05596893 -0.00253608
v 0.01256877 0.05607551 -0.00253608
v 0.01246760 0.05628044 -0.00268558
v 0.01247308 0.05629357 -0.00256672
v 0.01252977 0.05622566 -0.00208514
v 0.01249350 0.05630074 -0.00208514
v 0.01249442 0.05630074 -0.00205695
v 0.01247004 0.05630074 -0.00256304
v 0.01250417 0.05630074 -0.00103497
v 0.01250295 0.05630074 -0.00084504
v 0.01249960 0.05630074 -0.00043453
v 0.01249929 0.05630074 -0.00039899
v 0.01249807 0.05630074 -0.00028503
v 0.01247186 0.05630074 0.00045388
v 0.01246912 0.05628342 0.00061563
v 0.01264831 0.05590277 0.00031541
v 0.01269067 0.05577554 0.00046491
v 0.01250021 0.05620834 0.00061563
v 0.01278057 0.05556116 0.00043917
v 0.01280586 0.05549028 0.00047961
v 0.01277630 0.05555013 0.00053966
v 0.01280007 0.05546123 0.00061563
v 0.01285127 0.05532542 0.00061563
v 0.01315327 0.05451286 0.00046491
v 0.01290582 0.05516897 0.00062053
v 0.01308867 0.05451286 -0.00281915
v 0.01306154 0.05451286 -0.00305932
v 0.01303320 0.05457517 -0.00313530
v 0.01293385 0.05512329 -0.00253608
v 0.01291862 0.05522690 -0.00238536
v 0.01298658 0.05472532 -0.00313530
v 0.01293203 0.05496753 -0.00295517
v 0.01288479 0.05532542 -0.00238536
v 0.01283024 0.05547541 -0.00238536
v 0.01269311 0.05577554 -0.00253608
v 0.01275832 0.05565636 -0.00238536
v 0.01278179 0.05556396 -0.00250177
v 0.01262424 0.05584502 -0.00289390
v 0.01263003 0.05585990 -0.00279341
v 0.01260534 0.05594968 -0.00268558
v 0.01249899 0.05620536 -0.00268558
v 0.01245968 0.05626102 -0.00283508
v 0.01245815 0.05630074 -0.00268558
v 0.01246882 0.05630074 -0.00257774
v 0.01246089 0.05630074 0.00061563
v 0.01244505 0.05630074 0.00076513
v 0.01246181 0.05626469 0.00076513
v 0.01275436 0.05561681 0.00047961
v 0.01255476 0.05607551 0.00061563
v 0.01249198 0.05618979 0.00076513
v 0.01263003 0.05585990 0.00071734
v 0.01277112 0.05553631 0.00061563
v 0.01262271 0.05584135 0.00081660
v 0.01271292 0.05562539 0.00076513
v 0.01275893 0.05550271 0.00076513
v 0.01278636 0.05542763 0.00076513
v 0.01282354 0.05532542 0.00076513
v 0.01287809 0.05517544 0.00076513
v 0.01291588 0.05507079 0.00076513
v 0.01292410 0.05509354 0.00067445
v 0.01310360 0.05458759 0.00062421
v 0.01312950 0.05451286 0.00062053
v 0.01304448 0.05451286 -0.00320024
v 0.01301492 0.05457517 -0.00328602
v 0.01292197 0.05508671 -0.00272602
v 0.01290887 0.05519837 -0.00253608
v 0.01296799 0.05472532 -0.00328602
v 0.01293538 0.05482770 -0.00328602
v 0.01292563 0.05494828 -0.00305565
v 0.01286498 0.05532542 -0.00253608
v 0.01280434 0.05548836 -0.00254466
v 0.01277508 0.05554716 -0.00260103
v 0.01263612 0.05587460 -0.00268558
v 0.01276930 0.05553123 -0.00268558
v 0.01261784 0.05582770 -0.00298580
v 0.01258035 0.05592552 -0.00298580
v 0.01247796 0.05615461 -0.00307158
v 0.01252032 0.05607551 -0.00298580
v 0.01248284 0.05616634 -0.00298580
v 0.01245145 0.05624141 -0.00298580
v 0.01242372 0.05630074 -0.00298580
v 0.01244109 0.05630074 -0.00283508
v 0.01242341 0.05630074 0.00091585
v 0.01245145 0.05623914 0.00091585
v 0.01248162 0.05616406 0.00091585
v 0.01253769 0.05607551 0.00076513
v 0.01247613 0.05615076 0.00099060
v 0.01261418 0.05581790 0.00091585
v 0.01264191 0.05574282 0.00091585
v 0.01268518 0.05562539 0.00091585
v 0.01262241 0.05568979 0.00112049
v 0.01279581 0.05532770 0.00090605
v 0.01284944 0.05517544 0.00091585
v 0.01290460 0.05502074 0.00092075
v 0.01293264 0.05496771 0.00087296
v 0.01303381 0.05472532 0.00076513
v 0.01307495 0.05464587 0.00068058
v 0.01295275 0.05488493 0.00092075
v 0.01300852 0.05472532 0.00091585
v 0.01310543 0.05451286 0.00076513
v 0.01302193 0.05451286 -0.00337915
v 0.01299633 0.05457517 -0.00343552
v 0.01291496 0.05506554 -0.00283508
v 0.01290186 0.05516389 -0.00267945
v 0.01294696 0.05473337 -0.00343307
v 0.01291070 0.05490278 -0.00328602
v 0.01292258 0.05478868 -0.00348208
v 0.01290887 0.05502074 -0.00299805
v 0.01287717 0.05517544 -0.00283508
v 0.01284457 0.05532542 -0.00268558
v 0.01275863 0.05550218 -0.00283508
v 0.01271353 0.05562539 -0.00283508
v 0.01275101 0.05546525 -0.00298335
v 0.01272541 0.05547541 -0.00313530
v 0.01263460 0.05572322 -0.00313530
v 0.01260687 0.05579829 -0.00313530
v 0.01255902 0.05592552 -0.00313530
v 0.01249899 0.05608163 -0.00312795
v 0.01247004 0.05613554 -0.00317206
v 0.01244474 0.05621306 -0.00312795
v 0.01240269 0.05630074 -0.00313285
v 0.01239903 0.05630074 0.00105800
v 0.01244139 0.05621079 0.00105065
v 0.01246699 0.05612626 0.00109108
v 0.01249320 0.05607586 0.00105065
v 0.01254622 0.05592552 0.00106535
v 0.01260290 0.05576994 0.00106903
v 0.01282049 0.05517544 0.00106535
v 0.01248558 0.05602615 0.00118912
v 0.01250935 0.05593988 0.00122955
v 0.01289850 0.05456501 0.00181039
v 0.01290064 0.05471710 0.00151384
v 0.01291283 0.05476225 0.00136557
v 0.01292197 0.05478832 0.00126877
v 0.01292319 0.05494128 0.00097345
v 0.01294117 0.05484205 0.00106535
v 0.01298201 0.05472532 0.00106535
v 0.01306794 0.05462469 0.00076513
v 0.01307099 0.05451286 0.00096732
v 0.01303320 0.05457517 0.00106535
v 0.01301461 0.05451286 -0.00343552
v 0.01300303 0.05451286 -0.00352375
v 0.01297621 0.05457517 -0.00358624
v 0.01294025 0.05469260 -0.00358624
v 0.01286773 0.05502529 -0.00328602
v 0.01285645 0.05517544 -0.00298580
v 0.01291557 0.05476750 -0.00358624
v 0.01279916 0.05533348 -0.00298335
v 0.01280617 0.05518962 -0.00329828
v 0.01262820 0.05570572 -0.00322230
v 0.01259620 0.05576364 -0.00327744
v 0.01253220 0.05592552 -0.00328602
v 0.01248954 0.05603455 -0.00328602
v 0.01245998 0.05610946 -0.00328602
v 0.01241183 0.05622566 -0.00328602
v 0.01237709 0.05630074 -0.00328602
v 0.01236856 0.05630074 0.00121607
v 0.01240177 0.05622566 0.00121607
v 0.01245846 0.05607586 0.00122955
v 0.01247583 0.05599938 0.00128837
v 0.01286376 0.05457517 0.00196601
v 0.01284426 0.05451286 0.00217801
v 0.01287596 0.05451286 0.00201871
v 0.01290338 0.05451286 0.00188024
v 0.01293081 0.05451286 0.00173809
v 0.01293050 0.05466162 0.00146238
v 0.01295123 0.05473302 0.00121730
v 0.01300608 0.05457517 0.00121607
v 0.01305392 0.05451286 0.00106535
v 0.01299389 0.05451286 -0.00358624
v 0.01293233 0.05466809 -0.00369653
v 0.01294940 0.05458602 -0.00374187
v 0.01292441 0.05464324 -0.00379701
v 0.01284579 0.05502529 -0.00343552
v 0.01287748 0.05487530 -0.00358624
v 0.01290826 0.05472095 -0.00374187
v 0.01277569 0.05524895 -0.00335709
v 0.01261936 0.05568297 -0.00332156
v 0.01279733 0.05515724 -0.00343552
v 0.01285462 0.05487530 -0.00373452
v 0.01277813 0.05510526 -0.00366834
v 0.01260869 0.05565549 -0.00343552
v 0.01248009 0.05601075 -0.00338038
v 0.01247004 0.05598503 -0.00348086
v 0.01244718 0.05606676 -0.00343307
v 0.01238014 0.05622566 -0.00343552
v 0.01234601 0.05630074 -0.00343552
v 0.01235271 0.05630074 -0.00340366
v 0.01234083 0.05630074 0.00133861
v 0.01232650 0.05630074 0.00140111
v 0.01236063 0.05623651 0.00137292
v 0.01239416 0.05607551 0.00151630
v 0.01242859 0.05607551 0.00136557
v 0.01242036 0.05592552 0.00166579
v 0.01246333 0.05581562 0.00166579
v 0.01278788 0.05452931 0.00241573
v 0.01281257 0.05451286 0.00232873
v 0.01282628 0.05451286 0.00226379
v 0.01302650 0.05451286 0.00121730
v 0.01297042 0.05451286 -0.00373819
v 0.01293904 0.05454401 -0.00388524
v 0.01291710 0.05461909 -0.00388524
v 0.01288205 0.05472532 -0.00388524
v 0.01282537 0.05487530 -0.00388524
v 0.01248832 0.05588107 -0.00358624
v 0.01245815 0.05595615 -0.00358624
v 0.01240848 0.05607551 -0.00358624
v 0.01234723 0.05622496 -0.00357399
v 0.01232864 0.05630074 -0.00351272
v 0.01217626 0.05630074 0.00202606
v 0.01232315 0.05629374 0.00142807
v 0.01234448 0.05619399 0.00151630
v 0.01235058 0.05592833 0.00195989
v 0.01238562 0.05592552 0.00181652
v 0.01241153 0.05577554 0.00196601
v 0.01244871 0.05576784 0.00181407
v 0.01245876 0.05565391 0.00196601
v 0.01247491 0.05539683 0.00233486
v 0.01278118 0.05451286 0.00247333
v 0.01279398 0.05451286 0.00241573
v 0.01294757 0.05451286 -0.00388524
v 0.01293081 0.05451566 -0.00398450
v 0.01290338 0.05456957 -0.00403474
v 0.01286651 0.05457517 -0.00418546
v 0.01284639 0.05472532 -0.00403474
v 0.01277691 0.05495178 -0.00396244
v 0.01262789 0.05540435 -0.00381662
v 0.01247887 0.05585675 -0.00367080
v 0.01247552 0.05569854 -0.00395631
v 0.01245724 0.05577677 -0.00389749
v 0.01245053 0.05562154 -0.00418914
v 0.01238623 0.05577554 -0.00418546
v 0.01234601 0.05604611 -0.00388524
v 0.01231431 0.05627467 -0.00361443
v 0.01232772 0.05630074 -0.00351640
v 0.01232406 0.05614569 -0.00380191
v 0.01218541 0.05617071 -0.00429575
v 0.01219973 0.05620204 -0.00418546
v 0.01225885 0.05622566 0.00181652
v 0.01202664 0.05630074 0.00264366
v 0.01215067 0.05622199 0.00227114
v 0.01230852 0.05610893 0.00181652
v 0.01237618 0.05577554 0.00211551
v 0.01218419 0.05616966 0.00222457
v 0.01217200 0.05614113 0.00232505
v 0.01232650 0.05585115 0.00219271
v 0.01240147 0.05562539 0.00226624
v 0.01244322 0.05561314 0.00210571
v 0.01245754 0.05547576 0.00227726
v 0.01246577 0.05537268 0.00241573
v 0.01277356 0.05451286 0.00250641
v 0.01245114 0.05532052 0.00256768
v 0.01247126 0.05523722 0.00261915
v 0.01293203 0.05451286 -0.00398082
v 0.01293111 0.05451286 -0.00398572
v 0.01291527 0.05451286 -0.00406660
v 0.01290369 0.05451286 -0.00411684
v 0.01288662 0.05451286 -0.00419036
v 0.01285249 0.05451286 -0.00433496
v 0.01282994 0.05457517 -0.00433496
v 0.01263643 0.05527537 -0.00400165
v 0.01261601 0.05537530 -0.00391710
v 0.01247522 0.05524755 -0.00470625
v 0.01248771 0.05527940 -0.00460577
v 0.01246790 0.05537950 -0.00452612
v 0.01257213 0.05532542 -0.00418546
v 0.01259072 0.05546263 -0.00387421
v 0.01254744 0.05547541 -0.00403474
v 0.01247186 0.05553946 -0.00424183
v 0.01246029 0.05551163 -0.00433496
v 0.01241244 0.05562539 -0.00433496
v 0.01236551 0.05563886 -0.00449794
v 0.01231614 0.05582752 -0.00437172
v 0.01213756 0.05591275 -0.00492437
v 0.01217535 0.05629899 -0.00410704
v 0.01217413 0.05630074 -0.00410826
v 0.01217230 0.05614218 -0.00439623
v 0.01203029 0.05600970 -0.00517680
v 0.01202024 0.05613798 -0.00498809
v 0.01202328 0.05629444 -0.00469890
v 0.01202603 0.05630074 0.00264611
v 0.01233199 0.05556028 0.00266449
v 0.01231188 0.05566616 0.00256646
v 0.01214457 0.05606728 0.00256278
v 0.01207722 0.05622566 0.00256646
v 0.01235972 0.05563554 0.00242309
v 0.01234326 0.05559109 0.00256646
v 0.01239080 0.05547541 0.00256646
v 0.01242585 0.05547541 0.00241573
v 0.01246577 0.05522252 0.00266449
v 0.01263216 0.05477503 0.00266449
v 0.01270774 0.05457132 0.00266449
v 0.01272937 0.05451286 0.00266449
v 0.01242737 0.05532367 0.00266449
v 0.01278880 0.05451286 -0.00457759
v 0.01278423 0.05452021 -0.00458494
v 0.01279489 0.05457219 -0.00447220
v 0.01246486 0.05521902 -0.00478468
v 0.01238349 0.05532542 -0.00493540
v 0.01242402 0.05532542 -0.00478468
v 0.01235820 0.05548328 -0.00478835
v 0.01240025 0.05547541 -0.00463518
v 0.01233382 0.05556816 -0.00474056
v 0.01225915 0.05562539 -0.00493540
v 0.01219729 0.05577484 -0.00492437
v 0.01215341 0.05577484 -0.00509470
v 0.01209063 0.05592552 -0.00508490
v 0.01201841 0.05630074 -0.00470625
v 0.01205193 0.05592850 -0.00522950
v 0.01201719 0.05598065 -0.00527606
v 0.01199007 0.05606606 -0.00522950
v 0.01195380 0.05622566 -0.00508490
v 0.01199555 0.05622006 -0.00493663
v 0.01202085 0.05630074 0.00266449
v 0.01202359 0.05629514 0.00266449
v 0.01203273 0.05627362 0.00266449
v 0.01234966 0.05551776 0.00266449
v 0.01236581 0.05547856 0.00266449
v 0.01240604 0.05537775 0.00266449
v 0.01176364 0.05451286 0.00266449
v 0.01274309 0.05451286 -0.00472341
v 0.01261997 0.05463099 -0.00499054
v 0.01248741 0.05483085 -0.00519519
v 0.01240574 0.05502529 -0.00523562
v 0.01245175 0.05502389 -0.00508612
v 0.01246699 0.05507289 -0.00497584
v 0.01244505 0.05516704 -0.00492927
v 0.01239690 0.05517544 -0.00508490
v 0.01234448 0.05532087 -0.00507510
v 0.01232833 0.05540628 -0.00501750
v 0.01234022 0.05543340 -0.00493540
v 0.01230883 0.05550831 -0.00493540
v 0.01217352 0.05569451 -0.00515107
v 0.01191784 0.05630074 -0.00508490
v 0.01203913 0.05588055 -0.00535816
v 0.01200713 0.05592850 -0.00539860
v 0.01194344 0.05607551 -0.00538512
v 0.01190992 0.05623231 -0.00523562
v 0.01069857 0.05630074 0.00266449
v 0.01078572 0.05611051 0.00266449
v 0.01011651 0.05451286 -0.00841184
v 0.01263947 0.05451286 -0.00505059
v 0.01263643 0.05453106 -0.00504201
v 0.01265380 0.05457867 -0.00493785
v 0.01260565 0.05457867 -0.00508980
v 0.01248802 0.05468630 -0.00534836
v 0.01247156 0.05478623 -0.00529567
v 0.01245602 0.05487863 -0.00524175
v 0.01235545 0.05502966 -0.00538880
v 0.01231980 0.05508251 -0.00544149
v 0.01233595 0.05512662 -0.00534101
v 0.01235119 0.05517614 -0.00523317
v 0.01231736 0.05522672 -0.00528219
v 0.01233290 0.05526767 -0.00518171
v 0.01223691 0.05547541 -0.00523562
v 0.01202542 0.05584922 -0.00545864
v 0.01189499 0.05630074 -0.00516945
v 0.01196873 0.05592552 -0.00553584
v 0.01189164 0.05618209 -0.00538512
v 0.01186451 0.05630074 -0.00527851
v 0.01190139 0.05607446 -0.00552604
v 0.01187884 0.05615636 -0.00546967
v 0.01188798 0.05630074 -0.00519519
v 0.01073270 0.05622496 0.00266449
v 0.01011651 0.05630074 -0.00636176
v 0.01011651 0.05629882 -0.00628824
v 0.01011651 0.05503299 -0.00749402
v 0.01011651 0.05499256 -0.00753324
v 0.01011651 0.05493253 -0.00760431
v 0.01011651 0.05489596 -0.00764842
v 0.01011651 0.05488615 -0.00766435
v 0.01011651 0.05451286 -0.00985413
v 0.01261570 0.05451286 -0.00512534
v 0.01248863 0.05453806 -0.00549908
v 0.01247217 0.05463799 -0.00544762
v 0.01245846 0.05473180 -0.00539247
v 0.01241153 0.05487530 -0.00538512
v 0.01230243 0.05517614 -0.00538880
v 0.01241336 0.05472532 -0.00553584
v 0.01241457 0.05457517 -0.00568534
v 0.01201414 0.05566581 -0.00572333
v 0.01218297 0.05541888 -0.00548193
v 0.01202999 0.05571044 -0.00562285
v 0.01204309 0.05574457 -0.00553584
v 0.01201414 0.05581947 -0.00553584
v 0.01191510 0.05593410 -0.00569147
v 0.01188767 0.05602370 -0.00564490
v 0.01185415 0.05625716 -0.00538512
v 0.01185750 0.05630074 -0.00530179
v 0.01183099 0.05621411 -0.00552604
v 0.01178741 0.05630074 -0.00552482
v 0.01181545 0.05630074 -0.00543781
v 0.01011651 0.05630074 -0.00866060
v 0.01011651 0.05457639 -0.00982105
v 0.01053614 0.05467510 -0.00922550
v 0.01067449 0.05464692 -0.00906008
v 0.01049805 0.05457517 -0.00932599
v 0.01055534 0.05457517 -0.00925124
v 0.01047428 0.05451286 -0.00938726
v 0.01246912 0.05451286 -0.00558486
v 0.01245937 0.05458287 -0.00554320
v 0.01245602 0.05451286 -0.00562407
v 0.01243438 0.05451286 -0.00568779
v 0.01238227 0.05451286 -0.00583729
v 0.01235850 0.05457937 -0.00583974
v 0.01203121 0.05556571 -0.00577480
v 0.01199220 0.05561961 -0.00582871
v 0.01192150 0.05578587 -0.00584587
v 0.01199098 0.05576644 -0.00567799
v 0.01189499 0.05588982 -0.00580298
v 0.01187061 0.05598993 -0.00574416
v 0.01184592 0.05607446 -0.00569147
v 0.01174414 0.05630074 -0.00565348
v 0.01183191 0.05630074 -0.00538512
v 0.01011712 0.05630074 -0.00866060
v 0.01011651 0.05624614 -0.00870839
v 0.01011651 0.05471447 -0.00974507
v 0.01037645 0.05480198 -0.00936275
v 0.01051542 0.05477520 -0.00919855
v 0.01065865 0.05472532 -0.00903924
v 0.01069796 0.05451286 -0.00909194
v 0.01064737 0.05451286 -0.00915933
v 0.01056418 0.05451286 -0.00926962
v 0.01083113 0.05481160 -0.00876843
v 0.01084728 0.05472532 -0.00879049
v 0.01081193 0.05460982 -0.00889342
v 0.01050993 0.05451286 -0.00934069
v 0.01234144 0.05451286 -0.00595003
v 0.01201292 0.05551286 -0.00587528
v 0.01198824 0.05546788 -0.00597699
v 0.01187244 0.05584275 -0.00590346
v 0.01191845 0.05563151 -0.00599292
v 0.01189438 0.05574264 -0.00594758
v 0.01185385 0.05593410 -0.00584587
v 0.01177705 0.05608636 -0.00584587
v 0.01174475 0.05618734 -0.00580298
v 0.01171915 0.05628727 -0.00574171
v 0.01171519 0.05630074 -0.00573313
v 0.01015003 0.05630074 -0.00861281
v 0.01011651 0.05619924 -0.00874883
v 0.01011651 0.05492203 -0.00962988
v 0.01029600 0.05486463 -0.00943137
v 0.01041089 0.05486130 -0.00928555
v 0.01049408 0.05487530 -0.00917036
v 0.01055168 0.05487530 -0.00909561
v 0.01082869 0.05451286 -0.00891548
v 0.01066992 0.05493761 -0.00890445
v 0.01080797 0.05491153 -0.00873657
v 0.01086435 0.05486708 -0.00868633
v 0.01096766 0.05477485 -0.00859688
v 0.01092804 0.05472497 -0.00867898
v 0.01039413 0.05498906 -0.00923531
v 0.01053218 0.05496368 -0.00906988
v 0.01086587 0.05456607 -0.00884073
v 0.01229207 0.05451286 -0.00607502
v 0.01203029 0.05541275 -0.00592184
v 0.01201079 0.05535640 -0.00602110
v 0.01203974 0.05468735 -0.00654312
v 0.01202115 0.05478745 -0.00649900
v 0.01174780 0.05604348 -0.00595370
v 0.01172220 0.05614358 -0.00590224
v 0.01186939 0.05568559 -0.00604806
v 0.01099356 0.05516074 -0.00822558
v 0.01097924 0.05525752 -0.00816799
v 0.01099874 0.05531475 -0.00807854
v 0.01095790 0.05551268 -0.00797683
v 0.01083357 0.05630074 -0.00749035
v 0.01100331 0.05630074 -0.00716194
v 0.01110631 0.05630074 -0.00696220
v 0.01126112 0.05630074 -0.00666198
v 0.01142111 0.05630074 -0.00634951
v 0.01189103 0.05558566 -0.00609095
v 0.01201841 0.05462924 -0.00664360
v 0.01200226 0.05473250 -0.00658968
v 0.01199708 0.05457762 -0.00673550
v 0.01192150 0.05458339 -0.00689481
v 0.01189255 0.05453876 -0.00699529
v 0.01170209 0.05623266 -0.00584587
v 0.01166765 0.05630074 -0.00584464
v 0.01170605 0.05630074 -0.00575519
v 0.01023810 0.05630074 -0.00848414
v 0.01011651 0.05610963 -0.00882480
v 0.01011651 0.05500761 -0.00958087
v 0.01035512 0.05490191 -0.00933456
v 0.01091951 0.05451286 -0.00879049
v 0.01054620 0.05514254 -0.00893876
v 0.01040693 0.05517544 -0.00910297
v 0.01038468 0.05526872 -0.00907356
v 0.01023597 0.05557096 -0.00907601
v 0.01052182 0.05524247 -0.00890568
v 0.01068272 0.05511384 -0.00877088
v 0.01084302 0.05498293 -0.00863609
v 0.01098350 0.05467492 -0.00862261
v 0.01094937 0.05488615 -0.00854296
v 0.01099478 0.05484345 -0.00849639
v 0.01126691 0.05462277 -0.00814348
v 0.01128367 0.05452284 -0.00817534
v 0.01111210 0.05460737 -0.00843635
v 0.01112734 0.05451286 -0.00846331
v 0.01112307 0.05451286 -0.00847066
v 0.01094815 0.05457517 -0.00872187
v 0.01037036 0.05508899 -0.00920467
v 0.01011651 0.05511192 -0.00951960
v 0.01023201 0.05511367 -0.00937010
v 0.01095851 0.05451286 -0.00873657
v 0.01223234 0.05451286 -0.00622452
v 0.01217992 0.05451286 -0.00635563
v 0.01213360 0.05456379 -0.00642425
v 0.01206412 0.05473250 -0.00644386
v 0.01210282 0.05451286 -0.00654189
v 0.01205955 0.05457762 -0.00658968
v 0.01159817 0.05619329 -0.00610320
v 0.01162956 0.05623634 -0.00599659
v 0.01159664 0.05630074 -0.00599659
v 0.01163626 0.05630074 -0.00591327
v 0.01186238 0.05451286 -0.00707861
v 0.01183831 0.05451286 -0.00712641
v 0.01177309 0.05458287 -0.00719503
v 0.01174262 0.05453806 -0.00729428
v 0.01159573 0.05469417 -0.00744991
v 0.01142294 0.05479288 -0.00770479
v 0.01127545 0.05494863 -0.00785919
v 0.01120200 0.05502529 -0.00793639
v 0.01112429 0.05494618 -0.00815819
v 0.01104872 0.05502529 -0.00823661
v 0.01097284 0.05494338 -0.00845596
v 0.01097619 0.05510106 -0.00831136
v 0.01091981 0.05531475 -0.00822558
v 0.01095547 0.05535763 -0.00812265
v 0.01083387 0.05571657 -0.00802584
v 0.01083601 0.05587127 -0.00788002
v 0.01081193 0.05630074 -0.00753201
v 0.01149029 0.05630074 -0.00621104
v 0.01203639 0.05452931 -0.00668526
v 0.01200774 0.05451286 -0.00676491
v 0.01195137 0.05451286 -0.00688868
v 0.01189773 0.05451286 -0.00700632
v 0.01022957 0.05615741 -0.00861771
v 0.01035238 0.05630074 -0.00831381
v 0.01011651 0.05606308 -0.00886401
v 0.01022286 0.05539455 -0.00920835
v 0.01011651 0.05566476 -0.00917526
v 0.01011651 0.05576784 -0.00910297
v 0.01021098 0.05567089 -0.00903924
v 0.01039687 0.05544110 -0.00894121
v 0.01037097 0.05554121 -0.00890445
v 0.01081681 0.05508286 -0.00859688
v 0.01084820 0.05514429 -0.00849762
v 0.01087776 0.05502984 -0.00854296
v 0.01071319 0.05516844 -0.00868511
v 0.01103896 0.05451286 -0.00861158
v 0.01099874 0.05457517 -0.00864712
v 0.01109991 0.05451286 -0.00850987
v 0.01108315 0.05451286 -0.00853806
v 0.01102738 0.05488615 -0.00839836
v 0.01129312 0.05469015 -0.00804422
v 0.01159177 0.05453649 -0.00759083
v 0.01152655 0.05451286 -0.00773175
v 0.01143818 0.05453194 -0.00788370
v 0.01145463 0.05451286 -0.00786532
v 0.01129190 0.05451286 -0.00816554
v 0.01126265 0.05451286 -0.00821946
v 0.01119225 0.05451286 -0.00834690
v 0.01020824 0.05521359 -0.00933947
v 0.01011651 0.05515322 -0.00949509
v 0.01011651 0.05520222 -0.00946568
v 0.01100514 0.05451286 -0.00866550
v 0.01217291 0.05451286 -0.00637279
v 0.01215524 0.05451286 -0.00641568
v 0.01203883 0.05451286 -0.00669262
v 0.01156526 0.05630074 -0.00606031
v 0.01176578 0.05451286 -0.00726978
v 0.01168502 0.05451286 -0.00742785
v 0.01162194 0.05458199 -0.00749402
v 0.01144458 0.05469277 -0.00774768
v 0.01127179 0.05479025 -0.00800256
v 0.01117976 0.05488790 -0.00809937
v 0.01110509 0.05488790 -0.00824519
v 0.01082260 0.05524439 -0.00845596
v 0.01095272 0.05502529 -0.00842042
v 0.01084698 0.05546158 -0.00822681
v 0.01068424 0.05601775 -0.00802584
v 0.01068729 0.05617456 -0.00788247
v 0.01065712 0.05630074 -0.00782488
v 0.01069613 0.05630074 -0.00775136
v 0.01081163 0.05597120 -0.00783468
v 0.01041942 0.05630074 -0.00821333
v 0.01036305 0.05612713 -0.00844248
v 0.01011651 0.05591800 -0.00898533
v 0.01011651 0.05546211 -0.00930515
v 0.01011651 0.05557726 -0.00923163
v 0.01011651 0.05577607 -0.00909684
v 0.01011651 0.05584047 -0.00904782
v 0.01018751 0.05578149 -0.00898900
v 0.01024450 0.05573547 -0.00893999
v 0.01050414 0.05550971 -0.00872922
v 0.01063031 0.05532665 -0.00868511
v 0.01069034 0.05527747 -0.00863364
v 0.01079700 0.05518682 -0.00854296
v 0.01132481 0.05473425 -0.00794619
v 0.01161310 0.05451286 -0.00756755
v 0.01066992 0.05553911 -0.00845228
v 0.01067571 0.05569994 -0.00831136
v 0.01068028 0.05585937 -0.00816922
v 0.01082686 0.05540260 -0.00831259
v 0.01059465 0.05630074 -0.00793394
v 0.01063274 0.05622496 -0.00793394
v 0.01045294 0.05630074 -0.00816186
v 0.01050201 0.05625594 -0.00812388
v 0.01039626 0.05618769 -0.00834200
v 0.01035695 0.05596543 -0.00858340
v 0.01019879 0.05593848 -0.00884441
v 0.01049713 0.05593725 -0.00839346
v 0.01021768 0.05583557 -0.00889955
v 0.01029753 0.05576959 -0.00883215
v 0.01040236 0.05576242 -0.00867898
v 0.01051054 0.05567176 -0.00858830
v 0.01058033 0.05578027 -0.00839346
v 0.01052852 0.05615584 -0.00816554
v 0.01053614 0.05630074 -0.00803197
v 0.01050140 0.05607551 -0.00827337
v 0.01038377 0.05586532 -0.00862384
v 0.01052273 0.05599500 -0.00830646
f 1 2 3
f 1 3 10
f 1 10 21
f 1 21 38
f 1 38 62
f 1 62 96
f 1 96 145
f 1 145 189
f 1 189 225
f 1 225 263
f 1 263 301
f 1 301 340
f 1 340 370
f 1 370 400
f 1 400 366
f 1 366 365
f 1 365 364
f 1 364 363
f 1 363 399
f 1 399 398
f 1 398 421
f 1 421 420
f 1 420 452
f 1 452 494
f 1 494 521
f 1 521 542
f 1 542 573
f 1 573 600
f 1 600 628
f 1 628 624
f 1 624 623
f 1 623 622
f 1 622 647
f 1 647 686
f 1 686 706
f 1 706 768
f 1 768 752
f 1 752 755
f 1 755 754
f 1 754 701
f 1 701 700
f 1 700 764
f 1 764 763
f 1 763 762
f 1 762 761
f 1 761 759
f 1 759 802
f 1 802 774
f 1 774 773
f 1 773 718
f 1 718 717
f 1 717 738
f 1 738 737
f 1 737 736
f 1 736 771
f 1 771 711
f 1 711 770
f 1 770 769
f 1 769 708
f 1 708 707
f 1 707 656
f 1 656 629
f 1 629 605
f 1 605 604
f 1 604 603
f 1 603 601
f 1 601 574
f 1 574 543
f 1 543 522
f 1 522 496
f 1 496 460
f 1 460 459
f 1 459 458
f 1 458 457
f 1 457 456
f 1 456 455
f 1 455 422
f 1 422 401
f 1 401 371
f 1 371 343
f 1 343 342
f 1 342 302
f 1 302 264
f 1 264 228
f 1 228 194
f 1 194 193
f 1 193 227
f 1 227 191
f 1 191 146
f 1 146 100
f 1 100 98
f 1 98 97
f 1 97 65
f 1 65 64
f 1 64 68
f 1 68 67
f 1 67 63
f 1 63 39
f 1 39 23
f 1 23 22
f 1 22 11
f 1 11 4
f 1 4 5
f 1 5 6
f 1 6 2
f 2 7 8
f 2 8 3
f 2 6 9
f 2 9 7
f 3 8 10
f 4 11 12
f 4 12 13
f 4 13 5
f 5 13 6
f 6 13 14
f 6 14 9
f 7 9 15
f 7 15 16
f 7 16 17
f 7 17 8
f 8 17 10
f 9 14 15
f 10 17 18
f 10 18 19
f 10 19 20
f 10 20 21
f 11 22 12
f 12 23 24
f 12 24 13
f 12 22 23
f 13 24 25
f 13 25 14
f 14 26 15
f 14 25 27
f 14 27 26
f 15 26 28
f 15 28 29
f 15 29 16
f 16 29 30
f 16 30 31
f 16 31 32
f 16 32 17
f 17 32 18
f 18 33 19
f 18 32 34
f 18 34 35
f 18 35 33
f 19 33 20
f 20 33 36
f 20 36 59
f 20 59 37
f 20 37 21
f 21 37 38
f 23 39 24
f 24 40 41
f 24 41 42
f 24 42 25
f 24 39 40
f 25 42 43
f 25 43 27
f 26 44 28
f 26 27 44
f 27 43 45
f 27 45 46
f 27 46 44
f 28 44 47
f 28 47 48
f 28 48 49
f 28 49 29
f 29 49 50
f 29 50 51
f 29 51 30
f 30 51 52
f 30 52 31
f 31 52 34
f 31 34 32
f 33 35 53
f 33 53 54
f 33 54 36
f 34 52 35
f 35 52 55
f 35 55 56
f 35 56 54
f 35 54 53
f 36 54 57
f 36 57 58
f 36 58 59
f 37 59 60
f 37 60 61
f 37 61 38
f 38 61 62
f 39 63 40
f 40 64 65
f 40 65 66
f 40 66 69
f 40 69 41
f 40 63 67
f 40 67 68
f 40 68 64
f 41 69 70
f 41 70 42
f 42 70 43
f 43 70 45
f 44 46 71
f 44 71 47
f 45 70 72
f 45 72 73
f 45 73 46
f 46 73 71
f 47 74 48
f 47 71 75
f 47 75 74
f 48 74 76
f 48 76 77
f 48 77 78
f 48 78 79
f 48 79 49
f 49 79 50
f 50 79 80
f 50 80 51
f 51 80 81
f 51 81 82
f 51 82 83
f 51 83 84
f 51 84 85
f 51 85 52
f 52 85 55
f 54 86 87
f 54 87 57
f 54 56 86
f 55 88 56
f 55 85 89
f 55 89 88
f 56 88 86
f 57 87 58
f 58 90 91
f 58 91 92
f 58 92 59
f 58 87 90
f 59 92 93
f 59 93 60
f 60 93 94
f 60 94 61
f 61 94 95
f 61 95 62
f 62 95 96
f 65 97 66
f 66 97 98
f 66 98 69
f 69 99 70
f 69 98 100
f 69 100 101
f 69 101 102
f 69 102 103
f 69 103 99
f 70 99 104
f 70 104 105
f 70 105 106
f 70 106 107
f 70 107 108
f 70 108 72
f 71 73 109
f 71 109 110
f 71 110 111
f 71 111 75
f 72 112 73
f 72 108 113
f 72 113 114
f 72 114 112
f 73 112 115
f 73 115 116
f 73 116 109
f 74 75 117
f 74 117 118
f 74 118 76
f 75 111 119
f 75 119 117
f 76 120 77
f 76 118 121
f 76 121 120
f 77 120 122
f 77 122 123
f 77 123 78
f 78 124 125
f 78 125 126
f 78 126 79
f 78 123 124
f 79 126 174
f 79 174 127
f 79 127 80
f 80 127 81
f 81 127 128
f 81 128 129
f 81 129 130
f 81 130 83
f 81 83 82
f 83 130 131
f 83 131 132
f 83 132 133
f 83 133 84
f 84 133 89
f 84 89 134
f 84 134 85
f 85 134 89
f 86 88 87
f 87 88 135
f 87 135 136
f 87 136 90
f 88 89 137
f 88 137 138
f 88 138 135
f 89 133 137
f 90 136 139
f 90 139 140
f 90 140 91
f 91 140 141
f 91 141 92
f 92 141 93
f 93 141 142
f 93 142 94
f 94 142 143
f 94 143 144
f 94 144 95
f 95 144 145
f 95 145 96
f 99 103 104
f 100 146 101
f 101 146 147
f 101 147 102
f 102 147 148
f 102 148 103
f 103 149 104
f 103 148 150
f 103 150 149
f 104 149 151
f 104 151 105
f 105 151 106
f 106 151 152
f 106 152 153
f 106 153 154
f 106 154 155
f 106 155 156
f 106 156 108
f 106 108 107
f 108 156 113
f 109 116 157
f 109 157 110
f 110 157 111
f 111 157 165
f 111 165 119
f 112 114 158
f 112 158 159
f 112 159 115
f 113 156 160
f 113 160 114
f 114 160 161
f 114 161 162
f 114 162 163
f 114 163 158
f 115 159 116
f 116 159 164
f 116 164 157
f 117 165 164
f 117 164 208
f 117 208 207
f 117 207 163
f 117 163 162
f 117 162 161
f 117 161 160
f 117 160 209
f 117 209 245
f 117 245 244
f 117 244 283
f 117 283 282
f 117 282 322
f 117 322 357
f 117 357 389
f 117 389 388
f 117 388 410
f 117 410 436
f 117 436 477
f 117 477 509
f 117 509 535
f 117 535 558
f 117 558 564
f 117 564 561
f 117 561 590
f 117 590 615
f 117 615 593
f 117 593 592
f 117 592 614
f 117 614 639
f 117 639 681
f 117 681 680
f 117 680 716
f 117 716 715
f 117 715 772
f 117 772 734
f 117 734 672
f 117 672 671
f 117 671 670
f 117 670 669
f 117 669 668
f 117 668 733
f 117 733 786
f 117 786 785
f 117 785 807
f 117 807 821
f 117 821 809
f 117 809 788
f 117 788 740
f 117 740 682
f 117 682 640
f 117 640 616
f 117 616 594
f 117 594 566
f 117 566 540
f 117 540 515
f 117 515 482
f 117 482 441
f 117 441 411
f 117 411 391
f 117 391 390
f 117 390 358
f 117 358 323
f 117 323 284
f 117 284 247
f 117 247 246
f 117 246 215
f 117 215 177
f 117 177 176
f 117 176 130
f 117 130 128
f 117 128 175
f 117 175 214
f 117 214 213
f 117 213 212
f 117 212 211
f 117 211 170
f 117 170 210
f 117 210 168
f 117 168 167
f 117 167 121
f 117 121 166
f 117 166 118
f 117 119 165
f 118 166 121
f 120 167 122
f 120 121 167
f 122 167 168
f 122 168 210
f 122 210 169
f 122 169 123
f 123 169 170
f 123 170 171
f 123 171 124
f 124 171 125
f 125 172 173
f 125 173 174
f 125 174 126
f 125 171 172
f 127 174 173
f 127 173 175
f 127 175 128
f 128 130 129
f 130 176 131
f 131 176 177
f 131 177 178
f 131 178 132
f 132 178 179
f 132 179 138
f 132 138 133
f 133 138 137
f 135 138 136
f 136 138 180
f 136 180 139
f 138 179 181
f 138 181 180
f 139 180 182
f 139 182 140
f 140 182 183
f 140 183 184
f 140 184 185
f 140 185 186
f 140 186 141
f 141 186 187
f 141 187 142
f 142 187 143
f 143 187 188
f 143 188 144
f 144 189 145
f 144 188 190
f 144 190 189
f 146 191 192
f 146 192 147
f 147 192 193
f 147 193 194
f 147 194 195
f 147 195 196
f 147 196 197
f 147 197 148
f 148 197 150
f 149 150 151
f 150 197 198
f 150 198 199
f 150 199 151
f 151 199 200
f 151 200 152
f 152 200 201
f 152 201 202
f 152 202 154
f 152 154 153
f 154 202 203
f 154 203 155
f 155 203 204
f 155 204 156
f 156 204 205
f 156 205 160
f 157 164 165
f 158 163 206
f 158 206 159
f 159 206 207
f 159 207 208
f 159 208 164
f 160 205 209
f 163 207 206
f 169 210 170
f 170 211 171
f 171 211 172
f 172 212 213
f 172 213 214
f 172 214 175
f 172 175 173
f 172 211 212
f 177 181 178
f 177 215 216
f 177 216 181
f 178 181 179
f 180 181 182
f 181 216 182
f 182 217 183
f 182 216 217
f 183 217 216
f 183 216 184
f 184 218 185
f 184 216 219
f 184 219 218
f 185 218 186
f 186 218 220
f 186 220 221
f 186 221 187
f 187 221 188
f 188 221 222
f 188 222 223
f 188 223 224
f 188 224 190
f 189 190 225
f 190 224 226
f 190 226 225
f 191 227 192
f 192 227 193
f 194 228 195
f 195 228 229
f 195 229 196
f 196 230 231
f 196 231 197
f 196 229 232
f 196 232 233
f 196 233 230
f 197 231 198
f 198 231 234
f 198 234 235
f 198 235 199
f 199 236 237
f 199 237 200
f 199 235 238
f 199 238 239
f 199 239 240
f 199 240 236
f 200 237 236
f 200 236 241
f 200 241 201
f 201 241 202
f 202 241 242
f 202 242 203
f 203 242 204
f 204 242 243
f 204 243 244
f 204 244 245
f 204 245 205
f 205 245 209
f 215 246 216
f 216 246 247
f 216 247 248
f 216 248 219
f 218 249 220
f 218 219 250
f 218 250 249
f 219 248 250
f 220 249 222
f 220 222 221
f 222 249 250
f 222 250 248
f 222 248 251
f 222 251 252
f 222 252 253
f 222 253 223
f 223 253 254
f 223 254 255
f 223 255 224
f 224 255 256
f 224 256 257
f 224 257 258
f 224 258 259
f 224 259 260
f 224 260 261
f 224 261 226
f 225 226 261
f 225 261 262
f 225 262 263
f 228 264 229
f 229 264 265
f 229 265 232
f 230 233 266
f 230 266 231
f 231 266 267
f 231 267 234
f 232 265 268
f 232 268 233
f 233 268 269
f 233 269 270
f 233 270 266
f 234 267 271
f 234 271 235
f 235 271 272
f 235 272 273
f 235 273 238
f 236 240 274
f 236 274 241
f 238 273 239
f 239 275 276
f 239 276 277
f 239 277 278
f 239 278 279
f 239 279 240
f 239 273 275
f 240 279 274
f 241 274 279
f 241 279 280
f 241 280 242
f 242 280 243
f 243 280 281
f 243 281 282
f 243 282 283
f 243 283 244
f 247 284 248
f 248 284 285
f 248 285 251
f 251 285 286
f 251 286 287
f 251 287 252
f 252 287 286
f 252 286 288
f 252 288 254
f 252 254 253
f 254 288 255
f 255 288 289
f 255 289 256
f 256 289 290
f 256 290 291
f 256 291 292
f 256 292 257
f 257 293 294
f 257 294 258
f 257 292 293
f 258 294 259
f 259 294 295
f 259 295 260
f 260 295 296
f 260 296 261
f 261 297 298
f 261 298 262
f 261 296 299
f 261 299 300
f 261 300 297
f 262 298 263
f 263 298 301
f 264 302 303
f 264 303 265
f 265 303 268
f 266 270 304
f 266 304 267
f 267 304 305
f 267 305 271
f 268 303 306
f 268 306 269
f 269 307 270
f 269 306 308
f 269 308 307
f 270 307 309
f 270 309 304
f 271 305 310
f 271 310 311
f 271 311 272
f 272 311 275
f 272 275 273
f 275 311 312
f 275 312 313
f 275 313 276
f 276 313 314
f 276 314 315
f 276 315 316
f 276 316 317
f 276 317 318
f 276 318 277
f 277 318 319
f 277 319 278
f 278 319 320
f 278 320 321
f 278 321 281
f 278 281 280
f 278 280 279
f 281 321 282
f 282 321 322
f 284 323 324
f 284 324 285
f 285 288 286
f 285 324 288
f 288 324 325
f 288 325 326
f 288 326 289
f 289 326 325
f 289 325 327
f 289 327 290
f 290 327 328
f 290 328 291
f 291 328 292
f 292 329 294
f 292 294 293
f 292 328 330
f 292 330 331
f 292 331 332
f 292 332 333
f 292 333 329
f 294 329 333
f 294 333 334
f 294 334 295
f 295 334 335
f 295 335 336
f 295 336 296
f 296 336 337
f 296 337 338
f 296 338 299
f 297 300 298
f 298 300 339
f 298 339 301
f 299 338 300
f 300 340 339
f 300 338 341
f 300 341 340
f 301 339 340
f 302 342 303
f 303 342 343
f 303 343 344
f 303 344 345
f 303 345 306
f 304 309 305
f 305 309 310
f 306 345 308
f 307 346 347
f 307 347 310
f 307 310 309
f 307 308 348
f 307 348 346
f 308 345 348
f 310 347 311
f 311 347 349
f 311 349 314
f 311 314 312
f 312 314 313
f 314 349 315
f 315 350 316
f 315 349 350
f 316 350 351
f 316 351 317
f 317 351 318
f 318 351 352
f 318 352 353
f 318 353 354
f 318 354 320
f 318 320 319
f 320 354 355
f 320 355 356
f 320 356 321
f 321 356 357
f 321 357 322
f 323 358 324
f 324 358 359
f 324 359 325
f 325 330 327
f 325 359 360
f 325 360 330
f 327 330 328
f 330 360 361
f 330 361 331
f 331 361 332
f 332 362 363
f 332 363 364
f 332 364 365
f 332 365 366
f 332 366 367
f 332 367 333
f 332 361 362
f 333 367 334
f 334 367 335
f 335 337 336
f 335 367 337
f 337 367 368
f 337 368 338
f 338 368 369
f 338 369 341
f 340 341 370
f 341 369 370
f 343 371 344
f 344 372 345
f 344 371 373
f 344 373 374
f 344 374 372
f 345 372 348
f 346 375 350
f 346 350 347
f 346 348 376
f 346 376 375
f 347 350 349
f 348 372 377
f 348 377 376
f 350 375 378
f 350 378 351
f 351 379 352
f 351 378 380
f 351 380 381
f 351 381 379
f 352 379 353
f 353 379 382
f 353 382 383
f 353 383 354
f 354 384 355
f 354 383 384
f 355 384 385
f 355 385 386
f 355 386 356
f 356 386 387
f 356 387 388
f 356 388 389
f 356 389 357
f 358 390 359
f 359 390 391
f 359 391 392
f 359 392 393
f 359 393 394
f 359 394 360
f 360 394 361
f 361 394 395
f 361 395 396
f 361 396 397
f 361 397 398
f 361 398 399
f 361 399 363
f 361 363 362
f 366 400 369
f 366 369 367
f 367 369 368
f 369 400 370
f 371 401 402
f 371 402 373
f 372 374 377
f 373 402 374
f 374 402 403
f 374 403 404
f 374 404 377
f 375 376 381
f 375 381 380
f 375 380 378
f 376 377 381
f 377 404 381
f 379 381 382
f 381 404 405
f 381 405 382
f 382 405 383
f 383 405 384
f 384 405 385
f 385 405 406
f 385 406 407
f 385 407 386
f 386 407 408
f 386 408 387
f 387 408 409
f 387 409 410
f 387 410 388
f 391 411 412
f 391 412 392
f 392 412 413
f 392 413 393
f 393 413 414
f 393 414 415
f 393 415 395
f 393 395 394
f 395 415 416
f 395 416 417
f 395 417 396
f 396 417 418
f 396 418 397
f 397 418 419
f 397 419 420
f 397 420 421
f 397 421 398
f 401 422 402
f 402 422 423
f 402 423 403
f 403 423 424
f 403 424 404
f 404 424 425
f 404 425 426
f 404 426 405
f 405 426 427
f 405 427 428
f 405 428 407
f 405 407 406
f 407 428 429
f 407 429 430
f 407 430 408
f 408 430 431
f 408 431 432
f 408 432 433
f 408 433 434
f 408 434 409
f 409 435 436
f 409 436 410
f 409 434 437
f 409 437 438
f 409 438 439
f 409 439 435
f 411 440 412
f 411 441 442
f 411 442 440
f 412 440 413
f 413 440 443
f 413 443 414
f 414 444 415
f 414 443 445
f 414 445 446
f 414 446 447
f 414 447 444
f 415 444 416
f 416 444 448
f 416 448 449
f 416 449 417
f 417 449 418
f 418 449 419
f 419 450 451
f 419 451 420
f 419 449 450
f 420 451 453
f 420 453 454
f 420 454 452
f 422 455 423
f 423 455 456
f 423 456 457
f 423 457 424
f 424 457 458
f 424 458 425
f 425 458 459
f 425 459 460
f 425 460 461
f 425 461 426
f 426 461 427
f 427 462 463
f 427 463 428
f 427 461 464
f 427 464 465
f 427 465 466
f 427 466 467
f 427 467 462
f 428 463 468
f 428 468 429
f 429 468 430
f 430 468 463
f 430 463 469
f 430 469 470
f 430 470 432
f 430 432 431
f 432 470 471
f 432 471 472
f 432 472 433
f 433 472 473
f 433 473 434
f 434 473 474
f 434 474 475
f 434 475 437
f 435 439 436
f 436 439 476
f 436 476 477
f 437 478 438
f 437 475 479
f 437 479 478
f 438 478 479
f 438 479 439
f 439 479 480
f 439 480 481
f 439 481 476
f 440 442 445
f 440 445 443
f 441 482 483
f 441 483 484
f 441 484 485
f 441 485 486
f 441 486 446
f 441 446 442
f 442 446 445
f 444 447 487
f 444 487 448
f 446 486 447
f 447 486 485
f 447 485 484
f 447 484 488
f 447 488 487
f 448 487 489
f 448 489 490
f 448 490 449
f 449 490 450
f 450 490 453
f 450 453 451
f 452 454 491
f 452 491 492
f 452 492 493
f 452 493 494
f 453 489 495
f 453 495 454
f 453 490 489
f 454 495 491
f 460 496 497
f 460 497 461
f 461 497 498
f 461 498 464
f 462 467 469
f 462 469 463
f 464 498 497
f 464 497 499
f 464 499 500
f 464 500 501
f 464 501 466
f 464 466 465
f 466 501 502
f 466 502 503
f 466 503 471
f 466 471 470
f 466 470 467
f 467 470 469
f 471 503 472
f 472 503 502
f 472 502 473
f 473 504 505
f 473 505 506
f 473 506 475
f 473 475 474
f 473 502 504
f 475 506 507
f 475 507 508
f 475 508 479
f 476 481 509
f 476 509 477
f 479 508 510
f 479 510 511
f 479 511 512
f 479 512 513
f 479 513 514
f 479 514 480
f 480 514 481
f 481 514 509
f 482 515 516
f 482 516 517
f 482 517 483
f 483 518 488
f 483 488 484
f 483 517 516
f 483 516 515
f 483 515 540
f 483 540 565
f 483 565 541
f 483 541 521
f 483 521 494
f 483 494 493
f 483 493 492
f 483 492 491
f 483 491 495
f 483 495 520
f 483 520 519
f 483 519 518
f 487 488 519
f 487 519 489
f 488 518 519
f 489 519 520
f 489 520 495
f 496 522 497
f 497 522 523
f 497 523 524
f 497 524 525
f 497 525 526
f 497 526 527
f 497 527 528
f 497 528 500
f 497 500 499
f 500 528 529
f 500 529 530
f 500 530 531
f 500 531 532
f 500 532 501
f 501 532 502
f 502 532 533
f 502 533 534
f 502 534 505
f 502 505 504
f 505 534 507
f 505 507 506
f 507 534 510
f 507 510 508
f 509 514 513
f 509 513 535
f 510 536 511
f 510 534 536
f 511 536 537
f 511 537 538
f 511 538 512
f 512 538 539
f 512 539 513
f 513 539 535
f 521 541 542
f 522 543 544
f 522 544 545
f 522 545 523
f 523 545 544
f 523 544 546
f 523 546 547
f 523 547 548
f 523 548 524
f 524 548 549
f 524 549 525
f 525 549 550
f 525 550 551
f 525 551 552
f 525 552 553
f 525 553 529
f 525 529 526
f 526 529 527
f 527 529 528
f 529 553 554
f 529 554 555
f 529 555 530
f 530 555 556
f 530 556 531
f 531 556 557
f 531 557 532
f 532 557 534
f 532 534 533
f 534 557 536
f 535 539 558
f 536 557 537
f 537 557 559
f 537 559 538
f 538 560 561
f 538 561 539
f 538 559 562
f 538 562 563
f 538 563 560
f 539 564 558
f 539 561 564
f 540 566 567
f 540 567 568
f 540 568 569
f 540 569 570
f 540 570 571
f 540 571 572
f 540 572 542
f 540 542 565
f 541 565 542
f 542 572 571
f 542 571 570
f 542 570 569
f 542 569 568
f 542 568 567
f 542 567 566
f 542 566 594
f 542 594 617
f 542 617 641
f 542 641 683
f 542 683 741
f 542 741 790
f 542 790 794
f 542 794 793
f 542 793 744
f 542 744 743
f 542 743 792
f 542 792 791
f 542 791 767
f 542 767 766
f 542 766 704
f 542 704 684
f 542 684 642
f 542 642 618
f 542 618 595
f 542 595 573
f 543 574 544
f 544 574 575
f 544 575 546
f 546 575 547
f 547 575 576
f 547 576 548
f 548 576 577
f 548 577 578
f 548 578 549
f 549 578 550
f 550 578 551
f 551 579 552
f 551 578 580
f 551 580 581
f 551 581 582
f 551 582 579
f 552 554 553
f 552 579 583
f 552 583 554
f 554 583 584
f 554 584 555
f 555 584 556
f 556 584 585
f 556 585 586
f 556 586 557
f 557 586 559
f 559 586 587
f 559 587 588
f 559 588 562
f 560 563 589
f 560 589 590
f 560 590 561
f 562 588 563
f 563 588 591
f 563 591 592
f 563 592 593
f 563 593 589
f 573 595 596
f 573 596 597
f 573 597 598
f 573 598 599
f 573 599 600
f 574 601 575
f 575 601 576
f 576 601 602
f 576 602 580
f 576 580 577
f 577 580 578
f 579 582 583
f 580 602 581
f 581 602 601
f 581 601 603
f 581 603 604
f 581 604 605
f 581 605 606
f 581 606 582
f 582 606 607
f 582 607 608
f 582 608 609
f 582 609 610
f 582 610 584
f 582 584 583
f 584 610 586
f 584 586 585
f 586 610 587
f 587 610 611
f 587 611 612
f 587 612 588
f 588 612 613
f 588 613 614
f 588 614 591
f 589 593 615
f 589 615 590
f 591 614 592
f 594 616 617
f 595 618 619
f 595 619 620
f 595 620 596
f 596 620 621
f 596 621 597
f 597 622 623
f 597 623 624
f 597 624 599
f 597 599 598
f 597 621 625
f 597 625 626
f 597 626 627
f 597 627 622
f 599 624 628
f 599 628 600
f 605 629 606
f 606 608 607
f 606 629 608
f 608 629 630
f 608 630 631
f 608 631 609
f 609 632 611
f 609 611 610
f 609 631 633
f 609 633 634
f 609 634 632
f 611 632 635
f 611 635 612
f 612 635 636
f 612 636 637
f 612 637 638
f 612 638 614
f 612 614 613
f 614 638 639
f 616 640 641
f 616 641 617
f 618 642 643
f 618 643 619
f 619 643 644
f 619 644 620
f 620 644 645
f 620 645 646
f 620 646 625
f 620 625 621
f 622 627 647
f 625 648 649
f 625 649 650
f 625 650 651
f 625 651 652
f 625 652 626
f 625 646 653
f 625 653 654
f 625 654 648
f 626 652 655
f 626 655 627
f 627 655 647
f 629 656 630
f 630 656 657
f 630 657 658
f 630 658 631
f 631 658 659
f 631 659 660
f 631 660 633
f 632 661 662
f 632 662 635
f 632 634 663
f 632 663 664
f 632 664 665
f 632 665 666
f 632 666 667
f 632 667 668
f 632 668 669
f 632 669 670
f 632 670 671
f 632 671 672
f 632 672 661
f 633 673 634
f 633 660 674
f 633 674 675
f 633 675 676
f 633 676 677
f 633 677 678
f 633 678 673
f 634 673 663
f 635 662 636
f 636 662 637
f 637 662 679
f 637 679 680
f 637 680 638
f 638 680 681
f 638 681 639
f 640 682 641
f 641 682 683
f 642 684 653
f 642 653 685
f 642 685 643
f 643 685 644
f 644 653 645
f 644 685 653
f 645 653 646
f 647 655 686
f 648 687 649
f 648 654 688
f 648 688 689
f 648 689 687
f 649 687 690
f 649 690 691
f 649 691 692
f 649 692 693
f 649 693 650
f 650 693 651
f 651 694 652
f 651 693 695
f 651 695 696
f 651 696 697
f 651 697 698
f 651 698 699
f 651 699 700
f 651 700 701
f 651 701 694
f 652 694 702
f 652 702 655
f 653 703 654
f 653 684 704
f 653 704 705
f 653 705 765
f 653 765 703
f 654 703 688
f 655 702 706
f 655 706 686
f 656 707 657
f 657 707 708
f 657 708 658
f 658 708 709
f 658 709 710
f 658 710 659
f 659 710 709
f 659 709 711
f 659 711 712
f 659 712 674
f 659 674 660
f 661 713 714
f 661 714 662
f 661 672 713
f 662 680 679
f 662 714 715
f 662 715 716
f 662 716 680
f 663 673 678
f 663 678 717
f 663 717 718
f 663 718 719
f 663 719 720
f 663 720 721
f 663 721 722
f 663 722 723
f 663 723 724
f 663 724 664
f 664 724 725
f 664 725 726
f 664 726 727
f 664 727 728
f 664 728 665
f 665 728 729
f 665 729 730
f 665 730 666
f 666 730 667
f 667 730 731
f 667 731 732
f 667 732 733
f 667 733 668
f 672 734 713
f 674 712 711
f 674 711 735
f 674 735 736
f 674 736 676
f 674 676 675
f 676 736 737
f 676 737 738
f 676 738 677
f 677 738 678
f 678 738 717
f 682 739 683
f 682 740 739
f 683 739 741
f 687 689 690
f 688 703 742
f 688 742 689
f 689 742 743
f 689 743 690
f 690 743 744
f 690 744 745
f 690 745 746
f 690 746 692
f 690 692 691
f 692 746 747
f 692 747 693
f 693 748 749
f 693 749 750
f 693 750 695
f 693 747 751
f 693 751 748
f 694 752 753
f 694 753 706
f 694 706 702
f 694 701 754
f 694 754 755
f 694 755 752
f 695 750 749
f 695 749 727
f 695 727 696
f 696 727 756
f 696 756 757
f 696 757 697
f 697 757 758
f 697 758 759
f 697 759 760
f 697 760 761
f 697 761 698
f 698 761 762
f 698 762 763
f 698 763 699
f 699 763 764
f 699 764 700
f 703 765 742
f 704 766 705
f 705 766 767
f 705 767 765
f 706 753 768
f 708 769 709
f 709 770 711
f 709 769 770
f 711 771 735
f 713 734 714
f 714 734 772
f 714 772 715
f 718 773 720
f 718 720 719
f 720 773 774
f 720 774 758
f 720 758 775
f 720 775 721
f 721 775 776
f 721 776 722
f 722 776 777
f 722 777 778
f 722 778 725
f 722 725 723
f 723 725 724
f 725 778 779
f 725 779 756
f 725 756 727
f 725 727 726
f 727 749 780
f 727 780 781
f 727 781 728
f 728 781 729
f 729 781 782
f 729 782 731
f 729 731 730
f 731 782 783
f 731 783 784
f 731 784 785
f 731 785 786
f 731 786 787
f 731 787 732
f 732 787 733
f 733 787 786
f 735 771 736
f 739 740 788
f 739 788 789
f 739 789 790
f 739 790 741
f 742 791 792
f 742 792 743
f 742 765 791
f 744 793 745
f 745 793 794
f 745 794 747
f 745 747 746
f 747 794 795
f 747 795 796
f 747 796 797
f 747 797 798
f 747 798 751
f 748 751 798
f 748 798 799
f 748 799 800
f 748 800 780
f 748 780 749
f 752 768 753
f 756 779 777
f 756 777 776
f 756 776 801
f 756 801 757
f 757 801 758
f 758 801 776
f 758 776 775
f 758 774 802
f 758 802 759
f 759 761 760
f 765 767 791
f 777 779 778
f 780 800 803
f 780 803 804
f 780 804 805
f 780 805 806
f 780 806 781
f 781 806 782
f 782 806 783
f 783 806 805
f 783 805 807
f 783 807 808
f 783 808 785
f 783 785 784
f 785 808 807
f 788 809 810
f 788 810 811
f 788 811 789
f 789 812 813
f 789 813 790
f 789 811 814
f 789 814 812
f 790 813 815
f 790 815 795
f 790 795 794
f 795 815 816
f 795 816 796
f 796 816 797
f 797 816 817
f 797 817 818
f 797 818 799
f 797 799 798
f 799 818 814
f 799 814 803
f 799 803 800
f 803 814 819
f 803 819 804
f 804 819 820
f 804 820 821
f 804 821 805
f 805 821 807
f 809 821 810
f 810 820 822
f 810 822 811
f 810 821 820
f 811 822 814
f 812 823 816
f 812 816 815
f 812 815 813
f 812 814 823
f 814 822 820
f 814 820 824
f 814 824 819
f 814 818 823
f 816 823 817
f 817 823 818
f 819 824 820

