# https://github.com/mikedh/trimesh
v 0.00162535 0.05458361 -0.01436987
v 0.00162535 0.05458361 -0.01341834
v 0.00162535 0.05565423 -0.01400998
v 0.00176166 0.05458966 -0.01434456
v 0.00178576 0.05458361 -0.01434218
v 0.00162535 0.05630074 -0.01209822
v 0.01011620 0.05458361 -0.00840362
v 0.01011620 0.05488619 -0.00766565
v 0.01011620 0.05489594 -0.00764904
v 0.01011620 0.05493259 -0.00760553
v 0.01011620 0.05499260 -0.00753435
v 0.01011620 0.05501848 -0.00750904
v 0.01011620 0.05629872 -0.00628937
v 0.00162535 0.05574938 -0.01397755
v 0.00189797 0.05562549 -0.01397201
v 0.00211406 0.05539570 -0.01401235
v 0.00203344 0.05458361 -0.01429868
v 0.00235592 0.05532224 -0.01399495
v 0.00260692 0.05511817 -0.01401947
v 0.00162535 0.05630074 -0.01375450
v 0.01007465 0.05630074 -0.00633762
v 0.01011620 0.05458361 -0.00981786
v 0.01011620 0.05630074 -0.00636214
v 0.00162535 0.05577543 -0.01396806
v 0.00174836 0.05577543 -0.01394591
v 0.00204840 0.05562549 -0.01394512
v 0.00249804 0.05532543 -0.01396885
v 0.00270666 0.05509127 -0.01401077
v 0.00249804 0.05458361 -0.01421642
v 0.00265346 0.05517112 -0.01399337
v 0.00162535 0.05619467 -0.01380037
v 0.00186888 0.05630074 -0.01370229
v 0.01009709 0.05458361 -0.00984238
v 0.01008047 0.05466312 -0.00982024
v 0.01011620 0.05471439 -0.00974589
v 0.01011620 0.05630074 -0.00866226
v 0.00162535 0.05589764 -0.01392297
v 0.00189797 0.05577543 -0.01391823
v 0.00219800 0.05562549 -0.01391664
v 0.00234844 0.05547538 -0.01394354
v 0.00264848 0.05532543 -0.01394116
v 0.00279808 0.05517549 -0.01396568
v 0.00309812 0.05502538 -0.01396173
v 0.00309812 0.05491006 -0.01400049
v 0.00319121 0.05481004 -0.01401710
v 0.00308981 0.05458361 -0.01411043
v 0.00282967 0.05458361 -0.01415710
v 0.00174254 0.05606507 -0.01383122
v 0.00178826 0.05598371 -0.01385653
v 0.00168852 0.05600808 -0.01386681
v 0.00162535 0.05602321 -0.01387314
v 0.00189797 0.05630074 -0.01369597
v 0.00189797 0.05595664 -0.01384467
v 0.01003226 0.05458361 -0.00992385
v 0.01005802 0.05476314 -0.00979255
v 0.01007631 0.05495309 -0.00966442
v 0.01011620 0.05487560 -0.00965651
v 0.01011620 0.05473305 -0.00973560
v 0.01011620 0.05619938 -0.00874927
v 0.01009543 0.05618509 -0.00879198
v 0.01006551 0.05628511 -0.00874927
v 0.01006218 0.05630074 -0.00874057
v 0.00162535 0.05592638 -0.01391190
v 0.00174254 0.05593042 -0.01388817
v 0.00189797 0.05588150 -0.01387630
v 0.00204258 0.05577980 -0.01388738
v 0.00263934 0.05547790 -0.01388580
v 0.00249804 0.05547538 -0.01391506
v 0.00294852 0.05517549 -0.01393800
v 0.00339899 0.05487526 -0.01395619
v 0.00324440 0.05486619 -0.01398862
v 0.00339899 0.05475255 -0.01399811
v 0.00324024 0.05458361 -0.01408275
v 0.00198856 0.05585864 -0.01386681
v 0.00202014 0.05617450 -0.01372365
v 0.00219884 0.05630074 -0.01362952
v 0.00206087 0.05608961 -0.01375133
v 0.00219800 0.05580468 -0.01384388
v 0.00208913 0.05583292 -0.01385574
v 0.00996328 0.05458361 -0.01000532
v 0.00994000 0.05468044 -0.00997922
v 0.01005221 0.05505311 -0.00963515
v 0.01006966 0.05523802 -0.00950543
v 0.01011620 0.05500773 -0.00958216
v 0.01011620 0.05492200 -0.00963040
v 0.00999320 0.05500974 -0.00972927
v 0.00994748 0.05517549 -0.00968814
v 0.01011620 0.05606305 -0.00886475
v 0.01005553 0.05596690 -0.00903481
v 0.01002561 0.05607616 -0.00898577
v 0.00992588 0.05615147 -0.00906328
v 0.01004473 0.05630074 -0.00876509
v 0.00219800 0.05572971 -0.01387551
v 0.00258282 0.05555539 -0.01386602
v 0.00279808 0.05542394 -0.01387314
v 0.00279808 0.05532543 -0.01391190
v 0.00310893 0.05518776 -0.01389924
v 0.00354859 0.05487526 -0.01392535
v 0.00353779 0.05471271 -0.01398388
v 0.00339899 0.05467758 -0.01402263
v 0.00347961 0.05465438 -0.01401472
v 0.00339068 0.05458361 -0.01405427
v 0.00234844 0.05630074 -0.01359472
v 0.00234844 0.05622560 -0.01362794
v 0.00249804 0.05590033 -0.01373551
v 0.00263934 0.05561339 -0.01382806
v 0.00249804 0.05565238 -0.01384308
v 0.00234096 0.05576434 -0.01382964
v 0.00989180 0.05458361 -0.01008046
v 0.00991424 0.05478046 -0.00995154
v 0.01002977 0.05518288 -0.00958611
v 0.00996494 0.05531282 -0.00958611
v 0.01004805 0.05532543 -0.00947854
v 0.01005969 0.05551891 -0.00934328
v 0.01011620 0.05550715 -0.00927763
v 0.01011620 0.05532678 -0.00938995
v 0.01011620 0.05520222 -0.00946667
v 0.01011620 0.05515330 -0.00949594
v 0.01011620 0.05511195 -0.00952046
v 0.00992754 0.05525449 -0.00966521
v 0.01011620 0.05592050 -0.00898419
v 0.01008379 0.05586688 -0.00907594
v 0.01000151 0.05592655 -0.00913921
v 0.00991590 0.05598623 -0.00920170
v 0.00978375 0.05616307 -0.00922306
v 0.00960755 0.05627485 -0.00934170
v 0.00974967 0.05626309 -0.00918193
v 0.00979954 0.05630074 -0.00908938
v 0.00989097 0.05625149 -0.00901899
v 0.00993086 0.05630074 -0.00892328
v 0.00268339 0.05552967 -0.01385416
v 0.00287704 0.05540242 -0.01386444
v 0.00324856 0.05514792 -0.01388421
v 0.00340232 0.05503395 -0.01389529
v 0.00354859 0.05498839 -0.01388026
v 0.00369487 0.05487879 -0.01388975
v 0.00369903 0.05472532 -0.01394354
v 0.00358018 0.05461505 -0.01400444
v 0.00352782 0.05458361 -0.01402501
v 0.00339899 0.05458361 -0.01405269
v 0.00253129 0.05630074 -0.01355043
v 0.00254126 0.05628326 -0.01355596
v 0.00981201 0.05458361 -0.01015481
v 0.00979040 0.05467909 -0.01012713
v 0.00976380 0.05477911 -0.01010182
v 0.00985274 0.05472969 -0.01004091
v 0.00988847 0.05487526 -0.00992385
v 0.00960921 0.05507110 -0.01009707
v 0.00958012 0.05517549 -0.01006860
v 0.00965493 0.05517549 -0.00999346
v 0.00975882 0.05507110 -0.00994600
v 0.00994416 0.05543638 -0.00953470
v 0.00991673 0.05553623 -0.00950385
v 0.01003891 0.05563894 -0.00929108
v 0.01007382 0.05569794 -0.00921119
v 0.01011620 0.05557741 -0.00923255
v 0.00979871 0.05544159 -0.00968735
v 0.00989845 0.05535451 -0.00963515
v 0.00972973 0.05517549 -0.00991594
v 0.00963082 0.05526088 -0.00996894
v 0.00960256 0.05536090 -0.00993967
v 0.00975051 0.05535771 -0.00978781
v 0.01011620 0.05584049 -0.00904904
v 0.01005304 0.05577543 -0.00918351
v 0.01010872 0.05577543 -0.00910916
v 0.00994748 0.05588621 -0.00923729
v 0.00981201 0.05607549 -0.00925628
v 0.00977295 0.05599716 -0.00936069
v 0.00964080 0.05617483 -0.00938204
v 0.00957098 0.05630074 -0.00936306
v 0.00966324 0.05630074 -0.00925390
v 0.00955270 0.05623031 -0.00944136
v 0.00946460 0.05628561 -0.00950069
v 0.00952527 0.05630074 -0.00941684
v 0.00987019 0.05630074 -0.00900159
v 0.00279808 0.05581796 -0.01369913
v 0.00296182 0.05593950 -0.01360421
v 0.00324856 0.05532543 -0.01380591
v 0.00335494 0.05511800 -0.01387156
v 0.00264848 0.05625351 -0.01354252
v 0.00354859 0.05506337 -0.01384704
v 0.00364168 0.05496167 -0.01386840
v 0.00374225 0.05493107 -0.01385416
v 0.00380791 0.05483105 -0.01387710
v 0.00369238 0.05458361 -0.01398388
v 0.00365747 0.05458361 -0.01399337
v 0.00385445 0.05472734 -0.01389371
v 0.00384032 0.05458361 -0.01393879
v 0.00359846 0.05458361 -0.01400840
v 0.00264848 0.05630074 -0.01352116
v 0.00972807 0.05458361 -0.01023233
v 0.00963664 0.05467136 -0.01027346
v 0.00958179 0.05487526 -0.01022284
v 0.00966241 0.05487526 -0.01014770
v 0.00963581 0.05497108 -0.01012397
v 0.00950532 0.05517549 -0.01014137
v 0.00948122 0.05526139 -0.01011843
v 0.00945296 0.05536141 -0.01009154
v 0.00989097 0.05562549 -0.00947458
v 0.00993252 0.05571256 -0.00937097
v 0.00995580 0.05562549 -0.00939944
v 0.00985772 0.05548882 -0.00959639
v 0.00961171 0.05582771 -0.00964860
v 0.00962833 0.05600573 -0.00951651
v 0.00997159 0.05576770 -0.00928792
v 0.01011620 0.05575291 -0.00911470
v 0.01011620 0.05566482 -0.00917560
v 0.01011620 0.05560935 -0.00921198
v 0.00962168 0.05554480 -0.00980995
v 0.00952361 0.05562549 -0.00986374
v 0.00967072 0.05562549 -0.00971029
v 0.00976962 0.05554144 -0.00965730
v 0.00947374 0.05554816 -0.00996182
v 0.01011620 0.05576787 -0.00910362
v 0.00990260 0.05581258 -0.00933775
v 0.00973555 0.05593849 -0.00944136
v 0.00959841 0.05610591 -0.00948170
v 0.00949867 0.05618559 -0.00953865
v 0.00946044 0.05630074 -0.00949278
v 0.00931998 0.05629284 -0.00965730
v 0.00931001 0.05630074 -0.00966204
v 0.00296182 0.05607650 -0.01354252
v 0.00328762 0.05553034 -0.01370467
v 0.00318788 0.05555842 -0.01371732
v 0.00278811 0.05621333 -0.01352512
v 0.00324191 0.05547823 -0.01373947
v 0.00354859 0.05517549 -0.01379642
v 0.00339899 0.05532543 -0.01376794
v 0.00353447 0.05532258 -0.01373314
v 0.00369487 0.05501714 -0.01382806
v 0.00375472 0.05523768 -0.01370783
v 0.00384863 0.05502538 -0.01377506
v 0.00365415 0.05527063 -0.01372286
v 0.00390764 0.05477861 -0.01385653
v 0.00398411 0.05501512 -0.01372998
v 0.00408218 0.05495847 -0.01371732
v 0.00468475 0.05511043 -0.01341755
v 0.00528649 0.05526105 -0.01311777
v 0.00394504 0.05467859 -0.01387235
v 0.00398826 0.05458361 -0.01388342
v 0.00271331 0.05630074 -0.01350455
v 0.00294852 0.05622560 -0.01347845
v 0.00965493 0.05458361 -0.01029877
v 0.00948205 0.05466295 -0.01041821
v 0.00915209 0.05502538 -0.01054160
v 0.00948205 0.05496419 -0.01027030
v 0.00945545 0.05506421 -0.01024498
v 0.00942470 0.05517549 -0.01021651
v 0.00917038 0.05554245 -0.01025922
v 0.00932413 0.05554900 -0.01011210
v 0.00916622 0.05583578 -0.01010498
v 0.00914046 0.05592554 -0.01007888
v 0.00964080 0.05572769 -0.00967944
v 0.00933494 0.05601733 -0.00982340
v 0.00950782 0.05592554 -0.00969764
v 0.00948205 0.05601245 -0.00967074
v 0.00954023 0.05605918 -0.00957741
v 0.00931582 0.05583494 -0.00995391
v 0.00929006 0.05592554 -0.00992623
v 0.00934491 0.05573492 -0.00998317
v 0.00945213 0.05611247 -0.00963831
v 0.00935239 0.05619282 -0.00969210
v 0.00917204 0.05630074 -0.00980995
v 0.00320534 0.05586990 -0.01357258
v 0.00302083 0.05599884 -0.01356229
v 0.00339899 0.05542343 -0.01372365
v 0.00353447 0.05546075 -0.01366907
v 0.00330590 0.05583948 -0.01355834
v 0.00370235 0.05532258 -0.01368410
v 0.00358766 0.05567760 -0.01355280
v 0.00369903 0.05587562 -0.01342545
v 0.00376469 0.05554413 -0.01356071
v 0.00384863 0.05512842 -0.01372681
v 0.00392427 0.05510052 -0.01371337
v 0.00354195 0.05562667 -0.01358998
v 0.00538623 0.05520087 -0.01309800
v 0.00510697 0.05507597 -0.01325619
v 0.00425506 0.05472532 -0.01372681
v 0.00425589 0.05512624 -0.01357574
v 0.00435562 0.05508287 -0.01355676
v 0.00458502 0.05516641 -0.01343099
v 0.00495736 0.05523432 -0.01325698
v 0.00522748 0.05536107 -0.01309562
v 0.00534135 0.05531686 -0.01307110
v 0.00550425 0.05533081 -0.01300071
v 0.00560648 0.05528442 -0.01297698
v 0.00405475 0.05458361 -0.01385574
v 0.00287621 0.05630074 -0.01346263
v 0.00294852 0.05630074 -0.01344365
v 0.00305823 0.05630074 -0.01341359
v 0.00309812 0.05607549 -0.01350692
v 0.00949701 0.05458361 -0.01044114
v 0.00932497 0.05465119 -0.01056295
v 0.00929920 0.05475121 -0.01054001
v 0.00919947 0.05484719 -0.01058431
v 0.00917287 0.05494721 -0.01056058
v 0.00867918 0.05532543 -0.01082081
v 0.00883626 0.05532543 -0.01067764
v 0.00901828 0.05523819 -0.01055583
v 0.00873486 0.05511934 -0.01087143
v 0.00852126 0.05532543 -0.01096397
v 0.00924933 0.05531282 -0.01030668
v 0.00891854 0.05532543 -0.01060250
v 0.00870577 0.05581662 -0.01054476
v 0.00857695 0.05600438 -0.01056453
v 0.00901329 0.05583006 -0.01025210
v 0.00906565 0.05592554 -0.01015165
v 0.00900830 0.05612222 -0.01009707
v 0.00918700 0.05602153 -0.00997527
v 0.00915791 0.05612155 -0.00994521
v 0.00930502 0.05611735 -0.00979176
v 0.00920528 0.05619753 -0.00984476
v 0.00902908 0.05630074 -0.00996261
v 0.00326019 0.05608826 -0.01345551
v 0.00339899 0.05592554 -0.01349190
v 0.00339899 0.05581141 -0.01354489
v 0.00354195 0.05576568 -0.01352512
v 0.00354859 0.05593042 -0.01344602
v 0.00377383 0.05585057 -0.01341359
v 0.00359763 0.05598387 -0.01340568
v 0.00359846 0.05630074 -0.01325461
v 0.00360594 0.05628914 -0.01325777
v 0.00393092 0.05540629 -0.01356625
v 0.00398411 0.05516053 -0.01366274
v 0.00570705 0.05522441 -0.01295483
v 0.00565385 0.05517482 -0.01299359
v 0.00430991 0.05458361 -0.01374738
v 0.00430326 0.05517599 -0.01353461
v 0.00512775 0.05540309 -0.01311461
v 0.00545688 0.05542680 -0.01297619
v 0.00555661 0.05538443 -0.01295562
v 0.00565385 0.05533081 -0.01293585
v 0.00332336 0.05630074 -0.01333687
v 0.00339899 0.05612205 -0.01340014
v 0.00321697 0.05617719 -0.01342625
v 0.00933826 0.05458361 -0.01058114
v 0.00914627 0.05472532 -0.01068713
v 0.00904321 0.05483542 -0.01072826
v 0.00855284 0.05520743 -0.01099245
v 0.00864344 0.05516338 -0.01093233
v 0.00910804 0.05489123 -0.01064521
v 0.00839742 0.05550143 -0.01098770
v 0.00845228 0.05559943 -0.01088804
v 0.00864261 0.05576232 -0.01063098
v 0.00844563 0.05532543 -0.01103120
v 0.00842485 0.05540158 -0.01101301
v 0.00873403 0.05571643 -0.01057086
v 0.00855035 0.05580821 -0.01069109
v 0.00850048 0.05593731 -0.01066894
v 0.00835836 0.05594034 -0.01079550
v 0.00842153 0.05599514 -0.01070928
v 0.00849799 0.05606288 -0.01060408
v 0.00854703 0.05610440 -0.01053764
v 0.00873071 0.05601094 -0.01041821
v 0.00888447 0.05601699 -0.01027188
v 0.00894597 0.05606961 -0.01018487
v 0.00885455 0.05611701 -0.01024419
v 0.00875481 0.05619854 -0.01029165
v 0.00890109 0.05622560 -0.01013820
v 0.00888031 0.05630074 -0.01011289
v 0.00897589 0.05622560 -0.01006464
v 0.00905069 0.05622560 -0.00998950
v 0.00349790 0.05601632 -0.01342071
v 0.00351701 0.05630074 -0.01327992
v 0.00369903 0.05630074 -0.01322218
v 0.00377965 0.05615483 -0.01326568
v 0.00404395 0.05597682 -0.01325223
v 0.00399242 0.05576703 -0.01337167
v 0.00383367 0.05576703 -0.01343099
v 0.00415033 0.05547941 -0.01344918
v 0.00436394 0.05539234 -0.01340964
v 0.00573946 0.05512439 -0.01297065
v 0.00580678 0.05533014 -0.01285833
v 0.00589738 0.05528324 -0.01282669
v 0.00579348 0.05517482 -0.01292556
v 0.00635616 0.05458361 -0.01283144
v 0.00624894 0.05458361 -0.01288918
v 0.00613924 0.05458361 -0.01294613
v 0.00574860 0.05458361 -0.01312726
v 0.00564139 0.05458361 -0.01317472
v 0.00543111 0.05458361 -0.01326647
v 0.00535465 0.05458361 -0.01329969
v 0.00517595 0.05458361 -0.01337721
v 0.00515767 0.05458361 -0.01338512
v 0.00489919 0.05458361 -0.01349664
v 0.00470470 0.05458361 -0.01357969
v 0.00452601 0.05525180 -0.01341438
v 0.00475124 0.05563020 -0.01315020
v 0.00491165 0.05578871 -0.01301336
v 0.00504879 0.05562549 -0.01303867
v 0.00550425 0.05547605 -0.01293189
v 0.00504879 0.05574080 -0.01298331
v 0.00497066 0.05584738 -0.01296195
v 0.00565718 0.05548429 -0.01286150
v 0.00576107 0.05544024 -0.01283381
v 0.00339151 0.05630074 -0.01331709
v 0.00909890 0.05458361 -0.01079075
v 0.00872904 0.05480836 -0.01101618
v 0.00867419 0.05502538 -0.01096793
v 0.00859939 0.05502538 -0.01103358
v 0.00850131 0.05516456 -0.01105731
v 0.00834672 0.05533367 -0.01111426
v 0.00826860 0.05538897 -0.01115697
v 0.00834839 0.05546109 -0.01105177
v 0.00829686 0.05559019 -0.01103279
v 0.00826860 0.05569021 -0.01100747
v 0.00842402 0.05569945 -0.01086194
v 0.00824532 0.05547538 -0.01113640
v 0.00840241 0.05577543 -0.01084216
v 0.00845061 0.05589512 -0.01073617
v 0.00829519 0.05588554 -0.01088092
v 0.00826527 0.05598556 -0.01085482
v 0.00844729 0.05618240 -0.01058273
v 0.00860188 0.05619349 -0.01043719
v 0.00870162 0.05611096 -0.01039052
v 0.00872073 0.05630074 -0.01026318
v 0.00887782 0.05630074 -0.01011527
v 0.00376220 0.05630074 -0.01320003
v 0.00383866 0.05630074 -0.01317314
v 0.00392011 0.05630074 -0.01314308
v 0.00403896 0.05630074 -0.01309879
v 0.00447614 0.05596320 -0.01309562
v 0.00454014 0.05586318 -0.01311935
v 0.00444871 0.05566650 -0.01324749
v 0.00444871 0.05559153 -0.01328308
v 0.00594891 0.05458361 -0.01303630
v 0.00581925 0.05458361 -0.01309562
v 0.00606443 0.05458361 -0.01298251
v 0.00586164 0.05538326 -0.01280613
v 0.00614838 0.05536426 -0.01264873
v 0.00618328 0.05526424 -0.01266850
v 0.00608770 0.05516675 -0.01276263
v 0.00603119 0.05511094 -0.01281720
v 0.00633040 0.05466043 -0.01281720
v 0.00643096 0.05458361 -0.01278873
v 0.00470304 0.05572349 -0.01312410
v 0.00475374 0.05593260 -0.01300466
v 0.00487010 0.05588722 -0.01298172
v 0.00463987 0.05582351 -0.01310037
v 0.00550176 0.05563020 -0.01285359
v 0.00555329 0.05568331 -0.01280455
v 0.00454429 0.05616660 -0.01297144
v 0.00438471 0.05630074 -0.01296749
v 0.00480776 0.05598724 -0.01295641
v 0.00490916 0.05608642 -0.01286308
v 0.00519922 0.05619518 -0.01268669
v 0.00528649 0.05616055 -0.01266850
v 0.00518676 0.05591848 -0.01283539
v 0.00561313 0.05558330 -0.01282986
v 0.00560897 0.05588033 -0.01267878
v 0.00565718 0.05563020 -0.01278635
v 0.00571286 0.05554009 -0.01280771
v 0.00580678 0.05563255 -0.01271280
v 0.00590735 0.05558733 -0.01268195
v 0.00600792 0.05553152 -0.01265426
v 0.00890524 0.05458361 -0.01096002
v 0.00869331 0.05458361 -0.01114431
v 0.00864759 0.05473608 -0.01111821
v 0.00855035 0.05487526 -0.01114194
v 0.00842069 0.05509278 -0.01115934
v 0.00823784 0.05517549 -0.01128115
v 0.00813728 0.05527433 -0.01132386
v 0.00829519 0.05528895 -0.01117991
v 0.00811068 0.05537435 -0.01130092
v 0.00816969 0.05547538 -0.01120205
v 0.00814143 0.05557909 -0.01117674
v 0.00816886 0.05577543 -0.01105177
v 0.00813977 0.05587259 -0.01102567
v 0.00798019 0.05585847 -0.01116725
v 0.00810403 0.05597278 -0.01099561
v 0.00828771 0.05616811 -0.01072352
v 0.00840989 0.05628259 -0.01055030
v 0.00856697 0.05630074 -0.01040555
v 0.00856947 0.05629351 -0.01040792
v 0.00834922 0.05622526 -0.01063730
v 0.00434316 0.05630074 -0.01298331
v 0.00429911 0.05622560 -0.01303630
v 0.00459333 0.05591815 -0.01307268
v 0.00459333 0.05577426 -0.01314150
v 0.00604864 0.05543167 -0.01267720
v 0.00624645 0.05546832 -0.01254590
v 0.00633372 0.05541368 -0.01251901
v 0.00623980 0.05531871 -0.01261392
v 0.00628884 0.05517549 -0.01264240
v 0.00635117 0.05499092 -0.01267878
v 0.00629715 0.05476045 -0.01279822
v 0.00661797 0.05464093 -0.01265980
v 0.00654566 0.05458361 -0.01272308
v 0.00549926 0.05607246 -0.01262579
v 0.00554913 0.05598035 -0.01265268
v 0.00534467 0.05591848 -0.01276974
v 0.00560565 0.05617702 -0.01252692
v 0.00446617 0.05630074 -0.01293427
v 0.00483186 0.05630074 -0.01278319
v 0.00512359 0.05630007 -0.01266296
v 0.00554497 0.05627704 -0.01250082
v 0.00570954 0.05583712 -0.01265585
v 0.00576107 0.05573711 -0.01268195
v 0.00580678 0.05578249 -0.01263528
v 0.00586164 0.05568735 -0.01265585
v 0.00605197 0.05573105 -0.01252929
v 0.00610100 0.05562549 -0.01255460
v 0.00619492 0.05557556 -0.01252534
v 0.00609851 0.05547907 -0.01262658
v 0.00862349 0.05458361 -0.01120442
v 0.00850464 0.05473490 -0.01124160
v 0.00826278 0.05507698 -0.01130250
v 0.00816304 0.05517549 -0.01134522
v 0.00797853 0.05525786 -0.01146623
v 0.00800762 0.05547538 -0.01134047
v 0.00798269 0.05556396 -0.01131991
v 0.00808242 0.05547538 -0.01127719
v 0.00811151 0.05567911 -0.01115143
v 0.00808159 0.05577543 -0.01112691
v 0.00800679 0.05577543 -0.01118940
v 0.00781895 0.05584284 -0.01130883
v 0.00789542 0.05591529 -0.01120205
v 0.00815639 0.05607549 -0.01088883
v 0.00800347 0.05603884 -0.01103674
v 0.00812647 0.05615365 -0.01086431
v 0.00840075 0.05630074 -0.01054634
v 0.00818798 0.05621081 -0.01077809
v 0.00629466 0.05551353 -0.01249528
v 0.00646836 0.05524189 -0.01250952
v 0.00636447 0.05532543 -0.01253720
v 0.00647418 0.05555052 -0.01236319
v 0.00720558 0.05552547 -0.01190127
v 0.00724132 0.05542562 -0.01192499
v 0.00641018 0.05518541 -0.01256726
v 0.00666783 0.05487526 -0.01253957
v 0.00671189 0.05473692 -0.01256805
v 0.00671189 0.05458361 -0.01262737
v 0.00670025 0.05458462 -0.01263370
v 0.00565302 0.05622644 -0.01247867
v 0.00570538 0.05613382 -0.01250398
v 0.00565302 0.05608053 -0.01255539
v 0.00519922 0.05630074 -0.01263133
v 0.00548430 0.05630074 -0.01251347
v 0.00553251 0.05630074 -0.01249291
v 0.00564970 0.05630074 -0.01243912
v 0.00575691 0.05603380 -0.01253008
v 0.00585748 0.05598303 -0.01250398
v 0.00600542 0.05583107 -0.01250240
v 0.00610100 0.05577879 -0.01247551
v 0.00615170 0.05567558 -0.01250082
v 0.00624645 0.05562549 -0.01246839
v 0.00846059 0.05458361 -0.01134363
v 0.00828771 0.05497696 -0.01132386
v 0.00810320 0.05505816 -0.01144567
v 0.00778488 0.05532543 -0.01158330
v 0.00768431 0.05541856 -0.01161968
v 0.00765522 0.05551841 -0.01159912
v 0.00784971 0.05544512 -0.01148284
v 0.00795027 0.05535788 -0.01144330
v 0.00827857 0.05465791 -0.01146544
v 0.00814891 0.05487526 -0.01148284
v 0.00804419 0.05487879 -0.01156431
v 0.00799017 0.05483105 -0.01162522
v 0.00770675 0.05458361 -0.01193765
v 0.00759538 0.05458361 -0.01202149
v 0.00753221 0.05458361 -0.01206895
v 0.00782145 0.05554514 -0.01145991
v 0.00779734 0.05562549 -0.01144013
v 0.00769096 0.05572618 -0.01147573
v 0.00795193 0.05566398 -0.01129380
v 0.00775496 0.05578451 -0.01139267
v 0.00765688 0.05582620 -0.01144962
v 0.00784223 0.05602220 -0.01117753
v 0.00796440 0.05613886 -0.01100510
v 0.00819546 0.05630074 -0.01071324
v 0.00650244 0.05514187 -0.01253008
v 0.00709919 0.05528711 -0.01207923
v 0.00660218 0.05506891 -0.01249924
v 0.00663625 0.05496889 -0.01252059
v 0.00633289 0.05571139 -0.01236873
v 0.00706844 0.05569323 -0.01190918
v 0.00715322 0.05563608 -0.01188228
v 0.00734604 0.05566197 -0.01174465
v 0.00752307 0.05569828 -0.01161177
v 0.00755548 0.05559826 -0.01163392
v 0.00727373 0.05532543 -0.01194714
v 0.00719976 0.05521230 -0.01204601
v 0.00714906 0.05516759 -0.01209901
v 0.00677006 0.05479458 -0.01251031
v 0.00680248 0.05469456 -0.01253087
v 0.00683988 0.05458361 -0.01255144
v 0.00576024 0.05630074 -0.01238296
v 0.00579598 0.05630074 -0.01236319
v 0.00594724 0.05607364 -0.01240274
v 0.00604449 0.05602254 -0.01237505
v 0.00595223 0.05593008 -0.01247867
v 0.00609602 0.05592151 -0.01240036
v 0.00619076 0.05586873 -0.01237347
v 0.00624396 0.05576703 -0.01239562
v 0.00837249 0.05458361 -0.01141799
v 0.00825364 0.05475793 -0.01144488
v 0.00745990 0.05458361 -0.01212274
v 0.00735601 0.05458361 -0.01219946
v 0.00732360 0.05458361 -0.01222319
v 0.00754385 0.05528391 -0.01177708
v 0.00760286 0.05547117 -0.01165607
v 0.00760286 0.05563910 -0.01158172
v 0.00772171 0.05562549 -0.01150025
v 0.00829686 0.05458361 -0.01148047
v 0.00820211 0.05471490 -0.01150420
v 0.00819047 0.05458361 -0.01156510
v 0.00812730 0.05458361 -0.01161494
v 0.00801676 0.05472532 -0.01164578
v 0.00789209 0.05458361 -0.01179607
v 0.00778238 0.05458361 -0.01187991
v 0.00760369 0.05593227 -0.01142036
v 0.00749232 0.05577543 -0.01159200
v 0.00755715 0.05588671 -0.01148601
v 0.00779901 0.05612222 -0.01114352
v 0.00799183 0.05630074 -0.01087380
v 0.00800596 0.05630074 -0.01086273
v 0.00815806 0.05630074 -0.01074329
v 0.00685733 0.05487980 -0.01241618
v 0.00680663 0.05502538 -0.01238534
v 0.00674264 0.05487526 -0.01249291
v 0.00640104 0.05577829 -0.01228963
v 0.00664789 0.05587730 -0.01207844
v 0.00720392 0.05582704 -0.01175019
v 0.00724630 0.05572702 -0.01177708
v 0.00751393 0.05538393 -0.01175573
v 0.00745824 0.05533064 -0.01181742
v 0.00737264 0.05524844 -0.01191234
v 0.00723134 0.05511228 -0.01206816
v 0.00704600 0.05475675 -0.01234421
v 0.00697951 0.05458361 -0.01246285
v 0.00690222 0.05461706 -0.01249924
v 0.00691302 0.05458361 -0.01250635
v 0.00686564 0.05458361 -0.01253562
v 0.00594392 0.05630074 -0.01227697
v 0.00584834 0.05627368 -0.01234816
v 0.00599628 0.05612256 -0.01234737
v 0.00603784 0.05630074 -0.01222082
v 0.00614422 0.05596891 -0.01234500
v 0.00612012 0.05630074 -0.01216940
v 0.00627887 0.05610070 -0.01218443
v 0.00639107 0.05606675 -0.01213302
v 0.00650327 0.05603262 -0.01208160
v 0.00655148 0.05592655 -0.01211166
v 0.00646919 0.05584519 -0.01220974
v 0.00629050 0.05581141 -0.01234183
v 0.00728121 0.05458361 -0.01225404
v 0.00717649 0.05458361 -0.01232918
v 0.00751143 0.05598673 -0.01145279
v 0.00741669 0.05577543 -0.01164104
v 0.00738261 0.05585982 -0.01161810
v 0.00733690 0.05596001 -0.01158883
v 0.00730116 0.05607751 -0.01153979
v 0.00741087 0.05604036 -0.01148838
v 0.00736432 0.05614054 -0.01145595
v 0.00763195 0.05610474 -0.01128115
v 0.00765273 0.05627721 -0.01114668
v 0.00781895 0.05629503 -0.01100906
v 0.00790124 0.05630074 -0.01094262
v 0.00709753 0.05458361 -0.01238375
v 0.00707841 0.05465674 -0.01236556
v 0.00622401 0.05630074 -0.01210375
v 0.00631211 0.05628780 -0.01205550
v 0.00640437 0.05623300 -0.01202861
v 0.00745658 0.05608457 -0.01142669
v 0.00723716 0.05601447 -0.01162126
v 0.00719062 0.05611449 -0.01159121
v 0.00715405 0.05623098 -0.01154217
v 0.00726459 0.05619383 -0.01149075
v 0.00721805 0.05629385 -0.01145832
v 0.00764442 0.05630074 -0.01113640
v 0.00740754 0.05630074 -0.01131279
v 0.00781563 0.05630074 -0.01100747
v 0.00628884 0.05630074 -0.01206262
v 0.00649912 0.05630074 -0.01192737
v 0.00703353 0.05630074 -0.01157934
v 0.00713244 0.05630074 -0.01151211
v 0.00720475 0.05630074 -0.01146228
v 0.00721389 0.05630074 -0.01145595
f 1 2 6
f 1 6 20
f 1 20 31
f 1 31 51
f 1 51 63
f 1 63 37
f 1 37 24
f 1 24 14
f 1 14 3
f 1 3 4
f 1 4 5
f 1 5 17
f 1 17 29
f 1 29 47
f 1 47 46
f 1 46 73
f 1 73 102
f 1 102 140
f 1 140 139
f 1 139 189
f 1 189 186
f 1 186 185
f 1 185 188
f 1 188 240
f 1 240 287
f 1 287 327
f 1 327 386
f 1 386 385
f 1 385 384
f 1 384 383
f 1 383 382
f 1 382 381
f 1 381 380
f 1 380 379
f 1 379 427
f 1 427 426
f 1 426 428
f 1 428 378
f 1 378 377
f 1 377 376
f 1 376 435
f 1 435 488
f 1 488 532
f 1 532 586
f 1 586 633
f 1 633 632
f 1 632 630
f 1 630 659
f 1 659 647
f 1 647 646
f 1 646 599
f 1 599 598
f 1 598 597
f 1 597 561
f 1 561 560
f 1 560 559
f 1 559 610
f 1 610 609
f 1 609 607
f 1 607 606
f 1 606 604
f 1 604 595
f 1 595 547
f 1 547 505
f 1 505 457
f 1 457 456
f 1 456 397
f 1 397 336
f 1 336 292
f 1 292 243
f 1 243 191
f 1 191 143
f 1 143 109
f 1 109 80
f 1 80 54
f 1 54 33
f 1 33 22
f 1 22 7
f 1 7 2
f 2 7 8
f 2 8 9
f 2 9 10
f 2 10 11
f 2 11 12
f 2 12 13
f 2 13 6
f 3 14 15
f 3 15 16
f 3 16 4
f 4 17 5
f 4 16 18
f 4 18 19
f 4 19 17
f 6 13 21
f 6 21 23
f 6 23 36
f 6 36 62
f 6 62 92
f 6 92 130
f 6 130 175
f 6 175 128
f 6 128 171
f 6 171 170
f 6 170 174
f 6 174 219
f 6 219 221
f 6 221 263
f 6 263 313
f 6 313 360
f 6 360 417
f 6 417 416
f 6 416 473
f 6 473 521
f 6 521 570
f 6 570 617
f 6 617 616
f 6 616 615
f 6 615 658
f 6 658 672
f 6 672 670
f 6 670 671
f 6 671 678
f 6 678 677
f 6 677 676
f 6 676 675
f 6 675 674
f 6 674 673
f 6 673 661
f 6 661 639
f 6 639 637
f 6 637 634
f 6 634 588
f 6 588 587
f 6 587 540
f 6 540 539
f 6 539 538
f 6 538 537
f 6 537 494
f 6 494 493
f 6 493 443
f 6 443 476
f 6 476 421
f 6 421 420
f 6 420 419
f 6 419 418
f 6 418 365
f 6 365 321
f 6 321 364
f 6 364 396
f 6 396 333
f 6 333 290
f 6 290 289
f 6 289 288
f 6 288 241
f 6 241 190
f 6 190 141
f 6 141 103
f 6 103 76
f 6 76 52
f 6 52 32
f 6 32 20
f 7 22 35
f 7 35 58
f 7 58 57
f 7 57 85
f 7 85 84
f 7 84 119
f 7 119 118
f 7 118 117
f 7 117 116
f 7 116 115
f 7 115 156
f 7 156 208
f 7 208 207
f 7 207 206
f 7 206 214
f 7 214 163
f 7 163 121
f 7 121 88
f 7 88 59
f 7 59 36
f 7 36 23
f 7 23 13
f 7 13 12
f 7 12 11
f 7 11 10
f 7 10 9
f 7 9 8
f 13 23 21
f 14 24 25
f 14 25 26
f 14 26 15
f 15 26 27
f 15 27 18
f 15 18 16
f 17 19 28
f 17 28 29
f 18 27 19
f 19 27 30
f 19 30 28
f 20 32 31
f 22 33 34
f 22 34 35
f 24 37 25
f 25 38 26
f 25 37 38
f 26 38 39
f 26 39 68
f 26 68 40
f 26 40 27
f 27 40 41
f 27 41 69
f 27 69 42
f 27 42 30
f 28 30 42
f 28 42 43
f 28 43 44
f 28 44 45
f 28 45 46
f 28 46 47
f 28 47 29
f 31 32 48
f 31 48 49
f 31 49 50
f 31 50 51
f 32 52 53
f 32 53 48
f 33 54 34
f 34 54 55
f 34 55 56
f 34 56 57
f 34 57 58
f 34 58 35
f 36 59 60
f 36 60 61
f 36 61 62
f 37 63 64
f 37 64 38
f 38 65 66
f 38 66 67
f 38 67 39
f 38 64 65
f 39 67 68
f 40 68 41
f 41 68 96
f 41 96 69
f 42 69 43
f 43 69 70
f 43 70 71
f 43 71 44
f 44 71 45
f 45 71 72
f 45 72 46
f 46 72 73
f 48 53 49
f 49 53 74
f 49 74 65
f 49 65 64
f 49 64 50
f 50 64 51
f 51 64 63
f 52 75 53
f 52 76 75
f 53 75 77
f 53 77 78
f 53 78 79
f 53 79 74
f 54 56 55
f 54 80 81
f 54 81 56
f 56 82 83
f 56 83 84
f 56 84 85
f 56 85 57
f 56 81 86
f 56 86 87
f 56 87 82
f 59 88 60
f 60 89 90
f 60 90 61
f 60 88 89
f 61 90 91
f 61 91 62
f 62 91 92
f 65 74 93
f 65 93 66
f 66 93 67
f 67 93 74
f 67 74 94
f 67 94 95
f 67 95 96
f 67 96 68
f 69 96 97
f 69 97 98
f 69 98 70
f 70 72 71
f 70 98 99
f 70 99 72
f 72 100 73
f 72 99 101
f 72 101 100
f 73 100 102
f 74 79 94
f 75 76 77
f 76 103 104
f 76 104 105
f 76 105 106
f 76 106 94
f 76 94 107
f 76 107 108
f 76 108 77
f 77 108 78
f 78 108 107
f 78 107 94
f 78 94 79
f 80 109 81
f 81 109 110
f 81 110 87
f 81 87 86
f 82 111 83
f 82 87 111
f 83 111 112
f 83 112 113
f 83 113 114
f 83 114 115
f 83 115 116
f 83 116 117
f 83 117 118
f 83 118 119
f 83 119 84
f 87 110 120
f 87 120 111
f 88 121 89
f 89 121 122
f 89 122 91
f 89 91 90
f 91 123 124
f 91 124 125
f 91 125 126
f 91 126 127
f 91 127 128
f 91 128 129
f 91 129 130
f 91 130 92
f 91 122 123
f 94 106 131
f 94 131 132
f 94 132 95
f 95 132 97
f 95 97 96
f 97 132 133
f 97 133 134
f 97 134 98
f 98 135 136
f 98 136 137
f 98 137 99
f 98 134 135
f 99 138 101
f 99 137 138
f 100 101 102
f 101 138 139
f 101 139 140
f 101 140 102
f 103 141 142
f 103 142 104
f 104 142 132
f 104 132 105
f 105 132 106
f 106 132 131
f 109 143 144
f 109 144 145
f 109 145 146
f 109 146 110
f 110 147 120
f 110 146 148
f 110 148 149
f 110 149 150
f 110 150 151
f 110 151 147
f 111 120 112
f 112 120 152
f 112 152 113
f 113 152 114
f 114 152 153
f 114 153 154
f 114 154 155
f 114 155 115
f 115 155 156
f 120 157 158
f 120 158 153
f 120 153 152
f 120 147 151
f 120 151 159
f 120 159 150
f 120 150 160
f 120 160 161
f 120 161 162
f 120 162 209
f 120 209 157
f 121 163 122
f 122 164 123
f 122 163 165
f 122 165 164
f 123 166 124
f 123 164 166
f 124 167 125
f 124 166 168
f 124 168 169
f 124 169 167
f 125 169 126
f 125 167 169
f 126 170 171
f 126 171 127
f 126 169 172
f 126 172 173
f 126 173 174
f 126 174 170
f 127 171 128
f 128 175 129
f 129 175 130
f 132 176 177
f 132 177 178
f 132 178 179
f 132 179 133
f 132 142 180
f 132 180 176
f 133 179 135
f 133 135 134
f 135 181 182
f 135 182 136
f 135 179 181
f 136 183 184
f 136 184 137
f 136 182 183
f 137 185 186
f 137 186 138
f 137 184 187
f 137 187 188
f 137 188 185
f 138 189 139
f 138 186 189
f 141 190 142
f 142 190 180
f 143 191 192
f 143 192 193
f 143 193 145
f 143 145 144
f 145 193 194
f 145 194 195
f 145 195 148
f 145 148 146
f 148 195 196
f 148 196 197
f 148 197 198
f 148 198 149
f 149 198 150
f 150 198 160
f 150 159 151
f 153 199 200
f 153 200 201
f 153 201 155
f 153 155 154
f 153 158 202
f 153 202 203
f 153 203 204
f 153 204 199
f 155 201 200
f 155 200 205
f 155 205 166
f 155 166 164
f 155 164 165
f 155 165 206
f 155 206 207
f 155 207 208
f 155 208 156
f 157 209 210
f 157 210 211
f 157 211 212
f 157 212 158
f 158 212 202
f 160 198 161
f 161 198 213
f 161 213 162
f 162 213 210
f 162 210 209
f 163 214 165
f 165 214 206
f 166 205 200
f 166 200 215
f 166 215 168
f 168 216 204
f 168 204 217
f 168 217 218
f 168 218 169
f 168 215 200
f 168 200 216
f 169 218 172
f 172 218 173
f 173 219 174
f 173 218 220
f 173 220 221
f 173 221 219
f 176 180 177
f 177 222 223
f 177 223 224
f 177 224 178
f 177 180 225
f 177 225 222
f 178 224 226
f 178 226 179
f 179 226 181
f 180 190 225
f 181 227 182
f 181 226 228
f 181 228 223
f 181 223 227
f 182 227 229
f 182 229 230
f 182 230 183
f 183 231 232
f 183 232 184
f 183 230 233
f 183 233 231
f 184 234 187
f 184 232 235
f 184 235 236
f 184 236 237
f 184 237 238
f 184 238 234
f 187 234 239
f 187 239 240
f 187 240 188
f 190 241 242
f 190 242 225
f 191 243 244
f 191 244 192
f 192 244 245
f 192 245 246
f 192 246 193
f 193 246 247
f 193 247 194
f 194 247 195
f 195 247 196
f 196 247 248
f 196 248 197
f 197 248 249
f 197 249 250
f 197 250 198
f 198 250 251
f 198 251 252
f 198 252 213
f 199 204 200
f 200 204 216
f 202 212 253
f 202 253 203
f 203 253 254
f 203 254 255
f 203 255 256
f 203 256 204
f 204 256 257
f 204 257 218
f 204 218 217
f 210 213 258
f 210 258 259
f 210 259 211
f 211 253 212
f 211 259 253
f 213 252 260
f 213 260 258
f 218 257 261
f 218 261 262
f 218 262 220
f 220 263 221
f 220 262 263
f 222 242 264
f 222 264 265
f 222 265 223
f 222 225 242
f 223 266 227
f 223 228 226
f 223 226 224
f 223 265 264
f 223 264 266
f 227 266 264
f 227 264 229
f 229 267 233
f 229 233 230
f 229 264 268
f 229 268 267
f 231 233 269
f 231 269 270
f 231 270 271
f 231 271 272
f 231 272 273
f 231 273 232
f 232 273 274
f 232 274 235
f 233 267 275
f 233 275 270
f 233 270 269
f 234 238 276
f 234 276 277
f 234 277 278
f 234 278 239
f 235 274 279
f 235 279 280
f 235 280 236
f 236 280 237
f 237 280 281
f 237 281 282
f 237 282 238
f 238 282 283
f 238 283 284
f 238 284 285
f 238 285 286
f 238 286 276
f 239 287 240
f 239 278 287
f 241 288 242
f 242 288 289
f 242 289 290
f 242 290 291
f 242 291 264
f 243 292 244
f 244 292 293
f 244 293 294
f 244 294 295
f 244 295 296
f 244 296 245
f 245 297 298
f 245 298 299
f 245 299 247
f 245 247 246
f 245 296 300
f 245 300 301
f 245 301 297
f 247 299 248
f 248 302 249
f 248 299 303
f 248 303 302
f 249 302 304
f 249 304 305
f 249 305 306
f 249 306 250
f 250 306 307
f 250 307 251
f 251 307 308
f 251 308 252
f 252 309 260
f 252 308 309
f 253 259 254
f 254 259 310
f 254 310 256
f 254 256 255
f 256 261 257
f 256 310 311
f 256 311 261
f 258 309 259
f 258 260 309
f 259 309 310
f 261 311 262
f 262 311 310
f 262 310 312
f 262 312 313
f 262 313 263
f 264 291 290
f 264 290 314
f 264 314 268
f 267 268 275
f 268 314 315
f 268 315 316
f 268 316 275
f 270 275 317
f 270 317 318
f 270 318 271
f 271 319 272
f 271 318 320
f 271 320 321
f 271 321 322
f 271 322 319
f 272 319 273
f 273 319 274
f 274 323 324
f 274 324 279
f 274 319 323
f 275 316 315
f 275 315 317
f 276 286 325
f 276 325 326
f 276 326 277
f 277 326 278
f 278 326 327
f 278 327 287
f 279 328 329
f 279 329 283
f 279 283 281
f 279 281 280
f 279 324 328
f 281 283 282
f 283 329 330
f 283 330 284
f 284 330 285
f 285 330 331
f 285 331 286
f 286 331 332
f 286 332 325
f 290 333 334
f 290 334 335
f 290 335 314
f 292 336 293
f 293 336 337
f 293 337 338
f 293 338 294
f 294 338 339
f 294 339 340
f 294 340 341
f 294 341 295
f 295 341 340
f 295 340 300
f 295 300 296
f 297 301 342
f 297 342 343
f 297 343 298
f 298 343 344
f 298 344 303
f 298 303 299
f 300 340 301
f 301 339 345
f 301 345 346
f 301 346 342
f 301 340 339
f 302 303 344
f 302 344 347
f 302 347 304
f 304 347 344
f 304 344 305
f 305 348 349
f 305 349 350
f 305 350 351
f 305 351 352
f 305 352 353
f 305 353 354
f 305 354 306
f 305 344 348
f 306 354 355
f 306 355 307
f 307 355 356
f 307 356 308
f 308 356 357
f 308 357 358
f 308 358 359
f 308 359 360
f 308 360 361
f 308 361 362
f 308 362 310
f 308 310 309
f 310 362 313
f 310 313 312
f 313 362 360
f 314 335 334
f 314 334 315
f 315 334 317
f 317 334 363
f 317 363 318
f 318 363 364
f 318 364 320
f 319 322 365
f 319 365 366
f 319 366 367
f 319 367 368
f 319 368 369
f 319 369 323
f 320 364 321
f 321 365 322
f 323 369 368
f 323 368 370
f 323 370 324
f 324 370 371
f 324 371 328
f 325 372 326
f 325 332 373
f 325 373 374
f 325 374 375
f 325 375 376
f 325 376 377
f 325 377 378
f 325 378 372
f 326 372 379
f 326 379 380
f 326 380 381
f 326 381 382
f 326 382 383
f 326 383 384
f 326 384 385
f 326 385 386
f 326 386 327
f 328 371 387
f 328 387 329
f 329 387 371
f 329 371 388
f 329 388 389
f 329 389 390
f 329 390 330
f 330 391 331
f 330 390 389
f 330 389 392
f 330 392 393
f 330 393 391
f 331 391 394
f 331 394 332
f 332 394 395
f 332 395 373
f 333 396 334
f 334 396 364
f 334 364 363
f 336 397 398
f 336 398 337
f 337 399 338
f 337 398 400
f 337 400 399
f 338 399 339
f 339 401 402
f 339 402 403
f 339 403 345
f 339 399 401
f 342 346 404
f 342 404 405
f 342 405 406
f 342 406 343
f 343 406 407
f 343 407 348
f 343 348 344
f 345 403 408
f 345 408 346
f 346 408 404
f 348 407 409
f 348 409 410
f 348 410 349
f 349 410 350
f 350 410 406
f 350 406 411
f 350 411 412
f 350 412 351
f 351 412 352
f 352 412 353
f 353 412 413
f 353 413 414
f 353 414 415
f 353 415 354
f 354 415 355
f 355 357 356
f 355 415 357
f 357 415 358
f 358 415 414
f 358 414 416
f 358 416 359
f 359 417 360
f 359 416 417
f 360 362 361
f 365 418 366
f 366 418 419
f 366 419 420
f 366 420 421
f 366 421 367
f 367 421 422
f 367 422 423
f 367 423 368
f 368 423 370
f 370 423 424
f 370 424 425
f 370 425 371
f 371 425 388
f 372 426 427
f 372 427 379
f 372 378 428
f 372 428 426
f 373 395 429
f 373 429 374
f 374 429 430
f 374 430 431
f 374 431 432
f 374 432 433
f 374 433 375
f 375 433 376
f 376 433 434
f 376 434 435
f 388 425 424
f 388 424 436
f 388 436 389
f 389 437 438
f 389 438 392
f 389 436 439
f 389 439 437
f 391 440 441
f 391 441 394
f 391 393 440
f 392 438 393
f 393 438 442
f 393 442 443
f 393 443 444
f 393 444 445
f 393 445 446
f 393 446 447
f 393 447 448
f 393 448 440
f 394 441 449
f 394 449 450
f 394 450 451
f 394 451 452
f 394 452 395
f 395 452 453
f 395 453 454
f 395 454 455
f 395 455 429
f 397 456 398
f 398 456 457
f 398 457 458
f 398 458 459
f 398 459 460
f 398 460 400
f 399 400 401
f 400 460 401
f 401 460 461
f 401 461 462
f 401 462 463
f 401 463 403
f 401 403 402
f 403 463 462
f 403 462 464
f 403 464 465
f 403 465 408
f 404 408 405
f 405 408 466
f 405 466 406
f 406 466 467
f 406 467 411
f 406 410 409
f 406 409 407
f 408 465 466
f 411 467 412
f 412 467 468
f 412 468 469
f 412 469 470
f 412 470 471
f 412 471 413
f 413 472 473
f 413 473 474
f 413 474 414
f 413 471 475
f 413 475 472
f 414 474 416
f 416 474 473
f 421 476 477
f 421 477 422
f 422 477 476
f 422 476 443
f 422 443 437
f 422 437 478
f 422 478 423
f 423 478 437
f 423 437 439
f 423 439 436
f 423 436 479
f 423 479 424
f 424 479 436
f 429 455 480
f 429 480 430
f 430 480 481
f 430 481 482
f 430 482 483
f 430 483 431
f 431 483 484
f 431 484 432
f 432 484 485
f 432 485 433
f 433 486 434
f 433 485 487
f 433 487 486
f 434 486 488
f 434 488 435
f 437 443 442
f 437 442 438
f 440 489 490
f 440 490 441
f 440 448 491
f 440 491 489
f 441 490 492
f 441 492 450
f 441 450 449
f 443 493 444
f 444 493 445
f 445 493 446
f 446 493 494
f 446 494 495
f 446 495 496
f 446 496 447
f 447 496 448
f 448 496 489
f 448 489 491
f 450 492 497
f 450 497 451
f 451 497 452
f 452 497 498
f 452 498 453
f 453 498 499
f 453 499 500
f 453 500 454
f 454 500 501
f 454 501 455
f 455 501 502
f 455 502 503
f 455 503 504
f 455 504 480
f 457 505 458
f 458 505 506
f 458 506 507
f 458 507 459
f 459 507 460
f 460 507 461
f 461 507 508
f 461 508 462
f 462 508 509
f 462 509 464
f 464 509 510
f 464 510 511
f 464 511 512
f 464 512 465
f 465 512 466
f 466 513 467
f 466 512 511
f 466 511 513
f 467 513 514
f 467 514 468
f 468 514 469
f 469 514 515
f 469 515 516
f 469 516 517
f 469 517 470
f 470 518 471
f 470 517 518
f 471 518 519
f 471 519 520
f 471 520 522
f 471 522 475
f 472 475 521
f 472 521 473
f 475 522 521
f 480 504 481
f 481 504 503
f 481 503 523
f 481 523 482
f 482 524 525
f 482 525 483
f 482 523 526
f 482 526 527
f 482 527 528
f 482 528 524
f 483 525 529
f 483 529 484
f 484 529 530
f 484 530 485
f 485 530 531
f 485 531 487
f 486 487 488
f 487 531 532
f 487 532 533
f 487 533 488
f 488 533 532
f 489 496 490
f 490 496 492
f 492 496 534
f 492 534 535
f 492 535 536
f 492 536 497
f 494 537 495
f 495 537 538
f 495 538 496
f 496 538 539
f 496 539 540
f 496 540 534
f 497 536 535
f 497 535 541
f 497 541 498
f 498 541 499
f 499 541 542
f 499 542 500
f 500 542 501
f 501 543 544
f 501 544 545
f 501 545 502
f 501 542 543
f 502 545 503
f 503 545 546
f 503 546 523
f 505 547 506
f 506 547 548
f 506 548 507
f 507 548 508
f 508 549 509
f 508 548 549
f 509 550 551
f 509 551 552
f 509 552 553
f 509 553 562
f 509 562 554
f 509 554 510
f 509 549 555
f 509 555 556
f 509 556 557
f 509 557 558
f 509 558 559
f 509 559 560
f 509 560 561
f 509 561 550
f 510 554 511
f 511 554 562
f 511 562 563
f 511 563 564
f 511 564 565
f 511 565 514
f 511 514 513
f 514 565 515
f 515 565 566
f 515 566 516
f 516 566 567
f 516 567 517
f 517 568 519
f 517 519 518
f 517 567 568
f 519 568 569
f 519 569 520
f 520 569 522
f 521 522 570
f 522 569 570
f 523 546 526
f 524 571 529
f 524 529 525
f 524 528 572
f 524 572 573
f 524 573 574
f 524 574 571
f 526 546 575
f 526 575 576
f 526 576 577
f 526 577 527
f 527 577 578
f 527 578 579
f 527 579 528
f 528 579 580
f 528 580 581
f 528 581 582
f 528 582 583
f 528 583 572
f 529 571 574
f 529 574 530
f 530 574 584
f 530 584 585
f 530 585 531
f 531 585 532
f 532 585 586
f 534 540 535
f 535 587 542
f 535 542 541
f 535 540 587
f 542 587 588
f 542 588 589
f 542 589 590
f 542 590 591
f 542 591 543
f 543 590 544
f 543 591 590
f 544 590 592
f 544 592 593
f 544 593 545
f 545 593 594
f 545 594 546
f 546 594 575
f 547 595 549
f 547 549 548
f 549 595 596
f 549 596 555
f 550 561 597
f 550 597 598
f 550 598 551
f 551 598 599
f 551 599 600
f 551 600 552
f 552 600 601
f 552 601 580
f 552 580 579
f 552 579 602
f 552 602 603
f 552 603 562
f 552 562 553
f 555 604 556
f 555 596 595
f 555 595 604
f 556 604 605
f 556 605 557
f 557 605 606
f 557 606 607
f 557 607 558
f 558 607 608
f 558 608 609
f 558 609 610
f 558 610 559
f 562 603 563
f 563 603 564
f 564 567 566
f 564 566 565
f 564 603 602
f 564 602 579
f 564 579 567
f 567 611 568
f 567 579 612
f 567 612 613
f 567 613 611
f 568 611 614
f 568 614 569
f 569 614 615
f 569 615 616
f 569 616 617
f 569 617 570
f 572 583 618
f 572 618 619
f 572 619 573
f 573 619 620
f 573 620 584
f 573 584 574
f 575 594 621
f 575 621 576
f 576 622 623
f 576 623 624
f 576 624 578
f 576 578 577
f 576 621 622
f 578 624 579
f 579 624 612
f 580 625 626
f 580 626 627
f 580 627 581
f 580 601 625
f 581 628 582
f 581 627 628
f 582 628 583
f 583 628 629
f 583 629 630
f 583 630 618
f 584 620 618
f 584 618 630
f 584 630 631
f 584 631 632
f 584 632 585
f 585 632 633
f 585 633 586
f 588 634 635
f 588 635 636
f 588 636 589
f 589 636 590
f 590 636 637
f 590 637 638
f 590 638 593
f 590 593 592
f 593 638 639
f 593 639 640
f 593 640 641
f 593 641 642
f 593 642 643
f 593 643 622
f 593 622 644
f 593 644 645
f 593 645 594
f 594 645 621
f 599 646 600
f 600 646 647
f 600 647 627
f 600 627 626
f 600 626 625
f 600 625 601
f 604 606 605
f 607 609 608
f 611 613 648
f 611 648 614
f 612 624 649
f 612 649 650
f 612 650 613
f 613 650 651
f 613 651 652
f 613 652 653
f 613 653 654
f 613 654 648
f 614 648 655
f 614 655 656
f 614 656 657
f 614 657 658
f 614 658 615
f 618 620 619
f 621 645 644
f 621 644 622
f 622 650 623
f 622 643 642
f 622 642 650
f 623 650 624
f 624 650 649
f 627 647 628
f 628 647 659
f 628 659 660
f 628 660 630
f 628 630 629
f 630 632 631
f 630 660 659
f 634 637 636
f 634 636 635
f 637 639 638
f 639 661 640
f 640 662 641
f 640 661 662
f 641 662 642
f 642 662 663
f 642 663 650
f 648 654 664
f 648 664 655
f 650 665 651
f 650 663 665
f 651 665 666
f 651 666 652
f 652 666 667
f 652 667 668
f 652 668 653
f 653 668 654
f 654 668 669
f 654 669 664
f 655 664 656
f 656 670 657
f 656 664 671
f 656 671 670
f 657 670 672
f 657 672 658
f 661 673 662
f 662 673 674
f 662 674 663
f 663 674 665
f 664 669 671
f 665 674 666
f 666 675 667
f 666 674 675
f 667 676 669
f 667 669 668
f 667 675 676
f 669 676 677
f 669 677 678
f 669 678 671

