# https://github.com/mikedh/trimesh
v -0.00545197 0.02156441 0.01256843
v -0.00545197 0.02156441 0.01339475
v -0.00545197 0.02166854 0.01254839
v -0.00384017 0.02162624 0.01269176
v -0.00530540 0.02156441 0.01258076
v -0.00483419 0.02156441 0.01361597
v -0.00545197 0.02276850 0.01334696
v -0.00017995 0.02168482 0.01299315
v -0.00194916 0.02165553 0.01284670
v -0.00374005 0.02164902 0.01269600
v -0.00545197 0.02174339 0.01253991
v -0.00536217 0.02177594 0.01254338
v -0.00204928 0.02162949 0.01284246
v -0.00366986 0.02156441 0.01271912
v -0.00470414 0.02156441 0.01366145
v -0.00545197 0.02291820 0.01334079
v -0.00017995 0.02162298 0.01300356
v -0.00025788 0.02163275 0.01299354
v -0.00017995 0.02172387 0.01298891
v -0.00545197 0.02186706 0.01252873
v -0.00357231 0.02178570 0.01269446
v -0.00017995 0.02156441 0.01301512
v -0.00455446 0.02156441 0.01370539
v -0.00402804 0.03528783 0.01329493
v -0.00388456 0.03983735 0.01314731
v -0.00380405 0.04257097 0.01305636
v -0.00392069 0.04272067 0.01300972
v -0.00402391 0.04226832 0.01299354
v -0.00545197 0.02306790 0.01333424
v -0.00178297 0.02179546 0.01284554
v -0.00017995 0.02186380 0.01297658
v -0.00017995 0.02199072 0.01296733
v -0.00545197 0.02246585 0.01248557
v -0.00017995 0.02156441 0.01404956
v -0.00425409 0.02156441 0.01377900
v -0.00372095 0.04109677 0.01314346
v -0.00372921 0.04099588 0.01314539
v -0.00380405 0.04211862 0.01307563
v -0.00380405 0.04241802 0.01306291
v -0.00365386 0.04302006 0.01308218
v -0.00380405 0.04302006 0.01303670
v -0.00390159 0.04302006 0.01300317
v -0.00401462 0.04241802 0.01299007
v -0.00410390 0.04257097 0.01294767
v -0.00545197 0.02621807 0.01319048
v -0.00545197 0.02606837 0.01319742
v -0.00017995 0.02214042 0.01295654
v -0.00545197 0.02426548 0.01235607
v -0.00034097 0.02156441 0.01406189
v -0.00017995 0.02879223 0.01400639
v -0.00410390 0.02156441 0.01381060
v -0.00335400 0.04166953 0.01320358
v -0.00333078 0.04302006 0.01315695
v -0.00341851 0.04287037 0.01314307
v -0.00353257 0.04241802 0.01313498
v -0.00371011 0.04122043 0.01314115
v -0.00365386 0.04287037 0.01308835
v -0.00350419 0.04302006 0.01311802
v -0.00350419 0.04316976 0.01311147
v -0.00365386 0.04316976 0.01307486
v -0.00380405 0.04316976 0.01302938
v -0.00389075 0.04316976 0.01299932
v -0.00396610 0.04316976 0.01297272
v -0.00397643 0.04302006 0.01297619
v -0.00398623 0.04287037 0.01297966
v -0.00410390 0.04316976 0.01291915
v -0.00545197 0.02937149 0.01303901
v -0.00041684 0.02342587 0.01284400
v -0.00020317 0.02726596 0.01258616
v -0.00017995 0.02576572 0.01269600
v -0.00545197 0.03430828 0.01163420
v -0.00035336 0.02156441 0.01406266
v -0.00017995 0.02891914 0.01400562
v -0.00335400 0.02156441 0.01392700
v -0.00161937 0.04350496 0.01344408
v -0.00179484 0.04257097 0.01344832
v -0.00170401 0.04407121 0.01340978
v -0.00275429 0.04331946 0.01325330
v -0.00305363 0.04302006 0.01321168
v -0.00320381 0.04151983 0.01323943
v -0.00320381 0.04272067 0.01319472
v -0.00320381 0.04302006 0.01318354
v -0.00320381 0.04316976 0.01317699
v -0.00331581 0.04316976 0.01315348
v -0.00339116 0.04316976 0.01313691
v -0.00365386 0.04226832 0.01311263
v -0.00337361 0.04331946 0.01313305
v -0.00350419 0.04331946 0.01310338
v -0.00365386 0.04331946 0.01306638
v -0.00373282 0.04416558 0.01299662
v -0.00374160 0.04407121 0.01299932
v -0.00377927 0.04361886 0.01301242
v -0.00381643 0.04331946 0.01301666
v -0.00387475 0.04336827 0.01299392
v -0.00388301 0.04327065 0.01299662
v -0.00395423 0.04346916 0.01296039
v -0.00415758 0.04437060 0.01283745
v -0.00416842 0.04422090 0.01284130
v -0.00417564 0.04411677 0.01284400
v -0.00545197 0.04482295 0.01229594
v -0.00545197 0.04182248 0.01244047
v -0.00545197 0.03237197 0.01289487
v -0.00080340 0.03011673 0.01233025
v -0.00035336 0.02861649 0.01247632
v -0.00020317 0.02831710 0.01251062
v -0.00017995 0.02681686 0.01262046
v -0.00545197 0.05306611 0.01028604
v -0.00110378 0.02156441 0.01409735
v -0.00017995 0.02951794 0.01400177
v -0.00320381 0.02156441 0.01395012
v -0.00145989 0.04422090 0.01344292
v -0.00160595 0.04361886 0.01344215
v -0.00155382 0.04422090 0.01342905
v -0.00170401 0.04361886 0.01342597
v -0.00305363 0.02156441 0.01397248
v -0.00170401 0.04422090 0.01340400
v -0.00185368 0.04407121 0.01338357
v -0.00260410 0.04346916 0.01327411
v -0.00305363 0.04316976 0.01320590
v -0.00305363 0.04331946 0.01319896
v -0.00320381 0.04331946 0.01316967
v -0.00329878 0.04331946 0.01314963
v -0.00328639 0.04342360 0.01314693
v -0.00327400 0.04352448 0.01314423
v -0.00365386 0.04346916 0.01305751
v -0.00335400 0.04361886 0.01311995
v -0.00350419 0.04361886 0.01308488
v -0.00365386 0.04407121 0.01302129
v -0.00370702 0.04437060 0.01299007
v -0.00402442 0.05028043 0.01254376
v -0.00403526 0.05017954 0.01254723
v -0.00389695 0.04572114 0.01285132
v -0.00382934 0.04391825 0.01297812
v -0.00404455 0.05007215 0.01255032
v -0.00395423 0.04422090 0.01291761
v -0.00395423 0.04376855 0.01294343
v -0.00405849 0.04467000 0.01285556
v -0.00414571 0.04452030 0.01283321
v -0.00434596 0.04557144 0.01270178
v -0.00432170 0.04589687 0.01269253
v -0.00492813 0.04998754 0.01224430
v -0.00493535 0.04988665 0.01224738
v -0.00494361 0.04977275 0.01225047
v -0.00477381 0.04830832 0.01239307
v -0.00516657 0.05066443 0.01211789
v -0.00545197 0.04497265 0.01228862
v -0.00523108 0.05060911 0.01209592
v -0.00065373 0.03011673 0.01234296
v -0.00044832 0.02961557 0.01239654
v -0.00072908 0.03139567 0.01224507
v -0.00020317 0.02861649 0.01248981
v -0.00017995 0.02844401 0.01250445
v -0.00017995 0.02790055 0.01254261
v -0.00545197 0.05336876 0.01026445
v -0.00282809 0.04144172 0.01134476
v -0.00125345 0.02156441 0.01410390
v -0.00017995 0.02969041 0.01400061
v -0.00136699 0.04437060 0.01345063
v -0.00144234 0.04437060 0.01344023
v -0.00252720 0.02156441 0.01404570
v -0.00155382 0.04437060 0.01342327
v -0.00170401 0.04437060 0.01339667
v -0.00200387 0.04407121 0.01335659
v -0.00215405 0.04391825 0.01333617
v -0.00249004 0.04361886 0.01328837
v -0.00275429 0.04346916 0.01324714
v -0.00238475 0.04386618 0.01329647
v -0.00275429 0.04361886 0.01323981
v -0.00305363 0.04346916 0.01319125
v -0.00305363 0.04361886 0.01318316
v -0.00318523 0.04361886 0.01315695
v -0.00321568 0.04347241 0.01315888
v -0.00316304 0.04376855 0.01315232
v -0.00319814 0.04393452 0.01313460
v -0.00326059 0.04361886 0.01314115
v -0.00335400 0.04467000 0.01305366
v -0.00335400 0.04422090 0.01308218
v -0.00350419 0.04422090 0.01304711
v -0.00363218 0.04437060 0.01300780
v -0.00368689 0.04452030 0.01298544
v -0.00380405 0.04752077 0.01276923
v -0.00401152 0.05037155 0.01254107
v -0.00410390 0.05082064 0.01248364
v -0.00410390 0.05067094 0.01249327
v -0.00425409 0.05082064 0.01243315
v -0.00425409 0.05067094 0.01244240
v -0.00394391 0.04588385 0.01282588
v -0.00408120 0.04962306 0.01256342
v -0.00402339 0.04771278 0.01269330
v -0.00403629 0.04494011 0.01284785
v -0.00404610 0.04481970 0.01285132
v -0.00411526 0.04676252 0.01271566
v -0.00435370 0.04812282 0.01255378
v -0.00477278 0.05097359 0.01224276
v -0.00489664 0.05037155 0.01223351
v -0.00512063 0.05112329 0.01211095
v -0.00519547 0.05112329 0.01208243
v -0.00520631 0.05097359 0.01208628
v -0.00545197 0.05127299 0.01197182
v -0.00530437 0.05127299 0.01203194
v -0.00076108 0.03131757 0.01224777
v -0.00071360 0.03149330 0.01224237
v -0.00020317 0.02921854 0.01245281
v -0.00017995 0.02874341 0.01248518
v -0.00017995 0.02859371 0.01249443
v -0.00017995 0.02846679 0.01250291
v -0.00545197 0.05352172 0.01025366
v -0.00492761 0.05149103 0.01044444
v -0.00386959 0.04651844 0.01089306
v -0.00140364 0.02156441 0.01410853
v -0.00017995 0.02984337 0.01399945
v -0.00017995 0.02999307 0.01399830
v -0.00125345 0.04407121 0.01347530
v -0.00125345 0.04452030 0.01346027
v -0.00134686 0.04452030 0.01344793
v -0.00245288 0.02156441 0.01405572
v -0.00142170 0.04452030 0.01343676
v -0.00155382 0.04452030 0.01341517
v -0.00185368 0.04437060 0.01336815
v -0.00235430 0.04407121 0.01329069
v -0.00215405 0.04407121 0.01332884
v -0.00170401 0.04452030 0.01338742
v -0.00290396 0.04361886 0.01321168
v -0.00237082 0.04396381 0.01329377
v -0.00290396 0.04376855 0.01320320
v -0.00305363 0.04376855 0.01317429
v -0.00314395 0.04389222 0.01314847
v -0.00320381 0.04467000 0.01308603
v -0.00331787 0.04557144 0.01300394
v -0.00336742 0.04528181 0.01301165
v -0.00350419 0.04677228 0.01288601
v -0.00356819 0.04722138 0.01284284
v -0.00350419 0.04542174 0.01297157
v -0.00381488 0.04842222 0.01270987
v -0.00380405 0.04962306 0.01263626
v -0.00389488 0.05067094 0.01254877
v -0.00396972 0.05067094 0.01253143
v -0.00395423 0.05097359 0.01251524
v -0.00395423 0.05112329 0.01250484
v -0.00381695 0.04887131 0.01268097
v -0.00376276 0.04872161 0.01270294
v -0.00410390 0.05097359 0.01247246
v -0.00426648 0.05097685 0.01241773
v -0.00433615 0.05092803 0.01239731
v -0.00455446 0.05097359 0.01231868
v -0.00434647 0.05082064 0.01240116
v -0.00416842 0.04947336 0.01254145
v -0.00417616 0.04937898 0.01254415
v -0.00450750 0.04977275 0.01240502
v -0.00500451 0.05112329 0.01215219
v -0.00484400 0.05083691 0.01222541
v -0.00510773 0.05127299 0.01210555
v -0.00518257 0.05127299 0.01207819
v -0.00530437 0.05142269 0.01202307
v -0.00545197 0.05139665 0.01196526
v -0.00543701 0.05142269 0.01196989
v -0.00033942 0.03010697 0.01238151
v -0.00020317 0.02936824 0.01244471
v -0.00385411 0.04661933 0.01089036
v -0.00017995 0.02934546 0.01245011
v -0.00017995 0.02921854 0.01245705
v -0.00545197 0.05367141 0.01024326
v -0.00545197 0.05382111 0.01023362
v -0.00545197 0.05412376 0.01021512
v -0.00545197 0.05427021 0.01020626
v -0.00545197 0.05442316 0.01019739
v -0.00523211 0.05330368 0.01029490
v -0.00491522 0.05157239 0.01044213
v -0.00155382 0.02156441 0.01411238
v -0.00020317 0.03011673 0.01399791
v -0.00017995 0.03029246 0.01399560
v -0.00095359 0.04422090 0.01350883
v -0.00110378 0.04422090 0.01348956
v -0.00110378 0.04437060 0.01348455
v -0.00095359 0.04437060 0.01350382
v -0.00110378 0.04452030 0.01347915
v -0.00110378 0.04467000 0.01347221
v -0.00125861 0.04466349 0.01345294
v -0.00133344 0.04460817 0.01344601
v -0.00230424 0.02156441 0.01407268
v -0.00020317 0.04166953 0.01368689
v -0.00017995 0.04244405 0.01366492
v -0.00017995 0.04272067 0.01365606
v -0.00017995 0.04364489 0.01362638
v -0.00017995 0.04407121 0.01361250
v -0.00139125 0.04466349 0.01343290
v -0.00140364 0.04481970 0.01342057
v -0.00155382 0.04467000 0.01340515
v -0.00182633 0.04542174 0.01330456
v -0.00290396 0.04407121 0.01318393
v -0.00306859 0.04393452 0.01316080
v -0.00275429 0.04391825 0.01322285
v -0.00190168 0.04542174 0.01329030
v -0.00215405 0.04542174 0.01324135
v -0.00275429 0.04677228 0.01303670
v -0.00311556 0.04407121 0.01314269
v -0.00329568 0.04572114 0.01299893
v -0.00320381 0.04542174 0.01303709
v -0.00335400 0.04722138 0.01288948
v -0.00357335 0.04952868 0.01269407
v -0.00358831 0.04943105 0.01269716
v -0.00349283 0.04722138 0.01285980
v -0.00362496 0.04917071 0.01270564
v -0.00366160 0.04901125 0.01270756
v -0.00380405 0.05037155 0.01258847
v -0.00377721 0.05097359 0.01255610
v -0.00383088 0.05112329 0.01253413
v -0.00394133 0.05081413 0.01252873
v -0.00410390 0.05112329 0.01246129
v -0.00373953 0.05122418 0.01254762
v -0.00395423 0.05127299 0.01249173
v -0.00423861 0.05112329 0.01241542
v -0.00455446 0.05112329 0.01230751
v -0.00475781 0.05112329 0.01223775
v -0.00500451 0.05127299 0.01214140
v -0.00509122 0.05142269 0.01209939
v -0.00516605 0.05142269 0.01207318
v -0.00530437 0.05157239 0.01200997
v -0.00542152 0.05157239 0.01196334
v -0.00545197 0.05142269 0.01196372
v -0.00020317 0.03146727 0.01233680
v -0.00021143 0.03010697 0.01240502
v -0.00530437 0.05382437 0.01025482
v -0.00500451 0.05481042 0.01025867
v -0.00017995 0.02994425 0.01241928
v -0.00545197 0.05456960 0.01018968
v -0.00170401 0.02156441 0.01411431
v -0.00020317 0.03026968 0.01399637
v -0.00017995 0.03041938 0.01399406
v -0.00050355 0.04422090 0.01356625
v -0.00026820 0.04426321 0.01359439
v -0.00080340 0.04452030 0.01351692
v -0.00095359 0.04481970 0.01348301
v -0.00111462 0.04497590 0.01345449
v -0.00117190 0.04502797 0.01344447
v -0.00124622 0.04497590 0.01343599
v -0.00215405 0.02156441 0.01408694
v -0.00017995 0.04046543 0.01372543
v -0.00020317 0.04046869 0.01372312
v -0.00041787 0.03901076 0.01374470
v -0.00017995 0.04169231 0.01368881
v -0.00017995 0.04214140 0.01367455
v -0.00017995 0.04421765 0.01360672
v -0.00155382 0.04481970 0.01339475
v -0.00125345 0.04511909 0.01342481
v -0.00140364 0.04542174 0.01337817
v -0.00170401 0.04542174 0.01332653
v -0.00179949 0.04557144 0.01329917
v -0.00312691 0.05089224 0.01269484
v -0.00230424 0.04722138 0.01309451
v -0.00304072 0.04407121 0.01315734
v -0.00313362 0.04626135 0.01299623
v -0.00283789 0.04942454 0.01284708
v -0.00259068 0.04811306 0.01298082
v -0.00275429 0.04812282 0.01294844
v -0.00305363 0.04947336 0.01280199
v -0.00355890 0.04962306 0.01269099
v -0.00320381 0.04692198 0.01293919
v -0.00335400 0.04827252 0.01282087
v -0.00348406 0.04962306 0.01270641
v -0.00365386 0.05112329 0.01257305
v -0.00375553 0.05112329 0.01255109
v -0.00410390 0.05127299 0.01244780
v -0.00422003 0.05127299 0.01240887
v -0.00440428 0.05127299 0.01234643
v -0.00350419 0.05127299 0.01259310
v -0.00366263 0.05127299 0.01255956
v -0.00362031 0.05142269 0.01255417
v -0.00371837 0.05132181 0.01254261
v -0.00380405 0.05142269 0.01251332
v -0.00379527 0.05127299 0.01252989
v -0.00395423 0.05142269 0.01247593
v -0.00466543 0.05127299 0.01225740
v -0.00506799 0.05160493 0.01209168
v -0.00514025 0.05155937 0.01207009
v -0.00515470 0.05172208 0.01204620
v -0.00530437 0.05172208 0.01198916
v -0.00539675 0.05172208 0.01195216
v -0.00545197 0.05172208 0.01192981
v -0.00545197 0.05157239 0.01195023
v -0.00017995 0.03386895 0.01221809
v -0.00017995 0.03101817 0.01236416
v -0.00020317 0.05217118 0.01127615
v -0.00017995 0.05469978 0.01115089
v -0.00545197 0.05480717 0.01017735
v -0.00530437 0.05397407 0.01024711
v -0.00530437 0.05481042 0.01020433
v -0.00028833 0.05481042 0.01112546
v -0.00072908 0.05480066 0.01104491
v -0.00185368 0.02156441 0.01411084
v -0.00020317 0.03041938 0.01399444
v -0.00017995 0.03086847 0.01398789
v -0.00017995 0.03101817 0.01398558
v -0.00020317 0.03101817 0.01398519
v -0.00017995 0.03059186 0.01399175
v -0.00024446 0.04437060 0.01359169
v -0.00050355 0.04452030 0.01355315
v -0.00065373 0.04452030 0.01353504
v -0.00080340 0.04467000 0.01350921
v -0.00065373 0.04467000 0.01352733
v -0.00095359 0.04496939 0.01347491
v -0.00095359 0.04511909 0.01346489
v -0.00106971 0.04511909 0.01345063
v -0.00114507 0.04511909 0.01344100
v -0.00110378 0.04542174 0.01342327
v -0.00117242 0.04698707 0.01329454
v -0.00120029 0.04688618 0.01329839
v -0.00125345 0.04572114 0.01338010
v -0.00147899 0.04639478 0.01329531
v -0.00200387 0.02156441 0.01410043
v -0.00017995 0.04031899 0.01372967
v -0.00017995 0.04079086 0.01371579
v -0.00017995 0.04124321 0.01370230
v -0.00017995 0.04437060 0.01359901
v -0.00152750 0.04617023 0.01330379
v -0.00170401 0.04677228 0.01323095
v -0.00215405 0.04812282 0.01305828
v -0.00197342 0.04722138 0.01315310
v -0.00230424 0.04812282 0.01303246
v -0.00311040 0.05097359 0.01269215
v -0.00280177 0.04962306 0.01284053
v -0.00320381 0.05112329 0.01266401
v -0.00335400 0.05112329 0.01263433
v -0.00335400 0.05097359 0.01264436
v -0.00316356 0.05067094 0.01270217
v -0.00290396 0.04962306 0.01282126
v -0.00312175 0.04862724 0.01284400
v -0.00321775 0.05038456 0.01271026
v -0.00350419 0.05112329 0.01260427
v -0.00327659 0.05043989 0.01269484
v -0.00410390 0.05142269 0.01243122
v -0.00427164 0.05142269 0.01237611
v -0.00463446 0.05151056 0.01224661
v -0.00335400 0.05127299 0.01262354
v -0.00335400 0.05142269 0.01261082
v -0.00350419 0.05142269 0.01257922
v -0.00369515 0.05142269 0.01253760
v -0.00335400 0.05157239 0.01259695
v -0.00351348 0.05157564 0.01256149
v -0.00359451 0.05153008 0.01254839
v -0.00364818 0.05157564 0.01253143
v -0.00380405 0.05157239 0.01249597
v -0.00395423 0.05157239 0.01245705
v -0.00504683 0.05172208 0.01208436
v -0.00499986 0.05188155 0.01207703
v -0.00515470 0.05187178 0.01202307
v -0.00515470 0.05202148 0.01199802
v -0.00530746 0.05185877 0.01196488
v -0.00538075 0.05180019 0.01194561
v -0.00545197 0.05173836 0.01192711
v -0.00017995 0.05481042 0.01114550
v -0.00545197 0.05481042 0.01036119
v -0.00539004 0.05481042 0.01018891
v -0.00020317 0.03116787 0.01398211
v -0.00020317 0.03146727 0.01397517
v -0.00017995 0.03179270 0.01396862
v -0.00017995 0.03104095 0.01398519
v -0.00017995 0.03119391 0.01398250
v -0.00065373 0.04481970 0.01351885
v -0.00080340 0.04496939 0.01349264
v -0.00080340 0.04511909 0.01348224
v -0.00087824 0.04549659 0.01344524
v -0.00095359 0.04602054 0.01339590
v -0.00107126 0.04707168 0.01330071
v -0.00110378 0.04947336 0.01311224
v -0.00117242 0.04893640 0.01314462
v -0.00125345 0.04947336 0.01309220
v -0.00125345 0.04737107 0.01325369
v -0.00130609 0.04677228 0.01329223
v -0.00140364 0.04677228 0.01327797
v -0.00140364 0.04631993 0.01331227
v -0.00178401 0.04775834 0.01314616
v -0.00183613 0.04752077 0.01315502
v -0.00020317 0.03176992 0.01396747
v -0.00017995 0.03221901 0.01395706
v -0.00017995 0.03254119 0.01394820
v -0.00017995 0.03269414 0.01394396
v -0.00017995 0.03312046 0.01393201
v -0.00017995 0.03406746 0.01390541
v -0.00017995 0.03704515 0.01382178
v -0.00017995 0.03762117 0.01380559
v -0.00017995 0.04001959 0.01373815
v -0.00017995 0.04450403 0.01359092
v -0.00230424 0.04947336 0.01293611
v -0.00260410 0.04977275 0.01286404
v -0.00268048 0.04985086 0.01284554
v -0.00269700 0.04977275 0.01284824
v -0.00307943 0.05112329 0.01268675
v -0.00320381 0.05127299 0.01265283
v -0.00410752 0.05156262 0.01241157
v -0.00418184 0.05150405 0.01239577
v -0.00461537 0.05161144 0.01224045
v -0.00320381 0.05142269 0.01264050
v -0.00320381 0.05157239 0.01262740
v -0.00320381 0.05172208 0.01261275
v -0.00335400 0.05172208 0.01258038
v -0.00357025 0.05162771 0.01254299
v -0.00365386 0.05172208 0.01251216
v -0.00380405 0.05172208 0.01247516
v -0.00395423 0.05172208 0.01243354
v -0.00405487 0.05172208 0.01240309
v -0.00497148 0.05172208 0.01210902
v -0.00494671 0.05183599 0.01210093
v -0.00486619 0.05188155 0.01212058
v -0.00492400 0.05193687 0.01209360
v -0.00490387 0.05202148 0.01208705
v -0.00500451 0.05202148 0.01205352
v -0.00500451 0.05217118 0.01202847
v -0.00515986 0.05216792 0.01196950
v -0.00523727 0.05211586 0.01194831
v -0.00525792 0.05202148 0.01195679
v -0.00535907 0.05190107 0.01193713
v -0.00545197 0.05180995 0.01191516
v -0.00017995 0.05481042 0.01229286
v -0.00545197 0.05481042 0.01116207
v -0.00017995 0.03209209 0.01396053
v -0.00050355 0.04481970 0.01353542
v -0.00065373 0.04496939 0.01350921
v -0.00065373 0.04511909 0.01349804
v -0.00085089 0.04557144 0.01344254
v -0.00095359 0.04677228 0.01333809
v -0.00100778 0.04921952 0.01314307
v -0.00104236 0.04911864 0.01314693
v -0.00110378 0.04962306 0.01310068
v -0.00117242 0.05088898 0.01299431
v -0.00126842 0.05053752 0.01300818
v -0.00140364 0.05097359 0.01295577
v -0.00140364 0.04947336 0.01307100
v -0.00145473 0.04845150 0.01314192
v -0.00170401 0.05097359 0.01291221
v -0.00157653 0.04827252 0.01313768
v -0.00170401 0.04827252 0.01311879
v -0.00170659 0.04781366 0.01315348
v -0.00245391 0.05097359 0.01280122
v -0.00260410 0.05157239 0.01273300
v -0.00260410 0.05097359 0.01277771
v -0.00017995 0.04467325 0.01357936
v -0.00275429 0.05142269 0.01272028
v -0.00275429 0.05112329 0.01274186
v -0.00286525 0.05142269 0.01270140
v -0.00304279 0.05126648 0.01268251
v -0.00305363 0.05142269 0.01266825
v -0.00413023 0.05172208 0.01237996
v -0.00416016 0.05160493 0.01238883
v -0.00424067 0.05156262 0.01236879
v -0.00485432 0.05172208 0.01214718
v -0.00305363 0.05157239 0.01265592
v -0.00305363 0.05172208 0.01264281
v -0.00305363 0.05187178 0.01262778
v -0.00347013 0.05172208 0.01255417
v -0.00320381 0.05187178 0.01259541
v -0.00335968 0.05187178 0.01256034
v -0.00354496 0.05172208 0.01253721
v -0.00349696 0.05187178 0.01252873
v -0.00350419 0.05202148 0.01250638
v -0.00365386 0.05187178 0.01249135
v -0.00380405 0.05187178 0.01245165
v -0.00350419 0.05232413 0.01246206
v -0.00365386 0.05217118 0.01244471
v -0.00381643 0.05203450 0.01242082
v -0.00395372 0.05186202 0.01240964
v -0.00403268 0.05180344 0.01239615
v -0.00409152 0.05186202 0.01236840
v -0.00425409 0.05187178 0.01231714
v -0.00454724 0.05187504 0.01222426
v -0.00449202 0.05182622 0.01224931
v -0.00482903 0.05202148 0.01211134
v -0.00485226 0.05218420 0.01207858
v -0.00485432 0.05232413 0.01205237
v -0.00500451 0.05232413 0.01199957
v -0.00529456 0.05216792 0.01191516
v -0.00511083 0.05232413 0.01195794
v -0.00521405 0.05221348 0.01193867
v -0.00545197 0.05217118 0.01185041
v -0.00545197 0.05202148 0.01187816
v -0.00545197 0.05198894 0.01188394
v -0.00545197 0.05185877 0.01190668
v -0.00020317 0.05481042 0.01229286
v -0.00017995 0.05452404 0.01240502
v -0.00540398 0.05481042 0.01118173
v -0.00545197 0.05473232 0.01118443
v -0.00050355 0.04496939 0.01352463
v -0.00017995 0.04499543 0.01355508
v -0.00065373 0.04526879 0.01348647
v -0.00080340 0.04587084 0.01342442
v -0.00080340 0.04602054 0.01341286
v -0.00080340 0.04677228 0.01335466
v -0.00095359 0.04962306 0.01311764
v -0.00103926 0.05106146 0.01299662
v -0.00106920 0.05097359 0.01300009
v -0.00114455 0.05097359 0.01299122
v -0.00125345 0.05097359 0.01297658
v -0.00125345 0.05142269 0.01294189
v -0.00155382 0.05097359 0.01293418
v -0.00155382 0.04992245 0.01301473
v -0.00185368 0.05127299 0.01286674
v -0.00196413 0.05127299 0.01285055
v -0.00230424 0.05142269 0.01278888
v -0.00230424 0.05127299 0.01280045
v -0.00260410 0.05172208 0.01272105
v -0.00269597 0.05183273 0.01269793
v -0.00272280 0.05172208 0.01270255
v -0.00276409 0.05157564 0.01270718
v -0.00017995 0.04481970 0.01356857
v -0.00284202 0.05152683 0.01269754
v -0.00281983 0.05162771 0.01269369
v -0.00446879 0.05192711 0.01224160
v -0.00290396 0.05172208 0.01267056
v -0.00290396 0.05187178 0.01265746
v -0.00290396 0.05202148 0.01264243
v -0.00290396 0.05217118 0.01262393
v -0.00328433 0.05210609 0.01254646
v -0.00334213 0.05216467 0.01252488
v -0.00335400 0.05232413 0.01249983
v -0.00350419 0.05217118 0.01248480
v -0.00335400 0.05247383 0.01247709
v -0.00350419 0.05247383 0.01243623
v -0.00366108 0.05232413 0.01241658
v -0.00395372 0.05203450 0.01237996
v -0.00374573 0.05227532 0.01240001
v -0.00431241 0.05221999 0.01224006
v -0.00439654 0.05217118 0.01222310
v -0.00455446 0.05217118 0.01217493
v -0.00471704 0.05218420 0.01212213
v -0.00477536 0.05223952 0.01209399
v -0.00475007 0.05232413 0.01208590
v -0.00469846 0.05247383 0.01207318
v -0.00485432 0.05247383 0.01202231
v -0.00500657 0.05246732 0.01196796
v -0.00508709 0.05241200 0.01194831
v -0.00518618 0.05232413 0.01192749
v -0.00530437 0.05232413 0.01187893
v -0.00545197 0.05233064 0.01181688
v -0.00035336 0.05481042 0.01229209
v -0.00035336 0.05459889 0.01237495
v -0.00020317 0.05452404 0.01240502
v -0.00017995 0.05443943 0.01243778
v -0.00536527 0.05481042 0.01119753
v -0.00545197 0.05458588 0.01122566
v -0.00541430 0.05469978 0.01120909
v -0.00017995 0.04557144 0.01350998
v -0.00020317 0.04572114 0.01349611
v -0.00035336 0.04677228 0.01339937
v -0.00050355 0.04557144 0.01347800
v -0.00065373 0.04557144 0.01346296
v -0.00065373 0.04842222 0.01324097
v -0.00095359 0.05007215 0.01308257
v -0.00066767 0.04948637 0.01315464
v -0.00099023 0.05116234 0.01299238
v -0.00110378 0.05142269 0.01296039
v -0.00109500 0.05111678 0.01298583
v -0.00017995 0.04639153 0.01344524
v -0.00020317 0.04692198 0.01340053
v -0.00110378 0.05127299 0.01297234
v -0.00125345 0.05157239 0.01292879
v -0.00140364 0.05157239 0.01290798
v -0.00155382 0.05142269 0.01289834
v -0.00193935 0.05136737 0.01284670
v -0.00230424 0.05157239 0.01277694
v -0.00245391 0.05172208 0.01274302
v -0.00261339 0.05187829 0.01270679
v -0.00279764 0.05172208 0.01268983
v -0.00266964 0.05193036 0.01269369
v -0.00275429 0.05202148 0.01267133
v -0.00274912 0.05187829 0.01268482
v -0.00275429 0.05217118 0.01265553
v -0.00320381 0.05216467 0.01255687
v -0.00275429 0.05232413 0.01263588
v -0.00290396 0.05232413 0.01260312
v -0.00325439 0.05220698 0.01253952
v -0.00320381 0.05247383 0.01251370
v -0.00320381 0.05262353 0.01249135
v -0.00320381 0.05277323 0.01246591
v -0.00335400 0.05262353 0.01245126
v -0.00361102 0.05247383 0.01240463
v -0.00371631 0.05237620 0.01239114
v -0.00320381 0.05292292 0.01243778
v -0.00350212 0.05261377 0.01241003
v -0.00420609 0.05232413 0.01225316
v -0.00440428 0.05232413 0.01219343
v -0.00455446 0.05232413 0.01214718
v -0.00467523 0.05232413 0.01210979
v -0.00455963 0.05247383 0.01211673
v -0.00458182 0.05262353 0.01208012
v -0.00470414 0.05262353 0.01204042
v -0.00470414 0.05277323 0.01200573
v -0.00486722 0.05263329 0.01198029
v -0.00514437 0.05246732 0.01191208
v -0.00495806 0.05259099 0.01195679
v -0.00537972 0.05254868 0.01179530
v -0.00545197 0.05248359 0.01178065
v -0.00050355 0.05481042 0.01228939
v -0.00050355 0.05452079 0.01240347
v -0.00035336 0.05442316 0.01244279
v -0.00020317 0.05442316 0.01244394
v -0.00017995 0.05442316 0.01244394
v -0.00529714 0.05481042 0.01122451
v -0.00522644 0.05449476 0.01134360
v -0.00493793 0.05436133 0.01149853
v -0.00509070 0.05466398 0.01134938
v -0.00545197 0.05457611 0.01122836
v -0.00017995 0.04587084 0.01348647
v -0.00020317 0.04602054 0.01347260
v -0.00017995 0.04821069 0.01329647
v -0.00051490 0.04978252 0.01314192
v -0.00089063 0.05120790 0.01299623
v -0.00095359 0.05142269 0.01297349
v -0.00095359 0.05157239 0.01296001
v -0.00110378 0.05157239 0.01294652
v -0.00017995 0.04677228 0.01341440
v -0.00125345 0.05172208 0.01291221
v -0.00140364 0.05172208 0.01289372
v -0.00165498 0.05183273 0.01284901
v -0.00155382 0.05172208 0.01287329
v -0.00178349 0.05165700 0.01284592
v -0.00215405 0.05202148 0.01276152
v -0.00230424 0.05202148 0.01273994
v -0.00215405 0.05157239 0.01279890
v -0.00215405 0.05187178 0.01277424
v -0.00245391 0.05202148 0.01271797
v -0.00256849 0.05202148 0.01270101
v -0.00264332 0.05202148 0.01268983
v -0.00259636 0.05216792 0.01268328
v -0.00260410 0.05232413 0.01266401
v -0.00306601 0.05233389 0.01256496
v -0.00260410 0.05247383 0.01264320
v -0.00275429 0.05247383 0.01261429
v -0.00290396 0.05247383 0.01258153
v -0.00302266 0.05247383 0.01255494
v -0.00309750 0.05247383 0.01253798
v -0.00320381 0.05233389 0.01253336
v -0.00304692 0.05262027 0.01252835
v -0.00305363 0.05277323 0.01250368
v -0.00305363 0.05292292 0.01247824
v -0.00368586 0.05247383 0.01238228
v -0.00350212 0.05277974 0.01237727
v -0.00336226 0.05277974 0.01241889
v -0.00324872 0.05310842 0.01238690
v -0.00328484 0.05300754 0.01239692
v -0.00380405 0.05262353 0.01231791
v -0.00395423 0.05247383 0.01230134
v -0.00415087 0.05250312 0.01223659
v -0.00425409 0.05262353 0.01218186
v -0.00440428 0.05262353 0.01213561
v -0.00448169 0.05270163 0.01209592
v -0.00444918 0.05280252 0.01208590
v -0.00418390 0.05315398 0.01209707
v -0.00428609 0.05307262 0.01208089
v -0.00424222 0.05321256 0.01206354
v -0.00455446 0.05292292 0.01202269
v -0.00440428 0.05322232 0.01200303
v -0.00470620 0.05291967 0.01196835
v -0.00482284 0.05277323 0.01196179
v -0.00492554 0.05269187 0.01194368
v -0.00515470 0.05262353 0.01186814
v -0.00528063 0.05262353 0.01181650
v -0.00545197 0.05277648 0.01170627
v -0.00545197 0.05262678 0.01174520
v -0.00065373 0.05481042 0.01228554
v -0.00065373 0.05451428 0.01240078
v -0.00065373 0.05442316 0.01243585
v -0.00050355 0.05442316 0.01244086
v -0.00035336 0.05427346 0.01249983
v -0.00020317 0.05427346 0.01250060
v -0.00017995 0.05427346 0.01250060
v -0.00515108 0.05481042 0.01128193
v -0.00545197 0.05442641 0.01126883
v -0.00485432 0.05427346 0.01155442
v -0.00464323 0.05421814 0.01165039
v -0.00485174 0.05441665 0.01151549
v -0.00515315 0.05396430 0.01151549
v -0.00505147 0.05367467 0.01163381
v -0.00497664 0.05367467 0.01166426
v -0.00491161 0.05387318 0.01163805
v -0.00485432 0.05412376 0.01159412
v -0.00480013 0.05452404 0.01150277
v -0.00017995 0.04947336 0.01319202
v -0.00020317 0.04977275 0.01316581
v -0.00020317 0.04917071 0.01321553
v -0.00036213 0.04978252 0.01315348
v -0.00073579 0.05135435 0.01299585
v -0.00050355 0.05097359 0.01304480
v -0.00050355 0.05112329 0.01303246
v -0.00080340 0.05157239 0.01297118
v -0.00065373 0.05172208 0.01296656
v -0.00080340 0.05172208 0.01295538
v -0.00095359 0.05172208 0.01294228
v -0.00110378 0.05172208 0.01292840
v -0.00161524 0.05193361 0.01284361
v -0.00125345 0.05187178 0.01289256
v -0.00140570 0.05202799 0.01285556
v -0.00156053 0.05202799 0.01283822
v -0.00215405 0.05217118 0.01274726
v -0.00200387 0.05202148 0.01278272
v -0.00230424 0.05217118 0.01272606
v -0.00254113 0.05211586 0.01269677
v -0.00250759 0.05221674 0.01269176
v -0.00245598 0.05233064 0.01268675
v -0.00245391 0.05247383 0.01266864
v -0.00230424 0.05262353 0.01267249
v -0.00245391 0.05262353 0.01264705
v -0.00260410 0.05262353 0.01262046
v -0.00275429 0.05262353 0.01259194
v -0.00290705 0.05262027 0.01255956
v -0.00295918 0.05266909 0.01254068
v -0.00290705 0.05278299 0.01253451
v -0.00290396 0.05292292 0.01251139
v -0.00290396 0.05307262 0.01248017
v -0.00305363 0.05307262 0.01244664
v -0.00391398 0.05277323 0.01225548
v -0.00358625 0.05331019 0.01224700
v -0.00314859 0.05316700 0.01240039
v -0.00344948 0.05346965 0.01225047
v -0.00350161 0.05336551 0.01225972
v -0.00354961 0.05340782 0.01223698
v -0.00401875 0.05268211 0.01224199
v -0.00410390 0.05277323 0.01219805
v -0.00425409 0.05277323 0.01215219
v -0.00440118 0.05276021 0.01210941
v -0.00421125 0.05307262 0.01210517
v -0.00410390 0.05307262 0.01213831
v -0.00410132 0.05321256 0.01211056
v -0.00404971 0.05332646 0.01210209
v -0.00401462 0.05342734 0.01209052
v -0.00414984 0.05325486 0.01208513
v -0.00410132 0.05337527 0.01207318
v -0.00410390 0.05367467 0.01199957
v -0.00484658 0.05291967 0.01191439
v -0.00421435 0.05367467 0.01195871
v -0.00440428 0.05367467 0.01188587
v -0.00478465 0.05345663 0.01179723
v -0.00495135 0.05318327 0.01180416
v -0.00500245 0.05306286 0.01181496
v -0.00516141 0.05277648 0.01182536
v -0.00530075 0.05277648 0.01176832
v -0.00545197 0.05291642 0.01166966
v -0.00080340 0.05481042 0.01227783
v -0.00076521 0.05450452 0.01239769
v -0.00080340 0.05427346 0.01248364
v -0.00065373 0.05427346 0.01249250
v -0.00050355 0.05427346 0.01249751
v -0.00035336 0.05417258 0.01253644
v -0.00017995 0.05418885 0.01253104
v -0.00475936 0.05462493 0.01148774
v -0.00495858 0.05481042 0.01135516
v -0.00545197 0.05427021 0.01131045
v -0.00475110 0.05412376 0.01163420
v -0.00455498 0.05427021 0.01166850
v -0.00467575 0.05412376 0.01166310
v -0.00440015 0.05396105 0.01181187
v -0.00410236 0.05381461 0.01196449
v -0.00425409 0.05397407 0.01186390
v -0.00440015 0.05412376 0.01176794
v -0.00470414 0.05442316 0.01156868
v -0.00526101 0.05382437 0.01150817
v -0.00545197 0.05300428 0.01164653
v -0.00510928 0.05349568 0.01165732
v -0.00485897 0.05398708 0.01162842
v -0.00017995 0.04977275 0.01316697
v -0.00025994 0.04998428 0.01314423
v -0.00017995 0.04998103 0.01314924
v -0.00035336 0.05112329 0.01304287
v -0.00035336 0.05097359 0.01305559
v -0.00035336 0.05082064 0.01306831
v -0.00050355 0.05127299 0.01301974
v -0.00065373 0.05138689 0.01299893
v -0.00057425 0.05149428 0.01299508
v -0.00065373 0.05157239 0.01298197
v -0.00050355 0.05172208 0.01297696
v -0.00050355 0.05187178 0.01296001
v -0.00065373 0.05187178 0.01294883
v -0.00080340 0.05187178 0.01293611
v -0.00125345 0.05202148 0.01287252
v -0.00095359 0.05187178 0.01292224
v -0.00110378 0.05236644 0.01284091
v -0.00119410 0.05225905 0.01284670
v -0.00125345 0.05247383 0.01281162
v -0.00200387 0.05217118 0.01276692
v -0.00200387 0.05247383 0.01273030
v -0.00222734 0.05254543 0.01269484
v -0.00215405 0.05232413 0.01273030
v -0.00140364 0.05277323 0.01275535
v -0.00155382 0.05277323 0.01273917
v -0.00170401 0.05232413 0.01278349
v -0.00231198 0.05233064 0.01270795
v -0.00240746 0.05228508 0.01269947
v -0.00231198 0.05248685 0.01268945
v -0.00216799 0.05263329 0.01269022
v -0.00215405 0.05277323 0.01267056
v -0.00230424 0.05277323 0.01264705
v -0.00260410 0.05277323 0.01259464
v -0.00276358 0.05278299 0.01256380
v -0.00281983 0.05283831 0.01254338
v -0.00285957 0.05273743 0.01255186
v -0.00276358 0.05293269 0.01253606
v -0.00275429 0.05307262 0.01250985
v -0.00275429 0.05322232 0.01247593
v -0.00290396 0.05322232 0.01244317
v -0.00304847 0.05321907 0.01241080
v -0.00385256 0.05295872 0.01223698
v -0.00364302 0.05336551 0.01221886
v -0.00309492 0.05326788 0.01238729
v -0.00334936 0.05352172 0.01226126
v -0.00339684 0.05357053 0.01223736
v -0.00350419 0.05367467 0.01218456
v -0.00350161 0.05352172 0.01222426
v -0.00365386 0.05352172 0.01218263
v -0.00426183 0.05292618 0.01211904
v -0.00380405 0.05337202 0.01216876
v -0.00380405 0.05352172 0.01213754
v -0.00396043 0.05337527 0.01211981
v -0.00387991 0.05359982 0.01209553
v -0.00398159 0.05352172 0.01207934
v -0.00393927 0.05365840 0.01206085
v -0.00395423 0.05382437 0.01201498
v -0.00450853 0.05382437 0.01180648
v -0.00095359 0.05481042 0.01226665
v -0.00081063 0.05456310 0.01237226
v -0.00095359 0.05427346 0.01246976
v -0.00080340 0.05414654 0.01252835
v -0.00110378 0.05481042 0.01225471
v -0.00119771 0.05481042 0.01224623
v -0.00065373 0.05415956 0.01253259
v -0.00050355 0.05416607 0.01253490
v -0.00035336 0.05409773 0.01256111
v -0.00020317 0.05417258 0.01253683
v -0.00017995 0.05417258 0.01253683
v -0.00465923 0.05468351 0.01150624
v -0.00485587 0.05481042 0.01139332
v -0.00450543 0.05438085 0.01165462
v -0.00545197 0.05382437 0.01142916
v -0.00430880 0.05417258 0.01178798
v -0.00405126 0.05392525 0.01195370
v -0.00425719 0.05412376 0.01182112
v -0.00017995 0.05003961 0.01314423
v -0.00020317 0.05097359 0.01306252
v -0.00035336 0.05127299 0.01302938
v -0.00051593 0.05143570 0.01300433
v -0.00047464 0.05153008 0.01299816
v -0.00039568 0.05163096 0.01299354
v -0.00034871 0.05171232 0.01298737
v -0.00035336 0.05187178 0.01296848
v -0.00035336 0.05202148 0.01294921
v -0.00050355 0.05202148 0.01294035
v -0.00065373 0.05202148 0.01292879
v -0.00080340 0.05202148 0.01291568
v -0.00092262 0.05242827 0.01284939
v -0.00110378 0.05247383 0.01282627
v -0.00125345 0.05292292 0.01275034
v -0.00207044 0.05269187 0.01269407
v -0.00212722 0.05259099 0.01270101
v -0.00140364 0.05292292 0.01273493
v -0.00155382 0.05292292 0.01271874
v -0.00180723 0.05287086 0.01269831
v -0.00185368 0.05262353 0.01272683
v -0.00201367 0.05277648 0.01268791
v -0.00169730 0.05306611 0.01268213
v -0.00185368 0.05307262 0.01266054
v -0.00215405 0.05292292 0.01264320
v -0.00230424 0.05292292 0.01261815
v -0.00245804 0.05307913 0.01256149
v -0.00256694 0.05303357 0.01255147
v -0.00266655 0.05298801 0.01254299
v -0.00261184 0.05307913 0.01253490
v -0.00260410 0.05322232 0.01250561
v -0.00260410 0.05337202 0.01247015
v -0.00275429 0.05337202 0.01243778
v -0.00275429 0.05349243 0.01240656
v -0.00299531 0.05331344 0.01239885
v -0.00314085 0.05375928 0.01224777
v -0.00365386 0.05367467 0.01214641
v -0.00320381 0.05397407 0.01217608
v -0.00350419 0.05382437 0.01214409
v -0.00379630 0.05365840 0.01210787
v -0.00384121 0.05370070 0.01208358
v -0.00374108 0.05375928 0.01209900
v -0.00379630 0.05381461 0.01206663
v -0.00395681 0.05397407 0.01197066
v -0.00400842 0.05402614 0.01193906
v -0.00110378 0.05427346 0.01245319
v -0.00110378 0.05412376 0.01250599
v -0.00095720 0.05411400 0.01252488
v -0.00120597 0.05481042 0.01224546
v -0.00125293 0.05473558 0.01226858
v -0.00140364 0.05481042 0.01222580
v -0.00155382 0.05481042 0.01220961
v -0.00090972 0.05405868 0.01254800
v -0.00080340 0.05407170 0.01255224
v -0.00065373 0.05408471 0.01255648
v -0.00050355 0.05409122 0.01255918
v -0.00050355 0.05397407 0.01259464
v -0.00035336 0.05397407 0.01259811
v -0.00017995 0.05399359 0.01259271
v -0.00017995 0.05411075 0.01255725
v -0.00456066 0.05472907 0.01152667
v -0.00456479 0.05481042 0.01149892
v -0.00460040 0.05481042 0.01148620
v -0.00470568 0.05481042 0.01144843
v -0.00455446 0.05457286 0.01157793
v -0.00436299 0.05453706 0.01165694
v -0.00425719 0.05427997 0.01177410
v -0.00446311 0.05447848 0.01163959
v -0.00017995 0.05069698 0.01308719
v -0.00017995 0.05084668 0.01307409
v -0.00017995 0.05097359 0.01306291
v -0.00020317 0.05112329 0.01304903
v -0.00029555 0.05165700 0.01299623
v -0.00035336 0.05142269 0.01301550
v -0.00017995 0.05189782 0.01297272
v -0.00017995 0.05204752 0.01295345
v -0.00035336 0.05217118 0.01292763
v -0.00050355 0.05232413 0.01289680
v -0.00065373 0.05232413 0.01288601
v -0.00080340 0.05232413 0.01287406
v -0.00110378 0.05292292 0.01276422
v -0.00110378 0.05262353 0.01280584
v -0.00125345 0.05307262 0.01272953
v -0.00141860 0.05308889 0.01271065
v -0.00190736 0.05283180 0.01269253
v -0.00147847 0.05314747 0.01269523
v -0.00155382 0.05322232 0.01267288
v -0.00170401 0.05322232 0.01265360
v -0.00200387 0.05307262 0.01263780
v -0.00215405 0.05307262 0.01261391
v -0.00230424 0.05307262 0.01258886
v -0.00241107 0.05317351 0.01255070
v -0.00251120 0.05313120 0.01254184
v -0.00245804 0.05322232 0.01253143
v -0.00245391 0.05337202 0.01249828
v -0.00245391 0.05352172 0.01245974
v -0.00261907 0.05353799 0.01242352
v -0.00267893 0.05359657 0.01239500
v -0.00275429 0.05356728 0.01238652
v -0.00298240 0.05390247 0.01224584
v -0.00308253 0.05386017 0.01223466
v -0.00364457 0.05381461 0.01210941
v -0.00335400 0.05397407 0.01213985
v -0.00305363 0.05412376 0.01216760
v -0.00321672 0.05413678 0.01212675
v -0.00349180 0.05396430 0.01210709
v -0.00368844 0.05386017 0.01208436
v -0.00380405 0.05397407 0.01201768
v -0.00390830 0.05407495 0.01195409
v -0.00395681 0.05412376 0.01192287
v -0.00416222 0.05433204 0.01178990
v -0.00134480 0.05435482 0.01239692
v -0.00139847 0.05428323 0.01241619
v -0.00125345 0.05412376 0.01248904
v -0.00110378 0.05402614 0.01253837
v -0.00100985 0.05404241 0.01254299
v -0.00170711 0.05481042 0.01219227
v -0.00080340 0.05397407 0.01258153
v -0.00095359 0.05382437 0.01261275
v -0.00080340 0.05382437 0.01262547
v -0.00065373 0.05397407 0.01258963
v -0.00065373 0.05382437 0.01263279
v -0.00050355 0.05382437 0.01263742
v -0.00020317 0.05397407 0.01259849
v -0.00035336 0.05382437 0.01264050
v -0.00020317 0.05382437 0.01264127
v -0.00017995 0.05397407 0.01259849
v -0.00452608 0.05481042 0.01151241
v -0.00431551 0.05463469 0.01164114
v -0.00440428 0.05472256 0.01158255
v -0.00017995 0.05112329 0.01304942
v -0.00020317 0.05127299 0.01303516
v -0.00020317 0.05157239 0.01300664
v -0.00020317 0.05166676 0.01299739
v -0.00017995 0.05176439 0.01298775
v -0.00017995 0.05219721 0.01293149
v -0.00035336 0.05232413 0.01290489
v -0.00050355 0.05247383 0.01287444
v -0.00065373 0.05277323 0.01282087
v -0.00065373 0.05247383 0.01286442
v -0.00074044 0.05255519 0.01284592
v -0.00095359 0.05277323 0.01279775
v -0.00079566 0.05247383 0.01285325
v -0.00110378 0.05307262 0.01274263
v -0.00110378 0.05322232 0.01272028
v -0.00110378 0.05334273 0.01270217
v -0.00125242 0.05322883 0.01270602
v -0.00137835 0.05318001 0.01270062
v -0.00130145 0.05328090 0.01269215
v -0.00141860 0.05322883 0.01268791
v -0.00140364 0.05337202 0.01266401
v -0.00185368 0.05322232 0.01263087
v -0.00155382 0.05337202 0.01264474
v -0.00170401 0.05337202 0.01262200
v -0.00215405 0.05322232 0.01258230
v -0.00234553 0.05327439 0.01253952
v -0.00229908 0.05336551 0.01252642
v -0.00207612 0.05344687 0.01254453
v -0.00230424 0.05352172 0.01248634
v -0.00257881 0.05363236 0.01240502
v -0.00215405 0.05367467 0.01247246
v -0.00230424 0.05367467 0.01244510
v -0.00275429 0.05382437 0.01231522
v -0.00271403 0.05407495 0.01225201
v -0.00290396 0.05412376 0.01219882
v -0.00290396 0.05427346 0.01215604
v -0.00335400 0.05408797 0.01210709
v -0.00284667 0.05451103 0.01209939
v -0.00289931 0.05442316 0.01211365
v -0.00301234 0.05437435 0.01210324
v -0.00305879 0.05427997 0.01212058
v -0.00317491 0.05423441 0.01210709
v -0.00327504 0.05419536 0.01209438
v -0.00353361 0.05400661 0.01208320
v -0.00364457 0.05396430 0.01206586
v -0.00365386 0.05412376 0.01201306
v -0.00380301 0.05412376 0.01196912
v -0.00385256 0.05417583 0.01193713
v -0.00406210 0.05437760 0.01180532
v -0.00144492 0.05433855 0.01239114
v -0.00185368 0.05462818 0.01223813
v -0.00140364 0.05412376 0.01246976
v -0.00125345 0.05399685 0.01253027
v -0.00110378 0.05395129 0.01256034
v -0.00185368 0.05481042 0.01217493
v -0.00110378 0.05382437 0.01259695
v -0.00095359 0.05367467 0.01265438
v -0.00080340 0.05367467 0.01266748
v -0.00064651 0.05365840 0.01267827
v -0.00059128 0.05359982 0.01269561
v -0.00050355 0.05367792 0.01267673
v -0.00035336 0.05368443 0.01267827
v -0.00020317 0.05368769 0.01267866
v -0.00017995 0.05382437 0.01264089
v -0.00440737 0.05481042 0.01155211
v -0.00421538 0.05468025 0.01165617
v -0.00425719 0.05481042 0.01159836
v -0.00017995 0.05127299 0.01303555
v -0.00017995 0.05158866 0.01300548
v -0.00017995 0.05168303 0.01299623
v -0.00017995 0.05232413 0.01291183
v -0.00020317 0.05232413 0.01291106
v -0.00050355 0.05277323 0.01282935
v -0.00065373 0.05307262 0.01277617
v -0.00080340 0.05337202 0.01272221
v -0.00080340 0.05307262 0.01276614
v -0.00095359 0.05292292 0.01277617
v -0.00095359 0.05322232 0.01273261
v -0.00091953 0.05347290 0.01269870
v -0.00101914 0.05344361 0.01269446
v -0.00120132 0.05331344 0.01269754
v -0.00125345 0.05352172 0.01265476
v -0.00140364 0.05352172 0.01263549
v -0.00155382 0.05352172 0.01261237
v -0.00201729 0.05338829 0.01256766
v -0.00185316 0.05352823 0.01256188
v -0.00190271 0.05358029 0.01254068
v -0.00201729 0.05352823 0.01253413
v -0.00200387 0.05367467 0.01249906
v -0.00250501 0.05373325 0.01239037
v -0.00260410 0.05382437 0.01234528
v -0.00185368 0.05382437 0.01248480
v -0.00200387 0.05382437 0.01245782
v -0.00185368 0.05397407 0.01244279
v -0.00230424 0.05397407 0.01235877
v -0.00240488 0.05376579 0.01240001
v -0.00267532 0.05464771 0.01209476
v -0.00275429 0.05442316 0.01214409
v -0.00335400 0.05416282 0.01208397
v -0.00275429 0.05454357 0.01210902
v -0.00275429 0.05461842 0.01208628
v -0.00275429 0.05472256 0.01205275
v -0.00289931 0.05456635 0.01206933
v -0.00294628 0.05447523 0.01208744
v -0.00311246 0.05433529 0.01209129
v -0.00320381 0.05442316 0.01203926
v -0.00349180 0.05411075 0.01206239
v -0.00335400 0.05427346 0.01204774
v -0.00350419 0.05427346 0.01200573
v -0.00364818 0.05427021 0.01196526
v -0.00395475 0.05457286 0.01177063
v -0.00400533 0.05447848 0.01178798
v -0.00200387 0.05481042 0.01215566
v -0.00214889 0.05481042 0.01213485
v -0.00185368 0.05455333 0.01226280
v -0.00155382 0.05424092 0.01240926
v -0.00171020 0.05427021 0.01237650
v -0.00155382 0.05412376 0.01244741
v -0.00134015 0.05390573 0.01254685
v -0.00125345 0.05392200 0.01255224
v -0.00125345 0.05382437 0.01258038
v -0.00110378 0.05367467 0.01263857
v -0.00096288 0.05352172 0.01268636
v -0.00080340 0.05357379 0.01269138
v -0.00069141 0.05359331 0.01269407
v -0.00035336 0.05352172 0.01271373
v -0.00050355 0.05360307 0.01269677
v -0.00020317 0.05292292 0.01281586
v -0.00035336 0.05360958 0.01269831
v -0.00020317 0.05361284 0.01269870
v -0.00017995 0.05362260 0.01269523
v -0.00017995 0.05368443 0.01267866
v -0.00415655 0.05478114 0.01163844
v -0.00414055 0.05481042 0.01163266
v -0.00017995 0.05247383 0.01288832
v -0.00020317 0.05262353 0.01286404
v -0.00031930 0.05270814 0.01284670
v -0.00050355 0.05292292 0.01280623
v -0.00065373 0.05322232 0.01275343
v -0.00080340 0.05349894 0.01270294
v -0.00110378 0.05352172 0.01267133
v -0.00110378 0.05341758 0.01268983
v -0.00125345 0.05367467 0.01262162
v -0.00140364 0.05367467 0.01260042
v -0.00156724 0.05368769 0.01256997
v -0.00185316 0.05366816 0.01252642
v -0.00170401 0.05382437 0.01251100
v -0.00259636 0.05426370 0.01222040
v -0.00170401 0.05397407 0.01246938
v -0.00185368 0.05409122 0.01240810
v -0.00257520 0.05467700 0.01210363
v -0.00247249 0.05481042 0.01208127
v -0.00261700 0.05472581 0.01208127
v -0.00260978 0.05481042 0.01205583
v -0.00266913 0.05481042 0.01204312
v -0.00275429 0.05481042 0.01202346
v -0.00305363 0.05457286 0.01202770
v -0.00305879 0.05442316 0.01207626
v -0.00281828 0.05481042 0.01200727
v -0.00335400 0.05442316 0.01199764
v -0.00321414 0.05458588 0.01197991
v -0.00349232 0.05441665 0.01196025
v -0.00364818 0.05441665 0.01191477
v -0.00343451 0.05450452 0.01194677
v -0.00230424 0.05481042 0.01210979
v -0.00197755 0.05452404 0.01225316
v -0.00176388 0.05419210 0.01239268
v -0.00155382 0.05397407 0.01249366
v -0.00143976 0.05387644 0.01253914
v -0.00065373 0.05337202 0.01273030
v -0.00035336 0.05292292 0.01281162
v -0.00020317 0.05322232 0.01276576
v -0.00017995 0.05339805 0.01273608
v -0.00020317 0.05352172 0.01271489
v -0.00017995 0.05307262 0.01279120
v -0.00017995 0.05272116 0.01284901
v -0.00017995 0.05281553 0.01283359
v -0.00017995 0.05353799 0.01271219
v -0.00017995 0.05360958 0.01269831
v -0.00406210 0.05481042 0.01165540
v -0.00185368 0.05416607 0.01238536
v -0.00237237 0.05481042 0.01209862
v -0.00251223 0.05481042 0.01207395
v -0.00296382 0.05481042 0.01196758
v -0.00305466 0.05472907 0.01197220
v -0.00321414 0.05472907 0.01192749
v -0.00356251 0.05481042 0.01179915
v -0.00301027 0.05481042 0.01195486
v -0.00326884 0.05481042 0.01188202
f 1 2 7
f 1 7 16
f 1 16 29
f 1 29 46
f 1 46 45
f 1 45 67
f 1 67 102
f 1 102 101
f 1 101 100
f 1 100 146
f 1 146 199
f 1 199 255
f 1 255 320
f 1 320 380
f 1 380 379
f 1 379 450
f 1 450 513
f 1 513 577
f 1 577 576
f 1 576 575
f 1 575 574
f 1 574 633
f 1 633 691
f 1 691 758
f 1 758 757
f 1 757 836
f 1 836 856
f 1 856 931
f 1 931 846
f 1 846 767
f 1 767 701
f 1 701 639
f 1 639 581
f 1 581 515
f 1 515 452
f 1 452 385
f 1 385 326
f 1 326 266
f 1 266 265
f 1 265 264
f 1 264 263
f 1 263 262
f 1 262 207
f 1 207 154
f 1 154 107
f 1 107 71
f 1 71 48
f 1 48 33
f 1 33 20
f 1 20 11
f 1 11 3
f 1 3 4
f 1 4 5
f 1 5 14
f 1 14 22
f 1 22 34
f 1 34 49
f 1 49 72
f 1 72 108
f 1 108 156
f 1 156 210
f 1 210 269
f 1 269 327
f 1 327 390
f 1 390 410
f 1 410 337
f 1 337 280
f 1 280 216
f 1 216 160
f 1 160 115
f 1 115 110
f 1 110 74
f 1 74 51
f 1 51 35
f 1 35 23
f 1 23 15
f 1 15 6
f 1 6 2
f 2 6 7
f 3 8 9
f 3 9 10
f 3 10 4
f 3 11 12
f 3 12 8
f 4 10 13
f 4 13 5
f 5 13 14
f 6 15 16
f 6 16 7
f 8 17 18
f 8 18 9
f 8 12 19
f 8 19 31
f 8 31 32
f 8 32 47
f 8 47 70
f 8 70 106
f 8 106 153
f 8 153 152
f 8 152 206
f 8 206 205
f 8 205 204
f 8 204 261
f 8 261 260
f 8 260 325
f 8 325 382
f 8 382 381
f 8 381 384
f 8 384 451
f 8 451 514
f 8 514 579
f 8 579 637
f 8 637 696
f 8 696 765
f 8 765 843
f 8 843 927
f 8 927 994
f 8 994 993
f 8 993 1061
f 8 1061 1128
f 8 1128 1196
f 8 1196 1195
f 8 1195 1243
f 8 1243 1242
f 8 1242 1237
f 8 1237 1239
f 8 1239 1241
f 8 1241 1240
f 8 1240 1199
f 8 1199 1135
f 8 1135 1070
f 8 1070 1010
f 8 1010 1009
f 8 1009 1069
f 8 1069 1134
f 8 1134 1133
f 8 1133 1132
f 8 1132 1065
f 8 1065 1005
f 8 1005 1004
f 8 1004 1003
f 8 1003 935
f 8 935 861
f 8 861 859
f 8 859 777
f 8 777 704
f 8 704 710
f 8 710 652
f 8 652 702
f 8 702 641
f 8 641 583
f 8 583 604
f 8 604 537
f 8 537 483
f 8 483 414
f 8 414 343
f 8 343 285
f 8 285 284
f 8 284 283
f 8 283 282
f 8 282 342
f 8 342 341
f 8 341 413
f 8 413 412
f 8 412 338
f 8 338 411
f 8 411 482
f 8 482 481
f 8 481 480
f 8 480 479
f 8 479 478
f 8 478 477
f 8 477 476
f 8 476 475
f 8 475 516
f 8 516 456
f 8 456 458
f 8 458 457
f 8 457 393
f 8 393 392
f 8 392 395
f 8 395 329
f 8 329 271
f 8 271 212
f 8 212 211
f 8 211 157
f 8 157 109
f 8 109 73
f 8 73 50
f 8 50 34
f 8 34 22
f 8 22 17
f 9 18 10
f 10 18 13
f 11 20 12
f 12 20 21
f 12 21 19
f 13 18 14
f 14 18 22
f 15 23 24
f 15 24 25
f 15 25 26
f 15 26 27
f 15 27 28
f 15 28 16
f 16 28 29
f 17 22 18
f 19 21 30
f 19 30 31
f 20 32 31
f 20 31 30
f 20 30 21
f 20 33 47
f 20 47 32
f 23 35 36
f 23 36 37
f 23 37 24
f 24 37 25
f 25 37 38
f 25 38 39
f 25 39 26
f 26 39 40
f 26 40 41
f 26 41 27
f 27 41 42
f 27 42 28
f 28 42 43
f 28 43 44
f 28 44 45
f 28 45 46
f 28 46 29
f 33 48 47
f 34 50 49
f 35 51 52
f 35 52 53
f 35 53 54
f 35 54 55
f 35 55 56
f 35 56 36
f 36 56 57
f 36 57 40
f 36 40 37
f 37 40 38
f 38 40 39
f 40 58 59
f 40 59 60
f 40 60 61
f 40 61 41
f 40 57 58
f 41 61 42
f 42 61 62
f 42 62 63
f 42 63 64
f 42 64 65
f 42 65 43
f 43 65 66
f 43 66 44
f 44 66 45
f 45 66 67
f 47 48 68
f 47 68 69
f 47 69 70
f 48 71 68
f 49 50 73
f 49 73 72
f 51 74 75
f 51 75 76
f 51 76 77
f 51 77 78
f 51 78 79
f 51 79 80
f 51 80 81
f 51 81 82
f 51 82 52
f 52 82 53
f 53 82 83
f 53 83 84
f 53 84 85
f 53 85 58
f 53 58 54
f 54 58 55
f 55 58 56
f 56 58 86
f 56 86 57
f 57 86 58
f 58 85 59
f 59 85 87
f 59 87 88
f 59 88 60
f 60 88 89
f 60 89 90
f 60 90 91
f 60 91 61
f 61 92 93
f 61 93 94
f 61 94 95
f 61 95 62
f 61 91 92
f 62 95 63
f 63 95 96
f 63 96 97
f 63 97 98
f 63 98 99
f 63 99 64
f 64 99 66
f 64 66 65
f 66 99 100
f 66 100 101
f 66 101 102
f 66 102 67
f 68 71 103
f 68 103 104
f 68 104 69
f 69 104 105
f 69 105 106
f 69 106 70
f 71 107 103
f 72 73 109
f 72 109 108
f 74 110 75
f 75 111 112
f 75 112 113
f 75 113 77
f 75 77 114
f 75 114 76
f 75 110 115
f 75 115 111
f 76 114 77
f 77 113 161
f 77 161 116
f 77 116 117
f 77 117 78
f 78 117 118
f 78 118 119
f 78 119 79
f 79 119 82
f 79 82 81
f 79 81 80
f 82 119 83
f 83 119 120
f 83 120 121
f 83 121 84
f 84 121 122
f 84 122 85
f 85 122 87
f 87 122 123
f 87 123 124
f 87 124 88
f 88 125 89
f 88 124 126
f 88 126 127
f 88 127 128
f 88 128 90
f 88 90 125
f 89 125 90
f 90 128 129
f 90 129 130
f 90 130 131
f 90 131 91
f 91 132 133
f 91 133 92
f 91 131 134
f 91 134 132
f 92 133 94
f 92 94 93
f 94 133 135
f 94 135 136
f 94 136 95
f 95 136 96
f 96 136 137
f 96 137 138
f 96 138 97
f 97 139 98
f 97 138 140
f 97 140 141
f 97 141 142
f 97 142 143
f 97 143 139
f 98 139 143
f 98 143 144
f 98 144 145
f 98 145 99
f 99 146 100
f 99 145 147
f 99 147 146
f 103 148 104
f 103 107 148
f 104 148 105
f 105 149 150
f 105 150 151
f 105 151 152
f 105 152 153
f 105 153 106
f 105 148 107
f 105 107 149
f 107 154 155
f 107 155 149
f 108 109 157
f 108 157 156
f 111 158 159
f 111 159 113
f 111 113 112
f 111 115 160
f 111 160 158
f 113 159 161
f 116 161 162
f 116 162 163
f 116 163 117
f 117 163 164
f 117 164 118
f 118 164 165
f 118 165 119
f 119 165 166
f 119 166 120
f 120 166 167
f 120 167 168
f 120 168 223
f 120 223 169
f 120 169 121
f 121 169 170
f 121 170 171
f 121 171 172
f 121 172 124
f 121 124 123
f 121 123 122
f 124 172 171
f 124 171 173
f 124 173 174
f 124 174 175
f 124 175 176
f 124 176 177
f 124 177 126
f 126 177 178
f 126 178 127
f 127 178 179
f 127 179 128
f 128 179 129
f 129 179 180
f 129 180 130
f 130 181 182
f 130 182 183
f 130 183 131
f 130 180 179
f 130 179 181
f 131 183 184
f 131 184 185
f 131 185 186
f 131 186 134
f 132 187 133
f 132 134 187
f 133 187 135
f 134 186 188
f 134 188 189
f 134 189 187
f 135 190 191
f 135 191 137
f 135 137 136
f 135 187 190
f 137 191 192
f 137 192 193
f 137 193 140
f 137 140 138
f 140 193 194
f 140 194 195
f 140 195 141
f 141 195 196
f 141 196 142
f 142 196 143
f 143 196 197
f 143 197 198
f 143 198 145
f 143 145 144
f 145 198 147
f 146 147 199
f 147 198 200
f 147 200 199
f 149 201 150
f 149 155 201
f 150 202 203
f 150 203 204
f 150 204 205
f 150 205 151
f 150 201 155
f 150 155 202
f 151 205 206
f 151 206 152
f 154 207 208
f 154 208 155
f 155 208 209
f 155 209 202
f 156 157 211
f 156 211 212
f 156 212 210
f 158 213 214
f 158 214 215
f 158 215 159
f 158 160 216
f 158 216 213
f 159 215 217
f 159 217 161
f 161 217 218
f 161 218 162
f 162 219 220
f 162 220 221
f 162 221 163
f 162 218 222
f 162 222 219
f 163 221 167
f 163 167 164
f 164 167 166
f 164 166 165
f 167 223 168
f 167 221 224
f 167 224 223
f 169 223 170
f 170 223 224
f 170 224 225
f 170 225 226
f 170 226 171
f 171 226 173
f 173 226 227
f 173 227 174
f 174 176 175
f 174 227 228
f 174 228 229
f 174 229 176
f 176 229 230
f 176 230 231
f 176 231 177
f 177 231 232
f 177 232 233
f 177 233 178
f 178 233 179
f 179 233 181
f 181 234 182
f 181 233 234
f 182 235 236
f 182 236 237
f 182 237 238
f 182 238 239
f 182 239 183
f 182 234 233
f 182 233 240
f 182 240 232
f 182 232 241
f 182 241 235
f 183 239 242
f 183 242 243
f 183 243 185
f 183 185 184
f 185 243 244
f 185 244 245
f 185 245 246
f 185 246 186
f 186 246 194
f 186 194 247
f 186 247 188
f 187 189 190
f 188 247 192
f 188 192 189
f 189 192 190
f 190 192 191
f 192 247 248
f 192 248 193
f 193 248 249
f 193 249 194
f 194 249 247
f 194 246 245
f 194 245 250
f 194 250 251
f 194 251 195
f 195 251 250
f 195 250 196
f 196 250 252
f 196 252 253
f 196 253 254
f 196 254 197
f 197 254 200
f 197 200 198
f 199 200 255
f 200 254 256
f 200 256 255
f 202 257 258
f 202 258 203
f 202 209 259
f 202 259 257
f 203 258 260
f 203 260 261
f 203 261 204
f 207 262 208
f 208 262 263
f 208 263 264
f 208 264 265
f 208 265 266
f 208 266 267
f 208 267 268
f 208 268 209
f 209 268 259
f 210 212 270
f 210 270 269
f 212 271 270
f 213 272 273
f 213 273 274
f 213 274 214
f 213 216 272
f 214 274 275
f 214 275 276
f 214 276 277
f 214 277 278
f 214 278 279
f 214 279 215
f 215 279 217
f 216 280 281
f 216 281 282
f 216 282 283
f 216 283 284
f 216 284 285
f 216 285 272
f 217 279 218
f 218 279 286
f 218 286 287
f 218 287 288
f 218 288 289
f 218 289 222
f 219 222 220
f 220 290 291
f 220 291 292
f 220 292 226
f 220 226 225
f 220 225 224
f 220 224 221
f 220 222 293
f 220 293 294
f 220 294 295
f 220 295 290
f 222 289 293
f 226 292 291
f 226 291 227
f 227 291 296
f 227 296 228
f 228 297 229
f 228 296 298
f 228 298 299
f 228 299 297
f 229 297 300
f 229 300 301
f 229 301 302
f 229 302 230
f 230 302 231
f 231 302 301
f 231 301 303
f 231 303 304
f 231 304 235
f 231 235 232
f 232 235 241
f 232 240 233
f 235 304 305
f 235 305 236
f 236 305 306
f 236 306 307
f 236 307 308
f 236 308 237
f 237 308 238
f 238 308 307
f 238 307 239
f 239 309 242
f 239 307 310
f 239 310 311
f 239 311 309
f 242 309 243
f 243 309 312
f 243 312 313
f 243 313 314
f 243 314 244
f 244 314 245
f 245 314 250
f 247 249 248
f 250 314 315
f 250 315 252
f 252 315 316
f 252 316 317
f 252 317 254
f 252 254 253
f 254 317 318
f 254 318 319
f 254 319 256
f 255 256 320
f 256 319 320
f 257 321 322
f 257 322 260
f 257 260 258
f 257 259 323
f 257 323 324
f 257 324 321
f 259 268 267
f 259 267 323
f 260 322 325
f 266 326 267
f 267 326 323
f 269 270 328
f 269 328 327
f 270 271 328
f 271 329 328
f 272 285 330
f 272 330 275
f 272 275 274
f 272 274 273
f 275 330 331
f 275 331 276
f 276 331 332
f 276 332 277
f 277 332 399
f 277 399 333
f 277 333 334
f 277 334 335
f 277 335 278
f 278 335 279
f 279 287 286
f 279 335 336
f 279 336 287
f 280 337 338
f 280 338 339
f 280 339 340
f 280 340 341
f 280 341 281
f 281 341 342
f 281 342 282
f 285 343 331
f 285 331 330
f 287 344 288
f 287 336 345
f 287 345 346
f 287 346 347
f 287 347 344
f 288 344 347
f 288 347 348
f 288 348 289
f 289 348 349
f 289 349 350
f 289 350 293
f 290 351 291
f 290 295 351
f 291 351 352
f 291 352 296
f 293 295 294
f 293 350 353
f 293 353 354
f 293 354 295
f 295 352 351
f 295 354 355
f 295 355 356
f 295 356 352
f 296 352 298
f 297 299 357
f 297 357 300
f 298 352 358
f 298 358 299
f 299 359 360
f 299 360 357
f 299 358 359
f 300 357 361
f 300 361 362
f 300 362 306
f 300 306 301
f 301 306 303
f 303 306 304
f 304 306 305
f 306 362 307
f 307 362 310
f 309 311 363
f 309 363 364
f 309 364 365
f 309 365 312
f 310 366 367
f 310 367 368
f 310 368 369
f 310 369 370
f 310 370 371
f 310 371 311
f 310 362 361
f 310 361 366
f 311 371 370
f 311 370 372
f 311 372 363
f 312 365 373
f 312 373 313
f 313 373 315
f 313 315 314
f 315 373 316
f 316 373 374
f 316 374 317
f 317 374 375
f 317 375 318
f 318 375 374
f 318 374 376
f 318 376 377
f 318 377 319
f 319 377 378
f 319 378 379
f 319 379 380
f 319 380 320
f 321 381 382
f 321 382 322
f 321 324 383
f 321 383 384
f 321 384 381
f 322 382 325
f 323 326 385
f 323 385 386
f 323 386 324
f 324 386 385
f 324 385 387
f 324 387 453
f 324 453 452
f 324 452 515
f 324 515 580
f 324 580 638
f 324 638 697
f 324 697 766
f 324 766 845
f 324 845 929
f 324 929 998
f 324 998 997
f 324 997 996
f 324 996 1062
f 324 1062 1129
f 324 1129 1131
f 324 1131 1198
f 324 1198 1244
f 324 1244 1251
f 324 1251 1253
f 324 1253 1252
f 324 1252 1248
f 324 1248 1223
f 324 1223 1220
f 324 1220 1219
f 324 1219 1218
f 324 1218 1247
f 324 1247 1216
f 324 1216 1246
f 324 1246 1229
f 324 1229 1178
f 324 1178 1177
f 324 1177 1119
f 324 1119 1051
f 324 1051 986
f 324 986 985
f 324 985 983
f 324 983 922
f 324 922 921
f 324 921 917
f 324 917 837
f 324 837 759
f 324 759 692
f 324 692 634
f 324 634 578
f 324 578 514
f 324 514 451
f 324 451 388
f 324 388 389
f 324 389 384
f 324 384 383
f 327 328 391
f 327 391 392
f 327 392 393
f 327 393 394
f 327 394 390
f 328 329 391
f 329 395 391
f 331 343 396
f 331 396 397
f 331 397 398
f 331 398 332
f 332 398 400
f 332 400 399
f 333 399 400
f 333 400 401
f 333 401 334
f 334 401 335
f 335 345 336
f 335 401 402
f 335 402 403
f 335 403 404
f 335 404 405
f 335 405 406
f 335 406 407
f 335 407 408
f 335 408 409
f 335 409 345
f 337 410 411
f 337 411 338
f 338 412 339
f 339 412 413
f 339 413 340
f 340 413 341
f 343 414 396
f 345 409 415
f 345 415 346
f 346 415 416
f 346 416 417
f 346 417 418
f 346 418 347
f 347 418 419
f 347 419 420
f 347 420 421
f 347 421 348
f 348 421 349
f 349 420 422
f 349 422 423
f 349 423 424
f 349 424 425
f 349 425 356
f 349 356 426
f 349 426 353
f 349 353 350
f 349 421 420
f 352 356 427
f 352 427 428
f 352 428 358
f 353 426 356
f 353 356 355
f 353 355 354
f 356 425 427
f 357 360 429
f 357 429 361
f 358 428 359
f 359 428 430
f 359 430 360
f 360 430 424
f 360 424 429
f 361 429 366
f 363 372 431
f 363 431 432
f 363 432 433
f 363 433 364
f 364 433 374
f 364 374 365
f 365 374 373
f 366 434 435
f 366 435 438
f 366 438 436
f 366 436 367
f 366 429 434
f 367 436 368
f 368 437 369
f 368 436 438
f 368 438 439
f 368 439 437
f 369 437 370
f 370 437 440
f 370 440 441
f 370 441 442
f 370 442 372
f 372 442 443
f 372 443 431
f 374 433 444
f 374 444 376
f 376 444 445
f 376 445 446
f 376 446 377
f 377 446 447
f 377 447 448
f 377 448 449
f 377 449 378
f 378 449 450
f 378 450 379
f 384 389 388
f 384 388 451
f 385 452 453
f 385 453 387
f 390 394 454
f 390 454 455
f 390 455 456
f 390 456 410
f 391 395 392
f 393 457 394
f 394 457 458
f 394 458 454
f 396 414 459
f 396 459 400
f 396 400 397
f 397 400 398
f 400 459 401
f 401 460 402
f 401 459 460
f 402 460 461
f 402 461 462
f 402 462 463
f 402 463 403
f 403 405 404
f 403 463 405
f 405 463 464
f 405 464 406
f 406 464 465
f 406 465 466
f 406 466 467
f 406 467 407
f 407 467 468
f 407 468 469
f 407 469 408
f 408 469 470
f 408 470 471
f 408 471 409
f 409 471 470
f 409 470 472
f 409 472 473
f 409 473 415
f 410 456 474
f 410 474 475
f 410 475 476
f 410 476 477
f 410 477 478
f 410 478 479
f 410 479 480
f 410 480 481
f 410 481 482
f 410 482 411
f 414 483 459
f 415 473 416
f 416 473 417
f 417 419 418
f 417 473 484
f 417 484 539
f 417 539 485
f 417 485 486
f 417 486 487
f 417 487 419
f 419 487 420
f 420 487 486
f 420 486 488
f 420 488 422
f 422 488 489
f 422 489 434
f 422 434 423
f 423 429 424
f 423 434 429
f 424 430 428
f 424 428 425
f 425 428 427
f 431 443 490
f 431 490 491
f 431 491 433
f 431 433 432
f 433 491 492
f 433 492 444
f 434 489 493
f 434 493 435
f 435 493 494
f 435 494 438
f 437 439 440
f 438 494 495
f 438 495 496
f 438 496 439
f 439 497 441
f 439 441 440
f 439 496 497
f 441 497 442
f 442 497 498
f 442 498 556
f 442 556 499
f 442 499 443
f 443 499 557
f 443 557 500
f 443 500 501
f 443 501 490
f 444 492 502
f 444 502 503
f 444 503 445
f 445 504 505
f 445 505 506
f 445 506 507
f 445 507 446
f 445 503 504
f 446 507 508
f 446 508 447
f 447 508 509
f 447 509 510
f 447 510 511
f 447 511 512
f 447 512 448
f 448 512 449
f 449 512 513
f 449 513 450
f 454 458 456
f 454 456 455
f 456 516 474
f 459 483 517
f 459 517 518
f 459 518 460
f 460 518 461
f 461 518 519
f 461 519 520
f 461 520 462
f 462 521 463
f 462 520 522
f 462 522 523
f 462 523 521
f 463 521 465
f 463 465 464
f 465 521 523
f 465 523 524
f 465 524 525
f 465 525 466
f 466 525 467
f 467 525 526
f 467 526 527
f 467 527 468
f 468 527 528
f 468 528 469
f 469 528 529
f 469 529 470
f 470 529 530
f 470 530 531
f 470 531 532
f 470 532 533
f 470 533 472
f 472 533 534
f 472 534 535
f 472 535 536
f 472 536 473
f 473 536 484
f 474 516 475
f 483 537 517
f 484 536 538
f 484 538 539
f 485 539 486
f 486 539 488
f 488 539 538
f 488 538 540
f 488 540 541
f 488 541 489
f 489 541 542
f 489 542 547
f 489 547 493
f 490 501 543
f 490 543 544
f 490 544 491
f 491 544 545
f 491 545 492
f 492 544 504
f 492 504 546
f 492 546 502
f 492 545 544
f 493 547 548
f 493 548 494
f 494 548 495
f 495 548 549
f 495 549 551
f 495 551 496
f 496 550 497
f 496 551 552
f 496 552 550
f 497 550 553
f 497 553 498
f 498 553 552
f 498 552 554
f 498 554 555
f 498 555 556
f 499 556 558
f 499 558 557
f 500 557 559
f 500 559 560
f 500 560 561
f 500 561 562
f 500 562 501
f 501 562 563
f 501 563 564
f 501 564 543
f 502 546 503
f 503 546 504
f 504 565 505
f 504 544 566
f 504 566 565
f 505 565 567
f 505 567 506
f 506 567 568
f 506 568 507
f 507 568 508
f 508 568 569
f 508 569 570
f 508 570 509
f 509 571 510
f 509 570 572
f 509 572 573
f 509 573 571
f 510 571 574
f 510 574 575
f 510 575 511
f 511 575 576
f 511 576 512
f 512 577 513
f 512 576 577
f 514 578 636
f 514 636 579
f 515 581 580
f 517 537 518
f 518 537 582
f 518 582 519
f 519 582 583
f 519 583 584
f 519 584 586
f 519 586 585
f 519 585 520
f 520 585 586
f 520 586 587
f 520 587 522
f 522 588 589
f 522 589 590
f 522 590 523
f 522 587 588
f 523 590 524
f 524 590 591
f 524 591 525
f 525 592 526
f 525 591 593
f 525 593 592
f 526 592 527
f 527 594 528
f 527 592 593
f 527 593 594
f 528 594 529
f 529 594 595
f 529 595 530
f 530 534 531
f 530 595 594
f 530 594 596
f 530 596 597
f 530 597 598
f 530 598 599
f 530 599 534
f 531 534 532
f 532 534 533
f 534 599 535
f 535 599 598
f 535 598 659
f 535 659 600
f 535 600 601
f 535 601 602
f 535 602 603
f 535 603 538
f 535 538 536
f 537 604 582
f 538 603 540
f 540 603 605
f 540 605 541
f 541 605 606
f 541 606 542
f 542 606 547
f 543 564 607
f 543 607 544
f 544 607 566
f 547 606 608
f 547 608 609
f 547 609 548
f 548 609 610
f 548 610 549
f 549 610 551
f 550 552 553
f 551 610 611
f 551 611 552
f 552 611 612
f 552 612 554
f 554 612 613
f 554 613 555
f 555 613 614
f 555 614 556
f 556 614 615
f 556 615 558
f 557 558 559
f 558 614 616
f 558 616 674
f 558 674 617
f 558 617 618
f 558 618 559
f 558 615 614
f 559 618 560
f 560 619 561
f 560 618 620
f 560 620 619
f 561 619 562
f 562 619 563
f 563 619 621
f 563 621 622
f 563 622 623
f 563 623 564
f 564 623 607
f 565 607 567
f 565 566 607
f 567 607 624
f 567 624 568
f 568 624 625
f 568 625 569
f 569 626 627
f 569 627 628
f 569 628 570
f 569 625 626
f 570 628 629
f 570 629 572
f 571 573 574
f 572 629 630
f 572 630 631
f 572 631 573
f 573 631 574
f 574 631 632
f 574 632 633
f 578 634 635
f 578 635 636
f 579 636 637
f 580 581 638
f 581 639 640
f 581 640 638
f 582 604 583
f 583 641 642
f 583 642 643
f 583 643 588
f 583 588 587
f 583 587 644
f 583 644 584
f 584 644 645
f 584 645 587
f 584 587 586
f 587 645 644
f 588 646 647
f 588 647 589
f 588 643 646
f 589 648 649
f 589 649 650
f 589 650 651
f 589 651 590
f 589 647 646
f 589 646 643
f 589 643 652
f 589 652 653
f 589 653 648
f 590 651 591
f 591 651 654
f 591 654 650
f 591 650 593
f 593 650 655
f 593 655 656
f 593 656 657
f 593 657 594
f 594 657 596
f 596 657 658
f 596 658 598
f 596 598 597
f 598 658 659
f 600 660 661
f 600 661 601
f 600 659 718
f 600 718 660
f 601 662 602
f 601 661 663
f 601 663 664
f 601 664 665
f 601 665 662
f 602 662 606
f 602 606 603
f 603 606 605
f 606 662 608
f 607 623 624
f 608 662 609
f 609 662 664
f 609 664 610
f 610 664 666
f 610 666 611
f 611 667 612
f 611 666 668
f 611 668 669
f 611 669 667
f 612 667 670
f 612 670 613
f 613 670 614
f 614 670 671
f 614 671 672
f 614 672 616
f 616 672 673
f 616 673 674
f 617 675 676
f 617 676 618
f 617 674 677
f 617 677 678
f 617 678 675
f 618 676 620
f 619 620 676
f 619 676 621
f 621 676 679
f 621 679 680
f 621 680 623
f 621 623 622
f 623 680 681
f 623 681 682
f 623 682 624
f 624 682 625
f 625 682 626
f 626 682 627
f 627 683 684
f 627 684 685
f 627 685 628
f 627 682 683
f 628 685 686
f 628 686 687
f 628 687 629
f 629 688 630
f 629 687 689
f 629 689 688
f 630 688 633
f 630 633 631
f 631 633 632
f 633 688 690
f 633 690 691
f 634 692 693
f 634 693 635
f 635 693 694
f 635 694 636
f 636 694 695
f 636 695 637
f 637 695 696
f 638 640 698
f 638 698 699
f 638 699 700
f 638 700 697
f 639 701 698
f 639 698 640
f 641 702 703
f 641 703 642
f 642 703 643
f 643 703 652
f 648 704 705
f 648 705 706
f 648 706 649
f 648 653 704
f 649 706 707
f 649 707 650
f 650 707 708
f 650 708 709
f 650 709 655
f 650 654 651
f 652 703 702
f 652 710 653
f 653 710 704
f 655 709 711
f 655 711 712
f 655 712 713
f 655 713 714
f 655 714 656
f 656 715 657
f 656 714 716
f 656 716 717
f 656 717 715
f 657 715 718
f 657 718 658
f 658 718 659
f 660 719 717
f 660 717 661
f 660 718 715
f 660 715 719
f 661 717 720
f 661 720 721
f 661 721 722
f 661 722 663
f 662 665 664
f 663 722 664
f 664 722 723
f 664 723 666
f 666 723 724
f 666 724 668
f 667 669 725
f 667 725 670
f 668 724 726
f 668 726 727
f 668 727 728
f 668 728 669
f 669 728 729
f 669 729 730
f 669 730 725
f 670 725 731
f 670 731 671
f 671 731 725
f 671 725 730
f 671 730 732
f 671 732 672
f 672 732 733
f 672 733 734
f 672 734 673
f 673 734 677
f 673 677 674
f 675 678 735
f 675 735 676
f 676 735 679
f 677 736 737
f 677 737 678
f 677 734 738
f 677 738 739
f 677 739 736
f 678 740 735
f 678 737 736
f 678 736 740
f 679 735 680
f 680 735 741
f 680 741 742
f 680 742 743
f 680 743 683
f 680 683 681
f 681 683 682
f 683 743 744
f 683 744 684
f 684 744 745
f 684 745 746
f 684 746 685
f 685 746 747
f 685 747 748
f 685 748 686
f 686 748 749
f 686 749 750
f 686 750 751
f 686 751 752
f 686 752 753
f 686 753 687
f 687 754 689
f 687 753 754
f 688 689 690
f 689 754 755
f 689 755 690
f 690 755 756
f 690 756 757
f 690 757 758
f 690 758 691
f 692 759 693
f 693 760 761
f 693 761 762
f 693 762 694
f 693 759 760
f 694 762 763
f 694 763 695
f 695 763 764
f 695 764 765
f 695 765 696
f 697 700 766
f 698 767 699
f 698 701 767
f 699 768 769
f 699 769 770
f 699 770 700
f 699 767 771
f 699 771 772
f 699 772 773
f 699 773 774
f 699 774 775
f 699 775 768
f 700 770 776
f 700 776 766
f 704 777 778
f 704 778 779
f 704 779 780
f 704 780 705
f 705 780 706
f 706 781 707
f 706 780 782
f 706 782 783
f 706 783 781
f 707 781 784
f 707 784 708
f 708 784 785
f 708 785 786
f 708 786 787
f 708 787 709
f 709 787 788
f 709 788 711
f 711 789 712
f 711 788 790
f 711 790 791
f 711 791 792
f 711 792 789
f 712 789 713
f 713 789 793
f 713 793 794
f 713 794 714
f 714 794 716
f 715 717 719
f 716 794 793
f 716 793 795
f 716 795 717
f 717 795 796
f 717 796 720
f 720 796 721
f 721 796 722
f 722 796 723
f 723 796 797
f 723 797 724
f 724 797 798
f 724 798 799
f 724 799 726
f 726 799 800
f 726 800 801
f 726 801 802
f 726 802 803
f 726 803 727
f 727 803 804
f 727 804 728
f 728 804 732
f 728 732 729
f 729 732 730
f 732 804 805
f 732 805 733
f 733 806 734
f 733 805 806
f 734 807 808
f 734 808 809
f 734 809 738
f 734 806 807
f 735 740 742
f 735 742 741
f 736 810 740
f 736 739 811
f 736 811 810
f 738 809 812
f 738 812 813
f 738 813 814
f 738 814 815
f 738 815 811
f 738 811 739
f 740 816 742
f 740 810 816
f 742 816 743
f 743 816 817
f 743 817 818
f 743 818 744
f 744 818 819
f 744 819 745
f 745 819 746
f 746 819 820
f 746 820 747
f 747 820 821
f 747 821 822
f 747 822 823
f 747 823 824
f 747 824 825
f 747 825 749
f 747 749 748
f 749 825 824
f 749 824 826
f 749 826 827
f 749 827 751
f 749 751 750
f 751 827 752
f 752 828 754
f 752 754 753
f 752 827 829
f 752 829 830
f 752 830 831
f 752 831 828
f 754 828 831
f 754 831 774
f 754 774 832
f 754 832 833
f 754 833 834
f 754 834 755
f 755 834 835
f 755 835 756
f 756 835 757
f 757 835 836
f 759 837 760
f 760 837 761
f 761 837 838
f 761 838 839
f 761 839 840
f 761 840 841
f 761 841 762
f 762 841 763
f 763 841 842
f 763 842 764
f 764 842 843
f 764 843 765
f 766 776 844
f 766 844 845
f 767 846 771
f 768 775 847
f 768 847 769
f 769 848 770
f 769 847 849
f 769 849 850
f 769 850 851
f 769 851 852
f 769 852 853
f 769 853 848
f 770 848 854
f 770 854 776
f 771 846 855
f 771 855 856
f 771 856 772
f 772 856 857
f 772 857 832
f 772 832 773
f 773 832 774
f 774 831 847
f 774 847 858
f 774 858 775
f 775 858 847
f 776 854 844
f 777 859 778
f 778 860 779
f 778 859 861
f 778 861 862
f 778 862 863
f 778 863 864
f 778 864 860
f 779 860 780
f 780 860 783
f 780 783 782
f 781 783 865
f 781 865 866
f 781 866 867
f 781 867 784
f 783 860 864
f 783 864 863
f 783 863 862
f 783 862 865
f 784 867 868
f 784 868 785
f 785 868 869
f 785 869 870
f 785 870 871
f 785 871 786
f 786 871 872
f 786 872 787
f 787 872 874
f 787 874 788
f 788 873 790
f 788 874 875
f 788 875 876
f 788 876 877
f 788 877 873
f 789 878 793
f 789 792 879
f 789 879 880
f 789 880 881
f 789 881 878
f 790 873 791
f 791 873 877
f 791 877 882
f 791 882 883
f 791 883 884
f 791 884 792
f 792 884 879
f 793 878 881
f 793 881 885
f 793 885 886
f 793 886 795
f 795 886 797
f 795 797 796
f 797 886 798
f 798 886 887
f 798 887 799
f 799 887 800
f 800 887 880
f 800 880 888
f 800 888 889
f 800 889 890
f 800 890 801
f 801 890 891
f 801 891 802
f 802 891 892
f 802 892 803
f 803 892 893
f 803 893 894
f 803 894 804
f 804 894 806
f 804 806 805
f 806 894 893
f 806 893 807
f 807 893 895
f 807 895 896
f 807 896 808
f 808 896 897
f 808 897 898
f 808 898 809
f 809 898 899
f 809 899 812
f 810 900 821
f 810 821 816
f 810 811 900
f 811 815 901
f 811 901 900
f 812 899 902
f 812 902 903
f 812 903 904
f 812 904 813
f 813 904 905
f 813 905 906
f 813 906 907
f 813 907 814
f 814 907 815
f 815 907 901
f 816 821 817
f 817 821 818
f 818 821 908
f 818 908 819
f 819 908 820
f 820 908 821
f 821 900 901
f 821 901 909
f 821 909 822
f 822 909 910
f 822 910 911
f 822 911 823
f 823 911 910
f 823 910 912
f 823 912 824
f 824 912 913
f 824 913 826
f 826 913 827
f 827 913 914
f 827 914 915
f 827 915 851
f 827 851 829
f 829 851 850
f 829 850 916
f 829 916 830
f 830 916 831
f 831 916 847
f 832 834 833
f 832 857 834
f 834 857 856
f 834 856 836
f 834 836 835
f 837 917 918
f 837 918 838
f 838 918 839
f 839 919 920
f 839 920 840
f 839 918 917
f 839 917 921
f 839 921 922
f 839 922 919
f 840 920 923
f 840 923 841
f 841 923 924
f 841 924 842
f 842 924 925
f 842 925 926
f 842 926 843
f 843 926 927
f 844 928 929
f 844 929 845
f 844 854 930
f 844 930 928
f 846 931 855
f 847 916 849
f 848 853 934
f 848 934 932
f 848 932 930
f 848 930 854
f 849 916 850
f 851 915 933
f 851 933 852
f 852 933 853
f 853 933 934
f 855 931 856
f 861 935 862
f 862 935 936
f 862 936 1006
f 862 1006 937
f 862 937 938
f 862 938 865
f 865 938 867
f 865 867 866
f 867 938 939
f 867 939 940
f 867 940 868
f 868 940 869
f 869 940 941
f 869 941 870
f 870 941 942
f 870 942 943
f 870 943 944
f 870 944 871
f 871 944 945
f 871 945 872
f 872 945 946
f 872 946 947
f 872 947 874
f 874 947 875
f 875 947 948
f 875 948 877
f 875 877 876
f 877 948 1016
f 877 1016 949
f 877 949 952
f 877 952 882
f 879 884 950
f 879 950 951
f 879 951 880
f 880 951 888
f 880 887 886
f 880 886 885
f 880 885 881
f 882 952 953
f 882 953 883
f 883 953 954
f 883 954 950
f 883 950 955
f 883 955 884
f 884 955 950
f 888 950 889
f 888 951 950
f 889 956 957
f 889 957 958
f 889 958 959
f 889 959 890
f 889 950 956
f 890 959 960
f 890 960 961
f 890 961 962
f 890 962 963
f 890 963 891
f 891 963 895
f 891 895 893
f 891 893 892
f 895 963 896
f 896 963 964
f 896 964 965
f 896 965 897
f 897 965 966
f 897 966 967
f 897 967 898
f 898 967 968
f 898 968 969
f 898 969 899
f 899 969 902
f 901 907 910
f 901 910 909
f 902 969 903
f 903 969 904
f 904 969 970
f 904 970 905
f 905 971 906
f 905 970 972
f 905 972 1037
f 905 1037 973
f 905 973 971
f 906 971 907
f 907 971 974
f 907 974 910
f 910 974 912
f 912 974 975
f 912 975 915
f 912 915 914
f 912 914 913
f 915 975 976
f 915 976 977
f 915 977 978
f 915 978 979
f 915 979 933
f 919 980 981
f 919 981 982
f 919 982 920
f 919 922 983
f 919 983 984
f 919 984 985
f 919 985 986
f 919 986 980
f 920 982 987
f 920 987 988
f 920 988 989
f 920 989 923
f 923 989 990
f 923 990 924
f 924 990 925
f 925 990 991
f 925 991 992
f 925 992 993
f 925 993 994
f 925 994 926
f 926 994 927
f 928 995 996
f 928 996 997
f 928 997 998
f 928 998 929
f 928 930 999
f 928 999 1000
f 928 1000 995
f 930 932 1001
f 930 1001 1002
f 930 1002 999
f 932 934 1001
f 933 979 934
f 934 979 1001
f 935 1003 936
f 936 1003 1004
f 936 1004 1005
f 936 1005 1065
f 936 1065 1006
f 937 1007 1008
f 937 1008 939
f 937 939 938
f 937 1006 1007
f 939 1008 940
f 940 1007 941
f 940 1008 1007
f 941 1007 942
f 942 1009 1010
f 942 1010 943
f 942 1007 1009
f 943 1010 1011
f 943 1011 1012
f 943 1012 944
f 944 1012 1013
f 944 1013 945
f 945 1013 1014
f 945 1014 947
f 945 947 946
f 947 1014 1015
f 947 1015 1016
f 947 1016 948
f 949 1017 1018
f 949 1018 952
f 949 1016 1015
f 949 1015 1017
f 950 954 1019
f 950 1019 957
f 950 957 956
f 952 1018 953
f 953 1018 954
f 954 1018 1020
f 954 1020 957
f 954 957 1019
f 957 1020 1021
f 957 1021 1022
f 957 1022 958
f 958 1023 959
f 958 1022 1023
f 959 1023 1024
f 959 1024 1025
f 959 1025 960
f 960 1025 961
f 961 1025 1026
f 961 1026 964
f 961 964 962
f 962 964 963
f 964 1026 1027
f 964 1027 965
f 965 1027 1026
f 965 1026 1028
f 965 1028 1029
f 965 1029 966
f 966 1029 1030
f 966 1030 1031
f 966 1031 968
f 966 968 967
f 968 1031 1032
f 968 1032 1033
f 968 1033 1034
f 968 1034 1035
f 968 1035 969
f 969 1035 970
f 970 1035 972
f 971 973 1036
f 971 1036 976
f 971 976 974
f 972 1035 1034
f 972 1034 1038
f 972 1038 1039
f 972 1039 1037
f 973 1037 1040
f 973 1040 1036
f 974 976 975
f 976 1036 1041
f 976 1041 1042
f 976 1042 977
f 977 1042 978
f 978 1042 979
f 979 1042 1043
f 979 1043 1044
f 979 1044 1045
f 979 1045 1000
f 979 1000 1001
f 980 1046 1047
f 980 1047 1048
f 980 1048 981
f 980 986 1046
f 981 1048 1049
f 981 1049 982
f 982 1049 1050
f 982 1050 987
f 983 985 984
f 986 1051 1046
f 987 1052 988
f 987 1050 1053
f 987 1053 1054
f 987 1054 1052
f 988 1052 989
f 989 1052 1055
f 989 1055 991
f 989 991 990
f 991 1055 1056
f 991 1056 1057
f 991 1057 992
f 992 1058 993
f 992 1057 1059
f 992 1059 1060
f 992 1060 1058
f 993 1058 1061
f 995 1062 996
f 995 1000 1062
f 999 1002 1000
f 1000 1002 1001
f 1000 1045 1063
f 1000 1063 1064
f 1000 1064 1062
f 1006 1065 1132
f 1006 1132 1066
f 1006 1066 1007
f 1007 1066 1067
f 1007 1067 1068
f 1007 1068 1069
f 1007 1069 1009
f 1010 1070 1011
f 1011 1070 1071
f 1011 1071 1012
f 1012 1071 1072
f 1012 1072 1138
f 1012 1138 1073
f 1012 1073 1074
f 1012 1074 1013
f 1013 1074 1075
f 1013 1075 1076
f 1013 1076 1077
f 1013 1077 1014
f 1014 1077 1076
f 1014 1076 1015
f 1015 1076 1141
f 1015 1141 1078
f 1015 1078 1017
f 1017 1078 1079
f 1017 1079 1080
f 1017 1080 1081
f 1017 1081 1018
f 1018 1081 1082
f 1018 1082 1020
f 1020 1082 1145
f 1020 1145 1083
f 1020 1083 1084
f 1020 1084 1021
f 1021 1084 1085
f 1021 1085 1087
f 1021 1087 1022
f 1022 1086 1023
f 1022 1087 1088
f 1022 1088 1086
f 1023 1086 1024
f 1024 1086 1089
f 1024 1089 1026
f 1024 1026 1025
f 1026 1089 1090
f 1026 1090 1028
f 1028 1090 1029
f 1029 1090 1091
f 1029 1091 1092
f 1029 1092 1093
f 1029 1093 1030
f 1030 1094 1031
f 1030 1093 1095
f 1030 1095 1096
f 1030 1096 1094
f 1031 1094 1032
f 1032 1094 1097
f 1032 1097 1034
f 1032 1034 1033
f 1034 1097 1098
f 1034 1098 1099
f 1034 1099 1100
f 1034 1100 1038
f 1036 1040 1041
f 1037 1039 1101
f 1037 1101 1040
f 1038 1100 1102
f 1038 1102 1103
f 1038 1103 1104
f 1038 1104 1105
f 1038 1105 1039
f 1039 1105 1104
f 1039 1104 1106
f 1039 1106 1107
f 1039 1107 1101
f 1040 1101 1108
f 1040 1108 1109
f 1040 1109 1041
f 1041 1109 1042
f 1042 1109 1110
f 1042 1110 1043
f 1043 1110 1111
f 1043 1111 1112
f 1043 1112 1044
f 1044 1112 1113
f 1044 1113 1045
f 1045 1113 1063
f 1046 1114 1047
f 1046 1051 1114
f 1047 1114 1115
f 1047 1115 1116
f 1047 1116 1048
f 1048 1116 1117
f 1048 1117 1049
f 1049 1117 1184
f 1049 1184 1118
f 1049 1118 1053
f 1049 1053 1050
f 1051 1119 1114
f 1052 1054 1055
f 1053 1120 1186
f 1053 1186 1121
f 1053 1121 1122
f 1053 1122 1054
f 1053 1118 1120
f 1054 1122 1056
f 1054 1056 1055
f 1056 1122 1123
f 1056 1123 1057
f 1057 1123 1124
f 1057 1124 1125
f 1057 1125 1126
f 1057 1126 1059
f 1058 1060 1061
f 1059 1126 1127
f 1059 1127 1060
f 1060 1127 1128
f 1060 1128 1061
f 1062 1064 1129
f 1063 1130 1131
f 1063 1131 1129
f 1063 1129 1064
f 1063 1113 1130
f 1066 1132 1133
f 1066 1133 1067
f 1067 1133 1134
f 1067 1134 1068
f 1068 1134 1069
f 1070 1135 1136
f 1070 1136 1071
f 1071 1136 1202
f 1071 1202 1137
f 1071 1137 1072
f 1072 1137 1138
f 1073 1138 1139
f 1073 1139 1140
f 1073 1140 1074
f 1074 1140 1075
f 1075 1140 1141
f 1075 1141 1076
f 1078 1141 1140
f 1078 1140 1142
f 1078 1142 1143
f 1078 1143 1079
f 1079 1143 1144
f 1079 1144 1080
f 1080 1144 1081
f 1081 1144 1145
f 1081 1145 1082
f 1083 1145 1146
f 1083 1146 1084
f 1084 1146 1085
f 1085 1146 1147
f 1085 1147 1087
f 1086 1088 1089
f 1087 1147 1088
f 1088 1147 1148
f 1088 1148 1149
f 1088 1149 1089
f 1089 1149 1090
f 1090 1149 1091
f 1091 1149 1092
f 1092 1148 1150
f 1092 1150 1151
f 1092 1151 1152
f 1092 1152 1093
f 1092 1149 1148
f 1093 1152 1151
f 1093 1151 1153
f 1093 1153 1095
f 1094 1096 1154
f 1094 1154 1155
f 1094 1155 1098
f 1094 1098 1097
f 1095 1153 1156
f 1095 1156 1157
f 1095 1157 1096
f 1096 1157 1158
f 1096 1158 1159
f 1096 1159 1160
f 1096 1160 1154
f 1098 1155 1161
f 1098 1161 1162
f 1098 1162 1100
f 1098 1100 1099
f 1100 1162 1102
f 1101 1107 1163
f 1101 1163 1108
f 1102 1164 1161
f 1102 1161 1165
f 1102 1165 1166
f 1102 1166 1167
f 1102 1167 1168
f 1102 1168 1104
f 1102 1104 1103
f 1102 1162 1164
f 1104 1169 1106
f 1104 1168 1169
f 1106 1169 1107
f 1107 1169 1170
f 1107 1170 1163
f 1108 1163 1171
f 1108 1171 1109
f 1109 1171 1110
f 1110 1171 1163
f 1110 1163 1172
f 1110 1172 1173
f 1110 1173 1174
f 1110 1174 1112
f 1110 1112 1111
f 1112 1174 1175
f 1112 1175 1176
f 1112 1176 1130
f 1112 1130 1113
f 1114 1119 1177
f 1114 1177 1115
f 1115 1177 1178
f 1115 1178 1179
f 1115 1179 1116
f 1116 1179 1180
f 1116 1180 1181
f 1116 1181 1182
f 1116 1182 1183
f 1116 1183 1117
f 1117 1183 1184
f 1118 1184 1120
f 1120 1184 1185
f 1120 1185 1186
f 1121 1186 1187
f 1121 1187 1188
f 1121 1188 1122
f 1122 1188 1189
f 1122 1189 1123
f 1123 1189 1124
f 1124 1190 1191
f 1124 1191 1125
f 1124 1189 1192
f 1124 1192 1190
f 1125 1191 1193
f 1125 1193 1126
f 1126 1193 1194
f 1126 1194 1127
f 1127 1194 1195
f 1127 1195 1196
f 1127 1196 1128
f 1130 1197 1131
f 1130 1176 1175
f 1130 1175 1197
f 1131 1197 1198
f 1135 1199 1200
f 1135 1200 1136
f 1136 1200 1201
f 1136 1201 1202
f 1137 1202 1234
f 1137 1234 1203
f 1137 1203 1138
f 1138 1203 1204
f 1138 1204 1139
f 1139 1204 1143
f 1139 1143 1140
f 1140 1143 1142
f 1143 1204 1188
f 1143 1188 1187
f 1143 1187 1144
f 1144 1187 1205
f 1144 1205 1206
f 1144 1206 1145
f 1145 1206 1205
f 1145 1205 1146
f 1146 1205 1186
f 1146 1186 1207
f 1146 1207 1147
f 1147 1207 1208
f 1147 1208 1148
f 1148 1208 1150
f 1150 1208 1209
f 1150 1209 1151
f 1151 1210 1153
f 1151 1209 1210
f 1153 1211 1156
f 1153 1210 1211
f 1154 1160 1212
f 1154 1212 1155
f 1155 1212 1161
f 1156 1211 1213
f 1156 1213 1158
f 1156 1158 1157
f 1158 1213 1214
f 1158 1214 1161
f 1158 1161 1159
f 1159 1161 1212
f 1159 1212 1160
f 1161 1215 1216
f 1161 1216 1217
f 1161 1217 1218
f 1161 1218 1219
f 1161 1219 1166
f 1161 1166 1165
f 1161 1164 1162
f 1161 1214 1215
f 1163 1170 1172
f 1166 1219 1220
f 1166 1220 1167
f 1167 1221 1170
f 1167 1170 1222
f 1167 1222 1168
f 1167 1220 1223
f 1167 1223 1221
f 1168 1222 1169
f 1169 1222 1170
f 1170 1224 1172
f 1170 1221 1225
f 1170 1225 1224
f 1172 1224 1173
f 1173 1224 1226
f 1173 1226 1174
f 1174 1226 1227
f 1174 1227 1175
f 1175 1227 1228
f 1175 1228 1197
f 1178 1229 1230
f 1178 1230 1181
f 1178 1181 1179
f 1179 1181 1180
f 1181 1231 1182
f 1181 1230 1231
f 1182 1231 1232
f 1182 1232 1183
f 1183 1232 1233
f 1183 1233 1208
f 1183 1208 1207
f 1183 1207 1185
f 1183 1185 1184
f 1185 1207 1186
f 1186 1205 1187
f 1188 1204 1203
f 1188 1203 1234
f 1188 1234 1189
f 1189 1234 1235
f 1189 1235 1192
f 1190 1236 1237
f 1190 1237 1238
f 1190 1238 1193
f 1190 1193 1191
f 1190 1192 1239
f 1190 1239 1236
f 1192 1235 1240
f 1192 1240 1241
f 1192 1241 1239
f 1193 1238 1242
f 1193 1242 1194
f 1194 1242 1243
f 1194 1243 1195
f 1197 1228 1198
f 1198 1228 1244
f 1199 1240 1200
f 1200 1240 1235
f 1200 1235 1201
f 1201 1235 1234
f 1201 1234 1202
f 1208 1233 1211
f 1208 1211 1209
f 1209 1211 1210
f 1211 1233 1232
f 1211 1232 1213
f 1213 1232 1231
f 1213 1231 1245
f 1213 1245 1214
f 1214 1245 1216
f 1214 1216 1215
f 1216 1245 1246
f 1216 1247 1217
f 1217 1247 1218
f 1221 1223 1225
f 1223 1248 1249
f 1223 1249 1225
f 1224 1225 1228
f 1224 1228 1226
f 1225 1249 1250
f 1225 1250 1251
f 1225 1251 1228
f 1226 1228 1227
f 1228 1251 1244
f 1229 1246 1231
f 1229 1231 1230
f 1231 1246 1245
f 1236 1239 1237
f 1237 1242 1238
f 1248 1252 1249
f 1249 1252 1250
f 1250 1252 1253
f 1250 1253 1251

