# https://github.com/mikedh/trimesh
v -0.01223961 0.05481042 -0.00686312
v -0.01123790 0.05481042 -0.00686312
v -0.01227375 0.05481042 -0.00679201
v -0.01221841 0.05487544 -0.00686312
v -0.01123790 0.05684651 -0.00686312
v -0.01123790 0.05481042 -0.00499039
v -0.01236948 0.05481042 -0.00658478
v -0.01226281 0.05487544 -0.00676830
v -0.01215258 0.05507050 -0.00686312
v -0.01134166 0.05668396 -0.00686312
v -0.01139544 0.05662175 -0.00683636
v -0.01136353 0.05672209 -0.00677518
v -0.01131042 0.05683166 -0.00674307
v -0.01123790 0.05691033 -0.00678512
v -0.01123790 0.05536309 0.00094897
v -0.01128632 0.05531012 0.00094897
v -0.01130283 0.05529205 0.00094897
v -0.01136152 0.05522824 0.00094897
v -0.01143338 0.05517526 0.00094897
v -0.01145703 0.05516041 0.00094897
v -0.01212022 0.05481042 0.00094897
v -0.01241857 0.05481042 -0.00647466
v -0.01234627 0.05487544 -0.00658631
v -0.01216998 0.05518088 -0.00674383
v -0.01212647 0.05523466 -0.00679889
v -0.01229740 0.05487544 -0.00669336
v -0.01214388 0.05513472 -0.00683483
v -0.01213696 0.05511505 -0.00686312
v -0.01138830 0.05661051 -0.00686312
v -0.01152732 0.05644315 -0.00680195
v -0.01150077 0.05653105 -0.00674536
v -0.01152152 0.05658443 -0.00663983
v -0.01125173 0.05708171 -0.00654883
v -0.01123790 0.05709375 -0.00656031
v -0.01123790 0.05863135 0.00094897
v -0.01268880 0.05481042 0.00094897
v -0.01243620 0.05481042 -0.00643490
v -0.01214923 0.05529326 -0.00669871
v -0.01228892 0.05511666 -0.00652513
v -0.01200128 0.05547547 -0.00684401
v -0.01201266 0.05542530 -0.00686312
v -0.01205060 0.05533460 -0.00686312
v -0.01210728 0.05519493 -0.00686312
v -0.01211174 0.05533620 -0.00674383
v -0.01141262 0.05657198 -0.00686312
v -0.01158958 0.05638656 -0.00674536
v -0.01155276 0.05648409 -0.00670177
v -0.01143985 0.05652864 -0.00686312
v -0.01151549 0.05640743 -0.00686312
v -0.01155120 0.05634923 -0.00686312
v -0.01155633 0.05634080 -0.00686312
v -0.01157931 0.05653105 -0.00658783
v -0.01154606 0.05662336 -0.00653966
v -0.01151505 0.05672370 -0.00647542
v -0.01138361 0.05690310 -0.00651366
v -0.01123790 0.05721055 -0.00641501
v -0.01123790 0.05863537 0.00093214
v -0.01139923 0.05842425 0.00091608
v -0.01135706 0.05847242 0.00094897
v -0.01335155 0.05481243 0.00094897
v -0.01335646 0.05481042 0.00091608
v -0.01245026 0.05481042 -0.00640278
v -0.01212937 0.05539360 -0.00665360
v -0.01226884 0.05521660 -0.00647466
v -0.01244579 0.05483732 -0.00639131
v -0.01242727 0.05493725 -0.00634772
v -0.01205573 0.05547547 -0.00673618
v -0.01198299 0.05555253 -0.00681265
v -0.01199080 0.05547547 -0.00686312
v -0.01199727 0.05546102 -0.00686312
v -0.01166344 0.05626535 -0.00673618
v -0.01168151 0.05629986 -0.00665972
v -0.01166076 0.05638455 -0.00660007
v -0.01156749 0.05632073 -0.00686312
v -0.01167638 0.05644034 -0.00649760
v -0.01164938 0.05652824 -0.00644331
v -0.01156704 0.05667473 -0.00642954
v -0.01153892 0.05676223 -0.00637525
v -0.01137625 0.05704157 -0.00634925
v -0.01124504 0.05722178 -0.00638672
v -0.01123790 0.05722780 -0.00639284
v -0.01123790 0.05863898 0.00091608
v -0.01126780 0.05859924 0.00091608
v -0.01145100 0.05834639 0.00094897
v -0.01139611 0.05842024 0.00094897
v -0.01127985 0.05861490 0.00076544
v -0.01135483 0.05851496 0.00076544
v -0.01141106 0.05843990 0.00076544
v -0.01148604 0.05833957 0.00076544
v -0.01153491 0.05825488 0.00085720
v -0.01148224 0.05831348 0.00091073
v -0.01316143 0.05532135 0.00094897
v -0.01316433 0.05532095 0.00092908
v -0.01334641 0.05483772 0.00091608
v -0.01336114 0.05481042 0.00088014
v -0.01249935 0.05481042 -0.00628425
v -0.01214856 0.05544016 -0.00655342
v -0.01212781 0.05554009 -0.00649913
v -0.01211330 0.05548430 -0.00659625
v -0.01205506 0.05562558 -0.00658631
v -0.01198432 0.05570505 -0.00666507
v -0.01217132 0.05548430 -0.00644407
v -0.01254085 0.05486421 -0.00612520
v -0.01228736 0.05526275 -0.00637449
v -0.01246945 0.05488227 -0.00629266
v -0.01255357 0.05481042 -0.00614584
v -0.01199928 0.05561154 -0.00672318
v -0.01195889 0.05565247 -0.00676524
v -0.01183437 0.05585516 -0.00681571
v -0.01178662 0.05590252 -0.00686312
v -0.01182210 0.05582947 -0.00686312
v -0.01193189 0.05560230 -0.00686312
v -0.01197183 0.05551641 -0.00686312
v -0.01168419 0.05615457 -0.00681495
v -0.01170294 0.05619029 -0.00673618
v -0.01163287 0.05620274 -0.00686312
v -0.01181273 0.05611323 -0.00658631
v -0.01183035 0.05614735 -0.00650678
v -0.01170338 0.05634040 -0.00655954
v -0.01183370 0.05600406 -0.00666430
v -0.01173016 0.05638455 -0.00644331
v -0.01169803 0.05647927 -0.00639819
v -0.01166969 0.05657961 -0.00633243
v -0.01163689 0.05667112 -0.00628425
v -0.01155990 0.05679594 -0.00628578
v -0.01153134 0.05689949 -0.00620931
v -0.01143784 0.05698538 -0.00629343
v -0.01139990 0.05707930 -0.00624908
v -0.01126423 0.05727316 -0.00627660
v -0.01123790 0.05729804 -0.00629878
v -0.01123790 0.05866025 0.00081514
v -0.01151817 0.05825568 0.00094897
v -0.01123790 0.05867069 0.00076544
v -0.01123790 0.05868594 0.00068974
v -0.01155321 0.05827936 0.00061556
v -0.01154205 0.05826451 0.00076544
v -0.01160609 0.05817621 0.00076544
v -0.01167103 0.05808510 0.00076544
v -0.01153491 0.05823240 0.00094897
v -0.01310118 0.05547547 0.00094897
v -0.01310609 0.05547547 0.00091608
v -0.01312728 0.05547547 0.00076544
v -0.01316946 0.05536390 0.00076544
v -0.01337542 0.05481042 0.00076544
v -0.01214633 0.05558384 -0.00639896
v -0.01210951 0.05563040 -0.00644407
v -0.01204748 0.05577569 -0.00643566
v -0.01198232 0.05585115 -0.00651137
v -0.01199794 0.05576325 -0.00657101
v -0.01185088 0.05591336 -0.00672318
v -0.01180938 0.05595550 -0.00676448
v -0.01195933 0.05580499 -0.00661154
v -0.01258303 0.05495250 -0.00591261
v -0.01258169 0.05481042 -0.00607167
v -0.01170628 0.05606346 -0.00686312
v -0.01167170 0.05613089 -0.00686312
v -0.01185178 0.05603818 -0.00658631
v -0.01188636 0.05608875 -0.00644866
v -0.01185200 0.05618748 -0.00640660
v -0.01180960 0.05623284 -0.00644866
v -0.01192430 0.05591095 -0.00657101
v -0.01179978 0.05637692 -0.00629113
v -0.01181942 0.05642750 -0.00618102
v -0.01171990 0.05652824 -0.00628425
v -0.01169156 0.05661774 -0.00623302
v -0.01168486 0.05675581 -0.00606708
v -0.01166255 0.05671768 -0.00616725
v -0.01160877 0.05682805 -0.00613820
v -0.01155477 0.05693642 -0.00610914
v -0.01152308 0.05703676 -0.00604108
v -0.01136844 0.05717924 -0.00618102
v -0.01123790 0.05735182 -0.00622384
v -0.01123790 0.05868995 0.00066756
v -0.01149697 0.05835442 0.00061556
v -0.01163689 0.05816417 0.00061556
v -0.01156302 0.05829221 0.00046568
v -0.01163800 0.05818986 0.00046568
v -0.01167839 0.05809594 0.00066526
v -0.01198321 0.05765244 0.00069509
v -0.01172324 0.05801005 0.00076544
v -0.01165741 0.05806464 0.00091608
v -0.01163711 0.05808270 0.00094897
v -0.01179844 0.05790168 0.00076544
v -0.01305097 0.05559026 0.00094897
v -0.01305365 0.05559548 0.00091608
v -0.01305945 0.05563361 0.00075779
v -0.01308154 0.05562558 0.00061556
v -0.01314335 0.05547547 0.00061556
v -0.01339194 0.05481042 0.00062321
v -0.01333236 0.05495010 0.00068897
v -0.01228490 0.05540684 -0.00621772
v -0.01216574 0.05563040 -0.00628884
v -0.01212513 0.05568378 -0.00634007
v -0.01210326 0.05577529 -0.00628884
v -0.01202739 0.05593583 -0.00629496
v -0.01199749 0.05588245 -0.00643566
v -0.01197808 0.05599242 -0.00635078
v -0.01196023 0.05595710 -0.00643566
v -0.01259642 0.05498421 -0.00583538
v -0.01257946 0.05509378 -0.00575203
v -0.01244088 0.05527078 -0.00593555
v -0.01229941 0.05544056 -0.00613590
v -0.01259619 0.05486421 -0.00597226
v -0.01263949 0.05487544 -0.00583538
v -0.01273700 0.05481243 -0.00562432
v -0.01271736 0.05491237 -0.00556621
v -0.01273432 0.05495531 -0.00546680
v -0.01258548 0.05481042 -0.00606096
v -0.01195621 0.05608032 -0.00629496
v -0.01197317 0.05613330 -0.00618943
v -0.01194661 0.05622481 -0.00613820
v -0.01187721 0.05623284 -0.00629113
v -0.01186717 0.05637692 -0.00613284
v -0.01184084 0.05646643 -0.00608084
v -0.01181295 0.05656677 -0.00601508
v -0.01177658 0.05666309 -0.00597302
v -0.01170204 0.05678591 -0.00598602
v -0.01167750 0.05689267 -0.00589961
v -0.01165808 0.05686056 -0.00598602
v -0.01158110 0.05698217 -0.00598908
v -0.01154584 0.05707248 -0.00594091
v -0.01149117 0.05712385 -0.00598908
v -0.01139120 0.05721496 -0.00608084
v -0.01125530 0.05738674 -0.00613590
v -0.01123790 0.05748146 -0.00603726
v -0.01150634 0.05836726 0.00046568
v -0.01136554 0.05852941 0.00061556
v -0.01123790 0.05870440 0.00057274
v -0.01137446 0.05854145 0.00046568
v -0.01151527 0.05837930 0.00031580
v -0.01157217 0.05830425 0.00031580
v -0.01168553 0.05810598 0.00056509
v -0.01164715 0.05820270 0.00031580
v -0.01169200 0.05811480 0.00046568
v -0.01172592 0.05803815 0.00061556
v -0.01211487 0.05747464 0.00061556
v -0.01210081 0.05745337 0.00076544
v -0.01197272 0.05763639 0.00079526
v -0.01183950 0.05781178 0.00086944
v -0.01186159 0.05784349 0.00061556
v -0.01198879 0.05766047 0.00061556
v -0.01209389 0.05756655 0.00032804
v -0.01213160 0.05749992 0.00038615
v -0.01170852 0.05798958 0.00091608
v -0.01170450 0.05798396 0.00094897
v -0.01301571 0.05566532 0.00094897
v -0.01302687 0.05568900 0.00080214
v -0.01303401 0.05570385 0.00070197
v -0.01303981 0.05571629 0.00061556
v -0.01304874 0.05573555 0.00046568
v -0.01309694 0.05562558 0.00046568
v -0.01340711 0.05481042 0.00046568
v -0.01339930 0.05481042 0.00055056
v -0.01310988 0.05562558 0.00031580
v -0.01341224 0.05481042 0.00040603
v -0.01214254 0.05572472 -0.00624066
v -0.01212111 0.05582466 -0.00617872
v -0.01209590 0.05591938 -0.00613131
v -0.01201958 0.05608032 -0.00613820
v -0.01199838 0.05603336 -0.00625061
v -0.01199392 0.05617384 -0.00609002
v -0.01262275 0.05503639 -0.00569544
v -0.01226482 0.05563281 -0.00599902
v -0.01232619 0.05548912 -0.00599902
v -0.01259642 0.05513352 -0.00565262
v -0.01273722 0.05481042 -0.00562509
v -0.01288651 0.05481042 -0.00518615
v -0.01288807 0.05481444 -0.00517698
v -0.01274793 0.05498702 -0.00538574
v -0.01265533 0.05532577 -0.00523586
v -0.01261516 0.05518048 -0.00553791
v -0.01290057 0.05486902 -0.00507374
v -0.01294386 0.05487544 -0.00493534
v -0.01196781 0.05627378 -0.00602502
v -0.01193635 0.05636769 -0.00597914
v -0.01185624 0.05652021 -0.00597302
v -0.01183392 0.05660409 -0.00591491
v -0.01173239 0.05683648 -0.00584379
v -0.01166835 0.05702833 -0.00572909
v -0.01164938 0.05697736 -0.00584379
v -0.01180023 0.05682685 -0.00569238
v -0.01183928 0.05691274 -0.00547750
v -0.01178550 0.05696813 -0.00553103
v -0.01171833 0.05697736 -0.00568167
v -0.01168977 0.05706325 -0.00562891
v -0.01156481 0.05712385 -0.00582697
v -0.01151393 0.05717242 -0.00587055
v -0.01153669 0.05720774 -0.00577038
v -0.01150701 0.05731249 -0.00568550
v -0.01128788 0.05743571 -0.00599290
v -0.01123790 0.05750916 -0.00599596
v -0.01152665 0.05734259 -0.00559832
v -0.01123790 0.05870922 0.00053986
v -0.01125062 0.05872567 0.00031580
v -0.01139165 0.05856393 0.00016592
v -0.01137982 0.05854867 0.00037162
v -0.01152397 0.05839054 0.00016592
v -0.01158065 0.05831548 0.00016592
v -0.01165563 0.05821474 0.00016592
v -0.01187208 0.05785794 0.00046568
v -0.01175448 0.05802611 0.00046568
v -0.01195710 0.05776522 0.00031580
v -0.01200954 0.05769017 0.00031580
v -0.01170093 0.05812765 0.00031580
v -0.01183325 0.05795266 0.00024851
v -0.01182723 0.05794383 0.00034868
v -0.01194706 0.05775037 0.00046568
v -0.01216307 0.05739959 0.00061556
v -0.01214968 0.05737831 0.00076544
v -0.01213852 0.05736065 0.00086561
v -0.01195822 0.05761471 0.00091608
v -0.01187744 0.05773592 0.00091838
v -0.01181183 0.05782342 0.00094897
v -0.01176453 0.05789446 0.00094897
v -0.01199928 0.05767532 0.00046568
v -0.01213852 0.05750996 0.00028598
v -0.01217712 0.05744052 0.00032804
v -0.01295256 0.05579857 0.00094897
v -0.01287178 0.05597838 0.00091608
v -0.01299786 0.05576285 0.00075779
v -0.01286933 0.05597316 0.00094897
v -0.01300366 0.05579134 0.00061556
v -0.01301326 0.05581061 0.00046568
v -0.01302196 0.05582827 0.00031580
v -0.01302821 0.05584151 0.00019727
v -0.01305610 0.05575321 0.00031580
v -0.01305655 0.05578532 0.00015445
v -0.01312104 0.05562558 0.00016592
v -0.01317638 0.05553287 -0.00013460
v -0.01341827 0.05481042 0.00031580
v -0.01215860 0.05577529 -0.00613131
v -0.01213830 0.05586479 -0.00607855
v -0.01213406 0.05600487 -0.00591567
v -0.01211665 0.05596473 -0.00601585
v -0.01208809 0.05606306 -0.00597379
v -0.01206332 0.05622601 -0.00583538
v -0.01201066 0.05622481 -0.00597914
v -0.01200530 0.05634562 -0.00583538
v -0.01198790 0.05631191 -0.00592485
v -0.01215079 0.05591938 -0.00597379
v -0.01228959 0.05586760 -0.00563197
v -0.01260735 0.05532416 -0.00538039
v -0.01259954 0.05546825 -0.00522210
v -0.01234850 0.05592580 -0.00538574
v -0.01230298 0.05592098 -0.00552568
v -0.01297019 0.05481042 -0.00493534
v -0.01274213 0.05527399 -0.00504010
v -0.01270487 0.05532456 -0.00508827
v -0.01264239 0.05547547 -0.00508522
v -0.01301214 0.05481042 -0.00480916
v -0.01303691 0.05481042 -0.00473422
v -0.01196647 0.05642067 -0.00583538
v -0.01196090 0.05653305 -0.00570003
v -0.01197495 0.05658764 -0.00559297
v -0.01188012 0.05668477 -0.00569238
v -0.01168085 0.05719891 -0.00545762
v -0.01163287 0.05711823 -0.00568167
v -0.01198790 0.05676102 -0.00532456
v -0.01186628 0.05682685 -0.00553103
v -0.01185758 0.05694445 -0.00538574
v -0.01181406 0.05701950 -0.00538574
v -0.01170896 0.05709616 -0.00553562
v -0.01155566 0.05723744 -0.00568550
v -0.01124883 0.05752481 -0.00594779
v -0.01123790 0.05753484 -0.00595696
v -0.01158757 0.05728600 -0.00554327
v -0.01154874 0.05737350 -0.00549815
v -0.01137067 0.05748427 -0.00573291
v -0.01123790 0.05872005 0.00046568
v -0.01123790 0.05874735 0.00027757
v -0.01123790 0.05876340 0.00016592
v -0.01126735 0.05874694 0.00001528
v -0.01134233 0.05864982 0.00001528
v -0.01140013 0.05857476 0.00001528
v -0.01148358 0.05848767 -0.00013460
v -0.01153513 0.05840539 -0.00003290
v -0.01160520 0.05832632 -0.00013460
v -0.01167170 0.05823642 -0.00013460
v -0.01170941 0.05813969 0.00016592
v -0.01187275 0.05788683 0.00030586
v -0.01196558 0.05777726 0.00016592
v -0.01183749 0.05795868 0.00016592
v -0.01189596 0.05787600 0.00016592
v -0.01224853 0.05729202 0.00046568
v -0.01224384 0.05726353 0.00061021
v -0.01221060 0.05727597 0.00076544
v -0.01225880 0.05731008 0.00031580
v -0.01226482 0.05712104 0.00094897
v -0.01216998 0.05727637 0.00094897
v -0.01214209 0.05732132 0.00094897
v -0.01211308 0.05736708 0.00094897
v -0.01206198 0.05744494 0.00094897
v -0.01200776 0.05753966 0.00091608
v -0.01193769 0.05763318 0.00094897
v -0.01201780 0.05770221 0.00016592
v -0.01209300 0.05759384 0.00016592
v -0.01214454 0.05751879 0.00016592
v -0.01220435 0.05742607 0.00016592
v -0.01226728 0.05732493 0.00016592
v -0.01282470 0.05607591 0.00091608
v -0.01282001 0.05607591 0.00094897
v -0.01280841 0.05609999 0.00094897
v -0.01285058 0.05606467 0.00076467
v -0.01288539 0.05600727 0.00071344
v -0.01293806 0.05592580 0.00061556
v -0.01295725 0.05592580 0.00046568
v -0.01297510 0.05592580 0.00031580
v -0.01299897 0.05591175 0.00015445
v -0.01303289 0.05585195 0.00009710
v -0.01307083 0.05577569 0.00001528
v -0.01308087 0.05577569 -0.00013460
v -0.01313108 0.05562558 0.00001528
v -0.01314090 0.05562558 -0.00013460
v -0.01318062 0.05554491 -0.00028448
v -0.01344170 0.05481042 -0.00006884
v -0.01343679 0.05481042 0.00001528
v -0.01342295 0.05481042 0.00024468
v -0.01211152 0.05623123 -0.00569620
v -0.01214678 0.05618467 -0.00565262
v -0.01212513 0.05628461 -0.00558991
v -0.01210192 0.05637452 -0.00553791
v -0.01203431 0.05639017 -0.00570003
v -0.01202382 0.05653305 -0.00554021
v -0.01200128 0.05648730 -0.00565873
v -0.01198165 0.05644957 -0.00575891
v -0.01257879 0.05569261 -0.00500033
v -0.01251452 0.05577569 -0.00508522
v -0.01246253 0.05577850 -0.00523510
v -0.01229941 0.05604059 -0.00538574
v -0.01226728 0.05611564 -0.00538574
v -0.01259530 0.05573194 -0.00490016
v -0.01303825 0.05481042 -0.00472963
v -0.01303780 0.05481283 -0.00472810
v -0.01199504 0.05662456 -0.00549280
v -0.01196737 0.05672450 -0.00542474
v -0.01194773 0.05667513 -0.00554021
v -0.01170048 0.05723061 -0.00535745
v -0.01165340 0.05727878 -0.00539874
v -0.01182991 0.05704679 -0.00530468
v -0.01184932 0.05707890 -0.00520451
v -0.01180380 0.05712787 -0.00524733
v -0.01206443 0.05667594 -0.00523586
v -0.01200485 0.05679113 -0.00523586
v -0.01196223 0.05686578 -0.00523586
v -0.01201200 0.05667513 -0.00537886
v -0.01123790 0.05757538 -0.00588967
v -0.01166880 0.05733055 -0.00527639
v -0.01157217 0.05740480 -0.00538574
v -0.01139120 0.05751317 -0.00563350
v -0.01123790 0.05760187 -0.00584532
v -0.01126646 0.05757538 -0.00582314
v -0.01123790 0.05878467 0.00001528
v -0.01140838 0.05858560 -0.00013460
v -0.01123790 0.05880554 -0.00013460
v -0.01127539 0.05875738 -0.00013460
v -0.01135862 0.05867109 -0.00028448
v -0.01141664 0.05859603 -0.00028448
v -0.01149965 0.05850854 -0.00043436
v -0.01154071 0.05841261 -0.00013460
v -0.01154852 0.05842305 -0.00028448
v -0.01155611 0.05843348 -0.00043436
v -0.01162037 0.05832632 -0.00028448
v -0.01184508 0.05796951 0.00001528
v -0.01179220 0.05804457 0.00001528
v -0.01171722 0.05815053 0.00001528
v -0.01167884 0.05824645 -0.00028448
v -0.01179956 0.05805420 -0.00013460
v -0.01229160 0.05721697 0.00046568
v -0.01230209 0.05723503 0.00031580
v -0.01236479 0.05712586 0.00031580
v -0.01228490 0.05720533 0.00055668
v -0.01227709 0.05719128 0.00065685
v -0.01226817 0.05717563 0.00076544
v -0.01229718 0.05707689 0.00091608
v -0.01229405 0.05707127 0.00094897
v -0.01231101 0.05725028 0.00016592
v -0.01242772 0.05704238 0.00019727
v -0.01197830 0.05779532 -0.00013460
v -0.01168218 0.05825127 -0.00036019
v -0.01169133 0.05826451 -0.00058501
v -0.01214968 0.05752682 0.00001528
v -0.01221551 0.05742607 0.00001528
v -0.01198142 0.05780014 -0.00022025
v -0.01227308 0.05733577 0.00001528
v -0.01231860 0.05726071 0.00001528
v -0.01244445 0.05707127 -0.00013460
v -0.01239335 0.05713429 0.00001528
v -0.01276043 0.05620795 0.00091608
v -0.01270933 0.05630348 0.00094897
v -0.01267809 0.05637612 0.00091608
v -0.01272986 0.05629585 0.00082126
v -0.01289186 0.05602012 0.00061556
v -0.01285504 0.05609517 0.00061556
v -0.01290146 0.05603938 0.00046568
v -0.01282804 0.05622601 0.00031580
v -0.01287357 0.05613330 0.00031580
v -0.01291039 0.05605825 0.00031580
v -0.01287959 0.05614534 0.00021563
v -0.01288517 0.05615658 0.00011545
v -0.01271357 0.05656235 -0.00013460
v -0.01300054 0.05593382 0.00001528
v -0.01303602 0.05585877 0.00001528
v -0.01274950 0.05648730 -0.00013460
v -0.01280261 0.05637612 -0.00013460
v -0.01304137 0.05587041 -0.00013460
v -0.01304606 0.05588085 -0.00028448
v -0.01308957 0.05577569 -0.00028448
v -0.01314915 0.05562558 -0.00028448
v -0.01318240 0.05555013 -0.00036325
v -0.01348097 0.05481042 -0.00079835
v -0.01347606 0.05481042 -0.00069894
v -0.01347004 0.05481042 -0.00058501
v -0.01346803 0.05481042 -0.00054830
v -0.01346178 0.05481042 -0.00043436
v -0.01345040 0.05481042 -0.00022713
v -0.01214231 0.05632354 -0.00548974
v -0.01211978 0.05642348 -0.00542321
v -0.01209121 0.05651660 -0.00537809
v -0.01256049 0.05577930 -0.00494451
v -0.01228066 0.05614735 -0.00530545
v -0.01257433 0.05583188 -0.00483057
v -0.01250002 0.05592580 -0.00493534
v -0.01306503 0.05481042 -0.00463558
v -0.01305141 0.05484534 -0.00463558
v -0.01171856 0.05727878 -0.00522974
v -0.01188636 0.05698819 -0.00524733
v -0.01197852 0.05689428 -0.00515098
v -0.01199727 0.05692558 -0.00505080
v -0.01195130 0.05697575 -0.00509439
v -0.01186583 0.05712787 -0.00507757
v -0.01181875 0.05717884 -0.00512192
v -0.01211687 0.05656717 -0.00523586
v -0.01211085 0.05668035 -0.00509669
v -0.01212402 0.05673333 -0.00498351
v -0.01203119 0.05683728 -0.00509439
v -0.01168776 0.05735905 -0.00517621
v -0.01151616 0.05747986 -0.00538574
v -0.01141106 0.05753966 -0.00553562
v -0.01161011 0.05742969 -0.00524274
v -0.01156838 0.05757658 -0.00507374
v -0.01151415 0.05762716 -0.00511580
v -0.01153156 0.05750033 -0.00530927
v -0.01123790 0.05764321 -0.00577267
v -0.01123790 0.05882039 -0.00024548
v -0.01128141 0.05878989 -0.00043207
v -0.01136643 0.05868112 -0.00043436
v -0.01142467 0.05860607 -0.00043436
v -0.01150746 0.05851857 -0.00058501
v -0.01156302 0.05844352 -0.00058501
v -0.01241991 0.05702833 0.00031580
v -0.01240830 0.05700786 0.00046568
v -0.01231548 0.05713509 0.00061021
v -0.01231012 0.05710097 0.00076544
v -0.01235453 0.05697575 0.00091608
v -0.01242058 0.05684772 0.00094897
v -0.01243709 0.05705923 0.00001528
v -0.01243285 0.05705201 0.00009710
v -0.01239246 0.05711141 0.00015445
v -0.01255447 0.05684812 0.00001528
v -0.01255201 0.05681641 0.00017280
v -0.01246074 0.05695327 0.00031580
v -0.01256295 0.05686458 -0.00013460
v -0.01181206 0.05807146 -0.00043436
v -0.01163800 0.05833957 -0.00058501
v -0.01156883 0.05845235 -0.00073489
v -0.01164380 0.05834639 -0.00073489
v -0.01169602 0.05827174 -0.00073489
v -0.01175136 0.05817621 -0.00058501
v -0.01186293 0.05799681 -0.00043436
v -0.01215481 0.05753404 -0.00013460
v -0.01222532 0.05742607 -0.00013460
v -0.01227799 0.05734380 -0.00013460
v -0.01198477 0.05780496 -0.00032042
v -0.01232462 0.05726874 -0.00013460
v -0.01245070 0.05708091 -0.00028448
v -0.01239938 0.05714633 -0.00013460
v -0.01250024 0.05697575 -0.00013460
v -0.01251318 0.05697575 -0.00028448
v -0.01267363 0.05637612 0.00094897
v -0.01260958 0.05650375 0.00094897
v -0.01261628 0.05653827 0.00077003
v -0.01264261 0.05652583 0.00061556
v -0.01270621 0.05639780 0.00061556
v -0.01273633 0.05630909 0.00072109
v -0.01279078 0.05622601 0.00061556
v -0.01271558 0.05641706 0.00046568
v -0.01276177 0.05636087 0.00031580
v -0.01273031 0.05644716 0.00022404
v -0.01276534 0.05638856 0.00017051
v -0.01270554 0.05654670 0.00001528
v -0.01274236 0.05647165 0.00001528
v -0.01265868 0.05667594 -0.00013460
v -0.01267162 0.05667594 -0.00028448
v -0.01294453 0.05607591 -0.00013460
v -0.01300612 0.05594546 -0.00013460
v -0.01281354 0.05637612 -0.00028448
v -0.01295501 0.05607591 -0.00028448
v -0.01301125 0.05595590 -0.00028448
v -0.01296349 0.05607591 -0.00043436
v -0.01301526 0.05596393 -0.00043436
v -0.01304941 0.05588887 -0.00043436
v -0.01309627 0.05577569 -0.00043436
v -0.01315986 0.05561354 -0.00042213
v -0.01318664 0.05556137 -0.00058501
v -0.01350195 0.05485016 -0.00163493
v -0.01349905 0.05484253 -0.00148505
v -0.01349592 0.05483410 -0.00133517
v -0.01349258 0.05482568 -0.00118452
v -0.01349168 0.05481042 -0.00103464
v -0.01215682 0.05637452 -0.00537809
v -0.01229740 0.05618467 -0.00520604
v -0.01213651 0.05646041 -0.00532303
v -0.01243575 0.05600888 -0.00502098
v -0.01241902 0.05596995 -0.00512116
v -0.01258749 0.05586238 -0.00473040
v -0.01254889 0.05591777 -0.00478240
v -0.01242928 0.05614454 -0.00484969
v -0.01236658 0.05622601 -0.00493534
v -0.01244959 0.05603938 -0.00493534
v -0.01303111 0.05494769 -0.00455605
v -0.01304472 0.05497739 -0.00445587
v -0.01308377 0.05481042 -0.00456370
v -0.01307038 0.05488869 -0.00449793
v -0.01178148 0.05726473 -0.00507757
v -0.01183616 0.05720733 -0.00502175
v -0.01209456 0.05681922 -0.00493457
v -0.01201623 0.05695609 -0.00493534
v -0.01213049 0.05659687 -0.00515480
v -0.01214678 0.05663299 -0.00505463
v -0.01226906 0.05642148 -0.00496745
v -0.01230387 0.05637331 -0.00492463
v -0.01216284 0.05668035 -0.00493457
v -0.01213919 0.05676464 -0.00488334
v -0.01170383 0.05738313 -0.00508522
v -0.01165094 0.05745818 -0.00508522
v -0.01137402 0.05764040 -0.00544080
v -0.01135505 0.05761471 -0.00553562
v -0.01153401 0.05765364 -0.00501563
v -0.01133407 0.05772067 -0.00538880
v -0.01139410 0.05766689 -0.00534062
v -0.01124973 0.05767452 -0.00568550
v -0.01123790 0.05769017 -0.00568550
v -0.01123790 0.05882561 -0.00028448
v -0.01123790 0.05883645 -0.00036554
v -0.01123790 0.05885090 -0.00047718
v -0.01123790 0.05885892 -0.00053989
v -0.01137424 0.05869116 -0.00058501
v -0.01143248 0.05861610 -0.00058501
v -0.01151415 0.05852740 -0.00073489
v -0.01250805 0.05682604 0.00046568
v -0.01244981 0.05693281 0.00046568
v -0.01246074 0.05683287 0.00075091
v -0.01245628 0.05679434 0.00091608
v -0.01245338 0.05678912 0.00094897
v -0.01259352 0.05677307 0.00001528
v -0.01260222 0.05678992 -0.00013460
v -0.01258080 0.05674818 0.00022786
v -0.01252880 0.05682604 0.00031580
v -0.01256986 0.05687782 -0.00028448
v -0.01151929 0.05853382 -0.00088476
v -0.01157307 0.05845877 -0.00088476
v -0.01164804 0.05835121 -0.00088476
v -0.01169892 0.05827615 -0.00088476
v -0.01175984 0.05817621 -0.00073489
v -0.01186740 0.05800363 -0.00058501
v -0.01181719 0.05807868 -0.00058501
v -0.01193813 0.05788523 -0.00043436
v -0.01210906 0.05761632 -0.00028448
v -0.01215905 0.05754126 -0.00028448
v -0.01224295 0.05741203 -0.00028525
v -0.01228089 0.05734861 -0.00023554
v -0.01232061 0.05728961 -0.00028525
v -0.01245517 0.05708733 -0.00043436
v -0.01258281 0.05690190 -0.00065000
v -0.01257544 0.05688826 -0.00043436
v -0.01257901 0.05656235 0.00094897
v -0.01257968 0.05659607 0.00082279
v -0.01258660 0.05660931 0.00072262
v -0.01259374 0.05662376 0.00061556
v -0.01260333 0.05664303 0.00046568
v -0.01266158 0.05652583 0.00046568
v -0.01264194 0.05667594 0.00001528
v -0.01260914 0.05680317 -0.00028448
v -0.01261427 0.05681360 -0.00043436
v -0.01268166 0.05667594 -0.00043436
v -0.01276021 0.05651018 -0.00043436
v -0.01290101 0.05619069 -0.00028448
v -0.01287044 0.05627538 -0.00043436
v -0.01290548 0.05620033 -0.00043436
v -0.01290905 0.05620876 -0.00058501
v -0.01297063 0.05607591 -0.00058501
v -0.01273187 0.05660008 -0.00067447
v -0.01301883 0.05597115 -0.00058501
v -0.01305275 0.05589610 -0.00058501
v -0.01310251 0.05577569 -0.00058501
v -0.01315719 0.05563642 -0.00058501
v -0.01316009 0.05564324 -0.00073489
v -0.01347249 0.05492521 -0.00163493
v -0.01350329 0.05485377 -0.00178481
v -0.01351556 0.05481042 -0.00163493
v -0.01351065 0.05481042 -0.00148505
v -0.01350463 0.05481042 -0.00133517
v -0.01349815 0.05481042 -0.00118452
v -0.01231570 0.05623123 -0.00508751
v -0.01220279 0.05637612 -0.00523586
v -0.01244245 0.05617344 -0.00474952
v -0.01234181 0.05637612 -0.00478546
v -0.01264953 0.05577569 -0.00463558
v -0.01259954 0.05588968 -0.00463558
v -0.01256607 0.05596473 -0.00463558
v -0.01228446 0.05645559 -0.00486728
v -0.01229138 0.05632114 -0.00503857
v -0.01273432 0.05570505 -0.00441840
v -0.01272205 0.05567696 -0.00451858
v -0.01305498 0.05502676 -0.00432511
v -0.01303445 0.05510542 -0.00426852
v -0.01310162 0.05481042 -0.00449181
v -0.01312282 0.05481042 -0.00440005
v -0.01311278 0.05487544 -0.00433505
v -0.01197027 0.05703114 -0.00493534
v -0.01191203 0.05712586 -0.00493534
v -0.01184888 0.05722780 -0.00493534
v -0.01180224 0.05730286 -0.00493534
v -0.01211263 0.05686377 -0.00478546
v -0.01203453 0.05699020 -0.00479922
v -0.01198165 0.05704960 -0.00485810
v -0.01225233 0.05637331 -0.00508751
v -0.01226080 0.05655352 -0.00478546
v -0.01220479 0.05667594 -0.00478546
v -0.01215124 0.05678952 -0.00478546
v -0.01212580 0.05688826 -0.00468452
v -0.01172101 0.05743169 -0.00492998
v -0.01167103 0.05748548 -0.00497586
v -0.01154941 0.05767411 -0.00493534
v -0.01123790 0.05776000 -0.00555397
v -0.01139566 0.05781900 -0.00504469
v -0.01125307 0.05782864 -0.00538574
v -0.01123790 0.05780897 -0.00546144
v -0.01149229 0.05774917 -0.00493534
v -0.01141731 0.05784710 -0.00493534
v -0.01135974 0.05792215 -0.00493534
v -0.01123790 0.05886494 -0.00059036
v -0.01124035 0.05886133 -0.00058501
v -0.01137937 0.05869798 -0.00069512
v -0.01142847 0.05863938 -0.00074100
v -0.01256540 0.05671808 0.00046568
v -0.01255447 0.05669881 0.00061556
v -0.01257276 0.05658322 0.00091608
v -0.01248551 0.05682604 0.00061556
v -0.01252166 0.05667594 0.00091608
v -0.01257009 0.05657881 0.00094897
v -0.01251631 0.05667594 0.00094897
v -0.01257522 0.05673694 0.00031580
v -0.01144810 0.05862614 -0.00088476
v -0.01145725 0.05862614 -0.00103464
v -0.01152375 0.05853984 -0.00103464
v -0.01138317 0.05870279 -0.00079530
v -0.01157619 0.05846479 -0.00103464
v -0.01165117 0.05835522 -0.00103464
v -0.01170138 0.05828016 -0.00103464
v -0.01176542 0.05817621 -0.00088476
v -0.01182098 0.05808430 -0.00073489
v -0.01194237 0.05789125 -0.00058501
v -0.01198834 0.05781018 -0.00043436
v -0.01211330 0.05762234 -0.00043436
v -0.01216240 0.05754729 -0.00043436
v -0.01223760 0.05743129 -0.00043436
v -0.01228357 0.05735303 -0.00033572
v -0.01234716 0.05727597 -0.00073489
v -0.01246119 0.05709656 -0.00073489
v -0.01253617 0.05697776 -0.00073489
v -0.01258347 0.05690270 -0.00073489
v -0.01262386 0.05682604 -0.00073489
v -0.01261226 0.05683809 -0.00059418
v -0.01233667 0.05727597 -0.00043436
v -0.01241143 0.05716800 -0.00058501
v -0.01234270 0.05727597 -0.00058501
v -0.01269126 0.05667594 -0.00058501
v -0.01272941 0.05659486 -0.00058501
v -0.01302196 0.05597797 -0.00073489
v -0.01270420 0.05666269 -0.00072877
v -0.01273343 0.05660369 -0.00077465
v -0.01283764 0.05637612 -0.00073489
v -0.01291217 0.05621518 -0.00073489
v -0.01297666 0.05607591 -0.00073489
v -0.01305565 0.05590292 -0.00073489
v -0.01310809 0.05577569 -0.00073489
v -0.01347361 0.05492883 -0.00178481
v -0.01311278 0.05577569 -0.00088476
v -0.01311680 0.05577569 -0.00103464
v -0.01316633 0.05566050 -0.00118452
v -0.01311970 0.05577569 -0.00118452
v -0.01351734 0.05481042 -0.00178481
v -0.01350240 0.05485096 -0.00193545
v -0.01351556 0.05481042 -0.00193545
v -0.01257790 0.05599122 -0.00454152
v -0.01269483 0.05576325 -0.00447499
v -0.01261538 0.05593503 -0.00448876
v -0.01290258 0.05544618 -0.00418517
v -0.01273499 0.05585677 -0.00412170
v -0.01271045 0.05580178 -0.00433505
v -0.01265511 0.05592580 -0.00433505
v -0.01308623 0.05502555 -0.00418517
v -0.01304405 0.05512669 -0.00418517
v -0.01295591 0.05532577 -0.00418517
v -0.01313509 0.05481042 -0.00433964
v -0.01315049 0.05486140 -0.00417141
v -0.01311613 0.05502555 -0.00403529
v -0.01195219 0.05712385 -0.00479922
v -0.01196580 0.05717442 -0.00463558
v -0.01181920 0.05733015 -0.00481146
v -0.01168687 0.05750835 -0.00487645
v -0.01209233 0.05696692 -0.00463481
v -0.01201222 0.05709937 -0.00463558
v -0.01199548 0.05707208 -0.00475793
v -0.01237840 0.05637612 -0.00463558
v -0.01227397 0.05658282 -0.00467458
v -0.01228580 0.05660811 -0.00457440
v -0.01224630 0.05666550 -0.00462869
v -0.01226080 0.05670524 -0.00448493
v -0.01216485 0.05683367 -0.00463481
v -0.01213830 0.05691113 -0.00458434
v -0.01162930 0.05756535 -0.00492998
v -0.01157418 0.05770903 -0.00478546
v -0.01151906 0.05778409 -0.00478546
v -0.01137692 0.05794463 -0.00484510
v -0.01127806 0.05803092 -0.00493075
v -0.01123790 0.05795908 -0.00517086
v -0.01123857 0.05810959 -0.00487722
v -0.01123790 0.05887979 -0.00073489
v -0.01124682 0.05886936 -0.00073489
v -0.01133229 0.05876220 -0.00074100
v -0.01138607 0.05870641 -0.00088476
v -0.01139053 0.05871243 -0.00103464
v -0.01139343 0.05871604 -0.00118452
v -0.01146261 0.05862614 -0.00118452
v -0.01152643 0.05854305 -0.00118452
v -0.01132693 0.05878146 -0.00088476
v -0.01157753 0.05846800 -0.00118452
v -0.01165251 0.05835682 -0.00118452
v -0.01177010 0.05817621 -0.00103464
v -0.01194862 0.05790008 -0.00088476
v -0.01187364 0.05801326 -0.00088476
v -0.01170227 0.05828177 -0.00118452
v -0.01194594 0.05789607 -0.00073489
v -0.01199214 0.05781620 -0.00058501
v -0.01211687 0.05762716 -0.00058501
v -0.01228557 0.05735624 -0.00043436
v -0.01212000 0.05763157 -0.00073489
v -0.01216798 0.05755692 -0.00073489
v -0.01229093 0.05736427 -0.00073489
v -0.01212134 0.05763398 -0.00088476
v -0.01216909 0.05755892 -0.00088476
v -0.01229182 0.05736547 -0.00088476
v -0.01234850 0.05727597 -0.00088476
v -0.01246119 0.05709696 -0.00088476
v -0.01258325 0.05690230 -0.00088476
v -0.01262386 0.05682604 -0.00088476
v -0.01269795 0.05667915 -0.00088476
v -0.01291440 0.05621999 -0.00088476
v -0.01298090 0.05607591 -0.00088476
v -0.01302598 0.05598680 -0.00103464
v -0.01305766 0.05590774 -0.00088476
v -0.01273388 0.05660409 -0.00088476
v -0.01288026 0.05629665 -0.00103464
v -0.01291574 0.05622160 -0.00103464
v -0.01298447 0.05607591 -0.00103464
v -0.01284166 0.05637612 -0.00088476
v -0.01287959 0.05629505 -0.00088476
v -0.01347227 0.05492561 -0.00193545
v -0.01311947 0.05577569 -0.00133517
v -0.01305945 0.05591175 -0.00103464
v -0.01306079 0.05591296 -0.00118452
v -0.01346602 0.05490996 -0.00208533
v -0.01349615 0.05483491 -0.00208533
v -0.01350440 0.05481042 -0.00208533
v -0.01243174 0.05629986 -0.00455834
v -0.01260200 0.05604380 -0.00433505
v -0.01251809 0.05622601 -0.00433505
v -0.01287937 0.05554371 -0.00409647
v -0.01261650 0.05608554 -0.00418976
v -0.01269661 0.05591416 -0.00417676
v -0.01289030 0.05556859 -0.00399629
v -0.01274436 0.05587763 -0.00403529
v -0.01271089 0.05595269 -0.00403529
v -0.01265577 0.05607591 -0.00403529
v -0.01305588 0.05517887 -0.00402612
v -0.01303468 0.05525553 -0.00397030
v -0.01302352 0.05523065 -0.00407047
v -0.01315562 0.05481042 -0.00423641
v -0.01316366 0.05481042 -0.00419588
v -0.01317816 0.05481042 -0.00412170
v -0.01316366 0.05489672 -0.00403529
v -0.01308466 0.05517566 -0.00388541
v -0.01315094 0.05501150 -0.00387241
v -0.01197808 0.05719409 -0.00454076
v -0.01183259 0.05735142 -0.00471128
v -0.01177814 0.05741123 -0.00477093
v -0.01169937 0.05752722 -0.00478546
v -0.01164916 0.05760227 -0.00478546
v -0.01230900 0.05653024 -0.00462869
v -0.01229606 0.05663018 -0.00448493
v -0.01242326 0.05643151 -0.00433505
v -0.01257857 0.05629304 -0.00394353
v -0.01227375 0.05673253 -0.00437099
v -0.01228490 0.05675581 -0.00427158
v -0.01214878 0.05692959 -0.00448493
v -0.01210505 0.05700465 -0.00448493
v -0.01153134 0.05780014 -0.00470669
v -0.01143851 0.05788723 -0.00479157
v -0.01139343 0.05796590 -0.00474493
v -0.01133653 0.05802008 -0.00479157
v -0.01123790 0.05806664 -0.00496210
v -0.01123790 0.05810878 -0.00487951
v -0.01125374 0.05812925 -0.00478546
v -0.01123790 0.05814932 -0.00478546
v -0.01123790 0.05888180 -0.00075706
v -0.01125196 0.05887538 -0.00088476
v -0.01133162 0.05878748 -0.00103464
v -0.01133474 0.05879109 -0.00118452
v -0.01139254 0.05871484 -0.00133517
v -0.01146038 0.05862614 -0.00133517
v -0.01152487 0.05854105 -0.00133517
v -0.01157597 0.05846599 -0.00133517
v -0.01165094 0.05835442 -0.00133517
v -0.01182589 0.05809153 -0.00103464
v -0.01199771 0.05782502 -0.00088476
v -0.01205819 0.05772589 -0.00073489
v -0.01199548 0.05782101 -0.00073489
v -0.01170048 0.05827936 -0.00133517
v -0.01177077 0.05817621 -0.00118452
v -0.01194996 0.05790128 -0.00103464
v -0.01187498 0.05801647 -0.00103464
v -0.01206198 0.05772589 -0.00088476
v -0.01199838 0.05782623 -0.00103464
v -0.01206243 0.05772589 -0.00103464
v -0.01212134 0.05763358 -0.00103464
v -0.01224384 0.05743972 -0.00103464
v -0.01229115 0.05736467 -0.00103464
v -0.01258258 0.05690110 -0.00097806
v -0.01261405 0.05684049 -0.00103082
v -0.01269683 0.05667754 -0.00103464
v -0.01284233 0.05637612 -0.00103464
v -0.01302642 0.05598801 -0.00118452
v -0.01298447 0.05607591 -0.00118452
v -0.01316567 0.05566130 -0.00148505
v -0.01319601 0.05558224 -0.00163493
v -0.01316343 0.05565729 -0.00163493
v -0.01319311 0.05557501 -0.00178481
v -0.01316009 0.05565006 -0.00178481
v -0.01318910 0.05556578 -0.00193545
v -0.01318486 0.05555615 -0.00208533
v -0.01318262 0.05555093 -0.00216180
v -0.01306012 0.05590974 -0.00133517
v -0.01311613 0.05577569 -0.00148505
v -0.01345977 0.05486902 -0.00224209
v -0.01317682 0.05553769 -0.00226197
v -0.01316991 0.05552043 -0.00238509
v -0.01310742 0.05562558 -0.00253497
v -0.01308779 0.05562558 -0.00268561
v -0.01315451 0.05546424 -0.00268026
v -0.01312751 0.05547547 -0.00283549
v -0.01349949 0.05481042 -0.00212433
v -0.01348811 0.05481484 -0.00219621
v -0.01258995 0.05616741 -0.00414312
v -0.01260222 0.05619471 -0.00403529
v -0.01290213 0.05559548 -0.00388541
v -0.01282202 0.05577569 -0.00388541
v -0.01272339 0.05598119 -0.00391830
v -0.01261561 0.05623605 -0.00389000
v -0.01304293 0.05527520 -0.00388541
v -0.01301036 0.05535025 -0.00388541
v -0.01319400 0.05481042 -0.00403529
v -0.01318999 0.05482206 -0.00403529
v -0.01317437 0.05492762 -0.00391371
v -0.01316232 0.05504562 -0.00373477
v -0.01311099 0.05517566 -0.00373477
v -0.01305632 0.05530690 -0.00373477
v -0.01318307 0.05495210 -0.00381353
v -0.01202427 0.05713670 -0.00448876
v -0.01206310 0.05712586 -0.00433505
v -0.01198879 0.05721055 -0.00444058
v -0.01194103 0.05726673 -0.00448876
v -0.01180893 0.05746621 -0.00448493
v -0.01171766 0.05755371 -0.00463558
v -0.01179264 0.05744052 -0.00463558
v -0.01166723 0.05762876 -0.00463558
v -0.01265332 0.05622601 -0.00373477
v -0.01258950 0.05631632 -0.00384336
v -0.01256585 0.05641666 -0.00373477
v -0.01255380 0.05637010 -0.00389000
v -0.01245762 0.05650415 -0.00403529
v -0.01242169 0.05657921 -0.00403529
v -0.01243062 0.05659807 -0.00395271
v -0.01244088 0.05661814 -0.00385253
v -0.01240473 0.05667112 -0.00389612
v -0.01241388 0.05671607 -0.00373477
v -0.01229361 0.05677226 -0.00418517
v -0.01225344 0.05684732 -0.00418517
v -0.01226817 0.05687461 -0.00403529
v -0.01216396 0.05695568 -0.00433505
v -0.01212959 0.05704599 -0.00424635
v -0.01212045 0.05703074 -0.00433505
v -0.01158578 0.05774034 -0.00464858
v -0.01154160 0.05781419 -0.00460728
v -0.01138919 0.05811119 -0.00429529
v -0.01137893 0.05809674 -0.00439470
v -0.01136889 0.05808350 -0.00448493
v -0.01128699 0.05818986 -0.00449564
v -0.01123790 0.05824043 -0.00454381
v -0.01127561 0.05815855 -0.00463558
v -0.01123790 0.05820752 -0.00463558
v -0.01123790 0.05889183 -0.00088476
v -0.01123790 0.05889464 -0.00092071
v -0.01125664 0.05888100 -0.00103464
v -0.01125977 0.05888501 -0.00118452
v -0.01125887 0.05888421 -0.00133517
v -0.01133385 0.05878989 -0.00133517
v -0.01133095 0.05878588 -0.00148505
v -0.01138919 0.05871082 -0.00148505
v -0.01145346 0.05862614 -0.00148505
v -0.01152107 0.05853583 -0.00148505
v -0.01157284 0.05846078 -0.00148505
v -0.01164782 0.05834960 -0.00148505
v -0.01169758 0.05827495 -0.00148505
v -0.01176676 0.05817621 -0.00133517
v -0.01182589 0.05809113 -0.00118452
v -0.01194907 0.05789928 -0.00118452
v -0.01199704 0.05782422 -0.00118452
v -0.01205975 0.05772589 -0.00118452
v -0.01211978 0.05763117 -0.00118452
v -0.01216708 0.05755611 -0.00118452
v -0.01228937 0.05736186 -0.00118452
v -0.01234337 0.05727597 -0.00118452
v -0.01258169 0.05689989 -0.00107823
v -0.01262029 0.05682243 -0.00118452
v -0.01270219 0.05666109 -0.00117382
v -0.01273254 0.05660128 -0.00111647
v -0.01291552 0.05621959 -0.00118452
v -0.01302464 0.05598480 -0.00133517
v -0.01311122 0.05577569 -0.00163493
v -0.01310363 0.05577569 -0.00178481
v -0.01305119 0.05589008 -0.00178481
v -0.01304584 0.05587884 -0.00193545
v -0.01308332 0.05577569 -0.00208533
v -0.01303579 0.05585797 -0.00220080
v -0.01306413 0.05578974 -0.00224439
v -0.01303155 0.05584914 -0.00230097
v -0.01302798 0.05584111 -0.00238509
v -0.01306212 0.05576606 -0.00238509
v -0.01302017 0.05582345 -0.00253497
v -0.01305365 0.05574840 -0.00253497
v -0.01312461 0.05562558 -0.00238509
v -0.01305789 0.05590453 -0.00148505
v -0.01334708 0.05498662 -0.00268561
v -0.01301102 0.05580178 -0.00268561
v -0.01304383 0.05572672 -0.00268561
v -0.01303646 0.05571027 -0.00278732
v -0.01306101 0.05563562 -0.00283626
v -0.01310542 0.05547547 -0.00298461
v -0.01316723 0.05521259 -0.00328513
v -0.01348923 0.05481042 -0.00219927
v -0.01347606 0.05481042 -0.00228492
v -0.01348655 0.05481042 -0.00221686
v -0.01318129 0.05509739 -0.00350230
v -0.01336114 0.05488748 -0.00284390
v -0.01337944 0.05481042 -0.00291120
v -0.01287870 0.05569261 -0.00378983
v -0.01270955 0.05609959 -0.00373477
v -0.01302441 0.05538196 -0.00373477
v -0.01322168 0.05481042 -0.00387777
v -0.01324645 0.05481042 -0.00373477
v -0.01318976 0.05497097 -0.00373477
v -0.01320248 0.05500468 -0.00358489
v -0.01317481 0.05507973 -0.00358489
v -0.01313599 0.05517566 -0.00358489
v -0.01309783 0.05532577 -0.00343501
v -0.01303133 0.05539801 -0.00365295
v -0.01327233 0.05481042 -0.00358336
v -0.01324912 0.05487544 -0.00358489
v -0.01209724 0.05711823 -0.00419206
v -0.01210616 0.05715676 -0.00403529
v -0.01199995 0.05722780 -0.00433505
v -0.01195018 0.05730286 -0.00433505
v -0.01196625 0.05732694 -0.00418517
v -0.01197696 0.05734299 -0.00408270
v -0.01182455 0.05748949 -0.00433505
v -0.01167727 0.05764401 -0.00453540
v -0.01268255 0.05622601 -0.00358489
v -0.01261181 0.05638415 -0.00358336
v -0.01260110 0.05634161 -0.00373477
v -0.01257678 0.05643954 -0.00363307
v -0.01258682 0.05646001 -0.00353289
v -0.01254777 0.05651620 -0.00358336
v -0.01255848 0.05655392 -0.00343501
v -0.01245293 0.05664102 -0.00373477
v -0.01252479 0.05667594 -0.00328513
v -0.01242504 0.05673734 -0.00362236
v -0.01230900 0.05679996 -0.00403529
v -0.01227776 0.05689227 -0.00393588
v -0.01245874 0.05679554 -0.00328513
v -0.01221104 0.05697575 -0.00403529
v -0.01215035 0.05708211 -0.00403529
v -0.01213941 0.05706325 -0.00414617
v -0.01155365 0.05783104 -0.00448493
v -0.01151438 0.05792657 -0.00433505
v -0.01140013 0.05812604 -0.00418517
v -0.01134568 0.05820110 -0.00418517
v -0.01127070 0.05830344 -0.00418517
v -0.01125441 0.05828097 -0.00433505
v -0.01123790 0.05826732 -0.00445511
v -0.01123790 0.05825929 -0.00448187
v -0.01123790 0.05890307 -0.00103464
v -0.01123790 0.05890548 -0.00108129
v -0.01123790 0.05891070 -0.00118452
v -0.01123790 0.05891030 -0.00123576
v -0.01123790 0.05890909 -0.00133517
v -0.01123790 0.05890709 -0.00138258
v -0.01123790 0.05890227 -0.00148505
v -0.01125597 0.05888060 -0.00148505
v -0.01125218 0.05887618 -0.00163493
v -0.01132716 0.05878026 -0.00163493
v -0.01138495 0.05870520 -0.00163493
v -0.01144453 0.05862614 -0.00163493
v -0.01151683 0.05852981 -0.00163493
v -0.01156883 0.05845476 -0.00163493
v -0.01164380 0.05834478 -0.00163493
v -0.01169423 0.05826973 -0.00163493
v -0.01176095 0.05817621 -0.00148505
v -0.01199437 0.05782021 -0.00133517
v -0.01211710 0.05762675 -0.00133517
v -0.01233734 0.05727597 -0.00133517
v -0.01245829 0.05709255 -0.00118452
v -0.01253126 0.05697575 -0.00118452
v -0.01258035 0.05689708 -0.00118452
v -0.01261739 0.05681681 -0.00133517
v -0.01268925 0.05667594 -0.00133517
v -0.01276088 0.05653988 -0.00117382
v -0.01273120 0.05659888 -0.00121664
v -0.01283987 0.05637612 -0.00118452
v -0.01283563 0.05637612 -0.00133517
v -0.01287714 0.05629023 -0.00133517
v -0.01298068 0.05607591 -0.00133517
v -0.01302218 0.05597958 -0.00148505
v -0.01305521 0.05589851 -0.00163493
v -0.01301928 0.05597356 -0.00163493
v -0.01301504 0.05596513 -0.00178481
v -0.01295144 0.05607591 -0.00193545
v -0.01301013 0.05595389 -0.00193545
v -0.01304026 0.05586760 -0.00208533
v -0.01291217 0.05608875 -0.00238738
v -0.01272964 0.05644516 -0.00257167
v -0.01298849 0.05592580 -0.00238509
v -0.01291105 0.05606266 -0.00253497
v -0.01297398 0.05592580 -0.00253497
v -0.01272473 0.05643432 -0.00268561
v -0.01290258 0.05604540 -0.00268561
v -0.01295613 0.05592580 -0.00268561
v -0.01285951 0.05609878 -0.00283549
v -0.01293538 0.05592580 -0.00283549
v -0.01278252 0.05622601 -0.00298461
v -0.01288539 0.05600808 -0.00293108
v -0.01285281 0.05606507 -0.00298231
v -0.01287781 0.05599002 -0.00303049
v -0.01305365 0.05559949 -0.00298461
v -0.01308243 0.05547547 -0.00313449
v -0.01312126 0.05532577 -0.00328513
v -0.01316053 0.05516964 -0.00344495
v -0.01330357 0.05486300 -0.00327519
v -0.01334061 0.05482206 -0.00313449
v -0.01333637 0.05481042 -0.00318955
v -0.01298358 0.05547547 -0.00373477
v -0.01288785 0.05571348 -0.00368965
v -0.01272406 0.05613210 -0.00358489
v -0.01327367 0.05487544 -0.00343501
v -0.01331830 0.05481042 -0.00330425
v -0.01333079 0.05481042 -0.00322549
v -0.01304941 0.05544016 -0.00343501
v -0.01303959 0.05541728 -0.00355354
v -0.01305699 0.05548230 -0.00327748
v -0.01301705 0.05551521 -0.00343501
v -0.01272629 0.05628702 -0.00317349
v -0.01329710 0.05481042 -0.00343501
v -0.01201557 0.05725189 -0.00418517
v -0.01212111 0.05718165 -0.00388541
v -0.01202405 0.05728600 -0.00403376
v -0.01205997 0.05727597 -0.00388541
v -0.01198678 0.05735704 -0.00398330
v -0.01183214 0.05750073 -0.00425935
v -0.01168709 0.05765766 -0.00443523
v -0.01163644 0.05771505 -0.00448493
v -0.01264261 0.05637612 -0.00343501
v -0.01259575 0.05647887 -0.00343501
v -0.01258102 0.05659847 -0.00320254
v -0.01257321 0.05658282 -0.00328513
v -0.01255469 0.05667032 -0.00314596
v -0.01246677 0.05683407 -0.00312684
v -0.01156816 0.05785151 -0.00433505
v -0.01152509 0.05794142 -0.00422417
v -0.01153468 0.05795466 -0.00412400
v -0.01148939 0.05804136 -0.00403529
v -0.01136041 0.05822117 -0.00403529
v -0.01127695 0.05833676 -0.00403224
v -0.01123790 0.05838010 -0.00406894
v -0.01123790 0.05834719 -0.00418517
v -0.01123790 0.05889344 -0.00163493
v -0.01123790 0.05889023 -0.00166628
v -0.01124482 0.05886735 -0.00178481
v -0.01138227 0.05870159 -0.00171140
v -0.01150902 0.05851937 -0.00178481
v -0.01156191 0.05844432 -0.00178481
v -0.01163689 0.05833515 -0.00178481
v -0.01168821 0.05826010 -0.00178481
v -0.01174333 0.05817621 -0.00178481
v -0.01181228 0.05806985 -0.00178481
v -0.01175404 0.05817621 -0.00163493
v -0.01182054 0.05808270 -0.00148505
v -0.01194327 0.05789005 -0.00148505
v -0.01199102 0.05781499 -0.00148505
v -0.01211353 0.05762113 -0.00148505
v -0.01216061 0.05754608 -0.00148505
v -0.01232083 0.05728961 -0.00148581
v -0.01245517 0.05708733 -0.00133517
v -0.01252479 0.05697575 -0.00133517
v -0.01257678 0.05689106 -0.00133517
v -0.01268144 0.05667594 -0.00148505
v -0.01260534 0.05679353 -0.00178481
v -0.01272540 0.05658724 -0.00148505
v -0.01276244 0.05651218 -0.00148505
v -0.01282938 0.05637612 -0.00148505
v -0.01272919 0.05659446 -0.00133517
v -0.01276579 0.05651941 -0.00133517
v -0.01291083 0.05620916 -0.00148505
v -0.01297554 0.05607591 -0.00148505
v -0.01287424 0.05628421 -0.00148505
v -0.01296930 0.05607591 -0.00163493
v -0.01296104 0.05607591 -0.00178481
v -0.01289878 0.05618427 -0.00193545
v -0.01278609 0.05637612 -0.00223521
v -0.01273611 0.05645880 -0.00238509
v -0.01300455 0.05594266 -0.00208533
v -0.01273298 0.05645278 -0.00247150
v -0.01258124 0.05674898 -0.00259462
v -0.01261405 0.05666711 -0.00268561
v -0.01257165 0.05672932 -0.00283549
v -0.01268144 0.05652583 -0.00268561
v -0.01283519 0.05622601 -0.00253497
v -0.01270040 0.05651218 -0.00252732
v -0.01282046 0.05622601 -0.00268561
v -0.01286866 0.05612046 -0.00268561
v -0.01260735 0.05665426 -0.00283549
v -0.01266671 0.05652583 -0.00283549
v -0.01275084 0.05634161 -0.00283549
v -0.01280305 0.05622601 -0.00283549
v -0.01270777 0.05639539 -0.00298461
v -0.01274102 0.05632033 -0.00298461
v -0.01273455 0.05630588 -0.00307331
v -0.01300924 0.05564726 -0.00313449
v -0.01304160 0.05557220 -0.00313449
v -0.01266849 0.05637612 -0.00328513
v -0.01303445 0.05555575 -0.00322243
v -0.01282403 0.05607591 -0.00313449
v -0.01270040 0.05636408 -0.00312761
v -0.01212959 0.05719610 -0.00379442
v -0.01199615 0.05737029 -0.00388541
v -0.01209322 0.05726673 -0.00374012
v -0.01184173 0.05751437 -0.00415917
v -0.01169669 0.05767130 -0.00433505
v -0.01260914 0.05650777 -0.00328513
v -0.01258995 0.05661654 -0.00310314
v -0.01256205 0.05671086 -0.00298461
v -0.01249600 0.05682604 -0.00298461
v -0.01243441 0.05690431 -0.00307178
v -0.01171097 0.05769137 -0.00418517
v -0.01157396 0.05788523 -0.00417829
v -0.01172503 0.05771144 -0.00403529
v -0.01181429 0.05762595 -0.00388541
v -0.01167995 0.05779773 -0.00394735
v -0.01182500 0.05764080 -0.00376995
v -0.01123790 0.05840258 -0.00398253
v -0.01169914 0.05782462 -0.00373477
v -0.01142780 0.05816417 -0.00388541
v -0.01131020 0.05832632 -0.00388541
v -0.01123790 0.05887578 -0.00178481
v -0.01132850 0.05876139 -0.00177104
v -0.01123790 0.05887297 -0.00180316
v -0.01123790 0.05885692 -0.00189951
v -0.01137558 0.05869276 -0.00181157
v -0.01142356 0.05863617 -0.00177104
v -0.01142333 0.05860647 -0.00193545
v -0.01141262 0.05859242 -0.00208533
v -0.01149831 0.05850493 -0.00193545
v -0.01154227 0.05841542 -0.00208533
v -0.01155254 0.05842987 -0.00193545
v -0.01167036 0.05823401 -0.00208533
v -0.01168330 0.05825287 -0.00187045
v -0.01179688 0.05804938 -0.00208533
v -0.01184776 0.05797433 -0.00208533
v -0.01196513 0.05777526 -0.00223521
v -0.01180536 0.05806102 -0.00193545
v -0.01185490 0.05798597 -0.00193545
v -0.01202025 0.05771024 -0.00208533
v -0.01209523 0.05759264 -0.00208533
v -0.01197763 0.05779372 -0.00193545
v -0.01186003 0.05799480 -0.00178481
v -0.01181697 0.05807708 -0.00163493
v -0.01186450 0.05800202 -0.00163493
v -0.01198388 0.05780375 -0.00173663
v -0.01210929 0.05761431 -0.00163493
v -0.01222733 0.05742607 -0.00163493
v -0.01215213 0.05753243 -0.00178481
v -0.01221885 0.05742607 -0.00178481
v -0.01227821 0.05734460 -0.00163493
v -0.01232507 0.05726955 -0.00163493
v -0.01245093 0.05708091 -0.00148505
v -0.01240005 0.05714914 -0.00163493
v -0.01251631 0.05697575 -0.00148505
v -0.01250761 0.05697575 -0.00163493
v -0.01257254 0.05688344 -0.00148505
v -0.01266537 0.05667594 -0.00178481
v -0.01259686 0.05677788 -0.00208533
v -0.01271736 0.05657078 -0.00178481
v -0.01282157 0.05637612 -0.00163493
v -0.01290748 0.05620193 -0.00163493
v -0.01286643 0.05626856 -0.00178481
v -0.01280484 0.05637612 -0.00193545
v -0.01279569 0.05637612 -0.00208533
v -0.01254733 0.05681360 -0.00254109
v -0.01252903 0.05682604 -0.00268561
v -0.01257767 0.05674216 -0.00268561
v -0.01263949 0.05667594 -0.00223521
v -0.01258437 0.05675500 -0.00249444
v -0.01251542 0.05682604 -0.00283549
v -0.01259843 0.05663620 -0.00298461
v -0.01271669 0.05641666 -0.00283549
v -0.01264908 0.05652583 -0.00298461
v -0.01261851 0.05653948 -0.00314596
v -0.01213830 0.05721055 -0.00369424
v -0.01186784 0.05755090 -0.00388541
v -0.01209925 0.05730045 -0.00358489
v -0.01201043 0.05739035 -0.00373477
v -0.01244133 0.05691474 -0.00298461
v -0.01230766 0.05709094 -0.00313449
v -0.01214767 0.05722540 -0.00358489
v -0.01195688 0.05746541 -0.00373477
v -0.01187297 0.05758501 -0.00372559
v -0.01183392 0.05765324 -0.00366977
v -0.01124392 0.05841743 -0.00388541
v -0.01123790 0.05840940 -0.00395347
v -0.01184129 0.05766368 -0.00358489
v -0.01164492 0.05789968 -0.00373477
v -0.01178706 0.05773873 -0.00358489
v -0.01165764 0.05791734 -0.00358489
v -0.01138049 0.05824926 -0.00380053
v -0.01128320 0.05879029 -0.00194310
v -0.01123790 0.05884086 -0.00199051
v -0.01136710 0.05868152 -0.00193545
v -0.01135661 0.05866707 -0.00208533
v -0.01127003 0.05875216 -0.00223521
v -0.01140124 0.05857717 -0.00223521
v -0.01148760 0.05849048 -0.00208533
v -0.01153535 0.05840579 -0.00218092
v -0.01165987 0.05821996 -0.00223521
v -0.01160542 0.05832632 -0.00208533
v -0.01171253 0.05814491 -0.00223521
v -0.01182745 0.05794423 -0.00242332
v -0.01183392 0.05795346 -0.00232315
v -0.01195643 0.05776322 -0.00238509
v -0.01200731 0.05768816 -0.00238509
v -0.01212468 0.05748949 -0.00253497
v -0.01212982 0.05749712 -0.00242944
v -0.01197205 0.05778529 -0.00208533
v -0.01213763 0.05750916 -0.00223521
v -0.01219051 0.05742607 -0.00223521
v -0.01214298 0.05751758 -0.00208533
v -0.01202538 0.05771867 -0.00193545
v -0.01198098 0.05779894 -0.00183681
v -0.01194371 0.05786275 -0.00178634
v -0.01210482 0.05760749 -0.00178481
v -0.01214767 0.05752521 -0.00193545
v -0.01220993 0.05742607 -0.00193545
v -0.01226973 0.05733055 -0.00193545
v -0.01232083 0.05726272 -0.00178481
v -0.01244245 0.05706726 -0.00178481
v -0.01249868 0.05697575 -0.00178481
v -0.01256361 0.05686819 -0.00178481
v -0.01265689 0.05667594 -0.00193545
v -0.01271312 0.05656235 -0.00193545
v -0.01255447 0.05685294 -0.00208533
v -0.01259240 0.05676985 -0.00223521
v -0.01264841 0.05667594 -0.00208533
v -0.01275441 0.05649573 -0.00178481
v -0.01275017 0.05648730 -0.00193545
v -0.01270888 0.05655312 -0.00208533
v -0.01274570 0.05647807 -0.00208533
v -0.01254956 0.05684451 -0.00223521
v -0.01246431 0.05695327 -0.00253497
v -0.01245829 0.05694324 -0.00268561
v -0.01245093 0.05693040 -0.00283549
v -0.01211219 0.05732052 -0.00343501
v -0.01202405 0.05740922 -0.00358489
v -0.01231882 0.05710820 -0.00298461
v -0.01226058 0.05716600 -0.00313449
v -0.01216039 0.05724546 -0.00343501
v -0.01197027 0.05748427 -0.00358489
v -0.01130127 0.05847643 -0.00328513
v -0.01123790 0.05852499 -0.00345260
v -0.01123790 0.05849449 -0.00358489
v -0.01197875 0.05749591 -0.00348854
v -0.01202918 0.05743812 -0.00343731
v -0.01213183 0.05735022 -0.00320637
v -0.01185401 0.05768094 -0.00343501
v -0.01152531 0.05809193 -0.00361854
v -0.01183125 0.05779974 -0.00305419
v -0.01172324 0.05803534 -0.00267567
v -0.01123790 0.05882401 -0.00208533
v -0.01128141 0.05876661 -0.00208533
v -0.01123790 0.05880514 -0.00218092
v -0.01123790 0.05879430 -0.00223521
v -0.01123790 0.05876260 -0.00238509
v -0.01124593 0.05872005 -0.00253497
v -0.01133318 0.05863577 -0.00238509
v -0.01138897 0.05856071 -0.00238509
v -0.01145078 0.05847643 -0.00238509
v -0.01148448 0.05846399 -0.00223292
v -0.01152732 0.05839455 -0.00228109
v -0.01164827 0.05820431 -0.00238509
v -0.01170204 0.05812925 -0.00238509
v -0.01198366 0.05765284 -0.00276896
v -0.01198901 0.05766087 -0.00268561
v -0.01210616 0.05746300 -0.00283549
v -0.01211576 0.05747705 -0.00268561
v -0.01217355 0.05741443 -0.00253497
v -0.01216619 0.05740199 -0.00268561
v -0.01224853 0.05729764 -0.00253497
v -0.01208943 0.05758421 -0.00223521
v -0.01225456 0.05730687 -0.00238509
v -0.01230186 0.05723182 -0.00238509
v -0.01226013 0.05731530 -0.00223521
v -0.01220078 0.05742607 -0.00208533
v -0.01210036 0.05760026 -0.00193545
v -0.01226527 0.05732333 -0.00208533
v -0.01231190 0.05724827 -0.00208533
v -0.01243151 0.05704960 -0.00214727
v -0.01247123 0.05699020 -0.00209298
v -0.01248953 0.05697575 -0.00193545
v -0.01247458 0.05696973 -0.00223521
v -0.01241835 0.05702833 -0.00253497
v -0.01241165 0.05701830 -0.00268561
v -0.01240317 0.05700545 -0.00283549
v -0.01234359 0.05712586 -0.00268561
v -0.01228424 0.05720372 -0.00277508
v -0.01212513 0.05734018 -0.00328513
v -0.01227107 0.05718325 -0.00298461
v -0.01213964 0.05736146 -0.00310619
v -0.01217913 0.05729042 -0.00314749
v -0.01217311 0.05726513 -0.00328513
v -0.01153892 0.05826050 -0.00280108
v -0.01154852 0.05827374 -0.00268561
v -0.01141887 0.05845195 -0.00268561
v -0.01136420 0.05852700 -0.00268561
v -0.01123924 0.05856152 -0.00328513
v -0.01123790 0.05856312 -0.00328513
v -0.01197585 0.05764241 -0.00286914
v -0.01196647 0.05762916 -0.00298461
v -0.01187900 0.05771545 -0.00313449
v -0.01199593 0.05751959 -0.00328513
v -0.01180737 0.05791694 -0.00268561
v -0.01168352 0.05810317 -0.00261832
v -0.01123790 0.05872607 -0.00255562
v -0.01123790 0.05870721 -0.00264279
v -0.01138250 0.05855188 -0.00246385
v -0.01128097 0.05863898 -0.00268944
v -0.01151884 0.05838291 -0.00238509
v -0.01186137 0.05784188 -0.00268561
v -0.01214789 0.05737390 -0.00298461
v -0.01215726 0.05738795 -0.00283549
v -0.01224139 0.05728640 -0.00268561
v -0.01223961 0.05726272 -0.00282938
v -0.01229628 0.05722259 -0.00253497
v -0.01235720 0.05712586 -0.00253497
v -0.01236814 0.05712586 -0.00238509
v -0.01230700 0.05724065 -0.00223521
v -0.01232038 0.05713670 -0.00282938
v -0.01227799 0.05719409 -0.00287526
v -0.01221171 0.05727597 -0.00298461
v -0.01127673 0.05861209 -0.00283549
v -0.01123790 0.05859042 -0.00316508
v -0.01123790 0.05864540 -0.00292114
f 1 2 6
f 1 6 21
f 1 21 36
f 1 36 61
f 1 61 95
f 1 95 144
f 1 144 189
f 1 189 253
f 1 253 252
f 1 252 255
f 1 255 330
f 1 330 417
f 1 417 416
f 1 416 415
f 1 415 515
f 1 515 514
f 1 514 513
f 1 513 512
f 1 512 511
f 1 511 510
f 1 510 609
f 1 609 703
f 1 703 702
f 1 702 701
f 1 701 700
f 1 700 793
f 1 793 795
f 1 795 876
f 1 876 963
f 1 963 1062
f 1 1062 1064
f 1 1064 1063
f 1 1063 1067
f 1 1067 1171
f 1 1171 1177
f 1 1177 1176
f 1 1176 1183
f 1 1183 1079
f 1 1079 1072
f 1 1072 1071
f 1 1071 973
f 1 973 892
f 1 892 891
f 1 891 890
f 1 890 806
f 1 806 718
f 1 718 717
f 1 717 622
f 1 622 523
f 1 523 432
f 1 432 351
f 1 351 350
f 1 350 346
f 1 346 267
f 1 267 266
f 1 266 208
f 1 208 154
f 1 154 106
f 1 106 96
f 1 96 62
f 1 62 37
f 1 37 22
f 1 22 7
f 1 7 3
f 1 3 4
f 1 4 9
f 1 9 28
f 1 28 43
f 1 43 42
f 1 42 41
f 1 41 70
f 1 70 69
f 1 69 113
f 1 113 112
f 1 112 111
f 1 111 110
f 1 110 155
f 1 155 156
f 1 156 116
f 1 116 74
f 1 74 51
f 1 51 50
f 1 50 49
f 1 49 48
f 1 48 45
f 1 45 29
f 1 29 10
f 1 10 5
f 1 5 2
f 2 5 14
f 2 14 34
f 2 34 56
f 2 56 81
f 2 81 130
f 2 130 172
f 2 172 225
f 2 225 291
f 2 291 365
f 2 365 446
f 2 446 450
f 2 450 543
f 2 543 642
f 2 642 735
f 2 735 738
f 2 738 828
f 2 828 913
f 2 913 914
f 2 914 916
f 2 916 1012
f 2 1012 1010
f 2 1010 1112
f 2 1112 1111
f 2 1111 1205
f 2 1205 1204
f 2 1204 1280
f 2 1280 1349
f 2 1349 1408
f 2 1408 1407
f 2 1407 1463
f 2 1463 1488
f 2 1488 1489
f 2 1489 1471
f 2 1471 1470
f 2 1470 1420
f 2 1420 1419
f 2 1419 1418
f 2 1418 1416
f 2 1416 1356
f 2 1356 1287
f 2 1287 1286
f 2 1286 1284
f 2 1284 1207
f 2 1207 1206
f 2 1206 1119
f 2 1119 1118
f 2 1118 1117
f 2 1117 1116
f 2 1116 1115
f 2 1115 1114
f 2 1114 1113
f 2 1113 1014
f 2 1014 1013
f 2 1013 917
f 2 917 830
f 2 830 742
f 2 742 646
f 2 646 645
f 2 645 644
f 2 644 643
f 2 643 544
f 2 544 454
f 2 454 452
f 2 452 371
f 2 371 370
f 2 370 369
f 2 369 293
f 2 293 228
f 2 228 173
f 2 173 134
f 2 134 133
f 2 133 131
f 2 131 82
f 2 82 57
f 2 57 35
f 2 35 15
f 2 15 6
f 3 7 8
f 3 8 9
f 3 9 4
f 5 10 11
f 5 11 12
f 5 12 13
f 5 13 14
f 6 15 16
f 6 16 17
f 6 17 18
f 6 18 19
f 6 19 20
f 6 20 21
f 7 22 23
f 7 23 24
f 7 24 25
f 7 25 26
f 7 26 8
f 8 25 27
f 8 27 9
f 8 26 25
f 9 27 25
f 9 25 28
f 10 29 30
f 10 30 11
f 11 30 12
f 12 30 31
f 12 31 13
f 13 31 32
f 13 32 33
f 13 33 14
f 14 33 34
f 15 35 59
f 15 59 85
f 15 85 84
f 15 84 132
f 15 132 139
f 15 139 182
f 15 182 245
f 15 245 314
f 15 314 313
f 15 313 394
f 15 394 392
f 15 392 391
f 15 391 390
f 15 390 389
f 15 389 388
f 15 388 475
f 15 475 555
f 15 555 654
f 15 654 752
f 15 752 751
f 15 751 676
f 15 676 580
f 15 580 579
f 15 579 489
f 15 489 402
f 15 402 401
f 15 401 321
f 15 321 318
f 15 318 246
f 15 246 184
f 15 184 140
f 15 140 92
f 15 92 60
f 15 60 36
f 15 36 21
f 15 21 20
f 15 20 19
f 15 19 18
f 15 18 17
f 15 17 16
f 22 24 23
f 22 37 24
f 24 38 25
f 24 37 39
f 24 39 38
f 25 40 41
f 25 41 42
f 25 42 43
f 25 43 28
f 25 38 44
f 25 44 40
f 29 45 30
f 30 46 47
f 30 47 32
f 30 32 31
f 30 45 48
f 30 48 49
f 30 49 50
f 30 50 51
f 30 51 46
f 32 52 53
f 32 53 54
f 32 54 55
f 32 55 33
f 32 47 52
f 33 55 56
f 33 56 34
f 35 57 58
f 35 58 59
f 36 60 61
f 37 62 39
f 38 39 63
f 38 63 44
f 39 64 63
f 39 62 65
f 39 65 66
f 39 66 64
f 40 44 67
f 40 67 68
f 40 68 69
f 40 69 70
f 40 70 41
f 44 63 67
f 46 71 72
f 46 72 73
f 46 73 47
f 46 51 71
f 47 73 52
f 51 74 71
f 52 73 75
f 52 75 76
f 52 76 77
f 52 77 53
f 53 77 54
f 54 77 78
f 54 78 79
f 54 79 80
f 54 80 55
f 55 80 56
f 56 80 81
f 57 82 83
f 57 83 58
f 58 84 85
f 58 85 59
f 58 83 86
f 58 86 87
f 58 87 88
f 58 88 89
f 58 89 90
f 58 90 91
f 58 91 84
f 60 92 93
f 60 93 94
f 60 94 95
f 60 95 61
f 62 96 65
f 63 64 97
f 63 97 98
f 63 98 99
f 63 99 100
f 63 100 101
f 63 101 67
f 64 102 97
f 64 66 103
f 64 103 104
f 64 104 102
f 65 96 66
f 66 96 105
f 66 105 106
f 66 106 103
f 67 101 107
f 67 107 68
f 68 108 109
f 68 109 110
f 68 110 111
f 68 111 112
f 68 112 113
f 68 113 69
f 68 107 101
f 68 101 108
f 71 114 115
f 71 115 72
f 71 74 116
f 71 116 114
f 72 117 118
f 72 118 119
f 72 119 75
f 72 75 73
f 72 115 120
f 72 120 117
f 75 119 121
f 75 121 122
f 75 122 123
f 75 123 76
f 76 123 124
f 76 124 77
f 77 124 78
f 78 124 125
f 78 125 126
f 78 126 127
f 78 127 79
f 79 127 128
f 79 128 80
f 80 128 129
f 80 129 130
f 80 130 81
f 82 131 83
f 83 131 86
f 84 91 132
f 86 133 134
f 86 134 87
f 86 131 133
f 87 134 88
f 88 134 135
f 88 135 89
f 89 136 90
f 89 135 136
f 90 136 137
f 90 137 138
f 90 138 139
f 90 139 132
f 90 132 91
f 92 140 141
f 92 141 142
f 92 142 93
f 93 142 143
f 93 143 94
f 94 143 95
f 95 143 144
f 96 106 105
f 97 102 98
f 98 102 145
f 98 145 146
f 98 146 100
f 98 100 99
f 100 146 147
f 100 147 148
f 100 148 149
f 100 149 101
f 101 120 150
f 101 150 151
f 101 151 109
f 101 109 108
f 101 149 148
f 101 148 152
f 101 152 120
f 102 104 153
f 102 153 145
f 103 106 154
f 103 154 153
f 103 153 104
f 109 151 155
f 109 155 110
f 114 151 150
f 114 150 120
f 114 120 115
f 114 116 156
f 114 156 155
f 114 155 151
f 117 120 157
f 117 157 118
f 118 148 158
f 118 158 159
f 118 159 160
f 118 160 119
f 118 157 148
f 119 160 121
f 120 152 161
f 120 161 157
f 121 160 162
f 121 162 122
f 122 162 163
f 122 163 164
f 122 164 165
f 122 165 123
f 123 165 166
f 123 166 167
f 123 167 124
f 124 167 168
f 124 168 125
f 125 168 126
f 126 168 169
f 126 169 128
f 126 128 127
f 128 169 170
f 128 170 171
f 128 171 129
f 129 171 172
f 129 172 130
f 134 173 174
f 134 174 135
f 135 175 136
f 135 174 176
f 135 176 177
f 135 177 175
f 136 175 137
f 137 178 138
f 137 175 178
f 138 178 179
f 138 179 180
f 138 180 139
f 139 181 182
f 139 180 183
f 139 183 181
f 140 184 185
f 140 185 141
f 141 185 186
f 141 186 142
f 142 186 187
f 142 187 188
f 142 188 143
f 143 188 189
f 143 189 190
f 143 190 144
f 144 190 189
f 145 153 191
f 145 191 192
f 145 192 193
f 145 193 146
f 146 193 147
f 147 193 194
f 147 194 195
f 147 195 196
f 147 196 148
f 148 157 161
f 148 161 152
f 148 196 197
f 148 197 198
f 148 198 158
f 153 199 200
f 153 200 201
f 153 201 202
f 153 202 191
f 153 154 203
f 153 203 204
f 153 204 205
f 153 205 206
f 153 206 207
f 153 207 199
f 154 208 203
f 158 198 197
f 158 197 209
f 158 209 210
f 158 210 211
f 158 211 212
f 158 212 159
f 159 212 160
f 160 212 162
f 162 212 213
f 162 213 163
f 163 213 214
f 163 214 164
f 164 214 215
f 164 215 166
f 164 166 165
f 166 215 216
f 166 216 217
f 166 217 218
f 166 218 219
f 166 219 167
f 167 219 168
f 168 219 169
f 169 219 220
f 169 220 170
f 170 220 221
f 170 221 222
f 170 222 171
f 171 222 223
f 171 223 172
f 172 223 224
f 172 224 225
f 173 226 227
f 173 227 174
f 173 228 229
f 173 229 230
f 173 230 231
f 173 231 226
f 174 227 176
f 175 177 232
f 175 232 178
f 176 227 226
f 176 226 231
f 176 231 233
f 176 233 177
f 177 234 232
f 177 233 234
f 178 232 235
f 178 235 179
f 179 236 237
f 179 237 238
f 179 238 239
f 179 239 181
f 179 181 183
f 179 183 180
f 179 235 240
f 179 240 241
f 179 241 242
f 179 242 243
f 179 243 236
f 181 244 245
f 181 245 182
f 181 239 244
f 184 246 185
f 185 247 186
f 185 246 247
f 186 248 249
f 186 249 187
f 186 247 248
f 187 249 250
f 187 250 251
f 187 251 188
f 188 252 253
f 188 253 189
f 188 251 254
f 188 254 255
f 188 255 252
f 191 202 192
f 192 202 256
f 192 256 193
f 193 256 257
f 193 257 194
f 194 257 258
f 194 258 259
f 194 259 195
f 195 259 260
f 195 260 196
f 196 260 197
f 197 260 261
f 197 261 210
f 197 210 209
f 199 262 200
f 199 207 262
f 200 263 264
f 200 264 201
f 200 262 207
f 200 207 265
f 200 265 263
f 201 264 256
f 201 256 202
f 203 208 205
f 203 205 204
f 205 266 267
f 205 267 268
f 205 268 207
f 205 207 206
f 205 208 266
f 207 269 270
f 207 270 271
f 207 271 265
f 207 268 272
f 207 272 273
f 207 273 269
f 210 261 211
f 211 261 274
f 211 274 213
f 211 213 212
f 213 274 214
f 214 274 275
f 214 275 276
f 214 276 215
f 215 276 277
f 215 277 216
f 216 277 217
f 217 277 278
f 217 278 218
f 218 279 280
f 218 280 220
f 218 220 219
f 218 278 281
f 218 281 282
f 218 282 283
f 218 283 284
f 218 284 285
f 218 285 279
f 220 280 286
f 220 286 221
f 221 286 222
f 222 286 223
f 223 286 287
f 223 287 288
f 223 288 224
f 224 288 289
f 224 289 290
f 224 290 225
f 225 290 292
f 225 292 291
f 228 293 294
f 228 294 295
f 228 295 296
f 228 296 229
f 229 296 230
f 230 296 297
f 230 297 231
f 231 297 298
f 231 298 299
f 231 299 233
f 232 300 235
f 232 234 301
f 232 301 302
f 232 302 303
f 232 303 300
f 233 299 379
f 233 379 304
f 233 304 234
f 234 304 305
f 234 305 306
f 234 306 301
f 235 300 307
f 235 307 240
f 236 308 309
f 236 309 237
f 236 243 308
f 237 309 310
f 237 310 239
f 237 239 238
f 239 310 311
f 239 311 312
f 239 312 313
f 239 313 314
f 239 314 245
f 239 245 244
f 240 307 315
f 240 315 241
f 241 315 242
f 242 315 307
f 242 307 303
f 242 303 316
f 242 316 243
f 243 316 317
f 243 317 308
f 246 318 247
f 247 319 320
f 247 320 248
f 247 318 321
f 247 321 319
f 248 320 322
f 248 322 249
f 249 322 323
f 249 323 250
f 250 323 324
f 250 324 325
f 250 325 326
f 250 326 251
f 251 326 327
f 251 327 254
f 254 327 328
f 254 328 255
f 255 328 329
f 255 329 330
f 256 331 257
f 256 264 331
f 257 331 332
f 257 332 333
f 257 333 334
f 257 334 335
f 257 335 258
f 258 335 259
f 259 261 260
f 259 335 261
f 261 335 336
f 261 336 337
f 261 337 338
f 261 338 339
f 261 339 274
f 263 333 340
f 263 340 331
f 263 331 264
f 263 265 341
f 263 341 333
f 265 271 342
f 265 342 343
f 265 343 344
f 265 344 345
f 265 345 341
f 267 346 268
f 268 346 272
f 269 347 270
f 269 273 347
f 270 347 348
f 270 348 349
f 270 349 343
f 270 343 342
f 270 342 271
f 272 346 350
f 272 350 273
f 273 350 351
f 273 351 347
f 274 339 352
f 274 352 275
f 275 352 276
f 276 352 353
f 276 353 354
f 276 354 277
f 277 355 281
f 277 281 278
f 277 354 355
f 279 286 280
f 279 285 356
f 279 356 357
f 279 357 286
f 281 355 358
f 281 358 359
f 281 359 282
f 282 359 358
f 282 358 360
f 282 360 361
f 282 361 356
f 282 356 283
f 283 362 284
f 283 356 362
f 284 362 285
f 285 362 356
f 286 357 363
f 286 363 288
f 286 288 287
f 288 363 289
f 289 363 292
f 289 292 290
f 291 364 365
f 291 292 364
f 292 366 367
f 292 367 368
f 292 368 364
f 292 363 366
f 293 369 294
f 294 370 371
f 294 371 372
f 294 372 373
f 294 373 374
f 294 374 295
f 294 369 370
f 295 297 296
f 295 374 375
f 295 375 376
f 295 376 297
f 297 376 298
f 298 376 377
f 298 377 299
f 299 377 378
f 299 378 379
f 300 303 307
f 301 306 302
f 302 306 380
f 302 380 305
f 302 305 381
f 302 381 303
f 303 381 316
f 304 379 305
f 305 379 382
f 305 382 383
f 305 383 381
f 305 380 306
f 308 384 385
f 308 385 386
f 308 386 309
f 308 317 387
f 308 387 384
f 309 386 388
f 309 388 310
f 310 388 389
f 310 389 390
f 310 390 391
f 310 391 392
f 310 392 393
f 310 393 311
f 311 393 392
f 311 392 394
f 311 394 313
f 311 313 312
f 316 381 395
f 316 395 396
f 316 396 397
f 316 397 398
f 316 398 317
f 317 398 399
f 317 399 387
f 319 400 320
f 319 321 401
f 319 401 402
f 319 402 400
f 320 400 322
f 322 400 403
f 322 403 404
f 322 404 405
f 322 405 406
f 322 406 323
f 323 406 407
f 323 407 324
f 324 407 325
f 325 407 408
f 325 408 409
f 325 409 326
f 326 409 327
f 327 409 410
f 327 410 328
f 328 410 411
f 328 411 412
f 328 412 329
f 329 413 414
f 329 414 415
f 329 415 416
f 329 416 417
f 329 417 330
f 329 412 413
f 331 340 333
f 331 333 332
f 333 418 334
f 333 341 419
f 333 419 420
f 333 420 418
f 334 418 335
f 335 418 336
f 336 418 421
f 336 421 337
f 337 421 422
f 337 422 338
f 338 422 423
f 338 423 339
f 339 423 424
f 339 424 425
f 339 425 352
f 341 345 419
f 343 349 426
f 343 426 427
f 343 427 428
f 343 428 344
f 344 429 345
f 344 428 427
f 344 427 429
f 345 429 430
f 345 430 419
f 347 349 348
f 347 351 431
f 347 431 349
f 349 431 426
f 351 432 433
f 351 433 431
f 352 425 354
f 352 354 353
f 354 434 358
f 354 358 435
f 354 435 436
f 354 436 355
f 354 425 434
f 355 436 435
f 355 435 358
f 356 437 438
f 356 438 366
f 356 366 363
f 356 363 357
f 356 361 439
f 356 439 440
f 356 440 441
f 356 441 437
f 358 442 443
f 358 443 444
f 358 444 360
f 358 434 445
f 358 445 442
f 360 444 361
f 361 444 439
f 364 368 365
f 365 368 446
f 366 438 367
f 367 438 447
f 367 447 448
f 367 448 449
f 367 449 368
f 368 450 451
f 368 451 446
f 368 449 450
f 371 452 372
f 372 453 373
f 372 452 454
f 372 454 455
f 372 455 456
f 372 456 457
f 372 457 453
f 373 453 374
f 374 453 375
f 375 453 457
f 375 457 458
f 375 458 459
f 375 459 376
f 376 459 377
f 377 459 460
f 377 460 461
f 377 461 462
f 377 462 378
f 378 463 464
f 378 464 465
f 378 465 379
f 378 462 466
f 378 466 463
f 379 465 464
f 379 464 382
f 381 383 464
f 381 464 463
f 381 463 467
f 381 467 395
f 382 464 383
f 384 468 385
f 384 387 469
f 384 469 470
f 384 470 468
f 385 468 471
f 385 471 472
f 385 472 473
f 385 473 386
f 386 473 474
f 386 474 475
f 386 475 388
f 387 399 476
f 387 476 477
f 387 477 469
f 395 467 396
f 396 478 397
f 396 467 479
f 396 479 480
f 396 480 478
f 397 481 482
f 397 482 398
f 397 478 483
f 397 483 481
f 398 482 484
f 398 484 399
f 399 484 485
f 399 485 486
f 399 486 487
f 399 487 476
f 400 402 488
f 400 488 403
f 402 489 488
f 403 488 489
f 403 489 490
f 403 490 491
f 403 491 492
f 403 492 404
f 404 492 405
f 405 492 406
f 406 492 493
f 406 493 494
f 406 494 495
f 406 495 496
f 406 496 497
f 406 497 407
f 407 497 498
f 407 498 499
f 407 499 408
f 408 499 500
f 408 500 409
f 409 501 502
f 409 502 410
f 409 500 503
f 409 503 504
f 409 504 501
f 410 502 505
f 410 505 411
f 411 413 412
f 411 505 506
f 411 506 507
f 411 507 413
f 413 507 508
f 413 508 414
f 414 508 509
f 414 509 510
f 414 510 511
f 414 511 512
f 414 512 513
f 414 513 514
f 414 514 515
f 414 515 415
f 418 420 421
f 419 430 420
f 420 430 516
f 420 516 517
f 420 517 421
f 421 517 518
f 421 518 423
f 421 423 422
f 423 518 442
f 423 442 445
f 423 445 434
f 423 434 424
f 424 434 425
f 426 519 427
f 426 431 519
f 427 519 430
f 427 430 429
f 430 519 520
f 430 520 516
f 431 433 521
f 431 521 522
f 431 522 519
f 432 523 433
f 433 523 524
f 433 524 521
f 437 441 525
f 437 525 447
f 437 447 438
f 439 444 526
f 439 526 440
f 440 525 441
f 440 526 527
f 440 527 528
f 440 528 529
f 440 529 530
f 440 530 531
f 440 531 525
f 442 532 533
f 442 533 534
f 442 534 535
f 442 535 443
f 442 518 532
f 443 535 527
f 443 527 444
f 444 527 526
f 446 451 450
f 447 525 536
f 447 536 448
f 448 537 637
f 448 637 538
f 448 538 449
f 448 536 539
f 448 539 540
f 448 540 541
f 448 541 542
f 448 542 537
f 449 538 543
f 449 543 450
f 454 544 545
f 454 545 456
f 454 456 455
f 456 545 546
f 456 546 547
f 456 547 457
f 457 547 458
f 458 547 648
f 458 648 548
f 458 548 461
f 458 461 460
f 458 460 459
f 461 548 549
f 461 549 462
f 462 549 466
f 463 466 467
f 466 549 479
f 466 479 467
f 468 470 550
f 468 550 471
f 469 477 470
f 470 477 550
f 471 551 552
f 471 552 472
f 471 550 551
f 472 553 473
f 472 552 553
f 473 553 554
f 473 554 474
f 474 554 475
f 475 554 555
f 476 487 556
f 476 556 557
f 476 557 558
f 476 558 477
f 477 559 560
f 477 560 561
f 477 561 550
f 477 558 557
f 477 557 562
f 477 562 559
f 478 480 563
f 478 563 483
f 479 549 564
f 479 564 480
f 480 564 565
f 480 565 566
f 480 566 567
f 480 567 568
f 480 568 569
f 480 569 563
f 481 570 482
f 481 483 570
f 482 570 571
f 482 571 572
f 482 572 484
f 483 563 569
f 483 569 573
f 483 573 570
f 484 572 574
f 484 574 575
f 484 575 485
f 485 575 576
f 485 576 486
f 486 577 487
f 486 576 575
f 486 575 578
f 486 578 577
f 487 577 556
f 489 579 490
f 490 579 580
f 490 580 581
f 490 581 582
f 490 582 583
f 490 583 584
f 490 584 491
f 491 584 493
f 491 493 492
f 493 584 585
f 493 585 494
f 494 585 586
f 494 586 587
f 494 587 495
f 495 587 588
f 495 588 498
f 495 498 496
f 496 498 497
f 498 588 589
f 498 589 590
f 498 590 591
f 498 591 499
f 499 591 592
f 499 592 500
f 500 592 593
f 500 593 503
f 501 504 594
f 501 594 502
f 502 594 595
f 502 595 505
f 503 593 504
f 504 593 596
f 504 596 594
f 505 595 597
f 505 597 598
f 505 598 506
f 506 598 599
f 506 599 600
f 506 600 601
f 506 601 602
f 506 602 507
f 507 602 508
f 508 602 509
f 509 602 603
f 509 603 604
f 509 604 605
f 509 605 606
f 509 606 607
f 509 607 608
f 509 608 609
f 509 609 510
f 516 610 517
f 516 520 611
f 516 611 610
f 517 610 612
f 517 612 532
f 517 532 518
f 519 613 614
f 519 614 520
f 519 522 613
f 520 614 613
f 520 613 611
f 521 615 616
f 521 616 617
f 521 617 618
f 521 618 619
f 521 619 522
f 521 524 620
f 521 620 621
f 521 621 615
f 522 619 613
f 523 622 524
f 524 622 623
f 524 623 620
f 525 531 624
f 525 624 536
f 527 535 528
f 528 625 530
f 528 530 529
f 528 535 626
f 528 626 627
f 528 627 625
f 530 624 531
f 530 625 624
f 532 612 628
f 532 628 533
f 533 628 534
f 534 628 629
f 534 629 630
f 534 630 631
f 534 631 632
f 534 632 633
f 534 633 626
f 534 626 535
f 536 624 634
f 536 634 635
f 536 635 539
f 537 636 637
f 537 542 636
f 538 637 543
f 539 635 540
f 540 635 638
f 540 638 541
f 541 638 639
f 541 639 640
f 541 640 636
f 541 636 542
f 543 641 642
f 543 637 641
f 544 643 545
f 545 643 644
f 545 644 645
f 545 645 646
f 545 646 647
f 545 647 546
f 546 647 648
f 546 648 547
f 548 648 649
f 548 649 549
f 549 649 565
f 549 565 564
f 550 561 650
f 550 650 651
f 550 651 551
f 551 651 652
f 551 652 552
f 552 652 653
f 552 653 553
f 553 653 554
f 554 653 555
f 555 653 654
f 556 577 557
f 557 577 562
f 559 655 560
f 559 562 656
f 559 656 655
f 560 657 658
f 560 658 561
f 560 655 657
f 561 658 650
f 562 577 659
f 562 659 683
f 562 683 656
f 565 649 660
f 565 660 661
f 565 661 566
f 566 661 567
f 567 661 662
f 567 662 663
f 567 663 664
f 567 664 665
f 567 665 666
f 567 666 568
f 568 666 569
f 569 666 667
f 569 667 573
f 570 573 667
f 570 667 668
f 570 668 669
f 570 669 571
f 571 669 670
f 571 670 671
f 571 671 572
f 572 671 672
f 572 672 575
f 572 575 574
f 575 672 673
f 575 673 674
f 575 674 578
f 577 578 659
f 578 675 659
f 578 674 675
f 580 676 677
f 580 677 678
f 580 678 581
f 581 678 679
f 581 679 582
f 582 679 680
f 582 680 681
f 582 681 583
f 583 681 586
f 583 586 585
f 583 585 584
f 586 681 657
f 586 657 588
f 586 588 587
f 588 657 682
f 588 682 590
f 588 590 589
f 590 682 592
f 590 592 591
f 592 682 656
f 592 656 683
f 592 683 593
f 593 683 684
f 593 684 685
f 593 685 686
f 593 686 596
f 594 596 595
f 595 596 687
f 595 687 597
f 596 686 687
f 597 687 686
f 597 686 688
f 597 688 598
f 598 688 689
f 598 689 599
f 599 690 691
f 599 691 600
f 599 689 692
f 599 692 690
f 600 691 693
f 600 693 601
f 601 693 694
f 601 694 602
f 602 694 695
f 602 695 603
f 603 695 696
f 603 696 604
f 604 696 697
f 604 697 605
f 605 697 698
f 605 698 699
f 605 699 700
f 605 700 701
f 605 701 606
f 606 701 702
f 606 702 607
f 607 702 608
f 608 702 703
f 608 703 609
f 610 611 704
f 610 704 705
f 610 705 612
f 611 613 704
f 612 705 628
f 613 619 704
f 615 706 707
f 615 707 617
f 615 617 616
f 615 621 708
f 615 708 709
f 615 709 710
f 615 710 706
f 617 711 631
f 617 631 618
f 617 707 711
f 618 631 630
f 618 630 712
f 618 712 619
f 619 712 704
f 620 623 621
f 621 713 714
f 621 714 709
f 621 709 708
f 621 623 715
f 621 715 716
f 621 716 713
f 622 717 623
f 623 717 718
f 623 718 719
f 623 719 715
f 624 625 634
f 625 627 720
f 625 720 721
f 625 721 722
f 625 722 723
f 625 723 634
f 626 633 724
f 626 724 627
f 627 724 725
f 627 725 726
f 627 726 720
f 628 705 727
f 628 727 629
f 629 727 712
f 629 712 630
f 631 711 632
f 632 711 633
f 633 711 728
f 633 728 729
f 633 729 730
f 633 730 731
f 633 731 724
f 634 723 732
f 634 732 733
f 634 733 635
f 635 733 734
f 635 734 638
f 636 640 639
f 636 639 735
f 636 735 642
f 636 642 641
f 636 641 637
f 638 736 737
f 638 737 738
f 638 738 639
f 638 734 739
f 638 739 740
f 638 740 741
f 638 741 736
f 639 738 735
f 646 742 743
f 646 743 647
f 647 743 744
f 647 744 648
f 648 744 649
f 649 744 745
f 649 745 660
f 650 746 747
f 650 747 677
f 650 677 748
f 650 748 749
f 650 749 651
f 650 658 746
f 651 749 652
f 652 749 750
f 652 750 653
f 653 750 751
f 653 751 752
f 653 752 654
f 655 682 657
f 655 656 682
f 657 753 658
f 657 681 680
f 657 680 753
f 658 753 746
f 659 675 683
f 660 754 755
f 660 755 756
f 660 756 661
f 660 745 757
f 660 757 754
f 661 756 758
f 661 758 662
f 662 758 759
f 662 759 663
f 663 759 760
f 663 760 761
f 663 761 664
f 664 761 762
f 664 762 763
f 664 763 665
f 665 763 764
f 665 764 667
f 665 667 666
f 667 764 668
f 668 764 669
f 669 764 765
f 669 765 766
f 669 766 670
f 670 766 767
f 670 767 768
f 670 768 671
f 671 768 672
f 672 768 674
f 672 674 673
f 674 769 770
f 674 770 771
f 674 771 772
f 674 772 773
f 674 773 774
f 674 774 675
f 674 768 775
f 674 775 776
f 674 776 777
f 674 777 769
f 675 684 683
f 675 774 684
f 676 751 748
f 676 748 677
f 677 747 746
f 677 746 678
f 678 746 679
f 679 746 753
f 679 753 680
f 684 778 685
f 684 774 778
f 685 778 686
f 686 778 779
f 686 779 688
f 688 779 692
f 688 692 689
f 690 692 691
f 691 692 780
f 691 780 693
f 692 781 782
f 692 782 783
f 692 783 784
f 692 784 785
f 692 785 780
f 692 779 778
f 692 778 781
f 693 780 694
f 694 780 786
f 694 786 695
f 695 786 787
f 695 787 697
f 695 697 696
f 697 787 698
f 698 788 699
f 698 787 789
f 698 789 790
f 698 790 791
f 698 791 792
f 698 792 788
f 699 793 700
f 699 788 794
f 699 794 795
f 699 795 793
f 704 712 727
f 704 727 705
f 706 710 707
f 707 728 711
f 707 710 796
f 707 796 728
f 709 714 797
f 709 797 796
f 709 796 710
f 713 798 796
f 713 796 797
f 713 797 714
f 713 716 799
f 713 799 800
f 713 800 801
f 713 801 802
f 713 802 798
f 715 719 803
f 715 803 804
f 715 804 716
f 716 804 805
f 716 805 799
f 718 806 719
f 719 807 808
f 719 808 803
f 719 806 807
f 720 726 721
f 721 726 722
f 722 726 723
f 723 726 809
f 723 809 810
f 723 810 811
f 723 811 812
f 723 812 732
f 724 731 725
f 725 809 726
f 725 731 813
f 725 813 814
f 725 814 815
f 725 815 809
f 728 796 729
f 729 796 816
f 729 816 817
f 729 817 818
f 729 818 819
f 729 819 730
f 730 819 820
f 730 820 821
f 730 821 822
f 730 822 731
f 731 822 813
f 732 812 733
f 733 812 823
f 733 823 734
f 734 823 824
f 734 824 825
f 734 825 826
f 734 826 739
f 736 741 827
f 736 827 737
f 737 828 738
f 737 827 828
f 739 826 829
f 739 829 740
f 740 829 741
f 741 829 827
f 742 830 831
f 742 831 743
f 743 831 744
f 744 831 832
f 744 832 757
f 744 757 745
f 748 751 750
f 748 750 749
f 754 833 755
f 754 757 833
f 755 833 834
f 755 834 835
f 755 835 756
f 756 835 836
f 756 836 837
f 756 837 758
f 757 832 838
f 757 838 833
f 758 837 759
f 759 837 839
f 759 839 840
f 759 840 760
f 760 841 842
f 760 842 843
f 760 843 761
f 760 840 844
f 760 844 841
f 761 843 762
f 762 843 845
f 762 845 763
f 763 845 846
f 763 846 765
f 763 765 764
f 765 846 847
f 765 847 766
f 766 847 767
f 767 777 848
f 767 848 768
f 767 847 849
f 767 849 850
f 767 850 777
f 768 848 775
f 769 777 851
f 769 851 852
f 769 852 853
f 769 853 770
f 770 853 854
f 770 854 855
f 770 855 771
f 771 855 772
f 772 855 856
f 772 856 857
f 772 857 858
f 772 858 773
f 773 781 774
f 773 858 859
f 773 859 781
f 774 781 778
f 775 848 777
f 775 777 776
f 777 850 851
f 780 785 860
f 780 860 861
f 780 861 862
f 780 862 863
f 780 863 786
f 781 859 782
f 782 859 864
f 782 864 865
f 782 865 866
f 782 866 867
f 782 867 868
f 782 868 869
f 782 869 860
f 782 860 783
f 783 860 784
f 784 860 785
f 786 863 789
f 786 789 787
f 788 870 794
f 788 792 871
f 788 871 870
f 789 863 790
f 790 863 872
f 790 872 792
f 790 792 791
f 792 872 873
f 792 873 871
f 794 870 874
f 794 874 875
f 794 875 876
f 794 876 795
f 796 877 816
f 796 798 802
f 796 802 878
f 796 878 879
f 796 879 877
f 799 805 880
f 799 880 800
f 800 881 882
f 800 882 802
f 800 802 801
f 800 880 883
f 800 883 884
f 800 884 885
f 800 885 886
f 800 886 881
f 802 882 881
f 802 881 878
f 803 808 887
f 803 887 804
f 804 887 888
f 804 888 889
f 804 889 880
f 804 880 805
f 806 890 807
f 807 890 891
f 807 891 892
f 807 892 893
f 807 893 808
f 808 894 887
f 808 893 895
f 808 895 894
f 809 815 814
f 809 814 810
f 810 814 896
f 810 896 897
f 810 897 811
f 811 897 898
f 811 898 812
f 812 898 899
f 812 899 900
f 812 900 824
f 812 824 823
f 813 822 814
f 814 822 896
f 816 877 817
f 817 877 901
f 817 901 818
f 818 902 820
f 818 820 819
f 818 901 879
f 818 879 903
f 818 903 904
f 818 904 902
f 820 902 904
f 820 904 905
f 820 905 821
f 821 905 906
f 821 906 822
f 822 907 908
f 822 908 896
f 822 906 907
f 824 900 909
f 824 909 825
f 825 910 826
f 825 909 911
f 825 911 910
f 826 910 911
f 826 911 912
f 826 912 829
f 827 829 828
f 828 829 913
f 829 914 913
f 829 912 915
f 829 915 916
f 829 916 914
f 830 917 831
f 831 917 918
f 831 918 838
f 831 838 832
f 833 838 919
f 833 919 834
f 834 919 920
f 834 920 835
f 835 920 1018
f 835 1018 921
f 835 921 836
f 836 921 837
f 837 921 922
f 837 922 923
f 837 923 924
f 837 924 839
f 838 918 919
f 839 924 840
f 840 924 925
f 840 925 844
f 841 926 842
f 841 844 926
f 842 926 933
f 842 933 927
f 842 927 849
f 842 849 928
f 842 928 929
f 842 929 845
f 842 845 843
f 844 925 930
f 844 930 931
f 844 931 932
f 844 932 933
f 844 933 926
f 845 929 846
f 846 929 847
f 847 929 928
f 847 928 849
f 849 927 934
f 849 934 852
f 849 852 850
f 850 852 851
f 852 934 932
f 852 932 935
f 852 935 936
f 852 936 937
f 852 937 853
f 853 937 854
f 854 937 855
f 855 937 938
f 855 938 939
f 855 939 856
f 856 939 857
f 857 939 940
f 857 940 858
f 858 940 941
f 858 941 942
f 858 942 859
f 859 942 943
f 859 943 864
f 860 869 862
f 860 862 861
f 862 872 863
f 862 869 867
f 862 867 944
f 862 944 873
f 862 873 872
f 864 943 865
f 865 943 945
f 865 945 944
f 865 944 866
f 866 944 867
f 867 869 868
f 870 871 946
f 870 946 947
f 870 947 948
f 870 948 949
f 870 949 950
f 870 950 951
f 870 951 952
f 870 952 953
f 870 953 874
f 871 873 954
f 871 954 955
f 871 955 946
f 873 944 954
f 874 956 875
f 874 953 957
f 874 957 958
f 874 958 959
f 874 959 960
f 874 960 961
f 874 961 962
f 874 962 956
f 875 963 876
f 875 956 964
f 875 964 963
f 877 879 901
f 878 881 965
f 878 965 879
f 879 965 904
f 879 904 903
f 880 889 888
f 880 888 883
f 881 886 966
f 881 966 904
f 881 904 965
f 883 888 967
f 883 967 968
f 883 968 884
f 884 968 969
f 884 969 885
f 885 969 970
f 885 970 904
f 885 904 886
f 886 904 966
f 887 894 888
f 888 894 971
f 888 971 972
f 888 972 967
f 892 973 974
f 892 974 893
f 893 974 975
f 893 975 895
f 894 895 976
f 894 976 977
f 894 977 978
f 894 978 971
f 895 979 976
f 895 975 979
f 896 908 980
f 896 980 981
f 896 981 982
f 896 982 983
f 896 983 984
f 896 984 985
f 896 985 986
f 896 986 899
f 896 899 897
f 897 899 898
f 899 986 985
f 899 985 900
f 900 985 987
f 900 987 909
f 904 970 988
f 904 988 989
f 904 989 990
f 904 990 991
f 904 991 992
f 904 992 905
f 905 992 906
f 906 992 993
f 906 993 990
f 906 990 994
f 906 994 995
f 906 995 996
f 906 996 997
f 906 997 998
f 906 998 907
f 907 998 999
f 907 999 1000
f 907 1000 1001
f 907 1001 1002
f 907 1002 1003
f 907 1003 908
f 908 1003 981
f 908 981 980
f 909 987 1004
f 909 1004 1005
f 909 1005 1006
f 909 1006 1007
f 909 1007 1008
f 909 1008 1009
f 909 1009 1010
f 909 1010 1011
f 909 1011 911
f 911 915 912
f 911 1011 1012
f 911 1012 915
f 915 1012 916
f 917 1013 918
f 918 1013 1014
f 918 1014 1015
f 918 1015 919
f 919 1015 1016
f 919 1016 920
f 920 1016 1017
f 920 1017 1018
f 921 1018 1019
f 921 1019 1020
f 921 1020 922
f 922 1020 1021
f 922 1021 923
f 923 1021 1022
f 923 1022 1023
f 923 1023 924
f 924 1023 1024
f 924 1024 925
f 925 1024 1025
f 925 1025 930
f 927 933 932
f 927 932 934
f 930 1025 1026
f 930 1026 1027
f 930 1027 931
f 931 1027 932
f 932 1027 935
f 935 1027 1028
f 935 1028 1029
f 935 1029 936
f 936 1029 937
f 937 1029 1030
f 937 1030 1031
f 937 1031 938
f 938 1031 1032
f 938 1032 939
f 939 1032 1033
f 939 1033 1034
f 939 1034 1035
f 939 1035 940
f 940 1035 941
f 941 1035 1036
f 941 1036 942
f 942 1036 1037
f 942 1037 1038
f 942 1038 943
f 943 1038 1039
f 943 1039 945
f 944 945 1040
f 944 1040 954
f 945 1039 1040
f 946 955 947
f 947 955 948
f 948 955 1041
f 948 1041 950
f 948 950 949
f 950 1041 1042
f 950 1042 952
f 950 952 951
f 952 1042 953
f 953 1042 1043
f 953 1043 1044
f 953 1044 1045
f 953 1045 1046
f 953 1046 1047
f 953 1047 1048
f 953 1048 1049
f 953 1049 1050
f 953 1050 1051
f 953 1051 1052
f 953 1052 1053
f 953 1053 959
f 953 959 957
f 954 1040 1054
f 954 1054 955
f 955 1054 1041
f 956 962 1055
f 956 1055 964
f 957 959 958
f 959 1052 1056
f 959 1056 1057
f 959 1057 960
f 959 1053 1052
f 960 1057 1058
f 960 1058 1059
f 960 1059 1060
f 960 1060 962
f 960 962 961
f 962 1060 1061
f 962 1061 1055
f 963 964 1062
f 964 1063 1064
f 964 1064 1062
f 964 1055 1065
f 964 1065 1066
f 964 1066 1067
f 964 1067 1063
f 967 972 1068
f 967 1068 1069
f 967 1069 968
f 968 1069 988
f 968 988 969
f 969 988 970
f 971 978 1070
f 971 1070 972
f 972 1070 1068
f 973 1071 974
f 974 1071 975
f 975 1071 1072
f 975 1072 979
f 976 979 1073
f 976 1073 1074
f 976 1074 1075
f 976 1075 977
f 977 1075 1076
f 977 1076 978
f 978 1076 1077
f 978 1077 1078
f 978 1078 1070
f 979 1072 1079
f 979 1079 1080
f 979 1080 1073
f 981 1003 1002
f 981 1002 1081
f 981 1081 1082
f 981 1082 982
f 982 1082 1083
f 982 1083 1084
f 982 1084 983
f 983 1084 984
f 984 987 985
f 984 1084 1085
f 984 1085 1086
f 984 1086 987
f 987 1086 1087
f 987 1087 1088
f 987 1088 1004
f 988 1069 1089
f 988 1089 1090
f 988 1090 1091
f 988 1091 989
f 989 1091 990
f 990 1091 1092
f 990 1092 994
f 990 993 992
f 990 992 991
f 994 1092 995
f 995 1092 1093
f 995 1093 1094
f 995 1094 1095
f 995 1095 1096
f 995 1096 996
f 996 1096 997
f 997 1096 1095
f 997 1095 1097
f 997 1097 1098
f 997 1098 1099
f 997 1099 998
f 998 1099 999
f 999 1099 1098
f 999 1098 1000
f 1000 1100 1001
f 1000 1098 1101
f 1000 1101 1100
f 1001 1100 1102
f 1001 1102 1103
f 1001 1103 1104
f 1001 1104 1002
f 1002 1104 1082
f 1002 1082 1081
f 1004 1088 1005
f 1005 1088 1105
f 1005 1105 1006
f 1006 1106 1107
f 1006 1107 1108
f 1006 1108 1109
f 1006 1109 1007
f 1006 1105 1106
f 1007 1109 1110
f 1007 1110 1008
f 1008 1110 1009
f 1009 1111 1112
f 1009 1112 1010
f 1009 1110 1111
f 1010 1012 1011
f 1014 1113 1015
f 1015 1113 1114
f 1015 1114 1016
f 1016 1115 1116
f 1016 1116 1117
f 1016 1117 1017
f 1016 1114 1115
f 1017 1117 1118
f 1017 1118 1119
f 1017 1119 1120
f 1017 1120 1018
f 1018 1120 1019
f 1019 1120 1121
f 1019 1121 1122
f 1019 1122 1020
f 1020 1122 1123
f 1020 1123 1021
f 1021 1123 1124
f 1021 1124 1125
f 1021 1125 1022
f 1022 1125 1126
f 1022 1126 1023
f 1023 1126 1127
f 1023 1127 1024
f 1024 1127 1128
f 1024 1128 1025
f 1025 1128 1129
f 1025 1129 1026
f 1026 1129 1130
f 1026 1130 1028
f 1026 1028 1027
f 1028 1130 1029
f 1029 1130 1030
f 1030 1130 1131
f 1030 1131 1031
f 1031 1131 1032
f 1032 1131 1033
f 1033 1131 1034
f 1034 1131 1132
f 1034 1132 1133
f 1034 1133 1035
f 1035 1133 1134
f 1035 1134 1135
f 1035 1135 1036
f 1036 1135 1136
f 1036 1136 1137
f 1036 1137 1037
f 1037 1138 1038
f 1037 1137 1139
f 1037 1139 1138
f 1038 1138 1140
f 1038 1140 1039
f 1039 1140 1141
f 1039 1141 1142
f 1039 1142 1143
f 1039 1143 1040
f 1040 1143 1144
f 1040 1144 1054
f 1041 1054 1145
f 1041 1145 1042
f 1042 1145 1043
f 1043 1145 1146
f 1043 1146 1147
f 1043 1147 1148
f 1043 1148 1149
f 1043 1149 1044
f 1044 1149 1241
f 1044 1241 1150
f 1044 1150 1045
f 1045 1150 1046
f 1046 1151 1047
f 1046 1150 1152
f 1046 1152 1151
f 1047 1151 1048
f 1048 1151 1153
f 1048 1153 1049
f 1049 1154 1155
f 1049 1155 1050
f 1049 1153 1156
f 1049 1156 1154
f 1050 1155 1051
f 1051 1155 1157
f 1051 1157 1158
f 1051 1158 1052
f 1052 1158 1056
f 1054 1144 1145
f 1055 1061 1065
f 1056 1158 1159
f 1056 1159 1160
f 1056 1160 1057
f 1057 1160 1058
f 1058 1160 1161
f 1058 1161 1162
f 1058 1162 1163
f 1058 1163 1164
f 1058 1164 1165
f 1058 1165 1059
f 1059 1165 1060
f 1060 1165 1166
f 1060 1166 1167
f 1060 1167 1061
f 1061 1167 1065
f 1065 1167 1168
f 1065 1168 1077
f 1065 1077 1076
f 1065 1076 1075
f 1065 1075 1169
f 1065 1169 1170
f 1065 1170 1067
f 1065 1067 1066
f 1067 1170 1171
f 1068 1070 1172
f 1068 1172 1173
f 1068 1173 1174
f 1068 1174 1069
f 1069 1174 1089
f 1070 1078 1174
f 1070 1174 1173
f 1070 1173 1172
f 1073 1080 1074
f 1074 1080 1175
f 1074 1175 1176
f 1074 1176 1177
f 1074 1177 1169
f 1074 1169 1075
f 1077 1178 1179
f 1077 1179 1078
f 1077 1168 1167
f 1077 1167 1166
f 1077 1166 1180
f 1077 1180 1178
f 1078 1179 1181
f 1078 1181 1182
f 1078 1182 1174
f 1079 1183 1080
f 1080 1183 1175
f 1082 1184 1083
f 1082 1104 1103
f 1082 1103 1185
f 1082 1185 1184
f 1083 1184 1085
f 1083 1085 1084
f 1085 1184 1086
f 1086 1186 1187
f 1086 1187 1188
f 1086 1188 1189
f 1086 1189 1088
f 1086 1088 1087
f 1086 1184 1186
f 1088 1190 1191
f 1088 1191 1105
f 1088 1189 1190
f 1089 1174 1192
f 1089 1192 1090
f 1090 1192 1093
f 1090 1093 1092
f 1090 1092 1091
f 1093 1192 1193
f 1093 1193 1194
f 1093 1194 1195
f 1093 1195 1095
f 1093 1095 1094
f 1095 1195 1097
f 1097 1195 1196
f 1097 1196 1101
f 1097 1101 1098
f 1100 1101 1102
f 1101 1196 1197
f 1101 1197 1103
f 1101 1103 1102
f 1103 1197 1185
f 1105 1191 1190
f 1105 1190 1198
f 1105 1198 1106
f 1106 1198 1199
f 1106 1199 1107
f 1107 1200 1201
f 1107 1201 1202
f 1107 1202 1108
f 1107 1199 1200
f 1108 1202 1203
f 1108 1203 1204
f 1108 1204 1109
f 1109 1205 1110
f 1109 1204 1205
f 1110 1205 1111
f 1119 1206 1120
f 1120 1206 1121
f 1121 1206 1207
f 1121 1207 1208
f 1121 1208 1209
f 1121 1209 1122
f 1122 1209 1123
f 1123 1209 1124
f 1124 1209 1125
f 1125 1209 1210
f 1125 1210 1211
f 1125 1211 1126
f 1126 1211 1212
f 1126 1212 1213
f 1126 1213 1127
f 1127 1213 1128
f 1128 1213 1214
f 1128 1214 1215
f 1128 1215 1216
f 1128 1216 1129
f 1129 1216 1217
f 1129 1217 1130
f 1130 1217 1218
f 1130 1218 1219
f 1130 1219 1131
f 1131 1219 1220
f 1131 1220 1132
f 1132 1220 1221
f 1132 1221 1222
f 1132 1222 1223
f 1132 1223 1134
f 1132 1134 1133
f 1134 1223 1135
f 1135 1223 1224
f 1135 1224 1225
f 1135 1225 1136
f 1136 1226 1137
f 1136 1225 1227
f 1136 1227 1226
f 1137 1226 1228
f 1137 1228 1229
f 1137 1229 1230
f 1137 1230 1231
f 1137 1231 1139
f 1138 1139 1140
f 1139 1231 1232
f 1139 1232 1141
f 1139 1141 1140
f 1141 1232 1233
f 1141 1233 1234
f 1141 1234 1144
f 1141 1144 1142
f 1142 1144 1143
f 1144 1234 1146
f 1144 1146 1145
f 1146 1234 1233
f 1146 1233 1235
f 1146 1235 1230
f 1146 1230 1236
f 1146 1236 1237
f 1146 1237 1147
f 1147 1237 1238
f 1147 1238 1148
f 1148 1238 1239
f 1148 1239 1240
f 1148 1240 1149
f 1149 1240 1242
f 1149 1242 1152
f 1149 1152 1241
f 1150 1241 1152
f 1151 1152 1153
f 1152 1243 1244
f 1152 1244 1245
f 1152 1245 1246
f 1152 1246 1156
f 1152 1156 1247
f 1152 1247 1153
f 1152 1242 1248
f 1152 1248 1243
f 1153 1247 1156
f 1154 1156 1155
f 1155 1156 1249
f 1155 1249 1250
f 1155 1250 1157
f 1156 1246 1251
f 1156 1251 1252
f 1156 1252 1249
f 1157 1250 1253
f 1157 1253 1254
f 1157 1254 1158
f 1158 1254 1159
f 1159 1254 1255
f 1159 1255 1256
f 1159 1256 1161
f 1159 1161 1160
f 1161 1256 1257
f 1161 1257 1162
f 1162 1257 1163
f 1163 1257 1164
f 1164 1257 1258
f 1164 1258 1165
f 1165 1258 1259
f 1165 1259 1166
f 1166 1259 1180
f 1169 1177 1170
f 1170 1177 1171
f 1174 1182 1260
f 1174 1260 1192
f 1175 1183 1176
f 1178 1180 1261
f 1178 1261 1181
f 1178 1181 1179
f 1180 1259 1261
f 1181 1261 1262
f 1181 1262 1182
f 1182 1262 1257
f 1182 1257 1263
f 1182 1263 1260
f 1184 1185 1186
f 1185 1264 1187
f 1185 1187 1186
f 1185 1197 1264
f 1187 1265 1188
f 1187 1264 1266
f 1187 1266 1265
f 1188 1267 1189
f 1188 1265 1267
f 1189 1267 1268
f 1189 1268 1190
f 1190 1268 1198
f 1192 1260 1269
f 1192 1269 1193
f 1193 1269 1194
f 1194 1270 1196
f 1194 1196 1195
f 1194 1269 1270
f 1196 1270 1271
f 1196 1271 1197
f 1197 1271 1272
f 1197 1272 1273
f 1197 1273 1264
f 1198 1268 1274
f 1198 1274 1275
f 1198 1275 1199
f 1199 1275 1200
f 1200 1275 1276
f 1200 1276 1277
f 1200 1277 1278
f 1200 1278 1201
f 1201 1278 1279
f 1201 1279 1202
f 1202 1280 1203
f 1202 1279 1281
f 1202 1281 1282
f 1202 1282 1283
f 1202 1283 1280
f 1203 1280 1204
f 1207 1284 1208
f 1208 1285 1209
f 1208 1284 1286
f 1208 1286 1287
f 1208 1287 1285
f 1209 1285 1288
f 1209 1288 1289
f 1209 1289 1210
f 1210 1289 1290
f 1210 1290 1291
f 1210 1291 1292
f 1210 1292 1293
f 1210 1293 1294
f 1210 1294 1211
f 1211 1294 1295
f 1211 1295 1296
f 1211 1296 1212
f 1212 1296 1213
f 1213 1296 1297
f 1213 1297 1298
f 1213 1298 1299
f 1213 1299 1300
f 1213 1300 1301
f 1213 1301 1214
f 1214 1301 1215
f 1215 1301 1302
f 1215 1302 1303
f 1215 1303 1304
f 1215 1304 1376
f 1215 1376 1305
f 1215 1305 1216
f 1216 1305 1306
f 1216 1306 1219
f 1216 1219 1218
f 1216 1218 1217
f 1219 1306 1307
f 1219 1307 1220
f 1220 1307 1308
f 1220 1308 1309
f 1220 1309 1311
f 1220 1311 1221
f 1221 1310 1222
f 1221 1311 1312
f 1221 1312 1310
f 1222 1310 1313
f 1222 1313 1314
f 1222 1314 1224
f 1222 1224 1223
f 1224 1314 1315
f 1224 1315 1316
f 1224 1316 1317
f 1224 1317 1225
f 1225 1317 1318
f 1225 1318 1319
f 1225 1319 1227
f 1226 1227 1320
f 1226 1320 1228
f 1227 1321 1320
f 1227 1319 1321
f 1228 1320 1322
f 1228 1322 1323
f 1228 1323 1229
f 1229 1323 1324
f 1229 1324 1230
f 1230 1235 1231
f 1230 1324 1236
f 1231 1235 1233
f 1231 1233 1232
f 1236 1324 1237
f 1237 1324 1325
f 1237 1325 1326
f 1237 1326 1238
f 1238 1326 1327
f 1238 1327 1239
f 1239 1327 1243
f 1239 1243 1240
f 1240 1248 1242
f 1240 1243 1248
f 1243 1328 1329
f 1243 1329 1330
f 1243 1330 1244
f 1243 1327 1331
f 1243 1331 1332
f 1243 1332 1328
f 1244 1330 1245
f 1245 1333 1272
f 1245 1272 1271
f 1245 1271 1334
f 1245 1334 1251
f 1245 1251 1246
f 1245 1330 1329
f 1245 1329 1333
f 1249 1252 1335
f 1249 1335 1250
f 1250 1335 1253
f 1251 1334 1252
f 1252 1334 1336
f 1252 1336 1335
f 1253 1335 1336
f 1253 1336 1254
f 1254 1336 1255
f 1255 1336 1263
f 1255 1263 1257
f 1255 1257 1256
f 1257 1262 1258
f 1258 1262 1261
f 1258 1261 1259
f 1260 1263 1337
f 1260 1337 1269
f 1263 1336 1337
f 1264 1338 1266
f 1264 1273 1338
f 1265 1339 1267
f 1265 1266 1340
f 1265 1340 1341
f 1265 1341 1339
f 1266 1338 1340
f 1267 1274 1268
f 1267 1339 1274
f 1269 1337 1270
f 1270 1337 1336
f 1270 1336 1334
f 1270 1334 1271
f 1272 1342 1273
f 1272 1333 1342
f 1273 1342 1343
f 1273 1343 1344
f 1273 1344 1338
f 1274 1276 1275
f 1274 1339 1276
f 1276 1339 1277
f 1277 1339 1341
f 1277 1341 1345
f 1277 1345 1279
f 1277 1279 1278
f 1279 1345 1346
f 1279 1346 1347
f 1279 1347 1281
f 1280 1283 1348
f 1280 1348 1349
f 1281 1347 1350
f 1281 1350 1352
f 1281 1352 1351
f 1281 1351 1282
f 1282 1351 1352
f 1282 1352 1353
f 1282 1353 1354
f 1282 1354 1283
f 1283 1354 1348
f 1285 1287 1355
f 1285 1355 1288
f 1287 1356 1355
f 1288 1355 1357
f 1288 1357 1289
f 1289 1357 1290
f 1290 1357 1291
f 1291 1358 1359
f 1291 1359 1360
f 1291 1360 1361
f 1291 1361 1292
f 1291 1357 1358
f 1292 1361 1293
f 1293 1361 1362
f 1293 1362 1363
f 1293 1363 1364
f 1293 1364 1294
f 1294 1364 1295
f 1295 1364 1363
f 1295 1363 1365
f 1295 1365 1366
f 1295 1366 1367
f 1295 1367 1297
f 1295 1297 1296
f 1297 1367 1368
f 1297 1368 1369
f 1297 1369 1298
f 1298 1369 1370
f 1298 1370 1299
f 1299 1370 1371
f 1299 1371 1301
f 1299 1301 1300
f 1301 1372 1302
f 1301 1371 1372
f 1302 1372 1436
f 1302 1436 1373
f 1302 1373 1303
f 1303 1373 1374
f 1303 1374 1375
f 1303 1375 1376
f 1303 1376 1304
f 1305 1376 1377
f 1305 1377 1378
f 1305 1378 1306
f 1306 1378 1307
f 1307 1378 1308
f 1308 1378 1377
f 1308 1377 1379
f 1308 1379 1309
f 1309 1379 1311
f 1310 1312 1313
f 1311 1379 1441
f 1311 1441 1380
f 1311 1380 1381
f 1311 1381 1312
f 1312 1381 1382
f 1312 1382 1383
f 1312 1383 1314
f 1312 1314 1313
f 1314 1383 1316
f 1314 1316 1315
f 1316 1383 1384
f 1316 1384 1317
f 1317 1384 1318
f 1318 1384 1385
f 1318 1385 1319
f 1319 1385 1386
f 1319 1386 1321
f 1320 1321 1387
f 1320 1387 1388
f 1320 1388 1322
f 1321 1389 1390
f 1321 1390 1391
f 1321 1391 1387
f 1321 1386 1389
f 1322 1388 1393
f 1322 1393 1392
f 1322 1392 1323
f 1323 1392 1324
f 1324 1392 1325
f 1325 1392 1393
f 1325 1393 1326
f 1326 1393 1394
f 1326 1394 1395
f 1326 1395 1327
f 1327 1395 1331
f 1328 1332 1396
f 1328 1396 1397
f 1328 1397 1329
f 1329 1397 1398
f 1329 1398 1333
f 1331 1395 1394
f 1331 1394 1391
f 1331 1391 1390
f 1331 1390 1332
f 1332 1390 1389
f 1332 1389 1396
f 1333 1399 1342
f 1333 1398 1399
f 1338 1344 1340
f 1340 1344 1400
f 1340 1400 1341
f 1341 1400 1401
f 1341 1401 1345
f 1342 1402 1403
f 1342 1403 1343
f 1342 1399 1402
f 1343 1403 1404
f 1343 1404 1344
f 1344 1404 1400
f 1345 1401 1346
f 1346 1401 1405
f 1346 1405 1347
f 1347 1405 1350
f 1348 1354 1406
f 1348 1406 1407
f 1348 1407 1408
f 1348 1408 1349
f 1350 1405 1409
f 1350 1409 1410
f 1350 1410 1411
f 1350 1411 1352
f 1352 1412 1353
f 1352 1411 1412
f 1353 1413 1354
f 1353 1412 1414
f 1353 1414 1415
f 1353 1415 1413
f 1354 1413 1406
f 1355 1356 1416
f 1355 1416 1357
f 1357 1416 1417
f 1357 1417 1358
f 1358 1417 1359
f 1359 1417 1416
f 1359 1416 1418
f 1359 1418 1419
f 1359 1419 1420
f 1359 1420 1421
f 1359 1421 1360
f 1360 1421 1422
f 1360 1422 1423
f 1360 1423 1424
f 1360 1424 1425
f 1360 1425 1362
f 1360 1362 1361
f 1362 1425 1424
f 1362 1424 1426
f 1362 1426 1427
f 1362 1427 1428
f 1362 1428 1363
f 1363 1366 1365
f 1363 1428 1429
f 1363 1429 1366
f 1366 1429 1430
f 1366 1430 1431
f 1366 1431 1432
f 1366 1432 1367
f 1367 1432 1368
f 1368 1432 1369
f 1369 1432 1370
f 1370 1433 1371
f 1370 1432 1434
f 1370 1434 1433
f 1371 1433 1435
f 1371 1435 1373
f 1371 1373 1436
f 1371 1436 1372
f 1373 1435 1437
f 1373 1437 1374
f 1374 1437 1438
f 1374 1438 1439
f 1374 1439 1440
f 1374 1440 1375
f 1375 1440 1441
f 1375 1441 1377
f 1375 1377 1376
f 1377 1441 1379
f 1380 1441 1440
f 1380 1440 1381
f 1381 1440 1442
f 1381 1442 1382
f 1382 1442 1384
f 1382 1384 1383
f 1384 1442 1443
f 1384 1443 1444
f 1384 1444 1385
f 1385 1444 1445
f 1385 1445 1446
f 1385 1446 1386
f 1386 1446 1445
f 1386 1445 1389
f 1387 1391 1388
f 1388 1391 1393
f 1389 1445 1447
f 1389 1447 1396
f 1391 1394 1393
f 1396 1447 1397
f 1397 1447 1448
f 1397 1448 1398
f 1398 1449 1399
f 1398 1448 1449
f 1399 1450 1454
f 1399 1454 1402
f 1399 1449 1451
f 1399 1451 1452
f 1399 1452 1450
f 1400 1404 1453
f 1400 1453 1401
f 1401 1453 1411
f 1401 1411 1410
f 1401 1410 1405
f 1402 1454 1403
f 1403 1455 1456
f 1403 1456 1411
f 1403 1411 1457
f 1403 1457 1404
f 1403 1454 1455
f 1404 1457 1453
f 1405 1410 1409
f 1406 1458 1459
f 1406 1459 1460
f 1406 1460 1461
f 1406 1461 1462
f 1406 1462 1407
f 1406 1413 1458
f 1407 1462 1463
f 1411 1453 1457
f 1411 1456 1455
f 1411 1455 1464
f 1411 1464 1465
f 1411 1465 1414
f 1411 1414 1466
f 1411 1466 1467
f 1411 1467 1412
f 1412 1467 1466
f 1412 1466 1414
f 1413 1415 1459
f 1413 1459 1458
f 1414 1465 1415
f 1415 1465 1468
f 1415 1468 1469
f 1415 1469 1459
f 1420 1470 1421
f 1421 1470 1471
f 1421 1471 1422
f 1422 1471 1423
f 1423 1472 1424
f 1423 1471 1473
f 1423 1473 1472
f 1424 1474 1426
f 1424 1472 1461
f 1424 1461 1460
f 1424 1460 1474
f 1426 1474 1427
f 1427 1474 1469
f 1427 1469 1468
f 1427 1468 1464
f 1427 1464 1475
f 1427 1475 1428
f 1428 1475 1464
f 1428 1464 1429
f 1429 1464 1455
f 1429 1455 1476
f 1429 1476 1431
f 1429 1431 1430
f 1431 1476 1432
f 1432 1476 1477
f 1432 1477 1434
f 1433 1434 1478
f 1433 1478 1435
f 1434 1477 1479
f 1434 1479 1478
f 1435 1480 1437
f 1435 1478 1451
f 1435 1451 1480
f 1437 1480 1438
f 1438 1480 1481
f 1438 1481 1448
f 1438 1448 1482
f 1438 1482 1483
f 1438 1483 1439
f 1439 1483 1440
f 1440 1483 1442
f 1442 1483 1444
f 1442 1444 1443
f 1444 1483 1482
f 1444 1482 1448
f 1444 1448 1447
f 1444 1447 1445
f 1448 1481 1449
f 1449 1481 1480
f 1449 1480 1451
f 1450 1452 1484
f 1450 1484 1454
f 1451 1478 1452
f 1452 1478 1479
f 1452 1479 1485
f 1452 1485 1484
f 1454 1484 1485
f 1454 1485 1486
f 1454 1486 1455
f 1455 1486 1476
f 1459 1469 1474
f 1459 1474 1460
f 1461 1487 1462
f 1461 1472 1487
f 1462 1487 1488
f 1462 1488 1463
f 1464 1468 1465
f 1471 1489 1473
f 1472 1473 1487
f 1473 1489 1487
f 1476 1486 1477
f 1477 1486 1479
f 1479 1486 1485
f 1487 1489 1488

