# https://github.com/mikedh/trimesh
v -0.00557507 0.01826295 0.01519916
v -0.00557507 0.01811283 0.01519850
v -0.00557507 0.01841386 0.01516961
v -0.00567716 0.02151358 0.01479797
v -0.00569031 0.02151358 0.01479797
v -0.00574609 0.02156401 0.01477761
v -0.00578503 0.02141350 0.01478418
v -0.00581450 0.02126338 0.01479206
v -0.00582976 0.02118733 0.01479534
v -0.00590553 0.02156401 0.01472902
v -0.00606498 0.02155731 0.01466862
v -0.00612602 0.02156401 0.01464432
v -0.00618864 0.02156401 0.01462003
v -0.00622074 0.02141350 0.01462265
v -0.00628494 0.02090758 0.01464760
v -0.00633282 0.02051317 0.01466730
v -0.00640649 0.01901316 0.01478615
v -0.00643280 0.01879684 0.01479665
v -0.00644280 0.01871292 0.01480059
v -0.00684641 0.01871292 0.01463119
v -0.00695586 0.01871292 0.01458523
v -0.00718108 0.01864081 0.01449593
v -0.00725686 0.01856280 0.01446310
v -0.00718161 0.01841268 0.01449593
v -0.00718108 0.01833703 0.01449593
v -0.00557507 0.01802182 0.01518011
v -0.00675748 0.01814160 0.01465811
v -0.00557507 0.01856201 0.01513349
v -0.00564348 0.02141350 0.01472049
v -0.00565558 0.02156401 0.01473165
v -0.00635545 0.02156401 0.01455305
v -0.00635545 0.02126338 0.01458326
v -0.00637176 0.02081341 0.01462134
v -0.00640754 0.02051317 0.01463644
v -0.00646227 0.02156401 0.01450906
v -0.00650542 0.01946312 0.01470013
v -0.00702480 0.01936265 0.01449330
v -0.00695586 0.01916328 0.01454189
v -0.00725581 0.01901316 0.01443158
v -0.00715898 0.01886304 0.01448674
v -0.00717214 0.01874089 0.01449199
v -0.00711583 0.01869952 0.01451891
v -0.00724107 0.01869952 0.01446572
v -0.00740578 0.01871292 0.01439153
v -0.00740578 0.01856280 0.01439612
v -0.00725633 0.01841268 0.01446310
v -0.00740578 0.01841268 0.01439481
v -0.00748839 0.01832324 0.01434950
v -0.00557507 0.01795641 0.01516239
v -0.00642491 0.01805215 0.01479337
v -0.00705374 0.01811283 0.01450709
v -0.00680694 0.01810022 0.01462331
v -0.00740999 0.01826886 0.01437445
v -0.00557507 0.01886383 0.01505864
v -0.00562401 0.02156362 0.01457078
v -0.00562401 0.02156401 0.01457012
v -0.00651858 0.02021293 0.01462003
v -0.00695586 0.02156401 0.01430288
v -0.00688956 0.02137489 0.01434950
v -0.00719582 0.02006321 0.01435213
v -0.00725581 0.01886304 0.01444602
v -0.00726475 0.01960221 0.01436920
v -0.00733211 0.01954547 0.01434622
v -0.00735737 0.01931300 0.01435804
v -0.00741735 0.01886225 0.01437445
v -0.00748576 0.01881142 0.01434819
v -0.00749260 0.01871292 0.01435147
v -0.00749681 0.01856280 0.01435344
v -0.00749471 0.01841268 0.01435213
v -0.00778571 0.01832994 0.01419783
v -0.00746261 0.01822316 0.01433637
v -0.00779465 0.01841268 0.01420242
v -0.00809407 0.01841268 0.01405206
v -0.00604077 0.01782717 0.01489777
v -0.00594132 0.01778698 0.01492929
v -0.00557507 0.01784805 0.01512233
v -0.00639439 0.01796271 0.01477827
v -0.00628757 0.01787839 0.01479928
v -0.00672801 0.01804152 0.01464432
v -0.00712899 0.01811283 0.01446966
v -0.00703111 0.01803718 0.01449593
v -0.00557507 0.01914082 0.01497328
v -0.00557507 0.01933625 0.01486954
v -0.00557507 0.01946312 0.01479337
v -0.00557507 0.01960300 0.01470933
v -0.00557507 0.01960615 0.01470736
v -0.00557507 0.02156362 0.01342763
v -0.00557507 0.02156401 0.01337838
v -0.00710583 0.02156401 0.01423985
v -0.00719582 0.02156362 0.01420242
v -0.00710583 0.02111326 0.01428516
v -0.00738947 0.01901316 0.01437249
v -0.00728791 0.02141350 0.01417616
v -0.00733053 0.02103643 0.01419520
v -0.00734105 0.02093635 0.01420045
v -0.00743209 0.01931300 0.01432258
v -0.00746103 0.02051317 0.01418601
v -0.00758364 0.02006321 0.01417288
v -0.00785622 0.01901316 0.01414858
v -0.00778939 0.01882758 0.01419980
v -0.00779676 0.01871292 0.01420308
v -0.00800619 0.01856280 0.01410459
v -0.00817879 0.01856280 0.01401989
v -0.00808197 0.01833663 0.01404615
v -0.00736263 0.01814396 0.01436198
v -0.00839612 0.01845878 0.01390367
v -0.00620179 0.01782205 0.01481964
v -0.00614970 0.01771842 0.01480519
v -0.00589711 0.01766996 0.01490237
v -0.00557507 0.01784293 0.01512036
v -0.00624968 0.01777831 0.01478024
v -0.00688482 0.01788430 0.01449790
v -0.00732632 0.01804427 0.01434228
v -0.00557507 0.02156401 0.01255368
v -0.00719582 0.02156401 0.01420177
v -0.00727054 0.02156401 0.01416828
v -0.00740578 0.02156401 0.01410459
v -0.00740578 0.02141350 0.01412035
v -0.00740578 0.02111326 0.01415121
v -0.00750471 0.02156362 0.01405731
v -0.00785622 0.02051317 0.01399494
v -0.00800619 0.02141350 0.01383013
v -0.00815616 0.01931300 0.01397261
v -0.00814196 0.01900134 0.01401135
v -0.00808986 0.01886304 0.01405009
v -0.00816511 0.01886304 0.01401332
v -0.00800619 0.01871292 0.01410065
v -0.00809933 0.01871292 0.01405469
v -0.00817458 0.01871292 0.01401726
v -0.00830561 0.01871292 0.01395160
v -0.00830561 0.01856280 0.01395620
v -0.00804408 0.01823655 0.01402251
v -0.00794410 0.01817627 0.01405272
v -0.00765678 0.01816208 0.01420965
v -0.00868922 0.01847493 0.01375002
v -0.00898127 0.01848754 0.01359572
v -0.00916966 0.01844341 0.01346702
v -0.00840191 0.01856280 0.01390695
v -0.00600078 0.01757737 0.01480716
v -0.00605287 0.01766602 0.01482817
v -0.00644333 0.01772867 0.01465286
v -0.00557507 0.01768611 0.01502975
v -0.00557507 0.01777753 0.01508359
v -0.00750523 0.01801788 0.01421096
v -0.00778465 0.01803482 0.01404812
v -0.00822615 0.01819321 0.01389250
v -0.00557507 0.02155692 0.01255499
v -0.01094248 0.02153643 0.00850241
v -0.01095090 0.02156401 0.00849190
v -0.00757996 0.02156401 0.01402054
v -0.00780991 0.02156401 0.01390958
v -0.00800619 0.02156401 0.01381437
v -0.00811354 0.02156362 0.01376184
v -0.00819405 0.02006321 0.01387740
v -0.00823247 0.01969559 0.01389644
v -0.00831561 0.01900291 0.01392468
v -0.00830561 0.01886304 0.01394306
v -0.00839770 0.01871292 0.01390432
v -0.00884288 0.01832718 0.01360228
v -0.00912598 0.01834333 0.01344141
v -0.00860555 0.01856280 0.01379795
v -0.00876710 0.01856280 0.01371128
v -0.00898180 0.01856280 0.01359572
v -0.00905652 0.01856280 0.01355435
v -0.00926753 0.01856280 0.01343748
v -0.01004370 0.01860181 0.01300214
v -0.00974218 0.01847887 0.01315185
v -0.00860555 0.01871292 0.01379401
v -0.00898180 0.01864594 0.01359572
v -0.00615286 0.01757973 0.01466402
v -0.00605287 0.01756712 0.01471655
v -0.00590553 0.01756358 0.01482883
v -0.00557507 0.01765656 0.01500874
v -0.00734316 0.01788155 0.01420308
v -0.00687430 0.01774010 0.01433834
v -0.00868396 0.01818612 0.01359769
v -0.00557507 0.02126338 0.01261803
v -0.01095090 0.02141389 0.00852013
v -0.01095090 0.02154234 0.00849518
v -0.01095090 0.02156401 0.01185439
v -0.00811301 0.02156401 0.01376184
v -0.00818826 0.02156401 0.01372310
v -0.00837244 0.01904626 0.01389119
v -0.00838244 0.01894618 0.01389644
v -0.00821878 0.02126338 0.01373886
v -0.00838928 0.01886304 0.01389973
v -0.00868449 0.01880630 0.01374739
v -0.01002529 0.01850173 0.01298901
v -0.00926701 0.01871292 0.01343748
v -0.00947592 0.01871292 0.01332060
v -0.00983480 0.01871292 0.01311902
v -0.00995635 0.01871292 0.01305073
v -0.01004318 0.01871292 0.01300149
v -0.01011790 0.01871292 0.01295355
v -0.01021788 0.01871292 0.01287870
v -0.01020841 0.01858841 0.01287017
v -0.00897654 0.01874602 0.01359309
v -0.00628967 0.01758485 0.01450709
v -0.00691745 0.01772394 0.01423854
v -0.00706058 0.01772670 0.01408029
v -0.00720318 0.01772946 0.01392205
v -0.00734526 0.01773300 0.01376250
v -0.00590553 0.01753915 0.01472049
v -0.00575504 0.01755530 0.01484918
v -0.00557507 0.01757027 0.01492732
v -0.00557507 0.01760613 0.01497000
v -0.01018052 0.01848833 0.01284456
v -0.00930489 0.01832599 0.01331009
v -0.00557507 0.02123659 0.01262591
v -0.01095090 0.02126338 0.00855887
v -0.01095090 0.02139813 0.00852407
v -0.01095090 0.02120625 0.01189904
v -0.01091249 0.02126338 0.01192728
v -0.01050362 0.02156362 0.01226543
v -0.01034680 0.02156401 0.01240923
v -0.00830561 0.02156362 0.01366007
v -0.00847768 0.02156401 0.01356683
v -0.00824878 0.02096314 0.01375462
v -0.00835244 0.02066329 0.01373032
v -0.00905599 0.01901316 0.01352415
v -0.00905599 0.01886304 0.01353991
v -0.00918018 0.01886304 0.01347228
v -0.00992530 0.01846705 0.01302053
v -0.00925490 0.01886304 0.01343091
v -0.00935594 0.01886304 0.01337444
v -0.00996740 0.01885792 0.01302906
v -0.01002476 0.01890441 0.01299164
v -0.01003423 0.01880433 0.01299689
v -0.00953854 0.01886304 0.01327135
v -0.01003528 0.02016171 0.01284784
v -0.01005581 0.01991309 0.01286163
v -0.01018315 0.01925075 0.01284653
v -0.01019894 0.01901316 0.01286097
v -0.01020946 0.01886304 0.01286951
v -0.01028418 0.01886304 0.01280188
v -0.01036575 0.01886304 0.01272703
v -0.01044100 0.01886304 0.01265742
v -0.01029313 0.01871292 0.01280844
v -0.01037154 0.01871292 0.01273359
v -0.01044679 0.01871292 0.01266136
v -0.01052309 0.01871292 0.01258651
v -0.01035838 0.01859393 0.01272243
v -0.00628967 0.01758485 0.01446638
v -0.00958853 0.01803521 0.01210325
v -0.00853241 0.01788706 0.01284718
v -0.00825351 0.01787918 0.01317155
v -0.01012106 0.01844696 0.01278481
v -0.01031102 0.01819518 0.01177166
v -0.01063991 0.01818494 0.01135471
v -0.00839612 0.01788233 0.01301331
v -0.00605551 0.01755924 0.01457078
v -0.00575504 0.01754309 0.01472049
v -0.00557507 0.01755097 0.01487742
v -0.00557507 0.01755806 0.01489843
v -0.01050835 0.01859944 0.01257206
v -0.01065622 0.01860496 0.01242104
v -0.01080198 0.01861205 0.01226674
v -0.01094564 0.01862033 0.01211047
v -0.01095090 0.01861520 0.01209865
v -0.01032312 0.01849385 0.01268566
v -0.01093669 0.01848518 0.01195091
v -0.01095090 0.01847375 0.01190101
v -0.01095090 0.01846035 0.01185965
v -0.01095090 0.01843356 0.01177626
v -0.00557507 0.02110577 0.01266596
v -0.01095090 0.02121176 0.00857595
v -0.01095090 0.02079923 0.01194960
v -0.01095090 0.02013295 0.01203233
v -0.01088091 0.01931300 0.01219845
v -0.01058834 0.02021293 0.01235538
v -0.01046257 0.02096314 0.01237771
v -0.01026471 0.02036305 0.01263379
v -0.01026524 0.02156362 0.01248408
v -0.01018999 0.02156401 0.01255302
v -0.00892181 0.02156401 0.01332585
v -0.00883183 0.02089301 0.01344601
v -0.00912966 0.01938235 0.01344470
v -0.00915071 0.01916328 0.01345652
v -0.00924070 0.01901316 0.01342303
v -0.00912335 0.02084848 0.01329105
v -0.00934541 0.01931300 0.01333176
v -0.00980638 0.01931300 0.01307109
v -0.00969219 0.02081341 0.01297325
v -0.00980638 0.02051317 0.01294108
v -0.00979586 0.02111326 0.01288198
v -0.00987900 0.02102776 0.01284390
v -0.00930226 0.01976297 0.01330747
v -0.00918755 0.02156362 0.01317746
v -0.00982795 0.02156362 0.01281435
v -0.01002634 0.02026140 0.01284193
v -0.00997109 0.02142847 0.01274081
v -0.01002476 0.02156362 0.01269025
v -0.01003107 0.02148836 0.01269485
v -0.01017526 0.01935083 0.01284062
v -0.01017631 0.02055376 0.01269091
v -0.01020999 0.02006321 0.01272112
v -0.01025051 0.01946312 0.01275854
v -0.01027419 0.01901316 0.01279269
v -0.01003897 0.02138828 0.01270076
v -0.01013527 0.02111326 0.01265611
v -0.01089091 0.01916328 0.01220765
v -0.01095090 0.01916328 0.01215249
v -0.01066938 0.01901316 0.01242958
v -0.01074410 0.01901316 0.01236064
v -0.01052098 0.01886304 0.01258257
v -0.01059623 0.01886304 0.01251166
v -0.01095090 0.01901316 0.01216497
v -0.01074989 0.01886304 0.01236392
v -0.01082619 0.01886304 0.01228907
v -0.01095090 0.01886304 0.01216497
v -0.01059834 0.01871292 0.01251100
v -0.00620548 0.01757973 0.01445194
v -0.00853241 0.01788706 0.01283865
v -0.00735579 0.01773576 0.01358915
v -0.01066359 0.01818297 0.01127001
v -0.01095090 0.01841465 0.01171716
v -0.01095090 0.01837722 0.01159963
v -0.01085671 0.01828541 0.01142037
v -0.01095090 0.01829447 0.01133895
v -0.01095090 0.01827517 0.01127658
v -0.01095090 0.01824640 0.01117612
v -0.01095090 0.01823655 0.01112030
v -0.01095090 0.01822670 0.01102575
v -0.00605551 0.01757737 0.01446507
v -0.00590869 0.01756476 0.01456619
v -0.00557507 0.01755964 0.01471261
v -0.00557507 0.01755373 0.01475069
v -0.01067201 0.01871292 0.01243615
v -0.01074726 0.01871292 0.01235801
v -0.01095090 0.01871292 0.01214199
v -0.01095090 0.01864633 0.01211572
v -0.01095090 0.01857186 0.01204612
v -0.01046520 0.01849936 0.01252610
v -0.01074936 0.01851197 0.01220830
v -0.01089249 0.01852024 0.01205072
v -0.01095090 0.01855216 0.01202183
v -0.01095090 0.01850842 0.01196405
v -0.01095090 0.01848281 0.01192728
v -0.01095090 0.02113335 0.00860352
v -0.01091091 0.02114793 0.00862847
v -0.00557507 0.02109395 0.01267056
v -0.01095090 0.01931300 0.01213411
v -0.01010632 0.02156401 0.01262328
v -0.00897917 0.02156401 0.01329433
v -0.00898443 0.02150846 0.01329762
v -0.00908336 0.02126338 0.01326873
v -0.00965588 0.02156401 0.01291219
v -0.00976691 0.02141350 0.01286557
v -0.00926227 0.02156401 0.01313478
v -0.00947013 0.02156401 0.01301725
v -0.00903810 0.02156401 0.01326150
v -0.00975271 0.02156401 0.01285703
v -0.00982743 0.02156401 0.01281435
v -0.00994951 0.02156401 0.01273884
v -0.01002423 0.02156401 0.01269025
v -0.01089933 0.01901316 0.01221421
v -0.00730474 0.01773576 0.01358915
v -0.01066569 0.01818454 0.01118465
v -0.01095090 0.01833072 0.01145320
v -0.01095090 0.01823301 0.01096994
v -0.00596079 0.01758170 0.01448411
v -0.00720424 0.01773931 0.01360163
v -0.00557507 0.01758997 0.01464826
v -0.01095090 0.02110971 0.00861272
v -0.00557507 0.02096826 0.01272177
v -0.01093669 0.02104785 0.00864817
v -0.01059202 0.01818454 0.01118465
v -0.01095090 0.01825113 0.01087605
v -0.00695586 0.01772788 0.01371982
v -0.00686377 0.01773458 0.01373820
v -0.00746787 0.01788273 0.01313675
v -0.00821352 0.01788509 0.01283865
v -0.00710583 0.01774561 0.01361739
v -0.01049204 0.01818888 0.01119844
v -0.00557507 0.01765420 0.01460886
v -0.00897443 0.01818494 0.01179070
v -0.01048099 0.01848754 0.01044465
v -0.01092722 0.01863451 0.00999159
v -0.01095090 0.02106125 0.00863241
v -0.00557507 0.02094462 0.01273228
v -0.01095090 0.02100333 0.00865868
v -0.00557507 0.02081066 0.01279400
v -0.01095090 0.01826965 0.01082023
v -0.00800619 0.01790006 0.01287739
v -0.00778097 0.01788746 0.01299492
v -0.00987900 0.01833703 0.01104414
v -0.00755575 0.01787485 0.01311508
v -0.00923386 0.01803088 0.01207698
v -0.01085671 0.01828108 0.01082023
v -0.01025629 0.01817666 0.01131597
v -0.00557507 0.01776649 0.01454189
v -0.01095090 0.01865618 0.00996073
v -0.01055624 0.01848045 0.01042758
v -0.01079777 0.01849030 0.01030086
v -0.01095090 0.01854428 0.01012620
v -0.01095090 0.01861244 0.01000867
v -0.01095090 0.01862978 0.00998306
v -0.01095090 0.02096393 0.00867772
v -0.00557507 0.02079332 0.01280319
v -0.01094301 0.02015462 0.00910320
v -0.01095090 0.02032878 0.00900602
v -0.01095090 0.02075904 0.00878146
v -0.01095090 0.02082839 0.00874601
v -0.01095090 0.01830235 0.01072962
v -0.00913387 0.01803797 0.01209602
v -0.00845558 0.01799226 0.01246963
v -0.01089775 0.01848281 0.01028181
v -0.01015473 0.01818376 0.01133501
v -0.01095090 0.01832008 0.01068300
v -0.00557507 0.01785239 0.01449199
v -0.01095090 0.01870977 0.00992922
v -0.01089723 0.01871292 0.00996796
v -0.01095090 0.01882048 0.00986487
v -0.01095090 0.01849306 0.01023585
v -0.01095090 0.01850921 0.01020105
v -0.00557507 0.02071570 0.01284456
v -0.01095090 0.02006597 0.00914720
v -0.01095090 0.02013374 0.00910911
v -0.01095090 0.02023854 0.00905330
v -0.01095090 0.01833979 0.01063179
v -0.00557507 0.01994579 0.01328711
v -0.01094459 0.01910575 0.00970466
v -0.01095090 0.01991821 0.00923190
v -0.01095090 0.01909432 0.00970663
v -0.01095090 0.01975863 0.00932382
f 1 2 26
f 1 26 49
f 1 49 76
f 1 76 110
f 1 110 143
f 1 143 142
f 1 142 173
f 1 173 206
f 1 206 205
f 1 205 254
f 1 254 253
f 1 253 327
f 1 327 326
f 1 326 363
f 1 363 375
f 1 375 391
f 1 391 410
f 1 410 421
f 1 421 416
f 1 416 399
f 1 399 382
f 1 382 380
f 1 380 365
f 1 365 341
f 1 341 265
f 1 265 209
f 1 209 177
f 1 177 147
f 1 147 114
f 1 114 88
f 1 88 87
f 1 87 86
f 1 86 85
f 1 85 84
f 1 84 83
f 1 83 82
f 1 82 54
f 1 54 28
f 1 28 3
f 1 3 4
f 1 4 5
f 1 5 6
f 1 6 7
f 1 7 8
f 1 8 9
f 1 9 10
f 1 10 11
f 1 11 12
f 1 12 13
f 1 13 14
f 1 14 15
f 1 15 16
f 1 16 17
f 1 17 18
f 1 18 19
f 1 19 20
f 1 20 21
f 1 21 22
f 1 22 23
f 1 23 24
f 1 24 25
f 1 25 2
f 2 25 27
f 2 27 26
f 3 28 29
f 3 29 30
f 3 30 4
f 4 30 6
f 4 6 5
f 6 30 56
f 6 56 88
f 6 88 114
f 6 114 149
f 6 149 180
f 6 180 215
f 6 215 274
f 6 274 343
f 6 343 355
f 6 355 354
f 6 354 353
f 6 353 352
f 6 352 347
f 6 347 350
f 6 350 349
f 6 349 351
f 6 351 344
f 6 344 275
f 6 275 217
f 6 217 182
f 6 182 181
f 6 181 152
f 6 152 151
f 6 151 150
f 6 150 117
f 6 117 116
f 6 116 115
f 6 115 89
f 6 89 58
f 6 58 35
f 6 35 31
f 6 31 13
f 6 13 12
f 6 12 10
f 6 10 7
f 7 10 8
f 8 10 9
f 10 12 11
f 13 31 14
f 14 31 15
f 15 31 32
f 15 32 16
f 16 32 33
f 16 33 34
f 16 34 17
f 17 34 35
f 17 35 36
f 17 36 37
f 17 37 38
f 17 38 18
f 18 38 39
f 18 39 40
f 18 40 19
f 19 40 20
f 20 40 41
f 20 41 21
f 21 41 42
f 21 42 22
f 22 42 41
f 22 41 43
f 22 43 44
f 22 44 45
f 22 45 23
f 23 46 24
f 23 45 46
f 24 46 25
f 25 46 47
f 25 47 48
f 25 48 27
f 26 27 50
f 26 50 49
f 27 51 52
f 27 52 50
f 27 48 53
f 27 53 51
f 28 54 29
f 29 54 55
f 29 55 30
f 30 55 56
f 31 35 32
f 32 34 33
f 32 35 34
f 35 57 36
f 35 58 59
f 35 59 57
f 36 57 37
f 37 39 38
f 37 57 59
f 37 59 60
f 37 60 39
f 39 61 40
f 39 60 62
f 39 62 63
f 39 63 64
f 39 64 61
f 40 61 41
f 41 61 43
f 43 61 65
f 43 65 66
f 43 66 44
f 44 66 67
f 44 67 45
f 45 67 68
f 45 68 47
f 45 47 46
f 47 68 69
f 47 69 48
f 48 70 71
f 48 71 53
f 48 69 72
f 48 72 73
f 48 73 70
f 49 74 75
f 49 75 76
f 49 50 77
f 49 77 78
f 49 78 74
f 50 52 79
f 50 79 77
f 51 80 81
f 51 81 52
f 51 53 71
f 51 71 80
f 52 81 79
f 54 82 55
f 55 82 83
f 55 83 84
f 55 84 85
f 55 85 86
f 55 86 87
f 55 87 56
f 56 87 88
f 58 89 90
f 58 90 91
f 58 91 59
f 59 91 60
f 60 91 62
f 61 64 92
f 61 92 65
f 62 91 90
f 62 90 63
f 63 90 93
f 63 93 94
f 63 94 95
f 63 95 64
f 64 95 96
f 64 96 66
f 64 66 65
f 64 65 92
f 66 96 95
f 66 95 97
f 66 97 98
f 66 98 99
f 66 99 100
f 66 100 67
f 67 100 101
f 67 101 68
f 68 101 102
f 68 102 69
f 69 102 103
f 69 103 72
f 70 73 104
f 70 104 71
f 71 105 81
f 71 81 80
f 71 104 105
f 72 103 106
f 72 106 73
f 73 106 104
f 74 78 107
f 74 107 108
f 74 108 75
f 75 108 109
f 75 109 110
f 75 110 76
f 77 79 81
f 77 81 78
f 78 111 107
f 78 81 111
f 81 112 108
f 81 108 111
f 81 105 113
f 81 113 112
f 89 115 90
f 90 115 116
f 90 116 93
f 93 116 117
f 93 117 118
f 93 118 94
f 94 118 95
f 95 118 119
f 95 119 97
f 97 119 120
f 97 120 98
f 98 120 121
f 98 121 99
f 99 121 122
f 99 122 123
f 99 123 124
f 99 124 100
f 100 124 125
f 100 125 126
f 100 126 127
f 100 127 101
f 101 127 102
f 102 127 103
f 103 127 128
f 103 128 129
f 103 129 130
f 103 130 131
f 103 131 106
f 104 132 133
f 104 133 134
f 104 134 105
f 104 106 135
f 104 135 136
f 104 136 137
f 104 137 132
f 105 134 113
f 106 131 138
f 106 138 135
f 107 111 108
f 108 139 140
f 108 140 109
f 108 112 141
f 108 141 139
f 109 142 143
f 109 143 110
f 109 140 139
f 109 139 142
f 112 113 144
f 112 144 145
f 112 145 141
f 113 134 133
f 113 133 146
f 113 146 144
f 114 147 148
f 114 148 149
f 117 150 120
f 117 120 118
f 118 120 119
f 120 150 151
f 120 151 122
f 120 122 121
f 122 151 152
f 122 152 153
f 122 153 154
f 122 154 155
f 122 155 123
f 123 155 124
f 124 155 156
f 124 156 126
f 124 126 125
f 126 129 128
f 126 128 127
f 126 156 157
f 126 157 129
f 129 157 130
f 130 157 158
f 130 158 138
f 130 138 131
f 132 137 133
f 133 137 159
f 133 159 160
f 133 160 146
f 135 138 136
f 136 138 161
f 136 161 162
f 136 162 163
f 136 163 164
f 136 164 165
f 136 165 166
f 136 166 167
f 136 167 137
f 137 167 159
f 138 158 168
f 138 168 169
f 138 169 161
f 139 170 171
f 139 171 172
f 139 172 173
f 139 173 142
f 139 141 174
f 139 174 175
f 139 175 170
f 141 145 176
f 141 176 174
f 144 146 145
f 145 146 160
f 145 160 176
f 147 177 178
f 147 178 148
f 148 178 179
f 148 179 149
f 149 179 178
f 149 178 211
f 149 211 210
f 149 210 266
f 149 266 339
f 149 339 364
f 149 364 379
f 149 379 381
f 149 381 398
f 149 398 403
f 149 403 402
f 149 402 401
f 149 401 419
f 149 419 418
f 149 418 417
f 149 417 423
f 149 423 425
f 149 425 424
f 149 424 413
f 149 413 411
f 149 411 392
f 149 392 397
f 149 397 396
f 149 396 395
f 149 395 415
f 149 415 414
f 149 414 420
f 149 420 409
f 149 409 404
f 149 404 383
f 149 383 368
f 149 368 360
f 149 360 323
f 149 323 322
f 149 322 321
f 149 321 320
f 149 320 319
f 149 319 359
f 149 359 317
f 149 317 316
f 149 316 264
f 149 264 263
f 149 263 262
f 149 262 338
f 149 338 337
f 149 337 336
f 149 336 332
f 149 332 259
f 149 259 331
f 149 331 330
f 149 330 310
f 149 310 307
f 149 307 302
f 149 302 342
f 149 342 268
f 149 268 267
f 149 267 212
f 149 212 180
f 152 181 153
f 153 181 182
f 153 182 155
f 153 155 154
f 155 183 184
f 155 184 156
f 155 182 185
f 155 185 183
f 156 184 157
f 157 184 186
f 157 186 158
f 158 186 187
f 158 187 168
f 159 167 160
f 160 167 188
f 160 188 176
f 161 169 162
f 162 169 163
f 163 169 164
f 164 169 165
f 165 169 189
f 165 189 190
f 165 190 166
f 166 190 191
f 166 191 192
f 166 192 193
f 166 193 194
f 166 194 195
f 166 195 196
f 166 196 188
f 166 188 167
f 168 187 169
f 169 187 197
f 169 197 189
f 170 198 171
f 170 175 199
f 170 199 200
f 170 200 201
f 170 201 202
f 170 202 198
f 171 198 203
f 171 203 172
f 172 204 205
f 172 205 206
f 172 206 173
f 172 203 204
f 174 176 207
f 174 207 175
f 175 207 199
f 176 188 208
f 176 208 207
f 177 209 210
f 177 210 211
f 177 211 178
f 180 212 213
f 180 213 214
f 180 214 215
f 182 216 185
f 182 217 216
f 183 185 218
f 183 218 184
f 184 218 219
f 184 219 217
f 184 217 220
f 184 220 187
f 184 187 186
f 185 216 218
f 187 220 221
f 187 221 222
f 187 222 189
f 187 189 197
f 188 223 208
f 188 196 207
f 188 207 223
f 189 222 224
f 189 224 225
f 189 225 190
f 190 225 191
f 191 225 192
f 192 226 227
f 192 227 228
f 192 228 193
f 192 225 229
f 192 229 226
f 193 228 230
f 193 230 194
f 194 230 231
f 194 231 232
f 194 232 233
f 194 233 234
f 194 234 195
f 195 234 235
f 195 235 236
f 195 236 237
f 195 237 238
f 195 238 196
f 196 238 239
f 196 239 240
f 196 240 241
f 196 241 242
f 196 242 207
f 198 243 203
f 198 202 244
f 198 244 245
f 198 245 313
f 198 313 243
f 199 246 200
f 199 207 247
f 199 247 248
f 199 248 246
f 200 246 201
f 201 246 249
f 201 249 250
f 201 250 202
f 202 250 244
f 203 243 251
f 203 251 252
f 203 252 253
f 203 253 204
f 204 253 254
f 204 254 205
f 207 208 223
f 207 242 255
f 207 255 256
f 207 256 257
f 207 257 258
f 207 258 259
f 207 259 260
f 207 260 261
f 207 261 262
f 207 262 263
f 207 263 264
f 207 264 247
f 209 265 210
f 210 265 266
f 212 267 213
f 213 267 268
f 213 268 269
f 213 269 270
f 213 270 271
f 213 271 214
f 214 271 272
f 214 272 215
f 215 272 273
f 215 273 274
f 216 219 218
f 216 217 219
f 217 275 276
f 217 276 220
f 220 276 275
f 220 275 277
f 220 277 278
f 220 278 222
f 220 222 221
f 222 278 279
f 222 279 224
f 224 279 225
f 225 279 280
f 225 280 281
f 225 281 229
f 226 229 227
f 227 282 283
f 227 283 284
f 227 284 285
f 227 285 286
f 227 286 230
f 227 230 228
f 227 229 282
f 229 281 287
f 229 287 288
f 229 288 283
f 229 283 282
f 230 286 289
f 230 289 290
f 230 290 291
f 230 291 292
f 230 292 293
f 230 293 294
f 230 294 232
f 230 232 231
f 232 295 274
f 232 274 296
f 232 296 297
f 232 297 298
f 232 298 235
f 232 235 233
f 232 294 293
f 232 293 299
f 232 299 300
f 232 300 295
f 233 235 234
f 235 298 236
f 236 298 269
f 236 269 301
f 236 301 302
f 236 302 303
f 236 303 304
f 236 304 237
f 237 304 305
f 237 305 238
f 238 305 306
f 238 306 239
f 239 306 307
f 239 307 240
f 240 307 308
f 240 308 309
f 240 309 241
f 241 309 310
f 241 310 311
f 241 311 242
f 242 311 255
f 243 312 251
f 243 313 314
f 243 314 312
f 244 249 315
f 244 315 245
f 244 250 249
f 245 315 313
f 246 248 249
f 247 264 316
f 247 316 317
f 247 317 248
f 248 317 318
f 248 318 249
f 249 318 319
f 249 319 320
f 249 320 321
f 249 321 322
f 249 322 323
f 249 323 315
f 251 312 324
f 251 324 252
f 252 324 325
f 252 325 326
f 252 326 327
f 252 327 253
f 255 311 328
f 255 328 256
f 256 328 329
f 256 329 330
f 256 330 257
f 257 330 331
f 257 331 258
f 258 331 259
f 259 332 260
f 260 332 333
f 260 333 261
f 261 333 334
f 261 334 335
f 261 335 336
f 261 336 337
f 261 337 338
f 261 338 262
f 265 339 340
f 265 340 266
f 265 341 364
f 265 364 339
f 266 340 339
f 268 342 269
f 269 342 302
f 269 302 301
f 269 298 270
f 270 298 271
f 271 298 272
f 272 274 273
f 272 298 297
f 272 297 296
f 272 296 274
f 274 300 343
f 274 295 300
f 275 344 345
f 275 345 277
f 277 345 278
f 278 345 279
f 279 345 280
f 280 287 281
f 280 345 346
f 280 346 288
f 280 288 287
f 283 288 285
f 283 285 284
f 285 288 347
f 285 347 348
f 285 348 289
f 285 289 286
f 288 349 350
f 288 350 347
f 288 346 351
f 288 351 349
f 289 348 347
f 289 347 352
f 289 352 353
f 289 353 354
f 289 354 290
f 290 354 291
f 291 354 292
f 292 354 355
f 292 355 343
f 292 343 293
f 293 343 300
f 293 300 299
f 302 307 356
f 302 356 304
f 302 304 303
f 304 356 306
f 304 306 305
f 306 356 307
f 307 309 308
f 307 310 309
f 310 330 329
f 310 329 328
f 310 328 311
f 312 314 357
f 312 357 324
f 313 315 358
f 313 358 314
f 314 358 367
f 314 367 357
f 315 323 358
f 317 359 318
f 318 359 319
f 323 360 358
f 324 361 325
f 324 357 362
f 324 362 361
f 325 361 326
f 326 361 363
f 332 336 333
f 333 336 335
f 333 335 334
f 341 365 366
f 341 366 364
f 344 351 345
f 345 351 346
f 357 367 362
f 358 360 368
f 358 368 367
f 361 362 369
f 361 369 370
f 361 370 371
f 361 371 363
f 362 372 373
f 362 373 369
f 362 367 374
f 362 374 372
f 363 371 376
f 363 376 377
f 363 377 378
f 363 378 375
f 364 366 379
f 365 380 366
f 366 381 379
f 366 380 382
f 366 382 381
f 367 368 374
f 368 383 374
f 369 373 384
f 369 384 385
f 369 385 370
f 370 385 386
f 370 386 387
f 370 387 371
f 371 387 386
f 371 386 376
f 372 384 373
f 372 374 388
f 372 388 384
f 374 383 389
f 374 389 390
f 374 390 388
f 375 378 392
f 375 392 391
f 376 386 377
f 377 386 393
f 377 393 394
f 377 394 395
f 377 395 396
f 377 396 397
f 377 397 378
f 378 397 392
f 381 382 398
f 382 399 400
f 382 400 401
f 382 401 402
f 382 402 403
f 382 403 398
f 383 404 389
f 384 388 405
f 384 405 406
f 384 406 385
f 385 406 407
f 385 407 394
f 385 394 386
f 386 394 393
f 388 390 408
f 388 408 405
f 389 404 409
f 389 409 390
f 390 409 408
f 391 392 411
f 391 411 412
f 391 412 413
f 391 413 410
f 394 407 414
f 394 414 415
f 394 415 395
f 399 416 400
f 400 417 418
f 400 418 419
f 400 419 401
f 400 416 417
f 405 408 420
f 405 420 407
f 405 407 406
f 407 420 414
f 408 409 420
f 410 413 422
f 410 422 423
f 410 423 421
f 411 413 412
f 413 424 422
f 416 421 423
f 416 423 417
f 422 424 425
f 422 425 423

