# https://github.com/mikedh/trimesh
v -0.00449790 0.05475989 -0.01312273
v -0.00018154 0.05475989 -0.01346922
v -0.00449790 0.05475989 -0.01406002
v -0.00449790 0.05446379 -0.01313651
v -0.00449790 0.05442307 -0.01313841
v -0.00449790 0.05432314 -0.01314316
v -0.00449790 0.05419359 -0.01314982
v -0.00449790 0.05412697 -0.01315362
v -0.00017943 0.05472288 -0.01347160
v -0.00017943 0.05474878 -0.01347017
v -0.00017943 0.05475989 -0.01352103
v -0.00439391 0.05475989 -0.01411896
v -0.00449790 0.05468216 -0.01406810
v -0.00035317 0.03896650 -0.01444169
v -0.00020310 0.04061728 -0.01435043
v -0.00017943 0.04226805 -0.01424919
v -0.00017943 0.04596563 -0.01401819
v -0.00017943 0.05414548 -0.01350725
v -0.00017943 0.05459703 -0.01347920
v -0.00449790 0.05297957 -0.01322729
v -0.00251874 0.01907949 -0.01551396
v -0.00246252 0.01917943 -0.01551158
v -0.00230400 0.01871307 -0.01555294
v -0.00017943 0.05475989 -0.01452486
v -0.00432458 0.05475989 -0.01415746
v -0.00449790 0.05382717 -0.01415555
v -0.00449790 0.05427502 -0.01410992
v -0.00027031 0.03872962 -0.01446355
v -0.00017943 0.04031747 -0.01437134
v -0.00017943 0.04049143 -0.01436041
v -0.00017943 0.04125760 -0.01431240
v -0.00449790 0.05277600 -0.01324060
v -0.00245364 0.01736580 -0.01562851
v -0.00245364 0.01781365 -0.01559952
v -0.00245364 0.01841326 -0.01556102
v -0.00230400 0.01751385 -0.01562898
v -0.00215394 0.01886482 -0.01555626
v -0.00164203 0.02495714 -0.01521547
v -0.00018493 0.05475989 -0.01452534
v -0.00017943 0.05470067 -0.01453865
v -0.00425610 0.05475989 -0.01419500
v -0.00425441 0.05457482 -0.01421449
v -0.00449790 0.05262425 -0.01427628
v -0.00017943 0.03886657 -0.01446307
v -0.00449790 0.05208016 -0.01328671
v -0.00260371 0.01781365 -0.01559476
v -0.00260371 0.01841326 -0.01555531
v -0.00260371 0.01721405 -0.01563469
v -0.00245364 0.01721405 -0.01563897
v -0.00230400 0.01721405 -0.01564847
v -0.00230400 0.01736580 -0.01563849
v -0.00207869 0.01728807 -0.01566416
v -0.00215394 0.01811346 -0.01560427
v -0.00185381 0.01901287 -0.01557480
v -0.00020310 0.05475989 -0.01452629
v -0.00017943 0.05457482 -0.01456669
v -0.00020310 0.05457482 -0.01456811
v -0.00409505 0.05475989 -0.01427961
v -0.00414958 0.05427502 -0.01429957
v -0.00428147 0.05367171 -0.01428911
v -0.00430937 0.05337191 -0.01430385
v -0.00449790 0.05229113 -0.01430955
v -0.00449790 0.05240587 -0.01429814
v -0.00155368 0.01901287 -0.01560284
v -0.00110349 0.02036384 -0.01555864
v -0.00020310 0.02066364 -0.01562376
v -0.00017943 0.02113741 -0.01559571
v -0.00449790 0.05087724 -0.01336656
v -0.00275377 0.01751385 -0.01561282
v -0.00275377 0.01736580 -0.01562281
v -0.00275377 0.01721405 -0.01563326
v -0.00260371 0.01712151 -0.01565227
v -0.00245364 0.01712521 -0.01565417
v -0.00230400 0.01713262 -0.01565893
v -0.00221396 0.01713632 -0.01566273
v -0.00140362 0.01721405 -0.01573212
v -0.00057805 0.01714002 -0.01581435
v -0.00047702 0.01721405 -0.01581863
v -0.00185761 0.01767671 -0.01565988
v -0.00035317 0.05475989 -0.01453104
v -0.00035317 0.05472288 -0.01453960
v -0.00017943 0.05439346 -0.01460281
v -0.00035317 0.05457482 -0.01457287
v -0.00026778 0.05435275 -0.01461469
v -0.00405320 0.05475989 -0.01430052
v -0.00404559 0.05457482 -0.01432238
v -0.00412887 0.05292405 -0.01443931
v -0.00415803 0.05262425 -0.01445357
v -0.00417959 0.05239847 -0.01446450
v -0.00420073 0.05217269 -0.01447543
v -0.00425441 0.05292405 -0.01437562
v -0.00432966 0.05314983 -0.01431478
v -0.00449790 0.05218379 -0.01432001
v -0.00080336 0.01871307 -0.01569220
v -0.00060003 0.01942001 -0.01566606
v -0.00035317 0.01841326 -0.01575351
v -0.00020310 0.01901287 -0.01572927
v -0.00017943 0.02036384 -0.01564514
v -0.00449790 0.05057744 -0.01338699
v -0.00290384 0.01736580 -0.01562233
v -0.00290384 0.01751385 -0.01561235
v -0.00290384 0.01811346 -0.01557195
v -0.00290384 0.01721405 -0.01563279
v -0.00275377 0.01712151 -0.01565132
v -0.00245364 0.01707340 -0.01573925
v -0.00050323 0.01698087 -0.01595124
v -0.00017943 0.01698457 -0.01596027
v -0.00080336 0.01711781 -0.01580390
v -0.00065330 0.01713262 -0.01581055
v -0.00017943 0.01721405 -0.01584667
v -0.00020310 0.01721405 -0.01584430
v -0.00020310 0.01706229 -0.01590181
v -0.00017943 0.01706229 -0.01590513
v -0.00038825 0.05475989 -0.01453152
v -0.00017943 0.05410106 -0.01465747
v -0.00021198 0.05428242 -0.01462515
v -0.00050323 0.05457482 -0.01457382
v -0.00035317 0.05443047 -0.01460139
v -0.00035317 0.05427502 -0.01463133
v -0.00017943 0.05348665 -0.01477154
v -0.00020310 0.05322386 -0.01482097
v -0.00035317 0.05322386 -0.01482525
v -0.00400163 0.05475989 -0.01432571
v -0.00410435 0.05067367 -0.01466698
v -0.00403164 0.05001114 -0.01476584
v -0.00417537 0.05087724 -0.01461232
v -0.00433092 0.04220513 -0.01536567
v -0.00449790 0.03402158 -0.01606626
v -0.00449790 0.04301201 -0.01520312
v -0.00449790 0.04527719 -0.01498543
v -0.00449790 0.04962250 -0.01456764
v -0.00449790 0.05089575 -0.01444501
v -0.00449790 0.05142133 -0.01439416
v -0.00017943 0.01782846 -0.01580722
v -0.00017943 0.01871307 -0.01575066
v -0.00449790 0.05052192 -0.01339080
v -0.00305390 0.01811346 -0.01557480
v -0.00306066 0.01721034 -0.01564847
v -0.00301543 0.01712892 -0.01565560
v -0.00290384 0.01712151 -0.01565085
v -0.00305390 0.01766560 -0.01560570
v -0.00305390 0.01751385 -0.01561710
v -0.00305390 0.01736580 -0.01563089
v -0.00260371 0.01707340 -0.01573925
v -0.00080336 0.01698087 -0.01594648
v -0.00065330 0.01698087 -0.01594791
v -0.00035317 0.01696236 -0.01603917
v -0.00017943 0.01696606 -0.01603727
v -0.00050323 0.05475989 -0.01453199
v -0.00050323 0.05472288 -0.01454055
v -0.00065330 0.05457482 -0.01457334
v -0.00155368 0.05475989 -0.01453009
v -0.00083802 0.05475989 -0.01453199
v -0.00065330 0.05472288 -0.01454055
v -0.00050323 0.05427502 -0.01463228
v -0.00050323 0.05322386 -0.01482810
v -0.00050323 0.05350885 -0.01477535
v -0.00050323 0.05382346 -0.01471688
v -0.00017943 0.05322386 -0.01482002
v -0.00017943 0.05304989 -0.01485187
v -0.00020310 0.05307210 -0.01484854
v -0.00035317 0.05307210 -0.01485282
v -0.00397753 0.05475989 -0.01433664
v -0.00449790 0.02876946 -0.01656913
v -0.00449790 0.03050906 -0.01640277
v -0.00417621 0.04773115 -0.01491318
v -0.00396147 0.05475989 -0.01434377
v -0.00388665 0.05378275 -0.01446735
v -0.00403671 0.04838257 -0.01491794
v -0.00447888 0.02734076 -0.01671457
v -0.00449790 0.02732596 -0.01670696
v -0.00418593 0.04763121 -0.01491794
v -0.00432120 0.04230506 -0.01536092
v -0.00449790 0.04857134 -0.01352483
v -0.00449790 0.04841959 -0.01353529
v -0.00317860 0.01736580 -0.01565180
v -0.00314859 0.01725846 -0.01565940
v -0.00311519 0.01715853 -0.01567271
v -0.00449790 0.02126695 -0.01544409
v -0.00449790 0.02111520 -0.01546120
v -0.00320396 0.01712521 -0.01577870
v -0.00306066 0.01710671 -0.01572927
v -0.00290384 0.01708080 -0.01573925
v -0.00373659 0.01728807 -0.01581197
v -0.00328851 0.01713632 -0.01580817
v -0.00449790 0.02282149 -0.01532004
v -0.00449790 0.02261422 -0.01533477
v -0.00449790 0.02193689 -0.01538421
v -0.00449790 0.04637648 -0.01367740
v -0.00449790 0.03776729 -0.01427771
v -0.00449790 0.02187396 -0.01538896
v -0.00449790 0.02171481 -0.01540274
v -0.00449790 0.02156676 -0.01541605
v -0.00449790 0.02141500 -0.01542983
v -0.00200387 0.01701418 -0.01588945
v -0.00110349 0.01698087 -0.01594696
v -0.00095342 0.01698087 -0.01594648
v -0.00080336 0.01696236 -0.01603917
v -0.00035317 0.01694755 -0.01618936
v -0.00017943 0.01695125 -0.01618936
v -0.00065330 0.05443047 -0.01460139
v -0.00125355 0.05457482 -0.01456954
v -0.00185381 0.05472288 -0.01453627
v -0.00188847 0.05475989 -0.01452866
v -0.00065330 0.05358658 -0.01476204
v -0.00080336 0.05337191 -0.01480196
v -0.00110349 0.05357918 -0.01476061
v -0.00050323 0.05307210 -0.01485567
v -0.00065330 0.05307210 -0.01485757
v -0.00065330 0.05322386 -0.01482953
v -0.00017943 0.05292405 -0.01487326
v -0.00020310 0.05292405 -0.01487421
v -0.00035317 0.05292405 -0.01487849
v -0.00383592 0.05475989 -0.01439035
v -0.00387355 0.05388268 -0.01446260
v -0.00402488 0.04848251 -0.01491318
v -0.00417621 0.04143526 -0.01551396
v -0.00447972 0.02569369 -0.01686476
v -0.00449790 0.02561596 -0.01686429
v -0.00449790 0.02564187 -0.01686191
v -0.00449790 0.01871307 -0.01578346
v -0.00449790 0.01786917 -0.01589800
v -0.00449790 0.01781365 -0.01590561
v -0.00449790 0.02096715 -0.01547974
v -0.00449790 0.01997150 -0.01561282
v -0.00449790 0.01766560 -0.01592747
v -0.00449790 0.01754716 -0.01595171
v -0.00305390 0.01706599 -0.01588945
v -0.00290384 0.01704749 -0.01588945
v -0.00245364 0.01702528 -0.01588945
v -0.00230400 0.01702158 -0.01588945
v -0.00435291 0.01743242 -0.01595599
v -0.00331133 0.01712892 -0.01588945
v -0.00320396 0.01709931 -0.01588945
v -0.00389299 0.01728437 -0.01595361
v -0.00140362 0.01698457 -0.01595409
v -0.00080336 0.01695496 -0.01618936
v -0.00125355 0.01697346 -0.01603917
v -0.00050323 0.01696236 -0.01633956
v -0.00017943 0.01695866 -0.01631579
v -0.00263837 0.05475989 -0.01452391
v -0.00200387 0.05472288 -0.01453532
v -0.00233866 0.05475989 -0.01452581
v -0.00080336 0.05322386 -0.01483001
v -0.00125355 0.05357548 -0.01476014
v -0.00050323 0.05292405 -0.01488086
v -0.00080336 0.05307210 -0.01485757
v -0.00065330 0.05292405 -0.01488276
v -0.00017943 0.05258353 -0.01492506
v -0.00035317 0.05277230 -0.01490130
v -0.00049816 0.05276120 -0.01490558
v -0.00380422 0.05475989 -0.01440176
v -0.00447845 0.02403922 -0.01701448
v -0.00449790 0.02051559 -0.01732676
v -0.00449790 0.02075247 -0.01730537
v -0.00449790 0.02240695 -0.01715565
v -0.00449790 0.02394298 -0.01701638
v -0.00449790 0.02552713 -0.01687237
v -0.00373955 0.05423060 -0.01446735
v -0.00402488 0.04188312 -0.01551396
v -0.00449790 0.01748054 -0.01602491
v -0.00305390 0.01705859 -0.01603917
v -0.00290384 0.01704379 -0.01603917
v -0.00275377 0.01703268 -0.01603917
v -0.00230400 0.01701048 -0.01603917
v -0.00161920 0.01698827 -0.01597690
v -0.00449790 0.01744352 -0.01609430
v -0.00448860 0.01743612 -0.01610333
v -0.00440321 0.01742132 -0.01604772
v -0.00390652 0.01728067 -0.01603917
v -0.00320396 0.01709190 -0.01603917
v -0.00340602 0.01714372 -0.01603917
v -0.00080336 0.01696976 -0.01633956
v -0.00140362 0.01697716 -0.01618936
v -0.00164414 0.01698827 -0.01626636
v -0.00156298 0.01698457 -0.01603204
v -0.00017943 0.01696236 -0.01633956
v -0.00088325 0.01698827 -0.01641513
v -0.00050323 0.01698087 -0.01642369
v -0.00017943 0.01697716 -0.01641275
v -0.00245364 0.05457482 -0.01456051
v -0.00275377 0.05475989 -0.01452249
v -0.00095342 0.05322386 -0.01482858
v -0.00125355 0.05349775 -0.01477440
v -0.00230400 0.05431944 -0.01460947
v -0.00095342 0.05307210 -0.01485472
v -0.00080336 0.05292405 -0.01488229
v -0.00080336 0.05270568 -0.01491556
v -0.00054508 0.05270197 -0.01491508
v -0.00065330 0.05262425 -0.01492792
v -0.00080336 0.05262425 -0.01492792
v -0.00017943 0.05215048 -0.01498876
v -0.00020310 0.05232074 -0.01496451
v -0.00020310 0.05247249 -0.01494218
v -0.00035317 0.05261684 -0.01492459
v -0.00050323 0.05232074 -0.01497117
v -0.00365416 0.05475989 -0.01443788
v -0.00372137 0.05433054 -0.01446260
v -0.00446281 0.02411694 -0.01701116
v -0.00449790 0.01946073 -0.01742182
v -0.00372137 0.05267606 -0.01461279
v -0.00370235 0.05277230 -0.01460851
v -0.00380422 0.04542154 -0.01524637
v -0.00440448 0.02381714 -0.01705156
v -0.00320396 0.01709560 -0.01618936
v -0.00305390 0.01706599 -0.01618936
v -0.00275377 0.01703638 -0.01618936
v -0.00230400 0.01701418 -0.01618936
v -0.00215394 0.01700677 -0.01618936
v -0.00449790 0.01743612 -0.01618936
v -0.00440448 0.01741021 -0.01618936
v -0.00332867 0.01712521 -0.01618936
v -0.00398768 0.01729918 -0.01618936
v -0.00365416 0.01721034 -0.01618936
v -0.00050323 0.01704379 -0.01649878
v -0.00290384 0.01709560 -0.01631960
v -0.00230400 0.01712151 -0.01643319
v -0.00155368 0.01708820 -0.01647312
v -0.00110349 0.01706599 -0.01648975
v -0.00119226 0.01713632 -0.01656580
v -0.00095342 0.01712892 -0.01657483
v -0.00080336 0.01712521 -0.01658006
v -0.00065330 0.01712151 -0.01658339
v -0.00035317 0.01698087 -0.01642606
v -0.00020310 0.01698087 -0.01642654
v -0.00017943 0.01698087 -0.01642606
v -0.00278843 0.05475989 -0.01452201
v -0.00110349 0.05322386 -0.01482573
v -0.00140362 0.05349405 -0.01477249
v -0.00245364 0.05430463 -0.01460756
v -0.00275377 0.05457482 -0.01455386
v -0.00290384 0.05475989 -0.01451868
v -0.00095342 0.05292405 -0.01487801
v -0.00088452 0.05269827 -0.01491461
v -0.00065330 0.05247249 -0.01495073
v -0.00080336 0.05232074 -0.01497307
v -0.00035317 0.05217269 -0.01498971
v -0.00035317 0.05232074 -0.01496832
v -0.00017943 0.05187289 -0.01502440
v -0.00020310 0.05202094 -0.01500634
v -0.00035317 0.05247249 -0.01494598
v -0.00050323 0.05217269 -0.01499256
v -0.00065330 0.05232074 -0.01497307
v -0.00357257 0.05475989 -0.01445309
v -0.00357807 0.05464885 -0.01446402
v -0.00360047 0.05454892 -0.01446878
v -0.00358018 0.05300178 -0.01461469
v -0.00366430 0.05427872 -0.01447971
v -0.00363978 0.05306100 -0.01459616
v -0.00445943 0.02246617 -0.01716040
v -0.00415423 0.01991598 -0.01745937
v -0.00395428 0.01991598 -0.01750499
v -0.00359244 0.01957547 -0.01761812
v -0.00433135 0.01939410 -0.01746554
v -0.00449790 0.01932008 -0.01742467
v -0.00440448 0.02186656 -0.01722694
v -0.00362710 0.05277230 -0.01462515
v -0.00359413 0.05127328 -0.01476774
v -0.00365416 0.05157308 -0.01472734
v -0.00366007 0.04766452 -0.01507764
v -0.00380422 0.04347097 -0.01542175
v -0.00330964 0.01713262 -0.01627539
v -0.00320396 0.01711781 -0.01628965
v -0.00305390 0.01710671 -0.01630676
v -0.00449790 0.01743982 -0.01626113
v -0.00448860 0.01743612 -0.01627016
v -0.00390102 0.01728437 -0.01627492
v -0.00035317 0.01711781 -0.01658862
v -0.00035317 0.01704379 -0.01650116
v -0.00290384 0.01715853 -0.01639469
v -0.00265951 0.01714002 -0.01641228
v -0.00245364 0.01712892 -0.01642464
v -0.00215394 0.01725476 -0.01660240
v -0.00185381 0.01723995 -0.01661951
v -0.00170374 0.01723255 -0.01662759
v -0.00155368 0.01715112 -0.01654821
v -0.00129202 0.01714002 -0.01656105
v -0.00147336 0.01728807 -0.01671409
v -0.00137318 0.01728437 -0.01671885
v -0.00095342 0.01726956 -0.01673406
v -0.00080336 0.01726586 -0.01673786
v -0.00065330 0.01718814 -0.01665848
v -0.00017943 0.01703268 -0.01648928
v -0.00125355 0.05322386 -0.01482050
v -0.00230400 0.05412327 -0.01464131
v -0.00293850 0.05475989 -0.01451726
v -0.00245364 0.05422690 -0.01461897
v -0.00255214 0.05421210 -0.01461612
v -0.00094243 0.05263165 -0.01492269
v -0.00098470 0.05268717 -0.01491271
v -0.00095342 0.05247249 -0.01494598
v -0.00065330 0.05217269 -0.01499446
v -0.00080336 0.05217269 -0.01499351
v -0.00035317 0.05202094 -0.01500967
v -0.00017943 0.05169893 -0.01504532
v -0.00020310 0.05187289 -0.01502535
v -0.00050323 0.05187289 -0.01503106
v -0.00353495 0.05475989 -0.01445880
v -0.00335403 0.04767193 -0.01513182
v -0.00354805 0.05472288 -0.01446070
v -0.00347281 0.05472288 -0.01446973
v -0.00335403 0.05457482 -0.01449777
v -0.00340602 0.05326827 -0.01461184
v -0.00335403 0.05067367 -0.01485662
v -0.00320396 0.04347097 -0.01553583
v -0.00357891 0.05134730 -0.01476441
v -0.00331852 0.04512174 -0.01536995
v -0.00335403 0.04377077 -0.01548877
v -0.00326822 0.03378100 -0.01641323
v -0.00313929 0.02406513 -0.01731725
v -0.00345759 0.02321753 -0.01732153
v -0.00345379 0.02156676 -0.01747077
v -0.00320396 0.01976423 -0.01768941
v -0.00335403 0.01961618 -0.01766755
v -0.00320396 0.01961618 -0.01770034
v -0.00320396 0.01991598 -0.01767610
v -0.00433135 0.01938300 -0.01746554
v -0.00360216 0.01946443 -0.01762002
v -0.00350409 0.01946443 -0.01764093
v -0.00335403 0.01946443 -0.01767277
v -0.00439053 0.01932748 -0.01744843
v -0.00431275 0.01928306 -0.01746174
v -0.00449790 0.01925716 -0.01741801
v -0.00357595 0.04969283 -0.01491413
v -0.00365416 0.04347097 -0.01545597
v -0.00313717 0.02241065 -0.01746697
v -0.00380422 0.01726956 -0.01629345
v -0.00425441 0.01745093 -0.01639754
v -0.00365416 0.01731028 -0.01639184
v -0.00305390 0.01716963 -0.01638138
v -0.00416776 0.01744352 -0.01641133
v -0.00395428 0.01741762 -0.01643652
v -0.00449790 0.01744352 -0.01627967
v -0.00449790 0.01746203 -0.01631579
v -0.00440448 0.01742502 -0.01629203
v -0.00020310 0.01711781 -0.01659004
v -0.00035317 0.01718444 -0.01666371
v -0.00017943 0.01717333 -0.01665326
v -0.00274828 0.01723255 -0.01650116
v -0.00230400 0.01726216 -0.01659337
v -0.00230400 0.01754716 -0.01690944
v -0.00215394 0.01746203 -0.01683720
v -0.00215394 0.01739541 -0.01676210
v -0.00200387 0.01738801 -0.01677113
v -0.00185381 0.01738060 -0.01677969
v -0.00155368 0.01729177 -0.01671029
v -0.00170374 0.01758047 -0.01702256
v -0.00125355 0.01734729 -0.01679870
v -0.00140362 0.01749534 -0.01695127
v -0.00125355 0.01749164 -0.01695650
v -0.00095342 0.01741391 -0.01688996
v -0.00080336 0.01733619 -0.01681296
v -0.00035317 0.01725846 -0.01674546
v -0.00017943 0.01711781 -0.01659004
v -0.00170374 0.05346074 -0.01476631
v -0.00155368 0.05322386 -0.01480814
v -0.00184028 0.05350885 -0.01475301
v -0.00305390 0.05475989 -0.01450965
v -0.00290384 0.05457482 -0.01454435
v -0.00155368 0.05292405 -0.01484902
v -0.00170374 0.05307210 -0.01481955
v -0.00185381 0.05322386 -0.01478960
v -0.00196837 0.05332749 -0.01476822
v -0.00265190 0.05417879 -0.01461232
v -0.00140362 0.05292405 -0.01485852
v -0.00095342 0.05232074 -0.01496689
v -0.00110349 0.05247249 -0.01493742
v -0.00121720 0.05256873 -0.01491746
v -0.00110349 0.05266866 -0.01491033
v -0.00065330 0.05202094 -0.01501395
v -0.00095342 0.05217269 -0.01498590
v -0.00080336 0.05202094 -0.01501252
v -0.00035317 0.05187289 -0.01502868
v -0.00017943 0.05156568 -0.01505862
v -0.00035317 0.05159529 -0.01505957
v -0.00035317 0.05172113 -0.01504674
v -0.00020310 0.05172113 -0.01504341
v -0.00065330 0.05187289 -0.01503248
v -0.00345886 0.05475989 -0.01446783
v -0.00320396 0.05427502 -0.01454340
v -0.00338827 0.05475989 -0.01447591
v -0.00222242 0.05314243 -0.01476394
v -0.00163738 0.05225782 -0.01491556
v -0.00200387 0.05262425 -0.01483856
v -0.00155368 0.05187289 -0.01496166
v -0.00290384 0.05352366 -0.01464844
v -0.00230400 0.05262425 -0.01480291
v -0.00200387 0.04872309 -0.01519741
v -0.00184620 0.04721667 -0.01535474
v -0.00211378 0.03039062 -0.01686904
v -0.00230400 0.02321753 -0.01750547
v -0.00249930 0.02670414 -0.01716135
v -0.00256609 0.02651908 -0.01716991
v -0.00245364 0.02291773 -0.01751402
v -0.00275377 0.02651908 -0.01714519
v -0.00305390 0.02681888 -0.01707817
v -0.00305390 0.02486830 -0.01725641
v -0.00311181 0.02416876 -0.01731250
v -0.00305390 0.01976423 -0.01771983
v -0.00305390 0.01961618 -0.01772981
v -0.00320396 0.01946443 -0.01770367
v -0.00313464 0.02075618 -0.01761621
v -0.00359624 0.01936449 -0.01761859
v -0.00421256 0.01919793 -0.01747172
v -0.00440448 0.01916462 -0.01742752
v -0.00449790 0.01916462 -0.01740708
v -0.00310928 0.02085611 -0.01761194
v -0.00449790 0.01747684 -0.01634098
v -0.00440448 0.01746943 -0.01636665
v -0.00449790 0.01752495 -0.01641513
v -0.00449790 0.01755456 -0.01645173
v -0.00335403 0.01727697 -0.01642654
v -0.00305390 0.01731768 -0.01653396
v -0.00290384 0.01752495 -0.01677873
v -0.00276476 0.01751015 -0.01679157
v -0.00290384 0.01730288 -0.01654917
v -0.00275293 0.01736210 -0.01663900
v -0.00425441 0.01752495 -0.01648025
v -0.00417790 0.01758787 -0.01656437
v -0.00365416 0.01738430 -0.01647074
v -0.00020310 0.01725846 -0.01674784
v -0.00017943 0.01725846 -0.01674784
v -0.00245364 0.01755826 -0.01689708
v -0.00230400 0.01761749 -0.01698454
v -0.00215394 0.01768041 -0.01707485
v -0.00215394 0.01760638 -0.01699547
v -0.00190411 0.01759158 -0.01701163
v -0.00200387 0.01745463 -0.01684623
v -0.00185381 0.01764710 -0.01707675
v -0.00170374 0.01765080 -0.01709766
v -0.00155368 0.01772112 -0.01718227
v -0.00125355 0.01763969 -0.01711287
v -0.00110349 0.01748794 -0.01696077
v -0.00110349 0.01763599 -0.01711620
v -0.00095342 0.01763229 -0.01711905
v -0.00065330 0.01755456 -0.01704918
v -0.00050323 0.01740651 -0.01689803
v -0.00035317 0.01732879 -0.01682056
v -0.00017943 0.01754716 -0.01705726
v -0.00017943 0.01740281 -0.01690279
v -0.00308856 0.05475989 -0.01450728
v -0.00131696 0.05253912 -0.01491366
v -0.00170374 0.05292405 -0.01483713
v -0.00230400 0.05352366 -0.01471593
v -0.00305390 0.05457482 -0.01453057
v -0.00095342 0.05187289 -0.01502155
v -0.00148266 0.05240217 -0.01491508
v -0.00154100 0.05246139 -0.01490320
v -0.00158285 0.05235775 -0.01491033
v -0.00080336 0.05187289 -0.01503058
v -0.00095342 0.05202094 -0.01500396
v -0.00023946 0.05150646 -0.01506575
v -0.00017943 0.05141763 -0.01507241
v -0.00050323 0.05160269 -0.01506052
v -0.00035317 0.05151756 -0.01506670
v -0.00065330 0.05172113 -0.01504959
v -0.00323905 0.05475989 -0.01449207
v -0.00320396 0.05457482 -0.01451441
v -0.00125355 0.05187289 -0.01499351
v -0.00140362 0.05187289 -0.01497877
v -0.00140362 0.05172113 -0.01499303
v -0.00140362 0.05157308 -0.01500682
v -0.00132753 0.05104750 -0.01506433
v -0.00136642 0.05094756 -0.01506908
v -0.00155368 0.05097347 -0.01504437
v -0.00170586 0.04572875 -0.01550826
v -0.00211589 0.02711869 -0.01716943
v -0.00156256 0.04572875 -0.01552537
v -0.00224059 0.02045637 -0.01776641
v -0.00230400 0.02096715 -0.01771175
v -0.00245364 0.02096715 -0.01769226
v -0.00265105 0.02156676 -0.01761146
v -0.00289961 0.02110410 -0.01762097
v -0.00290384 0.01991598 -0.01772886
v -0.00298119 0.02104488 -0.01761526
v -0.00300360 0.02096715 -0.01761907
v -0.00290384 0.01976423 -0.01774264
v -0.00290384 0.01961618 -0.01775215
v -0.00288862 0.01945332 -0.01775690
v -0.00305390 0.01946443 -0.01773171
v -0.00320396 0.01931638 -0.01768893
v -0.00335403 0.01931638 -0.01765994
v -0.00350747 0.01931638 -0.01762952
v -0.00356031 0.01926456 -0.01761098
v -0.00380422 0.01916462 -0.01754682
v -0.00413648 0.01901287 -0.01745651
v -0.00425441 0.01901287 -0.01743275
v -0.00440448 0.01901287 -0.01739995
v -0.00449790 0.01910910 -0.01739663
v -0.00449790 0.01762489 -0.01652635
v -0.00440448 0.01761378 -0.01653776
v -0.00407772 0.01757677 -0.01657578
v -0.00380422 0.01754716 -0.01660620
v -0.00349944 0.01751385 -0.01663852
v -0.00305390 0.01746573 -0.01668605
v -0.00335403 0.01757307 -0.01673026
v -0.00290384 0.01759898 -0.01685383
v -0.00271826 0.01758047 -0.01687284
v -0.00260371 0.01756937 -0.01688378
v -0.00271108 0.01743242 -0.01672075
v -0.00245364 0.01762859 -0.01697218
v -0.00417410 0.01773963 -0.01671362
v -0.00395428 0.01771372 -0.01673833
v -0.00380422 0.01762119 -0.01668130
v -0.00230400 0.01769151 -0.01706296
v -0.00215394 0.01782846 -0.01722504
v -0.00193117 0.01788768 -0.01731535
v -0.00192905 0.01773963 -0.01716468
v -0.00185381 0.01773593 -0.01716991
v -0.00170374 0.01772852 -0.01717704
v -0.00155368 0.01779515 -0.01725736
v -0.00140362 0.01771742 -0.01718654
v -0.00125355 0.01771372 -0.01718987
v -0.00110349 0.01771002 -0.01719272
v -0.00050323 0.01762489 -0.01712666
v -0.00020310 0.01762119 -0.01713188
v -0.00017943 0.01769521 -0.01720651
v -0.00080336 0.05172113 -0.01504769
v -0.00095342 0.05172113 -0.01503771
v -0.00110349 0.05187289 -0.01500777
v -0.00020310 0.05127328 -0.01508619
v -0.00020310 0.05067367 -0.01514085
v -0.00035317 0.05067367 -0.01514370
v -0.00035317 0.05127328 -0.01508904
v -0.00017943 0.05049971 -0.01515606
v -0.00065330 0.05153607 -0.01506813
v -0.00065330 0.05161009 -0.01506100
v -0.00050323 0.05142133 -0.01507716
v -0.00125355 0.05172113 -0.01500919
v -0.00125355 0.05157308 -0.01502345
v -0.00125355 0.05082172 -0.01509237
v -0.00133049 0.04940043 -0.01521500
v -0.00148013 0.04594713 -0.01551491
v -0.00208461 0.02720012 -0.01716563
v -0.00204361 0.02565668 -0.01731155
v -0.00215394 0.02021579 -0.01779730
v -0.00215394 0.01991598 -0.01782439
v -0.00230400 0.01991598 -0.01780776
v -0.00193666 0.03065341 -0.01686572
v -0.00245364 0.01991598 -0.01778827
v -0.00264513 0.01994189 -0.01776071
v -0.00278083 0.01976423 -0.01775880
v -0.00281718 0.01961618 -0.01776356
v -0.00282817 0.01949404 -0.01776498
v -0.00282901 0.01939410 -0.01776498
v -0.00282901 0.01939040 -0.01776498
v -0.00305390 0.01931638 -0.01771698
v -0.00341194 0.01910540 -0.01761194
v -0.00346013 0.01920534 -0.01762097
v -0.00365416 0.01916462 -0.01757629
v -0.00406165 0.01901287 -0.01747125
v -0.00402995 0.01893884 -0.01746507
v -0.00425441 0.01886482 -0.01740423
v -0.00449790 0.01895735 -0.01736668
v -0.00449790 0.01901287 -0.01737809
v -0.00449790 0.01767301 -0.01657293
v -0.00335403 0.01764710 -0.01680535
v -0.00282141 0.01773963 -0.01701306
v -0.00260371 0.01771742 -0.01703492
v -0.00230400 0.01776554 -0.01713806
v -0.00440448 0.01776924 -0.01668700
v -0.00335403 0.01787658 -0.01702494
v -0.00320396 0.01778404 -0.01697123
v -0.00230400 0.01783956 -0.01721268
v -0.00215394 0.01790619 -0.01730014
v -0.00199035 0.01795430 -0.01735242
v -0.00185381 0.01796541 -0.01737524
v -0.00155368 0.01804684 -0.01745984
v -0.00185381 0.01788398 -0.01732010
v -0.00170374 0.01780255 -0.01725213
v -0.00170374 0.01787658 -0.01732676
v -0.00155368 0.01787287 -0.01733103
v -0.00140362 0.01779145 -0.01726116
v -0.00065330 0.01770262 -0.01719985
v -0.00095342 0.01778404 -0.01727019
v -0.00020310 0.01769521 -0.01720603
v -0.00017943 0.01777294 -0.01728160
v -0.00080336 0.05159899 -0.01506005
v -0.00088368 0.05150276 -0.01506480
v -0.00094159 0.05156198 -0.01505435
v -0.00110349 0.05157308 -0.01503819
v -0.00017943 0.04962250 -0.01523591
v -0.00020310 0.04902290 -0.01529105
v -0.00050323 0.05097347 -0.01511804
v -0.00023438 0.04655784 -0.01551586
v -0.00035317 0.04872309 -0.01532099
v -0.00065330 0.05067367 -0.01514656
v -0.00080336 0.04994822 -0.01521025
v -0.00098386 0.05145094 -0.01506052
v -0.00109250 0.04796063 -0.01536852
v -0.00185381 0.02651908 -0.01725118
v -0.00185381 0.02126695 -0.01772981
v -0.00200387 0.01991598 -0.01783865
v -0.00215394 0.01976423 -0.01783533
v -0.00230400 0.01976423 -0.01781917
v -0.00270600 0.01976423 -0.01776831
v -0.00260371 0.01961618 -0.01778970
v -0.00245364 0.01946443 -0.01781156
v -0.00260371 0.01946443 -0.01779303
v -0.00276857 0.01945332 -0.01777259
v -0.00230400 0.01946443 -0.01782962
v -0.00230400 0.01931638 -0.01782535
v -0.00245364 0.01931638 -0.01780633
v -0.00274278 0.01933118 -0.01776974
v -0.00268529 0.01923495 -0.01776593
v -0.00278505 0.01929047 -0.01775785
v -0.00288862 0.01933118 -0.01774692
v -0.00320396 0.01916462 -0.01766042
v -0.00331176 0.01906469 -0.01762097
v -0.00365416 0.01901287 -0.01754872
v -0.00380422 0.01901287 -0.01752115
v -0.00395428 0.01890923 -0.01747220
v -0.00408955 0.01887962 -0.01744083
v -0.00449790 0.01876488 -0.01732200
v -0.00440448 0.01886482 -0.01736906
v -0.00425441 0.01871307 -0.01736335
v -0.00449790 0.01886482 -0.01734624
v -0.00449790 0.01770262 -0.01660097
v -0.00276518 0.01780995 -0.01709196
v -0.00260371 0.01786917 -0.01718227
v -0.00245364 0.01785437 -0.01719795
v -0.00449790 0.01778404 -0.01667607
v -0.00449790 0.01782846 -0.01671695
v -0.00425441 0.01782476 -0.01677066
v -0.00380422 0.01785067 -0.01689803
v -0.00320396 0.01801723 -0.01718274
v -0.00305390 0.01792469 -0.01713378
v -0.00245364 0.01793950 -0.01727305
v -0.00256735 0.01802833 -0.01732105
v -0.00230400 0.01799872 -0.01734102
v -0.00215394 0.01798391 -0.01735147
v -0.00185381 0.01807645 -0.01744511
v -0.00170374 0.01806164 -0.01745319
v -0.00155368 0.01812086 -0.01750357
v -0.00125355 0.01822820 -0.01759292
v -0.00110349 0.01821709 -0.01759863
v -0.00095342 0.01820599 -0.01760386
v -0.00136092 0.01803573 -0.01746697
v -0.00110349 0.01795060 -0.01741469
v -0.00140784 0.01797651 -0.01741944
v -0.00140362 0.01786917 -0.01733436
v -0.00110349 0.01786177 -0.01734006
v -0.00065330 0.01785437 -0.01734529
v -0.00035317 0.01785067 -0.01734862
v -0.00017943 0.01792099 -0.01741374
v -0.00088494 0.04985198 -0.01521500
v -0.00095342 0.04932270 -0.01525730
v -0.00095342 0.05067367 -0.01513420
v -0.00017943 0.04820121 -0.01536519
v -0.00017943 0.04707232 -0.01546786
v -0.00035317 0.04829374 -0.01535996
v -0.00050323 0.04962250 -0.01524066
v -0.00017943 0.03579820 -0.01649213
v -0.00020310 0.03402158 -0.01665373
v -0.00065330 0.04932270 -0.01526918
v -0.00065330 0.04707232 -0.01547309
v -0.00077673 0.04656894 -0.01551681
v -0.00080336 0.04947075 -0.01525350
v -0.00088283 0.04820121 -0.01536519
v -0.00170374 0.02486830 -0.01741564
v -0.00179970 0.02091163 -0.01776688
v -0.00185381 0.02021579 -0.01782535
v -0.00185381 0.02006404 -0.01783913
v -0.00185381 0.01991598 -0.01785244
v -0.00185381 0.01976423 -0.01786384
v -0.00200387 0.01961618 -0.01785672
v -0.00215394 0.01961618 -0.01784198
v -0.00230400 0.01961618 -0.01782535
v -0.00215394 0.01946443 -0.01784626
v -0.00215394 0.01931638 -0.01784246
v -0.00230400 0.01916462 -0.01779968
v -0.00260371 0.01921274 -0.01777164
v -0.00244984 0.01916092 -0.01778019
v -0.00260371 0.01913501 -0.01775405
v -0.00274278 0.01917573 -0.01774264
v -0.00305390 0.01901287 -0.01765139
v -0.00324032 0.01896475 -0.01760861
v -0.00350409 0.01901287 -0.01757534
v -0.00395428 0.01883521 -0.01745414
v -0.00439687 0.01871677 -0.01733151
v -0.00444168 0.01866865 -0.01730584
v -0.00449790 0.01869086 -0.01729871
v -0.00410435 0.01871307 -0.01739140
v -0.00425441 0.01860943 -0.01732628
v -0.00434149 0.01863164 -0.01731773
v -0.00305390 0.01799872 -0.01719938
v -0.00275715 0.01795060 -0.01722076
v -0.00449790 0.01795430 -0.01682341
v -0.00440448 0.01793209 -0.01682769
v -0.00330542 0.01803203 -0.01717086
v -0.00335487 0.01810235 -0.01721221
v -0.00266754 0.01804313 -0.01731297
v -0.00290384 0.01798021 -0.01721506
v -0.00313464 0.01818748 -0.01731582
v -0.00305390 0.01817638 -0.01732248
v -0.00245364 0.01811346 -0.01738142
v -0.00230400 0.01811346 -0.01740280
v -0.00200387 0.01809865 -0.01743655
v -0.00140362 0.01831703 -0.01762524
v -0.00140362 0.01824300 -0.01758674
v -0.00125355 0.01830222 -0.01763380
v -0.00110349 0.01829112 -0.01764093
v -0.00080336 0.01819859 -0.01760861
v -0.00095342 0.01828372 -0.01764711
v -0.00035317 0.01838365 -0.01774217
v -0.00017943 0.01837255 -0.01774692
v -0.00125355 0.01803203 -0.01747030
v -0.00080336 0.01794320 -0.01741849
v -0.00095342 0.01802463 -0.01747743
v -0.00080336 0.01802093 -0.01748028
v -0.00065330 0.01801723 -0.01748265
v -0.00017943 0.01800982 -0.01748836
v -0.00020310 0.01800982 -0.01748836
v -0.00149577 0.02946160 -0.01701638
v -0.00035317 0.04737212 -0.01544362
v -0.00017943 0.03444723 -0.01661476
v -0.00017943 0.03267062 -0.01677588
v -0.00020310 0.03207101 -0.01683054
v -0.00024664 0.03334795 -0.01671504
v -0.00050323 0.04707232 -0.01547213
v -0.00059200 0.03664950 -0.01641513
v -0.00020310 0.02906926 -0.01710241
v -0.00035317 0.03432139 -0.01662711
v -0.00017943 0.02175552 -0.01776403
v -0.00017943 0.02096715 -0.01783533
v -0.00017943 0.01961618 -0.01795748
v -0.00035317 0.02665232 -0.01732058
v -0.00080336 0.04829374 -0.01535996
v -0.00050323 0.02651908 -0.01732961
v -0.00050323 0.02546791 -0.01742419
v -0.00050323 0.02096715 -0.01782867
v -0.00076024 0.03156023 -0.01686619
v -0.00110349 0.02096715 -0.01780396
v -0.00110349 0.02469064 -0.01746935
v -0.00110349 0.02846966 -0.01712951
v -0.00120156 0.02300656 -0.01761621
v -0.00121804 0.02631921 -0.01731725
v -0.00125355 0.02516811 -0.01741896
v -0.00125355 0.02651908 -0.01729729
v -0.00140362 0.02096715 -0.01778875
v -0.00140362 0.02651908 -0.01728826
v -0.00140362 0.02846966 -0.01711240
v -0.00155368 0.02321753 -0.01757676
v -0.00158538 0.02446116 -0.01746222
v -0.00174306 0.02101156 -0.01776261
v -0.00170374 0.01991598 -0.01786480
v -0.00170374 0.01976423 -0.01787620
v -0.00170374 0.01961618 -0.01788428
v -0.00185381 0.01961618 -0.01787097
v -0.00185381 0.01946443 -0.01787620
v -0.00200387 0.01946443 -0.01786147
v -0.00200387 0.01931638 -0.01785814
v -0.00215394 0.01916462 -0.01781679
v -0.00239742 0.01907949 -0.01776736
v -0.00249761 0.01910540 -0.01776118
v -0.00260371 0.01901287 -0.01772173
v -0.00275377 0.01901287 -0.01769892
v -0.00314013 0.01893514 -0.01761669
v -0.00385748 0.01880190 -0.01746174
v -0.00439687 0.01857612 -0.01728160
v -0.00449790 0.01856131 -0.01724405
v -0.00375730 0.01877599 -0.01746935
v -0.00395428 0.01871307 -0.01741564
v -0.00395428 0.01856502 -0.01736003
v -0.00413986 0.01850579 -0.01730774
v -0.00425441 0.01853541 -0.01729634
v -0.00449790 0.01802093 -0.01687807
v -0.00391497 0.01802833 -0.01702304
v -0.00340560 0.01804684 -0.01715898
v -0.00350409 0.01813567 -0.01720318
v -0.00319255 0.01812826 -0.01726402
v -0.00290384 0.01808015 -0.01729016
v -0.00350409 0.01824300 -0.01727780
v -0.00335403 0.01822080 -0.01729444
v -0.00323482 0.01820229 -0.01730632
v -0.00359794 0.01833183 -0.01731868
v -0.00219410 0.01819859 -0.01745984
v -0.00290384 0.01826521 -0.01738902
v -0.00256144 0.01832813 -0.01746935
v -0.00209391 0.01818378 -0.01746697
v -0.00200387 0.01817268 -0.01747362
v -0.00170374 0.01826521 -0.01755965
v -0.00150803 0.01833183 -0.01761859
v -0.00155622 0.01840216 -0.01764473
v -0.00140362 0.01841326 -0.01766850
v -0.00125355 0.01841326 -0.01768513
v -0.00110349 0.01841326 -0.01769939
v -0.00095342 0.01841326 -0.01771270
v -0.00065330 0.01840586 -0.01773314
v -0.00050323 0.01839476 -0.01773789
v -0.00057425 0.01819119 -0.01761479
v -0.00047449 0.01818748 -0.01761716
v -0.00035317 0.01826521 -0.01767230
v -0.00020310 0.01826521 -0.01767943
v -0.00035317 0.01845768 -0.01777924
v -0.00017943 0.01843547 -0.01777877
v -0.00017943 0.01826521 -0.01768038
v -0.00035317 0.01818378 -0.01762002
v -0.00017943 0.01816528 -0.01761384
v -0.00050323 0.01801352 -0.01748456
v -0.00017943 0.01808755 -0.01755157
v -0.00020310 0.01810235 -0.01756346
v -0.00017943 0.02876946 -0.01712951
v -0.00035317 0.02486830 -0.01748170
v -0.00035317 0.02096715 -0.01783343
v -0.00035317 0.01961618 -0.01795510
v -0.00017943 0.02244396 -0.01770177
v -0.00017943 0.01946443 -0.01797079
v -0.00020310 0.01946443 -0.01797079
v -0.00046223 0.02000481 -0.01791660
v -0.00050873 0.01992709 -0.01792183
v -0.00095342 0.01961618 -0.01793134
v -0.00117873 0.01969021 -0.01791518
v -0.00125355 0.01991598 -0.01789141
v -0.00125355 0.02156676 -0.01774312
v -0.00140362 0.02006404 -0.01787002
v -0.00155368 0.01991598 -0.01787430
v -0.00155368 0.02126695 -0.01775263
v -0.00155368 0.01976423 -0.01788666
v -0.00155368 0.01961618 -0.01789569
v -0.00135839 0.01946443 -0.01791755
v -0.00143321 0.01946443 -0.01791185
v -0.00155368 0.01946443 -0.01790234
v -0.00170374 0.01946443 -0.01788999
v -0.00170374 0.01931638 -0.01788808
v -0.00185381 0.01931638 -0.01787335
v -0.00133133 0.01923865 -0.01791518
v -0.00170374 0.01916462 -0.01786384
v -0.00170374 0.01901287 -0.01782487
v -0.00207743 0.01893884 -0.01776498
v -0.00244984 0.01902397 -0.01774502
v -0.00230400 0.01898696 -0.01775215
v -0.00230400 0.01886482 -0.01771460
v -0.00245364 0.01886482 -0.01769416
v -0.00260371 0.01886482 -0.01767277
v -0.00290384 0.01888333 -0.01763523
v -0.00305390 0.01891664 -0.01762382
v -0.00440448 0.01843177 -0.01720460
v -0.00449790 0.01845398 -0.01719034
v -0.00335403 0.01871307 -0.01750642
v -0.00365416 0.01867975 -0.01744938
v -0.00380422 0.01856502 -0.01738332
v -0.00404010 0.01848729 -0.01731677
v -0.00447042 0.01819119 -0.01701258
v -0.00425441 0.01808015 -0.01698264
v -0.00401473 0.01804313 -0.01701116
v -0.00449790 0.01822080 -0.01702589
v -0.00350409 0.01806164 -0.01714709
v -0.00410435 0.01813196 -0.01705774
v -0.00410435 0.01823190 -0.01713236
v -0.00395428 0.01828372 -0.01720555
v -0.00350409 0.01841326 -0.01736953
v -0.00335403 0.01841326 -0.01739187
v -0.00290384 0.01838365 -0.01744511
v -0.00214802 0.01825411 -0.01749311
v -0.00215394 0.01841326 -0.01756631
v -0.00185381 0.01838365 -0.01759530
v -0.00160821 0.01834664 -0.01761241
v -0.00170374 0.01843547 -0.01763950
v -0.00170374 0.01856502 -0.01769226
v -0.00155368 0.01856502 -0.01771080
v -0.00140362 0.01856502 -0.01772791
v -0.00110349 0.01853541 -0.01774835
v -0.00073192 0.01848729 -0.01776546
v -0.00050323 0.01846878 -0.01777401
v -0.00017943 0.01825041 -0.01767087
v -0.00035317 0.01856502 -0.01782059
v -0.00020310 0.01856502 -0.01782962
v -0.00020310 0.01845027 -0.01778399
v -0.00017943 0.01856502 -0.01783057
v -0.00017943 0.01810235 -0.01756346
v -0.00035317 0.01946443 -0.01796841
v -0.00050323 0.01961618 -0.01794987
v -0.00017943 0.01944222 -0.01797221
v -0.00017943 0.01931638 -0.01797839
v -0.00065330 0.01946443 -0.01795700
v -0.00080336 0.01946443 -0.01795035
v -0.00095342 0.01946443 -0.01794322
v -0.00110349 0.01946443 -0.01793467
v -0.00133218 0.01954215 -0.01791518
v -0.00140362 0.01976423 -0.01789569
v -0.00140362 0.01991598 -0.01788333
v -0.00125355 0.01946443 -0.01792468
v -0.00110349 0.01931638 -0.01793609
v -0.00125355 0.01931638 -0.01792516
v -0.00135754 0.01931638 -0.01791755
v -0.00143278 0.01931638 -0.01791138
v -0.00155368 0.01931638 -0.01790139
v -0.00095342 0.01931638 -0.01794607
v -0.00080336 0.01916462 -0.01794037
v -0.00125355 0.01922384 -0.01791850
v -0.00100669 0.01909800 -0.01791328
v -0.00139051 0.01917943 -0.01789712
v -0.00155368 0.01916462 -0.01787858
v -0.00125355 0.01901287 -0.01787145
v -0.00140362 0.01901287 -0.01785624
v -0.00140362 0.01886482 -0.01781679
v -0.00165175 0.01877969 -0.01776736
v -0.00185381 0.01889443 -0.01777687
v -0.00185381 0.01882040 -0.01775643
v -0.00215394 0.01886482 -0.01773361
v -0.00185381 0.01871307 -0.01772411
v -0.00200387 0.01871307 -0.01770414
v -0.00215394 0.01871307 -0.01768371
v -0.00276434 0.01885001 -0.01764378
v -0.00230400 0.01871307 -0.01766184
v -0.00282141 0.01879079 -0.01761384
v -0.00431782 0.01834294 -0.01716183
v -0.00440448 0.01835774 -0.01715137
v -0.00244942 0.01870566 -0.01763760
v -0.00260371 0.01867235 -0.01760243
v -0.00335403 0.01854651 -0.01744416
v -0.00365416 0.01856502 -0.01740613
v -0.00311012 0.01849839 -0.01746222
v -0.00215394 0.01850950 -0.01760718
v -0.00196837 0.01847618 -0.01762049
v -0.00201275 0.01842066 -0.01758960
v -0.00185381 0.01845768 -0.01762857
v -0.00201275 0.01855021 -0.01764378
v -0.00140362 0.01865755 -0.01775928
v -0.00131738 0.01864274 -0.01776403
v -0.00126201 0.01857242 -0.01774549
v -0.00121720 0.01862794 -0.01776878
v -0.00095342 0.01859092 -0.01778114
v -0.00050323 0.01871307 -0.01786194
v -0.00035317 0.01871307 -0.01787383
v -0.00020310 0.01871307 -0.01788286
v -0.00017943 0.01869086 -0.01787573
v -0.00050323 0.01946443 -0.01796318
v -0.00035317 0.01931638 -0.01797507
v -0.00017943 0.01929047 -0.01797697
v -0.00050323 0.01931638 -0.01796936
v -0.00065330 0.01931638 -0.01796271
v -0.00080336 0.01931638 -0.01795510
v -0.00090650 0.01907949 -0.01791755
v -0.00110349 0.01919423 -0.01792421
v -0.00065330 0.01916462 -0.01794940
v -0.00050323 0.01901287 -0.01793324
v -0.00050323 0.01892404 -0.01791803
v -0.00058186 0.01893884 -0.01791518
v -0.00080336 0.01898326 -0.01790567
v -0.00110349 0.01901287 -0.01788571
v -0.00080336 0.01886482 -0.01787810
v -0.00095342 0.01886482 -0.01786337
v -0.00110349 0.01886482 -0.01784816
v -0.00155368 0.01876118 -0.01777259
v -0.00170248 0.01872417 -0.01774549
v -0.00155368 0.01868716 -0.01775120
v -0.00215394 0.01858352 -0.01763570
v -0.00126201 0.01870196 -0.01778637
v -0.00110349 0.01871307 -0.01780586
v -0.00095342 0.01871307 -0.01782059
v -0.00080336 0.01871307 -0.01783485
v -0.00065330 0.01871307 -0.01784864
v -0.00050323 0.01885001 -0.01790139
v -0.00035317 0.01882781 -0.01790757
v -0.00020310 0.01880560 -0.01791233
v -0.00017943 0.01879079 -0.01790947
v -0.00017943 0.01871677 -0.01788476
v -0.00017943 0.01916462 -0.01796984
v -0.00020310 0.01916462 -0.01796936
v -0.00035317 0.01916462 -0.01796413
v -0.00050323 0.01916462 -0.01795748
v -0.00035317 0.01901287 -0.01794132
v -0.00035317 0.01890183 -0.01792231
v -0.00064019 0.01887962 -0.01789617
v -0.00017943 0.01880190 -0.01791280
v -0.00017943 0.01885372 -0.01792278
v -0.00017943 0.01914241 -0.01796698
v -0.00020310 0.01901287 -0.01794892
v -0.00020310 0.01887962 -0.01792611
v -0.00017943 0.01887592 -0.01792658
v -0.00017943 0.01901287 -0.01794940
v -0.00017943 0.01898696 -0.01794512
f 1 2 11
f 1 11 24
f 1 24 39
f 1 39 55
f 1 55 80
f 1 80 114
f 1 114 149
f 1 149 153
f 1 153 152
f 1 152 204
f 1 204 243
f 1 243 241
f 1 241 282
f 1 282 327
f 1 327 332
f 1 332 386
f 1 386 458
f 1 458 541
f 1 541 557
f 1 557 481
f 1 481 479
f 1 479 398
f 1 398 344
f 1 344 297
f 1 297 252
f 1 252 214
f 1 214 167
f 1 167 163
f 1 163 123
f 1 123 85
f 1 85 58
f 1 58 41
f 1 41 25
f 1 25 12
f 1 12 3
f 1 3 13
f 1 13 27
f 1 27 26
f 1 26 43
f 1 43 63
f 1 63 62
f 1 62 93
f 1 93 133
f 1 133 132
f 1 132 131
f 1 131 130
f 1 130 129
f 1 129 128
f 1 128 165
f 1 165 164
f 1 164 171
f 1 171 220
f 1 220 219
f 1 219 258
f 1 258 257
f 1 257 256
f 1 256 255
f 1 255 254
f 1 254 300
f 1 300 355
f 1 355 423
f 1 423 506
f 1 506 589
f 1 589 655
f 1 655 654
f 1 654 717
f 1 717 714
f 1 714 782
f 1 782 861
f 1 861 939
f 1 939 947
f 1 947 867
f 1 867 788
f 1 788 723
f 1 723 722
f 1 722 718
f 1 718 656
f 1 656 590
f 1 590 511
f 1 511 510
f 1 510 508
f 1 508 434
f 1 434 433
f 1 433 365
f 1 365 310
f 1 310 267
f 1 267 261
f 1 261 227
f 1 227 226
f 1 226 223
f 1 223 222
f 1 222 221
f 1 221 225
f 1 225 224
f 1 224 180
f 1 180 179
f 1 179 194
f 1 194 193
f 1 193 192
f 1 192 191
f 1 191 188
f 1 188 187
f 1 187 186
f 1 186 190
f 1 190 189
f 1 189 175
f 1 175 174
f 1 174 136
f 1 136 99
f 1 99 68
f 1 68 45
f 1 45 32
f 1 32 20
f 1 20 8
f 1 8 7
f 1 7 6
f 1 6 5
f 1 5 4
f 1 4 2
f 2 4 5
f 2 5 6
f 2 6 7
f 2 7 8
f 2 8 9
f 2 9 10
f 2 10 11
f 3 12 13
f 8 14 15
f 8 15 16
f 8 16 17
f 8 17 18
f 8 18 19
f 8 19 9
f 8 20 21
f 8 21 22
f 8 22 23
f 8 23 14
f 9 19 18
f 9 18 17
f 9 17 16
f 9 16 31
f 9 31 30
f 9 30 29
f 9 29 44
f 9 44 67
f 9 67 98
f 9 98 135
f 9 135 134
f 9 134 110
f 9 110 113
f 9 113 107
f 9 107 148
f 9 148 200
f 9 200 240
f 9 240 277
f 9 277 280
f 9 280 326
f 9 326 383
f 9 383 454
f 9 454 438
f 9 438 522
f 9 522 540
f 9 540 539
f 9 539 617
f 9 617 677
f 9 677 745
f 9 745 812
f 9 812 901
f 9 901 971
f 9 971 899
f 9 899 966
f 9 966 897
f 9 897 806
f 9 806 896
f 9 896 970
f 9 970 1028
f 9 1028 1059
f 9 1059 1058
f 9 1058 1067
f 9 1067 1068
f 9 1068 1072
f 9 1072 1074
f 9 1074 1073
f 9 1073 1069
f 9 1069 1060
f 9 1060 1031
f 9 1031 975
f 9 975 974
f 9 974 908
f 9 908 826
f 9 826 825
f 9 825 824
f 9 824 907
f 9 907 903
f 9 903 817
f 9 817 816
f 9 816 753
f 9 753 750
f 9 750 749
f 9 749 682
f 9 682 625
f 9 625 553
f 9 553 474
f 9 474 395
f 9 395 339
f 9 339 292
f 9 292 249
f 9 249 211
f 9 211 160
f 9 160 159
f 9 159 120
f 9 120 115
f 9 115 82
f 9 82 56
f 9 56 40
f 9 40 24
f 9 24 11
f 9 11 10
f 12 25 26
f 12 26 27
f 12 27 13
f 14 28 15
f 14 23 28
f 15 28 29
f 15 29 30
f 15 30 31
f 15 31 16
f 20 32 21
f 21 33 34
f 21 34 35
f 21 35 22
f 21 32 33
f 22 35 36
f 22 36 23
f 23 36 37
f 23 37 38
f 23 38 28
f 24 40 39
f 25 41 42
f 25 42 43
f 25 43 26
f 28 44 29
f 28 38 37
f 28 37 44
f 32 45 46
f 32 46 47
f 32 47 33
f 33 48 49
f 33 49 50
f 33 50 51
f 33 51 34
f 33 47 46
f 33 46 48
f 34 51 36
f 34 36 35
f 36 51 52
f 36 52 53
f 36 53 37
f 37 53 54
f 37 54 44
f 39 40 55
f 40 56 57
f 40 57 55
f 41 58 42
f 42 58 59
f 42 59 60
f 42 60 61
f 42 61 62
f 42 62 63
f 42 63 43
f 44 54 64
f 44 64 65
f 44 65 66
f 44 66 67
f 45 68 46
f 46 68 48
f 48 69 70
f 48 70 71
f 48 71 72
f 48 72 73
f 48 73 49
f 48 68 69
f 49 73 74
f 49 74 75
f 49 75 50
f 50 76 52
f 50 52 51
f 50 75 77
f 50 77 76
f 52 76 78
f 52 78 79
f 52 79 53
f 53 79 54
f 54 79 64
f 55 57 81
f 55 81 80
f 56 82 57
f 57 83 81
f 57 82 84
f 57 84 83
f 58 85 86
f 58 86 59
f 59 86 87
f 59 87 88
f 59 88 89
f 59 89 90
f 59 90 91
f 59 91 92
f 59 92 61
f 59 61 60
f 61 92 62
f 62 92 93
f 64 79 94
f 64 94 65
f 65 94 95
f 65 95 66
f 66 95 96
f 66 96 97
f 66 97 135
f 66 135 98
f 66 98 67
f 68 99 100
f 68 100 101
f 68 101 102
f 68 102 69
f 69 102 101
f 69 101 100
f 69 100 70
f 70 100 103
f 70 103 71
f 71 103 140
f 71 140 104
f 71 104 72
f 72 104 105
f 72 105 106
f 72 106 107
f 72 107 73
f 73 107 74
f 74 107 75
f 75 107 108
f 75 108 109
f 75 109 77
f 76 77 78
f 77 110 111
f 77 111 78
f 77 109 112
f 77 112 113
f 77 113 110
f 78 111 96
f 78 96 94
f 78 94 79
f 80 81 114
f 81 83 114
f 82 115 116
f 82 116 84
f 83 117 114
f 83 84 118
f 83 118 117
f 84 119 118
f 84 116 115
f 84 115 120
f 84 120 121
f 84 121 122
f 84 122 119
f 85 123 86
f 86 124 87
f 86 123 125
f 86 125 124
f 87 124 126
f 87 126 88
f 88 126 89
f 89 126 127
f 89 127 128
f 89 128 90
f 90 129 130
f 90 130 91
f 90 128 129
f 91 131 132
f 91 132 92
f 91 130 131
f 92 132 133
f 92 133 93
f 94 96 95
f 96 134 135
f 96 135 97
f 96 111 134
f 99 136 137
f 99 137 100
f 100 137 103
f 103 138 139
f 103 139 140
f 103 137 141
f 103 141 142
f 103 142 143
f 103 143 138
f 104 140 105
f 105 144 197
f 105 197 145
f 105 145 146
f 105 146 106
f 105 140 144
f 106 146 147
f 106 147 107
f 107 147 148
f 107 113 112
f 107 112 108
f 108 112 109
f 110 134 111
f 114 117 150
f 114 150 149
f 117 151 152
f 117 152 153
f 117 153 154
f 117 154 150
f 117 118 155
f 117 155 151
f 118 119 155
f 119 122 156
f 119 156 157
f 119 157 158
f 119 158 155
f 120 159 121
f 121 159 160
f 121 160 161
f 121 161 162
f 121 162 122
f 122 162 208
f 122 208 156
f 123 163 125
f 124 125 164
f 124 164 165
f 124 165 166
f 124 166 126
f 125 163 167
f 125 167 168
f 125 168 169
f 125 169 170
f 125 170 171
f 125 171 164
f 126 166 172
f 126 172 127
f 127 172 166
f 127 166 173
f 127 173 165
f 127 165 128
f 136 174 137
f 137 174 175
f 137 175 141
f 138 176 177
f 138 177 178
f 138 178 139
f 138 143 179
f 138 179 180
f 138 180 176
f 139 181 182
f 139 182 183
f 139 183 140
f 139 178 184
f 139 184 185
f 139 185 181
f 140 183 144
f 141 186 187
f 141 187 188
f 141 188 142
f 141 175 189
f 141 189 190
f 141 190 186
f 142 188 191
f 142 191 192
f 142 192 193
f 142 193 194
f 142 194 143
f 143 194 179
f 144 183 231
f 144 231 195
f 144 195 196
f 144 196 197
f 145 197 198
f 145 198 147
f 145 147 146
f 147 198 199
f 147 199 148
f 148 199 200
f 149 150 154
f 149 154 153
f 151 155 201
f 151 201 202
f 151 202 242
f 151 242 203
f 151 203 204
f 151 204 152
f 155 202 201
f 155 158 205
f 155 205 206
f 155 206 207
f 155 207 202
f 156 208 209
f 156 209 210
f 156 210 157
f 157 210 158
f 158 210 205
f 160 162 161
f 160 211 212
f 160 212 213
f 160 213 162
f 162 213 208
f 165 173 166
f 167 214 215
f 167 215 168
f 168 215 216
f 168 216 169
f 169 216 217
f 169 217 170
f 170 218 219
f 170 219 220
f 170 220 171
f 170 217 218
f 176 221 222
f 176 222 223
f 176 223 177
f 176 180 224
f 176 224 225
f 176 225 221
f 177 223 226
f 177 226 227
f 177 227 178
f 178 227 184
f 181 185 228
f 181 228 182
f 182 228 183
f 183 228 229
f 183 229 230
f 183 230 231
f 184 227 232
f 184 232 185
f 185 233 234
f 185 234 228
f 185 232 235
f 185 235 233
f 195 236 196
f 195 231 236
f 196 236 198
f 196 198 197
f 198 237 199
f 198 236 238
f 198 238 237
f 199 237 239
f 199 239 240
f 199 240 200
f 202 241 242
f 202 207 241
f 203 242 243
f 203 243 204
f 205 210 244
f 205 244 206
f 206 244 207
f 207 244 245
f 207 245 241
f 208 213 246
f 208 246 248
f 208 248 209
f 209 247 244
f 209 244 210
f 209 248 247
f 211 249 212
f 212 249 213
f 213 249 250
f 213 250 251
f 213 251 246
f 214 252 215
f 215 252 217
f 215 217 216
f 217 252 218
f 218 253 254
f 218 254 255
f 218 255 256
f 218 256 257
f 218 257 258
f 218 258 219
f 218 252 259
f 218 259 260
f 218 260 253
f 227 261 232
f 228 262 229
f 228 234 271
f 228 271 262
f 229 262 263
f 229 263 264
f 229 264 265
f 229 265 230
f 230 265 266
f 230 266 236
f 230 236 231
f 232 261 267
f 232 267 268
f 232 268 269
f 232 269 235
f 233 235 268
f 233 268 270
f 233 270 234
f 234 270 272
f 234 272 271
f 235 269 268
f 236 266 238
f 237 273 239
f 237 238 265
f 237 265 274
f 237 274 275
f 237 275 273
f 238 266 276
f 238 276 265
f 239 277 240
f 239 273 278
f 239 278 279
f 239 279 280
f 239 280 277
f 241 281 282
f 241 243 242
f 241 245 281
f 244 283 245
f 244 247 283
f 245 283 284
f 245 284 285
f 245 285 281
f 246 251 248
f 247 286 328
f 247 328 283
f 247 248 287
f 247 287 286
f 248 288 287
f 248 251 289
f 248 289 290
f 248 290 291
f 248 291 288
f 249 292 293
f 249 293 294
f 249 294 295
f 249 295 250
f 250 295 251
f 251 295 296
f 251 296 289
f 252 297 298
f 252 298 259
f 253 299 300
f 253 300 254
f 253 260 299
f 259 298 301
f 259 301 260
f 260 301 302
f 260 302 303
f 260 303 304
f 260 304 299
f 262 271 305
f 262 305 306
f 262 306 307
f 262 307 263
f 263 307 264
f 264 307 308
f 264 308 265
f 265 308 309
f 265 309 274
f 265 276 266
f 267 310 268
f 268 310 311
f 268 311 272
f 268 272 270
f 271 272 312
f 271 312 305
f 272 311 313
f 272 313 314
f 272 314 312
f 273 275 278
f 274 309 275
f 275 309 308
f 275 308 307
f 275 307 278
f 278 315 279
f 278 307 316
f 278 316 317
f 278 317 318
f 278 318 319
f 278 319 320
f 278 320 321
f 278 321 322
f 278 322 323
f 278 323 315
f 279 324 280
f 279 315 369
f 279 369 324
f 280 324 325
f 280 325 326
f 281 285 282
f 282 285 327
f 283 328 329
f 283 329 285
f 283 285 284
f 285 330 331
f 285 331 332
f 285 332 327
f 285 329 330
f 286 287 333
f 286 333 328
f 287 288 334
f 287 334 333
f 288 291 334
f 289 296 335
f 289 335 290
f 290 335 291
f 291 335 336
f 291 336 334
f 292 337 338
f 292 338 293
f 292 339 396
f 292 396 340
f 292 340 337
f 293 338 341
f 293 341 294
f 294 341 295
f 295 341 296
f 296 341 338
f 296 338 337
f 296 337 342
f 296 342 392
f 296 392 343
f 296 343 335
f 297 344 345
f 297 345 346
f 297 346 347
f 297 347 348
f 297 348 298
f 298 348 347
f 298 347 349
f 298 349 302
f 298 302 301
f 299 304 350
f 299 350 300
f 300 351 352
f 300 352 353
f 300 353 354
f 300 354 355
f 300 350 304
f 300 304 356
f 300 356 351
f 302 349 357
f 302 357 358
f 302 358 359
f 302 359 360
f 302 360 303
f 303 361 356
f 303 356 304
f 303 360 361
f 305 312 362
f 305 362 306
f 306 362 363
f 306 363 364
f 306 364 316
f 306 316 307
f 310 365 366
f 310 366 311
f 311 366 313
f 312 314 366
f 312 366 367
f 312 367 362
f 313 366 314
f 315 368 369
f 315 323 368
f 316 364 370
f 316 370 371
f 316 371 372
f 316 372 317
f 317 372 373
f 317 373 374
f 317 374 375
f 317 375 376
f 317 376 318
f 318 376 377
f 318 377 319
f 319 377 320
f 320 377 378
f 320 378 379
f 320 379 380
f 320 380 321
f 321 380 322
f 322 380 381
f 322 381 382
f 322 382 323
f 323 382 437
f 323 437 368
f 324 369 383
f 324 383 325
f 325 383 326
f 328 384 329
f 328 333 384
f 329 384 330
f 330 385 331
f 330 384 385
f 331 386 332
f 331 385 387
f 331 387 388
f 331 388 386
f 333 334 389
f 333 389 390
f 333 390 384
f 334 336 391
f 334 391 389
f 335 343 336
f 336 343 392
f 336 392 393
f 336 393 391
f 337 340 394
f 337 394 342
f 339 395 396
f 340 396 473
f 340 473 394
f 342 394 473
f 342 473 397
f 342 397 470
f 342 470 392
f 344 398 345
f 345 399 347
f 345 347 346
f 345 398 400
f 345 400 401
f 345 401 402
f 345 402 403
f 345 403 404
f 345 404 405
f 345 405 399
f 347 406 357
f 347 357 349
f 347 399 405
f 347 405 407
f 347 407 408
f 347 408 409
f 347 409 410
f 347 410 406
f 351 356 352
f 352 356 411
f 352 411 412
f 352 412 353
f 353 413 414
f 353 414 415
f 353 415 354
f 353 412 416
f 353 416 413
f 354 417 355
f 354 415 418
f 354 418 419
f 354 419 420
f 354 420 417
f 355 417 421
f 355 421 422
f 355 422 423
f 356 361 411
f 357 406 358
f 358 406 424
f 358 424 359
f 359 424 360
f 360 425 361
f 360 424 426
f 360 426 416
f 360 416 411
f 360 411 425
f 361 425 411
f 362 367 427
f 362 427 428
f 362 428 363
f 363 429 430
f 363 430 364
f 363 428 431
f 363 431 432
f 363 432 429
f 364 430 370
f 365 433 366
f 366 433 434
f 366 434 435
f 366 435 367
f 367 435 434
f 367 434 427
f 368 436 369
f 368 437 438
f 368 438 436
f 369 436 383
f 370 430 439
f 370 439 371
f 371 440 372
f 371 439 441
f 371 441 442
f 371 442 443
f 371 443 440
f 372 440 373
f 373 440 443
f 373 443 444
f 373 444 445
f 373 445 374
f 374 445 375
f 375 446 378
f 375 378 377
f 375 377 376
f 375 445 447
f 375 447 446
f 378 446 447
f 378 447 379
f 379 447 448
f 379 448 380
f 380 448 449
f 380 449 450
f 380 450 451
f 380 451 381
f 381 451 452
f 381 452 538
f 381 538 453
f 381 453 382
f 382 453 437
f 383 436 454
f 384 390 455
f 384 455 385
f 385 455 456
f 385 456 457
f 385 457 387
f 386 388 459
f 386 459 458
f 387 457 388
f 388 460 461
f 388 461 462
f 388 462 463
f 388 463 464
f 388 464 459
f 388 457 465
f 388 465 466
f 388 466 467
f 388 467 468
f 388 468 460
f 389 391 390
f 390 469 456
f 390 456 455
f 390 391 469
f 391 393 466
f 391 466 465
f 391 465 457
f 391 457 469
f 392 470 393
f 393 471 466
f 393 470 472
f 393 472 471
f 395 474 475
f 395 475 476
f 395 476 477
f 395 477 396
f 396 477 476
f 396 476 473
f 397 473 476
f 397 476 556
f 397 556 478
f 397 478 470
f 398 479 401
f 398 401 400
f 401 479 402
f 402 480 403
f 402 479 481
f 402 481 482
f 402 482 483
f 402 483 484
f 402 484 485
f 402 485 480
f 403 480 486
f 403 486 487
f 403 487 404
f 404 487 488
f 404 488 489
f 404 489 490
f 404 490 491
f 404 491 492
f 404 492 405
f 405 492 493
f 405 493 407
f 406 410 426
f 406 426 424
f 407 493 494
f 407 494 495
f 407 495 408
f 408 495 496
f 408 496 409
f 409 496 497
f 409 497 498
f 409 498 410
f 410 498 426
f 411 416 412
f 413 499 415
f 413 415 414
f 413 416 499
f 415 500 501
f 415 501 420
f 415 420 419
f 415 419 418
f 415 499 500
f 416 426 502
f 416 502 499
f 417 420 503
f 417 503 422
f 417 422 421
f 420 501 503
f 422 504 505
f 422 505 506
f 422 506 423
f 422 503 504
f 426 498 499
f 426 499 507
f 426 507 502
f 427 434 508
f 427 508 428
f 428 508 509
f 428 509 510
f 428 510 511
f 428 511 431
f 429 512 430
f 429 432 512
f 430 512 513
f 430 513 514
f 430 514 515
f 430 515 516
f 430 516 517
f 430 517 439
f 431 511 432
f 432 511 518
f 432 518 519
f 432 519 520
f 432 520 512
f 436 438 454
f 437 453 521
f 437 521 438
f 438 521 522
f 439 517 441
f 441 517 523
f 441 523 601
f 441 601 524
f 441 524 525
f 441 525 526
f 441 526 442
f 442 526 527
f 442 527 447
f 442 447 528
f 442 528 444
f 442 444 443
f 444 528 447
f 444 447 445
f 447 527 529
f 447 529 530
f 447 530 449
f 447 449 448
f 449 530 531
f 449 531 450
f 450 531 532
f 450 532 533
f 450 533 451
f 451 533 534
f 451 534 535
f 451 535 536
f 451 536 537
f 451 537 452
f 452 537 538
f 453 538 539
f 453 539 540
f 453 540 521
f 456 469 457
f 458 459 541
f 459 464 541
f 460 468 471
f 460 471 542
f 460 542 461
f 461 463 462
f 461 542 463
f 463 543 464
f 463 542 543
f 464 544 545
f 464 545 541
f 464 543 546
f 464 546 547
f 464 547 548
f 464 548 549
f 464 549 544
f 466 471 467
f 467 471 468
f 470 478 472
f 471 472 550
f 471 550 551
f 471 551 542
f 472 478 550
f 474 552 475
f 474 553 552
f 475 554 476
f 475 552 555
f 475 555 628
f 475 628 554
f 476 554 556
f 478 556 618
f 478 618 550
f 480 485 487
f 480 487 486
f 481 557 558
f 481 558 482
f 482 558 557
f 482 557 545
f 482 545 483
f 483 549 559
f 483 559 560
f 483 560 485
f 483 485 484
f 483 545 544
f 483 544 549
f 485 560 561
f 485 561 562
f 485 562 563
f 485 563 564
f 485 564 565
f 485 565 487
f 487 565 488
f 488 565 489
f 489 565 566
f 489 566 490
f 490 567 491
f 490 566 568
f 490 568 567
f 491 567 569
f 491 569 570
f 491 570 492
f 492 570 493
f 493 570 494
f 494 570 571
f 494 571 572
f 494 572 573
f 494 573 495
f 495 573 496
f 496 573 497
f 497 573 498
f 498 573 574
f 498 574 575
f 498 575 576
f 498 576 499
f 499 576 577
f 499 577 500
f 499 502 507
f 500 578 579
f 500 579 580
f 500 580 501
f 500 577 578
f 501 580 647
f 501 647 581
f 501 581 503
f 503 581 582
f 503 582 583
f 503 583 504
f 504 583 582
f 504 582 584
f 504 584 585
f 504 585 586
f 504 586 587
f 504 587 505
f 505 587 588
f 505 588 506
f 506 588 589
f 508 510 509
f 511 590 591
f 511 591 518
f 512 520 592
f 512 592 593
f 512 593 594
f 512 594 513
f 513 594 595
f 513 595 514
f 514 595 596
f 514 596 657
f 514 657 597
f 514 597 598
f 514 598 515
f 515 598 599
f 515 599 600
f 515 600 516
f 516 600 517
f 517 600 601
f 517 601 523
f 518 591 519
f 519 591 602
f 519 602 603
f 519 603 604
f 519 604 592
f 519 592 520
f 521 540 522
f 524 601 605
f 524 605 525
f 525 605 660
f 525 660 606
f 525 606 607
f 525 607 608
f 525 608 529
f 525 529 527
f 525 527 526
f 529 608 609
f 529 609 530
f 530 609 610
f 530 610 531
f 531 610 670
f 531 670 611
f 531 611 612
f 531 612 532
f 532 612 613
f 532 613 534
f 532 534 533
f 534 613 614
f 534 614 535
f 535 614 615
f 535 615 536
f 536 615 539
f 536 539 537
f 537 539 538
f 539 615 616
f 539 616 617
f 541 545 557
f 542 551 546
f 542 546 543
f 546 551 550
f 546 550 618
f 546 618 619
f 546 619 620
f 546 620 547
f 547 620 549
f 547 549 548
f 549 620 559
f 552 553 621
f 552 621 622
f 552 622 623
f 552 623 624
f 552 624 555
f 553 625 622
f 553 622 621
f 554 626 627
f 554 627 556
f 554 628 626
f 555 624 628
f 556 627 618
f 559 620 619
f 559 619 629
f 559 629 560
f 560 629 630
f 560 630 561
f 561 630 563
f 561 563 562
f 563 630 631
f 563 631 632
f 563 632 633
f 563 633 564
f 564 633 568
f 564 568 565
f 565 568 566
f 567 634 569
f 567 568 634
f 568 633 634
f 569 635 636
f 569 636 637
f 569 637 638
f 569 638 570
f 569 634 639
f 569 639 632
f 569 632 635
f 570 638 640
f 570 640 571
f 571 640 641
f 571 641 572
f 572 641 573
f 573 641 574
f 574 641 577
f 574 577 575
f 575 577 576
f 577 642 643
f 577 643 578
f 577 641 640
f 577 640 642
f 578 643 644
f 578 644 579
f 579 645 646
f 579 646 580
f 579 644 645
f 580 646 647
f 581 647 648
f 581 648 649
f 581 649 582
f 582 649 650
f 582 650 585
f 582 585 584
f 585 650 651
f 585 651 586
f 586 651 652
f 586 652 587
f 587 652 653
f 587 653 588
f 588 654 655
f 588 655 589
f 588 653 654
f 590 656 591
f 591 656 602
f 592 604 593
f 593 604 657
f 593 657 596
f 593 596 594
f 594 596 595
f 597 657 658
f 597 658 659
f 597 659 598
f 598 659 599
f 599 659 601
f 599 601 600
f 601 659 660
f 601 660 605
f 602 656 661
f 602 661 662
f 602 662 603
f 603 662 663
f 603 663 658
f 603 658 604
f 604 658 657
f 606 660 664
f 606 664 665
f 606 665 607
f 607 665 666
f 607 666 667
f 607 667 668
f 607 668 669
f 607 669 609
f 607 609 608
f 609 669 670
f 609 670 610
f 611 670 671
f 611 671 672
f 611 672 673
f 611 673 612
f 612 673 613
f 613 673 614
f 614 674 615
f 614 673 675
f 614 675 674
f 615 674 676
f 615 676 616
f 616 676 617
f 617 676 677
f 618 627 678
f 618 678 679
f 618 679 619
f 619 679 680
f 619 680 681
f 619 681 629
f 622 625 682
f 622 682 683
f 622 683 623
f 623 684 624
f 623 683 685
f 623 685 686
f 623 686 684
f 624 684 628
f 626 678 627
f 626 628 684
f 626 684 687
f 626 687 688
f 626 688 678
f 629 681 630
f 630 681 631
f 631 681 632
f 632 681 689
f 632 689 690
f 632 690 691
f 632 691 636
f 632 636 635
f 632 639 633
f 633 639 634
f 636 691 692
f 636 692 693
f 636 693 637
f 637 693 765
f 637 765 694
f 637 694 695
f 637 695 638
f 638 695 696
f 638 696 642
f 638 642 640
f 642 696 643
f 643 697 698
f 643 698 644
f 643 696 695
f 643 695 697
f 644 698 699
f 644 699 700
f 644 700 645
f 645 700 646
f 646 700 699
f 646 699 698
f 646 698 701
f 646 701 702
f 646 702 703
f 646 703 704
f 646 704 705
f 646 705 706
f 646 706 707
f 646 707 647
f 647 707 705
f 647 705 708
f 647 708 648
f 648 708 705
f 648 705 709
f 648 709 710
f 648 710 652
f 648 652 711
f 648 711 649
f 649 711 652
f 649 652 650
f 650 652 651
f 652 710 712
f 652 712 713
f 652 713 653
f 653 714 715
f 653 715 654
f 653 713 716
f 653 716 714
f 654 715 717
f 656 718 661
f 658 663 719
f 658 719 720
f 658 720 721
f 658 721 659
f 659 721 664
f 659 664 660
f 661 722 723
f 661 723 724
f 661 724 725
f 661 725 662
f 661 718 722
f 662 725 726
f 662 726 727
f 662 727 720
f 662 720 719
f 662 719 663
f 664 721 665
f 665 721 728
f 665 728 729
f 665 729 730
f 665 730 731
f 665 731 666
f 666 731 732
f 666 732 733
f 666 733 667
f 667 733 668
f 668 733 734
f 668 734 735
f 668 735 736
f 668 736 737
f 668 737 738
f 668 738 671
f 668 671 669
f 669 671 670
f 671 739 672
f 671 738 740
f 671 740 739
f 672 739 741
f 672 741 673
f 673 741 742
f 673 742 675
f 674 675 676
f 675 742 677
f 675 677 676
f 677 742 743
f 677 743 744
f 677 744 745
f 678 688 746
f 678 746 679
f 679 746 747
f 679 747 680
f 680 747 748
f 680 748 690
f 680 690 689
f 680 689 681
f 682 749 683
f 683 749 750
f 683 750 685
f 684 686 751
f 684 751 752
f 684 752 755
f 684 755 687
f 685 750 753
f 685 753 686
f 686 753 754
f 686 754 751
f 687 755 688
f 688 755 756
f 688 756 757
f 688 757 758
f 688 758 759
f 688 759 746
f 690 748 747
f 690 747 760
f 690 760 692
f 690 692 691
f 692 760 761
f 692 761 762
f 692 762 693
f 693 762 763
f 693 763 764
f 693 764 765
f 694 765 849
f 694 849 766
f 694 766 767
f 694 767 695
f 695 767 768
f 695 768 697
f 697 768 701
f 697 701 698
f 701 768 767
f 701 767 769
f 701 769 770
f 701 770 702
f 702 770 853
f 702 853 771
f 702 771 705
f 702 705 703
f 703 705 704
f 705 771 772
f 705 772 773
f 705 773 774
f 705 774 775
f 705 775 709
f 705 707 706
f 709 775 776
f 709 776 777
f 709 777 778
f 709 778 710
f 710 778 712
f 712 778 779
f 712 779 713
f 713 779 716
f 714 717 715
f 714 716 780
f 714 780 781
f 714 781 782
f 716 783 784
f 716 784 785
f 716 785 780
f 716 779 783
f 720 727 786
f 720 786 787
f 720 787 728
f 720 728 721
f 723 788 789
f 723 789 726
f 723 726 724
f 724 726 725
f 726 790 791
f 726 791 792
f 726 792 786
f 726 786 727
f 726 789 790
f 728 787 793
f 728 793 792
f 728 792 729
f 729 792 794
f 729 794 795
f 729 795 796
f 729 796 797
f 729 797 798
f 729 798 732
f 729 732 730
f 730 732 731
f 732 734 733
f 732 798 799
f 732 799 800
f 732 800 734
f 734 800 735
f 735 800 801
f 735 801 802
f 735 802 736
f 736 802 737
f 737 803 738
f 737 802 804
f 737 804 805
f 737 805 806
f 737 806 803
f 738 807 740
f 738 803 807
f 739 808 742
f 739 742 741
f 739 740 807
f 739 807 809
f 739 809 810
f 739 810 811
f 739 811 900
f 739 900 808
f 742 808 743
f 743 808 745
f 743 745 744
f 745 808 813
f 745 813 812
f 746 759 814
f 746 814 747
f 747 814 760
f 751 815 752
f 751 754 815
f 752 815 820
f 752 820 755
f 753 816 754
f 754 816 817
f 754 817 903
f 754 903 818
f 754 818 819
f 754 819 755
f 754 755 820
f 754 820 815
f 755 819 756
f 756 821 757
f 756 819 822
f 756 822 823
f 756 823 824
f 756 824 825
f 756 825 826
f 756 826 827
f 756 827 821
f 757 759 828
f 757 828 758
f 757 821 829
f 757 829 830
f 757 830 831
f 757 831 832
f 757 832 833
f 757 833 834
f 757 834 759
f 758 828 759
f 759 834 835
f 759 835 836
f 759 836 837
f 759 837 838
f 759 838 839
f 759 839 840
f 759 840 841
f 759 841 842
f 759 842 843
f 759 843 844
f 759 844 814
f 760 814 761
f 761 845 763
f 761 763 762
f 761 814 845
f 763 845 846
f 763 846 764
f 764 846 847
f 764 847 765
f 765 847 848
f 765 848 849
f 766 849 850
f 766 850 851
f 766 851 767
f 767 851 769
f 769 851 926
f 769 926 852
f 769 852 770
f 770 852 928
f 770 928 853
f 771 853 854
f 771 854 855
f 771 855 773
f 771 773 772
f 773 855 774
f 774 855 856
f 774 856 857
f 774 857 775
f 775 857 776
f 776 857 858
f 776 858 777
f 777 858 859
f 777 859 779
f 777 779 778
f 779 859 783
f 780 785 781
f 781 785 860
f 781 860 782
f 782 860 861
f 783 859 862
f 783 862 863
f 783 863 864
f 783 864 865
f 783 865 784
f 784 865 785
f 785 865 866
f 785 866 860
f 786 792 793
f 786 793 787
f 788 867 789
f 789 867 868
f 789 868 790
f 790 868 869
f 790 869 870
f 790 870 791
f 791 871 872
f 791 872 792
f 791 870 873
f 791 873 874
f 791 874 871
f 792 872 875
f 792 875 794
f 794 875 876
f 794 876 795
f 795 876 796
f 796 877 797
f 796 876 878
f 796 878 879
f 796 879 877
f 797 877 880
f 797 880 798
f 798 880 881
f 798 881 882
f 798 882 799
f 799 801 800
f 799 882 883
f 799 883 884
f 799 884 885
f 799 885 886
f 799 886 801
f 801 886 887
f 801 887 888
f 801 888 802
f 802 888 889
f 802 889 890
f 802 890 805
f 802 805 804
f 803 891 892
f 803 892 807
f 803 806 893
f 803 893 894
f 803 894 891
f 805 890 895
f 805 895 896
f 805 896 806
f 806 897 894
f 806 894 893
f 807 892 898
f 807 898 899
f 807 899 809
f 808 900 813
f 809 899 810
f 810 899 811
f 811 899 900
f 812 813 901
f 813 900 902
f 813 902 901
f 814 844 846
f 814 846 845
f 818 903 819
f 819 903 822
f 821 827 904
f 821 904 905
f 821 905 906
f 821 906 829
f 822 903 907
f 822 907 823
f 823 907 824
f 826 908 909
f 826 909 906
f 826 906 905
f 826 905 904
f 826 904 827
f 829 906 830
f 830 906 910
f 830 910 831
f 831 910 911
f 831 911 833
f 831 833 832
f 833 911 912
f 833 912 913
f 833 913 836
f 833 836 834
f 834 836 835
f 836 913 914
f 836 914 915
f 836 915 837
f 837 915 838
f 838 915 840
f 838 840 839
f 840 915 916
f 840 916 917
f 840 917 918
f 840 918 841
f 841 918 843
f 841 843 842
f 843 918 846
f 843 846 844
f 846 918 917
f 846 917 919
f 846 919 847
f 847 919 920
f 847 920 848
f 848 920 921
f 848 921 922
f 848 922 923
f 848 923 924
f 848 924 849
f 849 924 850
f 850 924 925
f 850 925 926
f 850 926 851
f 852 926 927
f 852 927 928
f 853 928 996
f 853 996 929
f 853 929 930
f 853 930 854
f 854 931 856
f 854 856 855
f 854 930 932
f 854 932 931
f 856 933 934
f 856 934 935
f 856 935 936
f 856 936 937
f 856 937 858
f 856 858 857
f 856 931 933
f 858 937 862
f 858 862 859
f 860 866 938
f 860 938 939
f 860 939 861
f 862 937 936
f 862 936 940
f 862 940 941
f 862 941 863
f 863 941 942
f 863 942 864
f 864 942 943
f 864 943 865
f 865 943 876
f 865 876 938
f 865 938 866
f 867 944 945
f 867 945 946
f 867 946 868
f 867 947 944
f 868 946 869
f 869 946 948
f 869 948 870
f 870 948 949
f 870 949 950
f 870 950 951
f 870 951 876
f 870 876 873
f 871 875 872
f 871 874 875
f 873 876 874
f 874 876 875
f 876 951 938
f 876 943 952
f 876 952 953
f 876 953 954
f 876 954 879
f 876 879 878
f 877 879 955
f 877 955 880
f 879 954 956
f 879 956 957
f 879 957 955
f 880 955 958
f 880 958 882
f 880 882 881
f 882 958 883
f 883 958 884
f 884 958 959
f 884 959 960
f 884 960 885
f 885 960 961
f 885 961 962
f 885 962 886
f 886 962 963
f 886 963 964
f 886 964 887
f 887 964 888
f 888 964 889
f 889 964 965
f 889 965 895
f 889 895 890
f 891 894 892
f 892 894 966
f 892 966 898
f 894 897 966
f 895 965 967
f 895 967 968
f 895 968 969
f 895 969 896
f 896 969 970
f 898 966 899
f 899 971 902
f 899 902 900
f 901 902 971
f 906 909 972
f 906 972 1029
f 906 1029 973
f 906 973 910
f 908 974 909
f 909 974 975
f 909 975 972
f 910 973 911
f 911 973 912
f 912 973 1029
f 912 1029 976
f 912 976 977
f 912 977 913
f 913 977 978
f 913 978 979
f 913 979 980
f 913 980 919
f 913 919 981
f 913 981 982
f 913 982 914
f 914 982 915
f 915 982 916
f 916 982 917
f 917 982 981
f 917 981 919
f 919 980 920
f 920 980 921
f 921 980 983
f 921 983 984
f 921 984 985
f 921 985 986
f 921 986 922
f 922 986 923
f 923 986 987
f 923 987 924
f 924 987 988
f 924 988 925
f 925 988 927
f 925 927 926
f 927 988 987
f 927 987 986
f 927 986 985
f 927 985 984
f 927 984 989
f 927 989 990
f 927 990 991
f 927 991 992
f 927 992 993
f 927 993 994
f 927 994 928
f 928 994 995
f 928 995 996
f 929 996 1045
f 929 1045 997
f 929 997 998
f 929 998 999
f 929 999 930
f 930 999 998
f 930 998 1000
f 930 1000 932
f 931 932 933
f 932 1000 1001
f 932 1001 933
f 933 1001 1002
f 933 1002 1003
f 933 1003 1004
f 933 1004 934
f 934 1004 935
f 935 1005 936
f 935 1004 1006
f 935 1006 1005
f 936 1005 1007
f 936 1007 940
f 938 951 1008
f 938 1008 1009
f 938 1009 944
f 938 944 947
f 938 947 939
f 940 1010 1011
f 940 1011 1012
f 940 1012 941
f 940 1007 1010
f 941 1012 1013
f 941 1013 942
f 942 1013 952
f 942 952 943
f 944 1009 1008
f 944 1008 950
f 944 950 945
f 945 948 946
f 945 950 949
f 945 949 948
f 950 1008 951
f 952 1013 1014
f 952 1014 953
f 953 1014 1015
f 953 1015 1016
f 953 1016 954
f 954 1016 956
f 955 957 958
f 956 1017 957
f 956 1016 1018
f 956 1018 1017
f 957 1017 1018
f 957 1018 959
f 957 959 958
f 959 1018 960
f 960 1018 1016
f 960 1016 1019
f 960 1019 1004
f 960 1004 1003
f 960 1003 1002
f 960 1002 961
f 961 1002 1020
f 961 1020 962
f 962 1020 1021
f 962 1021 1022
f 962 1022 963
f 963 1022 1023
f 963 1023 1024
f 963 1024 964
f 964 1024 1025
f 964 1025 1026
f 964 1026 967
f 964 967 965
f 967 1026 1027
f 967 1027 968
f 968 1027 970
f 968 970 969
f 970 1027 1028
f 972 975 1030
f 972 1030 1029
f 975 1031 1030
f 976 1029 1032
f 976 1032 1033
f 976 1033 977
f 977 1033 978
f 978 1033 1034
f 978 1034 979
f 979 983 980
f 979 1034 989
f 979 989 984
f 979 984 983
f 989 1034 1037
f 989 1037 990
f 990 1035 1036
f 990 1036 991
f 990 1037 1038
f 990 1038 1039
f 990 1039 1040
f 990 1040 1035
f 991 1036 1035
f 991 1035 992
f 992 1035 1040
f 992 1040 1041
f 992 1041 1042
f 992 1042 993
f 993 1042 994
f 994 1042 995
f 995 1042 1043
f 995 1043 1044
f 995 1044 1045
f 995 1045 996
f 997 1045 1046
f 997 1046 998
f 998 1046 1020
f 998 1020 1047
f 998 1047 1000
f 1000 1047 1002
f 1000 1002 1001
f 1002 1048 1020
f 1002 1047 1048
f 1004 1019 1049
f 1004 1049 1006
f 1005 1006 1007
f 1006 1049 1011
f 1006 1011 1010
f 1006 1010 1007
f 1011 1049 1012
f 1012 1014 1013
f 1012 1049 1014
f 1014 1049 1019
f 1014 1019 1015
f 1015 1019 1016
f 1020 1048 1047
f 1020 1046 1050
f 1020 1050 1021
f 1021 1023 1022
f 1021 1050 1051
f 1021 1051 1052
f 1021 1052 1053
f 1021 1053 1023
f 1023 1053 1024
f 1024 1053 1054
f 1024 1054 1025
f 1025 1054 1055
f 1025 1055 1056
f 1025 1056 1026
f 1026 1056 1057
f 1026 1057 1058
f 1026 1058 1027
f 1027 1058 1059
f 1027 1059 1028
f 1029 1030 1032
f 1030 1031 1060
f 1030 1060 1061
f 1030 1061 1062
f 1030 1062 1032
f 1032 1062 1063
f 1032 1063 1033
f 1033 1063 1034
f 1034 1063 1037
f 1037 1063 1064
f 1037 1064 1038
f 1038 1064 1065
f 1038 1065 1039
f 1039 1065 1057
f 1039 1057 1056
f 1039 1056 1055
f 1039 1055 1040
f 1040 1055 1066
f 1040 1066 1042
f 1040 1042 1041
f 1042 1066 1043
f 1043 1066 1055
f 1043 1055 1054
f 1043 1054 1053
f 1043 1053 1052
f 1043 1052 1051
f 1043 1051 1044
f 1044 1051 1045
f 1045 1051 1050
f 1045 1050 1046
f 1057 1067 1058
f 1057 1065 1068
f 1057 1068 1067
f 1060 1069 1061
f 1061 1069 1070
f 1061 1070 1062
f 1062 1070 1063
f 1063 1070 1064
f 1064 1070 1071
f 1064 1071 1065
f 1065 1071 1068
f 1068 1071 1070
f 1068 1070 1072
f 1069 1073 1070
f 1070 1073 1074
f 1070 1074 1072

