# https://github.com/mikedh/trimesh
v -0.00985539 0.05481042 0.00675062
v -0.01095080 0.05480825 0.00463442
v -0.01093536 0.05481042 0.00466467
v -0.01094233 0.05481042 0.00675062
v -0.00991405 0.05412469 0.00675062
v -0.01095080 0.05470192 0.00465327
v -0.01095080 0.05481042 0.00467337
v -0.00992735 0.05397387 0.00675062
v -0.01095080 0.05481042 0.00673902
v -0.01095080 0.05478981 0.00675062
v -0.01095080 0.05337386 0.00489193
v -0.00994161 0.05382414 0.00675062
v -0.01095080 0.04887319 0.00570112
v -0.01095080 0.04944066 0.00559898
v -0.01095080 0.04372694 0.00675062
v -0.00995501 0.05368634 0.00675062
v -0.01095080 0.04872346 0.00572929
v -0.01095080 0.04859977 0.00575353
v -0.01085085 0.04468067 0.00675062
v -0.01070148 0.04618126 0.00675062
f 1 2 3
f 1 3 7
f 1 7 9
f 1 9 4
f 1 4 10
f 1 10 15
f 1 15 19
f 1 19 20
f 1 20 16
f 1 16 12
f 1 12 8
f 1 8 5
f 1 5 2
f 2 6 11
f 2 11 14
f 2 14 13
f 2 13 17
f 2 17 18
f 2 18 15
f 2 15 10
f 2 10 9
f 2 9 7
f 2 7 3
f 2 5 8
f 2 8 6
f 4 9 10
f 6 8 11
f 8 12 13
f 8 13 14
f 8 14 11
f 12 16 17
f 12 17 13
f 15 18 19
f 16 20 18
f 16 18 17
f 18 20 19

