# https://github.com/mikedh/trimesh
v 0.01272971 0.05451286 0.00266449
v 0.01277383 0.05451286 0.00250647
v 0.01176379 0.05451286 0.00266449
v 0.01281652 0.05427635 0.00266449
v 0.01282779 0.05442215 0.00241664
v 0.01278151 0.05451286 0.00247303
v 0.01284385 0.05427311 0.00256679
v 0.01203021 0.05451286 -0.00403400
v 0.01176571 0.05412408 0.00266449
v 0.01285225 0.05417591 0.00266449
v 0.01285968 0.05442215 0.00226649
v 0.01282659 0.05451286 0.00226452
v 0.01279421 0.05451286 0.00241664
v 0.01287982 0.05427311 0.00241664
v 0.01292059 0.05451286 -0.00403400
v 0.01203692 0.05428283 -0.00403400
v 0.01257480 0.02546729 0.00266449
v 0.01176690 0.05396208 0.00266449
v 0.01176667 0.05397180 0.00266449
v 0.01287023 0.05412084 0.00266449
v 0.01290932 0.05427311 0.00227304
v 0.01291819 0.05432171 0.00214519
v 0.01289613 0.05440919 0.00210388
v 0.01290956 0.05444806 0.00196618
v 0.01290356 0.05451286 0.00188029
v 0.01287623 0.05451286 0.00201864
v 0.01284457 0.05451286 0.00217863
v 0.01289877 0.05411112 0.00255499
v 0.01291507 0.05415648 0.00241664
v 0.01292395 0.05418887 0.00232747
v 0.01293138 0.05451286 -0.00398613
v 0.01294577 0.05442863 -0.00403400
v 0.01315823 0.02141744 -0.00403400
v 0.01257911 0.02532150 0.00266449
v 0.01290285 0.05401068 0.00266449
v 0.01293354 0.05422127 0.00222715
v 0.01307670 0.05404956 0.00174259
v 0.01294097 0.05427311 0.00210388
v 0.01292731 0.05435087 0.00204487
v 0.01293114 0.05451286 0.00173800
v 0.01292683 0.05451286 0.00176095
v 0.01323281 0.05406900 0.00087512
v 0.01291795 0.05401068 0.00259761
v 0.01292778 0.05405280 0.00249794
v 0.01293594 0.05408196 0.00241664
v 0.01294985 0.05413380 0.00227304
v 0.01293234 0.05451286 -0.00398154
v 0.01298797 0.05427311 -0.00403400
v 0.01405461 0.02141420 -0.00403400
v 0.01315631 0.02141420 -0.00388516
v 0.01300260 0.02141420 0.00266449
v 0.01283450 0.02201682 0.00266449
v 0.01267695 0.02291750 0.00266449
v 0.01267000 0.02306654 0.00266449
v 0.01291004 0.05398476 0.00266449
v 0.01308509 0.05396532 0.00180161
v 0.01322778 0.05390376 0.00114723
v 0.01323569 0.05393292 0.00106593
v 0.01328149 0.05397180 0.00076562
v 0.01293450 0.05437355 0.00196618
v 0.01308222 0.05436707 0.00117215
v 0.01302658 0.05451286 0.00121739
v 0.01308845 0.05423747 0.00136623
v 0.01330931 0.05397180 0.00061547
v 0.01325463 0.05413704 0.00062662
v 0.01305392 0.05451286 0.00106593
v 0.01306447 0.05431199 0.00136623
v 0.01292587 0.05391996 0.00266449
v 0.01293690 0.05396532 0.00255499
v 0.01305776 0.05381953 0.00211306
v 0.01294769 0.05451286 -0.00388516
v 0.01301219 0.05427311 -0.00388516
v 0.01305560 0.05411436 -0.00387991
v 0.01302682 0.05412084 -0.00403400
v 0.01406708 0.02141420 -0.00403400
v 0.01393543 0.02141420 0.00266449
v 0.01308821 0.05381953 0.00195766
v 0.01323593 0.05381629 0.00120493
v 0.01331938 0.05382277 0.00076562
v 0.01334792 0.05382277 0.00061547
v 0.01337381 0.05388757 0.00037221
v 0.01333473 0.05397180 0.00046597
v 0.01328653 0.05412408 0.00046597
v 0.01307095 0.05451286 0.00096823
v 0.01296759 0.05382277 0.00256679
v 0.01294817 0.05381953 0.00266449
v 0.01300116 0.05367373 0.00256679
v 0.01303066 0.05367373 0.00241664
v 0.01308030 0.05376445 0.00206060
v 0.01295392 0.05451286 -0.00384582
v 0.01307886 0.05405928 -0.00382680
v 0.01307119 0.05402040 -0.00392647
v 0.01305992 0.05396856 -0.00403400
v 0.01394982 0.02921908 -0.00373501
v 0.01395917 0.02876874 -0.00373501
v 0.01397380 0.02876874 -0.00363469
v 0.01398099 0.02891777 -0.00354748
v 0.01408387 0.02141420 -0.00388581
v 0.01391601 0.02861646 -0.00403400
v 0.01382728 0.03337261 -0.00396384
v 0.01385749 0.03252052 -0.00388516
v 0.01378028 0.03732203 -0.00373501
v 0.01381697 0.03566645 -0.00372189
v 0.01390905 0.03116949 -0.00373501
v 0.01415797 0.02141420 0.00121936
v 0.01355055 0.05112070 0.00166588
v 0.01361817 0.03866658 0.00266449
v 0.01314744 0.05367373 0.00181603
v 0.01322898 0.05375797 0.00130394
v 0.01326351 0.05367373 0.00121608
v 0.01332130 0.05367373 0.00091577
v 0.01335487 0.05366077 0.00075382
v 0.01337741 0.05360245 0.00069546
v 0.01337645 0.05374825 0.00054007
v 0.01336902 0.05383249 0.00048040
v 0.01338485 0.05378713 0.00043975
v 0.01339324 0.05383249 0.00031976
v 0.01338101 0.05391348 0.00027255
v 0.01335895 0.05396856 0.00031976
v 0.01331051 0.05412408 0.00031582
v 0.01324384 0.05425043 0.00046597
v 0.01312946 0.05451286 0.00062072
v 0.01310524 0.05451286 0.00076562
v 0.01320931 0.05427311 0.00062662
v 0.01308078 0.05451286 0.00091053
v 0.01297982 0.05367373 0.00266449
v 0.01303042 0.05352470 0.00256679
v 0.01306159 0.05352146 0.00241598
v 0.01307143 0.05357330 0.00231566
v 0.01298126 0.05451286 -0.00367075
v 0.01305967 0.05426987 -0.00358813
v 0.01328893 0.05367373 -0.00313505
v 0.01322898 0.05375797 -0.00337569
v 0.01308102 0.05392320 -0.00397958
v 0.01332562 0.05352470 -0.00313505
v 0.01322058 0.05371909 -0.00347535
v 0.01314936 0.05382277 -0.00373501
v 0.01308749 0.05381629 -0.00403400
v 0.01382344 0.03597100 -0.00363796
v 0.01389395 0.03297087 -0.00358485
v 0.01390330 0.03252052 -0.00358485
v 0.01397716 0.02931628 -0.00351404
v 0.01390953 0.03221921 -0.00358485
v 0.01392488 0.03146756 -0.00358485
v 0.01408531 0.02141420 -0.00387204
v 0.01389395 0.02966618 -0.00403400
v 0.01385606 0.03146756 -0.00403400
v 0.01367620 0.04172504 -0.00380779
v 0.01368676 0.04167320 -0.00374878
v 0.01367932 0.04257065 -0.00367665
v 0.01382968 0.03537162 -0.00367927
v 0.01383447 0.03492128 -0.00370943
v 0.01415916 0.02141420 0.00121149
v 0.01357237 0.05112070 0.00151638
v 0.01356877 0.05127298 0.00151638
v 0.01354599 0.05127298 0.00166588
v 0.01353185 0.05112070 0.00176161
v 0.01361482 0.03881886 0.00266449
v 0.01321914 0.05371261 0.00140361
v 0.01332250 0.05352470 0.00106593
v 0.01336806 0.05355386 0.00079578
v 0.01337765 0.05345342 0.00084627
v 0.01338365 0.05351174 0.00075382
v 0.01343377 0.05322339 0.00076562
v 0.01340523 0.05352470 0.00061547
v 0.01343041 0.05352470 0.00046597
v 0.01342681 0.05367373 0.00031582
v 0.01345487 0.05352470 0.00031582
v 0.01344360 0.05367373 0.00016567
v 0.01341146 0.05382277 0.00016567
v 0.01338581 0.05393292 0.00016567
v 0.01336542 0.05400744 0.00016567
v 0.01332753 0.05412408 0.00016567
v 0.01323137 0.05436383 0.00027910
v 0.01325272 0.05428607 0.00032369
v 0.01322490 0.05434439 0.00037942
v 0.01321818 0.05432495 0.00046597
v 0.01315344 0.05451286 0.00046597
v 0.01300740 0.05352470 0.00266449
v 0.01308006 0.05331735 0.00250581
v 0.01322850 0.05285728 0.00219961
v 0.01307143 0.05341778 0.00246516
v 0.01308102 0.05347286 0.00236550
v 0.01321986 0.05341454 0.00170719
v 0.01326447 0.05352470 0.00136623
v 0.01299397 0.05451286 -0.00358485
v 0.01306903 0.05432171 -0.00343470
v 0.01308917 0.05424719 -0.00343470
v 0.01322346 0.05388757 -0.00318882
v 0.01331123 0.05367373 -0.00298490
v 0.01336494 0.05355386 -0.00283475
v 0.01335463 0.05351174 -0.00297507
v 0.01326447 0.05367373 -0.00328521
v 0.01323065 0.05361865 -0.00353043
v 0.01326830 0.05352470 -0.00343470
v 0.01322034 0.05356682 -0.00363075
v 0.01322969 0.05346638 -0.00367468
v 0.01314672 0.05367373 -0.00388516
v 0.01317382 0.05352470 -0.00388516
v 0.01322610 0.05314563 -0.00395794
v 0.01337789 0.05345342 -0.00291933
v 0.01336998 0.05341454 -0.00301900
v 0.01335895 0.05336918 -0.00312981
v 0.01329780 0.05352470 -0.00328521
v 0.01310140 0.05373853 -0.00403400
v 0.01383447 0.03597100 -0.00356256
v 0.01385318 0.03492128 -0.00358485
v 0.01367573 0.04290435 -0.00365436
v 0.01362393 0.04587209 -0.00358485
v 0.01367932 0.04362037 -0.00352846
v 0.01383136 0.03626907 -0.00354092
v 0.01382968 0.03642134 -0.00353043
v 0.01382608 0.03676801 -0.00350486
v 0.01397620 0.02941671 -0.00350355
v 0.01399154 0.02891777 -0.00343470
v 0.01382704 0.03756502 -0.00336323
v 0.01367692 0.04581053 -0.00321177
v 0.01410809 0.02141420 -0.00358485
v 0.01400353 0.02891777 -0.00328521
v 0.01383375 0.03252052 -0.00403400
v 0.01355846 0.04782250 -0.00373501
v 0.01359683 0.04602112 -0.00373501
v 0.01354791 0.04947160 -0.00358485
v 0.01357333 0.04827284 -0.00358485
v 0.01382105 0.03311990 -0.00403400
v 0.01378915 0.03461997 -0.00403400
v 0.01374119 0.03686845 -0.00403400
v 0.01360187 0.04692181 -0.00358485
v 0.01417619 0.02141420 0.00107511
v 0.01358964 0.05112070 0.00136623
v 0.01358628 0.05127298 0.00136623
v 0.01417739 0.02141420 0.00106527
v 0.01358172 0.05142201 0.00136623
v 0.01356278 0.05142201 0.00151638
v 0.01353736 0.05141229 0.00167375
v 0.01352705 0.05135721 0.00174325
v 0.01352921 0.05127298 0.00175112
v 0.01351194 0.05112070 0.00183636
v 0.01346326 0.04497788 0.00266449
v 0.01332274 0.05337242 0.00121608
v 0.01335583 0.05336270 0.00105412
v 0.01336830 0.05340482 0.00094659
v 0.01338389 0.05336270 0.00090397
v 0.01343449 0.05307435 0.00091577
v 0.01346038 0.05307435 0.00076562
v 0.01345895 0.05322339 0.00061547
v 0.01347237 0.05352470 0.00016567
v 0.01348460 0.05307435 0.00061547
v 0.01348269 0.05322339 0.00046597
v 0.01350930 0.05321367 0.00030599
v 0.01352777 0.05315535 0.00024894
v 0.01345439 0.05367373 0.00001552
v 0.01346470 0.05367373 -0.00013463
v 0.01342154 0.05382277 0.00001552
v 0.01339276 0.05398476 -0.00013201
v 0.01337861 0.05405604 -0.00018119
v 0.01337478 0.05404308 -0.00008087
v 0.01318893 0.05451286 0.00016567
v 0.01317334 0.05451286 0.00031910
v 0.01303162 0.05337242 0.00266449
v 0.01308773 0.05322339 0.00253597
v 0.01314097 0.05307435 0.00241664
v 0.01323545 0.05277304 0.00222780
v 0.01331075 0.05247174 0.00211634
v 0.01328605 0.05262401 0.00211634
v 0.01337621 0.05239398 0.00188947
v 0.01331890 0.05262401 0.00196618
v 0.01323641 0.05291560 0.00210912
v 0.01314768 0.05322339 0.00226649
v 0.01321962 0.05311323 0.00200552
v 0.01326375 0.05307435 0.00181603
v 0.01332178 0.05307435 0.00151638
v 0.01300284 0.05451286 -0.00352256
v 0.01307526 0.05434439 -0.00335012
v 0.01320883 0.05396856 -0.00313702
v 0.01333281 0.05367373 -0.00283475
v 0.01337909 0.05360893 -0.00262952
v 0.01337022 0.05326551 -0.00317702
v 0.01337981 0.05316507 -0.00322488
v 0.01332490 0.05322339 -0.00343470
v 0.01335607 0.05306463 -0.00342421
v 0.01329300 0.05322339 -0.00358485
v 0.01332010 0.05307435 -0.00358485
v 0.01328749 0.05307435 -0.00373501
v 0.01321914 0.05322339 -0.00392581
v 0.01323497 0.05304520 -0.00399203
v 0.01316639 0.05337242 -0.00403400
v 0.01334120 0.05277304 -0.00373501
v 0.01330835 0.05277304 -0.00388516
v 0.01333425 0.05262401 -0.00388516
v 0.01332394 0.05247174 -0.00403400
v 0.01339156 0.05352794 -0.00268197
v 0.01342777 0.05337242 -0.00268460
v 0.01346158 0.05322339 -0.00268460
v 0.01343832 0.05322339 -0.00283475
v 0.01338652 0.05336918 -0.00297507
v 0.01337981 0.05331411 -0.00307670
v 0.01367692 0.04385364 -0.00351142
v 0.01356374 0.04977291 -0.00343470
v 0.01364431 0.04692181 -0.00328521
v 0.01365366 0.04647147 -0.00328521
v 0.01397380 0.02966942 -0.00347404
v 0.01398195 0.02936811 -0.00344650
v 0.01382608 0.03766546 -0.00335274
v 0.01398579 0.02921908 -0.00343470
v 0.01399826 0.02921908 -0.00328521
v 0.01357837 0.05007098 -0.00328521
v 0.01357837 0.05097167 -0.00313505
v 0.01358460 0.05067360 -0.00313505
v 0.01367597 0.04590773 -0.00320062
v 0.01411720 0.02141420 -0.00343470
v 0.01401744 0.02876874 -0.00313505
v 0.01353784 0.04887222 -0.00372451
v 0.01353304 0.04932257 -0.00369566
v 0.01352969 0.04962064 -0.00367731
v 0.01354120 0.04977291 -0.00358485
v 0.01355726 0.05007098 -0.00343470
v 0.01372513 0.03762010 -0.00403400
v 0.01360450 0.05112070 0.00121608
v 0.01360139 0.05127298 0.00121608
v 0.01359731 0.05142201 0.00121608
v 0.01418914 0.02141420 0.00091512
v 0.01359251 0.05157105 0.00121608
v 0.01357549 0.05157105 0.00136623
v 0.01355463 0.05157105 0.00151638
v 0.01353520 0.05157105 0.00163572
v 0.01352417 0.05145765 0.00172883
v 0.01346350 0.05142201 0.00196618
v 0.01350906 0.05127298 0.00182652
v 0.01349467 0.05157105 0.00181603
v 0.01345487 0.05157105 0.00196618
v 0.01341482 0.05157105 0.00211634
v 0.01347117 0.05127298 0.00196618
v 0.01347669 0.05112070 0.00196618
v 0.01346158 0.04503620 0.00266449
v 0.01336782 0.05280220 0.00154523
v 0.01336806 0.05310351 0.00124624
v 0.01338389 0.05306139 0.00120428
v 0.01337765 0.05330438 0.00099642
v 0.01340739 0.05307435 0.00106593
v 0.01343520 0.05277304 0.00121608
v 0.01346206 0.05262401 0.00121608
v 0.01346182 0.05277304 0.00106593
v 0.01348796 0.05262401 0.00106593
v 0.01348724 0.05277304 0.00091577
v 0.01351266 0.05276980 0.00076300
v 0.01349396 0.05352470 -0.00013463
v 0.01351866 0.05325255 0.00016567
v 0.01352705 0.05330115 -0.00005464
v 0.01352081 0.05296420 0.00050335
v 0.01352129 0.05281840 0.00065743
v 0.01352009 0.05310999 0.00034926
v 0.01353137 0.05317479 0.00016567
v 0.01352849 0.05300956 0.00040368
v 0.01353304 0.05306463 0.00030599
v 0.01355055 0.05292208 0.00031582
v 0.01356925 0.05277304 0.00031582
v 0.01354575 0.05307435 0.00016567
v 0.01346974 0.05367373 -0.00028479
v 0.01343113 0.05382277 -0.00013463
v 0.01349995 0.05352470 -0.00028479
v 0.01343568 0.05382277 -0.00028479
v 0.01340043 0.05397180 -0.00028479
v 0.01337957 0.05405604 -0.00028479
v 0.01335439 0.05413380 -0.00028479
v 0.01322610 0.05451286 -0.00043428
v 0.01322298 0.05451286 -0.00033462
v 0.01321890 0.05451286 -0.00025659
v 0.01321123 0.05451286 -0.00013463
v 0.01320044 0.05451286 0.00001552
v 0.01305512 0.05322339 0.00266449
v 0.01306879 0.05322339 0.00261072
v 0.01309876 0.05308407 0.00257859
v 0.01322394 0.05268233 0.00233140
v 0.01321699 0.05277304 0.00230255
v 0.01336686 0.05233566 0.00197077
v 0.01333353 0.05232270 0.00211634
v 0.01337262 0.05221902 0.00202454
v 0.01338389 0.05247174 0.00177866
v 0.01336926 0.05247174 0.00185341
v 0.01338389 0.05229678 0.00192422
v 0.01342633 0.05217367 0.00181603
v 0.01345751 0.05217367 0.00166588
v 0.01343257 0.05232270 0.00166588
v 0.01336758 0.05264993 0.00169473
v 0.01329132 0.05277304 0.00196618
v 0.01322898 0.05301280 0.00205470
v 0.01335487 0.05276008 0.00165342
v 0.01301483 0.05451286 -0.00343470
v 0.01308150 0.05436707 -0.00324980
v 0.01318557 0.05412408 -0.00298490
v 0.01331099 0.05382277 -0.00268460
v 0.01335655 0.05366401 -0.00268197
v 0.01336398 0.05370289 -0.00253444
v 0.01338413 0.05362837 -0.00253444
v 0.01340955 0.05352470 -0.00253444
v 0.01338796 0.05321691 -0.00312981
v 0.01341290 0.05322339 -0.00298490
v 0.01341122 0.05307435 -0.00313505
v 0.01338581 0.05306463 -0.00327930
v 0.01337789 0.05300632 -0.00336717
v 0.01336926 0.05310675 -0.00332520
v 0.01336950 0.05292208 -0.00347667
v 0.01329804 0.05262077 -0.00403400
v 0.01324552 0.05292208 -0.00403400
v 0.01337621 0.05284432 -0.00350814
v 0.01336854 0.05278600 -0.00359272
v 0.01337430 0.05268233 -0.00364780
v 0.01336494 0.05262725 -0.00373632
v 0.01336063 0.05246850 -0.00387729
v 0.01334792 0.05232270 -0.00403400
v 0.01347933 0.05322339 -0.00253444
v 0.01350667 0.05307435 -0.00253444
v 0.01348820 0.05307435 -0.00268460
v 0.01346374 0.05307435 -0.00283475
v 0.01356877 0.05052132 -0.00328521
v 0.01387404 0.03552066 -0.00328521
v 0.01397188 0.02997397 -0.00342487
v 0.01398003 0.02966942 -0.00339864
v 0.01400953 0.02921908 -0.00313505
v 0.01397764 0.03053771 -0.00322029
v 0.01399514 0.02996749 -0.00313505
v 0.01400090 0.02966942 -0.00313505
v 0.01357501 0.05112070 -0.00313505
v 0.01358556 0.05127298 -0.00298490
v 0.01358892 0.05112070 -0.00298490
v 0.01359491 0.05082263 -0.00298490
v 0.01367692 0.04640667 -0.00306227
v 0.01373807 0.04302099 -0.00313505
v 0.01385054 0.03732203 -0.00313505
v 0.01382632 0.03827132 -0.00320456
v 0.01413183 0.02141420 -0.00313505
v 0.01403351 0.02831839 -0.00298490
v 0.01404814 0.02786805 -0.00283475
v 0.01406037 0.02756674 -0.00268460
v 0.01402608 0.02876874 -0.00298490
v 0.01402871 0.02861646 -0.00298490
v 0.01354839 0.04586885 -0.00403400
v 0.01350978 0.04767023 -0.00403400
v 0.01350331 0.04796829 -0.00403400
v 0.01349995 0.04812057 -0.00403400
v 0.01348245 0.04886898 -0.00403400
v 0.01351410 0.04977291 -0.00374222
v 0.01352681 0.04985715 -0.00366157
v 0.01349659 0.04826960 -0.00403400
v 0.01348964 0.04857091 -0.00403400
v 0.01353616 0.04991223 -0.00359600
v 0.01353664 0.05007098 -0.00356977
v 0.01355031 0.05037229 -0.00343470
v 0.01361002 0.05127298 0.00106593
v 0.01420017 0.02141420 0.00076562
v 0.01360642 0.05142201 0.00106593
v 0.01360211 0.05157105 0.00106593
v 0.01359683 0.05172332 0.00106593
v 0.01358460 0.05172332 0.00121608
v 0.01356518 0.05172332 0.00136623
v 0.01354024 0.05173628 0.00153015
v 0.01353065 0.05169416 0.00161277
v 0.01352057 0.05157105 0.00171047
v 0.01342274 0.05142201 0.00211634
v 0.01348317 0.05172332 0.00181603
v 0.01344336 0.05172332 0.00196618
v 0.01338557 0.05157105 0.00222059
v 0.01338125 0.05169416 0.00220616
v 0.01343017 0.05127298 0.00211634
v 0.01343568 0.05112070 0.00211634
v 0.01339564 0.05112070 0.00225272
v 0.01337621 0.05088743 0.00234058
v 0.01335703 0.05083235 0.00240353
v 0.01334792 0.05097167 0.00241664
v 0.01328629 0.05027509 0.00266449
v 0.01337717 0.05270177 0.00159441
v 0.01340643 0.05262401 0.00151638
v 0.01343473 0.05262401 0.00136623
v 0.01352249 0.05237454 0.00111576
v 0.01346062 0.05232270 0.00151638
v 0.01348748 0.05232270 0.00136623
v 0.01351386 0.05232270 0.00121608
v 0.01352969 0.05271797 0.00071055
v 0.01352009 0.05341130 -0.00028479
v 0.01352993 0.05331735 -0.00013463
v 0.01353304 0.05333678 -0.00028479
v 0.01353520 0.05322663 0.00000372
v 0.01354599 0.05322339 -0.00013463
v 0.01352921 0.05286376 0.00055711
v 0.01355702 0.05307435 0.00001552
v 0.01353544 0.05276980 0.00061088
v 0.01355223 0.05277304 0.00046597
v 0.01355391 0.05262401 0.00061547
v 0.01357069 0.05262401 0.00046597
v 0.01358580 0.05262401 0.00031582
v 0.01358268 0.05277304 0.00016567
v 0.01356470 0.05292208 0.00016567
v 0.01346854 0.05367373 -0.00043428
v 0.01349971 0.05352470 -0.00043428
v 0.01352033 0.05341454 -0.00043428
v 0.01343401 0.05382277 -0.00043428
v 0.01339827 0.05397180 -0.00043428
v 0.01337837 0.05405280 -0.00043428
v 0.01335487 0.05413056 -0.00043428
v 0.01330835 0.05427311 -0.00043428
v 0.01322945 0.05451286 -0.00058443
v 0.01308318 0.05304195 0.00266449
v 0.01307526 0.05313915 0.00263695
v 0.01318821 0.05277304 0.00241664
v 0.01323161 0.05258189 0.00236025
v 0.01337933 0.05211859 0.00205077
v 0.01346710 0.05187236 0.00181603
v 0.01344767 0.05202139 0.00181603
v 0.01337669 0.05254949 0.00174259
v 0.01350043 0.05187236 0.00166588
v 0.01347933 0.05202139 0.00166588
v 0.01352633 0.05179460 0.00158916
v 0.01351026 0.05201491 0.00150655
v 0.01348532 0.05217367 0.00151638
v 0.01302203 0.05451286 -0.00337831
v 0.01303330 0.05451286 -0.00328848
v 0.01304433 0.05451286 -0.00319931
v 0.01305224 0.05451286 -0.00313505
v 0.01306159 0.05451286 -0.00305834
v 0.01322945 0.05405928 -0.00278426
v 0.01332945 0.05382277 -0.00253444
v 0.01334528 0.05382277 -0.00238429
v 0.01337166 0.05372881 -0.00238429
v 0.01339108 0.05365429 -0.00238429
v 0.01343712 0.05352470 -0.00223480
v 0.01342345 0.05352470 -0.00238429
v 0.01337549 0.05374501 -0.00229643
v 0.01351026 0.05321367 -0.00223152
v 0.01349372 0.05322339 -0.00238429
v 0.01343784 0.05307435 -0.00298490
v 0.01345463 0.05277304 -0.00313505
v 0.01342753 0.05277304 -0.00328521
v 0.01340595 0.05292208 -0.00328521
v 0.01338341 0.05274713 -0.00354748
v 0.01342130 0.05262401 -0.00343470
v 0.01338125 0.05258189 -0.00368648
v 0.01337214 0.05251385 -0.00378680
v 0.01337094 0.05232270 -0.00392909
v 0.01336782 0.05218339 -0.00403400
v 0.01352849 0.05315535 -0.00217972
v 0.01352369 0.05312619 -0.00228004
v 0.01351985 0.05307435 -0.00239347
v 0.01352561 0.05299012 -0.00244921
v 0.01352729 0.05285404 -0.00261378
v 0.01351122 0.05291236 -0.00267214
v 0.01350427 0.05277304 -0.00283475
v 0.01348460 0.05292208 -0.00283475
v 0.01348029 0.05277304 -0.00298490
v 0.01345942 0.05292208 -0.00298490
v 0.01356182 0.05082263 -0.00328521
v 0.01401792 0.02921908 -0.00298490
v 0.01402344 0.02891777 -0.00298490
v 0.01397859 0.03101722 -0.00308391
v 0.01397740 0.03113061 -0.00306948
v 0.01397644 0.03123105 -0.00305440
v 0.01397236 0.03117597 -0.00312587
v 0.01355415 0.05112070 -0.00328521
v 0.01357069 0.05127298 -0.00313505
v 0.01358124 0.05142201 -0.00298490
v 0.01359251 0.05142201 -0.00283475
v 0.01359587 0.05127298 -0.00283475
v 0.01359899 0.05112070 -0.00283475
v 0.01360091 0.05052132 -0.00298490
v 0.01364527 0.04827284 -0.00298490
v 0.01374886 0.04302099 -0.00298490
v 0.01384934 0.03792141 -0.00298490
v 0.01414118 0.02141420 -0.00293507
v 0.01405797 0.02771901 -0.00268460
v 0.01418027 0.02141420 -0.00208530
v 0.01417355 0.02141420 -0.00223545
v 0.01416732 0.02141420 -0.00237446
v 0.01347142 0.04931933 -0.00403400
v 0.01349516 0.04947160 -0.00388516
v 0.01348772 0.04977291 -0.00388516
v 0.01345271 0.05007098 -0.00403400
v 0.01352561 0.04995758 -0.00365370
v 0.01353472 0.05022326 -0.00355863
v 0.01346470 0.05067360 -0.00388516
v 0.01346086 0.05082263 -0.00388516
v 0.01348460 0.05097167 -0.00373501
v 0.01354671 0.05052132 -0.00343470
v 0.01361362 0.05172332 0.00061547
v 0.01360882 0.05172332 0.00076562
v 0.01420737 0.02141420 0.00061547
v 0.01360331 0.05172332 0.00091577
v 0.01360450 0.05187236 0.00076562
v 0.01359755 0.05187236 0.00091577
v 0.01358748 0.05187236 0.00106593
v 0.01357117 0.05187236 0.00121608
v 0.01355031 0.05187236 0.00136623
v 0.01351698 0.05173628 0.00166457
v 0.01342849 0.05187236 0.00196618
v 0.01339803 0.05173628 0.00213011
v 0.01336183 0.05157105 0.00229534
v 0.01336638 0.05142201 0.00230845
v 0.01338940 0.05142201 0.00223305
v 0.01330979 0.05172332 0.00241664
v 0.01337597 0.05179460 0.00218977
v 0.01334384 0.05187236 0.00226649
v 0.01323425 0.05217367 0.00251565
v 0.01329612 0.05187236 0.00241664
v 0.01339300 0.05127298 0.00224354
v 0.01336950 0.05127298 0.00231894
v 0.01337478 0.05097167 0.00233599
v 0.01333665 0.05127298 0.00241664
v 0.01327574 0.05057316 0.00266449
v 0.01353017 0.05256893 0.00086332
v 0.01353088 0.05227410 0.00116625
v 0.01352225 0.05221902 0.00126657
v 0.01353616 0.05262077 0.00076300
v 0.01353760 0.05232270 0.00106593
v 0.01355391 0.05322339 -0.00043428
v 0.01355271 0.05322339 -0.00028479
v 0.01356757 0.05307435 -0.00013463
v 0.01355510 0.05247174 0.00076562
v 0.01357189 0.05247174 0.00061547
v 0.01357261 0.05232270 0.00076562
v 0.01358748 0.05232270 0.00061547
v 0.01358676 0.05247174 0.00046597
v 0.01359755 0.05247174 0.00031582
v 0.01359635 0.05262401 0.00016567
v 0.01359156 0.05277304 0.00001552
v 0.01346566 0.05367373 -0.00058443
v 0.01349755 0.05352470 -0.00058443
v 0.01351938 0.05341130 -0.00058443
v 0.01355367 0.05322339 -0.00058443
v 0.01355271 0.05322339 -0.00073393
v 0.01343065 0.05382277 -0.00058443
v 0.01337573 0.05404632 -0.00062902
v 0.01322322 0.05451286 -0.00095096
v 0.01322874 0.05451286 -0.00073393
v 0.01310068 0.05292208 0.00266449
v 0.01314864 0.05277304 0.00256679
v 0.01329228 0.05232270 0.00226649
v 0.01335679 0.05217043 0.00210716
v 0.01338461 0.05202139 0.00206978
v 0.01331003 0.05217367 0.00226649
v 0.01336302 0.05202139 0.00214519
v 0.01353304 0.05187236 0.00148360
v 0.01353472 0.05201491 0.00136230
v 0.01352801 0.05195983 0.00144950
v 0.01352105 0.05206027 0.00141016
v 0.01352993 0.05211859 0.00131050
v 0.01351290 0.05217043 0.00136230
v 0.01307598 0.05451286 -0.00293376
v 0.01324432 0.05410788 -0.00253444
v 0.01323569 0.05407872 -0.00268460
v 0.01330116 0.05397180 -0.00238429
v 0.01326974 0.05412408 -0.00223480
v 0.01331458 0.05397180 -0.00223480
v 0.01339540 0.05368669 -0.00224135
v 0.01340979 0.05367373 -0.00208464
v 0.01344767 0.05352470 -0.00208464
v 0.01336015 0.05381305 -0.00224135
v 0.01337933 0.05375797 -0.00219611
v 0.01347405 0.05262401 -0.00313505
v 0.01344815 0.05262401 -0.00328521
v 0.01338748 0.05246850 -0.00373632
v 0.01337597 0.05224170 -0.00395728
v 0.01338101 0.05214127 -0.00398744
v 0.01338341 0.05202139 -0.00403400
v 0.01351362 0.05324283 -0.00208464
v 0.01353088 0.05316831 -0.00208464
v 0.01354455 0.05307435 -0.00208464
v 0.01355295 0.05292208 -0.00223480
v 0.01353472 0.05307435 -0.00223152
v 0.01353784 0.05293180 -0.00239347
v 0.01354479 0.05277304 -0.00253444
v 0.01353113 0.05288320 -0.00253444
v 0.01353232 0.05277304 -0.00264853
v 0.01352633 0.05269529 -0.00275738
v 0.01349851 0.05262401 -0.00298490
v 0.01354288 0.05067360 -0.00343470
v 0.01404718 0.02831839 -0.00268460
v 0.01403543 0.02861646 -0.00283475
v 0.01397572 0.03131853 -0.00303342
v 0.01400066 0.03011977 -0.00298490
v 0.01397764 0.03143516 -0.00293048
v 0.01382752 0.03923680 -0.00292261
v 0.01382656 0.03933724 -0.00290622
v 0.01370474 0.04617016 -0.00268460
v 0.01352321 0.05112070 -0.00348781
v 0.01354959 0.05127298 -0.00328521
v 0.01356518 0.05142201 -0.00313505
v 0.01357549 0.05157105 -0.00298490
v 0.01358244 0.05172332 -0.00283475
v 0.01358820 0.05157105 -0.00283475
v 0.01359923 0.05157105 -0.00268460
v 0.01360259 0.05142201 -0.00268460
v 0.01360786 0.05067360 -0.00283475
v 0.01368028 0.04707085 -0.00281377
v 0.01382872 0.03911693 -0.00294031
v 0.01405269 0.02801708 -0.00268460
v 0.01405221 0.02831839 -0.00253444
v 0.01405749 0.02801708 -0.00253444
v 0.01418554 0.02141420 -0.00193515
v 0.01346398 0.04962064 -0.00403400
v 0.01344887 0.05022002 -0.00403400
v 0.01353280 0.05037229 -0.00354748
v 0.01350714 0.05112070 -0.00358485
v 0.01342945 0.05097167 -0.00403400
v 0.01345295 0.05112070 -0.00388516
v 0.01348053 0.05112070 -0.00373501
v 0.01352897 0.05067360 -0.00352387
v 0.01352753 0.05078375 -0.00351535
v 0.01361482 0.05187236 0.00046597
v 0.01361002 0.05187236 0.00061547
v 0.01421024 0.02141420 0.00046532
v 0.01362345 0.05217367 -0.00013463
v 0.01362033 0.05217367 0.00001552
v 0.01361985 0.05202139 0.00016567
v 0.01361602 0.05202139 0.00031582
v 0.01361098 0.05202139 0.00046597
v 0.01361170 0.05217367 0.00031582
v 0.01360522 0.05202139 0.00061547
v 0.01360570 0.05217367 0.00046597
v 0.01359803 0.05202139 0.00076562
v 0.01359827 0.05217367 0.00061547
v 0.01358772 0.05202139 0.00091577
v 0.01358772 0.05217367 0.00076562
v 0.01357309 0.05217367 0.00091577
v 0.01357309 0.05202139 0.00106593
v 0.01355654 0.05217367 0.00106593
v 0.01355487 0.05202139 0.00121608
v 0.01339252 0.05187236 0.00209929
v 0.01332178 0.05157105 0.00241664
v 0.01333041 0.05142201 0.00241664
v 0.01321411 0.05185940 0.00266449
v 0.01322658 0.05180108 0.00264220
v 0.01325871 0.05172332 0.00256679
v 0.01318653 0.05217367 0.00266449
v 0.01320044 0.05202139 0.00266449
v 0.01322898 0.05227086 0.00249926
v 0.01315608 0.05247174 0.00266449
v 0.01317166 0.05232270 0.00266449
v 0.01327717 0.05142201 0.00256679
v 0.01326423 0.05087771 0.00266449
v 0.01353712 0.05217043 0.00121608
v 0.01357357 0.05307435 -0.00028479
v 0.01357453 0.05307435 -0.00043428
v 0.01357477 0.05307435 -0.00058443
v 0.01358412 0.05292208 -0.00013463
v 0.01359803 0.05232270 0.00046597
v 0.01360546 0.05247174 0.00016567
v 0.01360402 0.05262401 0.00001552
v 0.01359923 0.05277304 -0.00013463
v 0.01346230 0.05367373 -0.00073393
v 0.01349467 0.05352470 -0.00073393
v 0.01349132 0.05352470 -0.00088408
v 0.01353280 0.05333030 -0.00073393
v 0.01354623 0.05322339 -0.00118439
v 0.01353041 0.05331735 -0.00103424
v 0.01352897 0.05331087 -0.00118439
v 0.01357429 0.05307435 -0.00073393
v 0.01357285 0.05307435 -0.00088408
v 0.01355079 0.05322339 -0.00088408
v 0.01342681 0.05382277 -0.00073393
v 0.01339036 0.05395236 -0.00088408
v 0.01337094 0.05402688 -0.00088408
v 0.01334312 0.05412408 -0.00088408
v 0.01321459 0.05451286 -0.00122570
v 0.01321603 0.05451286 -0.00118439
v 0.01321914 0.05451286 -0.00108931
v 0.01322034 0.05451286 -0.00105259
v 0.01342226 0.05382277 -0.00088408
v 0.01312010 0.05278276 0.00266449
v 0.01316831 0.05262401 0.00256679
v 0.01313929 0.05262401 0.00266449
v 0.01310332 0.05451286 -0.00268460
v 0.01311963 0.05451286 -0.00253576
v 0.01313617 0.05451286 -0.00238429
v 0.01323113 0.05421479 -0.00235348
v 0.01324288 0.05425367 -0.00208464
v 0.01328125 0.05412408 -0.00208464
v 0.01321387 0.05430875 -0.00223480
v 0.01316519 0.05451286 -0.00208464
v 0.01317742 0.05451286 -0.00193318
v 0.01336206 0.05384545 -0.00208464
v 0.01338317 0.05377093 -0.00208464
v 0.01338748 0.05378713 -0.00193449
v 0.01341770 0.05367373 -0.00193449
v 0.01345511 0.05352470 -0.00193449
v 0.01346566 0.05247174 -0.00328521
v 0.01344000 0.05247174 -0.00343470
v 0.01341386 0.05247174 -0.00358485
v 0.01343113 0.05232270 -0.00358485
v 0.01342058 0.05217367 -0.00373501
v 0.01344576 0.05217367 -0.00358485
v 0.01343353 0.05202139 -0.00373501
v 0.01344528 0.05187236 -0.00373501
v 0.01338844 0.05195659 -0.00403400
v 0.01353712 0.05319423 -0.00178434
v 0.01355654 0.05307435 -0.00178434
v 0.01355079 0.05307435 -0.00193449
v 0.01346182 0.05352470 -0.00178434
v 0.01346806 0.05352470 -0.00163419
v 0.01356254 0.05292208 -0.00208464
v 0.01357045 0.05277304 -0.00223480
v 0.01355774 0.05277304 -0.00238429
v 0.01355990 0.05262401 -0.00253444
v 0.01354024 0.05263697 -0.00269837
v 0.01353160 0.05259485 -0.00279147
v 0.01351985 0.05263697 -0.00283868
v 0.01352369 0.05252033 -0.00289179
v 0.01351506 0.05247174 -0.00297769
v 0.01349012 0.05247174 -0.00313505
v 0.01352513 0.05097167 -0.00350027
v 0.01404382 0.02876874 -0.00253444
v 0.01404670 0.02861646 -0.00253444
v 0.01397884 0.03161983 -0.00281180
v 0.01401265 0.03011977 -0.00268460
v 0.01397668 0.03214470 -0.00260919
v 0.01385989 0.03777238 -0.00283475
v 0.01371050 0.04587209 -0.00268460
v 0.01382680 0.03964827 -0.00276262
v 0.01367645 0.04744019 -0.00275803
v 0.01367573 0.04752119 -0.00274099
v 0.01365223 0.04887222 -0.00268460
v 0.01367692 0.04776418 -0.00261641
v 0.01350235 0.05127298 -0.00358485
v 0.01352057 0.05127298 -0.00347208
v 0.01353232 0.05127298 -0.00339733
v 0.01354383 0.05142201 -0.00328521
v 0.01355918 0.05157105 -0.00313505
v 0.01356925 0.05172332 -0.00298490
v 0.01357621 0.05187236 -0.00283475
v 0.01358916 0.05187236 -0.00268460
v 0.01359467 0.05172332 -0.00268460
v 0.01359851 0.05187236 -0.00253444
v 0.01360283 0.05172332 -0.00253444
v 0.01360618 0.05157105 -0.00253444
v 0.01404262 0.02906681 -0.00238429
v 0.01404526 0.02891777 -0.00238429
v 0.01419298 0.02141420 -0.00163484
v 0.01418938 0.02141420 -0.00178500
v 0.01347621 0.05127298 -0.00373501
v 0.01342130 0.05126974 -0.00403400
v 0.01344863 0.05127298 -0.00388516
v 0.01421216 0.02141420 0.00031517
v 0.01362537 0.05217367 -0.00028479
v 0.01361937 0.05247174 -0.00028479
v 0.01362033 0.05232270 -0.00013463
v 0.01361697 0.05232270 0.00001552
v 0.01361673 0.05217367 0.00016567
v 0.01361194 0.05232270 0.00016567
v 0.01360570 0.05232270 0.00031582
v 0.01326950 0.05157105 0.00256679
v 0.01321723 0.05182052 0.00266449
v 0.01322466 0.05172332 0.00266449
v 0.01322969 0.05172332 0.00265006
v 0.01323425 0.05157105 0.00266449
v 0.01324073 0.05142201 0.00266449
v 0.01358892 0.05292208 -0.00028479
v 0.01360450 0.05277304 -0.00043428
v 0.01358988 0.05292208 -0.00058443
v 0.01361194 0.05247174 0.00001552
v 0.01361074 0.05262401 -0.00013463
v 0.01360355 0.05277304 -0.00028479
v 0.01345799 0.05367373 -0.00088408
v 0.01348748 0.05352470 -0.00103424
v 0.01352657 0.05329791 -0.00141125
v 0.01354863 0.05322339 -0.00103424
v 0.01354335 0.05322339 -0.00133454
v 0.01356662 0.05307435 -0.00133454
v 0.01356398 0.05307435 -0.00148404
v 0.01358940 0.05292208 -0.00073393
v 0.01358796 0.05292208 -0.00088408
v 0.01358436 0.05292208 -0.00118439
v 0.01356901 0.05307435 -0.00118439
v 0.01338772 0.05393940 -0.00103424
v 0.01344312 0.05367373 -0.00133454
v 0.01343760 0.05367373 -0.00148404
v 0.01343185 0.05367373 -0.00163419
v 0.01340571 0.05382277 -0.00133454
v 0.01338125 0.05391672 -0.00133454
v 0.01337430 0.05389081 -0.00165976
v 0.01336398 0.05400420 -0.00118439
v 0.01333665 0.05412408 -0.00103424
v 0.01321027 0.05451286 -0.00133454
v 0.01345319 0.05367373 -0.00103424
v 0.01315176 0.05451286 -0.00223480
v 0.01329156 0.05412408 -0.00193449
v 0.01320715 0.05441243 -0.00193187
v 0.01318797 0.05451286 -0.00178434
v 0.01330092 0.05412408 -0.00178434
v 0.01336662 0.05386165 -0.00193449
v 0.01339108 0.05380333 -0.00178434
v 0.01337094 0.05387784 -0.00178434
v 0.01342513 0.05367373 -0.00178434
v 0.01348077 0.05232270 -0.00328521
v 0.01345631 0.05232270 -0.00343470
v 0.01347045 0.05217367 -0.00343470
v 0.01345847 0.05202139 -0.00358485
v 0.01339468 0.05187236 -0.00403400
v 0.01347022 0.05187236 -0.00358485
v 0.01348101 0.05172332 -0.00358485
v 0.01345583 0.05172332 -0.00373501
v 0.01352297 0.05328171 -0.00163419
v 0.01353952 0.05320719 -0.00163419
v 0.01356086 0.05307435 -0.00163419
v 0.01357333 0.05292208 -0.00178434
v 0.01356829 0.05292208 -0.00193449
v 0.01347813 0.05352470 -0.00133454
v 0.01351122 0.05335946 -0.00147027
v 0.01357956 0.05277304 -0.00208464
v 0.01358412 0.05262401 -0.00223480
v 0.01357237 0.05262401 -0.00238429
v 0.01357045 0.05247174 -0.00253444
v 0.01355582 0.05247174 -0.00268460
v 0.01353616 0.05247174 -0.00283868
v 0.01352873 0.05241990 -0.00292327
v 0.01352177 0.05232270 -0.00302883
v 0.01350499 0.05232270 -0.00313505
v 0.01403974 0.02921908 -0.00238429
v 0.01401792 0.03011977 -0.00253444
v 0.01397644 0.03242333 -0.00244724
v 0.01397548 0.03252052 -0.00241773
v 0.01402703 0.03011977 -0.00223480
v 0.01397500 0.03208314 -0.00268460
v 0.01382872 0.03970659 -0.00268656
v 0.01382680 0.03995282 -0.00261378
v 0.01397979 0.03208314 -0.00254953
v 0.01361194 0.05127298 -0.00253444
v 0.01367525 0.04798125 -0.00253576
v 0.01369563 0.04692181 -0.00253444
v 0.01371577 0.04587209 -0.00253444
v 0.01387116 0.03777238 -0.00253444
v 0.01347045 0.05142201 -0.00373501
v 0.01349611 0.05142201 -0.00358485
v 0.01351746 0.05142201 -0.00345306
v 0.01352945 0.05142201 -0.00337766
v 0.01353616 0.05156781 -0.00329438
v 0.01355199 0.05172332 -0.00313505
v 0.01356134 0.05187236 -0.00298490
v 0.01356853 0.05202139 -0.00283475
v 0.01357501 0.05217367 -0.00268460
v 0.01358268 0.05202139 -0.00268460
v 0.01358724 0.05217367 -0.00253444
v 0.01359347 0.05202139 -0.00253444
v 0.01359563 0.05217367 -0.00238429
v 0.01359731 0.05232270 -0.00223480
v 0.01360019 0.05202139 -0.00238429
v 0.01360139 0.05217367 -0.00223480
v 0.01360402 0.05187236 -0.00238429
v 0.01360714 0.05172332 -0.00238429
v 0.01403279 0.02981846 -0.00223480
v 0.01403543 0.02966942 -0.00223480
v 0.01404070 0.02936811 -0.00223480
v 0.01419585 0.02141420 -0.00148469
v 0.01341650 0.05142201 -0.00403400
v 0.01341122 0.05157105 -0.00403400
v 0.01421336 0.02141420 0.00016501
v 0.01362273 0.05232270 -0.00043428
v 0.01421360 0.02141420 0.00001486
v 0.01361961 0.05247174 -0.00043428
v 0.01361506 0.05262401 -0.00043428
v 0.01361434 0.05262401 -0.00028479
v 0.01361697 0.05247174 -0.00013463
v 0.01360450 0.05277304 -0.00058443
v 0.01348317 0.05352470 -0.00118439
v 0.01351098 0.05337890 -0.00133454
v 0.01353832 0.05323311 -0.00147027
v 0.01352489 0.05329143 -0.00151157
v 0.01358220 0.05292208 -0.00133454
v 0.01357981 0.05292208 -0.00148404
v 0.01359251 0.05277304 -0.00163419
v 0.01357693 0.05292208 -0.00163419
v 0.01360402 0.05277304 -0.00073393
v 0.01360259 0.05277304 -0.00088408
v 0.01359899 0.05277304 -0.00118439
v 0.01359707 0.05277304 -0.00133454
v 0.01339947 0.05382277 -0.00148404
v 0.01330907 0.05412408 -0.00163419
v 0.01335703 0.05395884 -0.00161976
v 0.01332993 0.05412408 -0.00118439
v 0.01320356 0.05451286 -0.00148404
v 0.01319636 0.05451286 -0.00163419
v 0.01321339 0.05445454 -0.00163419
v 0.01349492 0.05217367 -0.00328521
v 0.01348292 0.05202139 -0.00343470
v 0.01343017 0.05172332 -0.00388516
v 0.01340451 0.05172008 -0.00403400
v 0.01349467 0.05187236 -0.00343470
v 0.01350547 0.05172332 -0.00343470
v 0.01352513 0.05161641 -0.00335077
v 0.01348940 0.05157105 -0.00358485
v 0.01346398 0.05157105 -0.00373501
v 0.01358892 0.05277304 -0.00178434
v 0.01358460 0.05277304 -0.00193449
v 0.01359203 0.05262401 -0.00208464
v 0.01359203 0.05247174 -0.00223480
v 0.01358268 0.05247174 -0.00238429
v 0.01357956 0.05232270 -0.00253444
v 0.01356590 0.05232270 -0.00268460
v 0.01355894 0.05217367 -0.00283475
v 0.01354839 0.05232270 -0.00283475
v 0.01353808 0.05218339 -0.00299670
v 0.01352585 0.05223846 -0.00305440
v 0.01396325 0.03297087 -0.00253444
v 0.01387572 0.03777238 -0.00238429
v 0.01397236 0.03297087 -0.00223480
v 0.01397740 0.03277971 -0.00218300
v 0.01397644 0.03288015 -0.00214234
v 0.01364863 0.04977291 -0.00223480
v 0.01388004 0.03777238 -0.00223480
v 0.01343784 0.05157105 -0.00388516
v 0.01351578 0.05156781 -0.00342290
v 0.01352729 0.05151597 -0.00336520
v 0.01353400 0.05172332 -0.00325635
v 0.01352993 0.05183996 -0.00323078
v 0.01353928 0.05188208 -0.00314817
v 0.01355151 0.05202139 -0.00298490
v 0.01358988 0.05232270 -0.00238429
v 0.01359803 0.05247174 -0.00208464
v 0.01360187 0.05232270 -0.00208464
v 0.01360546 0.05217367 -0.00208464
v 0.01360498 0.05202139 -0.00223480
v 0.01360810 0.05187236 -0.00223480
v 0.01361098 0.05172332 -0.00223480
v 0.01399874 0.03176887 -0.00208464
v 0.01400713 0.03131853 -0.00208464
v 0.01401816 0.03071915 -0.00208464
v 0.01421000 0.02141420 -0.00043494
v 0.01420809 0.02141420 -0.00058509
v 0.01420209 0.02141420 -0.00103489
v 0.01419801 0.02141420 -0.00133454
v 0.01362249 0.05232270 -0.00058443
v 0.01361961 0.05247174 -0.00058443
v 0.01421264 0.02141420 -0.00013529
v 0.01363040 0.05187236 -0.00073393
v 0.01361506 0.05262401 -0.00058443
v 0.01359491 0.05277304 -0.00148404
v 0.01360331 0.05262401 -0.00163419
v 0.01360019 0.05262401 -0.00178434
v 0.01361458 0.05262401 -0.00073393
v 0.01361314 0.05262401 -0.00088408
v 0.01360738 0.05262401 -0.00133454
v 0.01360546 0.05262401 -0.00148404
v 0.01331626 0.05412408 -0.00148404
v 0.01351842 0.05218339 -0.00313243
v 0.01352297 0.05202139 -0.00318620
v 0.01350714 0.05202139 -0.00328521
v 0.01351842 0.05188208 -0.00328258
v 0.01359635 0.05262401 -0.00193449
v 0.01353424 0.05202139 -0.00311079
v 0.01352969 0.05213803 -0.00308129
v 0.01398435 0.03252052 -0.00208464
v 0.01399298 0.03207018 -0.00208464
v 0.01367716 0.04837004 -0.00217710
v 0.01367620 0.04847048 -0.00213316
v 0.01388339 0.03777238 -0.00208464
v 0.01394694 0.03447093 -0.00208464
v 0.01352609 0.05194039 -0.00320652
v 0.01360187 0.05247174 -0.00193449
v 0.01360858 0.05217367 -0.00193449
v 0.01360858 0.05202139 -0.00208464
v 0.01360546 0.05247174 -0.00178434
v 0.01395485 0.03416962 -0.00193449
v 0.01421168 0.02141420 -0.00028479
v 0.01362465 0.05217367 -0.00073393
v 0.01361889 0.05247174 -0.00073393
v 0.01364911 0.05082263 -0.00088408
v 0.01360810 0.05247174 -0.00163419
v 0.01361745 0.05247174 -0.00088408
v 0.01361577 0.05247174 -0.00103424
v 0.01361194 0.05247174 -0.00133454
v 0.01393183 0.03537162 -0.00193449
v 0.01382776 0.04091831 -0.00177516
v 0.01394910 0.03447093 -0.00193449
v 0.01364047 0.05037229 -0.00208464
v 0.01364335 0.05022326 -0.00208464
v 0.01364623 0.05022326 -0.00193449
v 0.01373879 0.04542174 -0.00193449
v 0.01380234 0.04212030 -0.00193449
v 0.01368652 0.04827284 -0.00178434
v 0.01388579 0.03777238 -0.00193449
v 0.01360858 0.05232270 -0.00178434
v 0.01361146 0.05217367 -0.00178434
v 0.01385246 0.03971955 -0.00163419
v 0.01381697 0.04166996 -0.00148404
v 0.01391361 0.03642134 -0.00178434
v 0.01362321 0.05217367 -0.00088408
v 0.01364743 0.05082263 -0.00103424
v 0.01361386 0.05217367 -0.00163419
v 0.01362153 0.05217367 -0.00103424
v 0.01361769 0.05217367 -0.00133454
v 0.01364263 0.05067360 -0.00163419
v 0.01367477 0.04900830 -0.00162042
v 0.01373472 0.04587209 -0.00163419
v 0.01373663 0.04587209 -0.00148404
v 0.01387644 0.03836852 -0.00178434
v 0.01370978 0.04737216 -0.00133454
v 0.01367764 0.04914761 -0.00118439
v 0.01364839 0.05067360 -0.00118439
v 0.01369251 0.04827284 -0.00133454
f 1 2 6
f 1 6 13
f 1 13 12
f 1 12 27
f 1 27 26
f 1 26 25
f 1 25 41
f 1 41 40
f 1 40 62
f 1 62 66
f 1 66 84
f 1 84 125
f 1 125 123
f 1 123 122
f 1 122 178
f 1 178 259
f 1 259 258
f 1 258 370
f 1 370 369
f 1 369 368
f 1 368 367
f 1 367 366
f 1 366 502
f 1 502 632
f 1 632 631
f 1 631 765
f 1 765 764
f 1 764 763
f 1 763 762
f 1 762 880
f 1 880 977
f 1 977 978
f 1 978 885
f 1 885 778
f 1 778 777
f 1 777 882
f 1 882 772
f 1 772 771
f 1 771 770
f 1 770 646
f 1 646 520
f 1 520 519
f 1 519 518
f 1 518 517
f 1 517 516
f 1 516 389
f 1 389 273
f 1 273 186
f 1 186 130
f 1 130 90
f 1 90 71
f 1 71 47
f 1 47 31
f 1 31 15
f 1 15 8
f 1 8 3
f 1 3 9
f 1 9 19
f 1 19 18
f 1 18 17
f 1 17 34
f 1 34 54
f 1 54 53
f 1 53 52
f 1 52 51
f 1 51 76
f 1 76 107
f 1 107 158
f 1 158 239
f 1 239 335
f 1 335 471
f 1 471 607
f 1 607 738
f 1 738 853
f 1 853 852
f 1 852 850
f 1 850 849
f 1 849 729
f 1 729 733
f 1 733 732
f 1 732 736
f 1 736 735
f 1 735 769
f 1 769 767
f 1 767 633
f 1 633 503
f 1 503 371
f 1 371 260
f 1 260 179
f 1 179 126
f 1 126 86
f 1 86 68
f 1 68 55
f 1 55 35
f 1 35 20
f 1 20 10
f 1 10 4
f 1 4 2
f 2 5 6
f 2 4 7
f 2 7 5
f 3 8 9
f 4 10 7
f 5 11 12
f 5 12 13
f 5 13 6
f 5 7 14
f 5 14 11
f 7 10 14
f 8 15 32
f 8 32 48
f 8 48 74
f 8 74 93
f 8 93 138
f 8 138 205
f 8 205 287
f 8 287 405
f 8 405 404
f 8 404 291
f 8 291 411
f 8 411 540
f 8 540 662
f 8 662 792
f 8 792 895
f 8 895 983
f 8 983 952
f 8 952 951
f 8 951 838
f 8 838 702
f 8 702 699
f 8 699 576
f 8 576 698
f 8 698 573
f 8 573 442
f 8 442 446
f 8 446 445
f 8 445 441
f 8 441 440
f 8 440 439
f 8 439 438
f 8 438 318
f 8 318 227
f 8 227 226
f 8 226 225
f 8 225 220
f 8 220 147
f 8 147 146
f 8 146 99
f 8 99 75
f 8 75 49
f 8 49 33
f 8 33 16
f 8 16 17
f 8 17 18
f 8 18 19
f 8 19 9
f 10 20 14
f 11 14 21
f 11 21 22
f 11 22 23
f 11 23 24
f 11 24 25
f 11 25 26
f 11 26 27
f 11 27 12
f 14 20 28
f 14 28 29
f 14 29 30
f 14 30 21
f 15 31 32
f 16 33 34
f 16 34 17
f 20 35 28
f 21 30 36
f 21 36 37
f 21 37 38
f 21 38 22
f 22 39 40
f 22 40 41
f 22 41 24
f 22 24 23
f 22 38 42
f 22 42 39
f 24 41 25
f 28 35 43
f 28 43 44
f 28 44 29
f 29 44 30
f 30 44 45
f 30 45 46
f 30 46 37
f 30 37 36
f 31 47 32
f 32 47 48
f 33 49 50
f 33 50 51
f 33 51 52
f 33 52 53
f 33 53 54
f 33 54 34
f 35 55 43
f 37 45 44
f 37 44 56
f 37 56 57
f 37 57 58
f 37 58 59
f 37 59 42
f 37 42 38
f 37 46 45
f 39 60 40
f 39 42 60
f 40 60 61
f 40 61 62
f 42 63 60
f 42 59 64
f 42 64 65
f 42 65 66
f 42 66 61
f 42 61 67
f 42 67 63
f 43 55 68
f 43 68 69
f 43 69 44
f 44 69 70
f 44 70 56
f 47 71 72
f 47 72 73
f 47 73 48
f 48 73 74
f 49 75 98
f 49 98 145
f 49 145 218
f 49 218 311
f 49 311 432
f 49 432 568
f 49 568 572
f 49 572 571
f 49 571 570
f 49 570 697
f 49 697 836
f 49 836 835
f 49 835 950
f 49 950 1027
f 49 1027 1026
f 49 1026 1025
f 49 1025 1024
f 49 1024 1060
f 49 1060 1030
f 49 1030 955
f 49 955 953
f 49 953 840
f 49 840 709
f 49 709 585
f 49 585 451
f 49 451 322
f 49 322 232
f 49 232 229
f 49 229 153
f 49 153 105
f 49 105 76
f 49 76 51
f 49 51 50
f 56 70 57
f 57 70 77
f 57 77 78
f 57 78 79
f 57 79 80
f 57 80 58
f 58 80 59
f 59 80 64
f 60 63 67
f 60 67 61
f 61 66 62
f 64 81 82
f 64 82 83
f 64 83 65
f 64 80 81
f 65 83 84
f 65 84 66
f 68 85 70
f 68 70 69
f 68 86 87
f 68 87 85
f 70 87 88
f 70 88 89
f 70 89 77
f 70 85 87
f 71 90 72
f 72 91 73
f 72 90 91
f 73 91 92
f 73 92 74
f 74 92 93
f 75 94 95
f 75 95 96
f 75 96 97
f 75 97 98
f 75 99 100
f 75 100 101
f 75 101 102
f 75 102 103
f 75 103 104
f 75 104 94
f 76 105 106
f 76 106 107
f 77 89 78
f 78 89 88
f 78 88 108
f 78 108 109
f 78 109 110
f 78 110 79
f 79 110 111
f 79 111 112
f 79 112 80
f 80 112 113
f 80 113 114
f 80 114 115
f 80 115 81
f 81 115 116
f 81 116 117
f 81 117 118
f 81 118 119
f 81 119 82
f 82 119 120
f 82 120 83
f 83 120 121
f 83 121 122
f 83 122 123
f 83 123 124
f 83 124 125
f 83 125 84
f 86 126 87
f 87 126 127
f 87 127 128
f 87 128 129
f 87 129 88
f 88 129 108
f 90 130 131
f 90 131 91
f 91 131 132
f 91 132 133
f 91 133 92
f 92 134 93
f 92 133 135
f 92 135 136
f 92 136 137
f 92 137 134
f 93 134 138
f 94 104 139
f 94 139 140
f 94 140 141
f 94 141 95
f 95 141 96
f 96 142 97
f 96 141 143
f 96 143 144
f 96 144 142
f 97 142 98
f 98 142 145
f 99 146 100
f 100 146 147
f 100 147 148
f 100 148 149
f 100 149 150
f 100 150 101
f 101 150 102
f 102 150 103
f 103 150 151
f 103 151 152
f 103 152 104
f 104 152 151
f 104 151 139
f 105 153 106
f 106 154 155
f 106 155 156
f 106 156 157
f 106 157 107
f 106 153 154
f 107 157 158
f 108 110 159
f 108 159 109
f 108 129 110
f 109 159 110
f 110 129 160
f 110 160 111
f 111 160 112
f 112 160 161
f 112 161 113
f 113 161 242
f 113 242 162
f 113 162 163
f 113 163 164
f 113 164 165
f 113 165 166
f 113 166 114
f 114 167 116
f 114 116 115
f 114 166 168
f 114 168 167
f 116 167 117
f 117 167 169
f 117 169 118
f 118 169 170
f 118 170 171
f 118 171 172
f 118 172 119
f 119 172 120
f 120 172 173
f 120 173 174
f 120 174 175
f 120 175 176
f 120 176 121
f 121 176 177
f 121 177 122
f 122 177 178
f 123 125 124
f 126 179 127
f 127 179 180
f 127 180 181
f 127 181 182
f 127 182 128
f 128 182 183
f 128 183 129
f 129 183 184
f 129 184 185
f 129 185 160
f 130 186 187
f 130 187 131
f 131 188 189
f 131 189 132
f 131 187 188
f 132 190 191
f 132 191 192
f 132 192 135
f 132 135 193
f 132 193 133
f 132 189 190
f 133 193 135
f 134 137 194
f 134 194 195
f 134 195 196
f 134 196 197
f 134 197 198
f 134 198 199
f 134 199 200
f 134 200 138
f 135 192 201
f 135 201 202
f 135 202 203
f 135 203 204
f 135 204 136
f 136 204 137
f 137 204 194
f 138 200 205
f 139 206 207
f 139 207 140
f 139 151 150
f 139 150 208
f 139 208 209
f 139 209 210
f 139 210 206
f 140 207 206
f 140 206 211
f 140 211 212
f 140 212 213
f 140 213 141
f 141 213 143
f 142 214 215
f 142 215 145
f 142 144 216
f 142 216 304
f 142 304 214
f 143 213 217
f 143 217 144
f 144 217 216
f 145 215 219
f 145 219 218
f 147 220 148
f 148 221 222
f 148 222 223
f 148 223 224
f 148 224 150
f 148 150 149
f 148 220 225
f 148 225 226
f 148 226 227
f 148 227 221
f 150 224 228
f 150 228 208
f 153 229 154
f 154 230 231
f 154 231 155
f 154 229 232
f 154 232 230
f 155 231 233
f 155 233 234
f 155 234 156
f 156 234 235
f 156 235 236
f 156 236 237
f 156 237 157
f 157 237 238
f 157 238 239
f 157 239 158
f 160 185 184
f 160 184 240
f 160 240 241
f 160 241 242
f 160 242 161
f 162 242 243
f 162 243 163
f 163 243 244
f 163 244 164
f 164 244 245
f 164 245 166
f 164 166 165
f 166 245 246
f 166 246 168
f 167 168 247
f 167 247 169
f 168 246 248
f 168 248 249
f 168 249 250
f 168 250 251
f 168 251 247
f 169 252 170
f 169 247 347
f 169 347 252
f 170 252 253
f 170 253 254
f 170 254 171
f 171 255 256
f 171 256 257
f 171 257 172
f 171 254 255
f 172 257 173
f 173 257 256
f 173 256 258
f 173 258 174
f 174 258 259
f 174 259 176
f 174 176 175
f 176 259 178
f 176 178 177
f 179 260 261
f 179 261 180
f 180 261 262
f 180 262 263
f 180 263 181
f 181 263 264
f 181 264 265
f 181 265 266
f 181 266 267
f 181 267 268
f 181 268 182
f 182 269 183
f 182 268 269
f 183 269 270
f 183 270 184
f 184 270 271
f 184 271 272
f 184 272 240
f 186 273 274
f 186 274 187
f 187 274 189
f 187 189 188
f 189 274 275
f 189 275 190
f 190 276 191
f 190 275 276
f 191 277 201
f 191 201 192
f 191 276 277
f 194 204 195
f 195 204 278
f 195 278 279
f 195 279 196
f 196 279 197
f 197 279 280
f 197 280 281
f 197 281 282
f 197 282 283
f 197 283 199
f 197 199 198
f 199 283 284
f 199 284 285
f 199 285 200
f 200 286 287
f 200 287 205
f 200 285 284
f 200 284 288
f 200 288 289
f 200 289 290
f 200 290 291
f 200 291 286
f 201 277 292
f 201 292 293
f 201 293 294
f 201 294 295
f 201 295 296
f 201 296 202
f 202 296 297
f 202 297 203
f 203 297 278
f 203 278 204
f 206 210 298
f 206 298 211
f 208 228 209
f 209 228 299
f 209 299 298
f 209 298 210
f 211 298 212
f 212 298 213
f 213 298 300
f 213 300 301
f 213 301 217
f 214 302 303
f 214 303 215
f 214 304 302
f 215 303 305
f 215 305 306
f 215 306 219
f 216 217 304
f 217 301 300
f 217 300 307
f 217 307 308
f 217 308 309
f 217 309 310
f 217 310 304
f 218 219 312
f 218 312 311
f 219 306 312
f 221 313 314
f 221 314 222
f 221 227 313
f 222 314 223
f 223 314 315
f 223 315 316
f 223 316 317
f 223 317 299
f 223 299 224
f 224 299 228
f 227 318 313
f 230 319 320
f 230 320 231
f 230 232 319
f 231 320 321
f 231 321 233
f 232 322 319
f 233 321 323
f 233 323 324
f 233 324 234
f 234 324 325
f 234 325 326
f 234 326 235
f 235 326 327
f 235 327 236
f 236 328 329
f 236 329 237
f 236 327 330
f 236 330 331
f 236 331 332
f 236 332 328
f 237 329 238
f 238 329 333
f 238 333 334
f 238 334 239
f 239 334 335
f 240 272 241
f 241 272 336
f 241 336 337
f 241 337 242
f 242 337 338
f 242 338 339
f 242 339 340
f 242 340 243
f 243 340 244
f 244 340 341
f 244 341 342
f 244 342 343
f 244 343 245
f 245 248 246
f 245 343 344
f 245 344 345
f 245 345 346
f 245 346 248
f 247 251 348
f 247 348 349
f 247 349 347
f 248 350 249
f 248 346 351
f 248 351 350
f 249 350 250
f 250 350 352
f 250 352 251
f 251 353 348
f 251 352 354
f 251 354 355
f 251 355 356
f 251 356 357
f 251 357 358
f 251 358 353
f 252 347 253
f 253 359 360
f 253 360 254
f 253 347 361
f 253 361 359
f 254 360 255
f 255 360 256
f 256 360 362
f 256 362 363
f 256 363 364
f 256 364 365
f 256 365 366
f 256 366 367
f 256 367 368
f 256 368 369
f 256 369 370
f 256 370 258
f 260 371 372
f 260 372 261
f 261 372 373
f 261 373 374
f 261 374 375
f 261 375 262
f 262 375 263
f 263 375 264
f 264 376 265
f 264 375 374
f 264 374 377
f 264 377 378
f 264 378 376
f 265 376 266
f 266 379 380
f 266 380 267
f 266 376 381
f 266 381 382
f 266 382 383
f 266 383 384
f 266 384 379
f 267 385 386
f 267 386 268
f 267 380 385
f 268 386 387
f 268 387 269
f 269 387 270
f 270 387 388
f 270 388 271
f 271 388 272
f 272 388 336
f 273 389 274
f 274 389 390
f 274 390 391
f 274 391 392
f 274 392 393
f 274 393 276
f 274 276 275
f 276 393 277
f 277 393 392
f 277 392 394
f 277 394 395
f 277 395 396
f 277 396 293
f 277 293 292
f 278 297 397
f 278 397 279
f 279 397 398
f 279 398 399
f 279 399 400
f 279 400 401
f 279 401 402
f 279 402 281
f 279 281 280
f 281 401 403
f 281 403 288
f 281 288 283
f 281 283 282
f 281 402 401
f 283 288 284
f 286 291 404
f 286 404 405
f 286 405 287
f 288 403 406
f 288 406 407
f 288 407 408
f 288 408 409
f 288 409 290
f 288 290 289
f 290 410 411
f 290 411 291
f 290 409 410
f 293 412 294
f 293 396 412
f 294 412 413
f 294 413 414
f 294 414 295
f 295 398 296
f 295 414 415
f 295 415 398
f 296 398 297
f 297 398 397
f 298 299 300
f 299 317 416
f 299 416 307
f 299 307 300
f 302 306 303
f 302 304 417
f 302 417 418
f 302 418 419
f 302 419 306
f 303 306 305
f 304 310 417
f 306 420 312
f 306 419 418
f 306 418 421
f 306 421 422
f 306 422 423
f 306 423 420
f 307 416 308
f 308 416 424
f 308 424 425
f 308 425 426
f 308 426 309
f 309 426 310
f 310 426 427
f 310 427 428
f 310 428 429
f 310 429 430
f 310 430 431
f 310 431 421
f 310 421 417
f 311 312 433
f 311 433 434
f 311 434 435
f 311 435 432
f 312 420 436
f 312 436 437
f 312 437 433
f 313 438 439
f 313 439 440
f 313 440 314
f 313 318 438
f 314 440 441
f 314 441 315
f 315 442 443
f 315 443 444
f 315 444 316
f 315 441 445
f 315 445 446
f 315 446 442
f 316 444 447
f 316 447 448
f 316 448 317
f 317 448 449
f 317 449 551
f 317 551 416
f 319 450 320
f 319 322 451
f 319 451 450
f 320 450 452
f 320 452 321
f 321 452 453
f 321 453 323
f 323 453 454
f 323 454 455
f 323 455 324
f 324 455 456
f 324 456 325
f 325 456 457
f 325 457 458
f 325 458 326
f 326 459 327
f 326 458 459
f 327 459 330
f 328 460 333
f 328 333 329
f 328 332 460
f 330 459 461
f 330 461 462
f 330 462 331
f 331 462 332
f 332 463 460
f 332 462 464
f 332 464 463
f 333 465 466
f 333 466 334
f 333 460 465
f 334 466 335
f 335 466 467
f 335 467 468
f 335 468 469
f 335 469 470
f 335 470 471
f 336 388 385
f 336 385 472
f 336 472 473
f 336 473 338
f 336 338 337
f 338 340 339
f 338 473 474
f 338 474 341
f 338 341 340
f 341 474 342
f 342 475 344
f 342 344 343
f 342 474 476
f 342 476 477
f 342 477 478
f 342 478 475
f 344 475 345
f 345 475 346
f 346 479 351
f 346 475 479
f 347 480 361
f 347 349 481
f 347 481 482
f 347 482 480
f 348 353 483
f 348 483 349
f 349 483 484
f 349 484 481
f 350 354 352
f 350 351 485
f 350 485 354
f 351 479 485
f 353 358 486
f 353 486 484
f 353 484 483
f 354 485 487
f 354 487 355
f 355 487 356
f 356 487 488
f 356 488 357
f 357 488 489
f 357 489 490
f 357 490 491
f 357 491 492
f 357 492 493
f 357 493 358
f 358 493 486
f 359 494 362
f 359 362 360
f 359 361 495
f 359 495 494
f 361 480 496
f 361 496 495
f 362 497 363
f 362 494 497
f 363 498 499
f 363 499 364
f 363 497 498
f 364 499 500
f 364 500 365
f 365 500 501
f 365 501 502
f 365 502 366
f 371 503 504
f 371 504 373
f 371 373 372
f 373 504 503
f 373 503 505
f 373 505 374
f 374 505 506
f 374 506 377
f 376 378 381
f 377 507 378
f 377 506 507
f 378 382 381
f 378 507 508
f 378 508 509
f 378 509 382
f 379 510 380
f 379 384 510
f 380 510 385
f 382 509 511
f 382 511 512
f 382 512 383
f 383 512 513
f 383 513 514
f 383 514 515
f 383 515 476
f 383 476 384
f 384 476 474
f 384 474 473
f 384 473 510
f 385 388 387
f 385 387 386
f 385 510 473
f 385 473 472
f 389 516 390
f 390 516 517
f 390 517 518
f 390 518 519
f 390 519 520
f 390 520 521
f 390 521 391
f 391 521 392
f 392 522 394
f 392 521 522
f 394 522 523
f 394 523 524
f 394 524 395
f 395 525 526
f 395 526 527
f 395 527 396
f 395 524 528
f 395 528 525
f 396 527 529
f 396 529 530
f 396 530 412
f 398 415 531
f 398 531 399
f 399 531 532
f 399 532 533
f 399 533 534
f 399 534 535
f 399 535 406
f 399 406 400
f 400 406 401
f 401 406 403
f 406 535 408
f 406 408 407
f 408 535 533
f 408 533 536
f 408 536 537
f 408 537 538
f 408 538 409
f 409 538 410
f 410 538 539
f 410 539 411
f 411 539 540
f 412 530 541
f 412 541 542
f 412 542 413
f 413 542 543
f 413 543 544
f 413 544 545
f 413 545 414
f 414 545 546
f 414 546 547
f 414 547 548
f 414 548 415
f 415 548 549
f 415 549 550
f 415 550 531
f 416 551 424
f 417 421 418
f 420 552 553
f 420 553 436
f 420 423 554
f 420 554 555
f 420 555 556
f 420 556 552
f 421 431 430
f 421 430 557
f 421 557 422
f 422 557 554
f 422 554 423
f 424 558 559
f 424 559 425
f 424 551 558
f 425 559 560
f 425 560 688
f 425 688 561
f 425 561 562
f 425 562 426
f 426 562 563
f 426 563 427
f 427 563 564
f 427 564 428
f 428 564 565
f 428 565 566
f 428 566 567
f 428 567 555
f 428 555 554
f 428 554 557
f 428 557 430
f 428 430 429
f 432 435 568
f 433 437 569
f 433 569 434
f 434 569 435
f 435 569 570
f 435 570 571
f 435 571 572
f 435 572 568
f 436 553 676
f 436 676 694
f 436 694 569
f 436 569 437
f 442 573 574
f 442 574 443
f 443 575 576
f 443 576 444
f 443 574 575
f 444 577 578
f 444 578 448
f 444 448 447
f 444 576 579
f 444 579 580
f 444 580 581
f 444 581 577
f 448 578 449
f 449 582 551
f 449 578 582
f 450 583 584
f 450 584 452
f 450 451 585
f 450 585 583
f 452 584 586
f 452 586 453
f 453 586 454
f 454 586 587
f 454 587 716
f 454 716 588
f 454 588 589
f 454 589 455
f 455 589 590
f 455 590 456
f 456 590 591
f 456 591 513
f 456 513 457
f 457 513 458
f 458 513 592
f 458 592 459
f 459 592 461
f 460 463 465
f 461 592 508
f 461 508 593
f 461 593 462
f 462 594 464
f 462 593 594
f 463 595 596
f 463 596 597
f 463 597 465
f 463 464 595
f 464 598 595
f 464 594 599
f 464 599 600
f 464 600 601
f 464 601 602
f 464 602 598
f 465 603 466
f 465 597 603
f 466 603 467
f 467 603 604
f 467 604 605
f 467 605 468
f 468 605 470
f 468 470 469
f 470 605 604
f 470 604 606
f 470 606 607
f 470 607 471
f 475 608 479
f 475 478 609
f 475 609 608
f 476 515 477
f 477 515 610
f 477 610 609
f 477 609 478
f 479 611 487
f 479 487 485
f 479 608 612
f 479 612 611
f 480 482 613
f 480 613 496
f 481 484 614
f 481 614 482
f 482 614 613
f 484 486 615
f 484 615 614
f 486 493 492
f 486 492 615
f 487 611 489
f 487 489 488
f 489 616 490
f 489 611 612
f 489 612 616
f 490 616 617
f 490 617 491
f 491 617 618
f 491 618 619
f 491 619 620
f 491 620 621
f 491 621 622
f 491 622 492
f 492 622 623
f 492 623 615
f 494 624 497
f 494 495 625
f 494 625 624
f 495 496 626
f 495 626 625
f 496 613 627
f 496 627 628
f 496 628 626
f 497 629 498
f 497 624 629
f 498 630 499
f 498 629 630
f 499 630 500
f 500 630 631
f 500 631 632
f 500 632 502
f 500 502 501
f 503 633 634
f 503 634 506
f 503 506 505
f 506 634 635
f 506 635 636
f 506 636 507
f 507 637 593
f 507 593 508
f 507 636 638
f 507 638 639
f 507 639 599
f 507 599 637
f 508 592 511
f 508 511 509
f 511 592 513
f 511 513 512
f 513 591 640
f 513 640 641
f 513 641 642
f 513 642 643
f 513 643 514
f 514 643 515
f 515 643 644
f 515 644 645
f 515 645 610
f 520 646 647
f 520 647 648
f 520 648 521
f 521 648 522
f 522 648 647
f 522 647 649
f 522 649 523
f 523 528 524
f 523 649 650
f 523 650 651
f 523 651 528
f 525 528 652
f 525 652 526
f 526 652 653
f 526 653 654
f 526 654 541
f 526 541 529
f 526 529 527
f 528 651 655
f 528 655 656
f 528 656 652
f 529 541 530
f 531 550 532
f 532 550 549
f 532 549 657
f 532 657 658
f 532 658 536
f 532 536 533
f 533 535 534
f 536 658 659
f 536 659 537
f 537 659 538
f 538 659 539
f 539 660 540
f 539 659 660
f 540 660 661
f 540 661 662
f 541 663 664
f 541 664 665
f 541 665 666
f 541 666 667
f 541 667 542
f 541 654 663
f 542 667 544
f 542 544 543
f 544 667 668
f 544 668 669
f 544 669 670
f 544 670 545
f 545 670 669
f 545 669 671
f 545 671 672
f 545 672 546
f 546 672 547
f 547 672 549
f 547 549 548
f 549 672 673
f 549 673 657
f 551 582 674
f 551 674 558
f 552 675 676
f 552 676 553
f 552 556 677
f 552 677 678
f 552 678 679
f 552 679 675
f 555 567 556
f 556 567 680
f 556 680 681
f 556 681 682
f 556 682 677
f 558 683 684
f 558 684 559
f 558 674 683
f 559 684 685
f 559 685 560
f 560 685 686
f 560 686 687
f 560 687 688
f 561 688 689
f 561 689 690
f 561 690 562
f 562 690 563
f 563 690 691
f 563 691 564
f 564 691 565
f 565 691 566
f 566 691 692
f 566 692 680
f 566 680 693
f 566 693 567
f 567 693 680
f 569 694 695
f 569 695 696
f 569 696 697
f 569 697 570
f 573 698 575
f 573 575 574
f 575 698 576
f 576 699 580
f 576 580 579
f 577 700 578
f 577 581 701
f 577 701 700
f 578 700 582
f 580 699 702
f 580 702 703
f 580 703 581
f 581 703 704
f 581 704 701
f 582 700 705
f 582 705 706
f 582 706 674
f 583 707 584
f 583 585 707
f 584 707 713
f 584 713 708
f 584 708 587
f 584 587 586
f 585 709 710
f 585 710 711
f 585 711 712
f 585 712 713
f 585 713 707
f 587 708 714
f 587 714 715
f 587 715 716
f 588 716 717
f 588 717 718
f 588 718 589
f 589 718 719
f 589 719 720
f 589 720 721
f 589 721 722
f 589 722 723
f 589 723 590
f 590 723 724
f 590 724 725
f 590 725 591
f 591 725 641
f 591 641 640
f 593 726 594
f 593 637 726
f 594 726 599
f 595 727 596
f 595 598 727
f 596 728 604
f 596 604 603
f 596 603 597
f 596 727 728
f 598 729 730
f 598 730 731
f 598 731 727
f 598 602 732
f 598 732 733
f 598 733 729
f 599 726 637
f 599 639 638
f 599 638 734
f 599 734 600
f 600 734 601
f 601 734 735
f 601 735 736
f 601 736 602
f 602 736 732
f 604 728 606
f 606 728 737
f 606 737 738
f 606 738 607
f 608 609 612
f 609 610 644
f 609 644 739
f 609 739 724
f 609 724 612
f 610 645 644
f 612 724 616
f 613 614 740
f 613 740 741
f 613 741 742
f 613 742 627
f 614 615 740
f 615 743 740
f 615 623 743
f 616 724 618
f 616 618 617
f 618 724 722
f 618 722 619
f 619 744 621
f 619 621 620
f 619 722 721
f 619 721 744
f 621 745 622
f 621 744 745
f 622 746 747
f 622 747 623
f 622 745 746
f 623 747 743
f 624 748 629
f 624 625 749
f 624 749 750
f 624 750 748
f 625 626 751
f 625 751 752
f 625 752 753
f 625 753 754
f 625 754 749
f 626 628 751
f 627 742 755
f 627 755 628
f 628 755 756
f 628 756 870
f 628 870 757
f 628 757 751
f 629 758 630
f 629 748 758
f 630 759 760
f 630 760 761
f 630 761 762
f 630 762 763
f 630 763 764
f 630 764 765
f 630 765 631
f 630 758 766
f 630 766 759
f 633 767 634
f 634 767 635
f 635 638 636
f 635 767 768
f 635 768 638
f 638 768 769
f 638 769 734
f 641 725 644
f 641 644 642
f 642 644 643
f 644 725 739
f 646 770 647
f 647 770 771
f 647 771 772
f 647 772 773
f 647 773 649
f 649 773 650
f 650 774 775
f 650 775 651
f 650 773 776
f 650 776 777
f 650 777 778
f 650 778 774
f 651 775 779
f 651 779 655
f 652 656 653
f 653 656 780
f 653 780 781
f 653 781 888
f 653 888 782
f 653 782 654
f 654 782 890
f 654 890 783
f 654 783 663
f 655 779 656
f 656 779 780
f 657 673 807
f 657 807 784
f 657 784 785
f 657 785 658
f 658 785 786
f 658 786 659
f 659 786 660
f 660 787 661
f 660 786 785
f 660 785 787
f 661 788 789
f 661 789 662
f 661 787 788
f 662 789 790
f 662 790 791
f 662 791 792
f 663 783 664
f 664 793 794
f 664 794 795
f 664 795 665
f 664 783 796
f 664 796 797
f 664 797 793
f 665 795 798
f 665 798 666
f 666 798 799
f 666 799 800
f 666 800 669
f 666 669 667
f 667 669 668
f 669 800 801
f 669 801 671
f 671 801 802
f 671 802 672
f 672 802 803
f 672 803 804
f 672 804 673
f 673 803 805
f 673 805 806
f 673 806 807
f 673 804 803
f 674 706 808
f 674 808 683
f 675 809 810
f 675 810 695
f 675 695 694
f 675 694 676
f 675 679 811
f 675 811 812
f 675 812 813
f 675 813 809
f 677 814 679
f 677 679 678
f 677 682 815
f 677 815 814
f 679 814 816
f 679 816 811
f 680 692 681
f 681 692 817
f 681 817 818
f 681 818 682
f 682 818 819
f 682 819 820
f 682 820 815
f 683 808 701
f 683 701 821
f 683 821 822
f 683 822 823
f 683 823 684
f 684 823 824
f 684 824 685
f 685 824 825
f 685 825 686
f 686 825 826
f 686 826 687
f 687 826 827
f 687 827 828
f 687 828 688
f 688 828 829
f 688 829 689
f 689 829 830
f 689 830 831
f 689 831 690
f 690 831 832
f 690 832 820
f 690 820 819
f 690 819 818
f 690 818 817
f 690 817 692
f 690 692 691
f 695 810 833
f 695 833 834
f 695 834 696
f 696 834 835
f 696 835 836
f 696 836 697
f 700 701 705
f 701 704 837
f 701 837 821
f 701 808 706
f 701 706 705
f 702 838 703
f 703 838 839
f 703 839 837
f 703 837 704
f 708 713 714
f 709 840 841
f 709 841 710
f 710 841 842
f 710 842 843
f 710 843 711
f 711 843 959
f 711 959 844
f 711 844 845
f 711 845 712
f 712 845 713
f 713 845 715
f 713 715 714
f 715 717 716
f 715 845 844
f 715 844 846
f 715 846 717
f 717 719 718
f 717 846 857
f 717 857 847
f 717 847 719
f 719 721 720
f 719 847 744
f 719 744 721
f 722 724 723
f 724 739 725
f 727 848 728
f 727 731 848
f 728 848 737
f 729 849 730
f 730 849 850
f 730 850 851
f 730 851 731
f 731 851 848
f 734 769 735
f 737 848 852
f 737 852 853
f 737 853 738
f 740 743 747
f 740 747 854
f 740 854 741
f 741 854 855
f 741 855 742
f 742 855 856
f 742 856 867
f 742 867 755
f 744 847 745
f 745 857 858
f 745 858 746
f 745 847 857
f 746 858 747
f 747 858 859
f 747 859 854
f 748 860 758
f 748 750 861
f 748 861 961
f 748 961 860
f 749 754 750
f 750 754 862
f 750 862 861
f 751 757 863
f 751 863 752
f 752 864 754
f 752 754 753
f 752 863 870
f 752 870 865
f 752 865 866
f 752 866 864
f 754 864 862
f 755 867 868
f 755 868 756
f 756 868 869
f 756 869 870
f 757 870 863
f 758 860 766
f 759 871 760
f 759 766 872
f 759 872 873
f 759 873 874
f 759 874 875
f 759 875 871
f 760 871 876
f 760 876 877
f 760 877 878
f 760 878 879
f 760 879 761
f 761 879 880
f 761 880 762
f 766 860 881
f 766 881 872
f 767 769 768
f 772 882 773
f 773 882 776
f 774 778 775
f 775 883 779
f 775 778 884
f 775 884 885
f 775 885 883
f 776 882 777
f 778 885 884
f 779 883 886
f 779 886 887
f 779 887 780
f 780 887 889
f 780 889 781
f 781 889 877
f 781 877 888
f 782 888 877
f 782 877 890
f 783 890 874
f 783 874 796
f 784 807 891
f 784 891 892
f 784 892 787
f 784 787 785
f 787 892 789
f 787 789 788
f 789 892 893
f 789 893 894
f 789 894 790
f 790 894 896
f 790 896 791
f 791 895 792
f 791 896 897
f 791 897 898
f 791 898 895
f 793 899 900
f 793 900 794
f 793 797 899
f 794 901 902
f 794 902 903
f 794 903 798
f 794 798 795
f 794 900 901
f 796 874 797
f 797 874 873
f 797 873 872
f 797 872 904
f 797 904 905
f 797 905 899
f 798 903 906
f 798 906 799
f 799 906 907
f 799 907 908
f 799 908 801
f 799 801 800
f 801 908 909
f 801 909 910
f 801 910 802
f 802 910 911
f 802 911 803
f 803 911 912
f 803 912 805
f 805 912 806
f 806 912 913
f 806 913 914
f 806 914 807
f 807 914 891
f 809 915 833
f 809 833 810
f 809 813 916
f 809 916 917
f 809 917 918
f 809 918 919
f 809 919 915
f 811 920 812
f 811 816 921
f 811 921 920
f 812 920 820
f 812 820 922
f 812 922 813
f 813 923 916
f 813 922 923
f 814 815 816
f 815 820 816
f 816 820 921
f 820 920 921
f 820 832 924
f 820 924 925
f 820 925 926
f 820 926 927
f 820 927 928
f 820 928 923
f 820 923 922
f 821 837 929
f 821 929 930
f 821 930 931
f 821 931 822
f 822 931 932
f 822 932 823
f 823 932 824
f 824 932 933
f 824 933 825
f 825 933 934
f 825 934 826
f 826 934 935
f 826 935 936
f 826 936 827
f 827 936 937
f 827 937 938
f 827 938 828
f 828 938 939
f 828 939 940
f 828 940 829
f 829 940 830
f 830 940 941
f 830 941 942
f 830 942 943
f 830 943 831
f 831 943 944
f 831 944 945
f 831 945 832
f 832 945 946
f 832 946 924
f 833 915 947
f 833 947 948
f 833 948 834
f 834 948 949
f 834 949 835
f 835 949 948
f 835 948 950
f 837 839 951
f 837 951 952
f 837 952 929
f 838 951 839
f 840 953 841
f 841 954 842
f 841 953 955
f 841 955 954
f 842 956 957
f 842 957 958
f 842 958 959
f 842 959 843
f 842 954 956
f 844 959 857
f 844 857 846
f 848 851 850
f 848 850 852
f 854 859 855
f 855 859 958
f 855 958 957
f 855 957 1032
f 855 1032 960
f 855 960 856
f 856 960 969
f 856 969 867
f 857 959 858
f 858 958 859
f 858 959 958
f 860 961 881
f 861 862 962
f 861 962 961
f 862 864 963
f 862 963 900
f 862 900 964
f 862 964 905
f 862 905 962
f 864 866 901
f 864 901 900
f 864 900 963
f 865 870 965
f 865 965 966
f 865 966 866
f 866 966 967
f 866 967 968
f 866 968 901
f 867 969 970
f 867 970 868
f 868 970 971
f 868 971 869
f 869 971 972
f 869 972 965
f 869 965 870
f 871 875 876
f 872 881 961
f 872 961 904
f 874 890 877
f 874 877 973
f 874 973 875
f 875 973 876
f 876 973 877
f 877 889 886
f 877 886 974
f 877 974 975
f 877 975 878
f 878 975 976
f 878 976 879
f 879 976 880
f 880 976 977
f 883 885 886
f 885 978 979
f 885 979 886
f 886 889 887
f 886 979 974
f 891 914 980
f 891 980 893
f 891 893 892
f 893 980 894
f 894 980 981
f 894 981 984
f 894 984 896
f 895 898 982
f 895 982 983
f 896 984 985
f 896 985 897
f 897 985 986
f 897 986 987
f 897 987 898
f 898 987 988
f 898 988 982
f 899 905 900
f 900 905 964
f 901 968 902
f 902 968 967
f 902 967 989
f 902 989 990
f 902 990 906
f 902 906 903
f 904 961 905
f 905 961 962
f 906 990 991
f 906 991 907
f 907 991 992
f 907 992 993
f 907 993 908
f 908 993 909
f 909 993 994
f 909 994 937
f 909 937 995
f 909 995 910
f 910 995 996
f 910 996 997
f 910 997 911
f 911 997 998
f 911 998 999
f 911 999 912
f 912 999 913
f 913 999 914
f 914 999 980
f 915 919 947
f 916 923 1000
f 916 1000 917
f 917 1000 928
f 917 928 918
f 918 928 927
f 918 927 1001
f 918 1001 1002
f 918 1002 919
f 919 1002 1003
f 919 1003 1004
f 919 1004 947
f 923 928 1000
f 924 946 1005
f 924 1005 1006
f 924 1006 925
f 925 1006 1002
f 925 1002 926
f 926 1002 927
f 927 1002 1001
f 929 952 1007
f 929 1007 988
f 929 988 930
f 930 988 987
f 930 987 1008
f 930 1008 931
f 931 1008 986
f 931 986 1009
f 931 1009 932
f 932 1009 933
f 933 1009 986
f 933 986 1010
f 933 1010 934
f 934 1010 1011
f 934 1011 1012
f 934 1012 1013
f 934 1013 935
f 935 1013 996
f 935 996 936
f 936 996 995
f 936 995 937
f 937 994 939
f 937 939 938
f 939 994 993
f 939 993 1014
f 939 1014 940
f 940 1014 941
f 941 1014 992
f 941 992 942
f 942 944 943
f 942 992 1015
f 942 1015 944
f 944 1015 1016
f 944 1016 1017
f 944 1017 1018
f 944 1018 945
f 945 1018 1019
f 945 1019 946
f 946 1019 1020
f 946 1020 1005
f 947 1004 1021
f 947 1021 1022
f 947 1022 1023
f 947 1023 1024
f 947 1024 1025
f 947 1025 1026
f 947 1026 1027
f 947 1027 950
f 947 950 948
f 952 983 1007
f 954 1028 1029
f 954 1029 956
f 954 955 1028
f 955 1030 1031
f 955 1031 1028
f 956 1029 1032
f 956 1032 957
f 960 1032 1036
f 960 1036 969
f 965 972 1033
f 965 1033 967
f 965 967 966
f 967 1033 1034
f 967 1034 1035
f 967 1035 989
f 969 1036 1037
f 969 1037 970
f 970 1037 971
f 971 1037 1038
f 971 1038 972
f 972 1038 1039
f 972 1039 1034
f 972 1034 1033
f 974 1040 975
f 974 979 1040
f 975 1040 976
f 976 1040 977
f 977 979 978
f 977 1040 979
f 980 999 1041
f 980 1041 1042
f 980 1042 1043
f 980 1043 981
f 981 1043 984
f 982 988 983
f 983 988 1007
f 984 1011 985
f 984 1043 1044
f 984 1044 1011
f 985 1010 986
f 985 1011 1010
f 986 1008 987
f 989 1035 1045
f 989 1045 991
f 989 991 990
f 991 1045 1015
f 991 1015 992
f 992 1014 993
f 996 1013 997
f 997 1013 998
f 998 1013 1012
f 998 1012 1046
f 998 1046 1047
f 998 1047 999
f 999 1047 1041
f 1002 1006 1003
f 1003 1006 1004
f 1004 1048 1049
f 1004 1049 1021
f 1004 1006 1050
f 1004 1050 1051
f 1004 1051 1052
f 1004 1052 1053
f 1004 1053 1048
f 1005 1020 1050
f 1005 1050 1006
f 1011 1044 1054
f 1011 1054 1012
f 1012 1054 1042
f 1012 1042 1046
f 1015 1045 1035
f 1015 1035 1055
f 1015 1055 1016
f 1016 1055 1058
f 1016 1058 1017
f 1017 1056 1057
f 1017 1057 1019
f 1017 1019 1018
f 1017 1058 1078
f 1017 1078 1056
f 1019 1057 1051
f 1019 1051 1050
f 1019 1050 1020
f 1021 1049 1070
f 1021 1070 1059
f 1021 1059 1060
f 1021 1060 1022
f 1022 1060 1024
f 1022 1024 1023
f 1028 1031 1061
f 1028 1061 1062
f 1028 1062 1029
f 1029 1062 1036
f 1029 1036 1032
f 1030 1060 1031
f 1031 1063 1061
f 1031 1060 1063
f 1034 1039 1064
f 1034 1064 1058
f 1034 1058 1035
f 1035 1058 1055
f 1036 1062 1065
f 1036 1065 1037
f 1037 1065 1066
f 1037 1066 1067
f 1037 1067 1038
f 1038 1067 1064
f 1038 1064 1039
f 1041 1047 1042
f 1042 1047 1046
f 1042 1054 1043
f 1043 1054 1044
f 1048 1068 1070
f 1048 1070 1049
f 1048 1053 1069
f 1048 1069 1068
f 1051 1057 1071
f 1051 1071 1072
f 1051 1072 1052
f 1052 1072 1073
f 1052 1073 1074
f 1052 1074 1075
f 1052 1075 1053
f 1053 1075 1076
f 1053 1076 1077
f 1053 1077 1069
f 1056 1078 1079
f 1056 1079 1073
f 1056 1073 1072
f 1056 1072 1071
f 1056 1071 1057
f 1058 1064 1078
f 1059 1070 1080
f 1059 1080 1081
f 1059 1081 1082
f 1059 1082 1060
f 1060 1082 1081
f 1060 1081 1063
f 1061 1063 1083
f 1061 1083 1065
f 1061 1065 1062
f 1063 1081 1084
f 1063 1084 1086
f 1063 1086 1083
f 1064 1067 1087
f 1064 1087 1085
f 1064 1085 1079
f 1064 1079 1078
f 1065 1083 1086
f 1065 1086 1066
f 1066 1086 1087
f 1066 1087 1067
f 1068 1069 1070
f 1069 1076 1085
f 1069 1085 1088
f 1069 1088 1089
f 1069 1089 1090
f 1069 1090 1091
f 1069 1091 1092
f 1069 1092 1070
f 1069 1077 1076
f 1070 1092 1080
f 1073 1079 1074
f 1074 1079 1075
f 1075 1079 1076
f 1076 1079 1085
f 1080 1092 1091
f 1080 1091 1093
f 1080 1093 1094
f 1080 1094 1084
f 1080 1084 1081
f 1084 1094 1086
f 1085 1087 1089
f 1085 1089 1088
f 1086 1094 1095
f 1086 1095 1089
f 1086 1089 1087
f 1089 1095 1096
f 1089 1096 1091
f 1089 1091 1090
f 1091 1096 1093
f 1093 1096 1094
f 1094 1096 1095

