# https://github.com/mikedh/trimesh
v -0.00426468 0.06089475 -0.00686312
v -0.00432543 0.06089475 -0.00584780
v -0.00432543 0.06088820 -0.00584816
v -0.00432816 0.06079887 -0.00590649
v -0.00432885 0.06019973 -0.00665844
v -0.00432680 0.06018126 -0.00673621
v -0.00432543 0.06013481 -0.00686312
v -0.00732127 0.06089475 -0.00686312
v -0.00432612 0.06089475 -0.00583753
v -0.00434386 0.06089475 -0.00577957
v -0.00441622 0.06089475 -0.00565962
v -0.00446263 0.06089475 -0.00559030
v -0.00443669 0.06060828 -0.00598608
v -0.00439301 0.05997579 -0.00686312
v -0.00437048 0.06000557 -0.00686312
v -0.00433362 0.06007644 -0.00683598
v -0.00432885 0.06010324 -0.00686312
v -0.00444079 0.06046356 -0.00616252
v -0.00444011 0.06001153 -0.00673621
v -0.00740113 0.06083698 -0.00686312
v -0.00741000 0.06089475 -0.00673657
v -0.00449744 0.06089475 -0.00554811
v -0.01123790 0.05481042 -0.00499056
v -0.00445922 0.06078219 -0.00573592
v -0.00448379 0.05990492 -0.00681581
v -0.00440871 0.05995792 -0.00686312
v -0.00445103 0.06032420 -0.00632575
v -0.00446195 0.06018424 -0.00648898
v -0.00741341 0.06082805 -0.00686312
v -0.00753560 0.06073752 -0.00686312
v -0.00750898 0.06089475 -0.00659132
v -0.00472065 0.06089475 -0.00527814
v -0.00486945 0.06089058 -0.00510317
v -0.01123790 0.05637081 -0.00311580
v -0.01123790 0.05481042 -0.00686312
v -0.01119421 0.05481042 -0.00507016
v -0.00967343 0.05492954 -0.00686312
v -0.00971029 0.05493728 -0.00678646
v -0.00961063 0.05497897 -0.00684698
v -0.00957855 0.05499684 -0.00686312
v -0.00952668 0.05504627 -0.00686312
v -0.00932873 0.05523506 -0.00686312
v -0.00530766 0.05907946 -0.00686312
v -0.00454727 0.05980665 -0.00686312
v -0.00454045 0.05981320 -0.00686312
v -0.00615201 0.06089475 -0.00354827
v -0.00622641 0.06089475 -0.00345987
v -0.00632266 0.06084294 -0.00341035
v -0.00687896 0.06035040 -0.00335937
v -0.00453430 0.05981916 -0.00686312
v -0.00754515 0.06073038 -0.00686312
v -0.00764890 0.06066546 -0.00683781
v -0.00754037 0.06089475 -0.00654473
v -0.01123039 0.05637856 -0.00311580
v -0.01123790 0.05860122 -0.00311580
v -0.00672674 0.06049870 -0.00335790
v -0.00642299 0.06079470 -0.00335533
v -0.01123790 0.05684667 -0.00686312
v -0.01094712 0.05481042 -0.00686312
v -0.01116418 0.05481042 -0.00520111
v -0.00980585 0.05490333 -0.00686312
v -0.00962701 0.05496051 -0.00686312
v -0.00629604 0.06089475 -0.00338137
v -0.00764003 0.06065891 -0.00686312
v -0.00761546 0.06089475 -0.00643249
v -0.00771102 0.06060531 -0.00686312
v -0.00770215 0.06075122 -0.00658765
v -0.00770215 0.06089475 -0.00630264
v -0.01113210 0.05648576 -0.00311580
v -0.00635269 0.06089475 -0.00334799
v -0.01120513 0.05864589 -0.00311580
v -0.01123790 0.05859705 -0.00313525
v -0.01123790 0.05689491 -0.00680480
v -0.01121742 0.05687883 -0.00686312
v -0.01101333 0.05481042 -0.00613831
v -0.01115804 0.05481042 -0.00523559
v -0.01103790 0.05481042 -0.00598462
v -0.00781136 0.06052788 -0.00686312
v -0.00794651 0.06051418 -0.00668522
v -0.00791443 0.06063985 -0.00648678
v -0.00774924 0.06077802 -0.00646330
v -0.00773832 0.06089475 -0.00624835
v -0.00940449 0.05837252 -0.00311580
v -0.00635747 0.06089475 -0.00334653
v -0.00709943 0.06089356 -0.00311580
v -0.00712195 0.06086855 -0.00311580
v -0.00775539 0.06017471 -0.00311580
v -0.01119626 0.05865363 -0.00313525
v -0.01112118 0.05875666 -0.00311580
v -0.01112118 0.05875309 -0.00313525
v -0.01123790 0.05856251 -0.00328857
v -0.01123790 0.05709443 -0.00656014
v -0.01119763 0.05712957 -0.00659389
v -0.01109319 0.05721890 -0.00668302
v -0.01112527 0.05712719 -0.00673437
v -0.01109387 0.05707001 -0.00686312
v -0.00790214 0.06045761 -0.00686312
v -0.00801340 0.06058327 -0.00644790
v -0.00837790 0.06049989 -0.00605688
v -0.00827688 0.06053801 -0.00613611
v -0.00835401 0.06063151 -0.00583606
v -0.00824616 0.06066427 -0.00593510
v -0.00791306 0.06089475 -0.00598205
v -0.00808098 0.06080244 -0.00591125
v -0.00710148 0.06089475 -0.00313121
v -0.00887004 0.06089475 -0.00311580
v -0.01118397 0.05863636 -0.00328527
v -0.01110889 0.05873701 -0.00328527
v -0.01106521 0.05882992 -0.00311580
v -0.01123790 0.05852499 -0.00345290
v -0.01122425 0.05854107 -0.00346464
v -0.01123790 0.05716590 -0.00647137
v -0.01121947 0.05718198 -0.00648714
v -0.01108637 0.05735827 -0.00651979
v -0.01105906 0.05731896 -0.00661993
v -0.01102903 0.05727191 -0.00673437
v -0.01095326 0.05727965 -0.00686312
v -0.01104746 0.05714029 -0.00686312
v -0.01118534 0.05727370 -0.00643689
v -0.00798200 0.06039507 -0.00686312
v -0.00801204 0.06043200 -0.00674574
v -0.00824275 0.06036172 -0.00653006
v -0.00854308 0.06051180 -0.00578030
v -0.00857380 0.06053622 -0.00568603
v -0.00845844 0.06055171 -0.00583276
v -0.00807756 0.06034921 -0.00680627
v -0.00845912 0.06061901 -0.00569961
v -0.00854513 0.06066248 -0.00548246
v -0.00837926 0.06065117 -0.00575866
v -0.00821340 0.06078934 -0.00573482
v -0.00800794 0.06089475 -0.00583643
v -0.00906798 0.06089475 -0.00311580
v -0.01109592 0.05872033 -0.00343530
v -0.01103790 0.05879537 -0.00343530
v -0.01096555 0.05895856 -0.00311580
v -0.01092664 0.05899489 -0.00318000
v -0.01075873 0.05912234 -0.00358569
v -0.01123790 0.05849461 -0.00358569
v -0.01123790 0.05840945 -0.00395396
v -0.01123790 0.05721116 -0.00641488
v -0.01110821 0.05739043 -0.00643616
v -0.01107817 0.05749644 -0.00635436
v -0.01105633 0.05746547 -0.00643616
v -0.01095190 0.05752919 -0.00654803
v -0.01100514 0.05742497 -0.00658398
v -0.01095258 0.05738149 -0.00673621
v -0.01091777 0.05733087 -0.00686312
v -0.01123790 0.05722843 -0.00639287
v -0.00806937 0.06032599 -0.00686312
v -0.00820998 0.06033552 -0.00663020
v -0.00837517 0.06034743 -0.00635253
v -0.00864888 0.06047547 -0.00568603
v -0.00867550 0.06049751 -0.00560277
v -0.00870690 0.06052371 -0.00550300
v -0.00860997 0.06058089 -0.00554261
v -0.00837790 0.06080006 -0.00545604
v -0.00810555 0.06089475 -0.00568567
v -0.00824616 0.06081376 -0.00563468
v -0.00865093 0.06062853 -0.00538562
v -0.00867618 0.06064878 -0.00530382
v -0.00912737 0.06064938 -0.00424521
v -0.00915740 0.06082269 -0.00313525
v -0.00915945 0.06082448 -0.00311580
v -0.00884341 0.06089475 -0.00403173
v -0.01094985 0.05887518 -0.00358569
v -0.01108705 0.05870782 -0.00353910
v -0.01089183 0.05895022 -0.00358569
v -0.01089729 0.05904611 -0.00311580
v -0.01083381 0.05908958 -0.00329114
v -0.01078740 0.05915867 -0.00324492
v -0.01073893 0.05924741 -0.00311580
v -0.01064952 0.05932424 -0.00328527
v -0.01063928 0.05931114 -0.00340558
v -0.01068364 0.05921644 -0.00358569
v -0.01066999 0.05919917 -0.00373571
v -0.01074508 0.05910447 -0.00373571
v -0.01123790 0.05840230 -0.00398331
v -0.01112596 0.05860956 -0.00373571
v -0.01111230 0.05859109 -0.00388574
v -0.01110343 0.05753396 -0.00625459
v -0.01121264 0.05732194 -0.00632025
v -0.01104814 0.05758101 -0.00629714
v -0.01090002 0.05745653 -0.00673621
v -0.01097784 0.05757803 -0.00643322
v -0.01094234 0.05766558 -0.00638114
v -0.01078876 0.05766082 -0.00667422
v -0.01082016 0.05757446 -0.00672887
v -0.01084815 0.05743093 -0.00686312
v -0.01123790 0.05729871 -0.00629897
v -0.00815674 0.06025571 -0.00686312
v -0.00822636 0.06019853 -0.00686312
v -0.00853967 0.06035934 -0.00607485
v -0.00870349 0.06037065 -0.00579644
v -0.00883113 0.06020211 -0.00591125
v -0.00875673 0.06045880 -0.00554591
v -0.00883454 0.06035517 -0.00561707
v -0.00880724 0.06048083 -0.00541973
v -0.00875673 0.06054575 -0.00537608
v -0.00860724 0.06072799 -0.00523779
v -0.00853762 0.06080720 -0.00517213
v -0.00845708 0.06084175 -0.00522752
v -0.00829462 0.06089475 -0.00537718
v -0.00824957 0.06089475 -0.00545201
v -0.00819292 0.06089475 -0.00554518
v -0.00875536 0.06061067 -0.00524660
v -0.00880587 0.06063151 -0.00511748
v -0.00883454 0.06065474 -0.00501734
v -0.00870553 0.06067082 -0.00520368
v -0.00893761 0.06077028 -0.00433581
v -0.00904000 0.06069524 -0.00433581
v -0.00911508 0.06063985 -0.00433581
v -0.00929938 0.06051835 -0.00418579
v -0.00931849 0.06053443 -0.00403576
v -0.00922702 0.06060948 -0.00403576
v -0.00880519 0.06089475 -0.00418579
v -0.00876560 0.06089475 -0.00434021
v -0.00886253 0.06082507 -0.00433581
v -0.00922498 0.06077385 -0.00311580
v -0.01080310 0.05902943 -0.00373571
v -0.01088774 0.05891747 -0.00374525
v -0.01093006 0.05884897 -0.00380137
v -0.01103381 0.05876560 -0.00358752
v -0.01106862 0.05868460 -0.00373571
v -0.01088091 0.05906695 -0.00311580
v -0.01079627 0.05917058 -0.00313525
v -0.01074644 0.05923788 -0.00311580
v -0.01061197 0.05940762 -0.00311580
v -0.01060242 0.05941536 -0.00313525
v -0.01052733 0.05950827 -0.00313525
v -0.01063040 0.05930042 -0.00350536
v -0.01062290 0.05929148 -0.00358569
v -0.01060856 0.05927421 -0.00373571
v -0.01065566 0.05918130 -0.00388574
v -0.01073074 0.05908601 -0.00388574
v -0.01078194 0.05900204 -0.00396240
v -0.01118124 0.05846424 -0.00403246
v -0.01123790 0.05838026 -0.00406914
v -0.01109797 0.05857263 -0.00403576
v -0.01105497 0.05866614 -0.00388574
v -0.01123790 0.05735231 -0.00622414
v -0.01123790 0.05741365 -0.00613611
v -0.01112732 0.05758101 -0.00613501
v -0.01106862 0.05763402 -0.00618453
v -0.01096760 0.05769655 -0.00628613
v -0.01077716 0.05779601 -0.00650292
v -0.01075532 0.05776683 -0.00658618
v -0.01081197 0.05769238 -0.00658618
v -0.01076078 0.05762270 -0.00677399
v -0.01062290 0.05779125 -0.00679636
v -0.01066180 0.05768881 -0.00686312
v -0.01074576 0.05757446 -0.00686312
v -0.00830827 0.06013064 -0.00686312
v -0.00854172 0.05993589 -0.00686312
v -0.00863045 0.06000974 -0.00658618
v -0.00871987 0.05993470 -0.00658618
v -0.00875195 0.06023665 -0.00597104
v -0.00888369 0.05964823 -0.00686312
v -0.00897788 0.05959880 -0.00680627
v -0.00898130 0.05975245 -0.00651245
v -0.00898539 0.05990551 -0.00621827
v -0.00883591 0.06050644 -0.00531996
v -0.00913829 0.05960833 -0.00652456
v -0.00911167 0.05973459 -0.00632832
v -0.00914034 0.05976079 -0.00622818
v -0.00901201 0.06008061 -0.00583606
v -0.00845162 0.06089475 -0.00511161
v -0.00838063 0.06089475 -0.00523303
v -0.00863796 0.06077088 -0.00508557
v -0.00885161 0.06066784 -0.00493591
v -0.00874512 0.06074884 -0.00493151
v -0.00866663 0.06079172 -0.00497883
v -0.00885843 0.06052729 -0.00523559
v -0.00889870 0.06057017 -0.00507200
v -0.00898880 0.06050942 -0.00502651
v -0.00901065 0.06052907 -0.00493591
v -0.00913624 0.06050704 -0.00472316
v -0.00904955 0.06060531 -0.00464210
v -0.00897515 0.06064759 -0.00469638
v -0.00872260 0.06089475 -0.00449244
v -0.00884546 0.06081257 -0.00445576
v -0.00889939 0.06076254 -0.00449794
v -0.00901542 0.06067797 -0.00448584
v -0.00909051 0.06062079 -0.00448584
v -0.00917856 0.06054575 -0.00448584
v -0.00921474 0.06055528 -0.00433104
v -0.00928641 0.06050704 -0.00427786
v -0.00941132 0.06048381 -0.00388574
v -0.00957855 0.06034921 -0.00380027
v -0.00987069 0.06019139 -0.00331975
v -0.00988366 0.06020389 -0.00321961
v -0.00981472 0.06025392 -0.00327610
v -0.00972872 0.06034921 -0.00319870
v -0.00964271 0.06040639 -0.00328527
v -0.00957104 0.06049334 -0.00316642
v -0.00951917 0.06054396 -0.00311580
v -0.00951507 0.06054575 -0.00312387
v -0.00940654 0.06063270 -0.00311580
v -0.01097988 0.05876381 -0.00388574
v -0.01046181 0.05959344 -0.00311580
v -0.01046659 0.05958331 -0.00313525
v -0.01033212 0.05975245 -0.00311580
v -0.01032597 0.05974531 -0.00318146
v -0.01059081 0.05925634 -0.00388574
v -0.01064269 0.05916463 -0.00400715
v -0.01070685 0.05907589 -0.00403466
v -0.01077033 0.05898715 -0.00406254
v -0.01088978 0.05879835 -0.00418579
v -0.01094849 0.05872331 -0.00418579
v -0.01108773 0.05855893 -0.00413700
v -0.01123790 0.05834691 -0.00418579
v -0.01122561 0.05839337 -0.00408051
v -0.01123790 0.05748155 -0.00603780
v -0.01122561 0.05749287 -0.00604844
v -0.01109183 0.05766498 -0.00608439
v -0.01123790 0.05750954 -0.00599635
v -0.01123790 0.05753515 -0.00595711
v -0.01092801 0.05779720 -0.00620397
v -0.01090753 0.05777159 -0.00628613
v -0.01080310 0.05782757 -0.00640278
v -0.01063586 0.05795681 -0.00652016
v -0.01067341 0.05787522 -0.00657665
v -0.01065020 0.05782519 -0.00669623
v -0.01072801 0.05759888 -0.00686312
v -0.01051846 0.05786926 -0.00686312
v -0.01060242 0.05776564 -0.00686312
v -0.01058399 0.05787522 -0.00674244
v -0.01048228 0.05795205 -0.00681287
v -0.01038672 0.05803186 -0.00686312
v -0.00871987 0.05978640 -0.00686312
v -0.00895945 0.05958391 -0.00686312
v -0.00912191 0.05944395 -0.00686312
v -0.00913556 0.05945586 -0.00681874
v -0.00905774 0.05956068 -0.00674831
v -0.00910894 0.05958212 -0.00662433
v -0.00901406 0.06023248 -0.00553564
v -0.00889939 0.06042068 -0.00537351
v -0.00893352 0.06045820 -0.00523559
v -0.00896287 0.06048500 -0.00512665
v -0.00919563 0.05937605 -0.00686312
v -0.00916286 0.05963155 -0.00643616
v -0.00926593 0.05958688 -0.00633198
v -0.00916491 0.05978461 -0.00613611
v -0.00914170 0.05991206 -0.00593106
v -0.00911576 0.06003773 -0.00573335
v -0.00908710 0.06001153 -0.00583606
v -0.00846527 0.06089475 -0.00508777
v -0.00888164 0.06069107 -0.00478589
v -0.00878267 0.06076611 -0.00478589
v -0.00868847 0.06080780 -0.00487869
v -0.00859973 0.06089475 -0.00480973
v -0.00854513 0.06089475 -0.00493408
v -0.00848028 0.06089475 -0.00505916
v -0.00911645 0.06033790 -0.00513105
v -0.00914034 0.06036172 -0.00503128
v -0.00908573 0.06045880 -0.00493591
v -0.00911303 0.06048441 -0.00482293
v -0.00916218 0.06038376 -0.00493591
v -0.00928982 0.06021104 -0.00503055
v -0.00926320 0.06033313 -0.00481816
v -0.00928368 0.06035517 -0.00471839
v -0.00922771 0.06044629 -0.00463586
v -0.00915262 0.06052193 -0.00463586
v -0.00899495 0.06066308 -0.00459625
v -0.00881338 0.06078874 -0.00463586
v -0.00869257 0.06089475 -0.00457827
v -0.00882908 0.06080065 -0.00455590
v -0.00925364 0.06047309 -0.00448584
v -0.00927071 0.06049096 -0.00437763
v -0.00943453 0.06035576 -0.00427199
v -0.00987752 0.06004785 -0.00379807
v -0.00971643 0.06018662 -0.00388574
v -0.00972872 0.06019913 -0.00380247
v -0.01003588 0.06005679 -0.00322731
v -0.00996899 0.06014315 -0.00313525
v -0.00989390 0.06021342 -0.00313525
v -0.00979629 0.06029978 -0.00314332
v -0.00973759 0.06035755 -0.00311580
v -0.00969664 0.06039388 -0.00311580
v -0.00963725 0.06044570 -0.00311580
v -0.00957650 0.06049810 -0.00311580
v -0.01026795 0.05982809 -0.00311580
v -0.01019287 0.05991564 -0.00311580
v -0.01019082 0.05991326 -0.00313525
v -0.01018195 0.05990313 -0.00321448
v -0.01063040 0.05915033 -0.00410692
v -0.01068091 0.05906278 -0.00418579
v -0.01088023 0.05876560 -0.00433544
v -0.01092528 0.05869353 -0.00438533
v -0.01098125 0.05863695 -0.00433544
v -0.01106452 0.05852975 -0.00433581
v -0.01112254 0.05845471 -0.00433581
v -0.01121401 0.05837848 -0.00418579
v -0.01123790 0.05830284 -0.00433581
v -0.01123790 0.05760245 -0.00584560
v -0.01121264 0.05762568 -0.00586540
v -0.01111299 0.05769179 -0.00598608
v -0.01105292 0.05776683 -0.00598608
v -0.01095190 0.05782579 -0.00610383
v -0.01088910 0.05787582 -0.00614675
v -0.01078603 0.05795622 -0.00621974
v -0.01061880 0.05808665 -0.00633602
v -0.01076146 0.05792704 -0.00631988
v -0.01059423 0.05805687 -0.00643616
v -0.01049389 0.05811583 -0.00653556
v -0.01055191 0.05802113 -0.00657775
v -0.01044133 0.05805270 -0.00673621
v -0.01034099 0.05811285 -0.00682791
v -0.01028980 0.05815097 -0.00686312
v -0.00908914 0.06016280 -0.00553564
v -0.00901406 0.06038316 -0.00523559
v -0.00927753 0.05929803 -0.00686312
v -0.00928777 0.05930875 -0.00682461
v -0.00926388 0.05943442 -0.00662873
v -0.00928982 0.05946062 -0.00652859
v -0.00938811 0.05940702 -0.00643616
v -0.00929119 0.05961190 -0.00623185
v -0.00926661 0.05973756 -0.00603230
v -0.00914238 0.06006334 -0.00563358
v -0.00873830 0.06084532 -0.00463586
v -0.00867209 0.06089475 -0.00463586
v -0.00861953 0.06089475 -0.00476314
v -0.00911645 0.06018841 -0.00543330
v -0.00914238 0.06021283 -0.00533353
v -0.00916627 0.06023725 -0.00523559
v -0.00926661 0.06018722 -0.00513032
v -0.00920382 0.06027417 -0.00508080
v -0.00908914 0.06031229 -0.00523559
v -0.00938470 0.06015268 -0.00493591
v -0.00930962 0.06023248 -0.00493591
v -0.00941405 0.06003356 -0.00512372
v -0.00943658 0.06005798 -0.00502358
v -0.00937446 0.06029204 -0.00463586
v -0.00929938 0.06037125 -0.00463586
v -0.00941064 0.06018007 -0.00481120
v -0.00947548 0.06012885 -0.00477121
v -0.00943111 0.06020211 -0.00471106
v -0.00959766 0.06006930 -0.00460358
v -0.00940040 0.06032003 -0.00448584
v -0.00956695 0.06018722 -0.00436626
v -0.00941883 0.06033909 -0.00437213
v -0.00973077 0.06005143 -0.00426062
v -0.00998810 0.05985668 -0.00403576
v -0.00991301 0.05993470 -0.00403576
v -0.01002564 0.05989598 -0.00379220
v -0.01004066 0.05991206 -0.00369206
v -0.00989254 0.06006334 -0.00369793
v -0.00990892 0.06008002 -0.00358569
v -0.01002154 0.06004190 -0.00332709
v -0.01005636 0.05992814 -0.00358569
v -0.01013144 0.05984774 -0.00358569
v -0.01016898 0.05988824 -0.00331425
v -0.01012257 0.05998830 -0.00313525
v -0.01004748 0.06006810 -0.00313525
v -0.00998127 0.06013540 -0.00311580
v -0.00989595 0.06021521 -0.00311580
v -0.00981609 0.06028727 -0.00311580
v -0.01012461 0.05999068 -0.00311580
v -0.01044816 0.05941536 -0.00388574
v -0.01049662 0.05931828 -0.00403576
v -0.01053416 0.05923371 -0.00417735
v -0.01061948 0.05913783 -0.00418579
v -0.01078535 0.05885612 -0.00442311
v -0.01097169 0.05860181 -0.00448584
v -0.01104678 0.05850712 -0.00448584
v -0.01110480 0.05843208 -0.00448584
v -0.01122971 0.05824864 -0.00455259
v -0.01123790 0.05825936 -0.00448217
v -0.01123790 0.05764354 -0.00577297
v -0.01109524 0.05781805 -0.00579241
v -0.01107340 0.05779184 -0.00589255
v -0.01123790 0.05765962 -0.00574399
v -0.01119217 0.05775015 -0.00568603
v -0.01096896 0.05787582 -0.00597178
v -0.01085019 0.05801816 -0.00597141
v -0.01079013 0.05811166 -0.00593070
v -0.01076760 0.05808426 -0.00603083
v -0.01074235 0.05805508 -0.00613611
v -0.01064337 0.05811523 -0.00623588
v -0.01051914 0.05814501 -0.00643616
v -0.01047614 0.05824507 -0.00635069
v -0.01030891 0.05837490 -0.00646477
v -0.01035123 0.05827485 -0.00655060
v -0.01040993 0.05818015 -0.00659315
v -0.01032597 0.05824447 -0.00665037
v -0.01046795 0.05808486 -0.00663570
v -0.01036625 0.05814263 -0.00673621
v -0.01019970 0.05827306 -0.00684368
v -0.01019424 0.05826651 -0.00686312
v -0.00936559 0.05920751 -0.00686312
v -0.00943589 0.05915688 -0.00682094
v -0.00945773 0.05917892 -0.00673621
v -0.00938538 0.05925396 -0.00673621
v -0.00956149 0.05913068 -0.00662176
v -0.00958606 0.05915688 -0.00652162
v -0.00929119 0.05976258 -0.00593253
v -0.00941473 0.05943442 -0.00632722
v -0.00926730 0.05988765 -0.00573262
v -0.00920518 0.05997519 -0.00568310
v -0.00916696 0.06008776 -0.00553564
v -0.00926730 0.06003773 -0.00543220
v -0.00924136 0.06016101 -0.00523559
v -0.00943794 0.05990909 -0.00532509
v -0.00938811 0.06000616 -0.00523559
v -0.00953009 0.05999783 -0.00493591
v -0.00949869 0.05996924 -0.00507016
v -0.00990141 0.05947313 -0.00520441
v -0.00992871 0.05950231 -0.00508557
v -0.00987752 0.05959761 -0.00500157
v -0.00961882 0.06009133 -0.00448584
v -0.00970688 0.05987574 -0.00478589
v -0.00972531 0.05989539 -0.00469602
v -0.00957787 0.06004905 -0.00470372
v -0.01033348 0.05930339 -0.00456580
v -0.01003929 0.05961011 -0.00458047
v -0.00974510 0.05991623 -0.00459588
v -0.00991097 0.05978283 -0.00448584
v -0.00983998 0.05985787 -0.00448584
v -0.00979015 0.05996388 -0.00433581
v -0.00971848 0.06003892 -0.00433581
v -0.00987889 0.05989896 -0.00425291
v -0.00989459 0.05991564 -0.00415314
v -0.01013485 0.05970302 -0.00403576
v -0.01015806 0.05972684 -0.00388574
v -0.01017308 0.05974292 -0.00378266
v -0.00998400 0.06000319 -0.00358569
v -0.01000585 0.06002582 -0.00343530
v -0.01018741 0.05975841 -0.00368252
v -0.01037307 0.05949695 -0.00388574
v -0.01011506 0.06000080 -0.00311580
v -0.01004953 0.06006989 -0.00311580
v -0.01042700 0.05939333 -0.00403576
v -0.01048433 0.05930518 -0.00412159
v -0.01052119 0.05919321 -0.00433581
v -0.01046932 0.05928850 -0.00422173
v -0.01059559 0.05911162 -0.00433581
v -0.01066044 0.05903658 -0.00433581
v -0.01076965 0.05883706 -0.00452325
v -0.01091163 0.05867686 -0.00448584
v -0.01109114 0.05841421 -0.00459294
v -0.01123790 0.05820755 -0.00463586
v -0.01123790 0.05824030 -0.00454453
v -0.01085429 0.05832368 -0.00538048
v -0.01088637 0.05804674 -0.00583606
v -0.01111708 0.05784604 -0.00568603
v -0.01107817 0.05824745 -0.00500304
v -0.01107544 0.05794371 -0.00559653
v -0.01079627 0.05856906 -0.00504485
v -0.01123790 0.05769059 -0.00568603
v -0.01123790 0.05776087 -0.00555398
v -0.01081129 0.05813667 -0.00583606
v -0.01074849 0.05821172 -0.00583606
v -0.01064815 0.05827068 -0.00594647
v -0.01062426 0.05824328 -0.00604661
v -0.01066726 0.05814323 -0.00613611
v -0.01060310 0.05821827 -0.00613611
v -0.01050071 0.05827306 -0.00625055
v -0.01033280 0.05840349 -0.00636500
v -0.01020311 0.05842672 -0.00658618
v -0.01028570 0.05832547 -0.00659462
v -0.01016557 0.05853332 -0.00647797
v -0.01006386 0.05858812 -0.00658618
v -0.01018332 0.05840349 -0.00666468
v -0.01022017 0.05832428 -0.00672337
v -0.01030345 0.05821767 -0.00673621
v -0.01015669 0.05837312 -0.00676482
v -0.01017103 0.05829450 -0.00686312
v -0.00942497 0.05914497 -0.00686312
v -0.00949937 0.05906457 -0.00686312
v -0.00960176 0.05902407 -0.00673621
v -0.00970756 0.05897464 -0.00661296
v -0.00973213 0.05900204 -0.00651282
v -0.00974988 0.05902229 -0.00643616
v -0.00970961 0.05912830 -0.00631511
v -0.00958606 0.05930697 -0.00622157
v -0.00946047 0.05948266 -0.00613611
v -0.00929119 0.05991266 -0.00563248
v -0.00977582 0.05922776 -0.00597288
v -0.00990209 0.05932364 -0.00550556
v -0.00960039 0.05992279 -0.00493591
v -0.01002496 0.05929506 -0.00529722
v -0.01004817 0.05931947 -0.00519744
v -0.01019492 0.05916582 -0.00519011
v -0.01021881 0.05919143 -0.00508557
v -0.01017103 0.05929029 -0.00498653
v -0.01010823 0.05937844 -0.00494031
v -0.00977718 0.05980069 -0.00478589
v -0.01015806 0.05957676 -0.00433581
v -0.01008298 0.05965597 -0.00433581
v -0.01046454 0.05913306 -0.00463586
v -0.01048024 0.05915033 -0.00455846
v -0.01027751 0.05939452 -0.00448584
v -0.01045020 0.05926826 -0.00433581
v -0.01032188 0.05944157 -0.00423054
v -0.01033758 0.05945824 -0.00413040
v -0.01030345 0.05957199 -0.00388574
v -0.01049867 0.05916999 -0.00445832
v -0.01064337 0.05901514 -0.00444512
v -0.01056215 0.05908303 -0.00450198
v -0.01062563 0.05899489 -0.00454526
v -0.01067409 0.05890079 -0.00463586
v -0.01074917 0.05881324 -0.00463586
v -0.01081197 0.05873820 -0.00463586
v -0.01088705 0.05864767 -0.00463586
v -0.01094917 0.05857263 -0.00463586
v -0.01103244 0.05846900 -0.00464026
v -0.01107544 0.05839396 -0.00469308
v -0.01123790 0.05814918 -0.00478589
v -0.01085224 0.05817122 -0.00567650
v -0.01112118 0.05815097 -0.00508557
v -0.01109797 0.05812119 -0.00519965
v -0.01123790 0.05780911 -0.00546155
v -0.01123790 0.05783651 -0.00540873
v -0.01115872 0.05817836 -0.00494068
v -0.01095395 0.05827842 -0.00523559
v -0.01109865 0.05827246 -0.00490326
v -0.01081811 0.05859586 -0.00493591
v -0.01075600 0.05867090 -0.00493591
v -0.01073143 0.05862206 -0.00509107
v -0.01075463 0.05851903 -0.00523559
v -0.01077238 0.05839039 -0.00544064
v -0.01077033 0.05823792 -0.00573629
v -0.01067341 0.05829986 -0.00583606
v -0.01062767 0.05839694 -0.00575243
v -0.01060788 0.05837490 -0.00583606
v -0.01048024 0.05840051 -0.00605945
v -0.01046249 0.05837967 -0.00613611
v -0.00987684 0.05884600 -0.00650145
v -0.00999765 0.05866316 -0.00658618
v -0.01021062 0.05858454 -0.00628613
v -0.00989663 0.05871855 -0.00669036
v -0.01003997 0.05856132 -0.00667789
v -0.01009868 0.05846722 -0.00672154
v -0.01005704 0.05843089 -0.00685872
v -0.01005567 0.05842969 -0.00686312
v -0.00956900 0.05898774 -0.00686312
v -0.00958196 0.05900263 -0.00681324
v -0.00975193 0.05887458 -0.00670209
v -0.00992257 0.05874773 -0.00658618
v -0.00990005 0.05887280 -0.00640131
v -0.01002359 0.05884302 -0.00619480
v -0.00987889 0.05899846 -0.00620544
v -0.01002564 0.05914497 -0.00559837
v -0.00975124 0.05917296 -0.00613611
v -0.00992940 0.05905445 -0.00598608
v -0.01031778 0.05898655 -0.00528108
v -0.01025635 0.05907648 -0.00523559
v -0.01007479 0.05919798 -0.00538562
v -0.01043723 0.05895379 -0.00508557
v -0.01031778 0.05913663 -0.00497846
v -0.01035806 0.05918011 -0.00478589
v -0.01043314 0.05909911 -0.00478589
v -0.01058808 0.05892461 -0.00480056
v -0.01060788 0.05897583 -0.00463586
v -0.01065088 0.05887339 -0.00476021
v -0.01077443 0.05869294 -0.00484237
v -0.01079286 0.05871497 -0.00474223
v -0.01097579 0.05848032 -0.00477561
v -0.01105906 0.05837431 -0.00478589
v -0.01111981 0.05829927 -0.00478589
v -0.01119490 0.05820397 -0.00478589
v -0.01123790 0.05810868 -0.00488015
v -0.01123790 0.05784842 -0.00538562
v -0.01123790 0.05806640 -0.00496269
v -0.01091640 0.05853273 -0.00481890
v -0.01063109 0.05885076 -0.00486035
v -0.01068091 0.05875785 -0.00493591
v -0.01064883 0.05872093 -0.00508557
v -0.01065225 0.05857561 -0.00535701
v -0.01062972 0.05854940 -0.00545678
v -0.01060856 0.05867566 -0.00526127
v -0.01035942 0.05873284 -0.00568603
v -0.01045976 0.05852677 -0.00586430
v -0.01010755 0.05877810 -0.00613904
v -0.01044065 0.05847674 -0.00600002
v -0.01050413 0.05842672 -0.00595931
v -0.01004475 0.05871616 -0.00638994
v -0.00972667 0.05884600 -0.00680223
v -0.00987001 0.05868877 -0.00679050
v -0.00986182 0.05865422 -0.00686312
v -0.00962497 0.05892461 -0.00686312
v -0.01019355 0.05886506 -0.00578727
v -0.01034031 0.05886089 -0.00547952
v -0.01036215 0.05888471 -0.00538562
v -0.01050617 0.05887875 -0.00508557
v -0.01046385 0.05898179 -0.00496929
v -0.01061470 0.05883289 -0.00493591
v -0.01058126 0.05879597 -0.00508557
v -0.01063177 0.05870127 -0.00516113
v -0.00972189 0.05881443 -0.00686312
v -0.01048638 0.05885672 -0.00517177
f 1 2 3
f 1 3 4
f 1 4 5
f 1 5 6
f 1 6 7
f 1 7 17
f 1 17 15
f 1 15 14
f 1 14 26
f 1 26 50
f 1 50 45
f 1 45 44
f 1 44 43
f 1 43 42
f 1 42 41
f 1 41 40
f 1 40 62
f 1 62 37
f 1 37 61
f 1 61 59
f 1 59 35
f 1 35 58
f 1 58 74
f 1 74 96
f 1 96 118
f 1 118 117
f 1 117 147
f 1 147 188
f 1 188 251
f 1 251 323
f 1 323 250
f 1 250 325
f 1 325 324
f 1 324 328
f 1 328 408
f 1 408 488
f 1 488 566
f 1 566 634
f 1 634 679
f 1 679 689
f 1 689 680
f 1 680 635
f 1 635 568
f 1 568 567
f 1 567 489
f 1 489 411
f 1 411 339
f 1 339 331
f 1 331 330
f 1 330 257
f 1 257 329
f 1 329 253
f 1 253 252
f 1 252 191
f 1 191 190
f 1 190 149
f 1 149 120
f 1 120 97
f 1 97 78
f 1 78 66
f 1 66 64
f 1 64 51
f 1 51 30
f 1 30 29
f 1 29 20
f 1 20 8
f 1 8 21
f 1 21 31
f 1 31 53
f 1 53 65
f 1 65 68
f 1 68 82
f 1 82 103
f 1 103 131
f 1 131 157
f 1 157 204
f 1 204 203
f 1 203 202
f 1 202 267
f 1 267 266
f 1 266 346
f 1 346 352
f 1 352 351
f 1 351 350
f 1 350 421
f 1 421 420
f 1 420 365
f 1 365 279
f 1 279 216
f 1 216 215
f 1 215 164
f 1 164 132
f 1 132 106
f 1 106 105
f 1 105 84
f 1 84 70
f 1 70 63
f 1 63 47
f 1 47 46
f 1 46 32
f 1 32 22
f 1 22 12
f 1 12 11
f 1 11 10
f 1 10 9
f 1 9 2
f 2 9 3
f 3 9 4
f 4 9 10
f 4 10 11
f 4 11 12
f 4 12 13
f 4 13 5
f 5 14 15
f 5 15 16
f 5 16 17
f 5 17 6
f 5 13 18
f 5 18 19
f 5 19 14
f 6 17 7
f 8 20 21
f 12 22 23
f 12 23 24
f 12 24 13
f 13 24 18
f 14 19 25
f 14 25 26
f 15 17 16
f 18 24 27
f 18 27 19
f 19 27 28
f 19 28 25
f 20 29 21
f 21 29 30
f 21 30 31
f 22 32 33
f 22 33 23
f 23 34 55
f 23 55 72
f 23 72 91
f 23 91 110
f 23 110 138
f 23 138 139
f 23 139 177
f 23 177 237
f 23 237 310
f 23 310 393
f 23 393 467
f 23 467 541
f 23 541 540
f 23 540 607
f 23 607 661
f 23 661 663
f 23 663 662
f 23 662 612
f 23 612 611
f 23 611 549
f 23 549 548
f 23 548 471
f 23 471 468
f 23 468 394
f 23 394 316
f 23 316 315
f 23 315 312
f 23 312 241
f 23 241 240
f 23 240 189
f 23 189 148
f 23 148 140
f 23 140 112
f 23 112 92
f 23 92 73
f 23 73 58
f 23 58 35
f 23 35 59
f 23 59 75
f 23 75 77
f 23 77 76
f 23 76 60
f 23 60 36
f 23 36 37
f 23 37 38
f 23 38 39
f 23 39 40
f 23 40 41
f 23 41 42
f 23 42 43
f 23 43 44
f 23 44 45
f 23 45 25
f 23 25 28
f 23 28 24
f 23 33 46
f 23 46 47
f 23 47 48
f 23 48 49
f 23 49 34
f 24 28 27
f 25 45 50
f 25 50 26
f 30 51 31
f 31 51 52
f 31 52 53
f 32 46 33
f 34 54 69
f 34 69 83
f 34 83 87
f 34 87 86
f 34 86 85
f 34 85 106
f 34 106 132
f 34 132 163
f 34 163 218
f 34 218 297
f 34 297 295
f 34 295 380
f 34 380 379
f 34 379 378
f 34 378 377
f 34 377 456
f 34 456 455
f 34 455 454
f 34 454 530
f 34 530 529
f 34 529 457
f 34 457 382
f 34 382 381
f 34 381 301
f 34 301 299
f 34 299 227
f 34 227 171
f 34 171 226
f 34 226 224
f 34 224 168
f 34 168 135
f 34 135 109
f 34 109 89
f 34 89 71
f 34 71 55
f 34 49 56
f 34 56 57
f 34 57 54
f 36 60 61
f 36 61 37
f 37 62 38
f 38 62 39
f 39 62 40
f 47 63 48
f 48 63 57
f 48 57 56
f 48 56 49
f 51 64 52
f 52 65 53
f 52 64 66
f 52 66 67
f 52 67 68
f 52 68 65
f 54 57 70
f 54 70 69
f 55 71 72
f 57 63 70
f 58 73 74
f 59 61 75
f 60 76 61
f 61 76 77
f 61 77 75
f 66 78 79
f 66 79 80
f 66 80 81
f 66 81 67
f 67 81 82
f 67 82 68
f 69 70 83
f 70 84 85
f 70 85 86
f 70 86 87
f 70 87 83
f 71 88 72
f 71 89 90
f 71 90 88
f 72 88 91
f 73 92 93
f 73 93 94
f 73 94 95
f 73 95 74
f 74 95 96
f 78 97 79
f 79 98 80
f 79 97 99
f 79 99 100
f 79 100 101
f 79 101 98
f 80 82 81
f 80 98 101
f 80 101 102
f 80 102 82
f 82 102 104
f 82 104 103
f 84 105 85
f 85 105 106
f 88 107 91
f 88 90 108
f 88 108 107
f 89 109 90
f 90 109 108
f 91 107 111
f 91 111 110
f 92 112 113
f 92 113 93
f 93 113 94
f 94 114 115
f 94 115 116
f 94 116 117
f 94 117 118
f 94 118 96
f 94 96 95
f 94 113 119
f 94 119 114
f 97 120 121
f 97 121 99
f 99 122 123
f 99 123 124
f 99 124 125
f 99 125 101
f 99 101 100
f 99 121 120
f 99 120 126
f 99 126 122
f 101 125 127
f 101 127 128
f 101 128 129
f 101 129 102
f 102 129 104
f 103 104 130
f 103 130 131
f 104 129 128
f 104 128 130
f 107 108 133
f 107 133 111
f 108 134 133
f 108 109 135
f 108 135 136
f 108 136 137
f 108 137 134
f 110 111 138
f 111 139 138
f 111 133 139
f 112 140 113
f 113 140 119
f 114 141 142
f 114 142 143
f 114 143 144
f 114 144 145
f 114 145 146
f 114 146 115
f 114 119 141
f 115 146 116
f 116 146 117
f 117 146 147
f 119 140 148
f 119 148 141
f 120 149 126
f 122 150 151
f 122 151 152
f 122 152 123
f 122 126 150
f 123 152 153
f 123 153 124
f 124 153 154
f 124 154 155
f 124 155 128
f 124 128 125
f 125 128 127
f 126 149 150
f 128 156 157
f 128 157 158
f 128 158 130
f 128 155 159
f 128 159 160
f 128 160 156
f 130 158 131
f 131 158 157
f 132 161 162
f 132 162 163
f 132 164 161
f 133 134 167
f 133 167 165
f 133 165 166
f 133 166 139
f 134 137 167
f 135 168 136
f 136 168 137
f 137 169 170
f 137 170 171
f 137 171 172
f 137 172 173
f 137 173 174
f 137 174 175
f 137 175 176
f 137 176 167
f 137 168 169
f 139 166 178
f 139 178 179
f 139 179 177
f 141 180 142
f 141 148 181
f 141 181 180
f 142 180 182
f 142 182 144
f 142 144 143
f 144 183 146
f 144 146 145
f 144 182 184
f 144 184 185
f 144 185 186
f 144 186 187
f 144 187 183
f 146 183 188
f 146 188 147
f 148 189 181
f 149 190 150
f 150 190 151
f 151 191 192
f 151 192 152
f 151 190 191
f 152 193 194
f 152 194 153
f 152 192 193
f 153 195 154
f 153 194 196
f 153 196 195
f 154 160 159
f 154 159 155
f 154 195 197
f 154 197 198
f 154 198 160
f 156 160 199
f 156 199 200
f 156 200 201
f 156 201 202
f 156 202 203
f 156 203 204
f 156 204 157
f 160 198 205
f 160 205 206
f 160 206 207
f 160 207 208
f 160 208 199
f 161 209 210
f 161 210 211
f 161 211 212
f 161 212 213
f 161 213 214
f 161 214 162
f 161 164 215
f 161 215 216
f 161 216 217
f 161 217 209
f 162 214 218
f 162 218 163
f 165 167 176
f 165 176 219
f 165 219 220
f 165 220 221
f 165 221 222
f 165 222 166
f 166 222 223
f 166 223 178
f 168 224 225
f 168 225 170
f 168 170 169
f 170 225 171
f 171 225 226
f 171 227 172
f 172 227 173
f 173 227 228
f 173 228 229
f 173 229 230
f 173 230 174
f 174 230 231
f 174 231 175
f 175 231 232
f 175 232 233
f 175 233 176
f 176 233 234
f 176 234 235
f 176 235 219
f 177 236 237
f 177 179 238
f 177 238 236
f 178 223 239
f 178 239 179
f 179 239 238
f 180 181 240
f 180 240 241
f 180 241 242
f 180 242 243
f 180 243 182
f 181 189 240
f 182 243 185
f 182 185 184
f 183 187 188
f 185 243 244
f 185 244 245
f 185 245 246
f 185 246 247
f 185 247 186
f 186 248 187
f 186 247 246
f 186 246 249
f 186 249 250
f 186 250 248
f 187 248 188
f 188 248 251
f 191 252 192
f 192 252 253
f 192 253 254
f 192 254 255
f 192 255 256
f 192 256 193
f 193 256 194
f 194 256 255
f 194 255 257
f 194 257 258
f 194 258 259
f 194 259 260
f 194 260 196
f 195 196 197
f 196 261 197
f 196 260 262
f 196 262 263
f 196 263 264
f 196 264 265
f 196 265 261
f 197 261 198
f 198 261 205
f 199 208 200
f 200 266 267
f 200 267 201
f 200 208 268
f 200 268 266
f 201 267 202
f 205 261 206
f 206 261 207
f 207 269 270
f 207 270 271
f 207 271 268
f 207 268 208
f 207 261 272
f 207 272 273
f 207 273 274
f 207 274 275
f 207 275 276
f 207 276 277
f 207 277 278
f 207 278 269
f 209 217 279
f 209 279 280
f 209 280 210
f 210 280 211
f 211 280 281
f 211 281 282
f 211 282 283
f 211 283 284
f 211 284 285
f 211 285 286
f 211 286 212
f 212 287 213
f 212 286 288
f 212 288 289
f 212 289 290
f 212 290 291
f 212 291 287
f 213 287 292
f 213 292 293
f 213 293 294
f 213 294 214
f 214 294 295
f 214 295 296
f 214 296 297
f 214 297 218
f 216 279 217
f 219 235 220
f 220 235 221
f 221 298 223
f 221 223 222
f 221 235 298
f 223 298 239
f 224 226 225
f 227 299 229
f 227 229 228
f 229 299 300
f 229 300 230
f 230 300 301
f 230 301 302
f 230 302 231
f 231 302 232
f 232 302 233
f 233 303 304
f 233 304 235
f 233 235 234
f 233 302 303
f 235 304 305
f 235 305 306
f 235 306 307
f 235 307 308
f 235 308 309
f 235 309 238
f 235 238 298
f 236 238 237
f 237 238 311
f 237 311 310
f 238 309 311
f 238 239 298
f 241 312 313
f 241 313 242
f 242 314 243
f 242 313 315
f 242 315 316
f 242 316 314
f 243 314 317
f 243 317 318
f 243 318 244
f 244 318 319
f 244 319 245
f 245 319 320
f 245 320 321
f 245 321 322
f 245 322 246
f 246 322 249
f 248 323 251
f 248 250 323
f 249 324 325
f 249 325 250
f 249 322 326
f 249 326 327
f 249 327 328
f 249 328 324
f 253 329 254
f 254 329 255
f 255 329 257
f 257 330 258
f 258 330 331
f 258 331 332
f 258 332 333
f 258 333 259
f 259 333 332
f 259 332 260
f 260 332 334
f 260 334 262
f 261 265 335
f 261 335 336
f 261 336 337
f 261 337 338
f 261 338 272
f 262 334 332
f 262 332 339
f 262 339 340
f 262 340 264
f 262 264 263
f 264 340 341
f 264 341 342
f 264 342 343
f 264 343 344
f 264 344 345
f 264 345 265
f 265 345 344
f 265 344 335
f 266 268 346
f 268 271 346
f 269 347 348
f 269 348 349
f 269 349 270
f 269 278 347
f 270 349 271
f 271 349 350
f 271 350 351
f 271 351 352
f 271 352 346
f 272 338 273
f 273 338 274
f 274 338 353
f 274 353 354
f 274 354 355
f 274 355 356
f 274 356 276
f 274 276 275
f 276 356 357
f 276 357 358
f 276 358 359
f 276 359 360
f 276 360 361
f 276 361 362
f 276 362 277
f 277 362 283
f 277 283 363
f 277 363 278
f 278 363 364
f 278 364 348
f 278 348 347
f 279 365 366
f 279 366 281
f 279 281 280
f 281 366 282
f 282 366 283
f 283 362 284
f 283 366 363
f 284 362 367
f 284 367 368
f 284 368 286
f 284 286 285
f 286 368 369
f 286 369 370
f 286 370 371
f 286 371 372
f 286 372 373
f 286 373 288
f 287 291 292
f 288 373 289
f 289 373 290
f 290 373 374
f 290 374 375
f 290 375 291
f 291 375 292
f 292 375 376
f 292 376 377
f 292 377 378
f 292 378 294
f 292 294 293
f 294 378 379
f 294 379 380
f 294 380 295
f 295 297 296
f 299 301 300
f 301 381 302
f 302 381 382
f 302 382 383
f 302 383 384
f 302 384 303
f 303 384 304
f 304 385 305
f 304 384 385
f 305 385 386
f 305 386 387
f 305 387 388
f 305 388 306
f 306 388 307
f 307 388 389
f 307 389 308
f 308 389 309
f 309 389 390
f 309 390 391
f 309 391 392
f 309 392 311
f 310 311 392
f 310 392 393
f 312 315 313
f 314 316 394
f 314 394 395
f 314 395 396
f 314 396 397
f 314 397 398
f 314 398 317
f 317 398 399
f 317 399 400
f 317 400 401
f 317 401 402
f 317 402 319
f 317 319 318
f 319 402 320
f 320 403 404
f 320 404 483
f 320 483 405
f 320 405 321
f 320 402 403
f 321 405 406
f 321 406 322
f 322 406 326
f 326 406 327
f 327 406 407
f 327 407 408
f 327 408 328
f 331 339 332
f 335 344 409
f 335 409 336
f 336 409 337
f 337 409 410
f 337 410 338
f 338 410 353
f 339 411 412
f 339 412 413
f 339 413 340
f 340 413 341
f 341 413 412
f 341 412 414
f 341 414 415
f 341 415 416
f 341 416 417
f 341 417 418
f 341 418 343
f 341 343 342
f 343 418 344
f 344 418 409
f 348 364 419
f 348 419 420
f 348 420 349
f 349 420 421
f 349 421 350
f 353 422 423
f 353 423 424
f 353 424 425
f 353 425 426
f 353 426 354
f 353 410 427
f 353 427 422
f 354 357 356
f 354 356 355
f 354 426 358
f 354 358 357
f 358 428 429
f 358 429 359
f 358 426 425
f 358 425 430
f 358 430 505
f 358 505 431
f 358 431 428
f 359 429 360
f 360 432 433
f 360 433 361
f 360 429 434
f 360 434 435
f 360 435 436
f 360 436 437
f 360 437 432
f 361 433 509
f 361 509 438
f 361 438 367
f 361 367 362
f 363 366 364
f 364 366 419
f 365 420 366
f 366 420 419
f 367 438 439
f 367 439 440
f 367 440 369
f 367 369 368
f 369 440 439
f 369 439 441
f 369 441 442
f 369 442 443
f 369 443 444
f 369 444 370
f 370 444 445
f 370 445 446
f 370 446 371
f 371 446 372
f 372 446 447
f 372 447 373
f 373 447 448
f 373 448 449
f 373 449 450
f 373 450 451
f 373 451 384
f 373 384 452
f 373 452 453
f 373 453 374
f 374 453 454
f 374 454 375
f 375 455 456
f 375 456 376
f 375 454 455
f 376 456 377
f 382 457 452
f 382 452 383
f 383 452 384
f 384 451 458
f 384 458 385
f 385 458 459
f 385 459 460
f 385 460 461
f 385 461 386
f 386 461 462
f 386 462 388
f 386 388 387
f 388 463 464
f 388 464 389
f 388 462 463
f 389 464 390
f 390 464 465
f 390 465 391
f 391 465 466
f 391 466 467
f 391 467 393
f 391 393 392
f 394 468 395
f 395 468 396
f 396 469 470
f 396 470 397
f 396 468 471
f 396 471 472
f 396 472 469
f 397 470 473
f 397 473 398
f 398 473 474
f 398 474 475
f 398 475 476
f 398 476 477
f 398 477 399
f 399 477 400
f 400 477 478
f 400 478 401
f 401 479 403
f 401 403 402
f 401 478 480
f 401 480 481
f 401 481 479
f 403 479 482
f 403 482 404
f 404 482 483
f 405 483 484
f 405 484 485
f 405 485 406
f 406 485 486
f 406 486 487
f 406 487 407
f 407 487 408
f 408 487 488
f 409 418 422
f 409 422 410
f 410 422 427
f 411 489 412
f 412 489 490
f 412 490 491
f 412 491 492
f 412 492 414
f 414 492 415
f 415 492 491
f 415 491 493
f 415 493 494
f 415 494 416
f 416 495 417
f 416 494 496
f 416 496 495
f 417 495 497
f 417 497 498
f 417 498 418
f 418 498 499
f 418 499 423
f 418 423 422
f 423 499 500
f 423 500 424
f 424 501 425
f 424 500 501
f 425 500 502
f 425 502 503
f 425 503 430
f 425 501 500
f 428 431 504
f 428 504 435
f 428 435 429
f 429 435 434
f 430 503 502
f 430 502 506
f 430 506 507
f 430 507 505
f 431 505 508
f 431 508 504
f 432 437 433
f 433 437 509
f 435 504 510
f 435 510 511
f 435 511 512
f 435 512 436
f 436 512 590
f 436 590 513
f 436 513 514
f 436 514 515
f 436 515 437
f 437 515 516
f 437 516 517
f 437 517 509
f 438 509 439
f 439 509 518
f 439 518 519
f 439 519 441
f 441 519 520
f 441 520 521
f 441 521 442
f 442 521 522
f 442 522 444
f 442 444 443
f 444 522 523
f 444 523 445
f 445 523 524
f 445 524 449
f 445 449 525
f 445 525 446
f 446 525 526
f 446 526 447
f 447 526 448
f 448 526 449
f 449 524 527
f 449 527 450
f 449 526 525
f 450 527 451
f 451 527 528
f 451 528 459
f 451 459 458
f 452 457 453
f 453 457 529
f 453 529 530
f 453 530 454
f 459 528 595
f 459 595 531
f 459 531 532
f 459 532 460
f 460 533 461
f 460 532 534
f 460 534 533
f 461 535 536
f 461 536 462
f 461 533 535
f 462 536 537
f 462 537 538
f 462 538 463
f 463 538 539
f 463 539 464
f 464 539 466
f 464 466 465
f 466 540 541
f 466 541 467
f 466 539 540
f 469 542 543
f 469 543 470
f 469 472 544
f 469 544 545
f 469 545 546
f 469 546 547
f 469 547 542
f 470 543 473
f 471 548 472
f 472 548 549
f 472 549 544
f 473 543 550
f 473 550 474
f 474 550 475
f 475 550 551
f 475 551 552
f 475 552 476
f 476 552 553
f 476 553 554
f 476 554 477
f 477 554 478
f 478 554 555
f 478 555 556
f 478 556 480
f 479 481 482
f 480 556 557
f 480 557 481
f 481 558 559
f 481 559 482
f 481 557 560
f 481 560 561
f 481 561 558
f 482 559 483
f 483 559 484
f 484 559 562
f 484 562 563
f 484 563 564
f 484 564 485
f 485 564 486
f 486 564 487
f 487 564 563
f 487 563 565
f 487 565 566
f 487 566 488
f 489 567 490
f 490 567 568
f 490 568 569
f 490 569 493
f 490 493 491
f 493 569 570
f 493 570 571
f 493 571 494
f 494 571 572
f 494 572 573
f 494 573 574
f 494 574 575
f 494 575 496
f 495 576 497
f 495 496 575
f 495 575 576
f 497 500 499
f 497 499 498
f 497 576 500
f 500 576 575
f 500 575 574
f 500 574 502
f 502 574 577
f 502 577 578
f 502 578 506
f 504 508 579
f 504 579 586
f 504 586 510
f 505 507 508
f 506 578 580
f 506 580 581
f 506 581 507
f 507 581 582
f 507 582 583
f 507 583 508
f 508 583 584
f 508 584 585
f 508 585 586
f 508 586 579
f 509 517 587
f 509 587 588
f 509 588 518
f 510 586 589
f 510 589 590
f 510 590 511
f 511 590 512
f 513 590 591
f 513 591 514
f 514 591 515
f 515 591 516
f 516 591 533
f 516 533 592
f 516 592 517
f 517 592 587
f 518 520 519
f 518 588 593
f 518 593 520
f 520 522 521
f 520 593 522
f 522 593 594
f 522 594 523
f 523 594 532
f 523 532 531
f 523 531 595
f 523 595 524
f 524 595 527
f 527 595 528
f 532 594 534
f 533 534 593
f 533 593 592
f 533 591 596
f 533 596 535
f 534 594 593
f 535 597 536
f 535 596 598
f 535 598 597
f 536 597 537
f 537 597 599
f 537 599 600
f 537 600 601
f 537 601 602
f 537 602 603
f 537 603 604
f 537 604 605
f 537 605 538
f 538 605 539
f 539 605 606
f 539 606 607
f 539 607 540
f 542 547 543
f 543 547 608
f 543 608 550
f 544 609 610
f 544 610 545
f 544 549 611
f 544 611 612
f 544 612 613
f 544 613 609
f 545 614 546
f 545 610 609
f 545 609 613
f 545 613 615
f 545 615 547
f 545 547 614
f 546 614 547
f 547 616 617
f 547 617 618
f 547 618 619
f 547 619 608
f 547 615 616
f 550 620 621
f 550 621 551
f 550 608 620
f 551 621 619
f 551 619 618
f 551 618 622
f 551 622 552
f 552 622 623
f 552 623 624
f 552 624 625
f 552 625 626
f 552 626 560
f 552 560 557
f 552 557 553
f 553 555 554
f 553 557 555
f 555 557 556
f 558 561 562
f 558 562 559
f 560 627 628
f 560 628 561
f 560 626 625
f 560 625 629
f 560 629 627
f 561 628 630
f 561 630 631
f 561 631 562
f 562 631 632
f 562 632 565
f 562 565 563
f 565 632 633
f 565 633 566
f 566 633 634
f 568 635 636
f 568 636 569
f 569 636 630
f 569 630 637
f 569 637 570
f 570 637 630
f 570 630 638
f 570 638 627
f 570 627 571
f 571 627 639
f 571 639 640
f 571 640 572
f 572 640 641
f 572 641 573
f 573 642 643
f 573 643 574
f 573 641 644
f 573 644 645
f 573 645 646
f 573 646 642
f 574 643 577
f 577 643 647
f 577 647 578
f 578 647 580
f 580 647 582
f 580 582 581
f 582 646 648
f 582 648 649
f 582 649 583
f 582 647 642
f 582 642 646
f 583 649 584
f 584 649 585
f 585 649 650
f 585 650 589
f 585 589 586
f 587 592 593
f 587 593 588
f 589 650 649
f 589 649 651
f 589 651 652
f 589 652 590
f 590 652 653
f 590 653 599
f 590 599 598
f 590 598 596
f 590 596 591
f 597 598 599
f 599 653 654
f 599 654 600
f 600 654 601
f 601 654 655
f 601 655 656
f 601 656 602
f 602 656 657
f 602 657 603
f 603 657 604
f 604 657 658
f 604 658 606
f 604 606 605
f 606 659 660
f 606 660 607
f 606 658 659
f 607 660 661
f 608 619 620
f 612 662 613
f 613 662 663
f 613 663 661
f 613 661 615
f 615 661 659
f 615 659 658
f 615 658 657
f 615 657 664
f 615 664 617
f 615 617 616
f 617 664 655
f 617 655 665
f 617 665 666
f 617 666 667
f 617 667 618
f 618 667 668
f 618 668 622
f 619 621 620
f 622 668 623
f 623 668 669
f 623 669 670
f 623 670 671
f 623 671 672
f 623 672 673
f 623 673 674
f 623 674 675
f 623 675 624
f 624 675 625
f 625 675 629
f 627 638 628
f 627 629 676
f 627 676 673
f 627 673 640
f 627 640 639
f 628 638 630
f 629 675 674
f 629 674 673
f 629 673 676
f 630 636 677
f 630 677 678
f 630 678 631
f 631 678 679
f 631 679 632
f 632 679 633
f 633 679 634
f 635 680 677
f 635 677 636
f 640 673 671
f 640 671 670
f 640 670 681
f 640 681 641
f 641 681 682
f 641 682 683
f 641 683 645
f 641 645 644
f 642 647 643
f 645 683 684
f 645 684 646
f 646 684 648
f 648 684 649
f 649 684 685
f 649 685 665
f 649 665 652
f 649 652 651
f 652 665 654
f 652 654 653
f 654 665 655
f 655 664 656
f 656 664 657
f 659 661 660
f 665 686 666
f 665 685 686
f 666 686 667
f 667 686 687
f 667 687 688
f 667 688 668
f 668 688 670
f 668 670 669
f 670 688 687
f 670 687 682
f 670 682 681
f 671 673 672
f 677 680 689
f 677 689 679
f 677 679 678
f 682 687 683
f 683 687 690
f 683 690 684
f 684 687 686
f 684 686 685
f 684 690 687

