# https://github.com/mikedh/trimesh
v -0.00017943 0.01747675 0.01517071
v -0.00017943 0.01747675 0.01519479
v -0.00017943 0.01750088 0.01502101
v 0.00823345 0.01684252 0.01091552
v -0.00017943 0.01748364 0.01532105
v 0.00823345 0.01684252 0.01093049
v -0.00017943 0.01755603 0.01492013
v 0.00823345 0.01687699 0.01080032
v 0.00823345 0.01686665 0.01082050
v -0.00005261 0.01748020 0.01532105
v -0.00017943 0.01750088 0.01547074
v 0.00823345 0.01687699 0.01111988
v 0.00759935 0.01703210 0.01217034
v 0.00744948 0.01705278 0.01232068
v 0.00714890 0.01707002 0.01247037
v 0.00384913 0.01726649 0.01412025
v 0.00369843 0.01726649 0.01412025
v 0.00294822 0.01732853 0.01457063
v -0.00017943 0.01766288 0.01485180
v 0.00823345 0.01695627 0.01072677
v 0.00279835 0.01734921 0.01472098
v -0.00005261 0.01750088 0.01547074
v -0.00017943 0.01750777 0.01548962
v 0.00823345 0.01690801 0.01126762
v 0.00774923 0.01701487 0.01202064
v 0.00759935 0.01706657 0.01232068
v 0.00729877 0.01707691 0.01247037
v 0.00632787 0.01713895 0.01299560
v 0.00384913 0.01728372 0.01421332
v 0.00354855 0.01729406 0.01431550
v 0.00309810 0.01732853 0.01457063
v -0.00017943 0.01801791 0.01464743
v 0.00823345 0.01701487 0.01070139
v -0.00017943 0.01810064 0.01459992
v -0.00017943 0.01822128 0.01453418
v -0.00017943 0.01830400 0.01448928
v -0.00017943 0.01841430 0.01443396
v -0.00017943 0.01854184 0.01437148
v -0.00017943 0.01870040 0.01429468
v -0.00017943 0.01943114 0.01394192
v -0.00017943 0.02045142 0.01345119
v -0.00017943 0.02082713 0.01327741
v -0.00017943 0.02105807 0.01317133
v -0.00017943 0.02114080 0.01313358
v 0.00324880 0.01733887 0.01457063
v 0.00294822 0.01735955 0.01472098
v 0.00264847 0.01738713 0.01487067
v 0.00249859 0.01738024 0.01487067
v 0.00204814 0.01743194 0.01510497
v 0.00009727 0.01750432 0.01547074
v -0.00017943 0.01754913 0.01559896
v 0.00823345 0.01694593 0.01141992
v 0.00774923 0.01704933 0.01217034
v 0.00759935 0.01711138 0.01244174
v 0.00746183 0.01710104 0.01248404
v 0.00729877 0.01711483 0.01259729
v 0.00711678 0.01712861 0.01271184
v 0.00699902 0.01712172 0.01273266
v 0.00678903 0.01713551 0.01285046
v 0.00669927 0.01713206 0.01286283
v 0.00642751 0.01714240 0.01297998
v 0.00395207 0.01728717 0.01420291
v 0.00369843 0.01729751 0.01430444
v 0.00823345 0.01707002 0.01068903
v -0.00017943 0.02115458 0.01312837
v -0.00017943 0.02126488 0.01308737
v -0.00017943 0.02141655 0.01304767
v 0.00339868 0.01735611 0.01457063
v 0.00405089 0.01729062 0.01418664
v 0.00309810 0.01737679 0.01472098
v 0.00249859 0.01741470 0.01497611
v 0.00213213 0.01743883 0.01509781
v 0.00099735 0.01754224 0.01543104
v 0.00084747 0.01753535 0.01544341
v -0.00005261 0.01754913 0.01559050
v -0.00017943 0.01762496 0.01567380
v 0.00823345 0.01698040 0.01155204
v 0.00804898 0.01699763 0.01175510
v 0.00789911 0.01703899 0.01202064
v 0.00805887 0.01709070 0.01203041
v 0.00774511 0.01710448 0.01231938
v 0.00769241 0.01712861 0.01240919
v 0.00752030 0.01713895 0.01254327
v 0.00742065 0.01712517 0.01256800
v 0.00721725 0.01714240 0.01269166
v 0.00633693 0.01728372 0.01330084
v 0.00624881 0.01727338 0.01331972
v 0.00549860 0.01731474 0.01369655
v 0.00534873 0.01729751 0.01372649
v 0.00493533 0.01729406 0.01388139
v 0.00439676 0.01728372 0.01405387
v 0.00823345 0.01796276 0.01058424
v -0.00017943 0.02154753 0.01301903
v -0.00017943 0.02157510 0.01301317
v -0.00017943 0.02162336 0.01300341
v -0.00017943 0.02168540 0.01299300
v 0.00414806 0.01734232 0.01427060
v 0.00384913 0.01736300 0.01442029
v 0.00309810 0.01742504 0.01481470
v 0.00294822 0.01741126 0.01483813
v 0.00264847 0.01742849 0.01495723
v 0.00272917 0.01743883 0.01494682
v 0.00174838 0.01754224 0.01528070
v 0.00159768 0.01752845 0.01529892
v 0.00114805 0.01755603 0.01541737
v 0.00039784 0.01757671 0.01555535
v 0.00024714 0.01756292 0.01556772
v 0.00009727 0.01755603 0.01557943
v 0.00048596 0.01758705 0.01554819
v -0.00005261 0.01764565 0.01566534
v -0.00017943 0.01770080 0.01571546
v 0.00823345 0.01699763 0.01161517
v 0.00804898 0.01702865 0.01187030
v 0.00821368 0.01708380 0.01188527
v 0.00817333 0.01711483 0.01198745
v 0.00801522 0.01711827 0.01212738
v 0.00785381 0.01712172 0.01226861
v 0.00811486 0.01714585 0.01208703
v 0.00795346 0.01715274 0.01222696
v 0.00779205 0.01716308 0.01236884
v 0.00774264 0.01721823 0.01246517
v 0.00769241 0.01727338 0.01255954
v 0.00759935 0.01716653 0.01251658
v 0.00664574 0.01728028 0.01315571
v 0.00752359 0.01729062 0.01269426
v 0.00742148 0.01740781 0.01287910
v 0.00734654 0.01745951 0.01297933
v 0.00729301 0.01736645 0.01291620
v 0.00714890 0.01740092 0.01303530
v 0.00723866 0.01728028 0.01285307
v 0.00647198 0.01743883 0.01344403
v 0.00617223 0.01743883 0.01359437
v 0.00576542 0.01742504 0.01376489
v 0.00545660 0.01742849 0.01390873
v 0.00550354 0.01739402 0.01383063
v 0.00519144 0.01740436 0.01397577
v 0.00475416 0.01739402 0.01413132
v 0.00459852 0.01735266 0.01412025
v 0.00823345 0.01836605 0.01053803
v -0.00017943 0.02184396 0.01297803
v 0.00823345 0.02107875 0.01024841
v 0.00823345 0.01971723 0.01038899
v 0.00399901 0.01739747 0.01442940
v 0.00318869 0.01743539 0.01480103
v 0.00282882 0.01745951 0.01493185
v 0.00198308 0.01758360 0.01524881
v 0.00189826 0.01756637 0.01526052
v 0.00137369 0.01759050 0.01539590
v 0.00129793 0.01757671 0.01540306
v 0.00058560 0.01760084 0.01553973
v 0.00024714 0.01766288 0.01562759
v -0.00017943 0.01771458 0.01572262
v 0.00823345 0.01702865 0.01171149
v 0.00818816 0.01701487 0.01170824
v 0.00823345 0.01709070 0.01187811
v 0.00823345 0.01710104 0.01190414
v 0.00823345 0.01712861 0.01196207
v 0.00823345 0.01715963 0.01200307
v 0.00823345 0.01718032 0.01202780
v 0.00823345 0.01726304 0.01212087
v 0.00802016 0.01725270 0.01228228
v 0.00795757 0.01730096 0.01238251
v 0.00790734 0.01735611 0.01247688
v 0.00795757 0.01745262 0.01253285
v 0.00768994 0.01742504 0.01270663
v 0.00752194 0.01744228 0.01284330
v 0.00607176 0.01742160 0.01361780
v 0.00705667 0.01744917 0.01313553
v 0.00724689 0.01742849 0.01300797
v 0.00759935 0.01754569 0.01287910
v 0.00768253 0.01758016 0.01285111
v 0.00740748 0.01755947 0.01301448
v 0.00712172 0.01754913 0.01317263
v 0.00693479 0.01758016 0.01330150
v 0.00695620 0.01742160 0.01316287
v 0.00654857 0.01746296 0.01342320
v 0.00605282 0.01756637 0.01376034
v 0.00575471 0.01756637 0.01391003
v 0.00564848 0.01746296 0.01386707
v 0.00586506 0.01744228 0.01374146
v 0.00555625 0.01744573 0.01388790
v 0.00523673 0.01745262 0.01402913
v 0.00513626 0.01743539 0.01404996
v 0.00470804 0.01742849 0.01420877
v 0.00459852 0.01741470 0.01422894
v 0.00414806 0.01740781 0.01439100
v 0.00384913 0.01741815 0.01452377
v -0.00017943 0.02216452 0.01295460
v 0.00823345 0.02151995 0.01021456
v 0.00823345 0.02122352 0.01023669
v 0.00362020 0.01743883 0.01464418
v 0.00328915 0.01745607 0.01478085
v 0.00324304 0.01750777 0.01483032
v 0.00292187 0.01755947 0.01495983
v 0.00245330 0.01757326 0.01510497
v 0.00302151 0.01759050 0.01494486
v 0.00255377 0.01761807 0.01509000
v 0.00209343 0.01766288 0.01523709
v 0.00189826 0.01766288 0.01529437
v 0.00174838 0.01766288 0.01533667
v 0.00147416 0.01761807 0.01538744
v 0.00036079 0.01786969 0.01570374
v 0.00081453 0.01771803 0.01555470
v 0.00069760 0.01769735 0.01556642
v 0.00069760 0.01762152 0.01553062
v 0.00039784 0.01766288 0.01560221
v 0.00013515 0.01775250 0.01569008
v -0.00017943 0.01781454 0.01577273
v 0.00823345 0.01736990 0.01222631
v 0.00812145 0.01744228 0.01239292
v 0.00807039 0.01734577 0.01233760
v 0.00802098 0.01740092 0.01243262
v 0.00779040 0.01746641 0.01266953
v 0.00806710 0.01749743 0.01248469
v 0.00801275 0.01755258 0.01257451
v 0.00784723 0.01756637 0.01271314
v 0.00759935 0.01747330 0.01281532
v 0.00684914 0.01754913 0.01332623
v 0.00670503 0.01750777 0.01337374
v 0.00811322 0.01760428 0.01253611
v 0.00794769 0.01762152 0.01267474
v 0.00823345 0.01778352 0.01256214
v 0.00823345 0.01783523 0.01259599
v 0.00782499 0.01773871 0.01284526
v 0.00773935 0.01768012 0.01286999
v 0.00759853 0.01765943 0.01295330
v 0.00750794 0.01760773 0.01298454
v 0.00722137 0.01759050 0.01314334
v 0.00704431 0.01766288 0.01327807
v 0.00674538 0.01763531 0.01342971
v 0.00664574 0.01757326 0.01345640
v 0.00654857 0.01753879 0.01348178
v 0.00624881 0.01753535 0.01363472
v 0.00634928 0.01756982 0.01360869
v 0.00644892 0.01762841 0.01358266
v 0.00615246 0.01762841 0.01373430
v 0.00585518 0.01762841 0.01388595
v 0.00534873 0.01755258 0.01407014
v 0.00564848 0.01753879 0.01393346
v 0.00564848 0.01766288 0.01398748
v 0.00543931 0.01758016 0.01405191
v 0.00459852 0.01748020 0.01430379
v 0.00489827 0.01753879 0.01423675
v 0.00459852 0.01755603 0.01436952
v 0.00429794 0.01742504 0.01436302
v -0.00017943 0.02439122 0.01279449
v 0.00823345 0.02166817 0.01020545
v -0.00017943 0.02636629 0.01265261
v -0.00017943 0.02741759 0.01257711
v -0.00017943 0.02754512 0.01256800
v -0.00017943 0.02801735 0.01253481
v -0.00017943 0.02844476 0.01250487
v -0.00017943 0.02859298 0.01249510
v 0.00425594 0.01756982 0.01450685
v 0.00381784 0.01756292 0.01466045
v 0.00339868 0.01756292 0.01481079
v 0.00347691 0.01758705 0.01479713
v 0.00324880 0.01766288 0.01488824
v 0.00305198 0.01769046 0.01495463
v 0.00212308 0.01773871 0.01524555
v 0.00174180 0.01781799 0.01537442
v 0.00164792 0.01776974 0.01539004
v 0.00154827 0.01771803 0.01540175
v 0.00159768 0.01766633 0.01537507
v 0.00046125 0.01790072 0.01569333
v 0.00009727 0.01796276 0.01578510
v -0.00005261 0.01796276 0.01581178
v 0.00024714 0.01784557 0.01571481
v 0.00024714 0.01777318 0.01568096
v -0.00005261 0.01781454 0.01575126
v -0.00017943 0.01783867 0.01578250
v 0.00823345 0.01741470 0.01226991
v 0.00823345 0.01752845 0.01237535
v 0.00823345 0.01756982 0.01241115
v 0.00817333 0.01754224 0.01243653
v 0.00823345 0.01762841 0.01245540
v 0.00821451 0.01764565 0.01248339
v 0.00823345 0.01769735 0.01250487
v 0.00823345 0.01774905 0.01253936
v 0.00823345 0.01796276 0.01267604
v 0.00813298 0.01788004 0.01270142
v 0.00816674 0.01796276 0.01272680
v 0.00796581 0.01790072 0.01283875
v 0.00785628 0.01781454 0.01286673
v 0.00764876 0.01776974 0.01297998
v 0.00754830 0.01770769 0.01300927
v 0.00745442 0.01765943 0.01304116
v 0.00726172 0.01769046 0.01316677
v 0.00696937 0.01766288 0.01331907
v 0.00745030 0.01780765 0.01311145
v 0.00782746 0.01803515 0.01299690
v 0.00707314 0.01774216 0.01329434
v 0.00669680 0.01767667 0.01346941
v 0.00648022 0.01772837 0.01359828
v 0.00587906 0.01772837 0.01389767
v 0.00580247 0.01767322 0.01392109
v 0.00690679 0.01792485 0.01343622
v 0.00685326 0.01796965 0.01347397
v 0.00660621 0.01792829 0.01358656
v 0.00609893 0.01781454 0.01380980
v 0.00501768 0.01756637 0.01421267
v 0.00546566 0.01766288 0.01406298
v 0.00511732 0.01760084 0.01419315
v 0.00579836 0.01781454 0.01395299
v 0.00564107 0.01781110 0.01401937
v 0.00556448 0.01775939 0.01404150
v 0.00469157 0.01758016 0.01435260
v 0.00823345 0.02171643 0.01020350
v -0.00017943 0.02919274 0.01245866
v -0.00017943 0.02951675 0.01244174
v -0.00017943 0.02981663 0.01242612
v -0.00017943 0.03474224 0.01217359
v -0.00017943 0.03626576 0.01209549
v -0.00017943 0.04044340 0.01188136
v -0.00017943 0.04568957 0.01161257
v -0.00017943 0.04917093 0.01143424
v -0.00017943 0.05124251 0.01132815
v -0.00017943 0.05157341 0.01131123
v -0.00017943 0.05170095 0.01130472
v -0.00017943 0.05202151 0.01128845
v 0.00391748 0.01760084 0.01464353
v 0.00349667 0.01766288 0.01480363
v 0.00339868 0.01766288 0.01483813
v 0.00323562 0.01782489 0.01491883
v 0.00315163 0.01778008 0.01493901
v 0.00294822 0.01781454 0.01500800
v 0.00279835 0.01781454 0.01505421
v 0.00215355 0.01783867 0.01525532
v 0.00189826 0.01781454 0.01532756
v 0.00178873 0.01796276 0.01538613
v 0.00168662 0.01786969 0.01539980
v 0.00159768 0.01781799 0.01541217
v 0.00108629 0.01788004 0.01554949
v 0.00099735 0.01784557 0.01555991
v 0.00040525 0.01795587 0.01571806
v 0.00024714 0.01796276 0.01575451
v 0.00009727 0.01811442 0.01581764
v -0.00013002 0.01804204 0.01584563
v -0.00017943 0.01796276 0.01583196
v 0.00823345 0.01766633 0.01248274
v 0.00823345 0.01801446 0.01270533
v 0.00810581 0.01806961 0.01283094
v 0.00800534 0.01800068 0.01286739
v 0.00805310 0.01795587 0.01280686
v 0.00789664 0.01796621 0.01292010
v 0.00778876 0.01793519 0.01297347
v 0.00768829 0.01786969 0.01300341
v 0.00805310 0.01811787 0.01288691
v 0.00792381 0.01811442 0.01296631
v 0.00784887 0.01811442 0.01300732
v 0.00753100 0.01802825 0.01314855
v 0.00677668 0.01773527 0.01344663
v 0.00597376 0.01781454 0.01387098
v 0.00589882 0.01781454 0.01390743
v 0.00723125 0.01802481 0.01329889
v 0.00693149 0.01802481 0.01344859
v 0.00662927 0.01802825 0.01359828
v 0.00519555 0.01765599 0.01417297
v 0.00514285 0.01770080 0.01420356
v 0.00479616 0.01766288 0.01433438
v 0.00472122 0.01766288 0.01436366
v 0.00592847 0.01796276 0.01392109
v 0.00579836 0.01796276 0.01397772
v 0.00558589 0.01785935 0.01405061
v 0.00435558 0.01762152 0.01448928
v 0.00823345 0.02181639 0.01019959
v -0.00017943 0.05205598 0.01128715
v 0.00438194 0.01772148 0.01449904
v 0.00394219 0.01770080 0.01465199
v 0.00362349 0.01789038 0.01479582
v 0.00353126 0.01781454 0.01481600
v 0.00339868 0.01781454 0.01486221
v 0.00339868 0.01796276 0.01488499
v 0.00317716 0.01788004 0.01494682
v 0.00310057 0.01782489 0.01496244
v 0.00271764 0.01790072 0.01509391
v 0.00204814 0.01796276 0.01530803
v 0.00189826 0.01796276 0.01535359
v 0.00171380 0.01796276 0.01540761
v 0.00181344 0.01805927 0.01539329
v 0.00175744 0.01811098 0.01541737
v 0.00159768 0.01796276 0.01543885
v 0.00144781 0.01796276 0.01547595
v 0.00119170 0.01796276 0.01553843
v 0.00111676 0.01796276 0.01555665
v 0.00084747 0.01796276 0.01561979
v 0.00069760 0.01796276 0.01565428
v 0.00050819 0.01800068 0.01570439
v 0.00024714 0.01811442 0.01578445
v 0.00024714 0.01826264 0.01580267
v 0.00024714 0.01841430 0.01581829
v 0.00009068 0.01826609 0.01583456
v 0.00000833 0.01821438 0.01584367
v -0.00004602 0.01810064 0.01584042
v -0.00017943 0.01810408 0.01585995
v -0.00017943 0.01809030 0.01585799
v -0.00017943 0.01802825 0.01584888
v 0.00823345 0.01807995 0.01273852
v 0.00813545 0.01816957 0.01285372
v 0.00804898 0.01826264 0.01293182
v 0.00795675 0.01826264 0.01298584
v 0.00774923 0.01811442 0.01305808
v 0.00788181 0.01826264 0.01302424
v 0.00762653 0.01811442 0.01312056
v 0.00755077 0.01811442 0.01315896
v 0.00600423 0.01796276 0.01388595
v 0.00632540 0.01803515 0.01374602
v 0.00732677 0.01811442 0.01327156
v 0.00714890 0.01811442 0.01336007
v 0.00702537 0.01811442 0.01342125
v 0.00695043 0.01811442 0.01345835
v 0.00684914 0.01811442 0.01350781
v 0.00705502 0.01826264 0.01343622
v 0.00664656 0.01811442 0.01360609
v 0.00481839 0.01775250 0.01434349
v 0.00524167 0.01781454 0.01418273
v 0.00459852 0.01766288 0.01440922
v 0.00601823 0.01805583 0.01389311
v 0.00603388 0.01815579 0.01390027
v 0.00604952 0.01826264 0.01390743
v 0.00579836 0.01811442 0.01399529
v 0.00567813 0.01796276 0.01402718
v 0.00594823 0.01826264 0.01395038
v 0.00526143 0.01792829 0.01419054
v 0.00823345 0.02497719 0.01009286
v -0.00017943 0.05205598 0.01295200
v 0.00823345 0.05205598 0.00923765
v 0.00823345 0.04866768 0.00934049
v 0.00823345 0.03921630 0.00964052
v 0.00459852 0.01781454 0.01443591
v 0.00447829 0.01781454 0.01447951
v 0.00429794 0.01781454 0.01454395
v 0.00414806 0.01781454 0.01459732
v 0.00369678 0.01794897 0.01477890
v 0.00378819 0.01830400 0.01480103
v 0.00356338 0.01794897 0.01482576
v 0.00326939 0.01796276 0.01492794
v 0.00370914 0.01825919 0.01482186
v 0.00354855 0.01826264 0.01487783
v 0.00319445 0.01796276 0.01495268
v 0.00309810 0.01796276 0.01498326
v 0.00294822 0.01796276 0.01503078
v 0.00279340 0.01795587 0.01507829
v 0.00227789 0.01802825 0.01524751
v 0.00204814 0.01811442 0.01533016
v 0.00159768 0.01826264 0.01548376
v 0.00159768 0.01811442 0.01546163
v 0.00183732 0.01815923 0.01540045
v 0.00174838 0.01826264 0.01544211
v 0.00144781 0.01811442 0.01549873
v 0.00121805 0.01804893 0.01554494
v 0.00060784 0.01806617 0.01569268
v 0.00144781 0.01826264 0.01551956
v 0.00039784 0.01826264 0.01576818
v 0.00039784 0.01841430 0.01578640
v 0.00012938 0.01841430 0.01583912
v 0.00003550 0.01831434 0.01584823
v 0.00039784 0.01856597 0.01579421
v 0.00024714 0.01856597 0.01582285
v -0.00017943 0.01826609 0.01587817
v 0.00823345 0.01811787 0.01275414
v 0.00823345 0.01826264 0.01280556
v 0.00815274 0.01826264 0.01286608
v 0.00804075 0.01840396 0.01296176
v 0.00797157 0.01834881 0.01299365
v 0.00765782 0.01826264 0.01313683
v 0.00767264 0.01834537 0.01314399
v 0.00674785 0.01826264 0.01358266
v 0.00624881 0.01811442 0.01379418
v 0.00698008 0.01826264 0.01347202
v 0.00684914 0.01826264 0.01353450
v 0.00744948 0.01826264 0.01324097
v 0.00714890 0.01826264 0.01339001
v 0.00707067 0.01835226 0.01344338
v 0.00475992 0.01780765 0.01437408
v 0.00483651 0.01785246 0.01435065
v 0.00608988 0.01811098 0.01386773
v 0.00636163 0.01826264 0.01376294
v 0.00624881 0.01841430 0.01383649
v 0.00614670 0.01841430 0.01388335
v 0.00607176 0.01841430 0.01391589
v 0.00572836 0.01832124 0.01404736
v 0.00565836 0.01826953 0.01407014
v 0.00562460 0.01811442 0.01406623
v 0.00538578 0.01826264 0.01418013
v 0.00536437 0.01811442 0.01417167
v 0.00527626 0.01802825 0.01419705
v 0.00533555 0.01797310 0.01416646
v 0.00594823 0.01841430 0.01396730
v 0.00485463 0.01796276 0.01435846
v -0.00017120 0.05205598 0.01295265
v -0.00017943 0.05202151 0.01295655
v 0.00823345 0.05205598 0.01019634
v 0.00459852 0.01796276 0.01445674
v 0.00450876 0.01796276 0.01449058
v 0.00443382 0.01796276 0.01451791
v 0.00399901 0.01826264 0.01471967
v 0.00399901 0.01811442 0.01469689
v 0.00400807 0.01796276 0.01467021
v 0.00384913 0.01796276 0.01472683
v 0.00384913 0.01811442 0.01475026
v 0.00381125 0.01841430 0.01480949
v 0.00369843 0.01841430 0.01484854
v 0.00331880 0.01820060 0.01494421
v 0.00354855 0.01841430 0.01489801
v 0.00333856 0.01830056 0.01495072
v 0.00232977 0.01826264 0.01526378
v 0.00273988 0.01800068 0.01510107
v 0.00219801 0.01826264 0.01530478
v 0.00204814 0.01826264 0.01535099
v 0.00193779 0.01826264 0.01538483
v 0.00174838 0.01841430 0.01544992
v 0.00159768 0.01841430 0.01549027
v 0.00078324 0.01846256 0.01569919
v 0.00054772 0.01841430 0.01575126
v 0.00242036 0.01835915 0.01524490
v 0.00204814 0.01841430 0.01536075
v 0.00187685 0.01841430 0.01541217
v 0.00005444 0.01841430 0.01585083
v 0.00013515 0.01856597 0.01584042
v -0.00017943 0.01828677 0.01587947
v 0.00054772 0.01856597 0.01575776
v 0.00213131 0.04342151 0.01359763
v 0.00204814 0.04287001 0.01365620
v 0.00204814 0.04316989 0.01363407
v 0.00004374 0.01865214 0.01584888
v 0.00189826 0.04301822 0.01367378
v 0.00174838 0.04301822 0.01369851
v 0.00823345 0.01839362 0.01282833
v 0.00817004 0.01841430 0.01287975
v 0.00806463 0.01856597 0.01296046
v 0.00798475 0.01844877 0.01300016
v 0.00761335 0.01840396 0.01318109
v 0.00731277 0.01840396 0.01333078
v 0.00768500 0.01844533 0.01315050
v 0.00676432 0.01837294 0.01359112
v 0.00708384 0.01845222 0.01344989
v 0.00683679 0.01841775 0.01356313
v 0.00474839 0.01796276 0.01439946
v 0.00677832 0.01847290 0.01359763
v 0.00624881 0.01856597 0.01384950
v 0.00616070 0.01856597 0.01388985
v 0.00608576 0.01856597 0.01392109
v 0.00581483 0.01841430 0.01402198
v 0.00498144 0.01831090 0.01434870
v 0.00503827 0.01826264 0.01432071
v 0.00487768 0.01811442 0.01436757
v 0.00474839 0.01811442 0.01441834
v -0.00015226 0.05205598 0.01295330
v -0.00017943 0.05189742 0.01297282
v 0.00819968 0.05205598 0.01022303
v 0.00823345 0.05194223 0.01020610
v 0.00452276 0.01803859 0.01449579
v 0.00388619 0.01841430 0.01478216
v 0.00382937 0.01856597 0.01481665
v 0.00369843 0.01856597 0.01486221
v 0.00343573 0.01841430 0.01493380
v 0.00324880 0.01841430 0.01499238
v 0.00194273 0.01856597 0.01538744
v 0.00186779 0.01856597 0.01540891
v 0.00174838 0.01856597 0.01544276
v 0.00078324 0.01851771 0.01569919
v 0.00309810 0.01841430 0.01503924
v 0.00289470 0.01841430 0.01510237
v 0.00264847 0.01841430 0.01517787
v 0.00236189 0.01841086 0.01526508
v 0.00219801 0.01841430 0.01531519
v 0.00337562 0.01856597 0.01496179
v 0.00324880 0.01856597 0.01500019
v 0.00309810 0.01856597 0.01504575
v 0.00297705 0.01856597 0.01508219
v 0.00242695 0.01851426 0.01524685
v -0.00005261 0.01841430 0.01586711
v 0.00006021 0.01856597 0.01585148
v -0.00017943 0.01843843 0.01588663
v -0.00017943 0.01841430 0.01588598
v 0.00172038 0.01916573 0.01540891
v 0.00167180 0.01953799 0.01539590
v 0.00167592 0.02165094 0.01524685
v 0.00198390 0.03758592 0.01404866
v 0.00212884 0.04131891 0.01374732
v 0.00216260 0.04316989 0.01360739
v 0.00377419 0.05134937 0.01254587
v 0.00257271 0.04579297 0.01329499
v 0.00362185 0.05179401 0.01254522
v 0.00335256 0.05067377 0.01270207
v 0.00272423 0.04714760 0.01314529
v 0.00211155 0.04352147 0.01359307
v 0.00189826 0.04316989 0.01366206
v -0.00017943 0.01856597 0.01588533
v -0.00005261 0.01856597 0.01586775
v 0.00174838 0.04316989 0.01368679
v 0.00159768 0.04316989 0.01370762
v 0.00823345 0.01841430 0.01283159
v 0.00817416 0.01856597 0.01288561
v 0.00798969 0.01856597 0.01300276
v 0.00805969 0.01871418 0.01295720
v 0.00798475 0.01871418 0.01300016
v 0.00789911 0.01856597 0.01304832
v 0.00759935 0.01856597 0.01319866
v 0.00746512 0.01856597 0.01326570
v 0.00729877 0.01856597 0.01334836
v 0.00716372 0.01856597 0.01341539
v 0.00708796 0.01856597 0.01345249
v 0.00685573 0.01856597 0.01356313
v 0.00669927 0.01856597 0.01363733
v 0.00639704 0.01856597 0.01377986
v 0.00624881 0.01871418 0.01384690
v 0.00615823 0.01871418 0.01388855
v 0.00608329 0.01871418 0.01391979
v 0.00594823 0.01856597 0.01397707
v 0.00489827 0.01841430 0.01439035
v 0.00582553 0.01856597 0.01402653
v 0.00474839 0.01826264 0.01443591
v 0.00490980 0.01826264 0.01437213
v 0.00474839 0.01841430 0.01444958
v 0.00463310 0.01826264 0.01448017
v 0.00422382 0.01833847 0.01464613
v -0.00005261 0.05202151 0.01296111
v -0.00005261 0.05205598 0.01295655
v -0.00005261 0.05187329 0.01297868
v 0.00009727 0.05202151 0.01296501
v -0.00017943 0.05174576 0.01298974
v 0.00823345 0.05142175 0.01025036
v 0.00811569 0.05205598 0.01028811
v 0.00823345 0.05112187 0.01027574
v 0.00399901 0.01841430 0.01474050
v 0.00390431 0.01856597 0.01478801
v 0.00382607 0.01871418 0.01481600
v 0.00369843 0.01871418 0.01485961
v 0.00354855 0.01856597 0.01490907
v 0.00236107 0.01856252 0.01526443
v 0.00241954 0.01861422 0.01524490
v 0.00204814 0.01871418 0.01534839
v 0.00192708 0.01871418 0.01538353
v 0.00190897 0.01886585 0.01537832
v 0.00345056 0.01856597 0.01493901
v 0.00354855 0.01871418 0.01490516
v 0.00189826 0.02006537 0.01529762
v 0.00174838 0.02081679 0.01528591
v 0.00189826 0.02876877 0.01468909
v 0.00186285 0.02936853 0.01465654
v 0.00197238 0.03124364 0.01449579
v 0.00200037 0.03101959 0.01450360
v 0.00197402 0.02479450 0.01494617
v 0.00197896 0.02046176 0.01524751
v 0.00204814 0.02111667 0.01518177
v 0.00204814 0.01976549 0.01527614
v 0.00214778 0.03041983 0.01450294
v 0.00222272 0.03041983 0.01448082
v 0.00249859 0.03267065 0.01424196
v 0.00273000 0.03232252 0.01419770
v 0.00279835 0.03267065 0.01415279
v 0.00368773 0.04932259 0.01271444
v 0.00378325 0.05127353 0.01254847
v 0.00317880 0.02826552 0.01434739
v 0.00319857 0.03237077 0.01405322
v 0.00385819 0.05127353 0.01252439
v 0.00383349 0.05140796 0.01252244
v 0.00384913 0.05157341 0.01250487
v 0.00384913 0.05172163 0.01249250
v 0.00369843 0.05187329 0.01251919
v 0.00369349 0.05173542 0.01253285
v 0.00360208 0.05187329 0.01254132
v 0.00352714 0.05187329 0.01255693
v 0.00339868 0.05172163 0.01259859
v 0.00339868 0.05157341 0.01261291
v 0.00333362 0.05077373 0.01269752
v 0.00249859 0.04632035 0.01326505
v 0.00331303 0.05087369 0.01269296
v 0.00294822 0.04902271 0.01293247
v 0.00219801 0.04436941 0.01350000
v 0.00220543 0.04481750 0.01345835
v 0.00216260 0.04496917 0.01345314
v 0.00199214 0.04872283 0.01314920
v 0.00199461 0.04704075 0.01329954
v 0.00204814 0.04392131 0.01356899
v 0.00174838 0.04331810 0.01367378
v 0.00193449 0.04392131 0.01358917
v 0.00174838 0.04392131 0.01362041
v 0.00144781 0.04346977 0.01369395
v 0.00099735 0.04392131 0.01368484
v 0.00084747 0.04392131 0.01369395
v 0.00069760 0.04422119 0.01367768
v 0.00054772 0.04422119 0.01367703
v 0.00054772 0.04482095 0.01362496
v 0.00039784 0.04647201 0.01347657
v 0.00009727 0.04872283 0.01326960
v -0.00015967 0.05001886 0.01314725
v -0.00017943 0.05001197 0.01314660
v 0.00170474 0.04422119 0.01360088
v 0.00159768 0.04331810 0.01369525
v 0.00823345 0.01856597 0.01283680
v 0.00823345 0.01871418 0.01282964
v 0.00816921 0.01871418 0.01288236
v 0.00812886 0.01958280 0.01284851
v 0.00812392 0.01968276 0.01284461
v 0.00797981 0.02291595 0.01269882
v 0.00798310 0.02081679 0.01284981
v 0.00796334 0.01901406 0.01298974
v 0.00791228 0.01886240 0.01302619
v 0.00768500 0.01871418 0.01315050
v 0.00797652 0.02091330 0.01284656
v 0.00796252 0.02111667 0.01283940
v 0.00745936 0.01871418 0.01326310
v 0.00729877 0.01871418 0.01334315
v 0.00715878 0.01871418 0.01341279
v 0.00708302 0.01871418 0.01344989
v 0.00699902 0.01871418 0.01349024
v 0.00677832 0.01867282 0.01359763
v 0.00683679 0.01872108 0.01356704
v 0.00684914 0.01886585 0.01355142
v 0.00669021 0.01886585 0.01362691
v 0.00624881 0.01886585 0.01383649
v 0.00614587 0.01886585 0.01388335
v 0.00603388 0.02366737 0.01359958
v 0.00601823 0.02386039 0.01359307
v 0.00603058 0.02153374 0.01374862
v 0.00607094 0.01886585 0.01391459
v 0.00582059 0.01871418 0.01402458
v 0.00575059 0.01856597 0.01405647
v 0.00424524 0.01856597 0.01465459
v 0.00444782 0.01841430 0.01456673
v 0.00423371 0.01841430 0.01465003
v 0.00414806 0.01841430 0.01468323
v 0.00414806 0.01856597 0.01469299
v 0.00399901 0.01856597 0.01475157
v 0.00009727 0.05205598 0.01296046
v 0.00009727 0.05187329 0.01298193
v -0.00005261 0.05175954 0.01299105
v 0.00024714 0.05202151 0.01296436
v 0.00012938 0.05205598 0.01296046
v -0.00017943 0.05166993 0.01299755
v 0.00796252 0.05205598 0.01040461
v 0.00778711 0.05172163 0.01056667
v 0.00773688 0.05127353 0.01064282
v 0.00791393 0.05143209 0.01049442
v 0.00803745 0.04963281 0.01055040
v 0.00814204 0.05157341 0.01030829
v 0.00823345 0.05067377 0.01031349
v 0.00390101 0.01871418 0.01478671
v 0.00380055 0.01901406 0.01480624
v 0.00378737 0.01916573 0.01480103
v 0.00375608 0.01946561 0.01479062
v 0.00279835 0.01871418 0.01512710
v 0.00249859 0.01871418 0.01521561
v 0.00239318 0.01886585 0.01523709
v 0.00204814 0.01886585 0.01533862
v 0.00196579 0.02056172 0.01524425
v 0.00356255 0.01992404 0.01481665
v 0.00339868 0.01916573 0.01491818
v 0.00249859 0.01886585 0.01520585
v 0.00224742 0.01946561 0.01523839
v 0.00210084 0.02006537 0.01523970
v 0.00211813 0.02207146 0.01509456
v 0.00213625 0.02621807 0.01479973
v 0.00324880 0.02111667 0.01482641
v 0.00324880 0.02426713 0.01460643
v 0.00354855 0.02141655 0.01471642
v 0.00324880 0.02651795 0.01444893
v 0.00353785 0.03342208 0.01387684
v 0.00389113 0.05097365 0.01253546
v 0.00376019 0.03011995 0.01404150
v 0.00376514 0.02366737 0.01449318
v 0.00359879 0.02231619 0.01463832
v 0.00399901 0.05157341 0.01245671
v 0.00384913 0.05187329 0.01247883
v 0.00369843 0.05202151 0.01250226
v 0.00351891 0.05205598 0.01253871
v 0.00349667 0.05199049 0.01255043
v 0.00340444 0.05205598 0.01256214
v 0.00324880 0.05187329 0.01261356
v 0.00324880 0.05172163 0.01262918
v 0.00324880 0.05157341 0.01264350
v 0.00257929 0.04746127 0.01314660
v 0.00219801 0.04542071 0.01340563
v 0.00255706 0.04756123 0.01314204
v 0.00206296 0.05008780 0.01301252
v 0.00203084 0.05022223 0.01300667
v 0.00195179 0.05055658 0.01299170
v 0.00197073 0.04714071 0.01329499
v 0.00214037 0.04673398 0.01329889
v 0.00189826 0.04647201 0.01336723
v 0.00189826 0.04452107 0.01354166
v 0.00182250 0.04909510 0.01314529
v 0.00154498 0.04447281 0.01359763
v 0.00144781 0.04376965 0.01366727
v 0.00148404 0.04457277 0.01359307
v 0.00113323 0.04825750 0.01328588
v 0.00084747 0.04572059 0.01353320
v 0.00084747 0.04422119 0.01366792
v 0.00108052 0.04985341 0.01314594
v 0.00069760 0.04572059 0.01354100
v 0.00054772 0.04675121 0.01345054
v 0.00054772 0.04617213 0.01350326
v 0.00054772 0.04542071 0.01357159
v 0.00054772 0.04517598 0.01359372
v 0.00054772 0.04496917 0.01361195
v 0.00039784 0.04683049 0.01344403
v 0.00024714 0.04932259 0.01321819
v 0.00009727 0.05097365 0.01306849
v 0.00024714 0.04767153 0.01336658
v 0.00009727 0.04902271 0.01324292
v -0.00017943 0.05097365 0.01306264
v -0.00005261 0.04977069 0.01317263
v -0.00005261 0.04962247 0.01318565
v 0.00168497 0.04596532 0.01344728
v 0.00168086 0.04431081 0.01359633
v 0.00164545 0.04441077 0.01359242
v 0.00159768 0.04422119 0.01361455
v 0.00823345 0.01886585 0.01281792
v 0.00812639 0.02345711 0.01254717
v 0.00823345 0.02280565 0.01251138
v 0.00823345 0.03008204 0.01194254
v 0.00810004 0.02396725 0.01252700
v 0.00797404 0.02493583 0.01254522
v 0.00782417 0.02824484 0.01239553
v 0.00797487 0.02299867 0.01269556
v 0.00751371 0.02846889 0.01254066
v 0.00727819 0.01916573 0.01332232
v 0.00743630 0.01886585 0.01326440
v 0.00717196 0.03327041 0.01236949
v 0.00782581 0.02615258 0.01254652
v 0.00770476 0.02681783 0.01256149
v 0.00713572 0.01886240 0.01341409
v 0.00707725 0.01881070 0.01344663
v 0.00706984 0.01891066 0.01344338
v 0.00697596 0.01916573 0.01347006
v 0.00678079 0.02078577 0.01344859
v 0.00631552 0.01976549 0.01374146
v 0.00609893 0.02396725 0.01354816
v 0.00587741 0.02901695 0.01329694
v 0.00601576 0.02171643 0.01374211
v 0.00602564 0.01940011 0.01389636
v 0.00587330 0.02689021 0.01344533
v 0.00573659 0.02981663 0.01330084
v 0.00571107 0.03011995 0.01329043
v 0.00599435 0.01976549 0.01388400
v 0.00573248 0.01886585 0.01404931
v 0.00399901 0.01886585 0.01473790
v 0.00465369 0.01871418 0.01448798
v 0.00024714 0.05187329 0.01298063
v 0.00009727 0.05169750 0.01300016
v -0.00005261 0.05168371 0.01299885
v 0.00039784 0.05187329 0.01297738
v 0.00039784 0.05202151 0.01296046
v 0.00027926 0.05205598 0.01295915
v 0.00024714 0.05205598 0.01295981
v -0.00017943 0.05159065 0.01300536
v 0.00794193 0.05205598 0.01042023
v 0.00756312 0.05127353 0.01077429
v 0.00772041 0.05157341 0.01062980
v 0.00788264 0.05205598 0.01046514
v 0.00763806 0.05127353 0.01071766
v 0.00757959 0.05097365 0.01078730
v 0.00758782 0.05082199 0.01079381
v 0.00761170 0.05065999 0.01078926
v 0.00767511 0.05060484 0.01074565
v 0.00782993 0.05094608 0.01059921
v 0.00789417 0.04977069 0.01064802
v 0.00797899 0.04958800 0.01059856
v 0.00823345 0.04902271 0.01045082
v 0.00823345 0.04932259 0.01042609
v 0.00823345 0.04963626 0.01040005
v 0.00388866 0.01886585 0.01478150
v 0.00399901 0.02141655 0.01456412
v 0.00397019 0.02231619 0.01451401
v 0.00482169 0.04623762 0.01254522
v 0.00390266 0.02306761 0.01448798
v 0.00391748 0.02505991 0.01434349
v 0.00377090 0.02147859 0.01464483
v 0.00483486 0.04827129 0.01240008
v 0.00227378 0.01924156 0.01524620
v 0.00390760 0.05082199 0.01254066
v 0.00399901 0.05127353 0.01247818
v 0.00377337 0.02359154 0.01449579
v 0.00422300 0.05134592 0.01239553
v 0.00459852 0.05112187 0.01228163
v 0.00467757 0.05121838 0.01224714
v 0.00466687 0.05131834 0.01224323
v 0.00412253 0.05157341 0.01241310
v 0.00399901 0.05172163 0.01244304
v 0.00401136 0.05188019 0.01242221
v 0.00384913 0.05202151 0.01245931
v 0.00369843 0.05205598 0.01249576
v 0.00309810 0.05205598 0.01262397
v 0.00309810 0.05202151 0.01262788
v 0.00309810 0.05187329 0.01264415
v 0.00309810 0.05172163 0.01265912
v 0.00300093 0.05159754 0.01269036
v 0.00294822 0.05142175 0.01271704
v 0.00279835 0.05097365 0.01278733
v 0.00307422 0.05127353 0.01270533
v 0.00314916 0.05127353 0.01269036
v 0.00267894 0.04902271 0.01298649
v 0.00249859 0.04737165 0.01317068
v 0.00224166 0.04662023 0.01328913
v 0.00226554 0.04818167 0.01314399
v 0.00219801 0.05067377 0.01293312
v 0.00204814 0.05067377 0.01296241
v 0.00204814 0.05097365 0.01293507
v 0.00204814 0.05112187 0.01292141
v 0.00192049 0.05067377 0.01298649
v 0.00189826 0.04903650 0.01313748
v 0.00189826 0.04767153 0.01325984
v 0.00182497 0.05074960 0.01299560
v 0.00174838 0.04872283 0.01318955
v 0.00159604 0.04452107 0.01358787
v 0.00159768 0.04496917 0.01354751
v 0.00159768 0.04572059 0.01347983
v 0.00154910 0.04612732 0.01344793
v 0.00150792 0.04953630 0.01314399
v 0.00150298 0.04788179 0.01329368
v 0.00149475 0.04622728 0.01344338
v 0.00144781 0.04872283 0.01322209
v 0.00145357 0.04948115 0.01315310
v 0.00129793 0.05022223 0.01309713
v 0.00114805 0.05022223 0.01310755
v 0.00099735 0.05067377 0.01307240
v 0.00099735 0.05037045 0.01310104
v 0.00084747 0.05067377 0.01307826
v 0.00084747 0.04932259 0.01320322
v 0.00069760 0.04632035 0.01348568
v 0.00069760 0.04836435 0.01329694
v 0.00054772 0.05067377 0.01308802
v 0.00039784 0.05067377 0.01309192
v 0.00039784 0.04872283 0.01327221
v 0.00039784 0.04827129 0.01331321
v 0.00024714 0.05067377 0.01309518
v 0.00024714 0.05097365 0.01306784
v 0.00009727 0.05112187 0.01305483
v -0.00005261 0.05127353 0.01303791
v -0.00017943 0.05114600 0.01304702
v -0.00005261 0.05082199 0.01307891
v 0.00164956 0.04606528 0.01344273
v 0.00169074 0.04927434 0.01314790
v 0.00823345 0.03186753 0.01180261
v 0.00823345 0.03341518 0.01168091
v 0.00811322 0.02561831 0.01238707
v 0.00803663 0.02682128 0.01234997
v 0.00797240 0.02687298 0.01239422
v 0.00779287 0.03267065 0.01207206
v 0.00783487 0.02996829 0.01225299
v 0.00767923 0.03338761 0.01209874
v 0.00767347 0.03348757 0.01209484
v 0.00738524 0.03131947 0.01240138
v 0.00708549 0.02081679 0.01330084
v 0.00713902 0.02006537 0.01332753
v 0.00728889 0.01901406 0.01332753
v 0.00684914 0.03371851 0.01249901
v 0.00690432 0.03911979 0.01208573
v 0.00632210 0.04938464 0.01164446
v 0.00669927 0.03911979 0.01218856
v 0.00777970 0.02681783 0.01252244
v 0.00759935 0.03297053 0.01217099
v 0.00754418 0.03011995 0.01240594
v 0.00702867 0.01946561 0.01342385
v 0.00701220 0.02096845 0.01332558
v 0.00676021 0.02531843 0.01313879
v 0.00690020 0.02231619 0.01328392
v 0.00660539 0.02426713 0.01328653
v 0.00602153 0.03872684 0.01254457
v 0.00602070 0.02596989 0.01344403
v 0.00570860 0.04091907 0.01253871
v 0.00564848 0.04197037 0.01249315
v 0.00558013 0.04376965 0.01239878
v 0.00543108 0.04689598 0.01224909
v 0.00542037 0.04487610 0.01239422
v 0.00541296 0.04496917 0.01239097
v 0.00540061 0.04512083 0.01238576
v 0.00536190 0.04482440 0.01242286
v 0.00532567 0.04512083 0.01241766
v 0.00585930 0.02486689 0.01358982
v 0.00527543 0.04355594 0.01254652
v 0.00498392 0.04962247 0.01224974
v 0.00506791 0.04512083 0.01252374
v 0.00569871 0.02366737 0.01373561
v 0.00589388 0.02006537 0.01390352
v 0.00563201 0.01916573 0.01406883
v 0.00543108 0.02063410 0.01404866
v 0.00402371 0.02036524 0.01462595
v 0.00024714 0.05176644 0.01299170
v 0.00024714 0.05157341 0.01301122
v 0.00024714 0.05169061 0.01299951
v 0.00009727 0.05127353 0.01304051
v 0.00024714 0.05127353 0.01303986
v 0.00054772 0.05187329 0.01297347
v 0.00039784 0.05167337 0.01299755
v 0.00054772 0.05202151 0.01295655
v 0.00042914 0.05205598 0.01295525
v -0.00017943 0.05127353 0.01303530
v 0.00777723 0.05187329 0.01056016
v 0.00755406 0.05142175 0.01076713
v 0.00728807 0.05098399 0.01100338
v 0.00731277 0.05082199 0.01100013
v 0.00741406 0.05082199 0.01092463
v 0.00748900 0.05082199 0.01086866
v 0.00776158 0.05205598 0.01055365
v 0.00770229 0.05187329 0.01061548
v 0.00759935 0.05052211 0.01081008
v 0.00772782 0.04962247 0.01078535
v 0.00791393 0.04963281 0.01064412
v 0.00750547 0.05052211 0.01088102
v 0.00807616 0.04917093 0.01055821
v 0.00806792 0.04932259 0.01055235
v 0.00803251 0.04857117 0.01063891
v 0.00810745 0.04857117 0.01058229
v 0.00823345 0.04877798 0.01047034
v 0.00483074 0.04613766 0.01254847
v 0.00496745 0.04981205 0.01224323
v 0.00399901 0.03011995 0.01396080
v 0.00482910 0.05047730 0.01224779
v 0.00393972 0.05052211 0.01255108
v 0.00495756 0.04992235 0.01223933
v 0.00489827 0.05067377 0.01220874
v 0.00459852 0.05067377 0.01231352
v 0.00473439 0.05067377 0.01226666
v 0.00471875 0.05082199 0.01226145
v 0.00479369 0.05082199 0.01223542
v 0.00476239 0.05112187 0.01222436
v 0.00489827 0.05112187 0.01217619
v 0.00473604 0.05127009 0.01222240
v 0.00489827 0.05127353 0.01216253
v 0.00465204 0.05142175 0.01223737
v 0.00444782 0.05157341 0.01229595
v 0.00429794 0.05157341 0.01235062
v 0.00419747 0.05157341 0.01238642
v 0.00413983 0.05188019 0.01237340
v 0.00406818 0.05193189 0.01239358
v 0.00405089 0.05202151 0.01238772
v 0.00397677 0.05202151 0.01241505
v 0.00455322 0.05157341 0.01225690
v 0.00459028 0.05172852 0.01222240
v 0.00387878 0.05205598 0.01244304
v 0.00384996 0.05205598 0.01245215
v 0.00298034 0.05205598 0.01264740
v 0.00293340 0.05185950 0.01267734
v 0.00296963 0.05172163 0.01268450
v 0.00279835 0.05157341 0.01273266
v 0.00264847 0.05142175 0.01277627
v 0.00264847 0.05127353 0.01278994
v 0.00241624 0.05118391 0.01284396
v 0.00219801 0.05097365 0.01290578
v 0.00231989 0.05127353 0.01285437
v 0.00219801 0.05127353 0.01287780
v 0.00220790 0.05142864 0.01285957
v 0.00204814 0.05127353 0.01290513
v 0.00189826 0.05112187 0.01294744
v 0.00189826 0.05097365 0.01296241
v 0.00178544 0.05084956 0.01299105
v 0.00174838 0.05067377 0.01301252
v 0.00174838 0.05052211 0.01302684
v 0.00174838 0.05022223 0.01305418
v 0.00159768 0.04677189 0.01338480
v 0.00155486 0.04943634 0.01314855
v 0.00165450 0.04937430 0.01314334
v 0.00144781 0.04992235 0.01311340
v 0.00159768 0.05022223 0.01307240
v 0.00159768 0.05037045 0.01305873
v 0.00144781 0.05022223 0.01308607
v 0.00129793 0.05067377 0.01305418
v 0.00114805 0.05067377 0.01306459
v 0.00099735 0.05097365 0.01304376
v 0.00084747 0.05097365 0.01305027
v 0.00069760 0.05067377 0.01308346
v 0.00054772 0.05112187 0.01304637
v 0.00039784 0.05112187 0.01305027
v 0.00024714 0.05112187 0.01305418
v 0.00823345 0.04842295 0.01049833
v 0.00812886 0.03293262 0.01179871
v 0.00810663 0.03716885 0.01148175
v 0.00807698 0.03011995 0.01205969
v 0.00800451 0.02816901 0.01226796
v 0.00799546 0.04167049 0.01121100
v 0.00756888 0.04932259 0.01092853
v 0.00752688 0.04821959 0.01104699
v 0.00753430 0.04617213 0.01120254
v 0.00750465 0.04482095 0.01133075
v 0.00744948 0.04602047 0.01127739
v 0.00737536 0.04775426 0.01119603
v 0.00724689 0.05067377 0.01106131
v 0.00722548 0.04910888 0.01119603
v 0.00752194 0.03872684 0.01179415
v 0.00716125 0.04916403 0.01122597
v 0.00641187 0.05037045 0.01152731
v 0.00664656 0.04482095 0.01180717
v 0.00693479 0.02396725 0.01315050
v 0.00677091 0.03362544 0.01254457
v 0.00647198 0.04413157 0.01194450
v 0.00661445 0.03686897 0.01239097
v 0.00634763 0.04902271 0.01165747
v 0.00638716 0.04932948 0.01161517
v 0.00638798 0.05052211 0.01152861
v 0.00630481 0.04962247 0.01163600
v 0.00703361 0.04872283 0.01132424
v 0.00669927 0.04992235 0.01141081
v 0.00667621 0.04647201 0.01167244
v 0.00649504 0.03746873 0.01240594
v 0.00608741 0.04842295 0.01182604
v 0.00587165 0.04397991 0.01224453
v 0.00588565 0.04167049 0.01240138
v 0.00548460 0.04916059 0.01206360
v 0.00549860 0.04737165 0.01218335
v 0.00551507 0.04677189 0.01221785
v 0.00542449 0.04910544 0.01209614
v 0.00534873 0.05067377 0.01202064
v 0.00527049 0.05013261 0.01209419
v 0.00521203 0.05007746 0.01212282
v 0.00515767 0.04842295 0.01226015
v 0.00500862 0.04932259 0.01226015
v 0.00503497 0.04976724 0.01221850
v 0.00504815 0.05067377 0.01215016
v 0.00039784 0.05157341 0.01300732
v 0.00039784 0.05127353 0.01303595
v 0.00069760 0.05187329 0.01296761
v 0.00050572 0.05165614 0.01299625
v 0.00069760 0.05162512 0.01299300
v 0.00069760 0.05202151 0.01295004
v 0.00057901 0.05205598 0.01295069
v 0.00054772 0.05205598 0.01295200
v 0.00754418 0.05157341 0.01075997
v 0.00723042 0.05094263 0.01104959
v 0.00732183 0.05067377 0.01100598
v 0.00742230 0.05067377 0.01093114
v 0.00768911 0.05205598 0.01060572
v 0.00769158 0.05202151 0.01060767
v 0.00753430 0.05172163 0.01075216
v 0.00760923 0.05172163 0.01069814
v 0.00760429 0.05007057 0.01084262
v 0.00785793 0.04857117 0.01077038
v 0.00788675 0.04917782 0.01070074
v 0.00746183 0.05021189 0.01093830
v 0.00751371 0.05037045 0.01088688
v 0.00807039 0.04167049 0.01115438
v 0.00814369 0.04406953 0.01090966
v 0.00504815 0.05082199 0.01213975
v 0.00489827 0.05082199 0.01219832
v 0.00480933 0.05067377 0.01224063
v 0.00489827 0.05097365 0.01218726
v 0.00503580 0.05112187 0.01212217
v 0.00501850 0.05127353 0.01211502
v 0.00499792 0.05142175 0.01210590
v 0.00489827 0.05142175 0.01214495
v 0.00474839 0.05142175 0.01220158
v 0.00429794 0.05187329 0.01231417
v 0.00459852 0.05187329 0.01219962
v 0.00439182 0.05205598 0.01225299
v 0.00432676 0.05205598 0.01227773
v 0.00418183 0.05205598 0.01233240
v 0.00396854 0.05205598 0.01241180
v 0.00474839 0.05157341 0.01218270
v 0.00496580 0.05162512 0.01209289
v 0.00474839 0.05187329 0.01214235
v 0.00279670 0.05205598 0.01268125
v 0.00279670 0.05202840 0.01268450
v 0.00264847 0.05187329 0.01272941
v 0.00279670 0.05185950 0.01270337
v 0.00249859 0.05157341 0.01278994
v 0.00234460 0.05142864 0.01283419
v 0.00249859 0.05187329 0.01275609
v 0.00252083 0.05205598 0.01273006
v 0.00204814 0.05142175 0.01288691
v 0.00189826 0.05127353 0.01292921
v 0.00174838 0.05112187 0.01296761
v 0.00174097 0.05096676 0.01298454
v 0.00168580 0.05091161 0.01299625
v 0.00174097 0.05080820 0.01300016
v 0.00159768 0.05052211 0.01304441
v 0.00160180 0.04948115 0.01313944
v 0.00159768 0.04962247 0.01312707
v 0.00144781 0.05052211 0.01305743
v 0.00144781 0.05067377 0.01304246
v 0.00129793 0.05082199 0.01303921
v 0.00114805 0.05082199 0.01305027
v 0.00099735 0.05112187 0.01302879
v 0.00091994 0.05149758 0.01299495
v 0.00081947 0.05152171 0.01299755
v 0.00084747 0.05127353 0.01302098
v 0.00069760 0.05127353 0.01302684
v 0.00069760 0.05097365 0.01305548
v 0.00054772 0.05127353 0.01303205
v 0.00769900 0.04827129 0.01091357
v 0.00739348 0.04932259 0.01105935
v 0.00736960 0.04977069 0.01104178
v 0.00714890 0.05082199 0.01110752
v 0.00714890 0.05067377 0.01111923
v 0.00721890 0.04920884 0.01119212
v 0.00704184 0.05067377 0.01117846
v 0.00696690 0.05067377 0.01121751
v 0.00684914 0.05067377 0.01127869
v 0.00667209 0.05067377 0.01137045
v 0.00645222 0.05067377 0.01148435
v 0.00622987 0.04962247 0.01167244
v 0.00637728 0.05067377 0.01152275
v 0.00624881 0.05067377 0.01158783
v 0.00616317 0.05052211 0.01164055
v 0.00595482 0.05022223 0.01176226
v 0.00554060 0.05067377 0.01192953
v 0.00534873 0.05082199 0.01200893
v 0.00521367 0.05082199 0.01207011
v 0.00522602 0.05067377 0.01207531
v 0.00515109 0.05067377 0.01210721
v 0.00513873 0.05082199 0.01210200
v 0.00054772 0.05142175 0.01301773
v 0.00084747 0.05187329 0.01296046
v 0.00084747 0.05202151 0.01294158
v 0.00069760 0.05205598 0.01294549
v 0.00743712 0.05142864 0.01085174
v 0.00721725 0.05112187 0.01104048
v 0.00712996 0.05127353 0.01107758
v 0.00716372 0.05098399 0.01108474
v 0.00737207 0.05148035 0.01089339
v 0.00761994 0.05205598 0.01065388
v 0.00751865 0.05191466 0.01074109
v 0.00752688 0.05181470 0.01074695
v 0.00506132 0.05097710 0.01212282
v 0.00511979 0.05102880 0.01209419
v 0.00511073 0.05112187 0.01209028
v 0.00509426 0.05127353 0.01208247
v 0.00507285 0.05142175 0.01207401
v 0.00519803 0.05157341 0.01200177
v 0.00503827 0.05157341 0.01206946
v 0.00479863 0.05205598 0.01209744
v 0.00482992 0.05196636 0.01209809
v 0.00504815 0.05172163 0.01204472
v 0.00492133 0.05187329 0.01207466
v 0.00264847 0.05205598 0.01270793
v 0.00238001 0.05205598 0.01275154
v 0.00212390 0.05164924 0.01284526
v 0.00215437 0.05157341 0.01285046
v 0.00174838 0.05142175 0.01292921
v 0.00174838 0.05127353 0.01294939
v 0.00159027 0.05111498 0.01298519
v 0.00163474 0.05101157 0.01299170
v 0.00159768 0.05127353 0.01296696
v 0.00159768 0.05067377 0.01302944
v 0.00144781 0.05082199 0.01302749
v 0.00129793 0.05097365 0.01302359
v 0.00114805 0.05097365 0.01303465
v 0.00110194 0.05136660 0.01299755
v 0.00099735 0.05157341 0.01298258
v 0.00701796 0.05097365 0.01116609
v 0.00703031 0.05082199 0.01117260
v 0.00695537 0.05082199 0.01121165
v 0.00654857 0.05082199 0.01142252
v 0.00636575 0.05082199 0.01151689
v 0.00607752 0.05067377 0.01167114
v 0.00624881 0.05082199 0.01157612
v 0.00552825 0.05082199 0.01192367
v 0.00543931 0.05097365 0.01195296
v 0.00534873 0.05097365 0.01199591
v 0.00519803 0.05112187 0.01205123
v 0.00512885 0.05092884 0.01209809
v 0.00099735 0.05187329 0.01295004
v 0.00099735 0.05172163 0.01296696
v 0.00099735 0.05202151 0.01292857
v 0.00087959 0.05205598 0.01293377
v 0.00084747 0.05205598 0.01293637
v 0.00720490 0.05127353 0.01103267
v 0.00711513 0.05142175 0.01106912
v 0.00699902 0.05142175 0.01113290
v 0.00698420 0.05125630 0.01115828
v 0.00700561 0.05112187 0.01115958
v 0.00736383 0.05157341 0.01088818
v 0.00752771 0.05205598 0.01071636
v 0.00734983 0.05172163 0.01087907
v 0.00519803 0.05127353 0.01203691
v 0.00519803 0.05142175 0.01201999
v 0.00529849 0.05157341 0.01195686
v 0.00528367 0.05167682 0.01195035
v 0.00489004 0.05205598 0.01206034
v 0.00520955 0.05172508 0.01197508
v 0.00504815 0.05187329 0.01202194
v 0.00492792 0.05205598 0.01204472
v 0.00234789 0.05205598 0.01275609
v 0.00197238 0.05179746 0.01284526
v 0.00174838 0.05157341 0.01290774
v 0.00159768 0.05157341 0.01292791
v 0.00159768 0.05142175 0.01294874
v 0.00153427 0.05105638 0.01299625
v 0.00159768 0.05082199 0.01301448
v 0.00144781 0.05142175 0.01296436
v 0.00144781 0.05127353 0.01298063
v 0.00144781 0.05097365 0.01301187
v 0.00131110 0.05127698 0.01299105
v 0.00126993 0.05123217 0.01299885
v 0.00120158 0.05133213 0.01299365
v 0.00115052 0.05141830 0.01298844
v 0.00114805 0.05157341 0.01297217
v 0.00694302 0.05097365 0.01120514
v 0.00684914 0.05097365 0.01125396
v 0.00664821 0.05097365 0.01135809
v 0.00635340 0.05097365 0.01151039
v 0.00606517 0.05082199 0.01166528
v 0.00634022 0.05112187 0.01150388
v 0.00624881 0.05112187 0.01154943
v 0.00612693 0.05097365 0.01162233
v 0.00605200 0.05097365 0.01165878
v 0.00582059 0.05097365 0.01177007
v 0.00564848 0.05097365 0.01185273
v 0.00551425 0.05097365 0.01191716
v 0.00542037 0.05118047 0.01194384
v 0.00536108 0.05112532 0.01197639
v 0.00129793 0.05157341 0.01295981
v 0.00144781 0.05157341 0.01294549
v 0.00099735 0.05205598 0.01292336
v 0.00719007 0.05142175 0.01102356
v 0.00709866 0.05157341 0.01106000
v 0.00691502 0.05129766 0.01119017
v 0.00699902 0.05157341 0.01111468
v 0.00688620 0.05157341 0.01117520
v 0.00681126 0.05157341 0.01121490
v 0.00692408 0.05119770 0.01119538
v 0.00693067 0.05112187 0.01119863
v 0.00750383 0.05205598 0.01073198
v 0.00727489 0.05172163 0.01092788
v 0.00533473 0.05127353 0.01197443
v 0.00531743 0.05142175 0.01196597
v 0.00537343 0.05157341 0.01192237
v 0.00556448 0.05191466 0.01179155
v 0.00556778 0.05205598 0.01176942
v 0.00534873 0.05187329 0.01189243
v 0.00524991 0.05187329 0.01193538
v 0.00507615 0.05205598 0.01198224
v 0.00223013 0.05205598 0.01277171
v 0.00174838 0.05172163 0.01288561
v 0.00114805 0.05205598 0.01290578
v 0.00129793 0.05142175 0.01297673
v 0.00684914 0.05112187 0.01124094
v 0.00671080 0.05112187 0.01131253
v 0.00662762 0.05121494 0.01134702
v 0.00633034 0.05123217 0.01149867
v 0.00626199 0.05127698 0.01152796
v 0.00602894 0.05122183 0.01164771
v 0.00611293 0.05112187 0.01161582
v 0.00580659 0.05112187 0.01176356
v 0.00541049 0.05127353 0.01193929
v 0.00717360 0.05157341 0.01101380
v 0.00708549 0.05169061 0.01105154
v 0.00684914 0.05205598 0.01113420
v 0.00669927 0.05157341 0.01127348
v 0.00651810 0.05157341 0.01136785
v 0.00660786 0.05142175 0.01133661
v 0.00678162 0.05183193 0.01119928
v 0.00675526 0.05205598 0.01118562
v 0.00669927 0.05172163 0.01125591
v 0.00657656 0.05172163 0.01132034
v 0.00744453 0.05205598 0.01076973
v 0.00733254 0.05187329 0.01086866
v 0.00549860 0.05157341 0.01186379
v 0.00559001 0.05172163 0.01180326
v 0.00585765 0.05205598 0.01163795
v 0.00557848 0.05181470 0.01179741
v 0.00579836 0.05205598 0.01166528
v 0.00567319 0.05205598 0.01172256
v 0.00564848 0.05205598 0.01173362
v 0.00524991 0.05205598 0.01190740
v 0.00187273 0.05183538 0.01285177
v 0.00639869 0.05157341 0.01142903
v 0.00631140 0.05142175 0.01148891
v 0.00623646 0.05142175 0.01152601
v 0.00609893 0.05142175 0.01159304
v 0.00601823 0.05132179 0.01164251
v 0.00549860 0.05127353 0.01189698
v 0.00570036 0.05142175 0.01178439
v 0.00609893 0.05187329 0.01154423
v 0.00588400 0.05184227 0.01165032
v 0.00560813 0.05157341 0.01181172
v 0.00714890 0.05187329 0.01098321
v 0.00715137 0.05205598 0.01095262
v 0.00703772 0.05205598 0.01102291
v 0.00696279 0.05205598 0.01106847
v 0.00650163 0.05172163 0.01135939
v 0.00671162 0.05187674 0.01123052
v 0.00668033 0.05205598 0.01122467
v 0.00655845 0.05187329 0.01131123
v 0.00733419 0.05205598 0.01083872
v 0.00594823 0.05202151 0.01159890
v 0.00597459 0.05205598 0.01158198
v 0.00639869 0.05172163 0.01141211
v 0.00618705 0.05187329 0.01150192
v 0.00629493 0.05157341 0.01148110
v 0.00621999 0.05157341 0.01151820
v 0.00609893 0.05157341 0.01157677
v 0.00591447 0.05157341 0.01166528
v 0.00617717 0.05195946 0.01149672
v 0.00648351 0.05187329 0.01135028
v 0.00639869 0.05187329 0.01139388
v 0.00657080 0.05205598 0.01128129
v 0.00615740 0.05205598 0.01149346
v 0.00610717 0.05201462 0.01152340
v 0.00646128 0.05204908 0.01133856
v 0.00626940 0.05205598 0.01143619
f 1 2 5
f 1 5 11
f 1 11 23
f 1 23 51
f 1 51 76
f 1 76 111
f 1 111 152
f 1 152 208
f 1 208 271
f 1 271 339
f 1 339 397
f 1 397 396
f 1 396 395
f 1 395 460
f 1 460 521
f 1 521 576
f 1 576 575
f 1 575 590
f 1 590 690
f 1 690 804
f 1 804 933
f 1 933 991
f 1 991 849
f 1 849 733
f 1 733 623
f 1 623 550
f 1 550 492
f 1 492 426
f 1 426 367
f 1 367 320
f 1 320 319
f 1 319 318
f 1 318 317
f 1 317 316
f 1 316 315
f 1 315 314
f 1 314 313
f 1 313 312
f 1 312 311
f 1 311 310
f 1 310 309
f 1 309 253
f 1 253 252
f 1 252 251
f 1 251 250
f 1 250 249
f 1 249 248
f 1 248 246
f 1 246 188
f 1 188 140
f 1 140 96
f 1 96 95
f 1 95 94
f 1 94 93
f 1 93 67
f 1 67 66
f 1 66 65
f 1 65 44
f 1 44 43
f 1 43 42
f 1 42 41
f 1 41 40
f 1 40 39
f 1 39 38
f 1 38 37
f 1 37 36
f 1 36 35
f 1 35 34
f 1 34 32
f 1 32 19
f 1 19 7
f 1 7 3
f 1 3 4
f 1 4 6
f 1 6 2
f 2 6 5
f 3 7 8
f 3 8 9
f 3 9 4
f 4 9 8
f 4 8 20
f 4 20 33
f 4 33 64
f 4 64 92
f 4 92 139
f 4 139 142
f 4 142 141
f 4 141 190
f 4 190 189
f 4 189 247
f 4 247 308
f 4 308 366
f 4 366 425
f 4 425 429
f 4 429 428
f 4 428 427
f 4 427 493
f 4 493 552
f 4 552 624
f 4 624 626
f 4 626 740
f 4 740 864
f 4 864 863
f 4 863 862
f 4 862 1008
f 4 1008 1069
f 4 1069 938
f 4 938 937
f 4 937 814
f 4 814 813
f 4 813 811
f 4 811 694
f 4 694 693
f 4 693 594
f 4 594 529
f 4 529 462
f 4 462 461
f 4 461 398
f 4 398 341
f 4 341 280
f 4 280 223
f 4 223 222
f 4 222 279
f 4 279 278
f 4 278 340
f 4 340 276
f 4 276 274
f 4 274 273
f 4 273 272
f 4 272 209
f 4 209 160
f 4 160 159
f 4 159 158
f 4 158 157
f 4 157 156
f 4 156 155
f 4 155 153
f 4 153 112
f 4 112 77
f 4 77 52
f 4 52 24
f 4 24 12
f 4 12 6
f 5 6 10
f 5 10 11
f 6 12 13
f 6 13 14
f 6 14 15
f 6 15 16
f 6 16 17
f 6 17 18
f 6 18 10
f 7 19 20
f 7 20 8
f 10 18 21
f 10 21 11
f 11 22 23
f 11 21 22
f 12 24 25
f 12 25 13
f 13 25 26
f 13 26 14
f 14 26 27
f 14 27 28
f 14 28 15
f 15 28 16
f 16 29 30
f 16 30 31
f 16 31 21
f 16 21 17
f 16 28 29
f 17 21 18
f 19 32 20
f 20 32 34
f 20 34 35
f 20 35 36
f 20 36 37
f 20 37 38
f 20 38 39
f 20 39 40
f 20 40 41
f 20 41 42
f 20 42 43
f 20 43 44
f 20 44 33
f 21 31 45
f 21 45 46
f 21 46 47
f 21 47 48
f 21 48 22
f 22 49 50
f 22 50 51
f 22 51 23
f 22 48 49
f 24 52 53
f 24 53 25
f 25 53 26
f 26 53 54
f 26 54 55
f 26 55 56
f 26 56 27
f 27 56 57
f 27 57 58
f 27 58 59
f 27 59 60
f 27 60 28
f 28 60 59
f 28 59 61
f 28 61 62
f 28 62 29
f 29 62 63
f 29 63 31
f 29 31 30
f 31 63 62
f 31 62 45
f 33 44 65
f 33 65 66
f 33 66 67
f 33 67 64
f 45 68 70
f 45 70 46
f 45 62 69
f 45 69 68
f 46 70 47
f 47 70 71
f 47 71 49
f 47 49 48
f 49 71 72
f 49 72 73
f 49 73 74
f 49 74 75
f 49 75 50
f 50 75 51
f 51 75 76
f 52 77 78
f 52 78 53
f 53 78 79
f 53 79 80
f 53 80 81
f 53 81 54
f 54 81 82
f 54 82 83
f 54 83 84
f 54 84 55
f 55 84 56
f 56 84 57
f 57 59 58
f 57 84 85
f 57 85 86
f 57 86 87
f 57 87 88
f 57 88 89
f 57 89 90
f 57 90 59
f 59 90 91
f 59 91 69
f 59 69 61
f 61 69 62
f 64 67 93
f 64 93 94
f 64 94 95
f 64 95 96
f 64 96 92
f 68 97 70
f 68 69 91
f 68 91 97
f 70 97 98
f 70 98 99
f 70 99 100
f 70 100 71
f 71 100 101
f 71 101 72
f 72 101 102
f 72 102 103
f 72 103 104
f 72 104 105
f 72 105 73
f 73 105 106
f 73 106 107
f 73 107 74
f 74 107 108
f 74 108 75
f 75 108 76
f 76 106 109
f 76 109 110
f 76 110 111
f 76 108 107
f 76 107 106
f 77 112 113
f 77 113 78
f 78 113 79
f 79 113 80
f 80 114 115
f 80 115 116
f 80 116 117
f 80 117 81
f 80 113 114
f 81 117 82
f 82 117 118
f 82 118 119
f 82 119 120
f 82 120 121
f 82 121 122
f 82 122 123
f 82 123 83
f 83 124 85
f 83 85 84
f 83 123 125
f 83 125 126
f 83 126 127
f 83 127 128
f 83 128 129
f 83 129 130
f 83 130 131
f 83 131 132
f 83 132 124
f 85 124 86
f 86 124 133
f 86 133 134
f 86 134 87
f 87 134 135
f 87 135 136
f 87 136 88
f 88 136 89
f 89 136 137
f 89 137 138
f 89 138 90
f 90 138 97
f 90 97 91
f 92 96 139
f 96 140 141
f 96 141 142
f 96 142 139
f 97 138 143
f 97 143 98
f 98 143 144
f 98 144 99
f 99 144 102
f 99 102 101
f 99 101 100
f 102 144 145
f 102 145 146
f 102 146 147
f 102 147 103
f 103 147 148
f 103 148 149
f 103 149 105
f 103 105 104
f 105 149 150
f 105 150 109
f 105 109 106
f 109 150 151
f 109 151 110
f 110 151 111
f 111 151 152
f 112 153 154
f 112 154 113
f 113 154 153
f 113 153 114
f 114 155 156
f 114 156 115
f 114 153 155
f 115 157 116
f 115 156 157
f 116 157 117
f 117 157 118
f 118 158 159
f 118 159 160
f 118 160 119
f 118 157 158
f 119 160 161
f 119 161 120
f 120 161 162
f 120 162 121
f 121 162 163
f 121 163 122
f 122 125 123
f 122 163 164
f 122 164 165
f 122 165 166
f 122 166 125
f 124 132 167
f 124 167 133
f 125 166 126
f 126 166 127
f 127 168 169
f 127 169 128
f 127 166 170
f 127 170 171
f 127 171 172
f 127 172 173
f 127 173 174
f 127 174 168
f 128 169 129
f 129 169 168
f 129 168 175
f 129 175 130
f 130 175 131
f 131 175 168
f 131 168 176
f 131 176 177
f 131 177 178
f 131 178 132
f 132 178 179
f 132 179 180
f 132 180 133
f 132 133 167
f 133 180 181
f 133 181 134
f 134 181 182
f 134 182 183
f 134 183 136
f 134 136 135
f 136 183 184
f 136 184 185
f 136 185 137
f 137 185 138
f 138 185 186
f 138 186 187
f 138 187 143
f 140 188 189
f 140 189 190
f 140 190 141
f 143 187 144
f 144 187 191
f 144 191 192
f 144 192 193
f 144 193 145
f 145 193 194
f 145 194 146
f 146 195 196
f 146 196 197
f 146 197 198
f 146 198 199
f 146 199 200
f 146 200 201
f 146 201 147
f 146 194 195
f 147 201 148
f 148 201 202
f 148 202 203
f 148 203 204
f 148 204 149
f 149 204 205
f 149 205 150
f 150 205 206
f 150 206 151
f 151 206 207
f 151 207 208
f 151 208 152
f 160 209 210
f 160 210 211
f 160 211 162
f 160 162 161
f 162 211 212
f 162 212 163
f 163 212 164
f 164 213 165
f 164 212 210
f 164 210 214
f 164 214 215
f 164 215 216
f 164 216 171
f 164 171 213
f 165 213 171
f 165 171 217
f 165 217 166
f 166 217 171
f 166 171 170
f 168 218 219
f 168 219 176
f 168 174 218
f 171 216 220
f 171 220 221
f 171 221 222
f 171 222 223
f 171 223 224
f 171 224 225
f 171 225 226
f 171 226 227
f 171 227 172
f 172 227 228
f 172 228 173
f 173 228 174
f 174 228 229
f 174 229 230
f 174 230 231
f 174 231 218
f 176 219 231
f 176 231 232
f 176 232 233
f 176 233 177
f 177 234 235
f 177 235 236
f 177 236 237
f 177 237 178
f 177 233 232
f 177 232 234
f 178 238 239
f 178 239 179
f 178 237 240
f 178 240 241
f 178 241 238
f 179 182 181
f 179 181 180
f 179 239 238
f 179 238 182
f 182 242 191
f 182 191 183
f 182 238 243
f 182 243 244
f 182 244 242
f 183 191 184
f 184 191 245
f 184 245 185
f 185 245 186
f 186 245 187
f 187 245 191
f 188 246 189
f 189 246 248
f 189 248 249
f 189 249 250
f 189 250 251
f 189 251 252
f 189 252 253
f 189 253 247
f 191 242 244
f 191 244 192
f 192 244 254
f 192 254 255
f 192 255 256
f 192 256 193
f 193 256 194
f 194 256 196
f 194 196 195
f 196 198 197
f 196 256 257
f 196 257 258
f 196 258 259
f 196 259 328
f 196 328 260
f 196 260 198
f 198 260 199
f 199 260 261
f 199 261 262
f 199 262 200
f 200 262 263
f 200 263 264
f 200 264 201
f 201 264 263
f 201 263 265
f 201 265 202
f 202 265 266
f 202 266 267
f 202 267 268
f 202 268 203
f 203 268 204
f 204 268 269
f 204 269 205
f 205 269 206
f 206 269 207
f 207 269 208
f 208 269 270
f 208 270 268
f 208 268 267
f 208 267 271
f 209 272 210
f 210 272 273
f 210 273 274
f 210 274 275
f 210 275 214
f 210 212 211
f 214 275 274
f 214 274 215
f 215 274 220
f 215 220 216
f 218 231 219
f 220 276 277
f 220 277 278
f 220 278 279
f 220 279 221
f 220 274 276
f 221 279 222
f 223 280 281
f 223 281 224
f 224 226 225
f 224 281 282
f 224 282 283
f 224 283 284
f 224 284 226
f 226 284 285
f 226 285 227
f 227 285 286
f 227 286 287
f 227 287 228
f 228 287 288
f 228 288 229
f 229 289 230
f 229 288 290
f 229 290 291
f 229 291 292
f 229 292 289
f 230 235 231
f 230 289 292
f 230 292 293
f 230 293 235
f 231 235 234
f 231 234 232
f 235 293 294
f 235 294 236
f 236 294 237
f 237 295 296
f 237 296 240
f 237 294 297
f 237 297 298
f 237 298 299
f 237 299 300
f 237 300 295
f 238 241 301
f 238 301 243
f 240 302 303
f 240 303 241
f 240 296 304
f 240 304 305
f 240 305 306
f 240 306 302
f 241 303 307
f 241 307 301
f 243 301 244
f 244 301 307
f 244 307 254
f 247 253 309
f 247 309 310
f 247 310 311
f 247 311 312
f 247 312 313
f 247 313 314
f 247 314 315
f 247 315 316
f 247 316 317
f 247 317 318
f 247 318 319
f 247 319 320
f 247 320 308
f 254 307 321
f 254 321 257
f 254 257 255
f 255 257 256
f 257 321 322
f 257 322 323
f 257 323 258
f 258 323 324
f 258 324 325
f 258 325 259
f 259 325 326
f 259 326 327
f 259 327 328
f 260 328 329
f 260 329 261
f 261 329 330
f 261 330 331
f 261 331 262
f 262 331 332
f 262 332 333
f 262 333 263
f 263 333 334
f 263 334 265
f 265 334 333
f 265 333 335
f 265 335 336
f 265 336 266
f 266 336 337
f 266 337 338
f 266 338 267
f 267 339 271
f 267 338 339
f 268 270 269
f 276 340 277
f 277 340 278
f 280 282 281
f 280 341 282
f 282 341 342
f 282 342 343
f 282 343 344
f 282 344 283
f 283 344 343
f 283 343 284
f 284 343 285
f 285 287 286
f 285 343 345
f 285 345 346
f 285 346 347
f 285 347 287
f 287 347 288
f 288 347 290
f 290 347 291
f 291 347 346
f 291 346 345
f 291 345 343
f 291 343 348
f 291 348 349
f 291 349 350
f 291 350 351
f 291 351 294
f 291 294 352
f 291 352 293
f 291 293 292
f 293 352 294
f 294 351 297
f 295 300 353
f 295 353 354
f 295 354 296
f 296 354 304
f 297 351 355
f 297 355 356
f 297 356 298
f 298 356 299
f 299 356 357
f 299 357 300
f 300 357 353
f 302 358 303
f 302 306 358
f 303 358 359
f 303 359 360
f 303 360 361
f 303 361 307
f 304 354 362
f 304 362 363
f 304 363 305
f 305 363 364
f 305 364 306
f 306 364 359
f 306 359 358
f 307 361 365
f 307 365 321
f 308 320 366
f 320 367 366
f 321 365 368
f 321 368 369
f 321 369 322
f 322 369 370
f 322 370 323
f 323 370 371
f 323 371 372
f 323 372 324
f 324 372 373
f 324 373 374
f 324 374 325
f 325 374 375
f 325 375 326
f 326 375 376
f 326 376 327
f 327 376 328
f 328 376 377
f 328 377 378
f 328 378 329
f 329 378 330
f 330 379 331
f 330 378 380
f 330 380 381
f 330 381 379
f 331 379 382
f 331 382 383
f 331 383 332
f 332 383 333
f 333 383 384
f 333 384 385
f 333 385 386
f 333 386 387
f 333 387 335
f 335 387 388
f 335 388 336
f 336 388 337
f 337 389 390
f 337 390 391
f 337 391 392
f 337 392 393
f 337 393 394
f 337 394 338
f 337 388 389
f 338 394 395
f 338 395 396
f 338 396 397
f 338 397 339
f 341 398 342
f 342 398 399
f 342 399 348
f 342 348 343
f 348 399 349
f 349 399 400
f 349 400 401
f 349 401 350
f 350 402 351
f 350 401 403
f 350 403 402
f 351 402 404
f 351 404 405
f 351 405 355
f 353 357 354
f 354 406 362
f 354 357 407
f 354 407 406
f 355 405 408
f 355 408 356
f 356 408 409
f 356 409 410
f 356 410 411
f 356 411 357
f 357 411 412
f 357 412 413
f 357 413 414
f 357 414 407
f 359 415 360
f 359 364 416
f 359 416 415
f 360 415 361
f 361 415 417
f 361 417 365
f 362 406 418
f 362 418 419
f 362 419 420
f 362 420 363
f 363 421 422
f 363 422 364
f 363 420 423
f 363 423 421
f 364 422 424
f 364 424 416
f 365 417 368
f 366 367 425
f 367 426 491
f 367 491 549
f 367 549 620
f 367 620 728
f 367 728 732
f 367 732 848
f 367 848 847
f 367 847 990
f 367 990 1120
f 367 1120 1119
f 367 1119 1207
f 367 1207 1258
f 367 1258 1257
f 367 1257 1306
f 367 1306 1327
f 367 1327 1325
f 367 1325 1275
f 367 1275 1228
f 367 1228 1161
f 367 1161 1227
f 367 1227 1154
f 367 1154 1036
f 367 1036 886
f 367 886 771
f 367 771 769
f 367 769 885
f 367 885 1035
f 367 1035 1034
f 367 1034 1150
f 367 1150 1149
f 367 1149 1148
f 367 1148 1147
f 367 1147 1223
f 367 1223 1271
f 367 1271 1274
f 367 1274 1324
f 367 1324 1357
f 367 1357 1321
f 367 1321 1356
f 367 1356 1355
f 367 1355 1354
f 367 1354 1352
f 367 1352 1379
f 367 1379 1390
f 367 1390 1393
f 367 1393 1389
f 367 1389 1375
f 367 1375 1345
f 367 1345 1340
f 367 1340 1372
f 367 1372 1371
f 367 1371 1370
f 367 1370 1377
f 367 1377 1348
f 367 1348 1315
f 367 1315 1265
f 367 1265 1213
f 367 1213 1125
f 367 1125 998
f 367 998 853
f 367 853 850
f 367 850 734
f 367 734 625
f 367 625 551
f 367 551 493
f 367 493 427
f 367 427 428
f 367 428 429
f 367 429 425
f 368 417 430
f 368 430 431
f 368 431 432
f 368 432 433
f 368 433 369
f 369 433 370
f 370 433 434
f 370 434 435
f 370 435 436
f 370 436 372
f 370 372 371
f 372 436 373
f 373 437 374
f 373 436 438
f 373 438 439
f 373 439 437
f 374 376 375
f 374 437 439
f 374 439 440
f 374 440 441
f 374 441 442
f 374 442 376
f 376 442 443
f 376 443 444
f 376 444 377
f 377 444 445
f 377 445 378
f 378 445 380
f 379 381 446
f 379 446 447
f 379 447 382
f 380 445 448
f 380 448 449
f 380 449 381
f 381 449 446
f 382 447 450
f 382 450 383
f 383 450 384
f 384 450 451
f 384 451 385
f 385 451 452
f 385 452 386
f 386 452 389
f 386 389 387
f 387 389 388
f 389 452 453
f 389 453 454
f 389 454 390
f 390 454 455
f 390 455 391
f 391 456 457
f 391 457 392
f 391 455 458
f 391 458 459
f 391 459 456
f 392 457 393
f 393 457 460
f 393 460 394
f 394 460 395
f 398 461 399
f 399 461 462
f 399 462 463
f 399 463 400
f 400 463 464
f 400 464 465
f 400 465 401
f 401 465 403
f 402 403 404
f 403 466 408
f 403 408 405
f 403 405 404
f 403 465 467
f 403 467 466
f 406 407 468
f 406 468 469
f 406 469 418
f 407 414 413
f 407 413 470
f 407 470 471
f 407 471 468
f 408 466 472
f 408 472 409
f 409 472 473
f 409 473 410
f 410 473 411
f 411 473 413
f 411 413 412
f 413 473 474
f 413 474 470
f 415 475 430
f 415 430 417
f 415 416 476
f 415 476 475
f 416 424 476
f 418 469 477
f 418 477 419
f 419 477 469
f 419 469 478
f 419 478 479
f 419 479 480
f 419 480 420
f 420 480 481
f 420 481 423
f 421 423 482
f 421 482 483
f 421 483 422
f 422 484 485
f 422 485 486
f 422 486 487
f 422 487 488
f 422 488 424
f 422 483 484
f 423 481 489
f 423 489 482
f 424 488 490
f 424 490 476
f 426 492 491
f 430 494 495
f 430 495 496
f 430 496 431
f 430 475 494
f 431 496 497
f 431 497 498
f 431 498 432
f 432 499 500
f 432 500 433
f 432 498 499
f 433 500 434
f 434 500 501
f 434 501 435
f 435 502 438
f 435 438 436
f 435 501 497
f 435 497 502
f 438 502 503
f 438 503 439
f 439 504 440
f 439 503 505
f 439 505 504
f 440 504 441
f 441 504 442
f 442 504 506
f 442 506 507
f 442 507 508
f 442 508 443
f 443 508 444
f 444 509 510
f 444 510 445
f 444 508 509
f 445 510 511
f 445 511 448
f 446 449 512
f 446 512 513
f 446 513 514
f 446 514 515
f 446 515 453
f 446 453 451
f 446 451 450
f 446 450 447
f 448 511 449
f 449 511 516
f 449 516 517
f 449 517 518
f 449 518 512
f 451 453 452
f 453 515 454
f 454 515 455
f 455 515 514
f 455 514 458
f 456 519 457
f 456 459 520
f 456 520 519
f 457 519 521
f 457 521 460
f 458 514 522
f 458 522 523
f 458 523 524
f 458 524 525
f 458 525 459
f 459 526 520
f 459 525 527
f 459 527 528
f 459 528 526
f 462 529 530
f 462 530 463
f 463 530 464
f 464 530 531
f 464 531 532
f 464 532 465
f 465 532 467
f 466 467 472
f 467 533 534
f 467 534 474
f 467 474 473
f 467 473 472
f 467 532 535
f 467 535 533
f 468 471 474
f 468 474 536
f 468 536 469
f 469 536 478
f 470 474 471
f 474 534 537
f 474 537 538
f 474 538 536
f 475 476 539
f 475 539 494
f 476 490 539
f 478 536 479
f 479 536 540
f 479 540 541
f 479 541 480
f 480 541 542
f 480 542 481
f 481 542 543
f 481 543 489
f 482 485 483
f 482 489 544
f 482 544 485
f 483 485 484
f 485 544 545
f 485 545 546
f 485 546 486
f 486 546 487
f 487 547 490
f 487 490 488
f 487 546 547
f 489 543 544
f 490 547 548
f 490 548 539
f 491 492 550
f 491 550 549
f 493 551 552
f 494 539 553
f 494 553 495
f 495 553 554
f 495 554 497
f 495 497 496
f 497 501 498
f 497 554 502
f 498 501 500
f 498 500 499
f 502 554 555
f 502 555 556
f 502 556 503
f 503 556 505
f 504 505 506
f 505 557 506
f 505 556 557
f 506 557 507
f 507 509 508
f 507 557 558
f 507 558 516
f 507 516 509
f 509 516 510
f 510 516 511
f 512 518 559
f 512 559 560
f 512 560 561
f 512 561 513
f 513 561 562
f 513 562 514
f 514 562 522
f 516 558 563
f 516 563 564
f 516 564 565
f 516 565 566
f 516 566 567
f 516 567 517
f 517 567 637
f 517 637 568
f 517 568 569
f 517 569 570
f 517 570 571
f 517 571 518
f 518 571 572
f 518 572 559
f 519 573 521
f 519 520 573
f 520 526 574
f 520 574 575
f 520 575 573
f 521 573 576
f 522 562 561
f 522 561 577
f 522 577 578
f 522 578 579
f 522 579 580
f 522 580 523
f 523 580 581
f 523 581 582
f 523 582 583
f 523 583 584
f 523 584 585
f 523 585 586
f 523 586 587
f 523 587 588
f 523 588 525
f 523 525 524
f 525 588 589
f 525 589 527
f 526 590 591
f 526 591 574
f 526 528 592
f 526 592 593
f 526 593 590
f 527 589 592
f 527 592 528
f 529 594 530
f 530 594 595
f 530 595 531
f 531 596 532
f 531 595 695
f 531 695 597
f 531 597 598
f 531 598 596
f 532 596 599
f 532 599 535
f 533 535 534
f 534 535 537
f 535 599 600
f 535 600 601
f 535 601 537
f 536 538 540
f 537 540 538
f 537 601 602
f 537 602 603
f 537 603 604
f 537 604 540
f 539 548 553
f 540 604 605
f 540 605 606
f 540 606 607
f 540 607 541
f 541 607 608
f 541 608 609
f 541 609 542
f 542 609 610
f 542 610 543
f 543 610 611
f 543 611 544
f 544 612 545
f 544 611 613
f 544 613 612
f 545 614 615
f 545 615 546
f 545 612 616
f 545 616 614
f 546 615 547
f 547 615 614
f 547 614 548
f 548 614 617
f 548 617 618
f 548 618 553
f 549 550 619
f 549 619 620
f 550 621 622
f 550 622 619
f 550 623 621
f 551 624 552
f 551 625 626
f 551 626 624
f 553 618 627
f 553 627 554
f 554 627 555
f 555 628 629
f 555 629 556
f 555 627 628
f 556 629 630
f 556 630 631
f 556 631 558
f 556 558 557
f 558 631 563
f 559 632 633
f 559 633 634
f 559 634 635
f 559 635 560
f 559 572 632
f 560 635 561
f 561 635 636
f 561 636 577
f 563 631 564
f 564 631 565
f 565 567 566
f 565 631 637
f 565 637 567
f 568 637 630
f 568 630 638
f 568 638 569
f 569 638 570
f 570 638 571
f 571 638 633
f 571 633 632
f 571 632 572
f 573 575 576
f 574 591 575
f 575 591 590
f 577 636 639
f 577 639 640
f 577 640 578
f 578 640 579
f 579 640 641
f 579 641 642
f 579 642 580
f 580 642 641
f 580 641 643
f 580 643 581
f 581 643 644
f 581 644 645
f 581 645 646
f 581 646 647
f 581 647 648
f 581 648 649
f 581 649 650
f 581 650 651
f 581 651 652
f 581 652 653
f 581 653 582
f 582 654 655
f 582 655 583
f 582 653 656
f 582 656 657
f 582 657 654
f 583 655 658
f 583 658 659
f 583 659 660
f 583 660 661
f 583 661 662
f 583 662 663
f 583 663 585
f 583 585 584
f 585 663 662
f 585 662 664
f 585 664 665
f 585 665 666
f 585 666 667
f 585 667 668
f 585 668 586
f 586 668 587
f 587 669 588
f 587 668 670
f 587 670 671
f 587 671 669
f 588 669 672
f 588 672 673
f 588 673 674
f 588 674 675
f 588 675 676
f 588 676 677
f 588 677 589
f 589 678 592
f 589 677 679
f 589 679 680
f 589 680 678
f 590 593 681
f 590 681 682
f 590 682 683
f 590 683 684
f 590 684 685
f 590 685 686
f 590 686 687
f 590 687 688
f 590 688 689
f 590 689 690
f 592 678 691
f 592 691 692
f 592 692 593
f 593 692 681
f 594 693 595
f 595 693 694
f 595 694 695
f 596 598 599
f 597 695 696
f 597 696 697
f 597 697 698
f 597 698 699
f 597 699 598
f 598 700 701
f 598 701 702
f 598 702 600
f 598 600 599
f 598 699 703
f 598 703 704
f 598 704 700
f 600 702 601
f 601 702 705
f 601 705 706
f 601 706 707
f 601 707 602
f 602 707 603
f 603 707 708
f 603 708 604
f 604 708 709
f 604 709 710
f 604 710 605
f 605 710 606
f 606 710 608
f 606 608 607
f 608 710 711
f 608 711 712
f 608 712 713
f 608 713 714
f 608 714 609
f 609 715 719
f 609 719 610
f 609 714 716
f 609 716 717
f 609 717 718
f 609 718 715
f 610 719 720
f 610 720 721
f 610 721 613
f 610 613 611
f 612 613 721
f 612 721 722
f 612 722 726
f 612 726 616
f 614 616 723
f 614 723 724
f 614 724 725
f 614 725 618
f 614 618 617
f 616 726 727
f 616 727 723
f 618 725 627
f 619 622 728
f 619 728 620
f 621 729 622
f 621 623 730
f 621 730 729
f 622 729 731
f 622 731 732
f 622 732 728
f 623 733 844
f 623 844 730
f 625 734 735
f 625 735 736
f 625 736 737
f 625 737 738
f 625 738 739
f 625 739 740
f 625 740 626
f 627 725 628
f 628 727 629
f 628 725 727
f 629 741 742
f 629 742 630
f 629 727 741
f 630 742 743
f 630 743 744
f 630 744 638
f 630 637 631
f 633 638 745
f 633 745 746
f 633 746 634
f 634 746 747
f 634 747 748
f 634 748 635
f 635 748 636
f 636 748 648
f 636 648 646
f 636 646 749
f 636 749 639
f 638 744 750
f 638 750 751
f 638 751 752
f 638 752 747
f 638 747 745
f 639 749 645
f 639 645 643
f 639 643 641
f 639 641 640
f 643 645 644
f 645 749 646
f 646 648 647
f 648 748 753
f 648 753 754
f 648 754 755
f 648 755 756
f 648 756 649
f 649 756 753
f 649 753 650
f 650 753 651
f 651 753 747
f 651 747 757
f 651 757 652
f 652 757 758
f 652 758 750
f 652 750 759
f 652 759 760
f 652 760 653
f 653 760 656
f 654 657 761
f 654 761 655
f 655 762 658
f 655 761 763
f 655 763 764
f 655 764 762
f 656 760 765
f 656 765 657
f 657 765 764
f 657 764 761
f 658 766 659
f 658 762 766
f 659 766 660
f 660 766 661
f 661 766 767
f 661 767 662
f 662 767 768
f 662 768 664
f 664 768 769
f 664 769 665
f 665 769 770
f 665 770 771
f 665 771 772
f 665 772 773
f 665 773 666
f 666 773 774
f 666 774 667
f 667 774 670
f 667 670 668
f 669 775 673
f 669 673 672
f 669 671 774
f 669 774 775
f 670 774 671
f 673 776 674
f 673 775 777
f 673 777 776
f 674 776 675
f 675 778 779
f 675 779 780
f 675 780 781
f 675 781 676
f 675 776 782
f 675 782 778
f 676 781 677
f 677 781 679
f 678 680 691
f 679 781 783
f 679 783 784
f 679 784 680
f 680 784 783
f 680 783 785
f 680 785 691
f 681 692 786
f 681 786 787
f 681 787 682
f 682 787 788
f 682 788 789
f 682 789 790
f 682 790 791
f 682 791 684
f 682 684 683
f 684 791 790
f 684 790 792
f 684 792 793
f 684 793 794
f 684 794 795
f 684 795 796
f 684 796 797
f 684 797 798
f 684 798 686
f 684 686 685
f 686 798 687
f 687 798 797
f 687 797 796
f 687 796 799
f 687 799 800
f 687 800 801
f 687 801 802
f 687 802 688
f 688 802 803
f 688 803 804
f 688 804 805
f 688 805 806
f 688 806 689
f 689 806 805
f 689 805 804
f 689 804 690
f 691 785 807
f 691 807 808
f 691 808 692
f 692 808 809
f 692 809 810
f 692 810 786
f 694 811 696
f 694 696 695
f 696 812 697
f 696 811 813
f 696 813 814
f 696 814 812
f 697 812 815
f 697 815 816
f 697 816 698
f 698 816 817
f 698 817 818
f 698 818 703
f 698 703 699
f 700 704 819
f 700 819 701
f 701 820 821
f 701 821 702
f 701 819 822
f 701 822 820
f 702 821 705
f 703 818 704
f 704 818 817
f 704 817 823
f 704 823 824
f 704 824 819
f 705 821 706
f 706 821 707
f 707 821 825
f 707 825 826
f 707 826 708
f 708 826 709
f 709 826 711
f 709 711 710
f 711 826 712
f 712 827 828
f 712 828 713
f 712 826 827
f 713 828 829
f 713 829 830
f 713 830 714
f 714 830 831
f 714 831 832
f 714 832 716
f 715 718 719
f 716 832 717
f 717 832 718
f 718 833 834
f 718 834 719
f 718 832 835
f 718 835 836
f 718 836 837
f 718 837 833
f 719 834 720
f 720 834 838
f 720 838 839
f 720 839 840
f 720 840 841
f 720 841 722
f 720 722 721
f 722 841 741
f 722 741 726
f 723 727 724
f 724 727 725
f 726 741 727
f 729 842 731
f 729 730 843
f 729 843 842
f 730 844 843
f 731 842 845
f 731 845 846
f 731 846 847
f 731 847 848
f 731 848 732
f 733 849 844
f 734 850 735
f 735 851 852
f 735 852 736
f 735 850 853
f 735 853 851
f 736 852 854
f 736 854 855
f 736 855 856
f 736 856 857
f 736 857 858
f 736 858 859
f 736 859 737
f 737 859 738
f 738 860 861
f 738 861 862
f 738 862 863
f 738 863 864
f 738 864 740
f 738 740 739
f 738 859 858
f 738 858 860
f 741 841 840
f 741 840 865
f 741 865 742
f 742 865 840
f 742 840 866
f 742 866 867
f 742 867 868
f 742 868 743
f 743 869 870
f 743 870 871
f 743 871 744
f 743 868 872
f 743 872 869
f 744 871 764
f 744 764 765
f 744 765 759
f 744 759 750
f 745 747 746
f 747 753 873
f 747 873 748
f 747 752 751
f 747 751 757
f 748 873 753
f 750 758 757
f 750 757 751
f 753 755 754
f 753 756 755
f 759 765 760
f 761 764 763
f 762 874 875
f 762 875 766
f 762 764 876
f 762 876 874
f 764 871 876
f 766 875 877
f 766 877 878
f 766 878 879
f 766 879 880
f 766 880 881
f 766 881 882
f 766 882 767
f 767 883 884
f 767 884 768
f 767 882 883
f 768 884 885
f 768 885 769
f 769 771 770
f 771 886 887
f 771 887 888
f 771 888 772
f 772 888 773
f 773 889 774
f 773 888 889
f 774 889 890
f 774 890 891
f 774 891 892
f 774 892 893
f 774 893 894
f 774 894 775
f 775 894 895
f 775 895 777
f 776 777 896
f 776 896 897
f 776 897 898
f 776 898 782
f 777 895 896
f 778 899 779
f 778 782 898
f 778 898 899
f 779 899 900
f 779 900 780
f 780 900 901
f 780 901 902
f 780 902 903
f 780 903 785
f 780 785 904
f 780 904 781
f 781 905 783
f 781 904 785
f 781 785 905
f 783 905 785
f 785 903 906
f 785 906 907
f 785 907 807
f 786 810 908
f 786 908 909
f 786 909 910
f 786 910 911
f 786 911 912
f 786 912 913
f 786 913 914
f 786 914 788
f 786 788 787
f 788 914 915
f 788 915 792
f 788 792 789
f 789 792 790
f 792 915 916
f 792 916 917
f 792 917 918
f 792 918 919
f 792 919 920
f 792 920 921
f 792 921 922
f 792 922 923
f 792 923 793
f 793 923 794
f 794 923 924
f 794 924 925
f 794 925 926
f 794 926 927
f 794 927 795
f 795 927 796
f 796 927 928
f 796 928 799
f 799 928 800
f 800 928 927
f 800 927 801
f 801 927 929
f 801 929 930
f 801 930 1068
f 801 1068 931
f 801 931 932
f 801 932 933
f 801 933 804
f 801 804 934
f 801 934 803
f 801 803 802
f 803 934 804
f 807 935 809
f 807 809 808
f 807 907 936
f 807 936 935
f 809 935 910
f 809 910 909
f 809 909 908
f 809 908 810
f 812 814 937
f 812 937 938
f 812 938 939
f 812 939 815
f 815 939 940
f 815 940 941
f 815 941 816
f 816 941 942
f 816 942 943
f 816 943 817
f 817 943 944
f 817 944 945
f 817 945 823
f 819 824 946
f 819 946 822
f 820 947 948
f 820 948 827
f 820 827 825
f 820 825 949
f 820 949 821
f 820 822 950
f 820 950 947
f 821 949 825
f 822 946 951
f 822 951 952
f 822 952 953
f 822 953 950
f 823 945 954
f 823 954 824
f 824 954 955
f 824 955 956
f 824 956 946
f 825 827 826
f 827 957 828
f 827 948 947
f 827 947 958
f 827 958 959
f 827 959 960
f 827 960 957
f 828 961 829
f 828 957 962
f 828 962 961
f 829 961 830
f 830 961 831
f 831 963 832
f 831 961 964
f 831 964 965
f 831 965 966
f 831 966 967
f 831 967 963
f 832 836 835
f 832 963 967
f 832 967 968
f 832 968 969
f 832 969 970
f 832 970 971
f 832 971 972
f 832 972 836
f 833 837 973
f 833 973 838
f 833 838 834
f 836 972 974
f 836 974 975
f 836 975 837
f 837 975 976
f 837 976 973
f 838 977 978
f 838 978 979
f 838 979 839
f 838 973 976
f 838 976 977
f 839 979 840
f 840 979 980
f 840 980 981
f 840 981 866
f 842 843 982
f 842 982 845
f 843 983 984
f 843 984 982
f 843 844 932
f 843 932 985
f 843 985 986
f 843 986 983
f 844 849 932
f 845 987 989
f 845 989 846
f 845 982 984
f 845 984 988
f 845 988 987
f 846 989 990
f 846 990 847
f 849 991 932
f 851 854 852
f 851 853 992
f 851 992 993
f 851 993 994
f 851 994 995
f 851 995 996
f 851 996 997
f 851 997 854
f 853 998 999
f 853 999 992
f 854 997 855
f 855 997 856
f 856 997 857
f 857 997 1000
f 857 1000 858
f 858 1000 860
f 860 1001 1002
f 860 1002 861
f 860 1000 1003
f 860 1003 1001
f 861 1004 1005
f 861 1005 862
f 861 1002 1006
f 861 1006 1007
f 861 1007 1004
f 862 1005 1008
f 866 981 980
f 866 980 977
f 866 977 976
f 866 976 1009
f 866 1009 868
f 866 868 867
f 868 1009 975
f 868 975 1010
f 868 1010 872
f 869 872 870
f 870 1011 875
f 870 875 871
f 870 872 1012
f 870 1012 1011
f 871 875 1013
f 871 1013 876
f 872 1010 1014
f 872 1014 1015
f 872 1015 1012
f 874 1013 875
f 874 876 1013
f 875 1016 1017
f 875 1017 877
f 875 1011 1016
f 877 1017 878
f 878 1017 1018
f 878 1018 1019
f 878 1019 879
f 879 1019 1020
f 879 1020 1021
f 879 1021 1022
f 879 1022 880
f 880 1023 1024
f 880 1024 1025
f 880 1025 1026
f 880 1026 1027
f 880 1027 881
f 880 1022 1023
f 881 1027 882
f 882 1027 1026
f 882 1026 883
f 883 1028 1029
f 883 1029 1030
f 883 1030 1031
f 883 1031 884
f 883 1026 1025
f 883 1025 1032
f 883 1032 1033
f 883 1033 1028
f 884 1031 1034
f 884 1034 1035
f 884 1035 885
f 886 1036 887
f 887 1036 888
f 888 1036 1037
f 888 1037 1038
f 888 1038 889
f 889 1038 890
f 890 1039 891
f 890 1038 1039
f 891 1039 1040
f 891 1040 1041
f 891 1041 892
f 892 1041 1042
f 892 1042 899
f 892 899 898
f 892 898 895
f 892 895 893
f 893 895 894
f 895 898 896
f 896 898 897
f 899 1042 1043
f 899 1043 901
f 899 901 900
f 901 1043 1042
f 901 1042 902
f 902 1042 1044
f 902 1044 1045
f 902 1045 1046
f 902 1046 1047
f 902 1047 1048
f 902 1048 1049
f 902 1049 903
f 903 1049 906
f 906 1049 1048
f 906 1048 1050
f 906 1050 1051
f 906 1051 1052
f 906 1052 1053
f 906 1053 907
f 907 1053 936
f 910 1054 1055
f 910 1055 911
f 910 935 1056
f 910 1056 1054
f 911 1055 912
f 912 1057 916
f 912 916 915
f 912 915 913
f 912 1055 1058
f 912 1058 1059
f 912 1059 1060
f 912 1060 1057
f 913 915 914
f 916 1057 917
f 917 1060 1061
f 917 1061 1062
f 917 1062 918
f 917 1057 1060
f 918 1062 919
f 919 1062 1063
f 919 1063 1064
f 919 1064 920
f 920 1064 921
f 921 1065 922
f 921 1064 1180
f 921 1180 1065
f 922 1065 924
f 922 924 923
f 924 1065 925
f 925 1065 1066
f 925 1066 1067
f 925 1067 926
f 926 1067 1068
f 926 1068 927
f 927 1068 930
f 927 930 929
f 931 1068 986
f 931 986 985
f 931 985 932
f 932 991 933
f 935 936 1056
f 936 1053 1052
f 936 1052 1056
f 938 1069 939
f 939 1070 1071
f 939 1071 1134
f 939 1134 1072
f 939 1072 940
f 939 1069 1070
f 940 1072 1073
f 940 1073 941
f 941 1073 1074
f 941 1074 1075
f 941 1075 1076
f 941 1076 942
f 942 1076 1077
f 942 1077 1078
f 942 1078 1079
f 942 1079 1080
f 942 1080 943
f 943 1080 1081
f 943 1081 944
f 944 1081 1082
f 944 1082 945
f 945 955 954
f 945 1082 1083
f 945 1083 1084
f 945 1084 955
f 946 956 1085
f 946 1085 1086
f 946 1086 951
f 947 1087 958
f 947 950 1088
f 947 1088 1089
f 947 1089 1090
f 947 1090 1087
f 950 953 1089
f 950 1089 1088
f 951 1086 1091
f 951 1091 952
f 952 1091 1092
f 952 1092 1093
f 952 1093 1094
f 952 1094 1090
f 952 1090 1089
f 952 1089 953
f 955 1084 1095
f 955 1095 956
f 956 1095 1096
f 956 1096 1097
f 956 1097 1085
f 957 960 959
f 957 959 962
f 958 1087 959
f 959 1087 1098
f 959 1098 962
f 961 962 964
f 962 1098 1099
f 962 1099 1100
f 962 1100 1101
f 962 1101 1102
f 962 1102 1103
f 962 1103 1104
f 962 1104 967
f 962 967 966
f 962 966 964
f 964 966 965
f 967 1104 1103
f 967 1103 1105
f 967 1105 1106
f 967 1106 1107
f 967 1107 968
f 968 1107 969
f 969 1107 970
f 970 1107 971
f 971 1107 1108
f 971 1108 972
f 972 1108 1109
f 972 1109 974
f 974 1109 1110
f 974 1110 975
f 975 1110 1111
f 975 1111 1112
f 975 1112 1010
f 975 1009 976
f 977 980 978
f 978 980 979
f 983 1113 988
f 983 988 984
f 983 986 1114
f 983 1114 1113
f 986 1068 1067
f 986 1067 1114
f 987 1115 989
f 987 988 1116
f 987 1116 1117
f 987 1117 1115
f 988 1113 1116
f 989 1115 1118
f 989 1118 1119
f 989 1119 1120
f 989 1120 990
f 992 999 993
f 993 999 1121
f 993 1121 1122
f 993 1122 994
f 994 1122 995
f 995 1122 1081
f 995 1081 1123
f 995 1123 1124
f 995 1124 996
f 996 1124 997
f 997 1124 1003
f 997 1003 1000
f 998 1125 1126
f 998 1126 999
f 999 1126 1127
f 999 1127 1128
f 999 1128 1121
f 1001 1003 1129
f 1001 1129 1075
f 1001 1075 1182
f 1001 1182 1130
f 1001 1130 1006
f 1001 1006 1131
f 1001 1131 1002
f 1002 1131 1006
f 1003 1124 1132
f 1003 1132 1133
f 1003 1133 1129
f 1004 1007 1008
f 1004 1008 1005
f 1006 1130 1074
f 1006 1074 1134
f 1006 1134 1007
f 1007 1134 1071
f 1007 1071 1135
f 1007 1135 1008
f 1008 1135 1069
f 1010 1112 1136
f 1010 1136 1014
f 1011 1012 1016
f 1012 1015 1137
f 1012 1137 1138
f 1012 1138 1017
f 1012 1017 1016
f 1014 1136 1137
f 1014 1137 1015
f 1017 1138 1019
f 1017 1019 1018
f 1019 1137 1139
f 1019 1139 1020
f 1019 1138 1137
f 1020 1139 1021
f 1021 1139 1136
f 1021 1136 1140
f 1021 1140 1023
f 1021 1023 1022
f 1023 1141 1142
f 1023 1142 1143
f 1023 1143 1144
f 1023 1144 1024
f 1023 1140 1141
f 1024 1144 1032
f 1024 1032 1025
f 1028 1033 1145
f 1028 1145 1029
f 1029 1145 1030
f 1030 1145 1146
f 1030 1146 1147
f 1030 1147 1148
f 1030 1148 1149
f 1030 1149 1150
f 1030 1150 1031
f 1031 1150 1034
f 1032 1144 1143
f 1032 1143 1151
f 1032 1151 1033
f 1033 1151 1152
f 1033 1152 1153
f 1033 1153 1146
f 1033 1146 1145
f 1036 1154 1155
f 1036 1155 1156
f 1036 1156 1157
f 1036 1157 1037
f 1037 1157 1158
f 1037 1158 1039
f 1037 1039 1038
f 1039 1158 1159
f 1039 1159 1045
f 1039 1045 1044
f 1039 1044 1040
f 1040 1044 1042
f 1040 1042 1041
f 1045 1159 1046
f 1046 1159 1158
f 1046 1158 1156
f 1046 1156 1160
f 1046 1160 1161
f 1046 1161 1162
f 1046 1162 1047
f 1047 1163 1048
f 1047 1162 1163
f 1048 1163 1232
f 1048 1232 1164
f 1048 1164 1050
f 1050 1165 1166
f 1050 1166 1167
f 1050 1167 1051
f 1050 1164 1165
f 1051 1168 1059
f 1051 1059 1052
f 1051 1167 1166
f 1051 1166 1168
f 1052 1059 1058
f 1052 1058 1056
f 1054 1056 1169
f 1054 1169 1055
f 1055 1169 1170
f 1055 1170 1058
f 1056 1058 1170
f 1056 1170 1169
f 1059 1168 1060
f 1060 1168 1171
f 1060 1171 1061
f 1061 1171 1172
f 1061 1172 1237
f 1061 1237 1173
f 1061 1173 1174
f 1061 1174 1062
f 1062 1174 1063
f 1063 1174 1175
f 1063 1175 1176
f 1063 1176 1177
f 1063 1177 1178
f 1063 1178 1064
f 1064 1178 1117
f 1064 1117 1179
f 1064 1179 1181
f 1064 1181 1180
f 1065 1180 1066
f 1066 1180 1181
f 1066 1181 1114
f 1066 1114 1067
f 1069 1135 1071
f 1069 1071 1070
f 1072 1134 1074
f 1072 1074 1073
f 1074 1130 1182
f 1074 1182 1075
f 1075 1129 1133
f 1075 1133 1132
f 1075 1132 1076
f 1076 1132 1183
f 1076 1183 1077
f 1077 1183 1078
f 1078 1183 1079
f 1079 1183 1080
f 1080 1183 1184
f 1080 1184 1081
f 1081 1184 1123
f 1081 1122 1185
f 1081 1185 1186
f 1081 1186 1082
f 1082 1186 1187
f 1082 1187 1188
f 1082 1188 1084
f 1082 1084 1083
f 1084 1188 1189
f 1084 1189 1190
f 1084 1190 1095
f 1085 1097 1096
f 1085 1096 1191
f 1085 1191 1192
f 1085 1192 1093
f 1085 1093 1092
f 1085 1092 1086
f 1086 1092 1091
f 1087 1090 1098
f 1090 1094 1193
f 1090 1193 1099
f 1090 1099 1098
f 1093 1192 1194
f 1093 1194 1195
f 1093 1195 1094
f 1094 1195 1196
f 1094 1196 1193
f 1095 1190 1096
f 1096 1190 1191
f 1099 1193 1197
f 1099 1197 1198
f 1099 1198 1100
f 1100 1198 1101
f 1101 1198 1102
f 1102 1198 1105
f 1102 1105 1103
f 1105 1198 1106
f 1106 1198 1199
f 1106 1199 1200
f 1106 1200 1201
f 1106 1201 1107
f 1107 1201 1202
f 1107 1202 1108
f 1108 1202 1109
f 1109 1202 1111
f 1109 1111 1110
f 1111 1202 1112
f 1112 1202 1203
f 1112 1203 1136
f 1113 1204 1116
f 1113 1114 1181
f 1113 1181 1204
f 1115 1205 1118
f 1115 1117 1205
f 1116 1204 1117
f 1117 1177 1205
f 1117 1204 1181
f 1117 1181 1179
f 1117 1178 1177
f 1118 1205 1206
f 1118 1206 1207
f 1118 1207 1119
f 1121 1128 1208
f 1121 1208 1122
f 1122 1209 1210
f 1122 1210 1211
f 1122 1211 1185
f 1122 1208 1212
f 1122 1212 1209
f 1123 1132 1124
f 1123 1184 1132
f 1125 1213 1214
f 1125 1214 1215
f 1125 1215 1212
f 1125 1212 1127
f 1125 1127 1126
f 1127 1212 1208
f 1127 1208 1128
f 1132 1184 1183
f 1136 1203 1216
f 1136 1216 1140
f 1136 1139 1137
f 1140 1216 1217
f 1140 1217 1218
f 1140 1218 1141
f 1141 1218 1219
f 1141 1219 1220
f 1141 1220 1142
f 1142 1220 1221
f 1142 1221 1222
f 1142 1222 1152
f 1142 1152 1143
f 1143 1152 1151
f 1146 1153 1147
f 1147 1153 1224
f 1147 1224 1223
f 1152 1222 1225
f 1152 1225 1226
f 1152 1226 1224
f 1152 1224 1153
f 1154 1227 1155
f 1155 1227 1156
f 1156 1227 1160
f 1156 1158 1157
f 1160 1227 1161
f 1161 1228 1229
f 1161 1229 1230
f 1161 1230 1162
f 1162 1230 1229
f 1162 1229 1163
f 1163 1229 1231
f 1163 1231 1232
f 1164 1233 1234
f 1164 1234 1165
f 1164 1232 1235
f 1164 1235 1233
f 1165 1234 1166
f 1166 1234 1236
f 1166 1236 1168
f 1168 1236 1172
f 1168 1172 1171
f 1172 1236 1281
f 1172 1281 1237
f 1173 1237 1284
f 1173 1284 1238
f 1173 1238 1239
f 1173 1239 1174
f 1174 1239 1240
f 1174 1240 1175
f 1175 1240 1176
f 1176 1240 1241
f 1176 1241 1205
f 1176 1205 1177
f 1185 1242 1243
f 1185 1243 1188
f 1185 1188 1186
f 1185 1211 1210
f 1185 1210 1242
f 1186 1188 1187
f 1188 1243 1244
f 1188 1244 1189
f 1189 1244 1190
f 1190 1244 1245
f 1190 1245 1191
f 1191 1245 1192
f 1192 1245 1246
f 1192 1246 1194
f 1193 1196 1247
f 1193 1247 1197
f 1194 1246 1195
f 1195 1246 1248
f 1195 1248 1247
f 1195 1247 1196
f 1197 1247 1198
f 1198 1247 1294
f 1198 1294 1249
f 1198 1249 1199
f 1199 1249 1250
f 1199 1250 1251
f 1199 1251 1200
f 1200 1203 1202
f 1200 1202 1201
f 1200 1251 1252
f 1200 1252 1218
f 1200 1218 1217
f 1200 1217 1253
f 1200 1253 1203
f 1203 1253 1216
f 1205 1254 1206
f 1205 1241 1255
f 1205 1255 1254
f 1206 1254 1256
f 1206 1256 1257
f 1206 1257 1258
f 1206 1258 1207
f 1209 1212 1259
f 1209 1259 1210
f 1210 1259 1260
f 1210 1260 1261
f 1210 1261 1262
f 1210 1262 1263
f 1210 1263 1242
f 1212 1215 1214
f 1212 1214 1264
f 1212 1264 1259
f 1213 1265 1214
f 1214 1265 1266
f 1214 1266 1264
f 1216 1253 1217
f 1218 1252 1267
f 1218 1267 1219
f 1219 1267 1268
f 1219 1268 1220
f 1220 1268 1221
f 1221 1268 1269
f 1221 1269 1270
f 1221 1270 1225
f 1221 1225 1222
f 1223 1224 1271
f 1224 1226 1271
f 1225 1270 1272
f 1225 1272 1273
f 1225 1273 1274
f 1225 1274 1226
f 1226 1274 1271
f 1228 1275 1229
f 1229 1275 1276
f 1229 1276 1231
f 1231 1276 1277
f 1231 1277 1278
f 1231 1278 1279
f 1231 1279 1232
f 1232 1279 1235
f 1233 1280 1281
f 1233 1281 1234
f 1233 1235 1282
f 1233 1282 1283
f 1233 1283 1280
f 1234 1281 1236
f 1235 1279 1282
f 1237 1281 1280
f 1237 1280 1284
f 1238 1284 1285
f 1238 1285 1286
f 1238 1286 1287
f 1238 1287 1240
f 1238 1240 1239
f 1240 1287 1288
f 1240 1288 1289
f 1240 1289 1255
f 1240 1255 1241
f 1242 1263 1314
f 1242 1314 1290
f 1242 1290 1244
f 1242 1244 1243
f 1244 1290 1291
f 1244 1291 1245
f 1245 1291 1292
f 1245 1292 1293
f 1245 1293 1246
f 1246 1293 1248
f 1247 1248 1294
f 1248 1293 1295
f 1248 1295 1296
f 1248 1296 1297
f 1248 1297 1298
f 1248 1298 1294
f 1249 1294 1298
f 1249 1298 1299
f 1249 1299 1300
f 1249 1300 1301
f 1249 1301 1250
f 1250 1301 1302
f 1250 1302 1251
f 1251 1302 1303
f 1251 1303 1252
f 1252 1303 1267
f 1254 1255 1289
f 1254 1289 1304
f 1254 1304 1305
f 1254 1305 1256
f 1256 1306 1257
f 1256 1305 1306
f 1259 1264 1266
f 1259 1266 1307
f 1259 1307 1260
f 1260 1307 1308
f 1260 1308 1261
f 1261 1309 1262
f 1261 1308 1310
f 1261 1310 1311
f 1261 1311 1312
f 1261 1312 1309
f 1262 1313 1263
f 1262 1309 1313
f 1263 1313 1314
f 1265 1315 1266
f 1266 1316 1307
f 1266 1315 1316
f 1267 1303 1317
f 1267 1317 1318
f 1267 1318 1268
f 1268 1318 1269
f 1269 1318 1319
f 1269 1319 1320
f 1269 1320 1270
f 1270 1320 1321
f 1270 1321 1322
f 1270 1322 1323
f 1270 1323 1272
f 1272 1323 1273
f 1273 1323 1324
f 1273 1324 1274
f 1275 1325 1276
f 1276 1326 1278
f 1276 1278 1277
f 1276 1325 1326
f 1278 1326 1327
f 1278 1327 1305
f 1278 1305 1279
f 1279 1305 1282
f 1280 1283 1284
f 1282 1305 1304
f 1282 1304 1289
f 1282 1289 1328
f 1282 1328 1283
f 1283 1328 1285
f 1283 1285 1284
f 1285 1328 1287
f 1285 1287 1286
f 1287 1328 1288
f 1288 1328 1289
f 1290 1314 1291
f 1291 1314 1329
f 1291 1329 1292
f 1292 1329 1330
f 1292 1330 1293
f 1293 1330 1295
f 1295 1330 1331
f 1295 1331 1332
f 1295 1332 1296
f 1296 1332 1333
f 1296 1333 1334
f 1296 1334 1335
f 1296 1335 1297
f 1297 1335 1334
f 1297 1334 1298
f 1298 1334 1299
f 1299 1334 1336
f 1299 1336 1302
f 1299 1302 1300
f 1300 1302 1301
f 1302 1336 1334
f 1302 1334 1337
f 1302 1337 1317
f 1302 1317 1303
f 1305 1327 1306
f 1307 1316 1338
f 1307 1338 1308
f 1308 1338 1339
f 1308 1339 1340
f 1308 1340 1310
f 1309 1312 1341
f 1309 1341 1342
f 1309 1342 1343
f 1309 1343 1331
f 1309 1331 1313
f 1310 1344 1311
f 1310 1340 1345
f 1310 1345 1344
f 1311 1344 1312
f 1312 1344 1346
f 1312 1346 1347
f 1312 1347 1341
f 1313 1331 1330
f 1313 1330 1329
f 1313 1329 1314
f 1315 1348 1349
f 1315 1349 1316
f 1316 1339 1338
f 1316 1349 1339
f 1317 1337 1318
f 1318 1337 1350
f 1318 1350 1319
f 1319 1350 1351
f 1319 1351 1352
f 1319 1352 1353
f 1319 1353 1320
f 1320 1352 1354
f 1320 1354 1355
f 1320 1355 1356
f 1320 1356 1321
f 1320 1353 1352
f 1321 1357 1323
f 1321 1323 1322
f 1323 1357 1324
f 1325 1327 1358
f 1325 1358 1326
f 1326 1358 1327
f 1331 1343 1342
f 1331 1342 1332
f 1332 1342 1359
f 1332 1359 1360
f 1332 1360 1361
f 1332 1361 1333
f 1333 1361 1334
f 1334 1361 1362
f 1334 1362 1363
f 1334 1363 1364
f 1334 1364 1337
f 1337 1364 1363
f 1337 1363 1365
f 1337 1365 1366
f 1337 1366 1367
f 1337 1367 1368
f 1337 1368 1350
f 1339 1349 1369
f 1339 1369 1370
f 1339 1370 1371
f 1339 1371 1372
f 1339 1372 1340
f 1341 1347 1373
f 1341 1373 1342
f 1342 1373 1359
f 1344 1347 1346
f 1344 1345 1374
f 1344 1374 1347
f 1345 1375 1387
f 1345 1387 1376
f 1345 1376 1374
f 1347 1374 1376
f 1347 1376 1387
f 1347 1387 1373
f 1348 1377 1349
f 1349 1377 1369
f 1350 1368 1367
f 1350 1367 1352
f 1350 1352 1351
f 1352 1378 1379
f 1352 1367 1378
f 1359 1373 1380
f 1359 1380 1381
f 1359 1381 1382
f 1359 1382 1360
f 1360 1382 1383
f 1360 1383 1361
f 1361 1383 1362
f 1362 1365 1363
f 1362 1383 1384
f 1362 1384 1365
f 1365 1384 1385
f 1365 1385 1366
f 1366 1381 1386
f 1366 1386 1378
f 1366 1378 1367
f 1366 1385 1384
f 1366 1384 1381
f 1369 1377 1370
f 1373 1387 1388
f 1373 1388 1380
f 1375 1389 1387
f 1378 1386 1379
f 1379 1386 1391
f 1379 1391 1390
f 1380 1388 1386
f 1380 1386 1381
f 1381 1384 1383
f 1381 1383 1382
f 1386 1388 1387
f 1386 1387 1389
f 1386 1389 1392
f 1386 1392 1393
f 1386 1393 1390
f 1386 1390 1391
f 1389 1393 1392

