# https://github.com/mikedh/trimesh
v -0.00017943 0.02156441 0.01404986
v -0.00029563 0.02013476 0.01509376
v -0.00017943 0.02031252 0.01495023
v -0.00017943 0.02156441 0.01301557
v -0.00034052 0.02156441 0.01406222
v -0.00125370 0.01925039 0.01585506
v -0.00115018 0.01924358 0.01584990
v -0.00095371 0.01940452 0.01570774
v -0.00017943 0.02014117 0.01507316
v -0.00020320 0.02021323 0.01502474
v -0.00050319 0.02156441 0.01298810
v -0.00017943 0.02141347 0.01304819
v -0.00091304 0.02135262 0.01299840
v -0.00557507 0.02126334 0.01261861
v -0.00557507 0.02155680 0.01255543
v -0.00557507 0.02156401 0.01255406
v -0.00035319 0.02156441 0.01406291
v -0.00125370 0.01916311 0.01589764
v -0.00110370 0.02156441 0.01409759
v -0.00125370 0.02156441 0.01410446
v -0.00140370 0.01925479 0.01585849
v -0.00140370 0.01916311 0.01590553
v -0.00110159 0.01917472 0.01587669
v -0.00105036 0.01923237 0.01584304
v -0.00080054 0.01932566 0.01574208
v -0.00095371 0.01931325 0.01577299
v -0.00084860 0.01939412 0.01570053
v -0.00017943 0.02005990 0.01513050
v -0.00074878 0.01938411 0.01569332
v -0.00409042 0.02156441 0.01268386
v -0.00017943 0.02126334 0.01308768
v -0.00101286 0.02133381 0.01299428
v -0.00492649 0.02118768 0.01269519
v -0.00557507 0.02123652 0.01262651
v -0.00557507 0.02156441 0.01299943
v -0.00545518 0.02156441 0.01256848
v -0.00140264 0.01899937 0.01597352
v -0.00125370 0.01901298 0.01595979
v -0.00140370 0.02156441 0.01410892
v -0.00155369 0.02156441 0.01411270
v -0.00155369 0.01925640 0.01585952
v -0.00155369 0.01916311 0.01590828
v -0.00155369 0.01902019 0.01597009
v -0.00110370 0.01901298 0.01594365
v -0.00095371 0.01914470 0.01587257
v -0.00095371 0.01921956 0.01583617
v -0.00065371 0.01929843 0.01573796
v -0.00065371 0.01937330 0.01568611
v -0.00055178 0.01954425 0.01555047
v -0.00020320 0.01994379 0.01521567
v -0.00017943 0.01995821 0.01520159
v -0.00017943 0.02124773 0.01309318
v -0.00148239 0.02118928 0.01299600
v -0.00315295 0.02119648 0.01284765
v -0.00557507 0.02110561 0.01266669
v -0.00325277 0.02118247 0.01284319
v -0.00557507 0.02156441 0.01337888
v -0.00135246 0.01893492 0.01599550
v -0.00155369 0.01894492 0.01599894
v -0.00145229 0.01894052 0.01599722
v -0.00125370 0.01892010 0.01599172
v -0.00170369 0.02156441 0.01411476
v -0.00170369 0.01925720 0.01585986
v -0.00170369 0.01916311 0.01590931
v -0.00170369 0.01902299 0.01597043
v -0.00170369 0.01894813 0.01600031
v -0.00095371 0.01901298 0.01592373
v -0.00067907 0.01910426 0.01585334
v -0.00080371 0.01912348 0.01586227
v -0.00080371 0.01919835 0.01582552
v -0.00050319 0.01927882 0.01572354
v -0.00050319 0.01935408 0.01567306
v -0.00026235 0.01969237 0.01539903
v -0.00017943 0.01987774 0.01525756
v -0.00017943 0.02115125 0.01312855
v -0.00557507 0.02096829 0.01272197
v -0.00557507 0.02109400 0.01267115
v -0.00557507 0.02156360 0.01342833
v -0.00556609 0.02156441 0.01340875
v -0.00155369 0.01886285 0.01602091
v -0.00140264 0.01887606 0.01601198
v -0.00125370 0.01884484 0.01601027
v -0.00170369 0.01886285 0.01602435
v -0.00113011 0.01881681 0.01600306
v -0.00108944 0.01886525 0.01598589
v -0.00185368 0.02156441 0.01411098
v -0.00200421 0.02156441 0.01410068
v -0.00185368 0.01924959 0.01585471
v -0.00185368 0.01916311 0.01589901
v -0.00179981 0.01894452 0.01599894
v -0.00080371 0.01901298 0.01590279
v -0.00057924 0.01908785 0.01584613
v -0.00063893 0.01915791 0.01581934
v -0.00050319 0.01916311 0.01579221
v -0.00035319 0.01925680 0.01570843
v -0.00035319 0.01933166 0.01565898
v -0.00035319 0.01944416 0.01558378
v -0.00017943 0.01965755 0.01540693
v -0.00017943 0.01976924 0.01533139
v -0.00017943 0.02107598 0.01316289
v -0.00260419 0.02099871 0.01297746
v -0.00222128 0.02103675 0.01299497
v -0.00462228 0.02088702 0.01284491
v -0.00470414 0.02087901 0.01284113
v -0.00485467 0.02086419 0.01283426
v -0.00500466 0.02084978 0.01282739
v -0.00557507 0.02081055 0.01279477
v -0.00557507 0.01960310 0.01470951
v -0.00455414 0.02156441 0.01370578
v -0.00470414 0.02156441 0.01366183
v -0.00170369 0.01871312 0.01604804
v -0.00155369 0.01871312 0.01604323
v -0.00140370 0.01871312 0.01603671
v -0.00125370 0.01871312 0.01602538
v -0.00185157 0.01887126 0.01601473
v -0.00185368 0.01871312 0.01604564
v -0.00103029 0.01878158 0.01599619
v -0.00095371 0.01886285 0.01596700
v -0.00215421 0.02156441 0.01408729
v -0.00194347 0.01924078 0.01584819
v -0.00230420 0.02156441 0.01407287
v -0.00245261 0.02156441 0.01405604
v -0.00252708 0.02156441 0.01404608
v -0.00260419 0.02156441 0.01403544
v -0.00305365 0.02156441 0.01397294
v -0.00200421 0.01901298 0.01594640
v -0.00185157 0.01900177 0.01596975
v -0.00215421 0.01913989 0.01587223
v -0.00189963 0.01892691 0.01599275
v -0.00215421 0.01901298 0.01592785
v -0.00080371 0.01886285 0.01594468
v -0.00065371 0.01886285 0.01592133
v -0.00063893 0.01902780 0.01587291
v -0.00050319 0.01899016 0.01586124
v -0.00050319 0.01906543 0.01583995
v -0.00035319 0.01916311 0.01576268
v -0.00026499 0.01924278 0.01569916
v -0.00020320 0.01942174 0.01556833
v -0.00017943 0.01951102 0.01550446
v -0.00020320 0.01949660 0.01551888
v -0.00017943 0.02082656 0.01327792
v -0.00051481 0.02097749 0.01317765
v -0.00305365 0.02080414 0.01302587
v -0.00245420 0.02093866 0.01301866
v -0.00230420 0.02095347 0.01302553
v -0.00362670 0.02074769 0.01299977
v -0.00372652 0.02073769 0.01299531
v -0.00500466 0.02077492 0.01286276
v -0.00515466 0.02083577 0.01282053
v -0.00557507 0.02079333 0.01280370
v -0.00530465 0.02074649 0.01284937
v -0.00538705 0.02073889 0.01284594
v -0.00050319 0.01851255 0.01435788
v -0.00065371 0.01850014 0.01435204
v -0.00447862 0.02028809 0.01314572
v -0.00557507 0.01946338 0.01479364
v -0.00279327 0.01922277 0.01568645
v -0.00269292 0.01924358 0.01569984
v -0.00425415 0.02156441 0.01377927
v -0.00170369 0.01856299 0.01605491
v -0.00185368 0.01856299 0.01605594
v -0.00155369 0.01856299 0.01604873
v -0.00140370 0.01856299 0.01603980
v -0.00125370 0.01856299 0.01602709
v -0.00110370 0.01856299 0.01601061
v -0.00108944 0.01872393 0.01600580
v -0.00200421 0.01883082 0.01600889
v -0.00200421 0.01871312 0.01603293
v -0.00200421 0.01856299 0.01605079
v -0.00101867 0.01868149 0.01599756
v -0.00050319 0.01856299 0.01593026
v -0.00020320 0.01856299 0.01588871
v -0.00017943 0.01856299 0.01588527
v -0.00050319 0.01871312 0.01592202
v -0.00017943 0.01871192 0.01587119
v -0.00204329 0.01922877 0.01584098
v -0.00320365 0.02156441 0.01395062
v -0.00335365 0.02156441 0.01392761
v -0.00395416 0.02156441 0.01383421
v -0.00410416 0.02156441 0.01381086
v -0.00215421 0.01921476 0.01583239
v -0.00230420 0.01911667 0.01586089
v -0.00200421 0.01890609 0.01598623
v -0.00230420 0.01901298 0.01590485
v -0.00216530 0.01885925 0.01598039
v -0.00017943 0.01873594 0.01586673
v -0.00017943 0.01881081 0.01585231
v -0.00020320 0.01881841 0.01585471
v -0.00050319 0.01886285 0.01589592
v -0.00039809 0.01895814 0.01585162
v -0.00029827 0.01892491 0.01584269
v -0.00035003 0.01901018 0.01582724
v -0.00020320 0.01901298 0.01579565
v -0.00017943 0.01901298 0.01579050
v -0.00017943 0.01903060 0.01578294
v -0.00017943 0.01916071 0.01572525
v -0.00021059 0.01916952 0.01572766
v -0.00017943 0.01920635 0.01570053
v -0.00017943 0.01924879 0.01567546
v -0.00017943 0.01930564 0.01563906
v -0.00017943 0.01941774 0.01556592
v -0.00017943 0.02076331 0.01330711
v -0.00110370 0.02059676 0.01329955
v -0.00395416 0.02071647 0.01298501
v -0.00028929 0.02044023 0.01344652
v -0.00557507 0.02072728 0.01283873
v -0.00077572 0.01849213 0.01434792
v -0.00395416 0.02064120 0.01302107
v -0.00485467 0.02066322 0.01292972
v -0.00017943 0.01860423 0.01434071
v -0.00017943 0.01854097 0.01437127
v -0.00035319 0.01852536 0.01436406
v -0.00017943 0.01839885 0.01444132
v -0.00017943 0.01831478 0.01448356
v -0.00017943 0.01830277 0.01448974
v -0.00017943 0.01823951 0.01452305
v -0.00557507 0.01933646 0.01486953
v -0.00274732 0.01916872 0.01573075
v -0.00290366 0.01912268 0.01571633
v -0.00260419 0.01916311 0.01577024
v -0.00260419 0.01925920 0.01571083
v -0.00245420 0.01928362 0.01572834
v -0.00170369 0.01841286 0.01605972
v -0.00185368 0.01841286 0.01606178
v -0.00200421 0.01841286 0.01606040
v -0.00155369 0.01841286 0.01605113
v -0.00140370 0.01841286 0.01604083
v -0.00125370 0.01841286 0.01602812
v -0.00110370 0.01841286 0.01601198
v -0.00099966 0.01841286 0.01599962
v -0.00092466 0.01841286 0.01599069
v -0.00100758 0.01856299 0.01599894
v -0.00212304 0.01880640 0.01600168
v -0.00222287 0.01878318 0.01599550
v -0.00216530 0.01872513 0.01601164
v -0.00215421 0.01856299 0.01603808
v -0.00215421 0.01841286 0.01605525
v -0.00093258 0.01856299 0.01598898
v -0.00080371 0.01856299 0.01597146
v -0.00080371 0.01841286 0.01597524
v -0.00065371 0.01841286 0.01595464
v -0.00050319 0.01841286 0.01593335
v -0.00035319 0.01841286 0.01591206
v -0.00020320 0.01841286 0.01589008
v -0.00017943 0.01843648 0.01588630
v -0.00230420 0.01930324 0.01574414
v -0.00230420 0.01919194 0.01581934
v -0.00240719 0.01909826 0.01585128
v -0.00230420 0.01886285 0.01595739
v -0.00250701 0.01907664 0.01584201
v -0.00245578 0.01902139 0.01587257
v -0.00017943 0.01888607 0.01583136
v -0.00020320 0.01889368 0.01583377
v -0.00035003 0.01887006 0.01586707
v -0.00017943 0.01917553 0.01571736
v -0.00017943 0.02064360 0.01336239
v -0.00020320 0.02052350 0.01341562
v -0.00017943 0.02045064 0.01345167
v -0.00017943 0.02036296 0.01349357
v -0.00335365 0.02046625 0.01315911
v -0.00557507 0.02071567 0.01284525
v -0.00017943 0.01821829 0.01453438
v -0.00017943 0.01810019 0.01459997
v -0.00320365 0.02036296 0.01322229
v -0.00395416 0.02033534 0.01316838
v -0.00017943 0.01974762 0.01378991
v -0.00557507 0.01914110 0.01497358
v -0.00417229 0.01908385 0.01539423
v -0.00358762 0.01909225 0.01554841
v -0.00300295 0.01909986 0.01570259
v -0.00245578 0.01915431 0.01580938
v -0.00170369 0.01826273 0.01604049
v -0.00155369 0.01826273 0.01603224
v -0.00185368 0.01826273 0.01604392
v -0.00200421 0.01826273 0.01604323
v -0.00215421 0.01826273 0.01604186
v -0.00140370 0.01826273 0.01602160
v -0.00110370 0.01830197 0.01600409
v -0.00100758 0.01832559 0.01599859
v -0.00227832 0.01868310 0.01600340
v -0.00231846 0.01857740 0.01601439
v -0.00245420 0.01886285 0.01592785
v -0.00260419 0.01871312 0.01593678
v -0.00245420 0.01871312 0.01596700
v -0.00231846 0.01872513 0.01599001
v -0.00237814 0.01863706 0.01599619
v -0.00230420 0.01841286 0.01604014
v -0.00230420 0.01826273 0.01603362
v -0.00035319 0.01826273 0.01590416
v -0.00020320 0.01826273 0.01588184
v -0.00017943 0.01828635 0.01587944
v -0.00017943 0.01841286 0.01588630
v -0.00260419 0.01904781 0.01583067
v -0.00260419 0.01897255 0.01585883
v -0.00017943 0.02012835 0.01360654
v -0.00155369 0.02036296 0.01337029
v -0.00557507 0.01994580 0.01328788
v -0.00017943 0.01766261 0.01485167
v -0.00557507 0.01886365 0.01505839
v -0.00500466 0.01856299 0.01535371
v -0.00500466 0.01871312 0.01530460
v -0.00478865 0.01864546 0.01539869
v -0.00484463 0.01870231 0.01536092
v -0.00470414 0.01875356 0.01538358
v -0.00462492 0.01878438 0.01539491
v -0.00456629 0.01886646 0.01537706
v -0.00445010 0.01891890 0.01538805
v -0.00440204 0.01900618 0.01536367
v -0.00435028 0.01895133 0.01540178
v -0.00411525 0.01902539 0.01543440
v -0.00310277 0.01907103 0.01568885
v -0.00170369 0.01814903 0.01600821
v -0.00155369 0.01815904 0.01600477
v -0.00185368 0.01814263 0.01600992
v -0.00140370 0.01810099 0.01597971
v -0.00140370 0.01817585 0.01599928
v -0.00132447 0.01818666 0.01599653
v -0.00200421 0.01813862 0.01601027
v -0.00215421 0.01813902 0.01600924
v -0.00230420 0.01814903 0.01600649
v -0.00122465 0.01820228 0.01599275
v -0.00126638 0.01825632 0.01600924
v -0.00110370 0.01822670 0.01598795
v -0.00080371 0.01811260 0.01593369
v -0.00065371 0.01811260 0.01591858
v -0.00095635 0.01827034 0.01598245
v -0.00080371 0.01826273 0.01596357
v -0.00065371 0.01826273 0.01594468
v -0.00050319 0.01826273 0.01592476
v -0.00050319 0.01811260 0.01590244
v -0.00245420 0.01852656 0.01600237
v -0.00260419 0.01886285 0.01589557
v -0.00286616 0.01881201 0.01585471
v -0.00275419 0.01871312 0.01590519
v -0.00312654 0.01863546 0.01584578
v -0.00275419 0.01856299 0.01593884
v -0.00245420 0.01860183 0.01598932
v -0.00259046 0.01854938 0.01597387
v -0.00253184 0.01849013 0.01599653
v -0.00245420 0.01841286 0.01601851
v -0.00257831 0.01829436 0.01600340
v -0.00242092 0.01816745 0.01600168
v -0.00246423 0.01825152 0.01601267
v -0.00252075 0.01819427 0.01599516
v -0.00018999 0.01809899 0.01586089
v -0.00017943 0.01810339 0.01585986
v -0.00017943 0.01826273 0.01587806
v -0.00274627 0.01900257 0.01581248
v -0.00269081 0.01894572 0.01584887
v -0.00290366 0.01901298 0.01576680
v -0.00274627 0.01886245 0.01586467
v -0.00557507 0.01786719 0.01448356
v -0.00017943 0.01764619 0.01486197
v -0.00236652 0.01758694 0.01479536
v -0.00140370 0.01762497 0.01481733
v -0.00557507 0.01776630 0.01454228
v -0.00557507 0.01785237 0.01449214
v -0.00557507 0.01856179 0.01513325
v -0.00543194 0.01826273 0.01527232
v -0.00540342 0.01837283 0.01525618
v -0.00530465 0.01826273 0.01532486
v -0.00531310 0.01841887 0.01527954
v -0.00515466 0.01841286 0.01534135
v -0.00515466 0.01856299 0.01529980
v -0.00501258 0.01842727 0.01538461
v -0.00489797 0.01856299 0.01538736
v -0.00482298 0.01856299 0.01540865
v -0.00470414 0.01856299 0.01544196
v -0.00455414 0.01856299 0.01548385
v -0.00430855 0.01861384 0.01554017
v -0.00372494 0.01863345 0.01569504
v -0.00420820 0.01865988 0.01555390
v -0.00452457 0.01881881 0.01540831
v -0.00362512 0.01867109 0.01570877
v -0.00414060 0.01875996 0.01553570
v -0.00404025 0.01879559 0.01554910
v -0.00440204 0.01886646 0.01542239
v -0.00395416 0.01889968 0.01553055
v -0.00386543 0.01892891 0.01554257
v -0.00376561 0.01896134 0.01555596
v -0.00305313 0.01901779 0.01572457
v -0.00170369 0.01807417 0.01598520
v -0.00155369 0.01796287 0.01594674
v -0.00140370 0.01796287 0.01594125
v -0.00155369 0.01808417 0.01598314
v -0.00185368 0.01806776 0.01598726
v -0.00200421 0.01806376 0.01598898
v -0.00200421 0.01796287 0.01595876
v -0.00125370 0.01796287 0.01593232
v -0.00126638 0.01812701 0.01597662
v -0.00110370 0.01811260 0.01596048
v -0.00215421 0.01806416 0.01598932
v -0.00215421 0.01796287 0.01596082
v -0.00230420 0.01807377 0.01598657
v -0.00260419 0.01796287 0.01593575
v -0.00245420 0.01796287 0.01594743
v -0.00095371 0.01811260 0.01594777
v -0.00042502 0.01788680 0.01584647
v -0.00050319 0.01796287 0.01587119
v -0.00017943 0.01802653 0.01584887
v -0.00017943 0.01808898 0.01585815
v -0.00036640 0.01796247 0.01585643
v -0.00296545 0.01877678 0.01584304
v -0.00291105 0.01872113 0.01586948
v -0.00320365 0.01871312 0.01580286
v -0.00335365 0.01871312 0.01576509
v -0.00335365 0.01856299 0.01580938
v -0.00321580 0.01857660 0.01583823
v -0.00317355 0.01853537 0.01585608
v -0.00306739 0.01857660 0.01587051
v -0.00275419 0.01841286 0.01596837
v -0.00290366 0.01856299 0.01590759
v -0.00264275 0.01841286 0.01598966
v -0.00256775 0.01841286 0.01600203
v -0.00290366 0.01826273 0.01594468
v -0.00275419 0.01826273 0.01597112
v -0.00305365 0.01811260 0.01590382
v -0.00261845 0.01825152 0.01599069
v -0.00260419 0.01811260 0.01596803
v -0.00275419 0.01796287 0.01591824
v -0.00290366 0.01811260 0.01592614
v -0.00275419 0.01811260 0.01594743
v -0.00305365 0.01886285 0.01578741
v -0.00291105 0.01886245 0.01582484
v -0.00327970 0.01893852 0.01569641
v -0.00017943 0.01755611 0.01492035
v -0.00245420 0.01758414 0.01479330
v -0.00557507 0.01758975 0.01464839
v -0.00557507 0.01765420 0.01460924
v -0.00557507 0.01841406 0.01516965
v -0.00544145 0.01811260 0.01528159
v -0.00530465 0.01811260 0.01534066
v -0.00550694 0.01826273 0.01523558
v -0.00509286 0.01821429 0.01539972
v -0.00514779 0.01826353 0.01537603
v -0.00506751 0.01831437 0.01539251
v -0.00496769 0.01838684 0.01540693
v -0.00492861 0.01848693 0.01539594
v -0.00470414 0.01841286 0.01547561
v -0.00435080 0.01851375 0.01555219
v -0.00425679 0.01856339 0.01556661
v -0.00395416 0.01856299 0.01564971
v -0.00381314 0.01857540 0.01568508
v -0.00376931 0.01853377 0.01570705
v -0.00366684 0.01857540 0.01572457
v -0.00350417 0.01856299 0.01577092
v -0.00350417 0.01871793 0.01572354
v -0.00395416 0.01882442 0.01556077
v -0.00355487 0.01877077 0.01568954
v -0.00345452 0.01880520 0.01570293
v -0.00337953 0.01890529 0.01568302
v -0.00185368 0.01796287 0.01595498
v -0.00140370 0.01781274 0.01589214
v -0.00125370 0.01781274 0.01588630
v -0.00170369 0.01781274 0.01589901
v -0.00155369 0.01781274 0.01589592
v -0.00110370 0.01781274 0.01587738
v -0.00096216 0.01780273 0.01586433
v -0.00110370 0.01796287 0.01592133
v -0.00095371 0.01796287 0.01590965
v -0.00080371 0.01796287 0.01589764
v -0.00230420 0.01796287 0.01595636
v -0.00215421 0.01781274 0.01589764
v -0.00200421 0.01781274 0.01590073
v -0.00185368 0.01781274 0.01590107
v -0.00275419 0.01784997 0.01587394
v -0.00260419 0.01783836 0.01588184
v -0.00245420 0.01782795 0.01588665
v -0.00065371 0.01796287 0.01588493
v -0.00036640 0.01782715 0.01580938
v -0.00020320 0.01781274 0.01577676
v -0.00017943 0.01781274 0.01577299
v -0.00032520 0.01791243 0.01584029
v -0.00080371 0.01783676 0.01586227
v -0.00091779 0.01774628 0.01584338
v -0.00080371 0.01776189 0.01583789
v -0.00065371 0.01766261 0.01577195
v -0.00017943 0.01797608 0.01583548
v -0.00350417 0.01841286 0.01580011
v -0.00327390 0.01848052 0.01584510
v -0.00290366 0.01841286 0.01593713
v -0.00320365 0.01826273 0.01588562
v -0.00305365 0.01826273 0.01591618
v -0.00340382 0.01811260 0.01584201
v -0.00320365 0.01811260 0.01587875
v -0.00330453 0.01802452 0.01585025
v -0.00290366 0.01796287 0.01589592
v -0.00311439 0.01789641 0.01584338
v -0.00301404 0.01787840 0.01585265
v -0.00290366 0.01786518 0.01586227
v -0.00320365 0.01886285 0.01574723
v -0.00260419 0.01757974 0.01478986
v -0.00017943 0.01754691 0.01493580
v -0.00020320 0.01755532 0.01492001
v -0.00290366 0.01757173 0.01478300
v -0.00305365 0.01756813 0.01477956
v -0.00320365 0.01756492 0.01477613
v -0.00335365 0.01756212 0.01477269
v -0.00350417 0.01755932 0.01476926
v -0.00380416 0.01755451 0.01476239
v -0.00395416 0.01755251 0.01475896
v -0.00410416 0.01755131 0.01475552
v -0.00425415 0.01755051 0.01475278
v -0.00440415 0.01755011 0.01475037
v -0.00557507 0.01755972 0.01471260
v -0.00557507 0.01826273 0.01519884
v -0.00541610 0.01799610 0.01526889
v -0.00551644 0.01811260 0.01523764
v -0.00508705 0.01803213 0.01539800
v -0.00517050 0.01811260 0.01538015
v -0.00450608 0.01826273 0.01555322
v -0.00458108 0.01826273 0.01553296
v -0.00470414 0.01826273 0.01549965
v -0.00485467 0.01826273 0.01545878
v -0.00448760 0.01834921 0.01554841
v -0.00501258 0.01826353 0.01541517
v -0.00485467 0.01811260 0.01546565
v -0.00470414 0.01811260 0.01550583
v -0.00451612 0.01811260 0.01555596
v -0.00400962 0.01811260 0.01569092
v -0.00380416 0.01811260 0.01574551
v -0.00399905 0.01826273 0.01568817
v -0.00445063 0.01844929 0.01553811
v -0.00386965 0.01847251 0.01569366
v -0.00350417 0.01885845 0.01566825
v -0.00333939 0.01885845 0.01571255
v -0.00140370 0.01771786 0.01585540
v -0.00125370 0.01772186 0.01585300
v -0.00110370 0.01772947 0.01584956
v -0.00101814 0.01773547 0.01584681
v -0.00155369 0.01771545 0.01585712
v -0.00229522 0.01780153 0.01588287
v -0.00200421 0.01772426 0.01585608
v -0.00185368 0.01771866 0.01585849
v -0.00170369 0.01771585 0.01585815
v -0.00275419 0.01777511 0.01580870
v -0.00260419 0.01776349 0.01582037
v -0.00233959 0.01774388 0.01584029
v -0.00223977 0.01773627 0.01584750
v -0.00326703 0.01773947 0.01569435
v -0.00050319 0.01766261 0.01574929
v -0.00017943 0.01769944 0.01571564
v -0.00017943 0.01783636 0.01578226
v -0.00020320 0.01769584 0.01571770
v -0.00017943 0.01796247 0.01583170
v -0.00018999 0.01796247 0.01583342
v -0.00080371 0.01766261 0.01579015
v -0.00050319 0.01757974 0.01570362
v -0.00042291 0.01758654 0.01569710
v -0.00350417 0.01826273 0.01581763
v -0.00330717 0.01838043 0.01585265
v -0.00335576 0.01842327 0.01583480
v -0.00365417 0.01841286 0.01576097
v -0.00390029 0.01837243 0.01570190
v -0.00365417 0.01826273 0.01577951
v -0.00321580 0.01842327 0.01586707
v -0.00305365 0.01841286 0.01590450
v -0.00333094 0.01826273 0.01585780
v -0.00350417 0.01811260 0.01582140
v -0.00391508 0.01801451 0.01570568
v -0.00350417 0.01796287 0.01578603
v -0.00335418 0.01796968 0.01582072
v -0.00305999 0.01795286 0.01586845
v -0.00373022 0.01788720 0.01569641
v -0.00365417 0.01787199 0.01570602
v -0.00350417 0.01784477 0.01572422
v -0.00391983 0.01772506 0.01555562
v -0.00350417 0.01776950 0.01567272
v -0.00335365 0.01774908 0.01568679
v -0.00017943 0.01749927 0.01502096
v -0.00035319 0.01755251 0.01491657
v -0.00050319 0.01755011 0.01491314
v -0.00080371 0.01754531 0.01490627
v -0.00110370 0.01754130 0.01489906
v -0.00125370 0.01753970 0.01489563
v -0.00020320 0.01749886 0.01502096
v -0.00050319 0.01749486 0.01502096
v -0.00065371 0.01749286 0.01502096
v -0.00380416 0.01751408 0.01487090
v -0.00080371 0.01749126 0.01502096
v -0.00545465 0.01755451 0.01472736
v -0.00395416 0.01751288 0.01487090
v -0.00410416 0.01751208 0.01487090
v -0.00530465 0.01752329 0.01487090
v -0.00557507 0.01755371 0.01475106
v -0.00557507 0.01811260 0.01519884
v -0.00557507 0.01802172 0.01518064
v -0.00557507 0.01795646 0.01516244
v -0.00557507 0.01784837 0.01512226
v -0.00557349 0.01784437 0.01512158
v -0.00536698 0.01789601 0.01524108
v -0.00531205 0.01795286 0.01529155
v -0.00500466 0.01792564 0.01538049
v -0.00492016 0.01789441 0.01539354
v -0.00500466 0.01800090 0.01540899
v -0.00450080 0.01802172 0.01555184
v -0.00514409 0.01797408 0.01535680
v -0.00365417 0.01811260 0.01578500
v -0.00125370 0.01764659 0.01580767
v -0.00110370 0.01765420 0.01580732
v -0.00096216 0.01767622 0.01581110
v -0.00140370 0.01764259 0.01580732
v -0.00215421 0.01773187 0.01585093
v -0.00185368 0.01764379 0.01579702
v -0.00170369 0.01764059 0.01580320
v -0.00155369 0.01764019 0.01580595
v -0.00260419 0.01769063 0.01574517
v -0.00245420 0.01767982 0.01575685
v -0.00316721 0.01773187 0.01570190
v -0.00229522 0.01768142 0.01578260
v -0.00212621 0.01758174 0.01570328
v -0.00200421 0.01757533 0.01571255
v -0.00200421 0.01764940 0.01578775
v -0.00417757 0.01758774 0.01539560
v -0.00017943 0.01763618 0.01568061
v -0.00065371 0.01756973 0.01571495
v -0.00017943 0.01754811 0.01559923
v -0.00017943 0.01762457 0.01567409
v -0.00340593 0.01826273 0.01584098
v -0.00432809 0.01788840 0.01554600
v -0.00365417 0.01796287 0.01574998
v -0.00410416 0.01775989 0.01553364
v -0.00401965 0.01774148 0.01554395
v -0.00383057 0.01791443 0.01568405
v -0.00422827 0.01786398 0.01555871
v -0.00462439 0.01773987 0.01539491
v -0.00425415 0.01759615 0.01538667
v -0.00380416 0.01771105 0.01556833
v -0.00440415 0.01769343 0.01542170
v -0.00440415 0.01761857 0.01536950
v -0.00017943 0.01749486 0.01504466
v -0.00017943 0.01747484 0.01517102
v -0.00110370 0.01748886 0.01502096
v -0.00425415 0.01751248 0.01487090
v -0.00440415 0.01751328 0.01487090
v -0.00455414 0.01751448 0.01487090
v -0.00500466 0.01751968 0.01487090
v -0.00125370 0.01748805 0.01502096
v -0.00140370 0.01748766 0.01502096
v -0.00155369 0.01748766 0.01502096
v -0.00380416 0.01751128 0.01502096
v -0.00440415 0.01751928 0.01502096
v -0.00470414 0.01752369 0.01502096
v -0.00485467 0.01752609 0.01502096
v -0.00455414 0.01753490 0.01517102
v -0.00500466 0.01753249 0.01502096
v -0.00545465 0.01753249 0.01487090
v -0.00557507 0.01755131 0.01487743
v -0.00557507 0.01784316 0.01512020
v -0.00551803 0.01774428 0.01509170
v -0.00526663 0.01786598 0.01526031
v -0.00486364 0.01795166 0.01542925
v -0.00515466 0.01783556 0.01528057
v -0.00486364 0.01781554 0.01536367
v -0.00095371 0.01756452 0.01572938
v -0.00080371 0.01756532 0.01572319
v -0.00110370 0.01756452 0.01573247
v -0.00185368 0.01757013 0.01572216
v -0.00170369 0.01756772 0.01572834
v -0.00155369 0.01756652 0.01573109
v -0.00140370 0.01756572 0.01573212
v -0.00125370 0.01756492 0.01573247
v -0.00305365 0.01764860 0.01563220
v -0.00222656 0.01758814 0.01569538
v -0.00315189 0.01758454 0.01554978
v -0.00395416 0.01757453 0.01541311
v -0.00290366 0.01757173 0.01556833
v -0.00407775 0.01758174 0.01540350
v -0.00467773 0.01757373 0.01526271
v -0.00455414 0.01756492 0.01527851
v -0.00017943 0.01749886 0.01547115
v -0.00065371 0.01753329 0.01562121
v -0.00452404 0.01771786 0.01540693
v -0.00501681 0.01779913 0.01530323
v -0.00485467 0.01768303 0.01528263
v -0.00471840 0.01764820 0.01530495
v -0.00456629 0.01766581 0.01536126
v -0.00017943 0.01747565 0.01519472
v -0.00020320 0.01747484 0.01517102
v -0.00185368 0.01748926 0.01502096
v -0.00200421 0.01749046 0.01502096
v -0.00230420 0.01749366 0.01502096
v -0.00185368 0.01749406 0.01517102
v -0.00200421 0.01749606 0.01517102
v -0.00395416 0.01752409 0.01517102
v -0.00230420 0.01750007 0.01517102
v -0.00425415 0.01752849 0.01517102
v -0.00440415 0.01753089 0.01517102
v -0.00380416 0.01753810 0.01532108
v -0.00395416 0.01754571 0.01532108
v -0.00545465 0.01756572 0.01497323
v -0.00500466 0.01756492 0.01512707
v -0.00557507 0.01755812 0.01489837
v -0.00557507 0.01777751 0.01508380
v -0.00557507 0.01768583 0.01502955
v -0.00541768 0.01771826 0.01510921
v -0.00497508 0.01771385 0.01526202
v -0.00507491 0.01773987 0.01524451
v -0.00515466 0.01776069 0.01523043
v -0.00080371 0.01753009 0.01562121
v -0.00095371 0.01753009 0.01562121
v -0.00185368 0.01754250 0.01562121
v -0.00380416 0.01756813 0.01542376
v -0.00170369 0.01753930 0.01562121
v -0.00140370 0.01753450 0.01562121
v -0.00110370 0.01753129 0.01562121
v -0.00477755 0.01758854 0.01524485
v -0.00511716 0.01757573 0.01510956
v -0.00035319 0.01750087 0.01547115
v -0.00017943 0.01748205 0.01532108
v -0.00035319 0.01747645 0.01517102
v -0.00110370 0.01748525 0.01517102
v -0.00035319 0.01748445 0.01532108
v -0.00140370 0.01750007 0.01532108
v -0.00320365 0.01752689 0.01532108
v -0.00350417 0.01753169 0.01532108
v -0.00365417 0.01753410 0.01532108
v -0.00275419 0.01753770 0.01547115
v -0.00555658 0.01757813 0.01495572
v -0.00557507 0.01757013 0.01492756
v -0.00557507 0.01765660 0.01500860
v -0.00260419 0.01753490 0.01547115
v -0.00245420 0.01753249 0.01547115
v -0.00200421 0.01752569 0.01547115
v -0.00065371 0.01750527 0.01547115
v -0.00557507 0.01760616 0.01497049
f 1 2 3
f 1 3 9
f 1 9 28
f 1 28 51
f 1 51 74
f 1 74 99
f 1 99 98
f 1 98 139
f 1 139 201
f 1 201 200
f 1 200 199
f 1 199 198
f 1 198 255
f 1 255 196
f 1 196 195
f 1 195 194
f 1 194 252
f 1 252 187
f 1 187 186
f 1 186 175
f 1 175 173
f 1 173 245
f 1 245 292
f 1 292 291
f 1 291 347
f 1 347 346
f 1 346 401
f 1 401 400
f 1 400 478
f 1 478 545
f 1 545 543
f 1 543 472
f 1 472 542
f 1 542 615
f 1 615 618
f 1 618 617
f 1 617 671
f 1 671 710
f 1 710 678
f 1 678 632
f 1 632 631
f 1 631 570
f 1 570 493
f 1 493 426
f 1 426 353
f 1 353 298
f 1 298 263
f 1 263 262
f 1 262 216
f 1 216 215
f 1 215 214
f 1 214 213
f 1 213 211
f 1 211 210
f 1 210 266
f 1 266 295
f 1 295 259
f 1 259 258
f 1 258 256
f 1 256 202
f 1 202 141
f 1 141 100
f 1 100 75
f 1 75 52
f 1 52 31
f 1 31 12
f 1 12 4
f 1 4 11
f 1 11 30
f 1 30 36
f 1 36 35
f 1 35 57
f 1 57 79
f 1 79 110
f 1 110 109
f 1 109 159
f 1 159 180
f 1 180 179
f 1 179 178
f 1 178 177
f 1 177 125
f 1 125 124
f 1 124 123
f 1 123 122
f 1 122 121
f 1 121 119
f 1 119 87
f 1 87 86
f 1 86 62
f 1 62 40
f 1 40 39
f 1 39 20
f 1 20 19
f 1 19 17
f 1 17 5
f 1 5 6
f 1 6 7
f 1 7 8
f 1 8 2
f 2 9 10
f 2 10 3
f 2 8 9
f 3 10 9
f 4 12 13
f 4 13 14
f 4 14 15
f 4 15 16
f 4 16 11
f 5 17 6
f 6 18 7
f 6 17 19
f 6 19 20
f 6 20 21
f 6 21 22
f 6 22 18
f 7 18 23
f 7 23 24
f 7 24 25
f 7 25 26
f 7 26 8
f 8 26 27
f 8 27 9
f 9 27 29
f 9 29 28
f 11 16 30
f 12 31 32
f 12 32 13
f 13 32 14
f 14 33 34
f 14 34 55
f 14 55 77
f 14 77 76
f 14 76 107
f 14 107 150
f 14 150 206
f 14 206 261
f 14 261 297
f 14 297 352
f 14 352 357
f 14 357 356
f 14 356 429
f 14 429 428
f 14 428 505
f 14 505 585
f 14 585 648
f 14 648 693
f 14 693 720
f 14 720 726
f 14 726 721
f 14 721 695
f 14 695 694
f 14 694 649
f 14 649 589
f 14 589 588
f 14 588 587
f 14 587 586
f 14 586 506
f 14 506 430
f 14 430 358
f 14 358 299
f 14 299 267
f 14 267 217
f 14 217 156
f 14 156 108
f 14 108 78
f 14 78 57
f 14 57 35
f 14 35 16
f 14 16 15
f 14 32 33
f 16 35 36
f 16 36 30
f 18 22 37
f 18 37 38
f 18 38 23
f 20 39 21
f 21 40 41
f 21 41 42
f 21 42 22
f 21 39 40
f 22 42 43
f 22 43 37
f 23 38 44
f 23 44 45
f 23 45 24
f 24 45 46
f 24 46 47
f 24 47 25
f 25 47 48
f 25 48 29
f 25 29 26
f 26 29 27
f 28 49 50
f 28 50 51
f 28 29 49
f 29 48 49
f 31 52 53
f 31 53 54
f 31 54 33
f 31 33 32
f 33 55 34
f 33 54 56
f 33 56 55
f 37 58 38
f 37 43 59
f 37 59 60
f 37 60 58
f 38 58 61
f 38 61 44
f 40 62 41
f 41 62 63
f 41 63 64
f 41 64 42
f 42 64 65
f 42 65 43
f 43 65 66
f 43 66 59
f 44 61 67
f 44 67 68
f 44 68 69
f 44 69 45
f 45 69 46
f 46 69 70
f 46 70 47
f 47 70 71
f 47 71 72
f 47 72 73
f 47 73 74
f 47 74 48
f 48 74 50
f 48 50 49
f 50 74 51
f 52 75 53
f 53 75 76
f 53 76 77
f 53 77 55
f 53 55 56
f 53 56 54
f 57 78 79
f 58 60 80
f 58 80 81
f 58 81 82
f 58 82 61
f 59 66 83
f 59 83 80
f 59 80 60
f 61 82 84
f 61 84 85
f 61 85 67
f 62 86 63
f 63 86 87
f 63 87 88
f 63 88 64
f 64 88 89
f 64 89 90
f 64 90 65
f 65 90 66
f 66 90 83
f 67 91 92
f 67 92 68
f 67 85 91
f 68 70 69
f 68 92 70
f 70 92 93
f 70 93 94
f 70 94 71
f 71 94 95
f 71 95 96
f 71 96 97
f 71 97 72
f 72 97 98
f 72 98 73
f 73 98 99
f 73 99 74
f 75 100 101
f 75 101 102
f 75 102 76
f 76 103 104
f 76 104 105
f 76 105 106
f 76 106 107
f 76 102 103
f 78 108 109
f 78 109 110
f 78 110 79
f 80 83 111
f 80 111 112
f 80 112 113
f 80 113 82
f 80 82 81
f 82 113 114
f 82 114 84
f 83 90 115
f 83 115 116
f 83 116 111
f 84 117 118
f 84 118 85
f 84 114 117
f 85 118 91
f 87 119 88
f 88 120 89
f 88 119 121
f 88 121 122
f 88 122 123
f 88 123 124
f 88 124 125
f 88 125 120
f 89 126 127
f 89 127 90
f 89 120 128
f 89 128 126
f 90 129 115
f 90 127 130
f 90 130 129
f 91 118 131
f 91 131 132
f 91 132 133
f 91 133 92
f 92 133 134
f 92 134 135
f 92 135 136
f 92 136 94
f 92 94 93
f 94 136 95
f 95 136 137
f 95 137 138
f 95 138 139
f 95 139 96
f 96 139 140
f 96 140 98
f 96 98 97
f 98 140 139
f 100 141 142
f 100 142 143
f 100 143 144
f 100 144 145
f 100 145 101
f 101 145 144
f 101 144 103
f 101 103 102
f 103 143 104
f 103 144 143
f 104 143 105
f 105 143 146
f 105 146 147
f 105 147 106
f 106 148 149
f 106 149 107
f 106 147 148
f 107 149 148
f 107 148 151
f 107 151 152
f 107 152 153
f 107 153 154
f 107 154 155
f 107 155 150
f 108 156 157
f 108 157 158
f 108 158 109
f 109 158 159
f 111 160 112
f 111 116 161
f 111 161 160
f 112 160 162
f 112 162 113
f 113 162 163
f 113 163 114
f 114 164 165
f 114 165 166
f 114 166 117
f 114 163 164
f 115 129 167
f 115 167 168
f 115 168 116
f 116 168 169
f 116 169 161
f 117 132 131
f 117 131 118
f 117 166 170
f 117 170 171
f 117 171 172
f 117 172 173
f 117 173 174
f 117 174 175
f 117 175 132
f 120 176 128
f 120 125 177
f 120 177 178
f 120 178 179
f 120 179 180
f 120 180 176
f 126 128 130
f 126 130 127
f 128 176 181
f 128 181 182
f 128 182 130
f 129 183 167
f 129 130 183
f 130 182 184
f 130 184 185
f 130 185 183
f 132 175 186
f 132 186 187
f 132 187 188
f 132 188 189
f 132 189 134
f 132 134 133
f 134 189 190
f 134 190 135
f 135 190 191
f 135 191 192
f 135 192 193
f 135 193 194
f 135 194 195
f 135 195 196
f 135 196 136
f 136 197 198
f 136 198 137
f 136 196 197
f 137 198 199
f 137 199 200
f 137 200 201
f 137 201 138
f 138 201 139
f 141 202 203
f 141 203 142
f 142 203 143
f 143 203 146
f 146 203 147
f 147 204 151
f 147 151 148
f 147 203 205
f 147 205 204
f 150 155 154
f 150 154 207
f 150 207 206
f 151 204 208
f 151 208 209
f 151 209 210
f 151 210 211
f 151 211 152
f 152 211 212
f 152 212 153
f 153 212 213
f 153 213 214
f 153 214 154
f 154 214 215
f 154 215 216
f 154 216 207
f 156 217 157
f 157 218 158
f 157 217 219
f 157 219 218
f 158 218 220
f 158 220 221
f 158 221 159
f 159 221 222
f 159 222 180
f 160 223 162
f 160 161 224
f 160 224 223
f 161 169 225
f 161 225 224
f 162 223 226
f 162 226 163
f 163 227 228
f 163 228 164
f 163 226 227
f 164 228 229
f 164 229 165
f 165 229 230
f 165 230 231
f 165 231 232
f 165 232 166
f 166 232 170
f 167 183 233
f 167 233 168
f 168 233 234
f 168 234 235
f 168 235 236
f 168 236 169
f 169 236 237
f 169 237 225
f 170 232 238
f 170 238 239
f 170 239 171
f 171 239 240
f 171 240 241
f 171 241 172
f 172 241 242
f 172 242 243
f 172 243 173
f 173 243 244
f 173 244 245
f 173 175 174
f 176 246 181
f 176 180 246
f 180 222 246
f 181 246 247
f 181 247 182
f 182 247 248
f 182 248 184
f 183 185 233
f 184 249 185
f 184 248 250
f 184 250 251
f 184 251 249
f 185 249 234
f 185 234 233
f 187 252 253
f 187 253 188
f 188 253 191
f 188 191 190
f 188 190 254
f 188 254 189
f 189 254 190
f 191 253 192
f 192 253 252
f 192 252 193
f 193 252 194
f 196 255 197
f 197 255 198
f 202 256 257
f 202 257 203
f 203 257 258
f 203 258 205
f 204 205 208
f 205 258 259
f 205 259 260
f 205 260 208
f 206 207 261
f 207 216 262
f 207 262 263
f 207 263 261
f 208 260 209
f 209 260 264
f 209 264 265
f 209 265 210
f 210 265 264
f 210 264 266
f 211 213 212
f 217 267 268
f 217 268 269
f 217 269 270
f 217 270 219
f 218 219 220
f 219 270 250
f 219 250 220
f 220 250 271
f 220 271 221
f 221 271 247
f 221 247 222
f 222 247 246
f 223 272 273
f 223 273 226
f 223 224 274
f 223 274 272
f 224 225 275
f 224 275 274
f 225 237 276
f 225 276 275
f 226 273 227
f 227 277 278
f 227 278 279
f 227 279 228
f 227 273 277
f 228 279 229
f 229 279 230
f 230 279 231
f 231 240 232
f 231 279 240
f 232 240 238
f 234 280 281
f 234 281 236
f 234 236 235
f 234 249 282
f 234 282 283
f 234 283 284
f 234 284 285
f 234 285 286
f 234 286 280
f 236 281 287
f 236 287 237
f 237 287 288
f 237 288 276
f 238 240 239
f 240 279 241
f 241 279 289
f 241 289 242
f 242 289 243
f 243 289 244
f 244 290 291
f 244 291 292
f 244 292 245
f 244 289 290
f 247 271 248
f 248 271 250
f 249 251 282
f 250 293 294
f 250 294 251
f 250 270 293
f 251 294 282
f 256 258 257
f 259 295 296
f 259 296 260
f 260 296 264
f 261 263 297
f 263 298 297
f 264 296 295
f 264 295 266
f 267 299 300
f 267 300 301
f 267 301 302
f 267 302 303
f 267 303 304
f 267 304 305
f 267 305 306
f 267 306 307
f 267 307 308
f 267 308 268
f 268 308 307
f 268 307 309
f 268 309 310
f 268 310 311
f 268 311 269
f 269 311 270
f 270 311 293
f 272 312 313
f 272 313 273
f 272 274 314
f 272 314 312
f 273 313 315
f 273 315 316
f 273 316 317
f 273 317 277
f 274 275 318
f 274 318 314
f 275 276 319
f 275 319 318
f 276 288 320
f 276 320 319
f 277 317 321
f 277 321 322
f 277 322 278
f 278 322 323
f 278 323 324
f 278 324 325
f 278 325 326
f 278 326 279
f 279 327 328
f 279 328 329
f 279 329 289
f 279 326 330
f 279 330 327
f 280 286 281
f 281 286 331
f 281 331 287
f 282 294 332
f 282 332 333
f 282 333 334
f 282 334 283
f 283 334 335
f 283 335 336
f 283 336 284
f 284 337 285
f 284 336 338
f 284 338 337
f 285 337 286
f 286 337 339
f 286 339 331
f 287 331 339
f 287 339 340
f 287 340 341
f 287 341 288
f 288 342 320
f 288 341 343
f 288 343 344
f 288 344 342
f 289 329 345
f 289 345 346
f 289 346 290
f 290 346 347
f 290 347 291
f 293 348 349
f 293 349 294
f 293 311 350
f 293 350 348
f 294 349 351
f 294 351 332
f 297 298 352
f 298 353 354
f 298 354 355
f 298 355 356
f 298 356 357
f 298 357 352
f 299 358 359
f 299 359 360
f 299 360 361
f 299 361 362
f 299 362 363
f 299 363 364
f 299 364 300
f 300 365 366
f 300 366 302
f 300 302 301
f 300 364 363
f 300 363 365
f 302 305 304
f 302 304 303
f 302 366 367
f 302 367 368
f 302 368 369
f 302 369 370
f 302 370 371
f 302 371 372
f 302 372 305
f 305 373 307
f 305 307 306
f 305 372 374
f 305 374 375
f 305 375 376
f 305 376 373
f 307 373 377
f 307 377 378
f 307 378 309
f 309 378 379
f 309 379 310
f 310 379 380
f 310 380 311
f 311 381 350
f 311 380 381
f 312 382 383
f 312 383 384
f 312 384 385
f 312 385 313
f 312 314 386
f 312 386 382
f 313 385 384
f 313 384 315
f 314 318 387
f 314 387 388
f 314 388 386
f 315 384 389
f 315 389 390
f 315 390 317
f 315 317 316
f 317 390 391
f 317 391 321
f 318 319 392
f 318 392 393
f 318 393 387
f 319 320 394
f 319 394 392
f 320 342 395
f 320 395 396
f 320 396 394
f 321 391 397
f 321 397 322
f 322 397 323
f 323 397 324
f 324 397 398
f 324 398 399
f 324 399 325
f 325 399 330
f 325 330 326
f 327 330 400
f 327 400 328
f 328 400 401
f 328 401 329
f 329 401 345
f 330 399 402
f 330 402 400
f 332 351 333
f 333 351 349
f 333 349 403
f 333 403 334
f 334 403 404
f 334 404 335
f 335 404 403
f 335 403 405
f 335 405 406
f 335 406 371
f 335 371 407
f 335 407 408
f 335 408 409
f 335 409 410
f 335 410 336
f 336 411 338
f 336 410 412
f 336 412 481
f 336 481 411
f 337 338 339
f 338 411 339
f 339 411 413
f 339 413 414
f 339 414 340
f 340 414 341
f 341 414 413
f 341 413 415
f 341 415 416
f 341 416 417
f 341 417 418
f 341 418 343
f 342 344 419
f 342 419 420
f 342 420 395
f 343 418 344
f 344 418 421
f 344 421 422
f 344 422 419
f 345 401 346
f 348 350 423
f 348 423 424
f 348 424 349
f 349 424 403
f 350 381 425
f 350 425 423
f 353 426 354
f 354 426 427
f 354 427 428
f 354 428 429
f 354 429 356
f 354 356 355
f 358 430 359
f 359 431 432
f 359 432 361
f 359 361 360
f 359 430 433
f 359 433 431
f 361 432 434
f 361 434 435
f 361 435 436
f 361 436 363
f 361 363 362
f 363 436 365
f 365 436 437
f 365 437 438
f 365 438 366
f 366 438 367
f 367 439 440
f 367 440 368
f 367 438 439
f 368 440 369
f 369 440 441
f 369 441 370
f 370 441 442
f 370 442 371
f 371 442 443
f 371 443 444
f 371 444 445
f 371 445 446
f 371 446 407
f 371 406 374
f 371 374 372
f 373 376 377
f 374 406 447
f 374 447 375
f 375 447 376
f 376 448 378
f 376 378 377
f 376 447 449
f 376 449 450
f 376 450 448
f 378 448 451
f 378 451 425
f 378 425 379
f 379 425 381
f 379 381 380
f 382 386 452
f 382 452 383
f 383 453 384
f 383 452 453
f 384 453 454
f 384 454 457
f 384 457 389
f 386 388 452
f 387 393 388
f 388 455 456
f 388 456 452
f 388 393 465
f 388 465 455
f 389 457 458
f 389 458 459
f 389 459 390
f 390 459 391
f 391 459 460
f 391 460 461
f 391 461 469
f 391 469 397
f 392 394 462
f 392 462 393
f 393 463 464
f 393 464 465
f 393 462 463
f 394 396 462
f 395 420 466
f 395 466 467
f 395 467 396
f 396 468 462
f 396 467 468
f 397 469 398
f 398 470 471
f 398 471 472
f 398 472 473
f 398 473 400
f 398 400 402
f 398 402 399
f 398 469 461
f 398 461 460
f 398 460 474
f 398 474 475
f 398 475 476
f 398 476 477
f 398 477 470
f 400 473 478
f 403 424 423
f 403 423 406
f 403 406 405
f 406 423 447
f 407 446 479
f 407 479 480
f 407 480 408
f 408 480 409
f 409 481 410
f 409 480 481
f 410 481 412
f 411 481 482
f 411 482 483
f 411 483 413
f 413 483 415
f 415 483 484
f 415 484 485
f 415 485 416
f 416 485 417
f 417 485 486
f 417 486 421
f 417 421 418
f 419 422 420
f 420 422 421
f 420 421 486
f 420 486 487
f 420 487 488
f 420 488 489
f 420 489 490
f 420 490 466
f 423 425 491
f 423 491 450
f 423 450 449
f 423 449 447
f 425 451 491
f 426 492 427
f 426 493 494
f 426 494 495
f 426 495 492
f 427 492 428
f 428 495 496
f 428 496 497
f 428 497 498
f 428 498 499
f 428 499 500
f 428 500 501
f 428 501 502
f 428 502 503
f 428 503 504
f 428 504 505
f 428 492 495
f 430 506 433
f 431 507 432
f 431 433 506
f 431 506 508
f 431 508 507
f 432 507 509
f 432 509 510
f 432 510 434
f 434 511 512
f 434 512 513
f 434 513 514
f 434 514 515
f 434 515 516
f 434 516 436
f 434 436 435
f 434 510 517
f 434 517 518
f 434 518 519
f 434 519 520
f 434 520 521
f 434 521 522
f 434 522 511
f 436 516 515
f 436 515 437
f 437 515 439
f 437 439 438
f 439 515 523
f 439 523 440
f 440 524 441
f 440 523 524
f 441 524 442
f 442 524 444
f 442 444 443
f 444 524 446
f 444 446 445
f 446 524 479
f 448 450 525
f 448 525 451
f 450 526 451
f 450 451 525
f 450 491 526
f 451 526 491
f 452 456 453
f 453 456 527
f 453 527 528
f 453 528 454
f 454 528 529
f 454 529 530
f 454 530 457
f 455 531 527
f 455 527 456
f 455 465 531
f 457 530 475
f 457 475 458
f 458 475 474
f 458 474 459
f 459 474 460
f 462 468 463
f 463 468 532
f 463 532 533
f 463 533 534
f 463 534 464
f 464 534 535
f 464 535 465
f 465 535 531
f 466 536 537
f 466 537 538
f 466 538 539
f 466 539 467
f 466 490 540
f 466 540 536
f 467 539 532
f 467 532 468
f 470 541 471
f 470 477 541
f 471 541 472
f 472 543 473
f 472 541 544
f 472 544 542
f 473 543 545
f 473 545 546
f 473 546 478
f 475 530 547
f 475 547 476
f 476 547 477
f 477 547 548
f 477 548 549
f 477 549 541
f 478 546 545
f 479 550 551
f 479 551 552
f 479 552 480
f 479 524 553
f 479 553 554
f 479 554 555
f 479 555 550
f 480 551 556
f 480 556 557
f 480 557 481
f 480 552 551
f 481 557 551
f 481 551 482
f 482 551 558
f 482 558 559
f 482 559 484
f 482 484 483
f 484 559 486
f 484 486 485
f 486 559 560
f 486 560 561
f 486 561 562
f 486 562 488
f 486 488 563
f 486 563 487
f 487 563 488
f 488 562 561
f 488 561 564
f 488 564 565
f 488 565 566
f 488 566 567
f 488 567 489
f 489 567 568
f 489 568 569
f 489 569 490
f 490 569 540
f 493 570 571
f 493 571 494
f 494 571 498
f 494 498 497
f 494 497 496
f 494 496 495
f 498 571 499
f 499 571 572
f 499 572 500
f 500 572 573
f 500 573 574
f 500 574 501
f 501 574 575
f 501 575 570
f 501 570 502
f 502 570 576
f 502 576 577
f 502 577 578
f 502 578 503
f 503 579 504
f 503 578 580
f 503 580 579
f 504 581 505
f 504 579 582
f 504 582 583
f 504 583 581
f 505 581 584
f 505 584 585
f 506 586 508
f 507 508 587
f 507 587 588
f 507 588 589
f 507 589 590
f 507 590 591
f 507 591 592
f 507 592 509
f 508 586 587
f 509 593 594
f 509 594 595
f 509 595 596
f 509 596 521
f 509 521 520
f 509 520 519
f 509 519 518
f 509 518 517
f 509 517 510
f 509 592 597
f 509 597 593
f 511 515 512
f 511 522 515
f 512 515 513
f 513 515 514
f 515 522 554
f 515 554 524
f 515 524 523
f 521 560 598
f 521 598 555
f 521 555 522
f 521 596 560
f 522 555 554
f 524 554 553
f 527 531 599
f 527 599 528
f 528 599 600
f 528 600 529
f 529 600 601
f 529 601 530
f 530 601 547
f 531 535 602
f 531 602 599
f 532 539 603
f 532 603 533
f 533 604 605
f 533 605 534
f 533 603 604
f 534 605 606
f 534 606 535
f 535 606 602
f 536 540 537
f 537 607 608
f 537 608 538
f 537 540 609
f 537 609 607
f 538 608 610
f 538 610 539
f 539 610 611
f 539 611 612
f 539 612 613
f 539 613 604
f 539 604 603
f 540 569 614
f 540 614 609
f 541 549 544
f 542 544 549
f 542 549 615
f 547 616 548
f 547 601 600
f 547 600 616
f 548 617 549
f 548 616 617
f 549 617 618
f 549 618 615
f 550 559 619
f 550 619 551
f 550 555 598
f 550 598 559
f 551 557 556
f 551 619 558
f 558 619 559
f 559 598 560
f 560 620 621
f 560 621 561
f 560 596 594
f 560 594 620
f 561 621 564
f 564 622 623
f 564 623 565
f 564 621 624
f 564 624 620
f 564 620 625
f 564 625 626
f 564 626 622
f 565 623 566
f 566 623 567
f 567 627 628
f 567 628 568
f 567 623 629
f 567 629 630
f 567 630 627
f 568 628 569
f 569 628 614
f 570 631 576
f 570 575 574
f 570 574 573
f 570 573 572
f 570 572 571
f 576 631 577
f 577 631 578
f 578 631 632
f 578 632 580
f 579 580 633
f 579 633 582
f 580 632 633
f 581 583 634
f 581 634 635
f 581 635 636
f 581 636 637
f 581 637 584
f 582 633 638
f 582 638 583
f 583 638 639
f 583 639 640
f 583 640 634
f 584 637 641
f 584 641 642
f 584 642 643
f 584 643 644
f 584 644 645
f 584 645 646
f 584 646 647
f 584 647 585
f 585 647 648
f 589 649 590
f 590 649 650
f 590 650 591
f 591 651 592
f 591 650 651
f 592 651 594
f 592 594 593
f 592 593 597
f 594 596 652
f 594 652 595
f 594 651 653
f 594 653 654
f 594 654 626
f 594 626 620
f 595 652 596
f 599 655 600
f 599 602 655
f 600 655 656
f 600 656 616
f 602 606 657
f 602 657 655
f 604 613 612
f 604 612 658
f 604 658 605
f 605 659 660
f 605 660 606
f 605 658 659
f 606 660 661
f 606 661 662
f 606 662 657
f 607 609 663
f 607 663 608
f 608 664 610
f 608 663 664
f 609 614 663
f 610 664 611
f 611 664 665
f 611 665 666
f 611 666 612
f 612 666 667
f 612 667 658
f 614 668 665
f 614 665 663
f 614 628 627
f 614 627 669
f 614 669 670
f 614 670 668
f 616 656 617
f 617 656 672
f 617 672 671
f 620 624 621
f 620 626 625
f 622 626 623
f 623 626 673
f 623 673 629
f 626 654 674
f 626 674 675
f 626 675 676
f 626 676 677
f 626 677 673
f 627 630 669
f 629 673 677
f 629 677 630
f 630 677 669
f 632 678 679
f 632 679 640
f 632 640 639
f 632 639 638
f 632 638 633
f 634 640 680
f 634 680 635
f 635 680 681
f 635 681 636
f 636 681 682
f 636 682 637
f 637 682 712
f 637 712 683
f 637 683 641
f 640 679 680
f 641 683 684
f 641 684 686
f 641 686 642
f 642 685 687
f 642 687 643
f 642 686 685
f 643 687 644
f 644 687 688
f 644 688 645
f 645 670 646
f 645 688 717
f 645 717 689
f 645 689 690
f 645 690 670
f 646 670 647
f 647 691 648
f 647 670 692
f 647 692 691
f 648 691 693
f 649 694 650
f 650 694 695
f 650 695 696
f 650 696 697
f 650 697 698
f 650 698 699
f 650 699 653
f 650 653 651
f 653 699 698
f 653 698 697
f 653 697 675
f 653 675 674
f 653 674 654
f 655 700 656
f 655 657 700
f 656 700 672
f 657 662 701
f 657 701 700
f 658 702 659
f 658 667 703
f 658 703 689
f 658 689 702
f 659 704 705
f 659 705 660
f 659 702 704
f 660 705 706
f 660 706 701
f 660 701 661
f 661 701 662
f 663 665 664
f 665 668 666
f 666 668 670
f 666 670 703
f 666 703 667
f 669 677 707
f 669 707 708
f 669 708 691
f 669 691 692
f 669 692 670
f 670 690 703
f 671 709 710
f 671 672 700
f 671 700 701
f 671 701 706
f 671 706 705
f 671 705 709
f 675 697 707
f 675 707 676
f 676 707 677
f 678 710 711
f 678 711 679
f 679 711 682
f 679 682 681
f 679 681 680
f 682 711 712
f 683 712 710
f 683 710 684
f 684 710 686
f 685 686 713
f 685 713 687
f 686 710 713
f 687 713 714
f 687 714 715
f 687 715 716
f 687 716 717
f 687 717 688
f 689 703 690
f 689 717 718
f 689 718 702
f 691 708 719
f 691 719 693
f 693 719 720
f 695 721 696
f 696 721 707
f 696 707 697
f 702 718 704
f 704 718 722
f 704 722 723
f 704 723 705
f 705 723 724
f 705 724 725
f 705 725 709
f 707 721 726
f 707 726 719
f 707 719 708
f 709 725 713
f 709 713 710
f 710 712 711
f 713 725 714
f 714 725 715
f 715 725 724
f 715 724 723
f 715 723 716
f 716 723 722
f 716 722 717
f 717 722 718
f 719 726 720

