# https://github.com/mikedh/trimesh
v -0.01123790 0.05536270 0.00094897
v -0.01123790 0.05637099 -0.00311581
v -0.01123047 0.05637857 -0.00311581
v -0.01123047 0.05539898 0.00083517
v -0.01118095 0.05546721 0.00077748
v -0.01107349 0.05554194 0.00094897
v -0.01123790 0.05863125 0.00094897
v -0.01123790 0.05860146 -0.00311581
v -0.01118640 0.05550132 0.00061594
v -0.01097890 0.05665311 -0.00311581
v -0.00947347 0.05829768 -0.00311581
v -0.00878414 0.05820020 0.00031593
v -0.00872670 0.05815147 0.00076594
v -0.00911989 0.05767656 0.00094897
v -0.01119234 0.05869244 0.00094897
v -0.01123790 0.05863883 0.00091594
v -0.01123790 0.05864533 -0.00292044
v -0.01120521 0.05864587 -0.00311581
v -0.00796853 0.05994278 -0.00311581
v -0.00827903 0.05860363 0.00091594
v -0.00835034 0.05851753 0.00094897
v -0.01123790 0.05866049 0.00081488
v -0.01106705 0.05885922 0.00094897
v -0.01123790 0.05867348 -0.00279392
v -0.01122106 0.05868702 -0.00283490
v -0.01112152 0.05875688 -0.00311581
v -0.00712172 0.06086876 -0.00311581
v -0.00815572 0.05877583 0.00076514
v -0.00813542 0.05876067 0.00091594
v -0.00820673 0.05867457 0.00094897
v -0.01123790 0.05867078 0.00076594
v -0.01100317 0.05894261 0.00094897
v -0.01108438 0.05885489 0.00085865
v -0.01123790 0.05870706 -0.00264272
v -0.01115322 0.05877637 -0.00283490
v -0.01107398 0.05884135 -0.00301315
v -0.01105913 0.05883810 -0.00311581
v -0.00709944 0.06089367 -0.00311581
v -0.00687709 0.06089421 -0.00213860
v -0.00716877 0.06033862 -0.00118448
v -0.00617934 0.06089421 0.00094897
v -0.01123790 0.05868594 0.00068994
v -0.01094473 0.05901842 0.00094897
v -0.01094721 0.05902167 0.00091594
v -0.01103288 0.05893882 0.00076594
v -0.01109082 0.05886355 0.00076594
v -0.01122997 0.05869893 0.00067562
v -0.01123790 0.05872601 -0.00255519
v -0.01110122 0.05887655 -0.00268490
v -0.01103041 0.05893557 -0.00283490
v -0.01098386 0.05893503 -0.00311581
v -0.00887031 0.06089421 -0.00311581
v -0.00707617 0.06089421 -0.00301355
v -0.00706378 0.06089421 -0.00296023
v -0.00909612 0.06089421 0.00094897
v -0.01123790 0.05868973 0.00066726
v -0.01088828 0.05909045 0.00094897
v -0.01088828 0.05909640 0.00091594
v -0.01110073 0.05887601 0.00061594
v -0.01095761 0.05903413 0.00076594
v -0.01104180 0.05895074 0.00061594
v -0.01118590 0.05876446 0.00062191
v -0.01123790 0.05870435 0.00057257
v -0.01123790 0.05877962 -0.00230452
v -0.01120076 0.05881103 -0.00238489
v -0.01112598 0.05890796 -0.00238489
v -0.01105517 0.05896752 -0.00253490
v -0.01088085 0.05906716 -0.00311581
v -0.00906789 0.06089421 -0.00311581
v -0.00909711 0.06089421 0.00094419
v -0.00916545 0.06083302 0.00094897
v -0.01086946 0.05911427 0.00094897
v -0.01081103 0.05918792 0.00094897
v -0.01105021 0.05896157 0.00046594
v -0.01110914 0.05888630 0.00046594
v -0.01123790 0.05880561 -0.00013447
v -0.01123790 0.05876337 0.00016593
v -0.01123790 0.05872005 0.00046594
v -0.01123790 0.05870922 0.00053994
v -0.01096702 0.05904496 0.00061594
v -0.01089719 0.05910940 0.00076594
v -0.01123790 0.05879424 -0.00223449
v -0.01121314 0.05882673 -0.00223449
v -0.01107596 0.05899406 -0.00227110
v -0.01092096 0.05913810 -0.00253490
v -0.01096751 0.05904767 -0.00268490
v -0.01083381 0.05921770 -0.00268490
v -0.01080905 0.05918629 -0.00298490
v -0.01074665 0.05923774 -0.00311581
v -0.00906839 0.06089421 -0.00311382
v -0.00915951 0.06082436 -0.00311581
v -0.00910256 0.06089421 0.00091594
v -0.00916892 0.06083573 0.00091594
v -0.00925855 0.06078158 0.00076594
v -0.00922438 0.06077995 0.00094897
v -0.01082242 0.05920145 0.00076594
v -0.01074913 0.05926265 0.00094897
v -0.01075111 0.05926535 0.00091594
v -0.01106656 0.05898214 0.00016593
v -0.01112549 0.05890742 0.00016593
v -0.01123790 0.05882565 -0.00028447
v -0.01097494 0.05905525 0.00046594
v -0.01090611 0.05912023 0.00061594
v -0.01123790 0.05880507 -0.00218038
v -0.01123790 0.05882402 -0.00208449
v -0.01112747 0.05893720 -0.00222654
v -0.01108339 0.05900380 -0.00217123
v -0.01078082 0.05930055 -0.00260612
v -0.01077438 0.05929243 -0.00268490
v -0.01067485 0.05935579 -0.00298490
v -0.01066395 0.05934225 -0.00311581
v -0.00909909 0.06089421 -0.00298490
v -0.00924716 0.06075667 -0.00311581
v -0.00917486 0.06083627 -0.00298490
v -0.00912979 0.06089421 0.00076594
v -0.00918328 0.06084818 0.00076594
v -0.00927241 0.06079457 0.00061594
v -0.00946059 0.06067815 0.00031593
v -0.00954973 0.06062400 0.00016593
v -0.00944574 0.06066515 0.00046594
v -0.00943583 0.06065649 0.00056541
v -0.00942593 0.06064728 0.00066567
v -0.00932194 0.06069006 0.00094897
v -0.01083084 0.05921120 0.00061594
v -0.01076052 0.05927618 0.00076594
v -0.01073279 0.05928160 0.00094897
v -0.01067584 0.05935254 0.00091594
v -0.01107398 0.05899189 0.00001553
v -0.01123790 0.05885868 -0.00053991
v -0.01123790 0.05885164 -0.00048461
v -0.01123790 0.05883648 -0.00036564
v -0.01091403 0.05912998 0.00046594
v -0.01092146 0.05913972 0.00031593
v -0.01123790 0.05882998 -0.00205187
v -0.01123790 0.05885706 -0.00189908
v -0.01108934 0.05901084 -0.00208449
v -0.01094325 0.05916572 -0.00223449
v -0.01078825 0.05930976 -0.00250585
v -0.01050301 0.05962816 -0.00268490
v -0.01063870 0.05946084 -0.00268490
v -0.01057531 0.05951228 -0.00282376
v -0.01062433 0.05944297 -0.00286673
v -0.01061493 0.05943106 -0.00298490
v -0.01061195 0.05940777 -0.00311581
v -0.00913425 0.06089421 -0.00283490
v -0.00933134 0.06069115 -0.00311581
v -0.00939671 0.06064024 -0.00311581
v -0.00937047 0.06070793 -0.00284723
v -0.00926697 0.06079079 -0.00283490
v -0.00915505 0.06089421 0.00061594
v -0.00928876 0.06080865 0.00043530
v -0.00927984 0.06080107 0.00053517
v -0.00956261 0.06063591 0.00001553
v -0.00964531 0.06056118 0.00001553
v -0.00963144 0.06054873 0.00016593
v -0.00953537 0.06061046 0.00031593
v -0.00952101 0.06059638 0.00046594
v -0.00960123 0.06052111 0.00046594
v -0.00957944 0.06049999 0.00068238
v -0.00938037 0.06063537 0.00094897
v -0.01076844 0.05928647 0.00061594
v -0.01068525 0.05936337 0.00076594
v -0.01067386 0.05934983 0.00094897
v -0.01061988 0.05943864 0.00076594
v -0.01107894 0.05899839 -0.00008513
v -0.01123790 0.05886409 -0.00058447
v -0.01092740 0.05914676 0.00019935
v -0.01123790 0.05887601 -0.00178449
v -0.01109924 0.05902276 -0.00193449
v -0.01102793 0.05908611 -0.00208449
v -0.01095315 0.05917763 -0.00208449
v -0.01059908 0.05956210 -0.00238489
v -0.01073526 0.05939532 -0.00238489
v -0.01079667 0.05932005 -0.00238489
v -0.01065009 0.05947438 -0.00253490
v -0.01036683 0.05979549 -0.00268490
v -0.01029453 0.05985614 -0.00283490
v -0.01047577 0.05959513 -0.00302588
v -0.01052975 0.05953773 -0.00297933
v -0.01052777 0.05951228 -0.00311581
v -0.00916694 0.06089421 -0.00268689
v -0.00941751 0.06062400 -0.00311581
v -0.00944029 0.06065974 -0.00280506
v -0.00928727 0.06080703 -0.00264153
v -0.00921844 0.06085360 -0.00268888
v -0.00952448 0.06054007 -0.00311581
v -0.00958242 0.06050324 -0.00306607
v -0.00917684 0.06089421 0.00047230
v -0.00929817 0.06081624 0.00031593
v -0.00958093 0.06065216 -0.00020967
v -0.00957499 0.06064674 -0.00013447
v -0.00966957 0.06056064 -0.00012969
v -0.00972850 0.06049945 -0.00007678
v -0.00961659 0.06053519 0.00031593
v -0.00972008 0.06049133 0.00001553
v -0.00970622 0.06047779 0.00016593
v -0.00967650 0.06044963 0.00046594
v -0.00973940 0.06035974 0.00061594
v -0.00966512 0.06040415 0.00075162
v -0.00957053 0.06049187 0.00076594
v -0.00947595 0.06054494 0.00094897
v -0.01077636 0.05929514 0.00046594
v -0.01068178 0.05938828 0.00060480
v -0.01062681 0.05944622 0.00064737
v -0.01060750 0.05942456 0.00094897
v -0.01048716 0.05960813 0.00061594
v -0.01049608 0.05961788 0.00046594
v -0.01100416 0.05907637 0.00001553
v -0.01108389 0.05900435 -0.00018500
v -0.01123790 0.05887980 -0.00073448
v -0.01108884 0.05900976 -0.00028447
v -0.01109577 0.05901788 -0.00043447
v -0.01087640 0.05921229 0.00015599
v -0.01093632 0.05915705 0.00001553
v -0.01123790 0.05889009 -0.00166552
v -0.01118342 0.05894261 -0.00178449
v -0.01103734 0.05909803 -0.00193449
v -0.01031582 0.05988267 -0.00253490
v -0.01037772 0.05980740 -0.00253490
v -0.01045250 0.05971643 -0.00253490
v -0.01030592 0.05987022 -0.00268490
v -0.01021925 0.05994766 -0.00283490
v -0.01033513 0.05975650 -0.00308119
v -0.01046191 0.05959351 -0.00311581
v -0.00919764 0.06089421 -0.00252773
v -0.00945168 0.06066895 -0.00268490
v -0.00929619 0.06081461 -0.00253490
v -0.00957647 0.06049837 -0.00311581
v -0.00965670 0.06042851 -0.00311581
v -0.00969631 0.06039386 -0.00311581
v -0.00973940 0.06035920 -0.00309830
v -0.00982556 0.06030343 -0.00298490
v -0.00966512 0.06044422 -0.00298490
v -0.00967849 0.06045613 -0.00283490
v -0.00960321 0.06052111 -0.00283490
v -0.00920061 0.06089421 0.00031116
v -0.00930956 0.06082490 0.00016593
v -0.00940513 0.06078158 -0.00013447
v -0.00958737 0.06065703 -0.00030954
v -0.00964481 0.06060234 -0.00026935
v -0.00974385 0.06051462 -0.00028447
v -0.00973593 0.06050703 -0.00017704
v -0.00922091 0.06089421 0.00016593
v -0.00988598 0.06035704 -0.00017664
v -0.00987855 0.06034945 -0.00007678
v -0.00994639 0.06026715 0.00001553
v -0.01000929 0.06017996 0.00016593
v -0.00979635 0.06041660 0.00001553
v -0.00985825 0.06032942 0.00016593
v -0.00969186 0.06046371 0.00031593
v -0.00978298 0.06040306 0.00016593
v -0.00976911 0.06038898 0.00031593
v -0.00982952 0.06030180 0.00046594
v -0.00989192 0.06021245 0.00061594
v -0.00988350 0.06020379 0.00070108
v -0.00980229 0.06027310 0.00074684
v -0.00955122 0.06047292 0.00094897
v -0.00970424 0.06032617 0.00094897
v -0.00968790 0.06034187 0.00094897
v -0.01078528 0.05930597 0.00028012
v -0.01073080 0.05936445 0.00032429
v -0.01063226 0.05945217 0.00054710
v -0.01051143 0.05963629 0.00016593
v -0.01057085 0.05953232 0.00046594
v -0.01059116 0.05944243 0.00094897
v -0.01048171 0.05960217 0.00069432
v -0.01029403 0.05986155 0.00031593
v -0.01017023 0.06004025 0.00001553
v -0.01017766 0.06004783 -0.00009110
v -0.01037128 0.05979711 0.00016593
v -0.01123790 0.05889171 -0.00088448
v -0.01110221 0.05902547 -0.00058447
v -0.01103833 0.05910073 -0.00058447
v -0.01110815 0.05903250 -0.00073448
v -0.01118838 0.05895074 -0.00088448
v -0.01094374 0.05916517 -0.00013447
v -0.01103189 0.05909315 -0.00043447
v -0.01079072 0.05931246 0.00016593
v -0.01123790 0.05889334 -0.00163449
v -0.01118986 0.05895128 -0.00163449
v -0.01110815 0.05903359 -0.00178449
v -0.01060799 0.05957293 -0.00223449
v -0.01046191 0.05972780 -0.00238489
v -0.01038663 0.05981823 -0.00238489
v -0.01022916 0.05998827 -0.00252296
v -0.01017617 0.06004567 -0.00256514
v -0.01016825 0.06003700 -0.00268490
v -0.01023064 0.05996173 -0.00268490
v -0.01015537 0.06002292 -0.00283490
v -0.01020638 0.05993141 -0.00298490
v -0.01033216 0.05975271 -0.00311581
v -0.00921844 0.06089421 -0.00238489
v -0.00937146 0.06075342 -0.00253490
v -0.00952646 0.06060721 -0.00268490
v -0.00921943 0.06089421 -0.00237773
v -0.00973742 0.06035758 -0.00311581
v -0.00976168 0.06033592 -0.00311581
v -0.00991074 0.06022816 -0.00298490
v -0.01000037 0.06017455 -0.00283490
v -0.00992560 0.06024061 -0.00283490
v -0.00969186 0.06046750 -0.00268490
v -0.00961659 0.06053194 -0.00268490
v -0.00932986 0.06084006 -0.00013447
v -0.00952101 0.06070468 -0.00026935
v -0.00924072 0.06089421 0.00001553
v -0.00941404 0.06078916 -0.00028447
v -0.00933927 0.06084710 -0.00028447
v -0.00942147 0.06079457 -0.00043447
v -0.00950615 0.06072851 -0.00043447
v -0.00959232 0.06066082 -0.00043447
v -0.00966759 0.06059638 -0.00043447
v -0.00975079 0.06052165 -0.00043447
v -0.00981913 0.06043934 -0.00028447
v -0.01002860 0.06019946 -0.00007797
v -0.01002167 0.06019187 0.00001553
v -0.00999591 0.06016697 0.00031593
v -0.01008406 0.06010469 0.00016593
v -0.01014646 0.06001643 0.00031593
v -0.00998155 0.06015343 0.00046594
v -0.01004395 0.06006462 0.00061594
v -0.00996719 0.06013935 0.00061594
v -0.01003504 0.06005541 0.00071024
v -0.01002464 0.06004567 0.00081010
v -0.00985726 0.06017888 0.00094897
v -0.01072635 0.05938719 0.00016593
v -0.01032127 0.05989025 -0.00013447
v -0.01053223 0.05950632 0.00094897
v -0.01053470 0.05950903 0.00091594
v -0.01047429 0.05959405 0.00079419
v -0.01028215 0.05985018 0.00046594
v -0.01021876 0.05994116 0.00031593
v -0.01015884 0.06002834 0.00016593
v -0.01009496 0.06011715 0.00001553
v -0.01011724 0.06013448 -0.00028447
v -0.01018855 0.06005975 -0.00028447
v -0.01003553 0.06020595 -0.00017824
v -0.01004197 0.06021299 -0.00028447
v -0.01123790 0.05890308 -0.00103448
v -0.01081747 0.05934333 -0.00043447
v -0.01033167 0.05990217 -0.00035569
v -0.01096306 0.05918846 -0.00058447
v -0.01096900 0.05919442 -0.00073448
v -0.01119283 0.05895615 -0.00103448
v -0.01104873 0.05911319 -0.00088448
v -0.01087937 0.05924044 -0.00013447
v -0.01095018 0.05917330 -0.00028447
v -0.01081103 0.05933575 -0.00028447
v -0.01059363 0.05955777 0.00001553
v -0.01032721 0.05989675 -0.00025582
v -0.01073328 0.05939532 0.00001553
v -0.01123790 0.05889983 -0.00152547
v -0.01119283 0.05895561 -0.00148449
v -0.01111459 0.05904063 -0.00163449
v -0.01104526 0.05910832 -0.00178449
v -0.01123790 0.05890200 -0.00148449
v -0.01067881 0.05950795 -0.00208449
v -0.01032424 0.05989296 -0.00238489
v -0.01018162 0.06005217 -0.00246527
v -0.01011823 0.06010686 -0.00252296
v -0.01009298 0.06011065 -0.00268490
v -0.01008010 0.06009928 -0.00283490
v -0.01006475 0.06008466 -0.00298490
v -0.01014002 0.06000614 -0.00298490
v -0.01019301 0.05991516 -0.00311581
v -0.01027670 0.05981769 -0.00311581
v -0.00946258 0.06067815 -0.00253490
v -0.00930609 0.06082273 -0.00238489
v -0.00953785 0.06061588 -0.00253490
v -0.00923626 0.06089421 -0.00223449
v -0.00981615 0.06028718 -0.00311581
v -0.00989588 0.06021516 -0.00311581
v -0.00998601 0.06015993 -0.00298490
v -0.01001325 0.06018592 -0.00268490
v -0.00978793 0.06040144 -0.00253490
v -0.00970176 0.06047671 -0.00253490
v -0.00962698 0.06054115 -0.00253490
v -0.01002365 0.06019512 -0.00253490
v -0.00926004 0.06089421 -0.00013447
v -0.00927192 0.06089421 -0.00023394
v -0.00927786 0.06089421 -0.00028447
v -0.00929222 0.06089421 -0.00043447
v -0.00942494 0.06079728 -0.00058447
v -0.00929718 0.06089421 -0.00051445
v -0.00930064 0.06089421 -0.00058447
v -0.00950615 0.06073284 -0.00058447
v -0.00959480 0.06066245 -0.00058447
v -0.00966957 0.06059855 -0.00058447
v -0.00982606 0.06044584 -0.00043447
v -0.00975326 0.06052328 -0.00058447
v -0.00990282 0.06037382 -0.00058447
v -0.00989984 0.06037111 -0.00043447
v -0.00989341 0.06036408 -0.00028447
v -0.01013309 0.06000343 0.00046594
v -0.01011922 0.05998989 0.00061594
v -0.01033464 0.05975488 0.00071024
v -0.01032622 0.05974621 0.00081010
v -0.01018558 0.05990596 0.00071342
v -0.01017617 0.05989675 0.00081329
v -0.01017914 0.05986697 0.00094897
v -0.01008753 0.05995632 0.00094897
v -0.01002711 0.06001480 0.00094897
v -0.01047775 0.05956481 0.00094897
v -0.01046488 0.05958430 0.00091594
v -0.01012368 0.06014152 -0.00043447
v -0.01019449 0.06006625 -0.00043447
v -0.01026976 0.05998069 -0.00043447
v -0.01027472 0.05996173 -0.00029720
v -0.01004841 0.06021949 -0.00043447
v -0.00997512 0.06029476 -0.00043447
v -0.01123790 0.05891066 -0.00118448
v -0.01040248 0.05982690 -0.00043447
v -0.01047429 0.05974351 -0.00043447
v -0.01066494 0.05949062 -0.00013447
v -0.01068425 0.05951282 -0.00058447
v -0.01090413 0.05926968 -0.00073448
v -0.01119581 0.05895994 -0.00118448
v -0.01105319 0.05911860 -0.00103448
v -0.01076448 0.05943160 -0.00073448
v -0.01111806 0.05904388 -0.00148449
v -0.01123790 0.05890687 -0.00138223
v -0.01123790 0.05890904 -0.00133448
v -0.01105071 0.05911536 -0.00163449
v -0.01097049 0.05919658 -0.00178449
v -0.01082489 0.05935199 -0.00193449
v -0.01046983 0.05973809 -0.00223449
v -0.01032919 0.05989946 -0.00227548
v -0.01018508 0.06005596 -0.00238489
v -0.01009298 0.06014422 -0.00238728
v -0.01002909 0.06020000 -0.00243901
v -0.01004989 0.06007004 -0.00311581
v -0.01012516 0.05999043 -0.00311581
v -0.00938928 0.06076750 -0.00223449
v -0.00954627 0.06062292 -0.00238489
v -0.00923825 0.06089421 -0.00221261
v -0.00997115 0.06014531 -0.00311581
v -0.00997016 0.06025631 -0.00238728
v -0.00987112 0.06034296 -0.00238489
v -0.00979585 0.06040848 -0.00238489
v -0.00970968 0.06048321 -0.00238489
v -0.00955419 0.06062941 -0.00223449
v -0.00942593 0.06079837 -0.00073448
v -0.00930460 0.06089421 -0.00073448
v -0.00959529 0.06066353 -0.00073448
v -0.00967007 0.06059909 -0.00073448
v -0.00997809 0.06029801 -0.00058447
v -0.00975376 0.06052382 -0.00073448
v -0.00990430 0.06037490 -0.00073448
v -0.01005385 0.06022437 -0.00073448
v -0.01038713 0.05965849 0.00094897
v -0.01032969 0.05971751 0.00094897
v -0.01046191 0.05958159 0.00094897
v -0.01023857 0.05980849 0.00094897
v -0.01012715 0.06014531 -0.00058447
v -0.01019796 0.06007004 -0.00058447
v -0.01027323 0.05998556 -0.00058447
v -0.01033909 0.05991083 -0.00058447
v -0.01048171 0.05975217 -0.00065251
v -0.01053223 0.05968990 -0.00059522
v -0.01047874 0.05974838 -0.00055264
v -0.01005187 0.06022274 -0.00058447
v -0.01123790 0.05891012 -0.00123541
v -0.01112053 0.05904658 -0.00133448
v -0.01112103 0.05904658 -0.00118448
v -0.01083381 0.05936174 -0.00088448
v -0.01091255 0.05927997 -0.00103448
v -0.01105566 0.05912185 -0.00118448
v -0.01105319 0.05911860 -0.00148449
v -0.01097544 0.05920145 -0.00163449
v -0.01062037 0.05958918 -0.00193449
v -0.01047577 0.05974513 -0.00208449
v -0.01090561 0.05927185 -0.00178449
v -0.01033216 0.05990271 -0.00217561
v -0.01018905 0.06006029 -0.00223449
v -0.01011278 0.06013556 -0.00223449
v -0.01003405 0.06020433 -0.00233914
v -0.00939572 0.06077291 -0.00208449
v -0.00932095 0.06083519 -0.00208449
v -0.00924964 0.06089421 -0.00208449
v -0.00971711 0.06048971 -0.00223449
v -0.00956063 0.06063483 -0.00208449
v -0.00935165 0.06085847 -0.00088448
v -0.00930559 0.06089421 -0.00080769
v -0.00950615 0.06073393 -0.00088448
v -0.00959381 0.06066245 -0.00088448
v -0.00942642 0.06079837 -0.00088448
v -0.00966858 0.06059747 -0.00088448
v -0.00975277 0.06052274 -0.00088448
v -0.00990381 0.06037436 -0.00088448
v -0.01005385 0.06022491 -0.00088448
v -0.01012913 0.06014801 -0.00088448
v -0.01012863 0.06014747 -0.00073448
v -0.01020044 0.06007274 -0.00073448
v -0.01034207 0.05991408 -0.00073448
v -0.01041734 0.05982906 -0.00073448
v -0.01062780 0.05959730 -0.00088448
v -0.01083777 0.05936553 -0.00103448
v -0.01098088 0.05920741 -0.00118448
v -0.01105517 0.05912131 -0.00133448
v -0.01098039 0.05920633 -0.00133448
v -0.01097791 0.05920416 -0.00148449
v -0.01083430 0.05936066 -0.00163449
v -0.01076497 0.05943268 -0.00178449
v -0.01062334 0.05959243 -0.00178449
v -0.01040347 0.05982690 -0.00208449
v -0.01033414 0.05990488 -0.00208449
v -0.01019103 0.06006245 -0.00208449
v -0.01011625 0.06013718 -0.00208449
v -0.01004147 0.06021137 -0.00208449
v -0.01033662 0.05990758 -0.00193449
v -0.01003751 0.06020758 -0.00223449
v -0.00988103 0.06035162 -0.00215372
v -0.00972305 0.06049512 -0.00208449
v -0.00957103 0.06064349 -0.00178449
v -0.00932590 0.06083952 -0.00193449
v -0.00925211 0.06089421 -0.00205107
v -0.00964828 0.06055956 -0.00208449
v -0.00930609 0.06089421 -0.00088448
v -0.00930609 0.06089421 -0.00095729
v -0.00930510 0.06089421 -0.00103448
v -0.00942494 0.06079674 -0.00103448
v -0.00934670 0.06085631 -0.00118448
v -0.00950615 0.06072472 -0.00118448
v -0.00958737 0.06065757 -0.00118448
v -0.00966561 0.06059530 -0.00103448
v -0.00974782 0.06051732 -0.00118448
v -0.00989440 0.06036462 -0.00163449
v -0.00989935 0.06036949 -0.00133448
v -0.01005088 0.06022112 -0.00133448
v -0.01005237 0.06022274 -0.00118448
v -0.00997759 0.06029909 -0.00103448
v -0.01005336 0.06022382 -0.00103448
v -0.01012764 0.06014747 -0.00118448
v -0.01012863 0.06014801 -0.00103448
v -0.01020143 0.06007328 -0.00088448
v -0.01027620 0.05999152 -0.00088448
v -0.01034454 0.05991625 -0.00088448
v -0.01063176 0.05960163 -0.00110610
v -0.01062978 0.05960001 -0.00100663
v -0.01077191 0.05944026 -0.00103448
v -0.01091453 0.05928268 -0.00118448
v -0.01091403 0.05928160 -0.00133448
v -0.01069515 0.05952311 -0.00148449
v -0.01048221 0.05975271 -0.00173157
v -0.01033860 0.05990975 -0.00178449
v -0.01019301 0.06006408 -0.00193449
v -0.01012071 0.06014097 -0.00178449
v -0.01004544 0.06021570 -0.00178449
v -0.00974187 0.06051191 -0.00148449
v -0.01063176 0.05960217 -0.00127042
v -0.00973791 0.06050812 -0.00163449
v -0.00973098 0.06050162 -0.00185491
v -0.00982111 0.06040794 -0.00209603
v -0.00967106 0.06055685 -0.00179682
v -0.00957598 0.06064728 -0.00163449
v -0.00957895 0.06065053 -0.00152626
v -0.00950071 0.06071010 -0.00163449
v -0.00933580 0.06084764 -0.00163449
v -0.00965620 0.06057851 -0.00163449
v -0.00927291 0.06089421 -0.00173356
v -0.00930312 0.06089421 -0.00110888
v -0.00934373 0.06085360 -0.00133448
v -0.00929718 0.06089421 -0.00126366
v -0.00958440 0.06065487 -0.00133448
v -0.00941850 0.06079187 -0.00133448
v -0.00966264 0.06059259 -0.00118448
v -0.01004890 0.06021949 -0.00148449
v -0.01019945 0.06007112 -0.00133448
v -0.01020044 0.06007220 -0.00118448
v -0.01027620 0.05999206 -0.00103448
v -0.01042031 0.05983448 -0.00103448
v -0.01063176 0.05960217 -0.00118448
v -0.01077339 0.05944243 -0.00118448
v -0.01077240 0.05944134 -0.00133448
v -0.01027125 0.05998664 -0.00163449
v -0.01048766 0.05975867 -0.00133448
v -0.00965917 0.06058988 -0.00133448
v -0.00964184 0.06059855 -0.00147931
v -0.01056392 0.05967690 -0.00118448
v -0.01048865 0.05975975 -0.00118448
v -0.01041981 0.05983502 -0.00118448
v -0.00958192 0.06065270 -0.00142600
v -0.00952002 0.06070198 -0.00147931
v -0.00941504 0.06078862 -0.00148449
v -0.00933976 0.06085089 -0.00148449
v -0.00928727 0.06089421 -0.00148449
v -0.00927935 0.06089421 -0.00163449
v -0.00929420 0.06089421 -0.00133448
v -0.01034355 0.05991516 -0.00133448
v -0.01027571 0.05999152 -0.00118448
f 1 2 3
f 1 3 4
f 1 4 5
f 1 5 6
f 1 6 14
f 1 14 21
f 1 21 30
f 1 30 41
f 1 41 55
f 1 55 71
f 1 71 95
f 1 95 123
f 1 123 160
f 1 160 201
f 1 201 257
f 1 257 259
f 1 259 258
f 1 258 324
f 1 324 401
f 1 401 400
f 1 400 399
f 1 399 452
f 1 452 450
f 1 450 449
f 1 449 451
f 1 451 402
f 1 402 327
f 1 327 265
f 1 265 205
f 1 205 163
f 1 163 126
f 1 126 97
f 1 97 73
f 1 73 72
f 1 72 57
f 1 57 43
f 1 43 32
f 1 32 23
f 1 23 15
f 1 15 7
f 1 7 16
f 1 16 22
f 1 22 31
f 1 31 42
f 1 42 56
f 1 56 63
f 1 63 79
f 1 79 78
f 1 78 77
f 1 77 76
f 1 76 101
f 1 101 131
f 1 131 130
f 1 130 129
f 1 129 166
f 1 166 210
f 1 210 271
f 1 271 338
f 1 338 410
f 1 410 461
f 1 461 421
f 1 421 420
f 1 420 355
f 1 355 351
f 1 351 279
f 1 279 215
f 1 215 168
f 1 168 135
f 1 135 134
f 1 134 105
f 1 105 104
f 1 104 82
f 1 82 64
f 1 64 48
f 1 48 34
f 1 34 24
f 1 24 17
f 1 17 8
f 1 8 2
f 2 8 18
f 2 18 26
f 2 26 37
f 2 37 51
f 2 51 68
f 2 68 89
f 2 89 111
f 2 111 144
f 2 144 180
f 2 180 224
f 2 224 291
f 2 291 365
f 2 365 364
f 2 364 431
f 2 431 430
f 2 430 435
f 2 435 371
f 2 371 370
f 2 370 297
f 2 297 296
f 2 296 230
f 2 230 229
f 2 229 228
f 2 228 186
f 2 186 182
f 2 182 147
f 2 147 146
f 2 146 113
f 2 113 91
f 2 91 69
f 2 69 52
f 2 52 38
f 2 38 27
f 2 27 19
f 2 19 11
f 2 11 10
f 2 10 3
f 3 6 5
f 3 5 9
f 3 9 4
f 3 10 6
f 4 9 5
f 6 10 11
f 6 11 12
f 6 12 13
f 6 13 14
f 7 15 16
f 8 17 18
f 11 19 12
f 12 20 13
f 12 19 20
f 13 20 21
f 13 21 14
f 15 22 16
f 15 23 22
f 17 24 18
f 18 24 25
f 18 25 26
f 19 27 28
f 19 28 20
f 20 28 29
f 20 29 30
f 20 30 21
f 22 23 31
f 23 32 33
f 23 33 31
f 24 34 25
f 25 34 26
f 26 34 35
f 26 35 36
f 26 36 37
f 27 38 39
f 27 39 40
f 27 40 28
f 28 40 29
f 29 40 41
f 29 41 30
f 31 33 42
f 32 43 44
f 32 44 33
f 33 44 45
f 33 45 46
f 33 46 47
f 33 47 42
f 34 48 35
f 35 48 49
f 35 49 36
f 36 49 50
f 36 50 51
f 36 51 37
f 38 52 53
f 38 53 54
f 38 54 39
f 39 54 53
f 39 53 52
f 39 52 69
f 39 69 90
f 39 90 112
f 39 112 145
f 39 145 181
f 39 181 225
f 39 225 292
f 39 292 295
f 39 295 369
f 39 369 434
f 39 434 478
f 39 478 515
f 39 515 559
f 39 559 586
f 39 586 585
f 39 585 587
f 39 587 562
f 39 562 560
f 39 560 519
f 39 519 518
f 39 518 517
f 39 517 482
f 39 482 442
f 39 442 384
f 39 384 383
f 39 383 381
f 39 381 380
f 39 380 379
f 39 379 378
f 39 378 305
f 39 305 243
f 39 243 236
f 39 236 188
f 39 188 150
f 39 150 115
f 39 115 92
f 39 92 70
f 39 70 55
f 39 55 41
f 39 41 40
f 42 47 56
f 43 57 44
f 44 57 58
f 44 58 45
f 45 59 47
f 45 47 46
f 45 58 60
f 45 60 61
f 45 61 59
f 47 62 63
f 47 63 56
f 47 59 62
f 48 64 65
f 48 65 49
f 49 66 67
f 49 67 50
f 49 65 66
f 50 67 68
f 50 68 51
f 55 70 71
f 57 72 58
f 58 72 73
f 58 73 60
f 59 61 74
f 59 74 75
f 59 75 76
f 59 76 77
f 59 77 78
f 59 78 79
f 59 79 63
f 59 63 62
f 60 80 61
f 60 73 81
f 60 81 80
f 61 80 74
f 64 82 83
f 64 83 65
f 65 83 66
f 66 83 84
f 66 84 85
f 66 85 67
f 67 86 68
f 67 85 87
f 67 87 86
f 68 86 88
f 68 88 89
f 69 91 90
f 70 92 93
f 70 93 71
f 71 93 94
f 71 94 95
f 73 96 81
f 73 97 98
f 73 98 96
f 74 80 99
f 74 99 100
f 74 100 75
f 75 100 76
f 76 100 99
f 76 99 101
f 80 102 99
f 80 81 103
f 80 103 102
f 81 96 103
f 82 104 83
f 83 104 105
f 83 105 106
f 83 106 84
f 84 106 107
f 84 107 108
f 84 108 85
f 85 108 87
f 86 87 88
f 87 108 109
f 87 109 110
f 87 110 111
f 87 111 88
f 88 111 89
f 90 91 112
f 91 113 114
f 91 114 112
f 92 115 116
f 92 116 93
f 93 116 117
f 93 117 94
f 94 117 118
f 94 118 119
f 94 119 120
f 94 120 121
f 94 121 95
f 95 121 122
f 95 122 123
f 96 124 103
f 96 98 125
f 96 125 124
f 97 126 98
f 98 126 127
f 98 127 162
f 98 162 125
f 99 128 129
f 99 129 130
f 99 130 131
f 99 131 101
f 99 102 103
f 99 103 132
f 99 132 133
f 99 133 128
f 103 124 132
f 105 134 107
f 105 107 106
f 107 134 135
f 107 135 136
f 107 136 137
f 107 137 138
f 107 138 108
f 108 138 139
f 108 139 140
f 108 140 141
f 108 141 142
f 108 142 143
f 108 143 110
f 108 110 109
f 110 143 144
f 110 144 111
f 112 114 145
f 113 146 114
f 114 146 147
f 114 147 148
f 114 148 149
f 114 149 145
f 115 150 151
f 115 151 152
f 115 152 116
f 116 152 117
f 117 152 118
f 118 152 119
f 119 153 154
f 119 154 155
f 119 155 156
f 119 156 120
f 119 152 153
f 120 156 121
f 121 156 157
f 121 157 122
f 122 157 158
f 122 158 159
f 122 159 160
f 122 160 123
f 124 125 161
f 124 161 132
f 125 162 161
f 126 163 127
f 127 164 162
f 127 163 164
f 128 165 129
f 128 133 165
f 129 165 166
f 132 161 133
f 133 161 167
f 133 167 165
f 135 168 136
f 136 168 169
f 136 169 170
f 136 170 137
f 137 170 171
f 137 171 172
f 137 172 173
f 137 173 174
f 137 174 138
f 138 174 175
f 138 175 139
f 139 176 177
f 139 177 141
f 139 141 140
f 139 175 176
f 141 178 179
f 141 179 142
f 141 177 178
f 142 179 143
f 143 179 178
f 143 178 180
f 143 180 144
f 145 149 181
f 147 182 148
f 148 183 184
f 148 184 185
f 148 185 181
f 148 181 149
f 148 182 186
f 148 186 187
f 148 187 183
f 150 188 189
f 150 189 151
f 151 189 190
f 151 190 191
f 151 191 153
f 151 153 152
f 153 192 154
f 153 191 192
f 154 192 193
f 154 193 155
f 155 194 156
f 155 193 195
f 155 195 196
f 155 196 194
f 156 194 157
f 157 194 158
f 158 194 250
f 158 250 197
f 158 197 159
f 159 197 198
f 159 198 199
f 159 199 200
f 159 200 160
f 160 200 201
f 161 202 167
f 161 162 203
f 161 203 202
f 162 164 204
f 162 204 203
f 163 205 164
f 164 205 206
f 164 206 207
f 164 207 204
f 165 208 209
f 165 209 166
f 165 167 208
f 166 209 211
f 166 211 212
f 166 212 210
f 167 202 213
f 167 213 214
f 167 214 211
f 167 211 209
f 167 209 208
f 168 215 216
f 168 216 169
f 169 216 217
f 169 217 171
f 169 171 170
f 171 217 172
f 172 217 218
f 172 218 219
f 172 219 220
f 172 220 173
f 173 220 175
f 173 175 174
f 175 220 221
f 175 221 176
f 176 221 177
f 177 221 288
f 177 288 222
f 177 222 223
f 177 223 178
f 178 224 180
f 178 223 224
f 181 185 184
f 181 184 225
f 183 226 184
f 183 187 226
f 184 227 225
f 184 226 227
f 186 228 187
f 187 228 229
f 187 229 230
f 187 230 231
f 187 231 232
f 187 232 233
f 187 233 234
f 187 234 235
f 187 235 226
f 188 236 237
f 188 237 189
f 189 237 190
f 190 238 239
f 190 239 240
f 190 240 241
f 190 241 242
f 190 242 192
f 190 192 191
f 190 237 243
f 190 243 238
f 192 242 193
f 193 242 244
f 193 244 245
f 193 245 246
f 193 246 247
f 193 247 248
f 193 248 249
f 193 249 195
f 194 196 250
f 195 249 251
f 195 251 196
f 196 251 252
f 196 252 250
f 197 250 253
f 197 253 254
f 197 254 198
f 198 254 255
f 198 255 256
f 198 256 199
f 199 257 200
f 199 256 258
f 199 258 259
f 199 259 257
f 200 257 201
f 202 260 213
f 202 203 261
f 202 261 260
f 203 204 262
f 203 262 263
f 203 263 261
f 204 264 262
f 204 207 264
f 205 265 266
f 205 266 206
f 206 267 268
f 206 268 269
f 206 269 207
f 206 266 267
f 207 269 270
f 207 270 264
f 210 212 272
f 210 272 273
f 210 273 274
f 210 274 275
f 210 275 271
f 211 214 276
f 211 276 212
f 212 276 277
f 212 277 273
f 212 273 272
f 213 276 214
f 213 260 278
f 213 278 276
f 215 279 280
f 215 280 281
f 215 281 216
f 216 281 217
f 217 282 283
f 217 283 218
f 217 281 282
f 218 283 284
f 218 284 285
f 218 285 286
f 218 286 287
f 218 287 288
f 218 288 221
f 218 221 219
f 219 221 220
f 222 288 287
f 222 287 289
f 222 289 290
f 222 290 223
f 223 290 291
f 223 291 224
f 225 227 292
f 226 293 227
f 226 235 294
f 226 294 293
f 227 293 295
f 227 295 292
f 230 296 231
f 231 296 297
f 231 297 298
f 231 298 232
f 232 298 299
f 232 299 300
f 232 300 233
f 233 300 234
f 234 301 235
f 234 300 301
f 235 302 294
f 235 301 302
f 236 243 237
f 238 303 304
f 238 304 239
f 238 243 305
f 238 305 303
f 239 304 306
f 239 306 307
f 239 307 308
f 239 308 309
f 239 309 310
f 239 310 311
f 239 311 240
f 240 311 312
f 240 312 241
f 241 312 313
f 241 313 244
f 241 244 242
f 244 314 245
f 244 313 314
f 245 314 315
f 245 315 246
f 246 315 247
f 247 316 249
f 247 249 248
f 247 315 317
f 247 317 318
f 247 318 393
f 247 393 316
f 249 316 319
f 249 319 252
f 249 252 251
f 250 252 253
f 252 319 320
f 252 320 253
f 253 321 322
f 253 322 254
f 253 320 321
f 254 322 255
f 255 322 323
f 255 323 256
f 256 323 324
f 256 324 258
f 260 261 278
f 261 325 278
f 261 263 326
f 261 326 325
f 262 264 270
f 262 270 263
f 263 270 326
f 265 327 328
f 265 328 266
f 266 328 329
f 266 329 330
f 266 330 267
f 267 330 331
f 267 331 268
f 268 331 332
f 268 332 333
f 268 333 314
f 268 314 269
f 269 334 335
f 269 335 270
f 269 314 336
f 269 336 337
f 269 337 334
f 270 335 326
f 271 275 338
f 273 277 347
f 273 347 339
f 273 339 340
f 273 340 341
f 273 341 274
f 274 341 342
f 274 342 275
f 275 343 338
f 275 342 344
f 275 344 417
f 275 417 343
f 276 278 345
f 276 345 346
f 276 346 277
f 277 346 347
f 278 325 348
f 278 348 349
f 278 349 350
f 278 350 345
f 279 351 280
f 280 352 353
f 280 353 354
f 280 354 281
f 280 351 355
f 280 355 352
f 281 354 356
f 281 356 357
f 281 357 284
f 281 284 282
f 282 284 283
f 284 357 285
f 285 357 358
f 285 358 286
f 286 358 359
f 286 359 360
f 286 360 287
f 287 360 361
f 287 361 289
f 289 361 362
f 289 362 363
f 289 363 290
f 290 363 364
f 290 364 365
f 290 365 291
f 293 294 366
f 293 366 367
f 293 367 295
f 294 302 368
f 294 368 366
f 295 367 369
f 297 370 298
f 298 371 372
f 298 372 299
f 298 370 371
f 299 373 300
f 299 372 361
f 299 361 360
f 299 360 373
f 300 373 301
f 301 374 375
f 301 375 376
f 301 376 302
f 301 373 377
f 301 377 374
f 302 376 368
f 303 306 304
f 303 305 378
f 303 378 306
f 306 378 307
f 307 378 379
f 307 379 380
f 307 380 381
f 307 381 308
f 308 382 309
f 308 381 383
f 308 383 384
f 308 384 382
f 309 382 310
f 310 382 385
f 310 385 386
f 310 386 387
f 310 387 311
f 311 387 312
f 312 388 313
f 312 387 389
f 312 389 390
f 312 390 445
f 312 445 388
f 313 388 391
f 313 391 392
f 313 392 336
f 313 336 314
f 314 333 317
f 314 317 315
f 316 393 394
f 316 394 320
f 316 320 319
f 317 333 332
f 317 332 318
f 318 332 331
f 318 331 395
f 318 395 396
f 318 396 393
f 320 394 397
f 320 397 398
f 320 398 322
f 320 322 321
f 322 398 399
f 322 399 323
f 323 399 400
f 323 400 401
f 323 401 324
f 325 326 348
f 326 335 349
f 326 349 348
f 327 402 403
f 327 403 329
f 327 329 328
f 329 403 330
f 330 395 331
f 330 403 395
f 334 337 404
f 334 404 335
f 335 404 405
f 335 405 406
f 335 406 340
f 335 340 407
f 335 407 349
f 336 392 337
f 337 408 404
f 337 392 409
f 337 409 408
f 338 343 410
f 339 347 340
f 340 349 407
f 340 406 411
f 340 411 412
f 340 412 341
f 340 347 413
f 340 413 350
f 340 350 349
f 341 414 342
f 341 412 414
f 342 414 415
f 342 415 344
f 343 416 410
f 343 417 416
f 344 415 418
f 344 418 417
f 345 350 413
f 345 413 347
f 345 347 346
f 352 419 353
f 352 355 420
f 352 420 421
f 352 421 419
f 353 419 422
f 353 422 423
f 353 423 354
f 354 423 424
f 354 424 356
f 356 424 425
f 356 425 357
f 357 425 426
f 357 426 358
f 358 426 427
f 358 427 428
f 358 428 429
f 358 429 359
f 359 429 377
f 359 377 360
f 360 377 373
f 361 372 362
f 362 430 363
f 362 372 435
f 362 435 430
f 363 430 431
f 363 431 364
f 366 368 367
f 367 432 369
f 367 368 433
f 367 433 432
f 368 376 433
f 369 432 434
f 371 435 372
f 374 377 429
f 374 429 375
f 375 429 436
f 375 436 437
f 375 437 438
f 375 438 439
f 375 439 376
f 376 440 433
f 376 439 440
f 382 441 385
f 382 384 442
f 382 442 441
f 385 441 386
f 386 441 443
f 386 443 387
f 387 444 446
f 387 446 389
f 387 443 444
f 388 445 391
f 389 446 447
f 389 447 390
f 390 447 448
f 390 448 445
f 391 445 409
f 391 409 392
f 393 396 397
f 393 397 394
f 395 403 396
f 396 449 450
f 396 450 397
f 396 403 451
f 396 451 449
f 397 450 398
f 398 450 452
f 398 452 399
f 402 451 403
f 404 408 453
f 404 453 454
f 404 454 405
f 405 454 455
f 405 455 456
f 405 456 406
f 406 456 457
f 406 457 458
f 406 458 459
f 406 459 411
f 408 460 453
f 408 409 460
f 409 445 460
f 410 416 462
f 410 462 461
f 411 459 414
f 411 414 412
f 414 418 415
f 414 459 458
f 414 458 418
f 416 417 463
f 416 463 462
f 417 418 464
f 417 464 465
f 417 465 466
f 417 466 463
f 418 458 457
f 418 457 464
f 419 421 462
f 419 462 467
f 419 467 422
f 421 461 462
f 422 467 468
f 422 468 469
f 422 469 470
f 422 470 471
f 422 471 423
f 423 471 426
f 423 426 424
f 424 426 425
f 426 470 472
f 426 472 427
f 426 471 470
f 427 472 473
f 427 473 474
f 427 474 475
f 427 475 428
f 428 475 429
f 429 475 436
f 432 476 477
f 432 477 434
f 432 433 440
f 432 440 480
f 432 480 476
f 434 477 478
f 436 475 479
f 436 479 437
f 437 479 438
f 438 479 439
f 439 479 440
f 440 479 480
f 441 481 443
f 441 442 482
f 441 482 481
f 443 483 484
f 443 484 444
f 443 481 485
f 443 485 483
f 444 486 487
f 444 487 446
f 444 484 486
f 445 448 460
f 446 487 488
f 446 488 447
f 447 488 489
f 447 489 448
f 448 489 490
f 448 490 491
f 448 491 460
f 453 460 491
f 453 491 492
f 453 492 454
f 454 492 493
f 454 493 455
f 455 493 494
f 455 494 495
f 455 495 456
f 456 495 457
f 457 495 496
f 457 496 465
f 457 465 464
f 462 463 466
f 462 466 497
f 462 497 498
f 462 498 467
f 465 496 497
f 465 497 466
f 467 498 499
f 467 499 500
f 467 500 468
f 468 500 501
f 468 501 502
f 468 502 469
f 469 502 503
f 469 503 504
f 469 504 470
f 470 504 472
f 472 505 473
f 472 504 505
f 473 506 507
f 473 507 508
f 473 508 474
f 473 505 509
f 473 509 544
f 473 544 506
f 474 508 510
f 474 510 475
f 475 510 511
f 475 511 512
f 475 512 479
f 476 513 514
f 476 514 477
f 476 480 513
f 477 514 515
f 477 515 478
f 479 512 516
f 479 516 480
f 480 516 513
f 481 482 517
f 481 517 518
f 481 518 519
f 481 519 485
f 483 520 484
f 483 485 519
f 483 519 520
f 484 520 521
f 484 521 522
f 484 522 523
f 484 523 524
f 484 524 486
f 486 524 487
f 487 524 525
f 487 525 526
f 487 526 508
f 487 508 527
f 487 527 528
f 487 528 529
f 487 529 530
f 487 530 488
f 488 530 531
f 488 531 489
f 489 531 532
f 489 532 533
f 489 533 490
f 490 533 534
f 490 534 491
f 491 534 492
f 492 534 535
f 492 535 536
f 492 536 493
f 493 536 537
f 493 537 538
f 493 538 494
f 494 538 495
f 495 538 539
f 495 539 496
f 496 539 537
f 496 537 497
f 497 540 541
f 497 541 499
f 497 499 498
f 497 537 540
f 499 541 500
f 500 541 542
f 500 542 501
f 501 542 503
f 501 503 502
f 503 542 543
f 503 543 505
f 503 505 504
f 505 543 509
f 506 544 545
f 506 545 546
f 506 546 507
f 507 546 547
f 507 547 508
f 508 547 527
f 508 526 548
f 508 548 550
f 508 550 510
f 509 543 549
f 509 549 544
f 510 550 511
f 511 550 551
f 511 551 552
f 511 552 512
f 512 552 551
f 512 551 553
f 512 553 516
f 513 554 555
f 513 555 556
f 513 556 557
f 513 557 514
f 513 516 553
f 513 553 558
f 513 558 554
f 514 557 515
f 515 557 559
f 519 560 520
f 520 560 521
f 521 561 522
f 521 560 562
f 521 562 561
f 522 563 523
f 522 561 564
f 522 564 563
f 523 563 565
f 523 565 524
f 524 565 548
f 524 548 525
f 525 548 526
f 527 547 566
f 527 566 528
f 528 566 546
f 528 546 532
f 528 532 529
f 529 532 531
f 529 531 530
f 532 546 567
f 532 567 568
f 532 568 533
f 533 568 534
f 534 568 589
f 534 589 569
f 534 569 570
f 534 570 535
f 535 570 536
f 536 570 537
f 537 571 572
f 537 572 540
f 537 539 538
f 537 570 571
f 540 572 549
f 540 549 541
f 541 549 573
f 541 573 542
f 542 549 543
f 542 573 549
f 544 574 545
f 544 549 575
f 544 575 574
f 545 574 567
f 545 567 546
f 546 566 547
f 548 565 576
f 548 576 563
f 548 563 577
f 548 577 550
f 549 572 571
f 549 571 578
f 549 578 579
f 549 579 580
f 549 580 575
f 550 577 555
f 550 555 558
f 550 558 553
f 550 553 551
f 554 558 555
f 555 577 581
f 555 581 582
f 555 582 557
f 555 557 556
f 557 582 583
f 557 583 584
f 557 584 585
f 557 585 586
f 557 586 559
f 561 584 564
f 561 562 587
f 561 587 585
f 561 585 584
f 563 564 584
f 563 584 583
f 563 583 582
f 563 582 581
f 563 581 577
f 563 576 565
f 567 574 588
f 567 588 589
f 567 589 568
f 569 589 580
f 569 580 579
f 569 579 570
f 570 579 578
f 570 578 571
f 574 575 588
f 575 580 589
f 575 589 588

