# https://github.com/mikedh/trimesh
v -0.00017928 0.02516578 -0.01533869
v -0.00005292 0.02516417 -0.01535058
v 0.00039722 0.02516417 -0.01539270
v 0.00084721 0.02516417 -0.01543482
v 0.00084721 0.02516578 -0.01543482
v -0.00017928 0.02516578 -0.01745524
v -0.00017928 0.02128660 -0.01558652
v 0.00138512 0.01721278 -0.01591447
v 0.00114726 0.02516417 -0.01546299
v 0.00114726 0.02516578 -0.01546299
v -0.00005369 0.02516578 -0.01745524
v -0.00005292 0.02456416 -0.01750977
v -0.00005292 0.02381374 -0.01757774
v -0.00005292 0.02341963 -0.01761340
v -0.00017928 0.02441456 -0.01752321
v -0.00017928 0.01752243 -0.01582712
v -0.00017928 0.01723610 -0.01584547
v -0.00017928 0.01721278 -0.01584702
v 0.00138512 0.01714200 -0.01592404
v 0.00138512 0.02516578 -0.01549891
v 0.00009626 0.02516578 -0.01745369
v 0.00009718 0.02441456 -0.01752192
v 0.00009718 0.02231370 -0.01771264
v 0.00009718 0.02096407 -0.01783513
v 0.00009718 0.01961364 -0.01795763
v -0.00005292 0.01961364 -0.01795763
v -0.00017928 0.02009783 -0.01791370
v -0.00017928 0.01708650 -0.01589535
v 0.00138512 0.01700124 -0.01596047
v 0.00138512 0.01707122 -0.01593541
v 0.00138512 0.02516578 -0.01637991
v 0.00024636 0.02516578 -0.01745007
v 0.00024712 0.02497033 -0.01746790
v 0.00024712 0.02456416 -0.01750486
v 0.00024712 0.02306412 -0.01764131
v 0.00024712 0.02096407 -0.01783229
v 0.00024712 0.02021365 -0.01790052
v 0.00024712 0.01961364 -0.01795505
v 0.00009718 0.01946323 -0.01797107
v -0.00005292 0.01946323 -0.01797107
v -0.00017928 0.01961364 -0.01795737
v -0.00017928 0.01973991 -0.01794600
v -0.00017928 0.01706076 -0.01590543
v -0.00017928 0.01698435 -0.01596047
v 0.00137516 0.01699159 -0.01596978
v 0.00138512 0.01698677 -0.01597960
v 0.00138512 0.02516498 -0.01663886
v 0.00138420 0.02516578 -0.01664066
v 0.00039646 0.02516578 -0.01744594
v 0.00036230 0.02495344 -0.01746635
v 0.00054732 0.01946323 -0.01795944
v 0.00024712 0.01946323 -0.01796848
v 0.00054732 0.02066406 -0.01785038
v 0.00024712 0.01931363 -0.01797650
v 0.00009718 0.01931363 -0.01797882
v -0.00017928 0.01943991 -0.01797210
v -0.00017928 0.01946323 -0.01797081
v -0.00017928 0.01696907 -0.01602379
v 0.00138512 0.01696987 -0.01604395
v 0.00138098 0.02501457 -0.01723997
v 0.00138068 0.02516578 -0.01724023
v 0.00138512 0.02042760 -0.01774262
v 0.00054640 0.02516578 -0.01744128
v 0.00054732 0.02426415 -0.01752321
v 0.00069711 0.01946323 -0.01795194
v 0.00054732 0.01931363 -0.01796771
v 0.00039722 0.01931363 -0.01797236
v 0.00069635 0.02516578 -0.01743612
v 0.00069711 0.02501457 -0.01744981
v 0.00078289 0.02479741 -0.01746584
v 0.00066250 0.01986700 -0.01791783
v 0.00039722 0.01916322 -0.01796797
v 0.00024712 0.01916322 -0.01797081
v 0.00009718 0.01916322 -0.01797184
v -0.00005292 0.01931363 -0.01797856
v -0.00017928 0.01931363 -0.01797831
v -0.00017928 0.01696585 -0.01603774
v -0.00017928 0.01695218 -0.01616541
v -0.00017928 0.01694977 -0.01618970
v 0.00138512 0.01696666 -0.01608581
v 0.00138512 0.02034717 -0.01775890
v 0.00137639 0.02516417 -0.01732111
v 0.00137593 0.02516578 -0.01732137
v 0.00138512 0.01982598 -0.01784134
v 0.00138512 0.01967557 -0.01786124
v 0.00138512 0.01952597 -0.01788062
v 0.00084721 0.01946323 -0.01794187
v 0.00069711 0.01931363 -0.01796021
v 0.00069711 0.01961364 -0.01793851
v 0.00054732 0.01916322 -0.01796357
v 0.00084645 0.02516578 -0.01742810
v 0.00084721 0.02501457 -0.01744180
v 0.00094753 0.02465907 -0.01746687
v 0.00084721 0.01961364 -0.01792843
v 0.00054732 0.01901362 -0.01795220
v 0.00039722 0.01901362 -0.01795530
v 0.00024712 0.01901362 -0.01795634
v 0.00009718 0.01901362 -0.01795634
v -0.00005292 0.01916322 -0.01797133
v -0.00017928 0.01928950 -0.01797701
v -0.00017928 0.01696022 -0.01633985
v 0.00138512 0.01696022 -0.01618970
v 0.00137348 0.02376870 -0.01746661
v 0.00138512 0.01946082 -0.01788811
v 0.00129736 0.02516417 -0.01736350
v 0.00129659 0.02516578 -0.01736350
v 0.00099731 0.01946323 -0.01793127
v 0.00084721 0.01931363 -0.01795014
v 0.00102794 0.01965385 -0.01791215
v 0.00069711 0.01916322 -0.01795608
v 0.00069711 0.01901362 -0.01794497
v 0.00099639 0.02516578 -0.01741777
v 0.00099731 0.02486416 -0.01744490
v 0.00099731 0.02036406 -0.01785038
v 0.00069711 0.01886322 -0.01793050
v 0.00054732 0.01886322 -0.01793696
v 0.00039722 0.01886322 -0.01793799
v 0.00024712 0.01886322 -0.01793825
v -0.00005292 0.01901362 -0.01795427
v -0.00017928 0.01916322 -0.01796978
v 0.00009718 0.01886322 -0.01793644
v -0.00017928 0.01697631 -0.01641299
v -0.00005292 0.01698033 -0.01642513
v 0.00039722 0.01698435 -0.01641919
v 0.00138512 0.01697390 -0.01631271
v 0.00138512 0.01696425 -0.01623932
v 0.00127239 0.02411455 -0.01747953
v 0.00138512 0.01936913 -0.01789716
v 0.00114726 0.02516417 -0.01740614
v 0.00125187 0.02426415 -0.01747281
v 0.00123425 0.02437193 -0.01746790
v 0.00114649 0.02516578 -0.01740614
v 0.00114144 0.01945680 -0.01792042
v 0.00099731 0.01931363 -0.01793954
v 0.00108752 0.01955412 -0.01791654
v 0.00084721 0.01916322 -0.01794600
v 0.00104755 0.02462046 -0.01746325
v 0.00084721 0.01901362 -0.01793437
v 0.00095090 0.01891872 -0.01791757
v 0.00083481 0.01886644 -0.01792067
v 0.00077645 0.01878681 -0.01791551
v 0.00069711 0.01877876 -0.01791835
v 0.00054732 0.01876992 -0.01792119
v 0.00039722 0.01876992 -0.01792145
v 0.00024712 0.01876992 -0.01792145
v -0.00017928 0.01898547 -0.01794548
v -0.00017928 0.01901362 -0.01794962
v -0.00017928 0.01913990 -0.01796693
v 0.00009718 0.01877474 -0.01791990
v -0.00001815 0.01878198 -0.01791732
v -0.00006211 0.01884955 -0.01792817
v -0.00017928 0.01697953 -0.01642643
v 0.00069711 0.01711867 -0.01658872
v 0.00054732 0.01704226 -0.01649207
v 0.00069696 0.01703261 -0.01647527
v 0.00064672 0.01698677 -0.01641557
v 0.00138512 0.01698114 -0.01634373
v 0.00138512 0.01931363 -0.01790078
v 0.00123165 0.01940211 -0.01791628
v 0.00120439 0.02447166 -0.01746351
v 0.00118754 0.01950184 -0.01791189
v 0.00119290 0.02115791 -0.01776252
v 0.00114726 0.01931363 -0.01792714
v 0.00123931 0.01921550 -0.01791706
v 0.00099731 0.01916322 -0.01793489
v 0.00099946 0.01901041 -0.01792197
v 0.00105107 0.01895813 -0.01791344
v 0.00099946 0.01886644 -0.01790724
v 0.00087647 0.01881818 -0.01791137
v 0.00114726 0.01886322 -0.01789199
v 0.00114726 0.01871281 -0.01785865
v 0.00099731 0.01871281 -0.01787364
v 0.00099731 0.01856321 -0.01782505
v 0.00069711 0.01870316 -0.01789328
v 0.00069711 0.01856321 -0.01784547
v 0.00054732 0.01869512 -0.01789561
v 0.00054732 0.01856321 -0.01785012
v 0.00024712 0.01869431 -0.01789535
v -0.00017928 0.01887287 -0.01792662
v 0.00009718 0.01869914 -0.01789328
v -0.00017928 0.01871523 -0.01788501
v -0.00011832 0.01879083 -0.01791473
v -0.00005292 0.01856321 -0.01783746
v -0.00017928 0.01704065 -0.01650163
v -0.00005292 0.01703985 -0.01650008
v 0.00024712 0.01711546 -0.01659156
v 0.00039722 0.01711626 -0.01659079
v 0.00069711 0.01718060 -0.01666341
v 0.00099731 0.01718221 -0.01666031
v 0.00129736 0.01718463 -0.01665669
v 0.00099731 0.01712189 -0.01658562
v 0.00138512 0.01712591 -0.01658045
v 0.00114726 0.01705352 -0.01649000
v 0.00138512 0.01705915 -0.01649000
v 0.00138512 0.01702216 -0.01643159
v 0.00138512 0.01699642 -0.01638766
v 0.00124222 0.01931363 -0.01791757
v 0.00138512 0.01916403 -0.01789483
v 0.00119857 0.01911497 -0.01791292
v 0.00114802 0.01916483 -0.01792197
v 0.00109855 0.01905867 -0.01791757
v 0.00114802 0.01901041 -0.01790827
v 0.00129736 0.01901362 -0.01789018
v 0.00138512 0.01901362 -0.01787933
v 0.00129736 0.01886322 -0.01787261
v 0.00129736 0.01871281 -0.01783953
v 0.00130241 0.01855195 -0.01778810
v 0.00114726 0.01856321 -0.01781058
v 0.00084721 0.01856321 -0.01783565
v 0.00114726 0.01846509 -0.01777569
v 0.00099731 0.01845141 -0.01778267
v 0.00084721 0.01844015 -0.01778758
v 0.00069711 0.01843130 -0.01779249
v 0.00039722 0.01856321 -0.01784961
v 0.00054732 0.01842889 -0.01779456
v 0.00024712 0.01856321 -0.01784857
v -0.00017928 0.01879887 -0.01791292
v 0.00009718 0.01856321 -0.01784444
v -0.00017928 0.01856321 -0.01783074
v -0.00005292 0.01844015 -0.01778784
v -0.00017928 0.01844739 -0.01778448
v -0.00017928 0.01711546 -0.01659053
v -0.00005292 0.01711546 -0.01659130
v 0.00009718 0.01711546 -0.01659156
v 0.00054732 0.01717980 -0.01666444
v 0.00009718 0.01717980 -0.01666651
v 0.00024712 0.01717980 -0.01666625
v 0.00054732 0.01725460 -0.01675179
v 0.00084721 0.01725621 -0.01675076
v 0.00129736 0.01725943 -0.01674740
v 0.00138512 0.01726023 -0.01674662
v 0.00138512 0.01718543 -0.01665539
v 0.00138512 0.01886322 -0.01786098
v 0.00138512 0.01871281 -0.01782738
v 0.00138512 0.01864042 -0.01780516
v 0.00138512 0.01857286 -0.01778396
v 0.00138512 0.01850047 -0.01776096
v 0.00135586 0.01849484 -0.01776277
v 0.00125585 0.01847876 -0.01776923
v 0.00114726 0.01839028 -0.01773771
v 0.00099731 0.01837581 -0.01774494
v 0.00084721 0.01836535 -0.01775063
v 0.00069711 0.01835650 -0.01775476
v 0.00054732 0.01835409 -0.01775605
v 0.00039722 0.01835490 -0.01775528
v 0.00024712 0.01843211 -0.01779353
v 0.00009718 0.01843452 -0.01779146
v -0.00005292 0.01836535 -0.01775037
v -0.00017928 0.01837179 -0.01774701
v -0.00017928 0.01843533 -0.01777880
v -0.00017928 0.01718141 -0.01666522
v -0.00005292 0.01718060 -0.01666599
v 0.00069711 0.01725540 -0.01675153
v 0.00024712 0.01725460 -0.01675127
v 0.00039722 0.01725460 -0.01675179
v 0.00054732 0.01732136 -0.01682673
v 0.00069711 0.01732136 -0.01682648
v 0.00099731 0.01739696 -0.01691047
v 0.00099731 0.01732216 -0.01682493
v 0.00138512 0.01739938 -0.01690866
v 0.00129736 0.01732377 -0.01682234
v 0.00138512 0.01728677 -0.01677789
v 0.00138512 0.01846830 -0.01774598
v 0.00138512 0.01841683 -0.01772091
v 0.00130241 0.01842246 -0.01773486
v 0.00138512 0.01834605 -0.01768292
v 0.00138512 0.01828251 -0.01764803
v 0.00129736 0.01827366 -0.01765397
v 0.00115400 0.01824953 -0.01765552
v 0.00099731 0.01826320 -0.01767697
v 0.00110851 0.01818277 -0.01761883
v 0.00099731 0.01817795 -0.01762219
v 0.00069711 0.01826320 -0.01769300
v 0.00054732 0.01826320 -0.01769532
v 0.00024712 0.01826320 -0.01769222
v 0.00024712 0.01835650 -0.01775425
v 0.00009718 0.01835972 -0.01775295
v -0.00017928 0.01826320 -0.01768033
v -0.00017928 0.01724495 -0.01673473
v -0.00005292 0.01725621 -0.01674921
v 0.00009718 0.01732377 -0.01682544
v 0.00024712 0.01732297 -0.01682622
v 0.00039722 0.01739696 -0.01690892
v 0.00084721 0.01753852 -0.01706863
v 0.00099731 0.01753852 -0.01706966
v 0.00099731 0.01746372 -0.01698567
v 0.00138512 0.01746533 -0.01698360
v 0.00138512 0.01823827 -0.01762219
v 0.00120852 0.01819001 -0.01761366
v 0.00138512 0.01805971 -0.01750770
v 0.00138512 0.01801869 -0.01747927
v 0.00129736 0.01801387 -0.01748315
v 0.00114726 0.01800904 -0.01748703
v 0.00099731 0.01810315 -0.01756533
v 0.00084721 0.01817393 -0.01762529
v 0.00069711 0.01817071 -0.01762813
v 0.00054732 0.01816910 -0.01762916
v 0.00024712 0.01817071 -0.01762813
v 0.00009718 0.01826320 -0.01768964
v 0.00009718 0.01817232 -0.01762684
v -0.00005292 0.01826320 -0.01768524
v -0.00017928 0.01824873 -0.01767077
v -0.00017928 0.01725701 -0.01674791
v 0.00024712 0.01739777 -0.01690788
v -0.00017928 0.01731573 -0.01681123
v 0.00039722 0.01754093 -0.01706501
v 0.00069711 0.01753932 -0.01706759
v 0.00084721 0.01760850 -0.01714383
v 0.00099731 0.01760769 -0.01714461
v 0.00114726 0.01760769 -0.01714409
v 0.00138512 0.01754013 -0.01706785
v 0.00138512 0.01820771 -0.01760332
v 0.00129736 0.01819886 -0.01760849
v 0.00138512 0.01814819 -0.01756611
v 0.00138512 0.01797446 -0.01744749
v 0.00138512 0.01794309 -0.01742371
v 0.00138512 0.01788518 -0.01737978
v 0.00129736 0.01793907 -0.01742578
v 0.00099731 0.01800582 -0.01749039
v 0.00114726 0.01793424 -0.01742888
v 0.00084721 0.01809912 -0.01756792
v 0.00069711 0.01809510 -0.01756895
v 0.00054732 0.01809430 -0.01756869
v 0.00024712 0.01809591 -0.01756740
v 0.00009718 0.01809752 -0.01756637
v -0.00005292 0.01817473 -0.01762477
v -0.00017928 0.01817714 -0.01762322
v -0.00017928 0.01800904 -0.01748858
v -0.00017928 0.01810234 -0.01756352
v 0.00039722 0.01746613 -0.01698412
v -0.00017928 0.01738972 -0.01689031
v -0.00005292 0.01740018 -0.01690452
v 0.00024712 0.01754254 -0.01706320
v 0.00024712 0.01761413 -0.01713840
v 0.00054732 0.01761091 -0.01714150
v 0.00069711 0.01760930 -0.01714254
v 0.00054732 0.01768571 -0.01721361
v 0.00084721 0.01768330 -0.01721516
v 0.00099731 0.01768249 -0.01721542
v 0.00114726 0.01768330 -0.01721490
v 0.00129736 0.01760850 -0.01714331
v 0.00138512 0.01760930 -0.01714280
v 0.00138512 0.01784577 -0.01734851
v 0.00084721 0.01800341 -0.01749297
v 0.00099731 0.01793022 -0.01743069
v 0.00129736 0.01784416 -0.01735058
v 0.00114726 0.01784175 -0.01735393
v 0.00069711 0.01800341 -0.01749400
v 0.00054732 0.01800341 -0.01749375
v 0.00024712 0.01800502 -0.01749220
v 0.00009718 0.01800663 -0.01749116
v -0.00017928 0.01816508 -0.01761366
v 0.00009718 0.01793102 -0.01742836
v -0.00017928 0.01793424 -0.01742578
v -0.00017928 0.01746131 -0.01696629
v -0.00005292 0.01754576 -0.01705932
v 0.00009718 0.01754415 -0.01706139
v 0.00009718 0.01761573 -0.01713659
v 0.00009718 0.01769054 -0.01720973
v 0.00024712 0.01768893 -0.01721128
v 0.00039722 0.01768732 -0.01721257
v 0.00024712 0.01776855 -0.01728623
v 0.00054732 0.01776695 -0.01728881
v 0.00069711 0.01776614 -0.01728959
v 0.00084721 0.01776534 -0.01729036
v 0.00099731 0.01776534 -0.01729062
v 0.00114726 0.01776614 -0.01728984
v 0.00129736 0.01768410 -0.01721386
v 0.00138512 0.01768410 -0.01721257
v 0.00138512 0.01780234 -0.01731336
v 0.00084721 0.01792861 -0.01743121
v 0.00099731 0.01784014 -0.01735574
v 0.00129736 0.01776855 -0.01728881
v 0.00069711 0.01792781 -0.01743121
v 0.00039722 0.01792942 -0.01743017
v 0.00024712 0.01793022 -0.01742940
v -0.00017928 0.01792057 -0.01741389
v 0.00039722 0.01784255 -0.01735497
v 0.00009718 0.01784496 -0.01735316
v -0.00005292 0.01784657 -0.01735187
v -0.00017928 0.01754737 -0.01705726
v -0.00017928 0.01761976 -0.01713220
v -0.00017928 0.01769456 -0.01720663
v -0.00017928 0.01776051 -0.01726969
v -0.00005292 0.01777177 -0.01728312
v 0.00054732 0.01784175 -0.01735574
v 0.00069711 0.01784094 -0.01735626
v 0.00084721 0.01784014 -0.01735626
v 0.00138512 0.01771949 -0.01724359
v 0.00138512 0.01777097 -0.01728752
v -0.00017928 0.01784818 -0.01735058
v -0.00017928 0.01777338 -0.01728157
f 1 2 3
f 1 3 4
f 1 4 5
f 1 5 10
f 1 10 20
f 1 20 31
f 1 31 48
f 1 48 61
f 1 61 83
f 1 83 106
f 1 106 132
f 1 132 112
f 1 112 91
f 1 91 68
f 1 68 63
f 1 63 49
f 1 49 32
f 1 32 21
f 1 21 11
f 1 11 6
f 1 6 15
f 1 15 27
f 1 27 42
f 1 42 41
f 1 41 57
f 1 57 56
f 1 56 76
f 1 76 100
f 1 100 120
f 1 120 148
f 1 148 147
f 1 147 146
f 1 146 179
f 1 179 217
f 1 217 181
f 1 181 219
f 1 219 221
f 1 221 250
f 1 250 249
f 1 249 278
f 1 278 302
f 1 302 327
f 1 327 352
f 1 352 329
f 1 329 328
f 1 328 354
f 1 354 377
f 1 377 391
f 1 391 392
f 1 392 384
f 1 384 383
f 1 383 382
f 1 382 381
f 1 381 355
f 1 355 331
f 1 331 305
f 1 305 303
f 1 303 279
f 1 279 251
f 1 251 222
f 1 222 184
f 1 184 152
f 1 152 122
f 1 122 101
f 1 101 79
f 1 79 78
f 1 78 77
f 1 77 58
f 1 58 44
f 1 44 43
f 1 43 28
f 1 28 18
f 1 18 17
f 1 17 16
f 1 16 7
f 1 7 8
f 1 8 2
f 2 8 3
f 3 8 4
f 4 9 10
f 4 10 5
f 4 8 9
f 6 11 12
f 6 12 13
f 6 13 14
f 6 14 15
f 7 16 8
f 8 16 17
f 8 17 18
f 8 18 19
f 8 19 30
f 8 30 29
f 8 29 46
f 8 46 59
f 8 59 80
f 8 80 102
f 8 102 126
f 8 126 125
f 8 125 157
f 8 157 196
f 8 196 195
f 8 195 194
f 8 194 192
f 8 192 232
f 8 232 231
f 8 231 262
f 8 262 260
f 8 260 287
f 8 287 311
f 8 311 342
f 8 342 369
f 8 369 389
f 8 389 390
f 8 390 370
f 8 370 343
f 8 343 317
f 8 317 316
f 8 316 315
f 8 315 291
f 8 291 290
f 8 290 314
f 8 314 312
f 8 312 288
f 8 288 267
f 8 267 266
f 8 266 264
f 8 264 263
f 8 263 237
f 8 237 236
f 8 236 235
f 8 235 234
f 8 234 233
f 8 233 204
f 8 204 198
f 8 198 158
f 8 158 128
f 8 128 104
f 8 104 86
f 8 86 85
f 8 85 84
f 8 84 81
f 8 81 62
f 8 62 47
f 8 47 31
f 8 31 20
f 8 20 9
f 9 20 10
f 11 21 22
f 11 22 23
f 11 23 24
f 11 24 25
f 11 25 12
f 12 25 13
f 13 25 14
f 14 25 26
f 14 26 27
f 14 27 15
f 18 28 29
f 18 29 30
f 18 30 19
f 21 32 33
f 21 33 34
f 21 34 35
f 21 35 36
f 21 36 37
f 21 37 38
f 21 38 22
f 22 38 23
f 23 38 24
f 24 38 25
f 25 38 52
f 25 52 39
f 25 39 40
f 25 40 26
f 26 40 57
f 26 57 41
f 26 41 42
f 26 42 27
f 28 43 29
f 29 44 45
f 29 45 46
f 29 43 44
f 31 47 48
f 32 49 50
f 32 50 33
f 33 50 34
f 34 50 35
f 35 50 36
f 36 50 37
f 37 50 38
f 38 51 52
f 38 50 53
f 38 53 51
f 39 52 54
f 39 54 55
f 39 55 40
f 40 56 57
f 40 55 56
f 44 58 59
f 44 59 46
f 44 46 45
f 47 60 61
f 47 61 48
f 47 62 60
f 49 63 50
f 50 63 64
f 50 64 53
f 51 65 88
f 51 88 66
f 51 66 67
f 51 67 52
f 51 53 68
f 51 68 69
f 51 69 70
f 51 70 71
f 51 71 65
f 52 67 54
f 53 64 68
f 54 67 72
f 54 72 73
f 54 73 55
f 55 73 74
f 55 74 75
f 55 75 56
f 56 75 76
f 58 77 59
f 59 77 78
f 59 78 79
f 59 79 80
f 60 62 81
f 60 81 61
f 61 82 83
f 61 81 84
f 61 84 85
f 61 85 86
f 61 86 82
f 63 68 64
f 65 87 108
f 65 108 88
f 65 71 89
f 65 89 94
f 65 94 87
f 66 88 110
f 66 110 90
f 66 90 67
f 67 90 72
f 68 91 70
f 68 70 69
f 70 91 92
f 70 92 93
f 70 93 94
f 70 94 89
f 70 89 71
f 72 90 95
f 72 95 96
f 72 96 73
f 73 96 74
f 74 96 97
f 74 97 98
f 74 98 99
f 74 99 76
f 74 76 75
f 76 99 100
f 79 101 102
f 79 102 80
f 82 103 83
f 82 86 104
f 82 104 103
f 83 105 106
f 83 103 105
f 87 107 134
f 87 134 108
f 87 94 109
f 87 109 107
f 88 108 136
f 88 136 110
f 90 110 111
f 90 111 95
f 91 112 92
f 92 112 93
f 93 112 113
f 93 113 114
f 93 114 94
f 94 114 109
f 95 115 116
f 95 116 96
f 95 111 115
f 96 116 117
f 96 117 97
f 97 117 118
f 97 118 98
f 98 119 120
f 98 120 99
f 98 118 121
f 98 121 119
f 99 120 100
f 101 122 123
f 101 123 124
f 101 124 125
f 101 125 126
f 101 126 102
f 103 127 105
f 103 104 127
f 104 128 127
f 105 129 132
f 105 132 106
f 105 127 130
f 105 130 131
f 105 131 129
f 107 133 134
f 107 109 135
f 107 135 133
f 108 134 136
f 109 114 137
f 109 137 135
f 110 136 111
f 111 136 138
f 111 138 115
f 112 132 137
f 112 137 113
f 113 137 114
f 115 139 140
f 115 140 141
f 115 141 142
f 115 142 116
f 115 138 139
f 116 142 143
f 116 143 117
f 117 143 144
f 117 144 118
f 118 144 145
f 118 145 121
f 119 146 147
f 119 147 148
f 119 148 120
f 119 121 146
f 121 145 149
f 121 149 150
f 121 150 151
f 121 151 146
f 122 152 123
f 123 152 153
f 123 153 154
f 123 154 124
f 124 154 155
f 124 155 156
f 124 156 125
f 125 156 157
f 127 128 130
f 128 158 159
f 128 159 160
f 128 160 131
f 128 131 130
f 129 131 132
f 131 160 132
f 132 160 135
f 132 135 137
f 133 161 159
f 133 159 134
f 133 135 160
f 133 160 162
f 133 162 161
f 134 163 164
f 134 164 165
f 134 165 136
f 134 159 163
f 136 165 138
f 138 165 166
f 138 166 167
f 138 167 139
f 139 167 168
f 139 168 140
f 140 168 169
f 140 169 141
f 141 169 170
f 141 170 171
f 141 171 172
f 141 172 173
f 141 173 174
f 141 174 142
f 142 174 143
f 143 174 175
f 143 175 176
f 143 176 144
f 144 176 177
f 144 177 145
f 145 177 178
f 145 178 149
f 146 151 179
f 149 178 180
f 149 180 150
f 150 181 182
f 150 182 151
f 150 180 183
f 150 183 181
f 151 182 179
f 152 184 185
f 152 185 186
f 152 186 187
f 152 187 153
f 153 187 188
f 153 188 189
f 153 189 190
f 153 190 191
f 153 191 154
f 154 191 155
f 155 191 192
f 155 192 156
f 156 192 193
f 156 193 194
f 156 194 195
f 156 195 196
f 156 196 157
f 158 197 159
f 158 198 164
f 158 164 197
f 159 197 163
f 159 161 162
f 159 162 160
f 163 197 164
f 164 198 199
f 164 199 200
f 164 200 165
f 165 200 201
f 165 201 167
f 165 167 166
f 167 201 199
f 167 199 202
f 167 202 170
f 167 170 168
f 168 170 169
f 170 202 203
f 170 203 204
f 170 204 205
f 170 205 206
f 170 206 171
f 171 206 207
f 171 207 208
f 171 208 172
f 172 208 173
f 173 209 174
f 173 208 210
f 173 210 211
f 173 211 209
f 174 209 175
f 175 177 176
f 175 209 211
f 175 211 212
f 175 212 213
f 175 213 177
f 177 214 178
f 177 213 215
f 177 215 214
f 178 214 216
f 178 216 180
f 179 182 217
f 180 216 218
f 180 218 183
f 181 217 182
f 181 183 219
f 183 218 220
f 183 220 221
f 183 221 219
f 184 222 223
f 184 223 224
f 184 224 186
f 184 186 185
f 186 225 187
f 186 224 226
f 186 226 227
f 186 227 228
f 186 228 225
f 187 225 188
f 188 225 229
f 188 229 230
f 188 230 189
f 189 230 231
f 189 231 190
f 190 232 191
f 190 231 232
f 191 232 192
f 192 194 193
f 198 204 199
f 199 204 203
f 199 203 202
f 199 201 200
f 204 233 205
f 205 233 206
f 206 233 234
f 206 234 235
f 206 235 236
f 206 236 207
f 207 237 238
f 207 238 208
f 207 236 237
f 208 238 239
f 208 239 210
f 210 239 240
f 210 240 241
f 210 241 211
f 211 241 242
f 211 242 212
f 212 242 213
f 213 242 243
f 213 243 215
f 214 215 216
f 215 243 244
f 215 244 245
f 215 245 246
f 215 246 216
f 216 246 247
f 216 247 218
f 218 247 220
f 220 247 248
f 220 248 249
f 220 249 250
f 220 250 221
f 222 251 252
f 222 252 226
f 222 226 223
f 223 226 224
f 225 228 253
f 225 253 229
f 226 252 254
f 226 254 255
f 226 255 228
f 226 228 227
f 228 255 256
f 228 256 257
f 228 257 258
f 228 258 253
f 229 253 259
f 229 259 260
f 229 260 261
f 229 261 262
f 229 262 230
f 230 262 231
f 237 263 238
f 238 263 239
f 239 263 264
f 239 264 265
f 239 265 240
f 240 265 266
f 240 266 267
f 240 267 268
f 240 268 269
f 240 269 241
f 241 269 270
f 241 270 242
f 242 270 243
f 243 270 271
f 243 271 272
f 243 272 273
f 243 273 244
f 244 273 274
f 244 274 245
f 245 274 275
f 245 275 276
f 245 276 246
f 246 276 277
f 246 277 247
f 247 277 248
f 248 277 278
f 248 278 249
f 251 279 280
f 251 280 252
f 252 280 254
f 253 258 259
f 254 280 281
f 254 281 282
f 254 282 283
f 254 283 284
f 254 284 285
f 254 285 256
f 254 256 255
f 256 285 257
f 257 285 286
f 257 286 258
f 258 286 287
f 258 287 260
f 258 260 259
f 260 262 261
f 264 266 265
f 267 288 268
f 268 288 289
f 268 289 269
f 269 289 271
f 269 271 270
f 271 289 290
f 271 290 291
f 271 291 292
f 271 292 272
f 272 292 293
f 272 293 294
f 272 294 295
f 272 295 273
f 273 295 296
f 273 296 274
f 274 296 297
f 274 297 298
f 274 298 275
f 275 299 276
f 275 298 300
f 275 300 299
f 276 299 277
f 277 299 301
f 277 301 278
f 278 301 302
f 279 303 280
f 280 303 281
f 281 304 283
f 281 283 282
f 281 303 305
f 281 305 306
f 281 306 304
f 283 304 307
f 283 307 284
f 284 307 308
f 284 308 309
f 284 309 285
f 285 309 310
f 285 310 311
f 285 311 286
f 286 311 287
f 288 312 313
f 288 313 289
f 289 313 314
f 289 314 290
f 291 315 292
f 292 315 316
f 292 316 317
f 292 317 318
f 292 318 293
f 293 319 294
f 293 318 320
f 293 320 319
f 294 319 321
f 294 321 295
f 295 321 296
f 296 321 322
f 296 322 297
f 297 322 323
f 297 323 298
f 298 323 324
f 298 324 325
f 298 325 300
f 299 300 326
f 299 326 327
f 299 327 301
f 300 325 328
f 300 328 329
f 300 329 326
f 301 327 302
f 304 330 307
f 304 306 330
f 305 331 332
f 305 332 306
f 306 333 334
f 306 334 335
f 306 335 336
f 306 336 307
f 306 307 330
f 306 332 333
f 307 336 308
f 308 336 337
f 308 337 338
f 308 338 309
f 309 338 339
f 309 339 310
f 310 339 340
f 310 340 341
f 310 341 311
f 311 341 342
f 312 314 313
f 317 343 320
f 317 320 318
f 319 344 321
f 319 320 345
f 319 345 344
f 320 343 346
f 320 346 347
f 320 347 345
f 321 344 322
f 322 344 348
f 322 348 323
f 323 348 349
f 323 349 324
f 324 349 350
f 324 350 351
f 324 351 325
f 325 351 328
f 326 329 352
f 326 352 327
f 328 351 353
f 328 353 354
f 331 355 356
f 331 356 357
f 331 357 332
f 332 357 333
f 333 357 358
f 333 358 334
f 334 358 359
f 334 359 360
f 334 360 335
f 335 360 361
f 335 361 336
f 336 361 337
f 337 361 362
f 337 362 363
f 337 363 338
f 338 363 364
f 338 364 365
f 338 365 339
f 339 365 366
f 339 366 340
f 340 366 367
f 340 367 368
f 340 368 341
f 341 368 342
f 342 368 369
f 343 370 346
f 344 345 371
f 344 371 348
f 345 347 372
f 345 372 371
f 346 370 347
f 347 370 373
f 347 373 372
f 348 371 374
f 348 374 349
f 349 374 375
f 349 375 376
f 349 376 350
f 350 376 353
f 350 353 351
f 353 377 354
f 353 376 378
f 353 378 379
f 353 379 380
f 353 380 377
f 355 381 356
f 356 381 358
f 356 358 357
f 358 381 382
f 358 382 383
f 358 383 359
f 359 383 384
f 359 384 385
f 359 385 360
f 360 385 362
f 360 362 361
f 362 385 380
f 362 380 379
f 362 379 363
f 363 379 378
f 363 378 364
f 364 378 386
f 364 386 365
f 365 386 387
f 365 387 388
f 365 388 366
f 366 388 372
f 366 372 367
f 367 373 369
f 367 369 368
f 367 372 373
f 369 373 389
f 370 390 373
f 371 372 374
f 372 388 374
f 373 390 389
f 374 388 387
f 374 387 375
f 375 387 386
f 375 386 378
f 375 378 376
f 377 380 391
f 380 385 391
f 384 392 385
f 385 392 391

