# https://github.com/mikedh/trimesh
v -0.00605663 0.06094577 0.00094897
v -0.00605663 0.06094365 0.00095740
v -0.00605663 0.06288150 0.00094897
v -0.00317096 0.06145384 0.00094897
v -0.00605663 0.06091910 0.00105909
v -0.00605663 0.06287981 0.00096087
v -0.00599795 0.06291241 0.00094897
v -0.00259394 0.06155545 0.00094897
v -0.00605663 0.06077684 0.00165885
v -0.00605663 0.06287092 0.00101494
v -0.00598817 0.06290733 0.00101693
v -0.00590705 0.06295898 0.00094897
v -0.00242595 0.06158509 0.00094897
v -0.00605663 0.06017944 0.00421066
v -0.00245414 0.06156138 0.00102883
v -0.00605663 0.06286245 0.00106604
v -0.00597033 0.06289844 0.00111664
v -0.00591395 0.06293527 0.00106654
v -0.00605663 0.06285991 0.00108043
v -0.00580465 0.06300809 0.00094897
v -0.00230629 0.06160626 0.00094897
v -0.00604282 0.05975944 0.00601687
v -0.00605663 0.05986274 0.00556594
v -0.00237072 0.06155121 0.00113549
v -0.00605663 0.06283281 0.00121635
v -0.00605663 0.06282858 0.00123619
v -0.00605663 0.06280063 0.00136220
v -0.00594674 0.06288701 0.00121635
v -0.00587196 0.06292257 0.00121635
v -0.00575460 0.06297803 0.00121635
v -0.00574194 0.06301826 0.00105761
v -0.00576668 0.06302588 0.00094897
v -0.00215384 0.06163378 0.00094897
v -0.00590475 0.05978992 0.00601687
v -0.00605663 0.05975859 0.00601687
v -0.00605663 0.05976282 0.00599455
v -0.00227062 0.06156011 0.00117914
v -0.00215384 0.06160795 0.00106654
v -0.00221827 0.06155037 0.00127935
v -0.00216247 0.06157365 0.00122429
v -0.00605663 0.06276930 0.00149366
v -0.00584549 0.06291029 0.00132201
v -0.00581960 0.06289801 0.00142222
v -0.00576323 0.06293654 0.00137013
v -0.00563321 0.06303308 0.00121635
v -0.00566255 0.06304578 0.00110126
v -0.00573906 0.06303858 0.00094897
v -0.00568384 0.06305467 0.00100155
v -0.00200426 0.06166426 0.00094897
v -0.00546177 0.05988857 0.00601687
v -0.00188057 0.06169093 0.00094897
v -0.00605663 0.06086575 0.00601687
v -0.00200426 0.06164013 0.00106654
v -0.00605663 0.06275110 0.00156956
v -0.00589900 0.06287346 0.00137013
v -0.00571778 0.06292003 0.00151648
v -0.00605663 0.06272442 0.00167820
v -0.00600025 0.06276253 0.00163008
v -0.00605663 0.06268505 0.00183545
v -0.00597321 0.06274983 0.00173028
v -0.00559294 0.06301614 0.00135773
v -0.00553541 0.06305509 0.00130168
v -0.00555842 0.06306398 0.00121635
v -0.00560905 0.06307414 0.00105761
v -0.00569304 0.06305890 0.00094897
v -0.00560560 0.06309404 0.00094897
v -0.00563494 0.06308261 0.00094897
v -0.00484563 0.06002659 0.00601687
v -0.00182362 0.06170364 0.00094897
v -0.00044924 0.06201144 0.00094897
v -0.00605663 0.06086871 0.00601241
v -0.00590475 0.06094958 0.00601687
v -0.00566197 0.06289505 0.00171094
v -0.00560905 0.06293104 0.00166331
v -0.00560444 0.06297084 0.00151648
v -0.00605663 0.06264864 0.00197832
v -0.00550492 0.06304324 0.00140139
v -0.00545487 0.06310166 0.00121635
v -0.00537375 0.06305086 0.00158245
v -0.00540482 0.06306229 0.00148225
v -0.00515457 0.06311140 0.00166679
v -0.00530472 0.06312326 0.00136666
v -0.00545487 0.06313003 0.00106654
v -0.00545487 0.06315035 0.00094897
v -0.00017943 0.06196021 0.00151697
v -0.00017943 0.06126458 0.00505399
v -0.00017943 0.06109438 0.00591964
v -0.00017943 0.06107533 0.00601687
v -0.00020359 0.06206690 0.00094897
v -0.00020359 0.06204362 0.00106654
v -0.00020072 0.06201567 0.00121139
v -0.00598241 0.06095424 0.00594494
v -0.00605663 0.06097541 0.00585069
v -0.00575402 0.06103214 0.00601687
v -0.00590475 0.06097541 0.00597768
v -0.00605663 0.06261265 0.00211673
v -0.00553311 0.06290436 0.00189697
v -0.00555612 0.06291495 0.00181660
v -0.00545487 0.06295898 0.00181660
v -0.00545487 0.06299709 0.00166679
v -0.00534671 0.06304070 0.00166679
v -0.00509301 0.06320751 0.00131408
v -0.00530472 0.06315374 0.00121635
v -0.00522188 0.06320031 0.00112706
v -0.00524201 0.06305763 0.00176054
v -0.00527193 0.06306864 0.00166679
v -0.00515744 0.06307584 0.00181313
v -0.00510912 0.06306398 0.00193665
v -0.00494228 0.06305763 0.00221098
v -0.00500441 0.06312834 0.00181660
v -0.00499003 0.06317025 0.00165240
v -0.00502973 0.06318677 0.00151648
v -0.00515457 0.06314400 0.00151648
v -0.00506252 0.06319735 0.00141379
v -0.00524776 0.06320963 0.00102685
v -0.00526732 0.06321640 0.00094897
v -0.00537318 0.06317914 0.00094897
v -0.00017943 0.06201610 0.00123371
v -0.00017943 0.06243271 0.00601687
v -0.00018116 0.06207198 0.00094897
v -0.00017943 0.06204912 0.00106654
v -0.00605663 0.06105543 0.00572667
v -0.00579026 0.06108168 0.00590972
v -0.00558431 0.06112359 0.00601687
v -0.00605663 0.06259995 0.00216485
v -0.00594099 0.06258555 0.00241685
v -0.00596861 0.06259783 0.00232309
v -0.00591338 0.06263636 0.00227051
v -0.00550147 0.06289082 0.00199717
v -0.00545257 0.06292299 0.00195501
v -0.00568614 0.06275575 0.00220255
v -0.00580925 0.06259360 0.00260784
v -0.00575747 0.06258344 0.00272988
v -0.00560502 0.06273078 0.00242578
v -0.00530472 0.06298100 0.00196691
v -0.00529724 0.06302334 0.00181313
v -0.00520922 0.06304535 0.00186075
v -0.00512120 0.06321725 0.00121635
v -0.00519599 0.06319142 0.00121635
v -0.00485426 0.06330828 0.00121635
v -0.00477545 0.06335146 0.00113499
v -0.00471734 0.06338279 0.00107745
v -0.00500441 0.06328668 0.00106654
v -0.00490834 0.06334172 0.00094897
v -0.00503778 0.06329685 0.00094897
v -0.00507575 0.06305170 0.00203686
v -0.00485656 0.06303519 0.00242777
v -0.00477430 0.06305128 0.00248481
v -0.00485426 0.06314316 0.00196691
v -0.00493020 0.06320328 0.00159287
v -0.00485426 0.06327695 0.00136666
v -0.00475013 0.06334342 0.00121635
v -0.00017943 0.06246573 0.00596379
v -0.00018346 0.06243313 0.00601687
v -0.00017943 0.06211813 0.00094897
v -0.00605663 0.06106178 0.00571675
v -0.00585010 0.06111343 0.00581001
v -0.00544969 0.06119472 0.00601687
v -0.00565565 0.06124003 0.00577231
v -0.00605663 0.06257624 0.00225464
v -0.00589554 0.06256735 0.00256171
v -0.00586620 0.06261900 0.00241685
v -0.00555555 0.06276380 0.00238163
v -0.00545487 0.06283747 0.00226704
v -0.00540137 0.06291198 0.00207555
v -0.00575460 0.06254702 0.00286729
v -0.00567693 0.06260164 0.00278792
v -0.00561825 0.06264229 0.00272988
v -0.00515457 0.06296152 0.00226704
v -0.00515457 0.06300090 0.00211673
v -0.00515744 0.06303519 0.00197882
v -0.00455454 0.06343953 0.00106654
v -0.00470699 0.06341116 0.00094897
v -0.00473173 0.06340269 0.00094897
v -0.00485426 0.06300090 0.00256716
v -0.00455454 0.06296110 0.00316741
v -0.00455454 0.06299878 0.00301710
v -0.00460401 0.06304451 0.00275617
v -0.00446824 0.06304959 0.00292682
v -0.00471619 0.06308303 0.00242777
v -0.00455454 0.06310336 0.00256716
v -0.00450909 0.06336247 0.00148373
v -0.00484851 0.06321598 0.00165240
v -0.00460919 0.06334638 0.00141280
v -0.00464371 0.06335781 0.00131259
v -0.00467477 0.06336840 0.00121635
v -0.00017943 0.06252078 0.00586755
v -0.00020359 0.06252204 0.00586755
v -0.00020359 0.06246616 0.00596478
v -0.00020359 0.06243398 0.00601687
v -0.00017943 0.06408265 0.00094897
v -0.00605663 0.06110539 0.00564730
v -0.00605663 0.06115323 0.00557090
v -0.00600888 0.06111809 0.00566763
v -0.00529781 0.06127347 0.00601687
v -0.00539561 0.06126119 0.00595635
v -0.00536052 0.06139287 0.00577677
v -0.00546407 0.06137170 0.00572320
v -0.00551988 0.06139752 0.00563440
v -0.00605663 0.06253178 0.00241685
v -0.00590475 0.06252035 0.00271698
v -0.00545487 0.06267277 0.00286729
v -0.00536857 0.06289844 0.00217526
v -0.00565104 0.06259063 0.00286729
v -0.00590647 0.06247971 0.00285935
v -0.00585757 0.06246616 0.00298486
v -0.00576668 0.06249410 0.00302752
v -0.00559869 0.06257158 0.00301562
v -0.00554404 0.06260884 0.00296452
v -0.00485426 0.06296152 0.00271698
v -0.00500441 0.06298142 0.00241685
v -0.00520231 0.06289166 0.00245059
v -0.00480249 0.06291241 0.00297692
v -0.00471332 0.06293612 0.00302306
v -0.00455454 0.06340777 0.00121635
v -0.00440381 0.06348568 0.00107199
v -0.00445328 0.06349541 0.00094996
v -0.00454533 0.06346535 0.00094897
v -0.00466384 0.06291707 0.00316741
v -0.00463565 0.06290563 0.00325125
v -0.00455108 0.06292299 0.00330780
v -0.00440438 0.06297507 0.00331723
v -0.00439058 0.06302164 0.00315402
v -0.00445213 0.06319481 0.00230524
v -0.00433132 0.06305340 0.00309499
v -0.00436009 0.06306229 0.00301710
v -0.00440438 0.06311648 0.00271698
v -0.00447342 0.06335104 0.00158345
v -0.00440438 0.06345435 0.00121635
v -0.00017943 0.06258894 0.00574155
v -0.00020359 0.06258344 0.00575445
v -0.00035317 0.06258640 0.00575990
v -0.00035317 0.06252670 0.00586755
v -0.00035317 0.06246785 0.00596677
v -0.00035317 0.06243610 0.00601687
v -0.00017943 0.06407461 0.00104272
v -0.00020359 0.06408308 0.00094897
v -0.00597321 0.06124934 0.00548657
v -0.00605663 0.06123452 0.00543646
v -0.00530817 0.06136238 0.00586805
v -0.00528861 0.06127813 0.00601687
v -0.00515111 0.06144325 0.00586805
v -0.00526042 0.06141869 0.00581795
v -0.00530817 0.06145299 0.00572320
v -0.00541978 0.06142377 0.00567656
v -0.00545027 0.06147585 0.00556395
v -0.00557741 0.06142759 0.00553419
v -0.00605663 0.06249114 0.00256121
v -0.00545832 0.06263043 0.00301562
v -0.00473920 0.06288616 0.00316741
v -0.00516607 0.06278963 0.00287671
v -0.00595710 0.06244118 0.00290400
v -0.00601175 0.06246870 0.00271698
v -0.00598644 0.06245600 0.00280379
v -0.00605663 0.06235650 0.00301562
v -0.00590647 0.06242805 0.00302752
v -0.00582421 0.06245007 0.00308457
v -0.00572065 0.06247166 0.00316741
v -0.00560444 0.06252374 0.00316741
v -0.00551125 0.06259487 0.00306423
v -0.00431809 0.06349965 0.00112557
v -0.00435318 0.06350981 0.00102586
v -0.00445443 0.06349499 0.00094897
v -0.00428357 0.06354453 0.00094897
v -0.00459883 0.06289039 0.00335146
v -0.00505619 0.06274305 0.00320809
v -0.00495609 0.06276380 0.00327953
v -0.00486347 0.06278878 0.00332467
v -0.00469318 0.06286457 0.00330780
v -0.00449873 0.06291072 0.00341099
v -0.00439575 0.06292553 0.00346357
v -0.00425423 0.06296957 0.00346754
v -0.00424733 0.06302588 0.00331078
v -0.00429278 0.06304239 0.00319519
v -0.00435203 0.06321005 0.00237270
v -0.00429738 0.06334384 0.00185033
v -0.00428357 0.06348991 0.00121635
v -0.00017943 0.06262027 0.00567805
v -0.00020359 0.06262069 0.00567954
v -0.00035317 0.06268082 0.00556743
v -0.00050332 0.06277311 0.00538388
v -0.00050332 0.06273628 0.00545879
v -0.00050332 0.06258725 0.00576139
v -0.00020359 0.06267573 0.00556743
v -0.00050332 0.06252797 0.00586755
v -0.00050332 0.06246827 0.00596677
v -0.00050332 0.06243483 0.00601687
v -0.00017943 0.06407249 0.00106654
v -0.00020359 0.06407292 0.00106654
v -0.00035317 0.06408350 0.00094897
v -0.00567693 0.06140134 0.00549054
v -0.00553714 0.06155672 0.00534915
v -0.00590302 0.06132682 0.00541612
v -0.00605663 0.06127093 0.00537396
v -0.00605663 0.06123960 0.00542803
v -0.00515111 0.06134757 0.00601687
v -0.00509876 0.06141234 0.00595734
v -0.00506194 0.06154444 0.00577826
v -0.00516492 0.06152497 0.00572419
v -0.00522188 0.06154910 0.00563638
v -0.00530472 0.06152835 0.00560116
v -0.00538066 0.06155333 0.00549351
v -0.00548076 0.06152751 0.00544936
v -0.00605663 0.06245854 0.00267382
v -0.00605663 0.06243821 0.00274327
v -0.00605663 0.06237640 0.00294964
v -0.00605663 0.06235269 0.00302752
v -0.00605663 0.06231628 0.00314013
v -0.00602268 0.06232432 0.00316741
v -0.00590475 0.06238275 0.00316741
v -0.00579602 0.06243610 0.00316741
v -0.00568959 0.06245727 0.00325522
v -0.00545487 0.06254194 0.00331723
v -0.00545832 0.06258301 0.00317882
v -0.00537548 0.06260080 0.00323637
v -0.00541115 0.06261561 0.00313616
v -0.00420878 0.06351108 0.00121635
v -0.00410408 0.06353987 0.00121635
v -0.00426229 0.06352590 0.00107199
v -0.00425596 0.06355215 0.00094897
v -0.00491985 0.06274856 0.00337924
v -0.00527135 0.06262027 0.00331723
v -0.00500556 0.06272950 0.00332467
v -0.00481974 0.06276930 0.00343331
v -0.00471389 0.06279513 0.00347697
v -0.00477027 0.06274898 0.00353253
v -0.00467017 0.06276973 0.00358065
v -0.00461667 0.06274771 0.00368085
v -0.00444063 0.06288912 0.00351070
v -0.00434053 0.06290690 0.00355088
v -0.00411444 0.06294416 0.00362876
v -0.00395393 0.06299836 0.00361686
v -0.00387799 0.06305255 0.00354096
v -0.00409603 0.06301995 0.00345762
v -0.00414090 0.06304239 0.00335642
v -0.00409603 0.06306822 0.00331078
v -0.00419268 0.06305678 0.00325621
v -0.00410408 0.06310378 0.00316741
v -0.00410408 0.06313808 0.00301710
v -0.00425423 0.06309404 0.00301710
v -0.00425423 0.06312791 0.00286729
v -0.00425423 0.06339761 0.00166679
v -0.00399938 0.06319439 0.00290350
v -0.00398730 0.06334088 0.00226704
v -0.00414147 0.06349203 0.00139246
v -0.00404137 0.06350642 0.00145744
v -0.00409660 0.06351362 0.00135227
v -0.00017943 0.06268420 0.00554808
v -0.00035317 0.06277184 0.00538140
v -0.00020359 0.06276930 0.00537644
v -0.00050332 0.06292130 0.00508028
v -0.00065347 0.06292215 0.00508177
v -0.00065347 0.06283112 0.00526730
v -0.00065347 0.06277354 0.00538438
v -0.00065347 0.06262450 0.00568649
v -0.00065347 0.06258725 0.00576139
v -0.00017943 0.06273797 0.00543845
v -0.00065347 0.06252670 0.00586755
v -0.00065347 0.06246743 0.00596429
v -0.00065347 0.06243102 0.00601687
v -0.00017943 0.06405556 0.00121635
v -0.00020359 0.06405598 0.00121635
v -0.00035317 0.06407292 0.00106654
v -0.00050332 0.06408223 0.00094897
v -0.00544049 0.06157196 0.00540670
v -0.00544336 0.06164902 0.00525589
v -0.00548593 0.06168204 0.00515072
v -0.00559409 0.06157535 0.00525738
v -0.00568786 0.06155714 0.00520083
v -0.00598414 0.06140515 0.00519686
v -0.00605663 0.06132851 0.00526929
v -0.00583284 0.06140430 0.00534519
v -0.00500441 0.06141446 0.00601687
v -0.00500441 0.06143394 0.00598810
v -0.00496184 0.06156773 0.00581596
v -0.00512177 0.06157238 0.00567805
v -0.00500902 0.06159864 0.00572419
v -0.00530472 0.06157111 0.00552625
v -0.00530472 0.06162954 0.00541761
v -0.00605663 0.06229511 0.00320264
v -0.00599104 0.06230823 0.00325770
v -0.00574597 0.06240985 0.00331028
v -0.00565162 0.06243864 0.00335543
v -0.00555152 0.06246319 0.00341892
v -0.00560272 0.06247801 0.00331028
v -0.00523913 0.06260672 0.00340305
v -0.00534614 0.06258852 0.00331723
v -0.00395393 0.06354961 0.00136666
v -0.00410408 0.06357035 0.00106654
v -0.00410408 0.06359364 0.00094897
v -0.00514651 0.06262324 0.00345861
v -0.00500441 0.06267870 0.00346754
v -0.00509128 0.06260757 0.00355386
v -0.00486347 0.06273332 0.00347697
v -0.00494056 0.06260715 0.00370268
v -0.00470411 0.06267531 0.00376717
v -0.00488763 0.06258598 0.00380239
v -0.00463162 0.06260376 0.00399437
v -0.00451657 0.06276676 0.00372352
v -0.00445558 0.06274432 0.00382323
v -0.00417139 0.06290055 0.00368681
v -0.00425423 0.06292045 0.00358213
v -0.00440496 0.06278582 0.00377064
v -0.00436987 0.06261688 0.00417346
v -0.00420476 0.06261138 0.00431136
v -0.00413630 0.06258894 0.00441157
v -0.00409315 0.06262408 0.00436395
v -0.00407186 0.06291622 0.00372252
v -0.00395220 0.06293231 0.00377015
v -0.00380378 0.06297930 0.00376717
v -0.00381816 0.06303646 0.00362232
v -0.00395393 0.06306737 0.00343579
v -0.00404080 0.06305594 0.00340107
v -0.00370655 0.06304662 0.00367589
v -0.00360645 0.06306017 0.00371062
v -0.00377789 0.06306567 0.00357568
v -0.00328429 0.06320412 0.00354542
v -0.00338439 0.06319142 0.00350723
v -0.00350060 0.06317660 0.00346159
v -0.00371058 0.06319820 0.00322496
v -0.00328026 0.06335316 0.00309350
v -0.00320375 0.06339507 0.00301710
v -0.00339129 0.06334300 0.00301710
v -0.00350405 0.06331166 0.00301710
v -0.00365420 0.06326890 0.00301710
v -0.00395105 0.06318253 0.00301760
v -0.00356618 0.06334935 0.00277551
v -0.00365420 0.06340439 0.00241685
v -0.00400283 0.06349541 0.00155765
v -0.00376408 0.06351320 0.00178733
v -0.00381011 0.06352548 0.00167026
v -0.00380378 0.06355935 0.00151648
v -0.00035317 0.06292003 0.00507780
v -0.00020359 0.06288108 0.00514775
v -0.00050332 0.06297634 0.00496718
v -0.00065347 0.06297803 0.00496718
v -0.00080362 0.06292130 0.00507929
v -0.00080362 0.06262281 0.00568351
v -0.00080362 0.06258555 0.00575842
v -0.00017943 0.06292469 0.00505597
v -0.00080362 0.06252162 0.00586755
v -0.00080362 0.06246362 0.00595883
v -0.00080362 0.06242340 0.00601687
v -0.00017943 0.06403608 0.00134285
v -0.00020359 0.06403227 0.00136666
v -0.00035317 0.06405471 0.00121635
v -0.00050332 0.06407038 0.00106654
v -0.00065347 0.06407969 0.00094897
v -0.00530472 0.06168585 0.00530947
v -0.00538583 0.06170575 0.00519835
v -0.00553829 0.06170702 0.00505052
v -0.00559467 0.06165071 0.00510757
v -0.00544336 0.06172396 0.00510757
v -0.00574482 0.06157620 0.00510806
v -0.00583916 0.06155757 0.00505151
v -0.00593927 0.06153174 0.00500240
v -0.00605663 0.06140853 0.00511947
v -0.00491007 0.06145257 0.00601687
v -0.00485656 0.06166595 0.00571427
v -0.00480824 0.06171422 0.00566218
v -0.00490777 0.06169432 0.00562646
v -0.00485426 0.06153894 0.00592262
v -0.00485426 0.06158805 0.00584771
v -0.00516492 0.06160668 0.00557884
v -0.00501419 0.06167738 0.00557288
v -0.00522935 0.06170279 0.00534221
v -0.00516952 0.06168501 0.00542803
v -0.00605663 0.06225277 0.00332169
v -0.00604685 0.06226124 0.00331177
v -0.00590417 0.06233152 0.00331177
v -0.00605663 0.06219688 0.00347250
v -0.00585412 0.06231458 0.00342339
v -0.00550837 0.06244329 0.00351814
v -0.00545659 0.06248648 0.00346804
v -0.00590417 0.06227182 0.00347101
v -0.00581443 0.06229511 0.00352310
v -0.00571433 0.06231924 0.00358213
v -0.00529551 0.06256057 0.00345861
v -0.00519138 0.06258682 0.00350227
v -0.00395393 0.06358009 0.00121635
v -0.00373014 0.06365334 0.00114293
v -0.00395163 0.06363217 0.00094897
v -0.00514651 0.06256100 0.00360892
v -0.00504066 0.06258640 0.00365357
v -0.00499579 0.06256015 0.00375824
v -0.00478753 0.06260588 0.00384952
v -0.00500441 0.06248606 0.00391798
v -0.00495494 0.06246362 0.00401521
v -0.00484448 0.06255761 0.00390657
v -0.00464083 0.06245727 0.00430194
v -0.00455454 0.06253009 0.00421711
v -0.00455454 0.06258386 0.00410053
v -0.00446997 0.06259952 0.00413476
v -0.00455454 0.06266642 0.00391698
v -0.00473173 0.06258386 0.00394923
v -0.00485139 0.06248267 0.00406630
v -0.00469088 0.06255295 0.00405341
v -0.00469606 0.06247717 0.00421265
v -0.00386648 0.06259868 0.00458321
v -0.00396313 0.06272993 0.00421909
v -0.00380090 0.06271850 0.00436048
v -0.00430428 0.06259444 0.00427317
v -0.00441359 0.06258005 0.00422108
v -0.00425423 0.06257031 0.00436395
v -0.00425941 0.06249241 0.00452517
v -0.00409315 0.06255930 0.00450533
v -0.00381643 0.06249960 0.00483026
v -0.00395393 0.06258428 0.00455196
v -0.00369562 0.06259233 0.00471914
v -0.00400110 0.06289420 0.00382223
v -0.00378940 0.06292045 0.00391153
v -0.00365420 0.06295941 0.00391698
v -0.00365535 0.06302503 0.00376320
v -0.00306280 0.06333622 0.00332070
v -0.00361048 0.06321132 0.00326762
v -0.00352936 0.06304027 0.00381033
v -0.00348909 0.06306906 0.00376320
v -0.00350405 0.06312114 0.00361686
v -0.00320375 0.06321428 0.00357072
v -0.00268196 0.06335358 0.00354344
v -0.00274064 0.06336925 0.00346357
v -0.00285569 0.06335993 0.00341099
v -0.00295580 0.06334681 0.00337329
v -0.00320375 0.06336332 0.00312376
v -0.00290402 0.06342683 0.00316741
v -0.00305417 0.06343529 0.00301710
v -0.00320375 0.06343360 0.00286729
v -0.00335390 0.06345773 0.00256716
v -0.00350405 0.06344800 0.00241685
v -0.00369505 0.06349330 0.00196691
v -0.00372554 0.06350219 0.00188754
v -0.00344825 0.06350854 0.00221693
v -0.00365420 0.06356824 0.00166679
v -0.00380378 0.06358941 0.00136666
v -0.00035317 0.06297380 0.00496718
v -0.00017943 0.06296787 0.00496718
v -0.00020359 0.06296872 0.00496718
v -0.00050332 0.06303265 0.00484762
v -0.00065347 0.06303350 0.00484961
v -0.00035317 0.06303138 0.00484514
v -0.00080362 0.06303265 0.00484861
v -0.00080362 0.06297592 0.00496718
v -0.00095378 0.06296703 0.00496718
v -0.00095378 0.06291664 0.00507036
v -0.00095378 0.06273035 0.00544738
v -0.00095378 0.06261815 0.00567309
v -0.00095378 0.06258005 0.00574850
v -0.00095378 0.06250977 0.00586755
v -0.00095378 0.06245769 0.00594990
v -0.00095378 0.06241112 0.00601687
v -0.00017943 0.06403227 0.00136666
v -0.00020359 0.06400602 0.00151648
v -0.00017943 0.06401025 0.00149316
v -0.00035317 0.06403015 0.00136666
v -0.00065347 0.06406614 0.00106654
v -0.00050332 0.06405005 0.00121635
v -0.00080362 0.06407546 0.00094897
v -0.00530472 0.06172438 0.00523456
v -0.00523165 0.06185394 0.00504456
v -0.00529091 0.06187087 0.00495577
v -0.00538526 0.06200509 0.00459760
v -0.00553771 0.06185690 0.00475039
v -0.00568901 0.06170745 0.00490169
v -0.00578911 0.06168289 0.00485258
v -0.00589612 0.06165198 0.00480843
v -0.00589554 0.06157662 0.00495825
v -0.00598932 0.06155799 0.00490219
v -0.00605663 0.06148728 0.00496916
v -0.00486347 0.06147119 0.00601687
v -0.00470411 0.06173285 0.00569343
v -0.00464888 0.06186071 0.00550591
v -0.00474898 0.06184081 0.00547020
v -0.00486002 0.06189797 0.00527524
v -0.00481399 0.06186749 0.00536999
v -0.00477947 0.06155291 0.00594246
v -0.00467937 0.06157069 0.00596925
v -0.00471907 0.06161218 0.00588293
v -0.00462587 0.06170152 0.00579066
v -0.00470411 0.06168839 0.00576834
v -0.00507057 0.06169898 0.00548508
v -0.00491409 0.06184632 0.00533030
v -0.00497507 0.06187257 0.00523010
v -0.00507518 0.06185097 0.00518843
v -0.00605663 0.06216132 0.00356328
v -0.00540827 0.06246531 0.00356973
v -0.00567003 0.06229850 0.00368184
v -0.00601751 0.06217106 0.00358709
v -0.00591740 0.06220239 0.00362926
v -0.00597551 0.06215073 0.00368730
v -0.00586620 0.06216979 0.00376717
v -0.00583226 0.06215370 0.00384456
v -0.00365420 0.06359830 0.00151648
v -0.00350405 0.06357628 0.00181660
v -0.00335390 0.06358306 0.00196691
v -0.00354720 0.06364614 0.00140436
v -0.00358919 0.06365546 0.00130465
v -0.00364500 0.06366096 0.00120246
v -0.00350405 0.06370923 0.00106654
v -0.00365420 0.06367959 0.00106654
v -0.00375660 0.06365884 0.00106654
v -0.00386476 0.06364995 0.00097030
v -0.00389985 0.06364487 0.00094897
v -0.00515572 0.06248733 0.00376816
v -0.00530587 0.06248817 0.00361884
v -0.00510624 0.06246446 0.00386837
v -0.00505446 0.06244202 0.00396808
v -0.00521727 0.06229722 0.00413030
v -0.00500441 0.06241874 0.00406630
v -0.00507172 0.06214946 0.00458520
v -0.00496357 0.06231712 0.00432327
v -0.00489914 0.06244033 0.00411541
v -0.00448090 0.06245303 0.00444332
v -0.00454015 0.06246997 0.00435800
v -0.00480766 0.06231416 0.00446664
v -0.00474841 0.06229045 0.00456684
v -0.00470066 0.06233279 0.00451674
v -0.00440438 0.06251612 0.00436693
v -0.00479903 0.06246065 0.00415907
v -0.00490777 0.06229384 0.00442348
v -0.00485656 0.06233914 0.00437089
v -0.00359610 0.06260799 0.00475436
v -0.00365420 0.06274051 0.00441405
v -0.00440438 0.06246700 0.00447160
v -0.00425941 0.06242382 0.00466705
v -0.00421281 0.06246446 0.00461695
v -0.00414378 0.06244033 0.00471715
v -0.00409775 0.06248055 0.00466705
v -0.00395393 0.06247378 0.00478512
v -0.00387454 0.06245091 0.00488929
v -0.00377444 0.06246870 0.00492402
v -0.00364902 0.06256565 0.00480942
v -0.00365420 0.06277354 0.00433914
v -0.00365420 0.06291453 0.00401918
v -0.00355698 0.06289632 0.00412782
v -0.00345688 0.06291114 0.00416105
v -0.00350578 0.06293485 0.00407325
v -0.00348909 0.06301275 0.00390210
v -0.00275444 0.06341709 0.00331723
v -0.00306280 0.06338279 0.00317684
v -0.00311803 0.06335019 0.00323339
v -0.00342926 0.06305297 0.00384208
v -0.00335390 0.06297973 0.00406730
v -0.00320145 0.06302291 0.00405985
v -0.00324977 0.06304578 0.00397354
v -0.00335390 0.06306229 0.00386589
v -0.00320145 0.06307838 0.00392095
v -0.00305532 0.06317660 0.00376171
v -0.00305532 0.06323080 0.00362281
v -0.00320375 0.06318507 0.00364613
v -0.00282463 0.06320201 0.00383960
v -0.00276652 0.06323842 0.00378056
v -0.00260429 0.06340100 0.00346754
v -0.00305417 0.06311606 0.00391698
v -0.00275444 0.06346281 0.00316741
v -0.00289136 0.06347679 0.00300371
v -0.00293221 0.06349457 0.00289953
v -0.00304324 0.06347890 0.00285638
v -0.00313011 0.06350346 0.00264356
v -0.00323539 0.06349118 0.00256716
v -0.00335677 0.06352209 0.00226704
v -0.00020359 0.06302926 0.00483969
v -0.00017943 0.06302842 0.00483869
v -0.00050332 0.06306652 0.00477271
v -0.00065347 0.06306737 0.00477470
v -0.00080362 0.06311521 0.00466705
v -0.00080362 0.06306695 0.00477371
v -0.00035317 0.06306525 0.00476974
v -0.00095378 0.06306356 0.00476527
v -0.00095378 0.06302842 0.00484018
v -0.00110393 0.06302249 0.00482728
v -0.00110393 0.06295475 0.00496718
v -0.00110393 0.06291029 0.00505746
v -0.00120748 0.06290563 0.00504853
v -0.00110393 0.06276084 0.00535908
v -0.00110393 0.06272358 0.00543398
v -0.00121036 0.06275618 0.00534915
v -0.00110393 0.06265711 0.00556743
v -0.00110393 0.06261096 0.00565920
v -0.00110393 0.06257243 0.00573411
v -0.00125350 0.06248902 0.00585019
v -0.00109242 0.06248902 0.00587847
v -0.00103489 0.06245346 0.00594395
v -0.00109357 0.06239672 0.00601687
v -0.00020359 0.06397723 0.00166679
v -0.00017943 0.06398189 0.00164297
v -0.00017943 0.06400602 0.00151648
v -0.00035317 0.06400348 0.00151648
v -0.00050332 0.06402465 0.00136666
v -0.00080362 0.06406064 0.00106654
v -0.00065347 0.06404413 0.00121635
v -0.00095378 0.06406995 0.00094897
v -0.00515457 0.06187172 0.00507879
v -0.00507748 0.06200170 0.00489078
v -0.00530472 0.06208003 0.00451724
v -0.00544279 0.06202245 0.00450682
v -0.00553714 0.06200636 0.00444977
v -0.00515457 0.06202075 0.00477966
v -0.00583974 0.06185775 0.00445175
v -0.00563781 0.06183235 0.00470128
v -0.00589612 0.06172692 0.00465862
v -0.00593984 0.06168289 0.00470277
v -0.00598989 0.06170787 0.00460256
v -0.00605663 0.06165876 0.00463282
v -0.00605663 0.06164605 0.00465812
v -0.00604569 0.06157662 0.00480744
v -0.00605663 0.06156561 0.00481786
v -0.00605663 0.06154021 0.00486747
v -0.00605663 0.06150676 0.00493195
v -0.00472079 0.06152369 0.00601687
v -0.00456719 0.06175656 0.00573163
v -0.00446536 0.06184843 0.00563489
v -0.00440438 0.06197757 0.00545035
v -0.00455454 0.06187722 0.00553419
v -0.00448953 0.06200678 0.00534965
v -0.00470123 0.06188696 0.00541910
v -0.00491870 0.06199831 0.00503415
v -0.00475589 0.06199323 0.00517454
v -0.00470526 0.06196656 0.00526482
v -0.00454591 0.06158382 0.00601687
v -0.00453843 0.06158636 0.00601687
v -0.00442970 0.06168712 0.00591766
v -0.00456719 0.06167315 0.00586755
v -0.00452577 0.06171845 0.00581795
v -0.00441129 0.06181880 0.00571476
v -0.00501650 0.06190644 0.00513039
v -0.00605663 0.06213295 0.00363323
v -0.00557050 0.06232051 0.00373195
v -0.00546350 0.06234803 0.00377610
v -0.00520634 0.06244245 0.00381926
v -0.00605663 0.06207579 0.00376717
v -0.00594099 0.06213380 0.00376717
v -0.00589094 0.06209866 0.00390359
v -0.00578164 0.06213126 0.00394476
v -0.00335390 0.06355342 0.00211673
v -0.00335390 0.06361185 0.00181660
v -0.00350002 0.06363598 0.00151449
v -0.00320375 0.06355977 0.00226704
v -0.00320375 0.06358898 0.00211673
v -0.00335447 0.06363937 0.00166976
v -0.00330442 0.06365842 0.00162164
v -0.00350002 0.06366392 0.00135922
v -0.00350405 0.06368636 0.00121635
v -0.00335390 0.06373844 0.00106654
v -0.00314967 0.06379602 0.00094897
v -0.00338669 0.06374945 0.00094897
v -0.00367606 0.06369144 0.00094897
v -0.00350405 0.06372616 0.00094897
v -0.00379918 0.06366646 0.00094897
v -0.00384232 0.06365757 0.00094897
v -0.00515572 0.06242043 0.00391798
v -0.00537951 0.06215243 0.00429202
v -0.00511717 0.06231882 0.00417742
v -0.00522590 0.06215116 0.00443886
v -0.00515457 0.06207495 0.00466705
v -0.00501477 0.06213168 0.00467548
v -0.00497162 0.06217063 0.00463084
v -0.00465464 0.06216217 0.00491261
v -0.00458963 0.06213803 0.00501282
v -0.00448492 0.06230485 0.00474692
v -0.00470066 0.06226420 0.00466159
v -0.00475474 0.06214311 0.00487243
v -0.00491582 0.06214735 0.00473104
v -0.00481629 0.06216682 0.00477222
v -0.00350405 0.06258809 0.00486002
v -0.00342178 0.06260080 0.00488780
v -0.00357711 0.06275237 0.00444084
v -0.00440438 0.06231924 0.00477668
v -0.00440438 0.06228283 0.00485159
v -0.00448953 0.06215624 0.00505002
v -0.00432039 0.06214946 0.00518644
v -0.00404770 0.06230908 0.00505548
v -0.00381643 0.06243059 0.00497164
v -0.00365248 0.06248648 0.00497164
v -0.00350405 0.06253686 0.00496718
v -0.00351786 0.06273416 0.00452170
v -0.00327911 0.06290309 0.00429251
v -0.00320375 0.06295644 0.00421711
v -0.00336483 0.06264313 0.00482927
v -0.00330155 0.06275914 0.00460703
v -0.00320375 0.06274009 0.00471319
v -0.00260429 0.06345223 0.00331723
v -0.00305417 0.06299582 0.00421711
v -0.00305417 0.06303985 0.00410946
v -0.00314967 0.06305805 0.00400529
v -0.00286663 0.06306102 0.00416105
v -0.00296673 0.06305001 0.00413526
v -0.00291207 0.06308557 0.00407821
v -0.00272453 0.06321259 0.00386440
v -0.00260429 0.06333072 0.00363720
v -0.00245414 0.06342852 0.00346754
v -0.00266872 0.06350177 0.00308606
v -0.00275444 0.06349372 0.00305183
v -0.00290402 0.06353691 0.00271698
v -0.00298571 0.06350431 0.00279933
v -0.00283211 0.06350346 0.00294468
v -0.00289136 0.06351108 0.00285638
v -0.00308581 0.06349287 0.00274327
v -0.00304324 0.06351066 0.00270309
v -0.00305417 0.06353479 0.00256716
v -0.00305417 0.06356400 0.00241685
v -0.00017943 0.06303392 0.00482679
v -0.00017943 0.06306229 0.00476379
v -0.00020359 0.06306271 0.00476478
v -0.00050332 0.06320793 0.00445324
v -0.00065347 0.06331463 0.00421711
v -0.00065347 0.06317576 0.00453063
v -0.00080362 0.06331547 0.00421711
v -0.00080362 0.06320920 0.00445622
v -0.00095378 0.06338322 0.00405985
v -0.00095378 0.06334977 0.00413476
v -0.00095378 0.06320709 0.00445126
v -0.00035317 0.06311055 0.00466705
v -0.00020359 0.06310590 0.00466705
v -0.00110393 0.06330489 0.00421711
v -0.00104582 0.06320412 0.00444530
v -0.00109875 0.06323080 0.00437883
v -0.00110393 0.06305763 0.00475238
v -0.00118965 0.06305382 0.00474444
v -0.00124545 0.06302080 0.00480397
v -0.00125580 0.06293485 0.00497958
v -0.00125580 0.06287219 0.00510608
v -0.00130758 0.06290055 0.00503812
v -0.00125753 0.06272273 0.00540620
v -0.00120805 0.06260588 0.00564878
v -0.00125638 0.06257073 0.00570633
v -0.00140365 0.06254575 0.00571774
v -0.00140365 0.06247886 0.00583432
v -0.00140365 0.06243102 0.00590972
v -0.00125350 0.06244118 0.00592510
v -0.00113499 0.06244795 0.00593552
v -0.00125350 0.06237936 0.00601687
v -0.00020359 0.06395776 0.00176104
v -0.00017943 0.06395776 0.00176154
v -0.00017943 0.06397723 0.00166679
v -0.00035317 0.06397469 0.00166679
v -0.00050332 0.06399713 0.00151648
v -0.00065347 0.06401788 0.00136666
v -0.00110393 0.06406318 0.00094897
v -0.00095378 0.06405344 0.00106654
v -0.00080362 0.06403693 0.00121635
v -0.00497738 0.06202372 0.00493394
v -0.00501822 0.06205632 0.00483125
v -0.00545487 0.06208384 0.00436693
v -0.00574482 0.06202456 0.00420768
v -0.00583916 0.06200720 0.00415113
v -0.00598932 0.06185775 0.00430194
v -0.00605663 0.06172438 0.00450136
v -0.00420533 0.06201102 0.00550691
v -0.00430543 0.06199450 0.00547863
v -0.00425481 0.06204319 0.00542456
v -0.00440438 0.06202118 0.00537495
v -0.00454533 0.06210797 0.00510707
v -0.00454533 0.06202880 0.00526482
v -0.00465636 0.06201313 0.00521273
v -0.00458963 0.06198688 0.00531294
v -0.00404252 0.06215708 0.00535015
v -0.00414263 0.06214015 0.00531989
v -0.00426401 0.06212618 0.00526879
v -0.00422029 0.06216682 0.00521968
v -0.00440438 0.06207876 0.00526730
v -0.00440438 0.06213464 0.00515568
v -0.00486289 0.06204912 0.00497759
v -0.00481859 0.06201864 0.00507433
v -0.00470526 0.06203981 0.00512146
v -0.00452174 0.06159186 0.00601687
v -0.00425423 0.06167866 0.00601687
v -0.00425423 0.06171507 0.00596131
v -0.00387224 0.06185055 0.00593948
v -0.00395393 0.06188569 0.00584374
v -0.00417254 0.06185097 0.00578917
v -0.00438943 0.06173158 0.00586755
v -0.00425423 0.06183785 0.00576784
v -0.00425423 0.06188358 0.00569293
v -0.00410408 0.06202795 0.00553469
v -0.00314104 0.06245684 0.00534915
v -0.00605663 0.06201948 0.00389516
v -0.00598817 0.06200720 0.00400132
v -0.00589554 0.06202499 0.00405737
v -0.00574079 0.06209950 0.00405291
v -0.00559006 0.06209866 0.00420272
v -0.00545487 0.06213591 0.00425481
v -0.00545487 0.06216979 0.00417990
v -0.00305417 0.06359237 0.00226704
v -0.00320375 0.06361693 0.00196691
v -0.00326070 0.06364953 0.00172135
v -0.00335447 0.06366646 0.00151449
v -0.00316060 0.06365927 0.00177692
v -0.00320777 0.06366858 0.00166976
v -0.00320375 0.06369525 0.00151648
v -0.00320375 0.06371939 0.00136666
v -0.00301275 0.06380957 0.00103082
v -0.00311285 0.06379983 0.00097079
v -0.00304669 0.06381592 0.00094897
v -0.00470469 0.06211771 0.00496470
v -0.00454533 0.06217741 0.00496470
v -0.00486117 0.06212618 0.00482034
v -0.00336483 0.06257963 0.00496916
v -0.00324287 0.06259275 0.00502075
v -0.00332168 0.06261519 0.00492055
v -0.00370138 0.06244329 0.00502422
v -0.00360127 0.06246023 0.00505647
v -0.00350405 0.06247632 0.00508772
v -0.00336540 0.06249960 0.00512989
v -0.00310019 0.06289505 0.00442397
v -0.00305187 0.06293104 0.00437139
v -0.00320375 0.06269436 0.00481736
v -0.00312206 0.06275110 0.00473898
v -0.00261292 0.06349033 0.00316642
v -0.00244263 0.06348229 0.00330384
v -0.00300009 0.06290818 0.00445423
v -0.00291207 0.06302969 0.00421364
v -0.00275444 0.06307160 0.00418586
v -0.00275444 0.06312199 0.00406730
v -0.00290402 0.06296576 0.00436693
v -0.00260429 0.06327652 0.00376717
v -0.00245414 0.06337560 0.00359454
v -0.00230399 0.06344842 0.00346754
v -0.00215384 0.06341285 0.00361686
v -0.00170396 0.06341836 0.00376717
v -0.00155381 0.06343953 0.00376717
v -0.00275444 0.06356527 0.00271698
v -0.00275444 0.06353352 0.00286729
v -0.00275444 0.06351023 0.00297692
v -0.00248463 0.06349753 0.00321603
v -0.00256862 0.06350812 0.00311632
v -0.00260429 0.06355596 0.00286729
v -0.00260429 0.06358729 0.00271698
v -0.00290402 0.06356612 0.00256716
v -0.00017943 0.06310505 0.00466705
v -0.00050332 0.06324562 0.00436693
v -0.00065347 0.06335019 0.00413575
v -0.00035317 0.06317322 0.00452418
v -0.00080362 0.06338406 0.00406233
v -0.00095378 0.06344376 0.00391698
v -0.00110393 0.06343783 0.00391698
v -0.00110393 0.06337983 0.00405192
v -0.00110393 0.06334596 0.00412682
v -0.00019899 0.06317703 0.00450384
v -0.00125350 0.06328965 0.00421711
v -0.00125350 0.06315247 0.00451724
v -0.00114535 0.06320031 0.00443638
v -0.00124545 0.06307965 0.00467747
v -0.00128975 0.06304916 0.00473402
v -0.00140365 0.06299582 0.00481736
v -0.00140365 0.06293146 0.00495031
v -0.00140365 0.06289463 0.00502571
v -0.00130988 0.06275067 0.00533874
v -0.00130816 0.06260037 0.00563837
v -0.00125638 0.06263551 0.00557983
v -0.00155381 0.06252332 0.00571774
v -0.00155381 0.06246700 0.00581596
v -0.00140365 0.06259444 0.00562596
v -0.00170396 0.06257327 0.00558628
v -0.00155381 0.06242001 0.00589087
v -0.00155381 0.06233914 0.00601687
v -0.00141459 0.06235946 0.00601687
v -0.00139215 0.06236243 0.00601687
v -0.00020359 0.06384344 0.00226704
v -0.00035317 0.06395606 0.00175558
v -0.00035317 0.06393997 0.00183099
v -0.00035317 0.06390991 0.00196691
v -0.00050332 0.06381380 0.00238957
v -0.00050332 0.06377400 0.00256716
v -0.00050332 0.06370626 0.00286729
v -0.00017943 0.06394082 0.00183644
v -0.00044982 0.06395437 0.00174765
v -0.00065347 0.06398909 0.00151648
v -0.00050102 0.06396580 0.00167671
v -0.00095378 0.06402888 0.00121635
v -0.00080362 0.06400941 0.00136666
v -0.00110393 0.06404497 0.00106654
v -0.00125350 0.06405429 0.00094897
v -0.00593927 0.06198222 0.00410103
v -0.00605663 0.06184081 0.00426672
v -0.00350405 0.06232178 0.00537445
v -0.00359207 0.06230696 0.00535015
v -0.00395393 0.06217190 0.00537545
v -0.00369217 0.06229045 0.00531989
v -0.00409718 0.06218249 0.00526879
v -0.00387281 0.06230061 0.00518843
v -0.00396601 0.06177053 0.00601687
v -0.00382621 0.06181499 0.00601687
v -0.00377214 0.06186664 0.00596379
v -0.00331478 0.06201398 0.00596032
v -0.00350405 0.06198392 0.00591369
v -0.00325667 0.06214608 0.00578223
v -0.00335390 0.06217825 0.00568301
v -0.00335160 0.06225743 0.00555899
v -0.00320375 0.06232432 0.00552725
v -0.00320375 0.06227690 0.00560215
v -0.00309444 0.06229342 0.00562795
v -0.00305417 0.06242170 0.00544391
v -0.00305417 0.06246870 0.00536850
v -0.00305417 0.06252332 0.00526730
v -0.00319627 0.06248225 0.00526879
v -0.00324114 0.06244033 0.00531989
v -0.00605663 0.06198858 0.00396163
v -0.00605663 0.06193735 0.00406928
v -0.00290402 0.06359406 0.00241685
v -0.00305417 0.06361947 0.00211673
v -0.00320777 0.06364191 0.00182305
v -0.00311515 0.06365038 0.00187712
v -0.00305417 0.06369737 0.00166679
v -0.00305417 0.06374733 0.00136666
v -0.00297018 0.06380153 0.00113103
v -0.00290632 0.06384259 0.00094897
v -0.00319742 0.06256354 0.00510757
v -0.00314277 0.06260630 0.00505101
v -0.00319742 0.06262832 0.00496916
v -0.00342293 0.06245049 0.00518843
v -0.00332283 0.06246700 0.00521968
v -0.00215384 0.06346662 0.00346754
v -0.00230399 0.06348906 0.00333558
v -0.00238453 0.06350388 0.00324530
v -0.00302253 0.06276295 0.00476478
v -0.00290402 0.06291791 0.00447507
v -0.00275444 0.06303943 0.00426076
v -0.00265089 0.06304832 0.00428160
v -0.00275444 0.06299285 0.00436693
v -0.00245414 0.06330150 0.00376717
v -0.00230399 0.06318380 0.00409756
v -0.00236324 0.06335062 0.00368631
v -0.00185411 0.06345350 0.00361686
v -0.00170396 0.06333791 0.00395667
v -0.00154460 0.06337687 0.00392343
v -0.00140365 0.06340142 0.00391698
v -0.00125350 0.06342344 0.00391698
v -0.00140365 0.06345816 0.00376717
v -0.00275444 0.06359449 0.00256716
v -0.00260429 0.06361693 0.00256716
v -0.00245414 0.06354326 0.00301710
v -0.00245414 0.06360550 0.00271698
v -0.00017943 0.06317533 0.00450583
v -0.00065347 0.06338279 0.00406085
v -0.00035317 0.06320582 0.00444927
v -0.00080362 0.06344503 0.00391698
v -0.00095378 0.06348864 0.00378354
v -0.00080362 0.06348906 0.00378751
v -0.00111026 0.06348906 0.00375675
v -0.00125350 0.06347509 0.00376717
v -0.00125350 0.06337221 0.00403455
v -0.00125350 0.06333834 0.00410946
v -0.00024674 0.06320412 0.00444481
v -0.00035317 0.06324138 0.00436693
v -0.00017943 0.06318634 0.00448053
v -0.00140365 0.06318549 0.00440363
v -0.00140365 0.06313384 0.00451724
v -0.00140365 0.06307626 0.00464374
v -0.00140365 0.06304197 0.00471864
v -0.00155381 0.06303180 0.00469632
v -0.00155381 0.06297507 0.00481736
v -0.00155381 0.06292130 0.00492947
v -0.00140365 0.06269944 0.00541761
v -0.00189783 0.06274856 0.00518396
v -0.00185181 0.06263382 0.00542803
v -0.00140365 0.06263255 0.00555106
v -0.00185181 0.06256777 0.00555602
v -0.00200426 0.06253813 0.00556743
v -0.00185411 0.06248690 0.00569938
v -0.00170798 0.06249241 0.00572964
v -0.00166139 0.06245811 0.00580157
v -0.00170798 0.06241493 0.00585813
v -0.00170396 0.06261223 0.00551137
v -0.00180061 0.06260545 0.00549847
v -0.00200426 0.06259148 0.00547069
v -0.00170396 0.06233279 0.00599008
v -0.00170396 0.06231543 0.00601687
v -0.00020359 0.06379771 0.00246844
v -0.00017943 0.06379771 0.00246745
v -0.00017943 0.06387731 0.00211673
v -0.00035317 0.06374098 0.00271698
v -0.00050332 0.06387308 0.00211673
v -0.00065347 0.06377062 0.00256716
v -0.00073804 0.06365334 0.00309350
v -0.00065347 0.06367154 0.00301710
v -0.00065347 0.06363683 0.00317039
v -0.00050332 0.06365419 0.00309697
v -0.00050332 0.06390525 0.00196691
v -0.00065347 0.06396368 0.00164347
v -0.00065347 0.06394844 0.00171838
v -0.00050102 0.06393955 0.00180569
v -0.00080362 0.06369991 0.00286729
v -0.00080362 0.06398019 0.00151648
v -0.00095378 0.06400052 0.00136666
v -0.00110393 0.06401957 0.00121635
v -0.00125350 0.06403566 0.00106654
v -0.00140365 0.06404328 0.00094897
v -0.00365420 0.06186960 0.00601687
v -0.00349945 0.06191872 0.00601687
v -0.00336023 0.06196487 0.00601340
v -0.00320375 0.06201017 0.00601687
v -0.00320375 0.06203049 0.00598562
v -0.00320547 0.06211094 0.00586061
v -0.00315657 0.06216089 0.00580554
v -0.00305475 0.06205251 0.00601687
v -0.00305417 0.06212660 0.00590277
v -0.00304842 0.06225531 0.00570633
v -0.00299492 0.06230654 0.00564878
v -0.00304842 0.06234041 0.00557388
v -0.00290402 0.06243991 0.00547218
v -0.00290402 0.06248563 0.00539727
v -0.00305417 0.06258217 0.00514824
v -0.00289136 0.06256438 0.00525341
v -0.00293221 0.06259487 0.00517503
v -0.00290402 0.06362074 0.00226704
v -0.00306050 0.06366943 0.00182305
v -0.00296673 0.06365080 0.00202892
v -0.00281773 0.06365122 0.00218022
v -0.00276537 0.06382185 0.00122776
v -0.00275444 0.06385106 0.00106654
v -0.00291380 0.06382100 0.00107497
v -0.00278723 0.06386461 0.00094897
v -0.00305417 0.06261646 0.00507284
v -0.00305417 0.06266430 0.00496718
v -0.00170396 0.06347171 0.00361686
v -0.00200311 0.06348610 0.00345762
v -0.00215384 0.06351447 0.00328846
v -0.00185411 0.06349118 0.00349334
v -0.00195191 0.06350515 0.00340107
v -0.00215384 0.06354283 0.00316741
v -0.00230399 0.06352886 0.00316741
v -0.00230399 0.06356104 0.00301710
v -0.00290402 0.06277481 0.00479057
v -0.00278206 0.06289463 0.00457428
v -0.00274121 0.06292596 0.00452120
v -0.00245644 0.06317576 0.00405886
v -0.00260199 0.06302334 0.00435700
v -0.00245414 0.06303180 0.00439371
v -0.00230399 0.06304408 0.00442249
v -0.00221827 0.06305128 0.00443836
v -0.00245414 0.06306441 0.00431881
v -0.00260429 0.06295136 0.00451724
v -0.00230399 0.06307668 0.00434708
v -0.00215384 0.06319566 0.00412484
v -0.00170396 0.06329049 0.00406730
v -0.00154460 0.06332056 0.00405440
v -0.00140365 0.06336120 0.00401025
v -0.00266470 0.06365122 0.00233004
v -0.00275444 0.06362116 0.00241685
v -0.00230399 0.06364572 0.00260288
v -0.00244666 0.06363767 0.00255675
v -0.00249211 0.06364868 0.00246844
v -0.00245414 0.06369060 0.00226704
v -0.00230802 0.06379179 0.00181412
v -0.00236037 0.06380068 0.00172880
v -0.00230399 0.06359195 0.00286729
v -0.00230399 0.06362285 0.00271698
v -0.00050332 0.06331082 0.00421711
v -0.00050332 0.06334808 0.00413079
v -0.00050332 0.06337983 0.00405539
v -0.00065347 0.06344249 0.00391698
v -0.00095378 0.06350727 0.00370863
v -0.00106481 0.06350515 0.00370020
v -0.00080362 0.06350812 0.00371260
v -0.00065347 0.06348737 0.00378304
v -0.00065347 0.06350727 0.00370814
v -0.00065347 0.06353056 0.00361686
v -0.00116433 0.06350219 0.00368829
v -0.00125350 0.06349923 0.00367440
v -0.00140365 0.06349287 0.00364861
v -0.00156071 0.06348864 0.00360942
v -0.00155381 0.06320878 0.00430492
v -0.00155381 0.06317533 0.00437982
v -0.00140365 0.06321936 0.00432873
v -0.00163032 0.06320328 0.00429251
v -0.00017943 0.06323800 0.00435948
v -0.00019899 0.06322953 0.00438131
v -0.00155381 0.06311352 0.00451724
v -0.00155381 0.06306610 0.00462141
v -0.00166771 0.06305848 0.00460405
v -0.00171201 0.06302630 0.00465961
v -0.00170396 0.06295390 0.00481736
v -0.00170396 0.06291072 0.00490814
v -0.00200426 0.06277777 0.00509368
v -0.00237935 0.06260291 0.00534271
v -0.00200426 0.06262916 0.00539529
v -0.00215384 0.06258047 0.00544936
v -0.00230399 0.06256904 0.00542853
v -0.00215384 0.06251442 0.00556743
v -0.00229478 0.06248648 0.00557586
v -0.00245414 0.06248140 0.00553965
v -0.00200426 0.06247463 0.00567805
v -0.00176091 0.06244965 0.00578768
v -0.00185411 0.06232009 0.00597024
v -0.00185411 0.06229087 0.00601687
v -0.00035317 0.06370669 0.00286729
v -0.00035317 0.06365419 0.00309697
v -0.00017943 0.06371050 0.00284348
v -0.00025940 0.06365376 0.00309449
v -0.00083814 0.06365164 0.00308556
v -0.00079442 0.06366562 0.00302851
v -0.00065347 0.06360338 0.00331723
v -0.00080362 0.06360126 0.00331723
v -0.00080362 0.06356697 0.00346754
v -0.00080362 0.06395902 0.00162115
v -0.00065347 0.06392812 0.00181660
v -0.00080362 0.06394378 0.00169606
v -0.00080362 0.06388790 0.00196691
v -0.00089164 0.06380407 0.00234542
v -0.00110393 0.06368298 0.00286729
v -0.00080362 0.06376300 0.00256716
v -0.00080362 0.06373166 0.00271698
v -0.00095378 0.06364868 0.00307167
v -0.00095378 0.06362836 0.00316741
v -0.00110393 0.06399120 0.00136666
v -0.00096068 0.06396792 0.00152888
v -0.00091523 0.06395564 0.00160378
v -0.00125350 0.06401025 0.00121635
v -0.00140365 0.06402423 0.00106654
v -0.00155381 0.06403058 0.00094897
v -0.00339187 0.06195259 0.00601687
v -0.00336023 0.06196233 0.00601687
v -0.00289481 0.06209400 0.00601687
v -0.00290402 0.06226928 0.00574056
v -0.00290402 0.06231712 0.00566565
v -0.00283613 0.06215412 0.00594544
v -0.00275444 0.06216343 0.00596032
v -0.00275444 0.06228579 0.00576635
v -0.00275444 0.06233279 0.00569145
v -0.00281140 0.06244922 0.00548706
v -0.00271130 0.06245896 0.00550294
v -0.00275847 0.06249368 0.00542902
v -0.00260429 0.06252755 0.00541761
v -0.00275444 0.06257455 0.00528318
v -0.00283268 0.06260334 0.00519339
v -0.00275444 0.06265160 0.00511749
v -0.00280737 0.06274898 0.00488433
v -0.00274121 0.06286584 0.00465316
v -0.00276192 0.06364445 0.00227497
v -0.00271762 0.06365969 0.00222983
v -0.00267333 0.06380237 0.00143611
v -0.00260429 0.06389594 0.00094897
v -0.00263708 0.06389044 0.00094897
v -0.00275444 0.06387054 0.00094897
v -0.00185411 0.06350939 0.00341892
v -0.00170396 0.06349795 0.00352112
v -0.00215384 0.06357586 0.00301710
v -0.00185411 0.06353310 0.00331723
v -0.00200426 0.06355511 0.00316741
v -0.00220274 0.06365122 0.00263116
v -0.00230399 0.06300132 0.00451724
v -0.00229708 0.06292977 0.00467499
v -0.00215384 0.06295559 0.00466705
v -0.00176782 0.06305128 0.00458867
v -0.00211817 0.06305890 0.00445523
v -0.00260429 0.06281418 0.00481736
v -0.00245414 0.06292257 0.00463530
v -0.00246334 0.06382015 0.00152640
v -0.00260429 0.06372277 0.00196691
v -0.00260429 0.06377400 0.00166679
v -0.00241905 0.06380957 0.00162859
v -0.00215384 0.06375410 0.00211673
v -0.00177414 0.06395267 0.00128927
v -0.00244666 0.06366350 0.00241784
v -0.00230399 0.06373632 0.00211673
v -0.00185411 0.06394802 0.00126348
v -0.00215384 0.06389255 0.00136666
v -0.00215384 0.06391965 0.00121635
v -0.00230399 0.06387181 0.00136666
v -0.00035317 0.06337687 0.00404844
v -0.00020359 0.06329939 0.00421711
v -0.00050332 0.06343699 0.00391698
v -0.00095378 0.06352844 0.00361686
v -0.00080362 0.06353183 0.00361686
v -0.00095378 0.06356231 0.00346754
v -0.00111026 0.06351828 0.00362976
v -0.00065347 0.06356781 0.00346754
v -0.00050332 0.06348483 0.00377412
v -0.00041645 0.06350346 0.00369375
v -0.00050332 0.06352632 0.00361686
v -0.00035317 0.06359915 0.00331723
v -0.00050332 0.06356485 0.00346754
v -0.00110393 0.06355427 0.00346754
v -0.00125350 0.06361058 0.00316741
v -0.00151526 0.06350600 0.00355435
v -0.00155381 0.06358941 0.00316741
v -0.00170396 0.06357840 0.00316741
v -0.00170396 0.06354495 0.00331723
v -0.00161536 0.06350177 0.00353699
v -0.00171201 0.06308557 0.00453013
v -0.00185411 0.06307838 0.00449938
v -0.00017943 0.06329812 0.00421711
v -0.00184548 0.06292934 0.00482480
v -0.00178910 0.06290436 0.00489574
v -0.00215384 0.06276676 0.00507135
v -0.00247945 0.06259571 0.00532782
v -0.00260429 0.06246870 0.00551832
v -0.00223841 0.06245430 0.00564531
v -0.00200426 0.06242848 0.00575346
v -0.00201347 0.06226801 0.00600993
v -0.00201289 0.06226378 0.00601687
v -0.00017943 0.06366773 0.00302554
v -0.00017943 0.06363937 0.00314063
v -0.00017943 0.06364572 0.00311582
v -0.00095378 0.06390949 0.00181660
v -0.00095378 0.06387858 0.00196691
v -0.00126789 0.06366943 0.00288168
v -0.00122762 0.06365630 0.00295757
v -0.00110393 0.06364445 0.00305084
v -0.00110393 0.06361947 0.00316741
v -0.00125350 0.06398104 0.00136666
v -0.00110393 0.06394929 0.00157253
v -0.00101533 0.06395225 0.00158741
v -0.00140365 0.06399882 0.00121635
v -0.00140883 0.06396749 0.00137807
v -0.00155381 0.06401153 0.00106654
v -0.00170396 0.06401703 0.00094897
v -0.00275444 0.06212745 0.00601687
v -0.00260429 0.06215878 0.00601687
v -0.00260429 0.06217868 0.00598512
v -0.00264629 0.06229680 0.00578322
v -0.00248118 0.06218164 0.00601687
v -0.00260429 0.06258640 0.00530848
v -0.00260429 0.06262196 0.00523357
v -0.00260429 0.06267616 0.00511749
v -0.00275444 0.06260969 0.00520777
v -0.00245414 0.06288828 0.00471021
v -0.00245414 0.06387435 0.00121635
v -0.00248693 0.06391457 0.00094897
v -0.00260429 0.06387604 0.00106654
v -0.00215384 0.06360677 0.00286729
v -0.00185411 0.06356697 0.00316741
v -0.00200426 0.06358729 0.00301710
v -0.00210264 0.06365503 0.00265100
v -0.00178277 0.06380364 0.00204331
v -0.00170396 0.06385572 0.00181660
v -0.00170396 0.06388578 0.00166679
v -0.00170396 0.06391542 0.00151648
v -0.00171604 0.06394378 0.00136468
v -0.00234253 0.06289717 0.00473005
v -0.00245414 0.06274390 0.00502274
v -0.00236497 0.06275067 0.00503762
v -0.00200426 0.06288828 0.00486102
v -0.00230399 0.06392346 0.00106654
v -0.00221654 0.06395140 0.00098022
v -0.00214176 0.06378586 0.00195352
v -0.00167404 0.06395733 0.00131358
v -0.00155381 0.06398570 0.00121635
v -0.00171604 0.06396834 0.00123024
v -0.00170396 0.06399798 0.00106654
v -0.00185411 0.06398231 0.00106654
v -0.00185411 0.06396157 0.00118807
v -0.00195133 0.06395564 0.00115632
v -0.00205143 0.06394971 0.00112210
v -0.00211644 0.06395818 0.00102189
v -0.00216132 0.06394378 0.00106951
v -0.00017943 0.06334130 0.00411393
v -0.00020359 0.06337305 0.00404051
v -0.00035317 0.06342979 0.00391698
v -0.00036122 0.06348483 0.00375278
v -0.00031635 0.06350177 0.00368681
v -0.00017943 0.06356062 0.00344373
v -0.00020359 0.06359449 0.00331723
v -0.00126789 0.06364233 0.00301165
v -0.00140365 0.06363175 0.00301710
v -0.00155381 0.06362116 0.00301710
v -0.00170396 0.06361015 0.00301710
v -0.00226487 0.06275829 0.00505399
v -0.00245414 0.06226759 0.00588591
v -0.00245414 0.06237174 0.00571774
v -0.00215384 0.06223922 0.00601687
v -0.00017943 0.06359364 0.00331723
v -0.00110393 0.06389933 0.00181660
v -0.00125350 0.06373505 0.00256716
v -0.00132714 0.06365292 0.00294170
v -0.00140365 0.06365038 0.00292831
v -0.00136223 0.06395564 0.00145347
v -0.00125350 0.06394421 0.00154723
v -0.00155381 0.06396284 0.00134086
v -0.00146233 0.06395183 0.00143562
v -0.00185411 0.06400179 0.00094897
v -0.00229363 0.06221466 0.00601687
v -0.00245414 0.06277862 0.00494783
v -0.00227120 0.06394844 0.00094897
v -0.00200426 0.06361820 0.00286729
v -0.00185411 0.06362963 0.00286729
v -0.00170396 0.06370245 0.00256716
v -0.00170396 0.06380661 0.00205819
v -0.00170396 0.06382523 0.00196691
v -0.00218605 0.06396030 0.00094897
v -0.00200253 0.06396453 0.00106951
v -0.00203878 0.06397935 0.00094897
v -0.00215039 0.06396495 0.00094897
v -0.00017943 0.06337221 0.00403902
v -0.00020359 0.06342048 0.00391698
v -0.00017943 0.06342725 0.00389317
v -0.00017943 0.06347043 0.00376717
v -0.00017943 0.06347551 0.00375080
v -0.00020359 0.06349923 0.00367788
v -0.00017943 0.06352420 0.00358114
v -0.00140365 0.06372447 0.00256716
v -0.00134497 0.06380449 0.00219759
v -0.00140365 0.06390907 0.00166679
v -0.00188575 0.06399798 0.00094897
v -0.00155381 0.06379687 0.00216038
v -0.00017943 0.06341878 0.00391698
v -0.00017943 0.06349838 0.00367540
v -0.00017943 0.06350177 0.00366399
f 1 2 5
f 1 5 9
f 1 9 14
f 1 14 23
f 1 23 36
f 1 36 35
f 1 35 52
f 1 52 71
f 1 71 93
f 1 93 122
f 1 122 156
f 1 156 192
f 1 192 193
f 1 193 239
f 1 239 295
f 1 295 294
f 1 294 371
f 1 371 457
f 1 457 568
f 1 568 708
f 1 708 707
f 1 707 706
f 1 706 704
f 1 704 703
f 1 703 847
f 1 847 974
f 1 974 998
f 1 998 997
f 1 997 876
f 1 876 730
f 1 730 726
f 1 726 584
f 1 584 471
f 1 471 468
f 1 468 380
f 1 380 308
f 1 308 307
f 1 307 255
f 1 255 306
f 1 306 305
f 1 305 304
f 1 304 248
f 1 248 200
f 1 200 160
f 1 160 125
f 1 125 96
f 1 96 76
f 1 76 59
f 1 59 57
f 1 57 54
f 1 54 41
f 1 41 27
f 1 27 26
f 1 26 25
f 1 25 19
f 1 19 16
f 1 16 10
f 1 10 6
f 1 6 3
f 1 3 7
f 1 7 12
f 1 12 20
f 1 20 32
f 1 32 47
f 1 47 65
f 1 65 67
f 1 67 66
f 1 66 84
f 1 84 117
f 1 117 116
f 1 116 145
f 1 145 144
f 1 144 174
f 1 174 173
f 1 173 218
f 1 218 263
f 1 263 264
f 1 264 320
f 1 320 390
f 1 390 482
f 1 482 602
f 1 602 749
f 1 749 748
f 1 748 746
f 1 746 747
f 1 747 745
f 1 745 744
f 1 744 893
f 1 893 1006
f 1 1006 1112
f 1 1112 1234
f 1 1234 1233
f 1 1233 1232
f 1 1232 1319
f 1 1319 1374
f 1 1374 1380
f 1 1380 1383
f 1 1383 1382
f 1 1382 1394
f 1 1394 1371
f 1 1371 1307
f 1 1307 1210
f 1 1210 1087
f 1 1087 972
f 1 972 838
f 1 838 691
f 1 691 557
f 1 557 448
f 1 448 364
f 1 364 290
f 1 290 237
f 1 237 191
f 1 191 155
f 1 155 120
f 1 120 89
f 1 89 70
f 1 70 69
f 1 69 51
f 1 51 49
f 1 49 33
f 1 33 21
f 1 21 13
f 1 13 8
f 1 8 4
f 1 4 2
f 2 4 5
f 3 6 7
f 4 8 5
f 5 8 9
f 6 10 11
f 6 11 7
f 7 11 12
f 8 13 9
f 9 13 15
f 9 15 14
f 10 16 11
f 11 17 18
f 11 18 12
f 11 16 19
f 11 19 17
f 12 18 20
f 13 21 15
f 14 22 23
f 14 15 22
f 15 21 24
f 15 24 22
f 17 19 25
f 17 25 26
f 17 26 27
f 17 27 28
f 17 28 29
f 17 29 30
f 17 30 31
f 17 31 18
f 18 31 20
f 20 31 32
f 21 33 24
f 22 34 50
f 22 50 68
f 22 68 88
f 22 88 119
f 22 119 154
f 22 154 190
f 22 190 235
f 22 235 287
f 22 287 360
f 22 360 443
f 22 443 550
f 22 550 683
f 22 683 831
f 22 831 957
f 22 957 956
f 22 956 955
f 22 955 1067
f 22 1067 1185
f 22 1185 1291
f 22 1291 1361
f 22 1361 1372
f 22 1372 1312
f 22 1312 1309
f 22 1309 1308
f 22 1308 1213
f 22 1213 1095
f 22 1095 1091
f 22 1091 1212
f 22 1212 1211
f 22 1211 1089
f 22 1089 1088
f 22 1088 982
f 22 982 981
f 22 981 866
f 22 866 865
f 22 865 720
f 22 720 719
f 22 719 709
f 22 709 569
f 22 569 458
f 22 458 373
f 22 373 296
f 22 296 241
f 22 241 195
f 22 195 158
f 22 158 124
f 22 124 94
f 22 94 72
f 22 72 52
f 22 52 35
f 22 35 36
f 22 36 23
f 22 24 33
f 22 33 37
f 22 37 38
f 22 38 39
f 22 39 40
f 22 40 34
f 27 41 42
f 27 42 29
f 27 29 28
f 29 42 30
f 30 42 43
f 30 43 44
f 30 44 45
f 30 45 46
f 30 46 31
f 31 47 32
f 31 46 48
f 31 48 47
f 33 49 38
f 33 38 37
f 34 40 51
f 34 51 50
f 38 49 40
f 38 40 39
f 40 49 53
f 40 53 51
f 41 54 55
f 41 55 42
f 42 55 54
f 42 54 43
f 43 56 44
f 43 54 57
f 43 57 58
f 43 58 59
f 43 59 60
f 43 60 56
f 44 56 61
f 44 61 45
f 45 61 62
f 45 62 46
f 46 62 63
f 46 63 64
f 46 64 48
f 47 48 65
f 48 64 66
f 48 66 67
f 48 67 65
f 49 51 53
f 50 51 69
f 50 69 70
f 50 70 68
f 52 72 71
f 56 73 74
f 56 74 75
f 56 75 61
f 56 60 76
f 56 76 73
f 57 59 58
f 59 76 60
f 61 77 62
f 61 75 77
f 62 78 63
f 62 77 79
f 62 79 80
f 62 80 81
f 62 81 82
f 62 82 78
f 63 78 83
f 63 83 64
f 64 83 84
f 64 84 66
f 68 70 85
f 68 85 86
f 68 86 87
f 68 87 88
f 70 89 90
f 70 90 91
f 70 91 85
f 71 92 93
f 71 72 92
f 72 94 95
f 72 95 92
f 73 76 96
f 73 96 97
f 73 97 98
f 73 98 74
f 74 98 75
f 75 98 97
f 75 97 99
f 75 99 77
f 77 99 100
f 77 100 101
f 77 101 79
f 78 82 102
f 78 102 103
f 78 103 104
f 78 104 83
f 79 101 105
f 79 105 106
f 79 106 81
f 79 81 80
f 81 107 108
f 81 108 109
f 81 109 110
f 81 110 111
f 81 111 112
f 81 112 113
f 81 113 82
f 81 106 105
f 81 105 107
f 82 113 114
f 82 114 102
f 83 104 115
f 83 115 116
f 83 116 117
f 83 117 84
f 85 91 118
f 85 118 121
f 85 121 155
f 85 155 191
f 85 191 236
f 85 236 288
f 85 288 361
f 85 361 444
f 85 444 551
f 85 551 553
f 85 553 686
f 85 686 685
f 85 685 834
f 85 834 833
f 85 833 965
f 85 965 1070
f 85 1070 1069
f 85 1069 1188
f 85 1188 1292
f 85 1292 1294
f 85 1294 1293
f 85 1293 1362
f 85 1362 1352
f 85 1352 1390
f 85 1390 1398
f 85 1398 1397
f 85 1397 1388
f 85 1388 1387
f 85 1387 1386
f 85 1386 1396
f 85 1396 1384
f 85 1384 1347
f 85 1347 1282
f 85 1282 1166
f 85 1166 1045
f 85 1045 1033
f 85 1033 929
f 85 929 802
f 85 802 801
f 85 801 662
f 85 662 536
f 85 536 440
f 85 440 357
f 85 357 348
f 85 348 278
f 85 278 230
f 85 230 187
f 85 187 153
f 85 153 119
f 85 119 88
f 85 88 87
f 85 87 86
f 89 120 90
f 90 120 121
f 90 121 118
f 90 118 91
f 92 95 93
f 93 95 94
f 93 94 123
f 93 123 122
f 94 124 123
f 96 125 126
f 96 126 127
f 96 127 128
f 96 128 97
f 97 129 130
f 97 130 99
f 97 128 131
f 97 131 132
f 97 132 133
f 97 133 134
f 97 134 129
f 99 130 135
f 99 135 136
f 99 136 101
f 99 101 100
f 101 136 137
f 101 137 105
f 102 138 104
f 102 104 139
f 102 139 103
f 102 114 140
f 102 140 141
f 102 141 142
f 102 142 138
f 103 139 104
f 104 138 143
f 104 143 144
f 104 144 145
f 104 145 115
f 105 137 108
f 105 108 107
f 108 137 146
f 108 146 109
f 109 146 147
f 109 147 148
f 109 148 110
f 110 149 150
f 110 150 111
f 110 148 149
f 111 150 112
f 112 114 113
f 112 150 151
f 112 151 152
f 112 152 114
f 114 152 140
f 115 145 116
f 119 153 154
f 120 155 121
f 122 123 157
f 122 157 156
f 123 124 157
f 124 158 159
f 124 159 157
f 125 160 126
f 126 161 162
f 126 162 128
f 126 128 127
f 126 160 161
f 128 162 131
f 129 134 163
f 129 163 130
f 130 163 164
f 130 164 165
f 130 165 135
f 131 162 132
f 132 162 161
f 132 161 166
f 132 166 133
f 133 166 167
f 133 167 168
f 133 168 163
f 133 163 134
f 135 165 169
f 135 169 211
f 135 211 170
f 135 170 171
f 135 171 137
f 135 137 136
f 137 171 146
f 138 142 143
f 140 152 141
f 141 152 142
f 142 152 172
f 142 172 173
f 142 173 143
f 143 173 174
f 143 174 144
f 146 171 175
f 146 175 147
f 147 175 176
f 147 176 148
f 148 176 177
f 148 177 178
f 148 178 179
f 148 179 180
f 148 180 149
f 149 180 179
f 149 179 181
f 149 181 182
f 149 182 183
f 149 183 150
f 150 183 182
f 150 182 184
f 150 184 185
f 150 185 186
f 150 186 151
f 151 186 152
f 152 186 172
f 153 187 188
f 153 188 189
f 153 189 154
f 154 189 190
f 156 157 192
f 157 159 193
f 157 193 194
f 157 194 192
f 158 195 196
f 158 196 197
f 158 197 159
f 159 197 198
f 159 198 199
f 159 199 193
f 160 200 161
f 161 200 201
f 161 201 166
f 163 168 164
f 164 202 203
f 164 203 165
f 164 168 202
f 165 203 169
f 166 204 167
f 166 201 205
f 166 205 206
f 166 206 207
f 166 207 208
f 166 208 209
f 166 209 204
f 167 204 209
f 167 209 168
f 168 209 202
f 169 210 211
f 169 203 212
f 169 212 213
f 169 213 214
f 169 214 210
f 170 211 175
f 170 175 171
f 172 215 216
f 172 216 217
f 172 217 218
f 172 218 173
f 172 186 215
f 175 211 176
f 176 214 219
f 176 219 220
f 176 220 221
f 176 221 222
f 176 222 223
f 176 223 177
f 176 211 210
f 176 210 214
f 177 223 178
f 178 223 179
f 179 224 228
f 179 228 182
f 179 182 181
f 179 223 225
f 179 225 226
f 179 226 227
f 179 227 224
f 182 228 229
f 182 229 215
f 182 215 185
f 182 185 184
f 185 215 186
f 187 230 231
f 187 231 188
f 188 231 232
f 188 232 233
f 188 233 189
f 189 233 234
f 189 234 190
f 190 234 235
f 191 237 236
f 192 194 193
f 193 238 239
f 193 199 238
f 195 240 196
f 195 241 242
f 195 242 240
f 196 240 197
f 197 240 243
f 197 243 244
f 197 244 245
f 197 245 199
f 197 199 198
f 199 245 246
f 199 246 247
f 199 247 238
f 200 248 205
f 200 205 201
f 202 209 249
f 202 249 250
f 202 250 251
f 202 251 212
f 202 212 203
f 205 252 206
f 205 248 253
f 205 253 254
f 205 254 252
f 206 252 255
f 206 255 256
f 206 256 257
f 206 257 258
f 206 258 207
f 207 258 259
f 207 259 208
f 208 260 209
f 208 259 260
f 209 260 249
f 212 251 213
f 213 250 219
f 213 219 214
f 213 251 250
f 215 229 216
f 216 229 261
f 216 261 262
f 216 262 217
f 217 263 218
f 217 262 264
f 217 264 263
f 219 250 220
f 220 265 221
f 220 250 249
f 220 249 260
f 220 260 266
f 220 266 267
f 220 267 268
f 220 268 269
f 220 269 265
f 221 270 222
f 221 265 270
f 222 271 272
f 222 272 273
f 222 273 274
f 222 274 223
f 222 270 271
f 223 274 225
f 224 227 226
f 224 226 275
f 224 275 228
f 225 274 275
f 225 275 226
f 228 275 229
f 229 275 276
f 229 276 277
f 229 277 261
f 230 278 279
f 230 279 232
f 230 232 231
f 232 280 281
f 232 281 282
f 232 282 283
f 232 283 233
f 232 279 284
f 232 284 280
f 233 283 285
f 233 285 234
f 234 285 286
f 234 286 235
f 235 286 287
f 236 237 289
f 236 289 288
f 237 290 289
f 238 291 292
f 238 292 293
f 238 293 294
f 238 294 295
f 238 295 239
f 238 247 291
f 240 242 243
f 241 296 297
f 241 297 242
f 242 297 298
f 242 298 243
f 243 298 244
f 244 298 299
f 244 299 300
f 244 300 301
f 244 301 245
f 245 301 246
f 246 301 302
f 246 302 247
f 247 302 303
f 247 303 291
f 248 304 253
f 252 254 305
f 252 305 306
f 252 306 255
f 253 304 305
f 253 305 254
f 255 307 256
f 256 307 308
f 256 308 309
f 256 309 257
f 257 309 310
f 257 310 311
f 257 311 258
f 258 312 259
f 258 311 312
f 259 312 313
f 259 313 314
f 259 314 260
f 260 314 315
f 260 315 316
f 260 316 266
f 261 277 317
f 261 317 318
f 261 318 319
f 261 319 262
f 262 319 264
f 264 319 320
f 265 269 268
f 265 268 321
f 265 321 270
f 266 316 267
f 267 316 315
f 267 315 322
f 267 322 323
f 267 323 268
f 268 323 321
f 270 321 324
f 270 324 325
f 270 325 326
f 270 326 327
f 270 327 328
f 270 328 329
f 270 329 271
f 271 330 272
f 271 329 330
f 272 331 332
f 272 332 333
f 272 333 334
f 272 334 335
f 272 335 273
f 272 330 331
f 273 335 336
f 273 336 337
f 273 337 274
f 274 337 338
f 274 338 339
f 274 339 340
f 274 340 341
f 274 341 275
f 275 341 276
f 276 342 277
f 276 341 343
f 276 343 344
f 276 344 342
f 277 342 345
f 277 345 346
f 277 346 347
f 277 347 317
f 278 348 279
f 279 348 284
f 280 349 281
f 280 284 350
f 280 350 349
f 281 351 352
f 281 352 353
f 281 353 282
f 281 349 433
f 281 433 351
f 282 353 354
f 282 354 283
f 283 354 355
f 283 355 356
f 283 356 285
f 284 348 357
f 284 357 350
f 285 356 358
f 285 358 286
f 286 358 359
f 286 359 287
f 287 359 360
f 288 289 362
f 288 362 361
f 289 290 363
f 289 363 362
f 290 364 363
f 291 303 292
f 292 303 302
f 292 302 365
f 292 365 366
f 292 366 367
f 292 367 368
f 292 368 369
f 292 369 370
f 292 370 371
f 292 371 372
f 292 372 294
f 292 294 293
f 294 372 371
f 296 373 297
f 297 373 374
f 297 374 375
f 297 375 298
f 298 376 300
f 298 300 299
f 298 375 377
f 298 377 376
f 300 378 302
f 300 302 301
f 300 376 378
f 302 378 379
f 302 379 365
f 308 380 309
f 309 380 381
f 309 381 310
f 310 312 311
f 310 381 312
f 312 382 383
f 312 383 384
f 312 384 385
f 312 385 313
f 312 381 382
f 313 385 384
f 313 384 386
f 313 386 387
f 313 387 314
f 314 387 315
f 315 387 322
f 317 347 318
f 318 347 388
f 318 388 389
f 318 389 319
f 319 389 320
f 320 389 390
f 321 323 322
f 321 322 386
f 321 386 324
f 322 387 386
f 324 386 391
f 324 391 392
f 324 392 393
f 324 393 394
f 324 394 325
f 325 394 393
f 325 393 326
f 326 393 395
f 326 395 327
f 327 396 328
f 327 395 397
f 327 397 396
f 328 396 398
f 328 398 399
f 328 399 329
f 329 399 400
f 329 400 330
f 330 401 402
f 330 402 331
f 330 400 403
f 330 403 404
f 330 404 405
f 330 405 406
f 330 406 407
f 330 407 401
f 331 402 401
f 331 401 408
f 331 408 409
f 331 409 410
f 331 410 332
f 332 410 411
f 332 411 333
f 333 412 413
f 333 413 334
f 333 411 414
f 333 414 415
f 333 415 416
f 333 416 417
f 333 417 418
f 333 418 419
f 333 419 412
f 334 413 335
f 335 413 420
f 335 420 336
f 336 420 337
f 337 420 421
f 337 421 422
f 337 422 423
f 337 423 424
f 337 424 425
f 337 425 338
f 338 425 426
f 338 426 339
f 339 341 340
f 339 426 343
f 339 343 341
f 342 344 345
f 343 426 427
f 343 427 428
f 343 428 344
f 344 428 429
f 344 429 345
f 345 429 346
f 346 429 531
f 346 531 430
f 346 430 347
f 347 430 431
f 347 431 432
f 347 432 388
f 349 350 434
f 349 434 433
f 350 357 434
f 351 435 436
f 351 436 352
f 351 433 435
f 352 436 437
f 352 437 353
f 353 437 354
f 354 437 355
f 355 437 438
f 355 438 439
f 355 439 356
f 356 439 358
f 357 440 434
f 358 439 441
f 358 441 359
f 359 441 442
f 359 442 360
f 360 442 443
f 361 362 444
f 362 445 444
f 362 363 446
f 362 446 445
f 363 364 448
f 363 448 447
f 363 447 446
f 365 379 449
f 365 449 366
f 366 449 450
f 366 450 367
f 367 451 452
f 367 452 368
f 367 450 453
f 367 453 451
f 368 452 454
f 368 454 369
f 369 454 455
f 369 455 456
f 369 456 370
f 370 456 457
f 370 457 371
f 373 458 375
f 373 375 374
f 375 459 460
f 375 460 461
f 375 461 377
f 375 458 462
f 375 462 463
f 375 463 459
f 376 377 464
f 376 464 378
f 377 461 465
f 377 465 464
f 378 464 379
f 379 466 449
f 379 464 467
f 379 467 466
f 380 468 469
f 380 469 381
f 381 469 470
f 381 470 382
f 382 470 471
f 382 471 472
f 382 472 383
f 383 472 384
f 384 473 474
f 384 474 386
f 384 472 475
f 384 475 476
f 384 476 477
f 384 477 473
f 386 474 478
f 386 478 479
f 386 479 391
f 388 432 480
f 388 480 389
f 389 480 390
f 390 480 481
f 390 481 482
f 391 479 393
f 391 393 392
f 393 479 483
f 393 483 484
f 393 484 395
f 395 484 485
f 395 485 397
f 396 486 398
f 396 397 486
f 397 485 487
f 397 487 488
f 397 488 489
f 397 489 486
f 398 490 491
f 398 491 492
f 398 492 493
f 398 493 494
f 398 494 399
f 398 486 495
f 398 495 496
f 398 496 497
f 398 497 498
f 398 498 490
f 399 494 400
f 400 494 493
f 400 493 403
f 401 407 499
f 401 499 500
f 401 500 501
f 401 501 408
f 403 493 404
f 404 502 405
f 404 493 503
f 404 503 502
f 405 504 406
f 405 502 504
f 406 504 505
f 406 505 506
f 406 506 507
f 406 507 508
f 406 508 509
f 406 509 499
f 406 499 407
f 408 501 510
f 408 510 511
f 408 511 409
f 409 511 410
f 410 511 512
f 410 512 513
f 410 513 411
f 411 513 414
f 412 419 514
f 412 514 515
f 412 515 413
f 413 515 421
f 413 421 420
f 414 513 415
f 415 516 517
f 415 517 417
f 415 417 518
f 415 518 416
f 415 513 516
f 416 518 417
f 417 517 519
f 417 519 520
f 417 520 521
f 417 521 522
f 417 522 418
f 418 522 523
f 418 523 419
f 419 523 514
f 421 515 524
f 421 524 525
f 421 525 526
f 421 526 422
f 422 526 527
f 422 527 423
f 423 527 424
f 424 527 425
f 425 427 426
f 425 527 427
f 427 528 529
f 427 529 428
f 427 527 528
f 428 530 429
f 428 529 530
f 429 530 531
f 430 531 532
f 430 532 431
f 431 532 533
f 431 533 432
f 432 533 534
f 432 534 480
f 433 535 435
f 433 434 535
f 434 440 536
f 434 536 537
f 434 537 535
f 435 538 539
f 435 539 436
f 435 535 540
f 435 540 538
f 436 539 541
f 436 541 542
f 436 542 437
f 437 542 543
f 437 543 544
f 437 544 438
f 438 544 545
f 438 545 546
f 438 546 439
f 439 546 547
f 439 547 441
f 441 547 548
f 441 548 549
f 441 549 442
f 442 549 443
f 443 549 550
f 444 445 551
f 445 552 553
f 445 553 551
f 445 446 554
f 445 554 552
f 446 447 555
f 446 555 556
f 446 556 554
f 447 448 557
f 447 557 555
f 449 558 450
f 449 466 558
f 450 558 559
f 450 559 560
f 450 560 561
f 450 561 453
f 451 453 562
f 451 562 563
f 451 563 564
f 451 564 452
f 452 564 454
f 453 561 562
f 454 564 565
f 454 565 566
f 454 566 455
f 455 566 567
f 455 567 456
f 456 567 457
f 457 567 568
f 458 569 462
f 459 463 460
f 460 463 570
f 460 570 571
f 460 571 572
f 460 572 461
f 461 573 465
f 461 572 574
f 461 574 573
f 462 575 463
f 462 569 709
f 462 709 575
f 463 575 576
f 463 576 577
f 463 577 578
f 463 578 579
f 463 579 570
f 464 465 580
f 464 580 467
f 465 573 581
f 465 581 582
f 465 582 580
f 466 467 583
f 466 583 558
f 467 580 583
f 468 471 470
f 468 470 469
f 471 584 475
f 471 475 472
f 473 585 478
f 473 478 474
f 473 477 586
f 473 586 585
f 475 584 587
f 475 587 476
f 476 587 588
f 476 588 477
f 477 588 589
f 477 589 590
f 477 590 591
f 477 591 586
f 478 585 479
f 479 585 483
f 480 534 481
f 481 534 533
f 481 533 592
f 481 592 593
f 481 593 594
f 481 594 595
f 481 595 596
f 481 596 597
f 481 597 598
f 481 598 599
f 481 599 600
f 481 600 601
f 481 601 482
f 482 601 602
f 483 603 485
f 483 485 484
f 483 585 604
f 483 604 603
f 485 603 605
f 485 605 487
f 486 489 495
f 487 605 606
f 487 606 488
f 488 606 607
f 488 607 608
f 488 608 609
f 488 609 610
f 488 610 619
f 488 619 611
f 488 611 496
f 488 496 489
f 489 496 495
f 490 612 613
f 490 613 491
f 490 498 614
f 490 614 615
f 490 615 616
f 490 616 612
f 491 613 612
f 491 612 493
f 491 493 492
f 493 612 617
f 493 617 503
f 496 618 498
f 496 498 497
f 496 611 619
f 496 619 620
f 496 620 618
f 498 618 620
f 498 620 614
f 499 509 501
f 499 501 500
f 501 509 621
f 501 621 622
f 501 622 510
f 502 503 504
f 503 617 504
f 504 617 623
f 504 623 505
f 505 623 624
f 505 624 625
f 505 625 626
f 505 626 627
f 505 627 506
f 506 628 507
f 506 627 628
f 507 628 629
f 507 629 630
f 507 630 631
f 507 631 508
f 508 631 509
f 509 631 621
f 510 622 511
f 511 622 632
f 511 632 633
f 511 633 512
f 512 633 634
f 512 634 635
f 512 635 636
f 512 636 513
f 513 636 637
f 513 637 516
f 514 523 638
f 514 638 639
f 514 639 640
f 514 640 515
f 515 640 639
f 515 639 524
f 516 641 517
f 516 637 642
f 516 642 643
f 516 643 644
f 516 644 641
f 517 641 645
f 517 645 646
f 517 646 647
f 517 647 648
f 517 648 649
f 517 649 519
f 519 649 648
f 519 648 520
f 520 650 651
f 520 651 652
f 520 652 521
f 520 648 647
f 520 647 653
f 520 653 650
f 521 652 522
f 522 652 638
f 522 638 523
f 524 639 525
f 525 639 638
f 525 638 654
f 525 654 526
f 526 654 655
f 526 655 656
f 526 656 657
f 526 657 527
f 527 657 658
f 527 658 659
f 527 659 528
f 528 532 530
f 528 530 529
f 528 659 532
f 530 532 531
f 532 660 533
f 532 659 658
f 532 658 660
f 533 660 593
f 533 593 592
f 535 537 661
f 535 661 540
f 536 662 661
f 536 661 537
f 538 663 664
f 538 664 539
f 538 540 663
f 539 664 665
f 539 665 666
f 539 666 541
f 540 667 663
f 540 661 667
f 541 666 668
f 541 668 669
f 541 669 542
f 542 669 543
f 543 669 670
f 543 670 671
f 543 671 544
f 544 671 672
f 544 672 545
f 545 672 673
f 545 673 674
f 545 674 546
f 546 674 675
f 546 675 676
f 546 676 677
f 546 677 678
f 546 678 547
f 547 678 679
f 547 679 680
f 547 680 681
f 547 681 548
f 548 681 682
f 548 682 549
f 549 682 683
f 549 683 550
f 552 684 685
f 552 685 686
f 552 686 553
f 552 554 687
f 552 687 835
f 552 835 684
f 554 556 688
f 554 688 687
f 555 557 691
f 555 691 689
f 555 689 556
f 556 689 690
f 556 690 688
f 558 583 692
f 558 692 559
f 559 692 693
f 559 693 560
f 560 693 561
f 561 694 695
f 561 695 696
f 561 696 562
f 561 693 697
f 561 697 694
f 562 696 845
f 562 845 698
f 562 698 699
f 562 699 564
f 562 564 563
f 564 699 698
f 564 698 700
f 564 700 565
f 565 700 701
f 565 701 567
f 565 567 566
f 567 702 703
f 567 703 704
f 567 704 705
f 567 705 706
f 567 706 707
f 567 707 708
f 567 708 568
f 567 701 702
f 570 579 710
f 570 710 711
f 570 711 712
f 570 712 713
f 570 713 714
f 570 714 571
f 571 714 715
f 571 715 572
f 572 715 574
f 573 716 582
f 573 582 581
f 573 574 717
f 573 717 716
f 574 715 718
f 574 718 717
f 575 709 576
f 576 709 719
f 576 719 720
f 576 720 721
f 576 721 722
f 576 722 577
f 577 722 723
f 577 723 578
f 578 723 724
f 578 724 710
f 578 710 579
f 580 582 583
f 582 716 725
f 582 725 583
f 583 725 693
f 583 693 692
f 584 726 587
f 585 586 591
f 585 591 727
f 585 727 728
f 585 728 729
f 585 729 605
f 585 605 604
f 587 726 589
f 587 589 588
f 589 726 730
f 589 730 731
f 589 731 591
f 589 591 590
f 591 731 732
f 591 732 733
f 591 733 727
f 593 660 658
f 593 658 734
f 593 734 594
f 594 735 736
f 594 736 595
f 594 734 658
f 594 658 737
f 594 737 738
f 594 738 735
f 595 736 739
f 595 739 596
f 596 739 740
f 596 740 741
f 596 741 742
f 596 742 597
f 597 742 598
f 598 742 743
f 598 743 744
f 598 744 745
f 598 745 599
f 599 746 600
f 599 745 747
f 599 747 746
f 600 746 748
f 600 748 749
f 600 749 601
f 601 749 602
f 603 604 605
f 605 729 750
f 605 750 606
f 606 750 607
f 607 751 752
f 607 752 608
f 607 750 751
f 608 752 753
f 608 753 609
f 609 754 755
f 609 755 610
f 609 753 694
f 609 694 754
f 610 756 762
f 610 762 619
f 610 755 756
f 612 757 758
f 612 758 759
f 612 759 623
f 612 623 617
f 612 616 760
f 612 760 761
f 612 761 757
f 614 620 762
f 614 762 615
f 615 762 763
f 615 763 616
f 616 763 760
f 619 762 620
f 621 631 764
f 621 764 765
f 621 765 766
f 621 766 622
f 622 766 632
f 623 767 624
f 623 759 767
f 624 767 768
f 624 768 626
f 624 626 625
f 626 768 769
f 626 769 770
f 626 770 771
f 626 771 629
f 626 629 628
f 626 628 627
f 629 771 630
f 630 771 772
f 630 772 773
f 630 773 631
f 631 773 774
f 631 774 764
f 632 766 633
f 633 766 634
f 634 766 775
f 634 775 635
f 635 776 777
f 635 777 642
f 635 642 637
f 635 637 636
f 635 775 765
f 635 765 778
f 635 778 779
f 635 779 780
f 635 780 776
f 638 652 781
f 638 781 654
f 641 644 645
f 642 777 782
f 642 782 643
f 643 782 783
f 643 783 644
f 644 783 784
f 644 784 646
f 644 646 645
f 646 784 647
f 647 784 653
f 650 785 651
f 650 653 783
f 650 783 786
f 650 786 787
f 650 787 785
f 651 785 652
f 652 785 788
f 652 788 789
f 652 789 790
f 652 790 781
f 653 784 783
f 654 781 791
f 654 791 792
f 654 792 655
f 655 792 656
f 656 793 794
f 656 794 657
f 656 792 795
f 656 795 796
f 656 796 793
f 657 794 797
f 657 797 658
f 658 797 794
f 658 794 798
f 658 798 799
f 658 799 800
f 658 800 738
f 658 738 737
f 661 662 801
f 661 801 802
f 661 802 803
f 661 803 667
f 663 804 805
f 663 805 806
f 663 806 664
f 663 667 804
f 664 806 807
f 664 807 808
f 664 808 665
f 665 808 809
f 665 809 810
f 665 810 811
f 665 811 666
f 666 811 668
f 667 812 804
f 667 803 813
f 667 813 812
f 668 811 814
f 668 814 815
f 668 815 816
f 668 816 817
f 668 817 670
f 668 670 669
f 670 817 818
f 670 818 819
f 670 819 820
f 670 820 671
f 671 820 673
f 671 673 672
f 673 820 821
f 673 821 676
f 673 676 674
f 674 676 675
f 676 821 822
f 676 822 823
f 676 823 824
f 676 824 677
f 677 824 678
f 678 824 679
f 679 824 825
f 679 825 680
f 680 825 826
f 680 826 827
f 680 827 828
f 680 828 829
f 680 829 830
f 680 830 681
f 681 830 682
f 682 830 831
f 682 831 683
f 684 832 833
f 684 833 834
f 684 834 685
f 684 835 832
f 687 688 836
f 687 836 835
f 688 690 837
f 688 837 836
f 689 691 838
f 689 838 839
f 689 839 840
f 689 840 690
f 690 840 837
f 693 725 841
f 693 841 842
f 693 842 754
f 693 754 694
f 693 694 697
f 694 753 751
f 694 751 843
f 694 843 695
f 695 843 696
f 696 843 844
f 696 844 845
f 698 845 846
f 698 846 700
f 700 846 702
f 700 702 701
f 702 846 847
f 702 847 703
f 704 706 705
f 710 724 711
f 711 724 848
f 711 848 849
f 711 849 712
f 712 849 850
f 712 850 851
f 712 851 714
f 712 714 713
f 714 852 853
f 714 853 854
f 714 854 855
f 714 855 715
f 714 851 856
f 714 856 857
f 714 857 858
f 714 858 859
f 714 859 860
f 714 860 861
f 714 861 852
f 715 855 718
f 716 862 841
f 716 841 725
f 716 717 863
f 716 863 862
f 717 718 854
f 717 854 864
f 717 864 863
f 718 855 854
f 720 865 721
f 721 723 722
f 721 865 866
f 721 866 867
f 721 867 868
f 721 868 869
f 721 869 870
f 721 870 871
f 721 871 723
f 723 871 870
f 723 870 872
f 723 872 873
f 723 873 724
f 724 874 848
f 724 873 875
f 724 875 874
f 727 733 728
f 728 750 729
f 728 733 750
f 730 876 877
f 730 877 731
f 731 877 732
f 732 877 733
f 733 877 878
f 733 878 879
f 733 879 880
f 733 880 881
f 733 881 882
f 733 882 750
f 735 739 736
f 735 738 739
f 738 800 883
f 738 883 884
f 738 884 739
f 739 884 885
f 739 885 740
f 740 886 741
f 740 885 887
f 740 887 888
f 740 888 889
f 740 889 886
f 741 886 889
f 741 889 742
f 742 889 890
f 742 890 891
f 742 891 892
f 742 892 743
f 743 892 744
f 744 892 893
f 750 882 751
f 751 753 752
f 751 882 881
f 751 881 843
f 754 842 755
f 755 842 762
f 755 762 756
f 757 761 894
f 757 894 758
f 758 894 864
f 758 864 854
f 758 854 852
f 758 852 769
f 758 769 895
f 758 895 759
f 759 895 769
f 759 769 767
f 760 763 761
f 761 763 896
f 761 896 862
f 761 862 894
f 762 842 841
f 762 841 862
f 762 862 896
f 762 896 763
f 764 774 765
f 765 897 898
f 765 898 899
f 765 899 778
f 765 775 766
f 765 774 897
f 767 769 768
f 769 852 861
f 769 861 770
f 770 861 860
f 770 860 859
f 770 859 771
f 771 900 772
f 771 859 900
f 772 900 773
f 773 901 902
f 773 902 774
f 773 900 901
f 774 902 903
f 774 903 898
f 774 898 897
f 776 780 904
f 776 904 777
f 777 904 905
f 777 905 782
f 778 899 906
f 778 906 779
f 779 906 780
f 780 906 907
f 780 907 904
f 781 908 791
f 781 790 909
f 781 909 908
f 782 905 910
f 782 910 911
f 782 911 786
f 782 786 783
f 785 912 913
f 785 913 788
f 785 787 911
f 785 911 914
f 785 914 912
f 786 911 787
f 788 913 915
f 788 915 789
f 789 915 916
f 789 916 790
f 790 917 909
f 790 916 918
f 790 918 919
f 790 919 920
f 790 920 917
f 791 921 922
f 791 922 923
f 791 923 795
f 791 795 792
f 791 908 909
f 791 909 924
f 791 924 925
f 791 925 926
f 791 926 927
f 791 927 921
f 793 928 794
f 793 796 921
f 793 921 1029
f 793 1029 928
f 794 800 799
f 794 799 798
f 794 928 800
f 795 923 922
f 795 922 921
f 795 921 796
f 800 928 883
f 802 929 803
f 803 929 813
f 804 930 931
f 804 931 805
f 804 812 932
f 804 932 930
f 805 931 933
f 805 933 806
f 806 933 807
f 807 933 809
f 807 809 808
f 809 934 935
f 809 935 936
f 809 936 810
f 809 933 934
f 810 936 811
f 811 936 937
f 811 937 814
f 812 813 932
f 813 929 938
f 813 938 932
f 814 937 939
f 814 939 940
f 814 940 941
f 814 941 816
f 814 816 815
f 816 941 817
f 817 941 818
f 818 942 943
f 818 943 819
f 818 941 942
f 819 943 944
f 819 944 822
f 819 822 820
f 820 822 821
f 822 944 945
f 822 945 946
f 822 946 947
f 822 947 823
f 823 947 948
f 823 948 949
f 823 949 824
f 824 949 948
f 824 948 825
f 825 948 826
f 826 950 951
f 826 951 827
f 826 948 952
f 826 952 953
f 826 953 950
f 827 951 954
f 827 954 828
f 828 954 955
f 828 955 956
f 828 956 829
f 829 956 957
f 829 957 831
f 829 831 830
f 832 958 833
f 832 835 959
f 832 959 960
f 832 960 961
f 832 961 962
f 832 962 963
f 832 963 964
f 832 964 958
f 833 958 965
f 835 836 966
f 835 966 959
f 836 837 967
f 836 967 968
f 836 968 966
f 837 840 969
f 837 969 970
f 837 970 967
f 838 971 839
f 838 972 971
f 839 971 969
f 839 969 840
f 843 881 880
f 843 880 879
f 843 879 844
f 844 879 845
f 845 879 878
f 845 878 877
f 845 877 973
f 845 973 846
f 846 877 974
f 846 974 847
f 846 973 877
f 848 874 975
f 848 975 976
f 848 976 849
f 849 976 850
f 850 976 977
f 850 977 856
f 850 856 851
f 852 854 853
f 856 977 976
f 856 976 978
f 856 978 857
f 857 979 858
f 857 978 980
f 857 980 979
f 858 979 980
f 858 980 859
f 859 980 900
f 862 863 894
f 863 864 894
f 866 981 867
f 867 981 982
f 867 982 983
f 867 983 868
f 868 983 984
f 868 984 985
f 868 985 869
f 869 985 986
f 869 986 987
f 869 987 870
f 870 987 988
f 870 988 875
f 870 875 872
f 872 875 873
f 874 875 975
f 875 989 990
f 875 990 991
f 875 991 992
f 875 992 993
f 875 993 994
f 875 994 995
f 875 995 996
f 875 996 976
f 875 976 975
f 875 988 987
f 875 987 989
f 876 997 877
f 877 997 998
f 877 998 974
f 883 928 999
f 883 999 1000
f 883 1000 884
f 884 1001 885
f 884 1000 1001
f 885 1001 887
f 887 1002 1003
f 887 1003 889
f 887 889 888
f 887 1001 1002
f 889 1003 1004
f 889 1004 1005
f 889 1005 890
f 890 1005 891
f 891 1005 1006
f 891 1006 893
f 891 893 892
f 898 1007 1008
f 898 1008 1009
f 898 1009 906
f 898 906 899
f 898 903 1007
f 900 980 901
f 901 980 902
f 902 1010 1011
f 902 1011 903
f 902 980 1010
f 903 1011 995
f 903 995 1007
f 904 907 905
f 905 907 910
f 906 1009 907
f 907 1009 1008
f 907 1008 910
f 909 917 1012
f 909 1012 1013
f 909 1013 1014
f 909 1014 924
f 910 1015 1016
f 910 1016 914
f 910 914 911
f 910 1008 1015
f 912 914 1017
f 912 1017 1018
f 912 1018 915
f 912 915 913
f 914 1016 1019
f 914 1019 1017
f 915 1018 916
f 916 1018 1020
f 916 1020 1021
f 916 1021 1022
f 916 1022 918
f 917 1023 1115
f 917 1115 1012
f 917 920 1023
f 918 1022 1024
f 918 1024 1025
f 918 1025 1026
f 918 1026 919
f 919 1026 1027
f 919 1027 920
f 920 1027 1028
f 920 1028 1023
f 921 927 1030
f 921 1030 1029
f 924 1014 925
f 925 1014 1031
f 925 1031 926
f 926 1031 927
f 927 1031 1032
f 927 1032 1030
f 928 1029 999
f 929 1033 938
f 930 932 931
f 931 932 1035
f 931 1035 1034
f 931 1034 933
f 932 938 1035
f 933 1036 934
f 933 1034 1036
f 934 1037 935
f 934 1036 1038
f 934 1038 1037
f 935 1037 1039
f 935 1039 1040
f 935 1040 1027
f 935 1027 936
f 936 1027 1041
f 936 1041 1042
f 936 1042 937
f 937 1042 939
f 938 1043 1044
f 938 1044 1035
f 938 1033 1045
f 938 1045 1043
f 939 1042 1046
f 939 1046 1047
f 939 1047 1048
f 939 1048 943
f 939 943 940
f 940 943 942
f 940 942 941
f 943 1048 1049
f 943 1049 944
f 944 1049 1050
f 944 1050 1051
f 944 1051 1052
f 944 1052 945
f 945 1052 946
f 946 1053 947
f 946 1052 1054
f 946 1054 1055
f 946 1055 1053
f 947 1053 1056
f 947 1056 948
f 948 1056 952
f 950 953 1057
f 950 1057 1058
f 950 1058 1059
f 950 1059 1060
f 950 1060 951
f 951 1060 1059
f 951 1059 1061
f 951 1061 1062
f 951 1062 954
f 952 1056 1063
f 952 1063 953
f 953 1063 1064
f 953 1064 1065
f 953 1065 1057
f 954 1062 1066
f 954 1066 955
f 955 1066 1067
f 958 1068 1069
f 958 1069 1070
f 958 1070 965
f 958 964 1071
f 958 1071 1068
f 959 966 960
f 960 966 1072
f 960 1072 1073
f 960 1073 962
f 960 962 961
f 962 1073 1074
f 962 1074 1075
f 962 1075 963
f 963 1075 964
f 964 1075 1076
f 964 1076 1077
f 964 1077 1071
f 966 1078 1072
f 966 968 1079
f 966 1079 1080
f 966 1080 1081
f 966 1081 1082
f 966 1082 1078
f 967 1079 968
f 967 970 1084
f 967 1084 1083
f 967 1083 1079
f 969 1084 970
f 969 971 1085
f 969 1085 1205
f 969 1205 1084
f 971 972 1086
f 971 1086 1208
f 971 1208 1085
f 972 1087 1086
f 976 996 978
f 978 1011 1010
f 978 1010 980
f 978 996 1011
f 982 1088 983
f 983 1088 1089
f 983 1089 984
f 984 1089 1090
f 984 1090 1091
f 984 1091 1092
f 984 1092 1093
f 984 1093 986
f 984 986 985
f 986 1093 1094
f 986 1094 991
f 986 991 990
f 986 990 987
f 987 990 989
f 991 1094 1095
f 991 1095 1096
f 991 1096 1097
f 991 1097 1098
f 991 1098 1099
f 991 1099 992
f 992 1099 1098
f 992 1098 1100
f 992 1100 993
f 993 1100 1101
f 993 1101 994
f 994 1102 1008
f 994 1008 1007
f 994 1007 995
f 994 1101 1103
f 994 1103 1104
f 994 1104 1102
f 995 1011 996
f 999 1105 1000
f 999 1029 1105
f 1000 1002 1001
f 1000 1105 1002
f 1002 1106 1003
f 1002 1105 1107
f 1002 1107 1106
f 1003 1106 1107
f 1003 1107 1108
f 1003 1108 1109
f 1003 1109 1110
f 1003 1110 1004
f 1004 1111 1005
f 1004 1110 1111
f 1005 1111 1006
f 1006 1111 1112
f 1008 1102 1113
f 1008 1113 1114
f 1008 1114 1015
f 1012 1115 1116
f 1012 1116 1013
f 1013 1117 1014
f 1013 1116 1118
f 1013 1118 1119
f 1013 1119 1117
f 1014 1117 1120
f 1014 1120 1121
f 1014 1121 1122
f 1014 1122 1031
f 1015 1114 1113
f 1015 1113 1104
f 1015 1104 1016
f 1016 1104 1123
f 1016 1123 1124
f 1016 1124 1125
f 1016 1125 1019
f 1017 1019 1018
f 1018 1126 1020
f 1018 1019 1127
f 1018 1127 1128
f 1018 1128 1129
f 1018 1129 1130
f 1018 1130 1131
f 1018 1131 1126
f 1019 1125 1132
f 1019 1132 1127
f 1020 1126 1131
f 1020 1131 1133
f 1020 1133 1130
f 1020 1130 1021
f 1021 1130 1134
f 1021 1134 1022
f 1022 1134 1024
f 1023 1028 1115
f 1024 1134 1130
f 1024 1130 1135
f 1024 1135 1025
f 1025 1135 1026
f 1026 1135 1136
f 1026 1136 1137
f 1026 1137 1027
f 1027 1040 1028
f 1027 1137 1041
f 1028 1040 1115
f 1029 1030 1138
f 1029 1138 1139
f 1029 1139 1105
f 1030 1032 1140
f 1030 1140 1141
f 1030 1141 1142
f 1030 1142 1143
f 1030 1143 1144
f 1030 1144 1145
f 1030 1145 1138
f 1031 1122 1032
f 1032 1122 1146
f 1032 1146 1147
f 1032 1147 1140
f 1034 1035 1148
f 1034 1148 1149
f 1034 1149 1150
f 1034 1150 1151
f 1034 1151 1036
f 1035 1044 1148
f 1036 1151 1038
f 1037 1152 1153
f 1037 1153 1039
f 1037 1038 1154
f 1037 1154 1152
f 1038 1151 1155
f 1038 1155 1156
f 1038 1156 1157
f 1038 1157 1154
f 1039 1158 1159
f 1039 1159 1040
f 1039 1153 1158
f 1040 1159 1160
f 1040 1160 1161
f 1040 1161 1115
f 1041 1162 1163
f 1041 1163 1164
f 1041 1164 1046
f 1041 1046 1042
f 1041 1137 1165
f 1041 1165 1162
f 1043 1045 1149
f 1043 1149 1044
f 1044 1149 1148
f 1045 1166 1167
f 1045 1167 1149
f 1046 1164 1168
f 1046 1168 1047
f 1047 1168 1169
f 1047 1169 1048
f 1048 1169 1050
f 1048 1050 1049
f 1050 1169 1170
f 1050 1170 1171
f 1050 1171 1172
f 1050 1172 1051
f 1051 1172 1173
f 1051 1173 1052
f 1052 1173 1054
f 1053 1055 1063
f 1053 1063 1056
f 1054 1173 1174
f 1054 1174 1175
f 1054 1175 1176
f 1054 1176 1055
f 1055 1176 1065
f 1055 1065 1064
f 1055 1064 1063
f 1057 1065 1177
f 1057 1177 1178
f 1057 1178 1058
f 1058 1178 1179
f 1058 1179 1059
f 1059 1179 1180
f 1059 1180 1181
f 1059 1181 1182
f 1059 1182 1061
f 1061 1182 1183
f 1061 1183 1184
f 1061 1184 1062
f 1062 1184 1185
f 1062 1185 1066
f 1065 1176 1175
f 1065 1175 1177
f 1066 1185 1067
f 1068 1071 1186
f 1068 1186 1187
f 1068 1187 1069
f 1069 1187 1189
f 1069 1189 1188
f 1071 1077 1186
f 1072 1078 1073
f 1073 1078 1082
f 1073 1082 1190
f 1073 1190 1191
f 1073 1191 1074
f 1074 1192 1076
f 1074 1076 1075
f 1074 1191 1190
f 1074 1190 1193
f 1074 1193 1194
f 1074 1194 1192
f 1076 1192 1077
f 1077 1192 1187
f 1077 1187 1186
f 1079 1083 1195
f 1079 1195 1197
f 1079 1197 1080
f 1080 1196 1081
f 1080 1197 1198
f 1080 1198 1196
f 1081 1196 1199
f 1081 1199 1200
f 1081 1200 1201
f 1081 1201 1202
f 1081 1202 1082
f 1082 1202 1203
f 1082 1203 1204
f 1082 1204 1190
f 1083 1084 1205
f 1083 1205 1206
f 1083 1206 1207
f 1083 1207 1195
f 1085 1208 1205
f 1086 1087 1209
f 1086 1209 1304
f 1086 1304 1208
f 1087 1210 1306
f 1087 1306 1209
f 1089 1211 1090
f 1090 1211 1212
f 1090 1212 1091
f 1091 1095 1092
f 1092 1095 1094
f 1092 1094 1093
f 1095 1213 1096
f 1096 1098 1097
f 1096 1213 1098
f 1098 1214 1215
f 1098 1215 1100
f 1098 1213 1216
f 1098 1216 1214
f 1100 1215 1217
f 1100 1217 1218
f 1100 1218 1219
f 1100 1219 1220
f 1100 1220 1101
f 1101 1220 1221
f 1101 1221 1222
f 1101 1222 1223
f 1101 1223 1224
f 1101 1224 1103
f 1102 1104 1113
f 1103 1224 1104
f 1104 1224 1225
f 1104 1225 1226
f 1104 1226 1227
f 1104 1227 1228
f 1104 1228 1125
f 1104 1125 1123
f 1105 1139 1108
f 1105 1108 1107
f 1108 1139 1229
f 1108 1229 1230
f 1108 1230 1231
f 1108 1231 1109
f 1109 1231 1110
f 1110 1231 1232
f 1110 1232 1233
f 1110 1233 1234
f 1110 1234 1111
f 1111 1234 1112
f 1115 1161 1116
f 1116 1161 1118
f 1117 1119 1235
f 1117 1235 1120
f 1118 1236 1119
f 1118 1161 1236
f 1119 1236 1235
f 1120 1237 1121
f 1120 1235 1238
f 1120 1238 1239
f 1120 1239 1237
f 1121 1237 1122
f 1122 1237 1240
f 1122 1240 1146
f 1123 1125 1124
f 1125 1228 1132
f 1127 1132 1128
f 1128 1132 1129
f 1129 1132 1130
f 1130 1133 1131
f 1130 1132 1241
f 1130 1241 1242
f 1130 1242 1243
f 1130 1243 1244
f 1130 1244 1245
f 1130 1245 1137
f 1130 1137 1136
f 1130 1136 1135
f 1132 1228 1227
f 1132 1227 1226
f 1132 1226 1246
f 1132 1246 1247
f 1132 1247 1241
f 1137 1245 1165
f 1138 1248 1249
f 1138 1249 1250
f 1138 1250 1231
f 1138 1231 1230
f 1138 1230 1139
f 1138 1145 1251
f 1138 1251 1248
f 1139 1230 1229
f 1140 1252 1141
f 1140 1147 1240
f 1140 1240 1253
f 1140 1253 1252
f 1141 1252 1254
f 1141 1254 1142
f 1142 1254 1143
f 1143 1254 1255
f 1143 1255 1256
f 1143 1256 1144
f 1144 1256 1257
f 1144 1257 1145
f 1145 1257 1258
f 1145 1258 1259
f 1145 1259 1251
f 1146 1240 1147
f 1149 1260 1150
f 1149 1167 1261
f 1149 1261 1260
f 1150 1262 1151
f 1150 1260 1262
f 1151 1262 1155
f 1152 1263 1153
f 1152 1154 1264
f 1152 1264 1194
f 1152 1194 1263
f 1153 1265 1266
f 1153 1266 1158
f 1153 1263 1265
f 1154 1157 1267
f 1154 1267 1264
f 1155 1262 1268
f 1155 1268 1269
f 1155 1269 1156
f 1156 1269 1270
f 1156 1270 1271
f 1156 1271 1272
f 1156 1272 1157
f 1157 1272 1189
f 1157 1189 1267
f 1158 1266 1273
f 1158 1273 1274
f 1158 1274 1159
f 1159 1275 1160
f 1159 1274 1276
f 1159 1276 1277
f 1159 1277 1278
f 1159 1278 1275
f 1160 1275 1279
f 1160 1279 1236
f 1160 1236 1161
f 1162 1165 1280
f 1162 1280 1163
f 1163 1280 1164
f 1164 1280 1168
f 1165 1245 1281
f 1165 1281 1280
f 1166 1282 1261
f 1166 1261 1167
f 1168 1280 1170
f 1168 1170 1169
f 1170 1280 1244
f 1170 1244 1171
f 1171 1244 1172
f 1172 1244 1283
f 1172 1283 1284
f 1172 1284 1173
f 1173 1284 1174
f 1174 1284 1285
f 1174 1285 1286
f 1174 1286 1175
f 1175 1178 1177
f 1175 1286 1178
f 1178 1286 1223
f 1178 1223 1179
f 1179 1223 1181
f 1179 1181 1180
f 1181 1223 1287
f 1181 1287 1182
f 1182 1287 1288
f 1182 1288 1183
f 1183 1288 1289
f 1183 1289 1290
f 1183 1290 1184
f 1184 1290 1291
f 1184 1291 1185
f 1187 1192 1267
f 1187 1267 1189
f 1188 1189 1292
f 1189 1293 1294
f 1189 1294 1292
f 1189 1272 1271
f 1189 1271 1293
f 1190 1204 1265
f 1190 1265 1193
f 1192 1194 1264
f 1192 1264 1267
f 1193 1265 1263
f 1193 1263 1194
f 1195 1207 1197
f 1196 1198 1199
f 1197 1207 1295
f 1197 1295 1296
f 1197 1296 1198
f 1198 1296 1200
f 1198 1200 1199
f 1200 1296 1297
f 1200 1297 1298
f 1200 1298 1299
f 1200 1299 1203
f 1200 1203 1202
f 1200 1202 1201
f 1203 1299 1204
f 1204 1299 1300
f 1204 1300 1273
f 1204 1273 1266
f 1204 1266 1265
f 1205 1208 1301
f 1205 1301 1206
f 1206 1301 1302
f 1206 1302 1303
f 1206 1303 1295
f 1206 1295 1207
f 1208 1304 1305
f 1208 1305 1301
f 1209 1306 1304
f 1210 1307 1340
f 1210 1340 1306
f 1213 1308 1216
f 1214 1216 1308
f 1214 1308 1215
f 1215 1308 1217
f 1217 1308 1309
f 1217 1309 1218
f 1218 1309 1219
f 1219 1309 1310
f 1219 1310 1311
f 1219 1311 1220
f 1220 1311 1221
f 1221 1311 1312
f 1221 1312 1287
f 1221 1287 1223
f 1221 1223 1222
f 1223 1286 1313
f 1223 1313 1224
f 1224 1313 1314
f 1224 1314 1315
f 1224 1315 1316
f 1224 1316 1225
f 1225 1316 1226
f 1226 1316 1315
f 1226 1315 1317
f 1226 1317 1246
f 1231 1250 1248
f 1231 1248 1318
f 1231 1318 1319
f 1231 1319 1320
f 1231 1320 1232
f 1232 1320 1319
f 1235 1236 1279
f 1235 1279 1238
f 1237 1321 1240
f 1237 1239 1322
f 1237 1322 1323
f 1237 1323 1375
f 1237 1375 1321
f 1238 1279 1275
f 1238 1275 1278
f 1238 1278 1322
f 1238 1322 1239
f 1240 1321 1324
f 1240 1324 1325
f 1240 1325 1326
f 1240 1326 1327
f 1240 1327 1328
f 1240 1328 1329
f 1240 1329 1253
f 1241 1247 1317
f 1241 1317 1330
f 1241 1330 1242
f 1242 1330 1243
f 1243 1330 1331
f 1243 1331 1332
f 1243 1332 1333
f 1243 1333 1244
f 1244 1333 1283
f 1244 1280 1281
f 1244 1281 1245
f 1246 1317 1247
f 1248 1250 1249
f 1248 1251 1334
f 1248 1334 1318
f 1251 1259 1335
f 1251 1335 1334
f 1252 1336 1254
f 1252 1253 1336
f 1253 1329 1337
f 1253 1337 1338
f 1253 1338 1339
f 1253 1339 1340
f 1253 1340 1341
f 1253 1341 1342
f 1253 1342 1256
f 1253 1256 1336
f 1254 1336 1255
f 1255 1336 1256
f 1256 1342 1343
f 1256 1343 1344
f 1256 1344 1257
f 1257 1344 1258
f 1258 1344 1345
f 1258 1345 1346
f 1258 1346 1335
f 1258 1335 1259
f 1260 1261 1347
f 1260 1347 1348
f 1260 1348 1262
f 1261 1282 1347
f 1262 1348 1349
f 1262 1349 1268
f 1268 1349 1350
f 1268 1350 1351
f 1268 1351 1269
f 1269 1351 1352
f 1269 1352 1353
f 1269 1353 1270
f 1270 1353 1271
f 1271 1353 1293
f 1273 1300 1274
f 1274 1300 1299
f 1274 1299 1298
f 1274 1298 1354
f 1274 1354 1355
f 1274 1355 1356
f 1274 1356 1276
f 1276 1356 1357
f 1276 1357 1277
f 1277 1357 1323
f 1277 1323 1322
f 1277 1322 1278
f 1283 1333 1358
f 1283 1358 1284
f 1284 1358 1285
f 1285 1358 1314
f 1285 1314 1313
f 1285 1313 1286
f 1287 1312 1359
f 1287 1359 1360
f 1287 1360 1288
f 1288 1360 1289
f 1289 1360 1361
f 1289 1361 1290
f 1290 1361 1291
f 1293 1353 1362
f 1295 1303 1363
f 1295 1363 1364
f 1295 1364 1297
f 1295 1297 1296
f 1297 1365 1354
f 1297 1354 1298
f 1297 1364 1366
f 1297 1366 1365
f 1301 1305 1367
f 1301 1367 1368
f 1301 1368 1302
f 1302 1363 1303
f 1302 1368 1363
f 1304 1306 1338
f 1304 1338 1369
f 1304 1369 1305
f 1305 1369 1370
f 1305 1370 1367
f 1306 1340 1338
f 1307 1371 1340
f 1309 1312 1310
f 1310 1312 1311
f 1312 1372 1359
f 1314 1358 1332
f 1314 1332 1331
f 1314 1331 1315
f 1315 1331 1373
f 1315 1373 1330
f 1315 1330 1317
f 1318 1334 1319
f 1319 1334 1374
f 1321 1375 1324
f 1323 1357 1376
f 1323 1376 1375
f 1324 1375 1376
f 1324 1376 1377
f 1324 1377 1378
f 1324 1378 1325
f 1325 1378 1379
f 1325 1379 1370
f 1325 1370 1326
f 1326 1370 1327
f 1327 1370 1369
f 1327 1369 1328
f 1328 1369 1329
f 1329 1369 1337
f 1330 1373 1331
f 1332 1358 1333
f 1334 1335 1374
f 1335 1346 1345
f 1335 1345 1380
f 1335 1380 1374
f 1337 1369 1338
f 1338 1340 1339
f 1340 1371 1341
f 1341 1371 1381
f 1341 1381 1342
f 1342 1381 1343
f 1343 1381 1344
f 1344 1381 1345
f 1345 1381 1382
f 1345 1382 1383
f 1345 1383 1380
f 1347 1384 1348
f 1348 1384 1349
f 1349 1384 1385
f 1349 1385 1386
f 1349 1386 1387
f 1349 1387 1350
f 1350 1387 1388
f 1350 1388 1389
f 1350 1389 1351
f 1351 1389 1390
f 1351 1390 1352
f 1352 1362 1353
f 1354 1365 1355
f 1355 1366 1356
f 1355 1365 1366
f 1356 1366 1391
f 1356 1391 1377
f 1356 1377 1357
f 1357 1377 1376
f 1359 1372 1361
f 1359 1361 1360
f 1363 1368 1364
f 1364 1368 1392
f 1364 1392 1366
f 1366 1392 1391
f 1367 1370 1393
f 1367 1393 1368
f 1368 1393 1392
f 1370 1379 1393
f 1371 1394 1381
f 1377 1391 1395
f 1377 1395 1393
f 1377 1393 1378
f 1378 1393 1379
f 1381 1394 1382
f 1384 1396 1385
f 1385 1396 1386
f 1388 1397 1389
f 1389 1397 1398
f 1389 1398 1390
f 1391 1392 1393
f 1391 1393 1395

