# https://github.com/mikedh/trimesh
v -0.00020345 0.06308508 -0.00686312
v -0.00017943 0.06308427 -0.00686312
v -0.00017943 0.06307449 -0.00688940
v -0.00020345 0.06307938 -0.00687814
v -0.00035347 0.06308427 -0.00686312
v -0.00017943 0.06156037 -0.00686312
v -0.00017943 0.06304923 -0.00695245
v -0.00035347 0.06307857 -0.00687814
v -0.00020345 0.06304923 -0.00695320
v -0.00035347 0.06304923 -0.00695320
v -0.00051531 0.06308101 -0.00686312
v -0.00018140 0.06133383 -0.00686312
v -0.00017943 0.06132975 -0.00687063
v -0.00017943 0.06301174 -0.00703653
v -0.00050350 0.06307694 -0.00687438
v -0.00035347 0.06290662 -0.00727074
v -0.00050350 0.06300930 -0.00703653
v -0.00050350 0.06304760 -0.00694945
v -0.00066061 0.06307775 -0.00686312
v -0.00020345 0.06133138 -0.00686312
v -0.00018179 0.05475989 -0.01346824
v -0.00017943 0.05475989 -0.01352004
v -0.00017943 0.06290580 -0.00726923
v -0.00020345 0.06294410 -0.00718666
v -0.00065352 0.06307531 -0.00686988
v -0.00062635 0.06290417 -0.00726473
v -0.00020345 0.06287158 -0.00734430
v -0.00035347 0.06287158 -0.00734580
v -0.00050350 0.06287076 -0.00734280
v -0.00065352 0.06300522 -0.00703653
v -0.00065352 0.06304597 -0.00694495
v -0.00080355 0.06307205 -0.00686312
v -0.00046648 0.06130612 -0.00686312
v -0.00091262 0.05475989 -0.01341044
v -0.00121779 0.06123522 -0.00686312
v -0.00166707 0.06119366 -0.00686312
v -0.00170369 0.06119040 -0.00686312
v -0.00420212 0.06098097 -0.00686312
v -0.00017943 0.05475989 -0.01452443
v -0.00017943 0.06287076 -0.00734430
v -0.00072637 0.06290254 -0.00726173
v -0.00065352 0.06280068 -0.00748693
v -0.00017943 0.06286017 -0.00736682
v -0.00020345 0.06280394 -0.00748693
v -0.00035347 0.06280475 -0.00748693
v -0.00050350 0.06280312 -0.00748693
v -0.00080355 0.06299952 -0.00703653
v -0.00080355 0.06304271 -0.00693744
v -0.00095357 0.06306145 -0.00686312
v -0.00272078 0.05475989 -0.01326932
v -0.00420212 0.06242989 -0.00686312
v -0.00420212 0.05475989 -0.01315446
v -0.00410408 0.05475989 -0.01316197
v -0.00391940 0.05475989 -0.01317623
v -0.00301926 0.05475989 -0.01324604
v -0.00023810 0.05475989 -0.01452668
v -0.00020345 0.05487561 -0.01449816
v -0.00017943 0.05485197 -0.01450266
v -0.00080355 0.06293433 -0.00718216
v -0.00080355 0.06286424 -0.00733680
v -0.00050350 0.06275993 -0.00757701
v -0.00065352 0.06272245 -0.00764982
v -0.00080355 0.06272000 -0.00764382
v -0.00080355 0.06275586 -0.00756875
v -0.00080355 0.06279416 -0.00748693
v -0.00017943 0.06280312 -0.00748693
v -0.00017943 0.06275993 -0.00757701
v -0.00035347 0.06276075 -0.00757851
v -0.00095357 0.06298811 -0.00703653
v -0.00095357 0.06303700 -0.00692393
v -0.00105319 0.06305330 -0.00686312
v -0.00410408 0.06246330 -0.00686312
v -0.00420212 0.06231091 -0.00710484
v -0.00420212 0.05475989 -0.01422266
v -0.00035347 0.05475989 -0.01453044
v -0.00035347 0.05487561 -0.01450341
v -0.00035347 0.05507119 -0.01445687
v -0.00020345 0.05517550 -0.01442609
v -0.00017943 0.05496769 -0.01447489
v -0.00095357 0.06292862 -0.00716940
v -0.00088584 0.06275341 -0.00756350
v -0.00095357 0.06285202 -0.00733680
v -0.00095357 0.06289439 -0.00724446
v -0.00050350 0.06272326 -0.00765207
v -0.00065352 0.06265481 -0.00778719
v -0.00080355 0.06264992 -0.00778719
v -0.00090081 0.06260510 -0.00786601
v -0.00020345 0.06272326 -0.00765207
v -0.00017943 0.06265644 -0.00778719
v -0.00035347 0.06265725 -0.00778719
v -0.00050350 0.06265644 -0.00778719
v -0.00110360 0.06297426 -0.00703653
v -0.00110360 0.06303048 -0.00690816
v -0.00126346 0.06302886 -0.00687739
v -0.00116305 0.06304352 -0.00686312
v -0.00409030 0.06246738 -0.00686312
v -0.00400997 0.06244701 -0.00695245
v -0.00410408 0.06243315 -0.00692318
v -0.00419189 0.06230684 -0.00711985
v -0.00420212 0.06229787 -0.00713036
v -0.00412298 0.05475989 -0.01426470
v -0.00420212 0.05526269 -0.01423167
v -0.00404107 0.05529448 -0.01432025
v -0.00050350 0.05475989 -0.01453194
v -0.00050350 0.05507445 -0.01445762
v -0.00050350 0.05517550 -0.01443360
v -0.00035347 0.05517550 -0.01443135
v -0.00017943 0.05515512 -0.01442985
v -0.00035347 0.05532544 -0.01439382
v -0.00020345 0.05532544 -0.01438781
v -0.00110360 0.06292129 -0.00715288
v -0.00110360 0.06269719 -0.00763706
v -0.00098586 0.06274852 -0.00755299
v -0.00095200 0.06263281 -0.00779921
v -0.00110360 0.06263199 -0.00777143
v -0.00110360 0.06288706 -0.00722795
v -0.00065352 0.06260999 -0.00787502
v -0.00080355 0.06260754 -0.00787127
v -0.00113982 0.06229869 -0.00830591
v -0.00110360 0.06253827 -0.00793733
v -0.00125362 0.06252198 -0.00793733
v -0.00110360 0.06259450 -0.00784650
v -0.00080355 0.06256028 -0.00794634
v -0.00080355 0.06248531 -0.00806344
v -0.00080355 0.06243723 -0.00813851
v -0.00080355 0.06237366 -0.00823759
v -0.00095357 0.06218460 -0.00851234
v -0.00095357 0.06236144 -0.00823759
v -0.00145326 0.06139984 -0.00965936
v -0.00017943 0.06261080 -0.00787652
v -0.00035347 0.06261162 -0.00787727
v -0.00050350 0.06261080 -0.00787652
v -0.00125362 0.06295877 -0.00703653
v -0.00140364 0.06300685 -0.00688715
v -0.00140364 0.06301663 -0.00686312
v -0.00127528 0.06303293 -0.00686312
v -0.00125323 0.06303537 -0.00686312
v -0.00395760 0.06249020 -0.00689615
v -0.00395720 0.06250649 -0.00686312
v -0.00395760 0.06242011 -0.00703127
v -0.00410408 0.06216667 -0.00743964
v -0.00418834 0.06215526 -0.00741712
v -0.00420212 0.06216097 -0.00739760
v -0.00409541 0.05475989 -0.01427896
v -0.00403871 0.05517550 -0.01431875
v -0.00420212 0.05533115 -0.01423092
v -0.00380403 0.05517550 -0.01439607
v -0.00395405 0.05517550 -0.01435403
v -0.00396153 0.05475989 -0.01434352
v -0.00409620 0.05533685 -0.01428572
v -0.00402375 0.05539471 -0.01431274
v -0.00396587 0.05533685 -0.01433751
v -0.00110360 0.05508097 -0.01445987
v -0.00080355 0.05517550 -0.01443585
v -0.00065352 0.05507608 -0.01445837
v -0.00098822 0.05475989 -0.01453119
v -0.00305391 0.05509075 -0.01446213
v -0.00305391 0.05517550 -0.01444486
v -0.00290388 0.05517550 -0.01444486
v -0.00290388 0.05532544 -0.01441183
v -0.00230379 0.05532544 -0.01440883
v -0.00050350 0.05532544 -0.01439607
v -0.00017943 0.05532544 -0.01438631
v -0.00035347 0.05547620 -0.01435103
v -0.00020345 0.05547620 -0.01434502
v -0.00017943 0.05545257 -0.01435028
v -0.00125362 0.06268089 -0.00763706
v -0.00110360 0.06277705 -0.00746516
v -0.00125362 0.06262384 -0.00775567
v -0.00125362 0.06287891 -0.00720993
v -0.00065352 0.06256354 -0.00795009
v -0.00140364 0.06186760 -0.00893647
v -0.00125362 0.06246330 -0.00802966
v -0.00125362 0.06258636 -0.00783073
v -0.00140364 0.06228402 -0.00828339
v -0.00136309 0.06245678 -0.00801915
v -0.00146310 0.06245027 -0.00800864
v -0.00140916 0.06249346 -0.00795009
v -0.00065352 0.06248856 -0.00806870
v -0.00065352 0.06238100 -0.00823759
v -0.00065352 0.06226935 -0.00841100
v -0.00065352 0.06219438 -0.00852735
v -0.00080355 0.06201836 -0.00878708
v -0.00095357 0.06184071 -0.00904456
v -0.00149067 0.06110321 -0.01011501
v -0.00154579 0.06106001 -0.01017432
v -0.00159068 0.06109832 -0.01010751
v -0.00170369 0.06092148 -0.01036498
v -0.00155367 0.06133872 -0.00973818
v -0.00017943 0.06256517 -0.00795159
v -0.00035347 0.06256517 -0.00795234
v -0.00050350 0.06256435 -0.00795159
v -0.00135600 0.06290662 -0.00712060
v -0.00157690 0.06299137 -0.00686312
v -0.00143357 0.06301256 -0.00686312
v -0.00140482 0.06293351 -0.00704704
v -0.00170369 0.06296122 -0.00688715
v -0.00390995 0.06246086 -0.00697722
v -0.00380403 0.06253501 -0.00688715
v -0.00382687 0.06254072 -0.00686312
v -0.00380403 0.06247471 -0.00700350
v -0.00395208 0.06226528 -0.00732854
v -0.00399028 0.06214223 -0.00754323
v -0.00410408 0.06212674 -0.00751470
v -0.00411628 0.06205014 -0.00765057
v -0.00420212 0.06203792 -0.00762730
v -0.00420212 0.06214304 -0.00743138
v -0.00405328 0.05475989 -0.01429998
v -0.00400130 0.05475989 -0.01432475
v -0.00420212 0.05544198 -0.01421365
v -0.00380403 0.05532544 -0.01437280
v -0.00365400 0.05517550 -0.01441483
v -0.00353469 0.05475989 -0.01445837
v -0.00357250 0.05475989 -0.01445237
v -0.00365400 0.05475989 -0.01443735
v -0.00368866 0.05475989 -0.01442910
v -0.00380403 0.05475989 -0.01440132
v -0.00383592 0.05475989 -0.01439006
v -0.00420212 0.05547620 -0.01420389
v -0.00420212 0.05556584 -0.01417762
v -0.00420212 0.05557073 -0.01417537
v -0.00410408 0.05559029 -0.01418663
v -0.00396587 0.05546887 -0.01428196
v -0.00392373 0.05541345 -0.01432100
v -0.00185372 0.05532544 -0.01440582
v -0.00080355 0.05532544 -0.01439832
v -0.00128827 0.05475989 -0.01453044
v -0.00320393 0.05507445 -0.01446137
v -0.00320393 0.05517550 -0.01444411
v -0.00173834 0.05475989 -0.01452893
v -0.00203878 0.05475989 -0.01452743
v -0.00248846 0.05475989 -0.01452443
v -0.00278851 0.05475989 -0.01452143
v -0.00305391 0.05532544 -0.01441183
v -0.00275386 0.05547620 -0.01436904
v -0.00245381 0.05547620 -0.01436754
v -0.00050350 0.05547620 -0.01435328
v -0.00050350 0.05565304 -0.01429923
v -0.00035347 0.05604338 -0.01417687
v -0.00020345 0.05556421 -0.01431800
v -0.00017943 0.05556177 -0.01431725
v -0.00140364 0.06272326 -0.00749969
v -0.00140364 0.06275830 -0.00742462
v -0.00140482 0.06287321 -0.00717765
v -0.00140364 0.06261325 -0.00773390
v -0.00140364 0.06265888 -0.00763706
v -0.00050350 0.06248938 -0.00807095
v -0.00050350 0.06244212 -0.00814601
v -0.00050350 0.06231988 -0.00833969
v -0.00140364 0.06199065 -0.00874354
v -0.00170369 0.06126293 -0.00982976
v -0.00140364 0.06257495 -0.00780896
v -0.00155367 0.06168832 -0.00919019
v -0.00155367 0.06198169 -0.00872928
v -0.00140916 0.06241441 -0.00807695
v -0.00155367 0.06244293 -0.00799513
v -0.00185372 0.06213163 -0.00842902
v -0.00260384 0.06171195 -0.00892746
v -0.00269204 0.06170462 -0.00891620
v -0.00170369 0.06231091 -0.00817529
v -0.00184348 0.06225876 -0.00822408
v -0.00178678 0.06230358 -0.00816478
v -0.00035347 0.06202814 -0.00880285
v -0.00035347 0.06198006 -0.00887791
v -0.00050350 0.06209740 -0.00868724
v -0.00050350 0.06202569 -0.00879834
v -0.00065352 0.06202243 -0.00879309
v -0.00080355 0.06189449 -0.00897775
v -0.00095357 0.06171684 -0.00923523
v -0.00140364 0.06098260 -0.01031094
v -0.00156666 0.06084488 -0.01050311
v -0.00162533 0.06080169 -0.01056241
v -0.00170369 0.06079761 -0.01055716
v -0.00185372 0.06072834 -0.01063823
v -0.00185372 0.06078946 -0.01054289
v -0.00020345 0.06249020 -0.00807245
v -0.00017943 0.06226202 -0.00843577
v -0.00020345 0.06238670 -0.00823759
v -0.00035347 0.06249020 -0.00807170
v -0.00172732 0.06296774 -0.00686312
v -0.00155367 0.06289195 -0.00708832
v -0.00170369 0.06291477 -0.00698698
v -0.00185135 0.06293270 -0.00689540
v -0.00380403 0.06254642 -0.00686312
v -0.00365991 0.06257332 -0.00688189
v -0.00365637 0.06248938 -0.00704629
v -0.00380403 0.06232069 -0.00729551
v -0.00394578 0.06211044 -0.00762505
v -0.00407454 0.06201591 -0.00773615
v -0.00420212 0.06201102 -0.00767610
v -0.00380403 0.05543057 -0.01433076
v -0.00365400 0.05545012 -0.01434052
v -0.00365400 0.05532544 -0.01438931
v -0.00350398 0.05517550 -0.01442835
v -0.00308856 0.05475989 -0.01450642
v -0.00320393 0.05475989 -0.01449515
v -0.00335238 0.05475989 -0.01447939
v -0.00345870 0.05475989 -0.01446738
v -0.00347799 0.05475989 -0.01446513
v -0.00420212 0.05574757 -0.01407703
v -0.00410408 0.05566526 -0.01414234
v -0.00410408 0.05586655 -0.01402298
v -0.00381230 0.05563919 -0.01420615
v -0.00334332 0.05578424 -0.01419639
v -0.00170369 0.05547620 -0.01436229
v -0.00335396 0.05517550 -0.01443810
v -0.00293854 0.05475989 -0.01451692
v -0.00305391 0.05475989 -0.01450942
v -0.00350398 0.05532544 -0.01440057
v -0.00335396 0.05532544 -0.01440582
v -0.00320393 0.05532544 -0.01441033
v -0.00230379 0.05567423 -0.01430524
v -0.00290388 0.05547620 -0.01436754
v -0.00245381 0.05567341 -0.01430448
v -0.00110360 0.05592604 -0.01421966
v -0.00095357 0.05612732 -0.01415660
v -0.00080355 0.05605072 -0.01417912
v -0.00050350 0.05622593 -0.01412282
v -0.00035347 0.05622593 -0.01412057
v -0.00020345 0.05563919 -0.01429473
v -0.00020345 0.05592604 -0.01420540
v -0.00017943 0.05577609 -0.01425044
v -0.00147964 0.06275260 -0.00741261
v -0.00159383 0.06259613 -0.00769937
v -0.00153910 0.06271430 -0.00747192
v -0.00035347 0.06238589 -0.00823759
v -0.00035347 0.06232069 -0.00834119
v -0.00035347 0.06227343 -0.00841625
v -0.00035347 0.06215119 -0.00860993
v -0.00185372 0.06108283 -0.01008273
v -0.00170369 0.06253013 -0.00778719
v -0.00155367 0.06248531 -0.00792006
v -0.00170369 0.06247145 -0.00789604
v -0.00159974 0.06214875 -0.00845604
v -0.00200374 0.06124337 -0.00979898
v -0.00185372 0.06159379 -0.00927802
v -0.00155367 0.06227424 -0.00826762
v -0.00170369 0.06214141 -0.00844553
v -0.00170369 0.06242908 -0.00797111
v -0.00185372 0.06188634 -0.00881636
v -0.00215376 0.06181870 -0.00885915
v -0.00245381 0.06172254 -0.00894547
v -0.00275386 0.06157912 -0.00910537
v -0.00290388 0.06156689 -0.00908585
v -0.00210257 0.06215689 -0.00832017
v -0.00279206 0.06169565 -0.00890043
v -0.00188679 0.06229461 -0.00814827
v -0.00020345 0.06202895 -0.00880435
v -0.00020345 0.06198087 -0.00887941
v -0.00035347 0.06185619 -0.00906858
v -0.00046885 0.06185374 -0.00906558
v -0.00056886 0.06185211 -0.00906183
v -0.00065352 0.06189857 -0.00898376
v -0.00080355 0.06184560 -0.00905282
v -0.00095357 0.06148703 -0.00958804
v -0.00125362 0.06111217 -0.01012928
v -0.00140364 0.06093370 -0.01038600
v -0.00152532 0.06080495 -0.01056767
v -0.00170369 0.06067374 -0.01074332
v -0.00170369 0.06074464 -0.01063823
v -0.00215376 0.06076909 -0.01051137
v -0.00185372 0.06066560 -0.01073281
v -0.00201319 0.06069738 -0.01065174
v -0.00199783 0.06090926 -0.01032520
v -0.00017943 0.06210311 -0.00868724
v -0.00020345 0.06210311 -0.00868724
v -0.00185175 0.06294655 -0.00686312
v -0.00179938 0.06290662 -0.00696972
v -0.00199508 0.06292129 -0.00686312
v -0.00197263 0.06292536 -0.00686312
v -0.00170369 0.06276890 -0.00729626
v -0.00189979 0.06289765 -0.00695095
v -0.00367251 0.06257902 -0.00686312
v -0.00357486 0.06260184 -0.00686312
v -0.00350398 0.06258554 -0.00692768
v -0.00365637 0.06241848 -0.00717991
v -0.00380403 0.06216586 -0.00758752
v -0.00350398 0.06252931 -0.00703653
v -0.00350398 0.06247145 -0.00714838
v -0.00334175 0.06225876 -0.00762355
v -0.00350398 0.06231743 -0.00743964
v -0.00350398 0.06216260 -0.00773165
v -0.00388987 0.06215526 -0.00756725
v -0.00380403 0.06212593 -0.00766258
v -0.00381702 0.06204851 -0.00780146
v -0.00395405 0.06203221 -0.00776618
v -0.00387530 0.06200124 -0.00786076
v -0.00375008 0.06185863 -0.00817304
v -0.00385010 0.06184397 -0.00814751
v -0.00411628 0.06197435 -0.00778644
v -0.00417456 0.06200043 -0.00770988
v -0.00420212 0.06198332 -0.00772489
v -0.00353745 0.05554058 -0.01430749
v -0.00343743 0.05555280 -0.01431499
v -0.00245381 0.05631883 -0.01402374
v -0.00290388 0.05597901 -0.01415135
v -0.00349414 0.05548435 -0.01434127
v -0.00420212 0.05578180 -0.01405676
v -0.00419110 0.05585432 -0.01401548
v -0.00410408 0.05594152 -0.01397794
v -0.00215376 0.05691290 -0.01372047
v -0.00140364 0.05716634 -0.01369269
v -0.00170369 0.05684771 -0.01383232
v -0.00125362 0.05718671 -0.01370470
v -0.00335396 0.05547620 -0.01435478
v -0.00320393 0.05547620 -0.01436154
v -0.00305391 0.05547620 -0.01436529
v -0.00125362 0.05612977 -0.01415660
v -0.00110360 0.05612895 -0.01415660
v -0.00275386 0.05559192 -0.01432926
v -0.00260384 0.05567097 -0.01430298
v -0.00140364 0.05612814 -0.01415585
v -0.00050350 0.05637587 -0.01407553
v -0.00035347 0.05637587 -0.01407403
v -0.00020345 0.05610532 -0.01414910
v -0.00017943 0.05590240 -0.01421065
v -0.00170369 0.06258636 -0.00767835
v -0.00182536 0.06261162 -0.00758001
v -0.00200374 0.06107305 -0.01006697
v -0.00181867 0.06246004 -0.00787652
v -0.00186277 0.06249264 -0.00779996
v -0.00200374 0.06232558 -0.00805368
v -0.00200374 0.06147236 -0.00943791
v -0.00215376 0.06128086 -0.00970815
v -0.00230379 0.06139332 -0.00949872
v -0.00245578 0.06151311 -0.00927652
v -0.00260384 0.06154245 -0.00919770
v -0.00260384 0.06158971 -0.00912263
v -0.00275386 0.06153185 -0.00918043
v -0.00290388 0.06152044 -0.00916092
v -0.00299721 0.06155711 -0.00907159
v -0.00290388 0.06162394 -0.00898751
v -0.00230379 0.06208029 -0.00838773
v -0.00220220 0.06214712 -0.00830365
v -0.00290388 0.06168424 -0.00887941
v -0.00282238 0.06185130 -0.00860993
v -0.00251366 0.06199962 -0.00845679
v -0.00245972 0.06196946 -0.00853036
v -0.00017943 0.06202895 -0.00880435
v -0.00017943 0.06198087 -0.00887866
v -0.00017943 0.06190997 -0.00898751
v -0.00020345 0.06190997 -0.00898751
v -0.00020345 0.06185619 -0.00906933
v -0.00035347 0.06173151 -0.00925700
v -0.00050350 0.06172906 -0.00925325
v -0.00051256 0.06181381 -0.00912413
v -0.00065352 0.06179833 -0.00913764
v -0.00065352 0.06167691 -0.00932381
v -0.00080355 0.06167283 -0.00931780
v -0.00080355 0.06159786 -0.00943191
v -0.00080355 0.06149518 -0.00958804
v -0.00095357 0.06129553 -0.00987855
v -0.00110360 0.06111706 -0.01013603
v -0.00125362 0.06106327 -0.01020434
v -0.00125362 0.06093859 -0.01039276
v -0.00125362 0.06098830 -0.01031769
v -0.00140364 0.06080821 -0.01057292
v -0.00140364 0.06075687 -0.01064724
v -0.00155367 0.06067782 -0.01074858
v -0.00170369 0.06062077 -0.01081839
v -0.00185372 0.06061426 -0.01080788
v -0.00215376 0.06069330 -0.01062697
v -0.00230379 0.06068271 -0.01060970
v -0.00231481 0.06076583 -0.01047909
v -0.00237230 0.06080087 -0.01041153
v -0.00245381 0.06096630 -0.01013528
v -0.00245381 0.06113743 -0.00986804
v -0.00215376 0.06111054 -0.00997614
v -0.00204430 0.06094756 -0.01025539
v -0.00196948 0.06065745 -0.01072080
v -0.00215376 0.06064441 -0.01070128
v -0.00200374 0.06291966 -0.00686312
v -0.00200374 0.06288788 -0.00693068
v -0.00181316 0.06275912 -0.00727524
v -0.00350398 0.06261732 -0.00686312
v -0.00340200 0.06259695 -0.00695020
v -0.00364101 0.06210718 -0.00777293
v -0.00334805 0.06248368 -0.00719267
v -0.00320393 0.06227343 -0.00765658
v -0.00317164 0.06216260 -0.00788103
v -0.00305391 0.06208111 -0.00808746
v -0.00327166 0.06215037 -0.00785926
v -0.00335396 0.06218053 -0.00776543
v -0.00335396 0.06208926 -0.00793733
v -0.00350398 0.06212267 -0.00780671
v -0.00351146 0.06204443 -0.00794859
v -0.00346618 0.06201184 -0.00802966
v -0.00377528 0.06201428 -0.00788328
v -0.00344728 0.06185700 -0.00832092
v -0.00354729 0.06184397 -0.00829765
v -0.00365400 0.06182930 -0.00827213
v -0.00350398 0.06168913 -0.00858966
v -0.00414778 0.06184315 -0.00799588
v -0.00404777 0.06185782 -0.00802215
v -0.00420212 0.06194746 -0.00778719
v -0.00420212 0.06185700 -0.00794333
v -0.00335396 0.05556014 -0.01431800
v -0.00215376 0.05643210 -0.01400347
v -0.00269283 0.05600427 -0.01416486
v -0.00420212 0.05586573 -0.01400647
v -0.00420212 0.05592196 -0.01397269
v -0.00392688 0.05616481 -0.01387210
v -0.00380403 0.05618274 -0.01388261
v -0.00355163 0.05629356 -0.01385859
v -0.00158989 0.05734073 -0.01355682
v -0.00140364 0.05736681 -0.01357259
v -0.00101027 0.05749638 -0.01356057
v -0.00090986 0.05751023 -0.01356883
v -0.00116463 0.05719812 -0.01371146
v -0.00080355 0.05752490 -0.01357709
v -0.00320393 0.05557155 -0.01432250
v -0.00305391 0.05557970 -0.01432550
v -0.00290388 0.05558621 -0.01432776
v -0.00080355 0.05637587 -0.01407478
v -0.00065352 0.05637587 -0.01407553
v -0.00275386 0.05566689 -0.01430073
v -0.00155367 0.05612569 -0.01415435
v -0.00095357 0.05637587 -0.01407253
v -0.00050350 0.05650137 -0.01403274
v -0.00035347 0.05650137 -0.01403199
v -0.00020345 0.05648914 -0.01402674
v -0.00020345 0.05637587 -0.01406352
v -0.00017943 0.05620229 -0.01411607
v -0.00017943 0.05602627 -0.01417162
v -0.00186671 0.06257739 -0.00763331
v -0.00200374 0.06259450 -0.00754548
v -0.00215376 0.06261651 -0.00744039
v -0.00215376 0.06272734 -0.00720843
v -0.00191869 0.06245027 -0.00785851
v -0.00200374 0.06248123 -0.00776618
v -0.00200374 0.06254805 -0.00763706
v -0.00230379 0.06213734 -0.00828489
v -0.00230379 0.06217890 -0.00820982
v -0.00245381 0.06131590 -0.00958804
v -0.00260384 0.06148540 -0.00928778
v -0.00275386 0.06146421 -0.00928778
v -0.00283340 0.06140310 -0.00936360
v -0.00293342 0.06139413 -0.00935083
v -0.00311888 0.06169973 -0.00875781
v -0.00306296 0.06167202 -0.00883362
v -0.00301886 0.06171195 -0.00878033
v -0.00290388 0.06179018 -0.00868724
v -0.00290388 0.06172580 -0.00880435
v -0.00306572 0.06121892 -0.00958204
v -0.00312360 0.06125071 -0.00951073
v -0.00304997 0.06150740 -0.00912789
v -0.00309722 0.06154245 -0.00904681
v -0.00336577 0.06167365 -0.00868574
v -0.00290388 0.06184152 -0.00859341
v -0.00294326 0.06199391 -0.00829765
v -0.00289758 0.06203384 -0.00824360
v -0.00275386 0.06201591 -0.00833668
v -0.00245381 0.06216341 -0.00818205
v -0.00017943 0.06185619 -0.00906858
v -0.00020345 0.06180648 -0.00914440
v -0.00020345 0.06173151 -0.00925475
v -0.00035347 0.06168098 -0.00933132
v -0.00050350 0.06155467 -0.00951673
v -0.00064919 0.06151148 -0.00957378
v -0.00095357 0.06124582 -0.00995362
v -0.00110360 0.06106735 -0.01021110
v -0.00125362 0.06087340 -0.01048809
v -0.00095357 0.06112113 -0.01014129
v -0.00110360 0.06099238 -0.01032220
v -0.00125362 0.06075850 -0.01065249
v -0.00140364 0.06068189 -0.01075308
v -0.00125362 0.06081147 -0.01057742
v -0.00155367 0.06062403 -0.01082364
v -0.00170369 0.06054580 -0.01092198
v -0.00185372 0.06053847 -0.01091147
v -0.00200374 0.06052788 -0.01089721
v -0.00215376 0.06051728 -0.01088219
v -0.00215376 0.06058492 -0.01078761
v -0.00230379 0.06063300 -0.01068477
v -0.00260384 0.06065826 -0.01057217
v -0.00245381 0.06073812 -0.01048809
v -0.00245381 0.06079435 -0.01040177
v -0.00260384 0.06107794 -0.00992584
v -0.00259596 0.06120833 -0.00972467
v -0.00260384 0.06142021 -0.00939062
v -0.00208564 0.06290417 -0.00686312
v -0.00349256 0.06261977 -0.00686312
v -0.00330198 0.06260754 -0.00697197
v -0.00275386 0.06259124 -0.00723846
v -0.00304249 0.06256109 -0.00717390
v -0.00291845 0.06249671 -0.00735181
v -0.00291845 0.06242745 -0.00748468
v -0.00305391 0.06244375 -0.00739535
v -0.00305391 0.06229054 -0.00768886
v -0.00305391 0.06213652 -0.00798237
v -0.00263849 0.06214386 -0.00814601
v -0.00305391 0.06202162 -0.00819856
v -0.00315707 0.06200939 -0.00817529
v -0.00335396 0.06198495 -0.00813025
v -0.00335396 0.06192627 -0.00823759
v -0.00323819 0.06184234 -0.00844403
v -0.00320393 0.06157097 -0.00894397
v -0.00329489 0.06155711 -0.00892070
v -0.00396311 0.06167039 -0.00838473
v -0.00391901 0.06171439 -0.00833293
v -0.00420212 0.06171521 -0.00818505
v -0.00155367 0.05679066 -0.01388336
v -0.00203170 0.05644432 -0.01401022
v -0.00170369 0.05677273 -0.01387510
v -0.00106461 0.05721035 -0.01371821
v -0.00193168 0.05645166 -0.01401398
v -0.00260384 0.05600997 -0.01416711
v -0.00420212 0.05604746 -0.01389387
v -0.00402690 0.05615014 -0.01386309
v -0.00280899 0.05674584 -0.01370996
v -0.00270897 0.05675970 -0.01371896
v -0.00170369 0.05732443 -0.01354631
v -0.00084529 0.05779220 -0.01340744
v -0.00074527 0.05780687 -0.01341645
v -0.00065352 0.05781909 -0.01342470
v -0.00065352 0.05772700 -0.01348100
v -0.00080355 0.05759988 -0.01353280
v -0.00065352 0.05761862 -0.01354481
v -0.00305391 0.05565467 -0.01429473
v -0.00275386 0.05577609 -0.01425719
v -0.00065352 0.05649811 -0.01403199
v -0.00215376 0.05602953 -0.01417537
v -0.00200374 0.05603523 -0.01417762
v -0.00170369 0.05612162 -0.01415210
v -0.00095357 0.05648996 -0.01402899
v -0.00080355 0.05649485 -0.01403049
v -0.00035347 0.05657634 -0.01400422
v -0.00050350 0.05657634 -0.01400422
v -0.00020345 0.05667658 -0.01395993
v -0.00020345 0.05656412 -0.01400122
v -0.00017943 0.05648507 -0.01402524
v -0.00017943 0.05637832 -0.01405977
v -0.00017943 0.05622593 -0.01410856
v -0.00215376 0.06257902 -0.00751545
v -0.00225024 0.06260673 -0.00742087
v -0.00229434 0.06271593 -0.00717465
v -0.00216676 0.06287891 -0.00688339
v -0.00222858 0.06230276 -0.00801240
v -0.00215376 0.06246493 -0.00773540
v -0.00215376 0.06251627 -0.00763706
v -0.00232860 0.06229217 -0.00799213
v -0.00228882 0.06232803 -0.00794033
v -0.00264124 0.06124663 -0.00965410
v -0.00290388 0.06127352 -0.00954601
v -0.00275386 0.06123767 -0.00964059
v -0.00275386 0.06111461 -0.00983201
v -0.00305391 0.06108772 -0.00979073
v -0.00305391 0.06113580 -0.00971566
v -0.00306296 0.06174536 -0.00870001
v -0.00305391 0.06186515 -0.00848532
v -0.00326221 0.06064848 -0.01040777
v -0.00331340 0.06081228 -0.01012928
v -0.00335986 0.06084895 -0.01004820
v -0.00328820 0.06110484 -0.00966762
v -0.00320393 0.06128493 -0.00941614
v -0.00316062 0.06141206 -0.00922923
v -0.00320393 0.06152615 -0.00901904
v -0.00253847 0.06215445 -0.00816628
v -0.00017943 0.06180566 -0.00914365
v -0.00017943 0.06173069 -0.00925325
v -0.00017943 0.06167854 -0.00932831
v -0.00026842 0.06155304 -0.00951373
v -0.00035347 0.06155467 -0.00951673
v -0.00035347 0.06160845 -0.00943791
v -0.00050350 0.06150333 -0.00959180
v -0.00080355 0.06124908 -0.00995812
v -0.00110360 0.06094104 -0.01039726
v -0.00095357 0.06106979 -0.01021635
v -0.00095357 0.06094185 -0.01039877
v -0.00110360 0.06081228 -0.01057742
v -0.00125362 0.06068271 -0.01075308
v -0.00140364 0.06062566 -0.01082815
v -0.00155367 0.06054906 -0.01092498
v -0.00170369 0.06048876 -0.01099705
v -0.00185372 0.06048061 -0.01098654
v -0.00200374 0.06046839 -0.01097227
v -0.00226441 0.06050832 -0.01087093
v -0.00231009 0.06055069 -0.01080037
v -0.00277867 0.06064359 -0.01055040
v -0.00245381 0.06061996 -0.01066600
v -0.00273890 0.06068597 -0.01049560
v -0.00260384 0.06083102 -0.01030718
v -0.00230379 0.06285039 -0.00688715
v -0.00247468 0.06282757 -0.00686312
v -0.00335159 0.06264910 -0.00686312
v -0.00320393 0.06266866 -0.00688715
v -0.00290388 0.06261243 -0.00713186
v -0.00266802 0.06260021 -0.00725722
v -0.00305391 0.06269963 -0.00688715
v -0.00245381 0.06258554 -0.00737733
v -0.00275386 0.06254072 -0.00733680
v -0.00245381 0.06247145 -0.00759803
v -0.00275386 0.06228484 -0.00782773
v -0.00290585 0.06218868 -0.00794634
v -0.00245381 0.06227832 -0.00796660
v -0.00359100 0.06155630 -0.00876907
v -0.00394421 0.06158401 -0.00853936
v -0.00420212 0.06171032 -0.00819331
v -0.00140364 0.05687867 -0.01385258
v -0.00140364 0.05680370 -0.01388711
v -0.00050350 0.05763166 -0.01355382
v -0.00095357 0.05721849 -0.01372122
v -0.00140364 0.05667658 -0.01394041
v -0.00140364 0.05654782 -0.01399221
v -0.00140364 0.05647285 -0.01402223
v -0.00420212 0.05612243 -0.01384358
v -0.00320393 0.05661301 -0.01372122
v -0.00299563 0.05690720 -0.01356733
v -0.00225220 0.05735948 -0.01341870
v -0.00086419 0.05824774 -0.01311017
v -0.00080355 0.05806519 -0.01324004
v -0.00065352 0.05817684 -0.01319650
v -0.00039246 0.05839198 -0.01310717
v -0.00056926 0.05809942 -0.01326181
v -0.00184387 0.05743445 -0.01344948
v -0.00046924 0.05811327 -0.01327082
v -0.00050350 0.05783946 -0.01343747
v -0.00050350 0.05772700 -0.01350277
v -0.00200374 0.05611102 -0.01414760
v -0.00095357 0.05656493 -0.01399896
v -0.00080355 0.05656982 -0.01400122
v -0.00035347 0.05667658 -0.01396593
v -0.00050350 0.05667658 -0.01396443
v -0.00017943 0.05667658 -0.01395843
v -0.00020345 0.05682652 -0.01390213
v -0.00017943 0.05655760 -0.01400046
v -0.00235025 0.06259613 -0.00739985
v -0.00256800 0.06261080 -0.00727824
v -0.00245381 0.06262221 -0.00730301
v -0.00230182 0.06263281 -0.00734505
v -0.00265778 0.06274852 -0.00695320
v -0.00245381 0.06276890 -0.00699599
v -0.00234120 0.06244456 -0.00769636
v -0.00290231 0.06106001 -0.00987630
v -0.00296728 0.06080006 -0.01025989
v -0.00305391 0.06084080 -0.01017281
v -0.00275386 0.06099075 -0.01002268
v -0.00290388 0.06068189 -0.01045882
v -0.00320866 0.06069656 -0.01034997
v -0.00316219 0.06065826 -0.01042279
v -0.00320866 0.06061100 -0.01047909
v -0.00336695 0.06055721 -0.01050236
v -0.00335396 0.06063707 -0.01038976
v -0.00335396 0.06068434 -0.01031469
v -0.00347720 0.06066641 -0.01028692
v -0.00345122 0.06095897 -0.00982450
v -0.00335396 0.06097363 -0.00984853
v -0.00341341 0.06079761 -0.01010525
v -0.00350398 0.06128330 -0.00926376
v -0.00335396 0.06142754 -0.00910386
v -0.00361345 0.06081310 -0.00998064
v -0.00350398 0.06152452 -0.00886665
v -0.00017943 0.06159542 -0.00944542
v -0.00017943 0.06154978 -0.00950922
v -0.00020345 0.06142102 -0.00968863
v -0.00035347 0.06124174 -0.00994836
v -0.00050350 0.06124663 -0.00995512
v -0.00050350 0.06137539 -0.00977571
v -0.00065352 0.06124989 -0.00995963
v -0.00050350 0.06142836 -0.00970064
v -0.00080355 0.06112276 -0.01014279
v -0.00095357 0.06099482 -0.01032370
v -0.00080355 0.06106979 -0.01021785
v -0.00080355 0.06099482 -0.01031995
v -0.00080355 0.06093859 -0.01039501
v -0.00095357 0.06080984 -0.01057367
v -0.00110360 0.06075524 -0.01065249
v -0.00125362 0.06062566 -0.01082815
v -0.00125362 0.06049365 -0.01100155
v -0.00140364 0.06055069 -0.01092648
v -0.00155367 0.06049202 -0.01100005
v -0.00155367 0.06042356 -0.01108788
v -0.00155367 0.06035837 -0.01117045
v -0.00165290 0.06035511 -0.01116670
v -0.00185372 0.06040564 -0.01107437
v -0.00215376 0.06038037 -0.01104509
v -0.00215376 0.06045535 -0.01095726
v -0.00231009 0.06045127 -0.01092799
v -0.00236443 0.06049935 -0.01085892
v -0.00290388 0.06063218 -0.01053388
v -0.00274795 0.06277297 -0.00686312
v -0.00291688 0.06273874 -0.00686312
v -0.00275386 0.06268904 -0.00703653
v -0.00275386 0.06273874 -0.00693294
v -0.00365400 0.06097282 -0.00969689
v -0.00394421 0.06150170 -0.00867523
v -0.00418362 0.06155385 -0.00846430
v -0.00420212 0.06165165 -0.00829164
v -0.00095357 0.05712641 -0.01376175
v -0.00110360 0.05697646 -0.01382181
v -0.00095357 0.05682000 -0.01389312
v -0.00110360 0.05667658 -0.01394942
v -0.00035347 0.05785821 -0.01344722
v -0.00035347 0.05772700 -0.01351629
v -0.00035347 0.05763818 -0.01355757
v -0.00050350 0.05755669 -0.01358835
v -0.00420212 0.05623082 -0.01376626
v -0.00410408 0.05631964 -0.01372647
v -0.00355084 0.05674258 -0.01355682
v -0.00383907 0.05643862 -0.01370470
v -0.00270779 0.05721116 -0.01342020
v -0.00125362 0.05784924 -0.01329409
v -0.00185372 0.05775634 -0.01323178
v -0.00122133 0.05811572 -0.01312293
v -0.00047751 0.05856800 -0.01297430
v -0.00035347 0.05858756 -0.01298706
v -0.00050350 0.05837568 -0.01309666
v -0.00140364 0.05772700 -0.01334438
v -0.00029244 0.05840583 -0.01311618
v -0.00035347 0.05820373 -0.01323328
v -0.00035347 0.05802689 -0.01334363
v -0.00035347 0.05793318 -0.01340143
v -0.00065352 0.05667658 -0.01396143
v -0.00035347 0.05682652 -0.01390513
v -0.00035347 0.05691372 -0.01386910
v -0.00017943 0.05682815 -0.01389987
v -0.00020345 0.05691127 -0.01386760
v -0.00017943 0.05690964 -0.01386685
v -0.00305391 0.06066804 -0.01043855
v -0.00305391 0.06061833 -0.01051362
v -0.00320393 0.06052788 -0.01059544
v -0.00332561 0.06051402 -0.01057742
v -0.00342562 0.06050098 -0.01056166
v -0.00350398 0.06054091 -0.01046933
v -0.00351776 0.06062240 -0.01033721
v -0.00357722 0.06065093 -0.01026214
v -0.00365400 0.06092718 -0.00977196
v -0.00371346 0.06079680 -0.00995512
v -0.00017943 0.06136479 -0.00976220
v -0.00035347 0.06117573 -0.01003769
v -0.00050350 0.06111624 -0.01013228
v -0.00065352 0.06112113 -0.01013903
v -0.00065352 0.06106572 -0.01021410
v -0.00065352 0.06099075 -0.01031394
v -0.00040742 0.05975370 -0.01191511
v -0.00080355 0.06003078 -0.01158482
v -0.00095357 0.06016768 -0.01141742
v -0.00110360 0.06017013 -0.01142117
v -0.00125362 0.06042764 -0.01108788
v -0.00140364 0.06049283 -0.01100155
v -0.00140364 0.06036000 -0.01117345
v -0.00125362 0.06022798 -0.01134536
v -0.00125362 0.06016850 -0.01142042
v -0.00140364 0.06022554 -0.01134235
v -0.00140364 0.06016442 -0.01141742
v -0.00155367 0.06022147 -0.01133560
v -0.00170369 0.06021169 -0.01132434
v -0.00175291 0.06034778 -0.01115844
v -0.00184742 0.06025406 -0.01124852
v -0.00215376 0.06031355 -0.01112016
v -0.00230379 0.06036571 -0.01102857
v -0.00189349 0.06019539 -0.01130557
v -0.00239908 0.06035593 -0.01101731
v -0.00245106 0.06040482 -0.01094825
v -0.00260384 0.06047328 -0.01082740
v -0.00295429 0.06049609 -0.01070579
v -0.00285427 0.06050669 -0.01071930
v -0.00275386 0.06051728 -0.01073281
v -0.00260384 0.06039830 -0.01091748
v -0.00290428 0.06054906 -0.01064949
v -0.00410132 0.06135827 -0.00882912
v -0.00414975 0.06139250 -0.00874730
v -0.00420212 0.06140717 -0.00869550
v -0.00420212 0.06157667 -0.00841625
v -0.00065352 0.05712641 -0.01377001
v -0.00065352 0.05697972 -0.01383307
v -0.00079449 0.05696180 -0.01383682
v -0.00065352 0.05730406 -0.01369344
v -0.00065352 0.05682652 -0.01389837
v -0.00073858 0.05690231 -0.01386384
v -0.00020345 0.05814017 -0.01328733
v -0.00020345 0.05802689 -0.01335639
v -0.00020345 0.05794214 -0.01340744
v -0.00020345 0.05786717 -0.01345098
v -0.00017943 0.05772700 -0.01352154
v -0.00017943 0.05764062 -0.01355907
v -0.00035347 0.05756320 -0.01358985
v -0.00420212 0.05628949 -0.01372422
v -0.00136190 0.05871387 -0.01267178
v -0.00194310 0.05810676 -0.01296680
v -0.00155367 0.05842702 -0.01283093
v -0.00229040 0.05773271 -0.01314996
v -0.00091262 0.05886300 -0.01267103
v -0.00201043 0.05771885 -0.01322277
v -0.00140364 0.05808638 -0.01310267
v -0.00051807 0.05862178 -0.01292776
v -0.00050350 0.05882144 -0.01279189
v -0.00035347 0.05866253 -0.01293602
v -0.00020345 0.05868127 -0.01294878
v -0.00020345 0.05860630 -0.01299757
v -0.00020345 0.05848651 -0.01307264
v -0.00020345 0.05821595 -0.01324079
v -0.00050350 0.05682652 -0.01390213
v -0.00020345 0.05698624 -0.01383682
v -0.00020345 0.05724131 -0.01373022
v -0.00020345 0.05712641 -0.01377827
v -0.00017943 0.05756565 -0.01359135
v -0.00017943 0.05698298 -0.01383682
v -0.00305391 0.06054336 -0.01061721
v -0.00305391 0.06048468 -0.01069228
v -0.00336695 0.06045698 -0.01063222
v -0.00350398 0.06048794 -0.01054439
v -0.00358116 0.06020272 -0.01086343
v -0.00370953 0.06004626 -0.01100681
v -0.00380403 0.06009352 -0.01091447
v -0.00395405 0.06006908 -0.01088445
v -0.00365400 0.06051647 -0.01043405
v -0.00373276 0.06050343 -0.01041528
v -0.00365400 0.06057840 -0.01033796
v -0.00365400 0.06063870 -0.01024188
v -0.00365400 0.06068515 -0.01016681
v -0.00384734 0.06094185 -0.00964660
v -0.00376780 0.06066641 -0.01013603
v -0.00017943 0.06123359 -0.00993786
v -0.00020345 0.06129064 -0.00986504
v -0.00035347 0.06111135 -0.01012477
v -0.00030740 0.05974881 -0.01190911
v -0.00035584 0.05970155 -0.01197441
v -0.00035347 0.05961598 -0.01208026
v -0.00050350 0.05975615 -0.01191811
v -0.00065352 0.05989305 -0.01175222
v -0.00095357 0.06009271 -0.01151501
v -0.00095357 0.06003322 -0.01159007
v -0.00110360 0.06009515 -0.01151576
v -0.00125362 0.06030296 -0.01124927
v -0.00125362 0.06009352 -0.01151275
v -0.00140364 0.06008945 -0.01150600
v -0.00155367 0.06015627 -0.01141066
v -0.00179347 0.06020435 -0.01131533
v -0.00155367 0.06008130 -0.01149474
v -0.00230379 0.06029888 -0.01110364
v -0.00215376 0.06023858 -0.01120273
v -0.00200374 0.06018398 -0.01129356
v -0.00230379 0.06022391 -0.01118621
v -0.00170369 0.06006745 -0.01147822
v -0.00246090 0.06027851 -0.01108938
v -0.00249909 0.06034533 -0.01100530
v -0.00260384 0.06033392 -0.01099254
v -0.00275386 0.06045698 -0.01080713
v -0.00275386 0.06038200 -0.01089721
v -0.00420212 0.06126293 -0.00892971
v -0.00017943 0.05821595 -0.01324154
v -0.00017943 0.05802689 -0.01335714
v -0.00017943 0.05794296 -0.01340819
v -0.00017943 0.05786717 -0.01345098
v -0.00017943 0.05784517 -0.01346224
v -0.00420212 0.05634979 -0.01368068
v -0.00410408 0.05639461 -0.01367242
v -0.00420212 0.05713945 -0.01310642
v -0.00216125 0.05892004 -0.01232122
v -0.00107091 0.05901620 -0.01252390
v -0.00080355 0.05913681 -0.01250213
v -0.00072361 0.05914985 -0.01251189
v -0.00101264 0.05884670 -0.01265977
v -0.00420212 0.05644514 -0.01361162
v -0.00420212 0.05652989 -0.01355006
v -0.00080355 0.05888093 -0.01268304
v -0.00037946 0.05883937 -0.01280465
v -0.00033891 0.05878477 -0.01285119
v -0.00027945 0.05885240 -0.01281366
v -0.00020345 0.05877662 -0.01287597
v -0.00017943 0.05876195 -0.01288723
v -0.00017943 0.05868127 -0.01294878
v -0.00017943 0.05866986 -0.01295704
v -0.00017943 0.05860630 -0.01299832
v -0.00017943 0.05858756 -0.01301033
v -0.00017943 0.05847591 -0.01308090
v -0.00017943 0.05710115 -0.01378803
v -0.00017943 0.05724050 -0.01373022
v -0.00017943 0.05730406 -0.01370320
v -0.00290388 0.06036408 -0.01087619
v -0.00298618 0.06035348 -0.01086493
v -0.00304328 0.06039912 -0.01079512
v -0.00308659 0.06034126 -0.01084992
v -0.00320393 0.06032659 -0.01083265
v -0.00335396 0.06023206 -0.01089871
v -0.00390523 0.06021087 -0.01072380
v -0.00400524 0.06019376 -0.01070128
v -0.00377095 0.06036652 -0.01058193
v -0.00365400 0.06046187 -0.01050911
v -0.00403832 0.06005441 -0.01086643
v -0.00360951 0.06005930 -0.01102032
v -0.00310943 0.06004626 -0.01115769
v -0.00290388 0.05991587 -0.01132509
v -0.00364574 0.05997455 -0.01108562
v -0.00380403 0.05986942 -0.01113517
v -0.00380403 0.05995580 -0.01106010
v -0.00404738 0.05975696 -0.01116745
v -0.00414739 0.05974148 -0.01115319
v -0.00395405 0.05992972 -0.01103908
v -0.00405604 0.05991180 -0.01102257
v -0.00380403 0.06003078 -0.01098954
v -0.00335396 0.06016687 -0.01097378
v -0.00320393 0.06018642 -0.01099555
v -0.00311337 0.06019783 -0.01100831
v -0.00395405 0.06000470 -0.01095951
v -0.00391389 0.06051565 -0.01028466
v -0.00395405 0.06067863 -0.01000466
v -0.00386782 0.06064767 -0.01010600
v -0.00381230 0.06061751 -0.01018708
v -0.00387097 0.06034859 -0.01055866
v -0.00410408 0.06022880 -0.01060144
v -0.00420212 0.06021250 -0.01056767
v -0.00410565 0.06030785 -0.01048359
v -0.00405683 0.06036326 -0.01043029
v -0.00395327 0.06084406 -0.00974343
v -0.00390247 0.06081065 -0.00982676
v -0.00017943 0.06113010 -0.01007448
v -0.00024834 0.06110646 -0.01011802
v -0.00017943 0.05973985 -0.01189710
v -0.00018967 0.05965836 -0.01200294
v -0.00023062 0.05960946 -0.01207275
v -0.00017943 0.06110158 -0.01011201
v -0.00035347 0.05955242 -0.01215533
v -0.00050350 0.05961924 -0.01208401
v -0.00050350 0.05969421 -0.01199318
v -0.00065352 0.05975778 -0.01192112
v -0.00080355 0.05989631 -0.01175597
v -0.00080355 0.05995580 -0.01168090
v -0.00080355 0.05982949 -0.01183779
v -0.00110360 0.06003322 -0.01159082
v -0.00110360 0.05995825 -0.01167865
v -0.00125362 0.06002915 -0.01158782
v -0.00110360 0.05989387 -0.01175372
v -0.00125362 0.05995417 -0.01167115
v -0.00140364 0.06002100 -0.01158107
v -0.00125362 0.05988490 -0.01174546
v -0.00140364 0.05994602 -0.01165763
v -0.00155367 0.06000633 -0.01156981
v -0.00252272 0.06020028 -0.01116144
v -0.00179938 0.06005685 -0.01146771
v -0.00260384 0.06025895 -0.01107662
v -0.00275386 0.06031681 -0.01097227
v -0.00275386 0.06024184 -0.01105710
v -0.00417141 0.06109913 -0.00920821
v -0.00420212 0.06111054 -0.00917067
v -0.00420212 0.05881492 -0.01188584
v -0.00420212 0.05888174 -0.01183704
v -0.00366542 0.05909036 -0.01181903
v -0.00335396 0.05910992 -0.01188283
v -0.00186632 0.05909036 -0.01227018
v -0.00140364 0.05913681 -0.01235200
v -0.00122527 0.05916615 -0.01237452
v -0.00110360 0.05918570 -0.01238953
v -0.00095357 0.05920934 -0.01240830
v -0.00095357 0.05928431 -0.01234900
v -0.00086182 0.05929735 -0.01235951
v -0.00076181 0.05930876 -0.01236927
v -0.00062360 0.05916044 -0.01252090
v -0.00050350 0.05917185 -0.01252991
v -0.00035347 0.05901539 -0.01267404
v -0.00035347 0.05909036 -0.01261398
v -0.00020345 0.05885403 -0.01281516
v -0.00017943 0.05885485 -0.01281516
v -0.00290388 0.06029888 -0.01095126
v -0.00410408 0.06017501 -0.01067651
v -0.00413833 0.06003729 -0.01084316
v -0.00409738 0.05997455 -0.01093474
v -0.00300941 0.06006011 -0.01117045
v -0.00275386 0.06017094 -0.01113217
v -0.00275386 0.06009597 -0.01120198
v -0.00176551 0.05974800 -0.01175972
v -0.00185372 0.05973496 -0.01174846
v -0.00308620 0.05988898 -0.01130182
v -0.00215376 0.05969014 -0.01171018
v -0.00233332 0.05958827 -0.01175147
v -0.00336065 0.05952879 -0.01153978
v -0.00410408 0.05951167 -0.01136412
v -0.00410408 0.05958665 -0.01129957
v -0.00410014 0.05968525 -0.01121549
v -0.00420212 0.05973252 -0.01114418
v -0.00420212 0.05949619 -0.01135136
v -0.00420212 0.05957116 -0.01128605
v -0.00420212 0.05977082 -0.01110664
v -0.00420212 0.05980830 -0.01106986
v -0.00415605 0.05989305 -0.01100305
v -0.00290388 0.06022391 -0.01103683
v -0.00260384 0.06019050 -0.01115168
v -0.00401391 0.06049528 -0.01025389
v -0.00395996 0.06055314 -0.01019759
v -0.00404895 0.06065989 -0.00997539
v -0.00400249 0.06079191 -0.00979673
v -0.00420212 0.06020435 -0.01057968
v -0.00420212 0.06035511 -0.01034922
v -0.00415684 0.06034289 -0.01039877
v -0.00410565 0.06039912 -0.01034472
v -0.00410408 0.06047735 -0.01022536
v -0.00017943 0.05965836 -0.01200069
v -0.00017943 0.05960539 -0.01206750
v -0.00017943 0.05956301 -0.01211779
v -0.00020345 0.05946848 -0.01223264
v -0.00035347 0.05947663 -0.01224165
v -0.00050350 0.05955323 -0.01215908
v -0.00065352 0.05962087 -0.01208401
v -0.00065352 0.05969584 -0.01199618
v -0.00080355 0.05975941 -0.01192262
v -0.00095357 0.05975696 -0.01191887
v -0.00103469 0.05975207 -0.01191361
v -0.00113470 0.05974474 -0.01190610
v -0.00125362 0.05980993 -0.01182053
v -0.00140364 0.05987024 -0.01173270
v -0.00140364 0.05979526 -0.01180401
v -0.00170369 0.05991343 -0.01162385
v -0.00200374 0.06003078 -0.01144369
v -0.00420212 0.06081228 -0.00963909
v -0.00410093 0.06069249 -0.00989131
v -0.00420212 0.05908140 -0.01169066
v -0.00372291 0.05914903 -0.01176123
v -0.00260384 0.05913600 -0.01205173
v -0.00252390 0.05914985 -0.01206149
v -0.00302319 0.05916615 -0.01192412
v -0.00170369 0.05918570 -0.01223940
v -0.00126661 0.05922075 -0.01232122
v -0.00155367 0.05928431 -0.01219886
v -0.00150248 0.05945870 -0.01206900
v -0.00140364 0.05947419 -0.01208101
v -0.00125362 0.05949700 -0.01209978
v -0.00125362 0.05957198 -0.01203822
v -0.00099452 0.05944322 -0.01220637
v -0.00110360 0.05959235 -0.01205549
v -0.00102760 0.05960131 -0.01206299
v -0.00065352 0.05931854 -0.01237827
v -0.00050350 0.05924682 -0.01246460
v -0.00035347 0.05918082 -0.01253892
v -0.00017943 0.05891108 -0.01276862
v -0.00420212 0.06006337 -0.01077335
v -0.00420212 0.05988409 -0.01099179
v -0.00420212 0.05995010 -0.01091447
v -0.00420212 0.06002915 -0.01081764
v -0.00250855 0.06004626 -0.01130782
v -0.00240853 0.06006011 -0.01131983
v -0.00155367 0.05977652 -0.01178600
v -0.00140364 0.05971377 -0.01187908
v -0.00140364 0.05963880 -0.01194439
v -0.00155367 0.05961680 -0.01192562
v -0.00173795 0.05958909 -0.01190235
v -0.00275189 0.05951575 -0.01170643
v -0.00376386 0.05931202 -0.01162160
v -0.00410408 0.05942366 -0.01143919
v -0.00420212 0.05940899 -0.01142643
v -0.00414897 0.06063952 -0.00994386
v -0.00420212 0.06045698 -0.01019308
v -0.00419267 0.06050750 -0.01012177
v -0.00017943 0.05945870 -0.01223940
v -0.00020345 0.05940247 -0.01230771
v -0.00020345 0.05932750 -0.01239103
v -0.00035347 0.05940736 -0.01231672
v -0.00050350 0.05947826 -0.01224090
v -0.00080355 0.05961761 -0.01207876
v -0.00080355 0.05969258 -0.01199769
v -0.00092758 0.05960946 -0.01207050
v -0.00125362 0.05973252 -0.01189559
v -0.00420212 0.06061588 -0.00994611
v -0.00420212 0.05914740 -0.01164187
v -0.00420212 0.05916859 -0.01162611
v -0.00350398 0.05918489 -0.01178900
v -0.00170369 0.05926068 -0.01218010
v -0.00275386 0.05928350 -0.01189860
v -0.00245381 0.05932995 -0.01193613
v -0.00210218 0.05945870 -0.01191887
v -0.00140364 0.05954916 -0.01201945
v -0.00080355 0.05946278 -0.01222364
v -0.00065352 0.05939351 -0.01230921
v -0.00050350 0.05932832 -0.01238953
v -0.00035347 0.05925579 -0.01246986
v -0.00020345 0.05918000 -0.01253892
v -0.00020345 0.05909444 -0.01261398
v -0.00020345 0.05901946 -0.01267779
v -0.00017943 0.05900235 -0.01269130
v -0.00305391 0.05932913 -0.01178600
v -0.00326497 0.05929735 -0.01175897
v -0.00395405 0.05928268 -0.01159758
v -0.00420212 0.05930305 -0.01151651
v -0.00420212 0.05933402 -0.01149023
v -0.00410408 0.05934869 -0.01150300
v -0.00420212 0.06049691 -0.01013153
v -0.00420212 0.06051239 -0.01010751
v -0.00017943 0.05938862 -0.01231897
v -0.00017943 0.05932587 -0.01238878
v -0.00017943 0.05931446 -0.01240079
v -0.00020345 0.05925497 -0.01246610
v -0.00035347 0.05933239 -0.01239479
v -0.00050350 0.05940410 -0.01231597
v -0.00065352 0.05947337 -0.01223415
v -0.00420212 0.05920608 -0.01159608
v -0.00290388 0.05925986 -0.01187983
v -0.00017943 0.05917837 -0.01253817
v -0.00017943 0.05909281 -0.01261323
v -0.00420212 0.05923542 -0.01157206
v -0.00017943 0.05924193 -0.01247586
f 1 2 3
f 1 3 4
f 1 4 8
f 1 8 5
f 1 5 11
f 1 11 19
f 1 19 32
f 1 32 49
f 1 49 71
f 1 71 95
f 1 95 137
f 1 137 136
f 1 136 135
f 1 135 195
f 1 195 194
f 1 194 280
f 1 280 367
f 1 367 370
f 1 370 369
f 1 369 472
f 1 472 581
f 1 581 684
f 1 684 781
f 1 781 782
f 1 782 685
f 1 685 582
f 1 582 475
f 1 475 374
f 1 374 373
f 1 373 284
f 1 284 200
f 1 200 139
f 1 139 96
f 1 96 72
f 1 72 51
f 1 51 38
f 1 38 37
f 1 37 36
f 1 36 35
f 1 35 33
f 1 33 20
f 1 20 12
f 1 12 6
f 1 6 2
f 2 6 13
f 2 13 22
f 2 22 39
f 2 39 58
f 2 58 79
f 2 79 108
f 2 108 163
f 2 163 166
f 2 166 241
f 2 241 322
f 2 322 416
f 2 416 524
f 2 524 523
f 2 523 633
f 2 633 632
f 2 632 631
f 2 631 726
f 2 726 724
f 2 724 816
f 2 816 818
f 2 818 898
f 2 898 968
f 2 968 969
f 2 969 970
f 2 970 897
f 2 897 876
f 2 876 875
f 2 875 946
f 2 946 945
f 2 945 944
f 2 944 943
f 2 943 942
f 2 942 967
f 2 967 966
f 2 966 965
f 2 965 964
f 2 964 963
f 2 963 962
f 2 962 1054
f 2 1054 1125
f 2 1125 1169
f 2 1169 1188
f 2 1188 1187
f 2 1187 1190
f 2 1190 1180
f 2 1180 1179
f 2 1179 1178
f 2 1178 1144
f 2 1144 1090
f 2 1090 1089
f 2 1089 1088
f 2 1088 1010
f 2 1010 1013
f 2 1013 1008
f 2 1008 914
f 2 914 829
f 2 829 754
f 2 754 753
f 2 753 661
f 2 661 660
f 2 660 659
f 2 659 554
f 2 554 441
f 2 441 440
f 2 440 439
f 2 439 365
f 2 365 277
f 2 277 190
f 2 190 130
f 2 130 89
f 2 89 67
f 2 67 66
f 2 66 43
f 2 43 40
f 2 40 23
f 2 23 14
f 2 14 7
f 2 7 3
f 3 7 4
f 4 7 9
f 4 9 10
f 4 10 8
f 5 8 11
f 6 12 13
f 7 14 9
f 8 10 18
f 8 18 15
f 8 15 11
f 9 14 16
f 9 16 10
f 10 17 18
f 10 16 17
f 11 15 25
f 11 25 19
f 12 20 21
f 12 21 13
f 13 21 22
f 14 23 24
f 14 24 16
f 15 18 31
f 15 31 25
f 16 26 17
f 16 24 27
f 16 27 28
f 16 28 29
f 16 29 26
f 17 30 31
f 17 31 18
f 17 26 30
f 19 25 31
f 19 31 32
f 20 33 21
f 21 34 50
f 21 50 55
f 21 55 54
f 21 54 53
f 21 53 52
f 21 52 74
f 21 74 101
f 21 101 144
f 21 144 208
f 21 208 209
f 21 209 149
f 21 149 218
f 21 218 217
f 21 217 216
f 21 216 215
f 21 215 214
f 21 214 213
f 21 213 299
f 21 299 298
f 21 298 297
f 21 297 296
f 21 296 295
f 21 295 308
f 21 308 307
f 21 307 233
f 21 233 232
f 21 232 231
f 21 231 230
f 21 230 227
f 21 227 156
f 21 156 104
f 21 104 75
f 21 75 56
f 21 56 39
f 21 39 22
f 21 33 35
f 21 35 36
f 21 36 37
f 21 37 38
f 21 38 34
f 23 40 27
f 23 27 24
f 26 41 30
f 26 29 42
f 26 42 41
f 27 40 43
f 27 43 44
f 27 44 45
f 27 45 28
f 28 45 46
f 28 46 29
f 29 46 42
f 30 41 31
f 31 41 47
f 31 47 48
f 31 48 32
f 32 48 49
f 34 38 50
f 38 51 73
f 38 73 100
f 38 100 143
f 38 143 207
f 38 207 206
f 38 206 290
f 38 290 392
f 38 392 495
f 38 495 496
f 38 496 601
f 38 601 698
f 38 698 788
f 38 788 864
f 38 864 863
f 38 863 941
f 38 941 1036
f 38 1036 1105
f 38 1105 1153
f 38 1153 1177
f 38 1177 1176
f 38 1176 1142
f 38 1142 1084
f 38 1084 1003
f 38 1003 1083
f 38 1083 1126
f 38 1126 1129
f 38 1129 1128
f 38 1128 1127
f 38 1127 1075
f 38 1075 1074
f 38 1074 1071
f 38 1071 1073
f 38 1073 1072
f 38 1072 1140
f 38 1140 1174
f 38 1174 1173
f 38 1173 1189
f 38 1189 1185
f 38 1185 1155
f 38 1155 1154
f 38 1154 1107
f 38 1107 1038
f 38 1038 1037
f 38 1037 949
f 38 949 956
f 38 956 955
f 38 955 947
f 38 947 878
f 38 878 797
f 38 797 706
f 38 706 608
f 38 608 501
f 38 501 500
f 38 500 398
f 38 398 300
f 38 300 221
f 38 221 220
f 38 220 219
f 38 219 210
f 38 210 146
f 38 146 102
f 38 102 74
f 38 74 52
f 38 52 53
f 38 53 54
f 38 54 55
f 38 55 50
f 39 56 57
f 39 57 58
f 41 59 47
f 41 42 60
f 41 60 59
f 42 46 61
f 42 61 62
f 42 62 63
f 42 63 64
f 42 64 65
f 42 65 60
f 43 66 44
f 44 66 67
f 44 67 68
f 44 68 45
f 45 68 61
f 45 61 46
f 47 59 69
f 47 69 48
f 48 69 70
f 48 70 49
f 49 70 71
f 51 72 73
f 56 75 76
f 56 76 57
f 57 76 77
f 57 77 78
f 57 78 108
f 57 108 79
f 57 79 58
f 59 80 69
f 59 60 80
f 60 65 81
f 60 81 82
f 60 82 83
f 60 83 80
f 61 68 84
f 61 84 62
f 62 84 85
f 62 85 86
f 62 86 63
f 63 81 64
f 63 86 87
f 63 87 81
f 64 81 65
f 67 88 68
f 67 89 88
f 68 88 89
f 68 89 90
f 68 90 91
f 68 91 84
f 69 80 92
f 69 92 93
f 69 93 70
f 70 93 71
f 71 93 94
f 71 94 95
f 72 96 97
f 72 97 98
f 72 98 99
f 72 99 73
f 73 99 100
f 74 102 103
f 74 103 101
f 75 104 76
f 76 104 105
f 76 105 106
f 76 106 77
f 77 106 107
f 77 107 78
f 78 107 109
f 78 109 110
f 78 110 108
f 80 111 92
f 80 83 116
f 80 116 111
f 81 112 113
f 81 113 82
f 81 87 114
f 81 114 115
f 81 115 112
f 82 113 116
f 82 116 83
f 84 91 85
f 85 91 117
f 85 117 118
f 85 118 86
f 86 118 87
f 87 119 120
f 87 120 121
f 87 121 122
f 87 122 115
f 87 115 114
f 87 118 123
f 87 123 124
f 87 124 125
f 87 125 126
f 87 126 127
f 87 127 128
f 87 128 129
f 87 129 119
f 89 130 131
f 89 131 90
f 90 131 91
f 91 131 132
f 91 132 117
f 92 111 133
f 92 133 94
f 92 94 93
f 94 134 135
f 94 135 136
f 94 136 137
f 94 137 95
f 94 133 134
f 96 138 97
f 96 139 138
f 97 138 140
f 97 140 141
f 97 141 142
f 97 142 99
f 97 99 98
f 99 142 143
f 99 143 100
f 101 103 145
f 101 145 144
f 102 146 103
f 103 147 148
f 103 148 149
f 103 149 145
f 103 146 150
f 103 150 151
f 103 151 152
f 103 152 147
f 104 153 154
f 104 154 155
f 104 155 105
f 104 156 157
f 104 157 158
f 104 158 159
f 104 159 160
f 104 160 161
f 104 161 153
f 105 155 106
f 106 155 154
f 106 154 226
f 106 226 162
f 106 162 109
f 106 109 107
f 108 110 163
f 109 162 237
f 109 237 164
f 109 164 165
f 109 165 110
f 110 165 166
f 110 166 163
f 111 116 133
f 112 167 168
f 112 168 113
f 112 115 169
f 112 169 167
f 113 168 116
f 115 122 174
f 115 174 169
f 116 170 133
f 116 168 167
f 116 167 170
f 117 132 192
f 117 192 171
f 117 171 118
f 118 171 123
f 119 172 120
f 119 129 172
f 120 173 121
f 120 172 173
f 121 174 122
f 121 173 175
f 121 175 176
f 121 176 177
f 121 177 178
f 121 178 174
f 123 171 179
f 123 179 180
f 123 180 124
f 124 180 125
f 125 180 126
f 126 180 181
f 126 181 182
f 126 182 183
f 126 183 184
f 126 184 127
f 127 184 185
f 127 185 186
f 127 186 128
f 128 186 129
f 129 186 187
f 129 187 188
f 129 188 189
f 129 189 172
f 130 190 131
f 131 190 191
f 131 191 192
f 131 192 132
f 133 170 193
f 133 193 134
f 134 194 195
f 134 195 135
f 134 193 196
f 134 196 197
f 134 197 194
f 138 198 140
f 138 139 199
f 138 199 198
f 139 200 199
f 140 198 201
f 140 201 202
f 140 202 141
f 141 202 203
f 141 203 204
f 141 204 142
f 142 204 205
f 142 205 206
f 142 206 207
f 142 207 143
f 144 145 208
f 145 149 209
f 145 209 208
f 146 210 150
f 147 152 211
f 147 211 212
f 147 212 213
f 147 213 214
f 147 214 215
f 147 215 216
f 147 216 217
f 147 217 148
f 148 217 218
f 148 218 149
f 150 210 151
f 151 210 219
f 151 219 220
f 151 220 221
f 151 221 222
f 151 222 223
f 151 223 224
f 151 224 211
f 151 211 152
f 153 161 154
f 154 161 225
f 154 225 226
f 156 227 157
f 157 228 229
f 157 229 158
f 157 227 230
f 157 230 231
f 157 231 232
f 157 232 233
f 157 233 228
f 158 229 234
f 158 234 160
f 158 160 159
f 160 234 235
f 160 235 236
f 160 236 161
f 161 236 225
f 162 226 305
f 162 305 237
f 164 237 238
f 164 238 239
f 164 239 240
f 164 240 165
f 165 240 241
f 165 241 166
f 167 242 243
f 167 243 244
f 167 244 193
f 167 193 170
f 167 169 245
f 167 245 246
f 167 246 242
f 169 174 245
f 171 192 247
f 171 247 248
f 171 248 249
f 171 249 179
f 172 250 173
f 172 189 188
f 172 188 251
f 172 251 253
f 172 253 250
f 173 250 175
f 174 178 252
f 174 252 245
f 175 250 253
f 175 253 251
f 175 251 254
f 175 254 255
f 175 255 176
f 176 255 177
f 177 256 178
f 177 255 257
f 177 257 258
f 177 258 259
f 177 259 260
f 177 260 261
f 177 261 262
f 177 262 256
f 178 256 252
f 179 249 180
f 180 249 263
f 180 263 264
f 180 264 265
f 180 265 181
f 181 265 182
f 182 265 266
f 182 266 267
f 182 267 183
f 183 267 353
f 183 353 268
f 183 268 269
f 183 269 184
f 184 269 185
f 185 270 271
f 185 271 272
f 185 272 186
f 185 269 270
f 186 272 273
f 186 273 188
f 186 188 187
f 188 273 274
f 188 274 275
f 188 275 251
f 190 276 191
f 190 277 276
f 191 276 278
f 191 278 279
f 191 279 247
f 191 247 192
f 193 244 196
f 194 197 280
f 196 244 281
f 196 281 197
f 197 281 282
f 197 282 283
f 197 283 280
f 198 199 201
f 199 200 284
f 199 284 285
f 199 285 286
f 199 286 201
f 201 286 287
f 201 287 202
f 202 287 203
f 203 288 204
f 203 287 288
f 204 288 289
f 204 289 205
f 205 289 206
f 206 289 290
f 211 224 291
f 211 291 292
f 211 292 293
f 211 293 212
f 212 294 295
f 212 295 296
f 212 296 297
f 212 297 298
f 212 298 299
f 212 299 213
f 212 293 294
f 221 300 222
f 222 300 223
f 223 291 224
f 223 300 301
f 223 301 302
f 223 302 303
f 223 303 304
f 223 304 291
f 225 236 305
f 225 305 226
f 228 294 306
f 228 306 229
f 228 233 307
f 228 307 308
f 228 308 294
f 229 306 309
f 229 309 310
f 229 310 311
f 229 311 234
f 234 311 313
f 234 313 235
f 235 312 236
f 235 313 314
f 235 314 312
f 236 315 305
f 236 312 316
f 236 316 315
f 237 305 238
f 238 305 315
f 238 315 317
f 238 317 318
f 238 318 239
f 239 318 319
f 239 319 240
f 240 320 241
f 240 319 414
f 240 414 320
f 241 320 321
f 241 321 322
f 242 323 243
f 242 246 323
f 243 323 244
f 244 323 281
f 245 252 324
f 245 324 325
f 245 325 323
f 245 323 246
f 247 279 326
f 247 326 327
f 247 327 328
f 247 328 248
f 248 328 329
f 248 329 249
f 249 329 263
f 251 330 254
f 251 275 330
f 252 331 324
f 252 256 332
f 252 332 333
f 252 333 331
f 254 334 255
f 254 330 335
f 254 335 336
f 254 336 334
f 255 334 337
f 255 337 338
f 255 338 257
f 256 339 333
f 256 333 332
f 256 262 339
f 257 338 340
f 257 340 341
f 257 341 342
f 257 342 258
f 258 342 343
f 258 343 344
f 258 344 259
f 259 345 262
f 259 262 261
f 259 261 260
f 259 344 346
f 259 346 345
f 262 345 347
f 262 347 339
f 263 329 348
f 263 348 349
f 263 349 264
f 264 266 265
f 264 349 350
f 264 350 351
f 264 351 266
f 266 351 352
f 266 352 267
f 267 352 353
f 268 353 447
f 268 447 354
f 268 354 355
f 268 355 269
f 269 355 454
f 269 454 356
f 269 356 270
f 270 356 454
f 270 454 357
f 270 357 271
f 271 357 272
f 272 357 358
f 272 358 359
f 272 359 360
f 272 360 273
f 273 360 274
f 274 361 275
f 274 360 362
f 274 362 363
f 274 363 361
f 275 361 364
f 275 364 330
f 276 277 278
f 277 365 366
f 277 366 329
f 277 329 328
f 277 328 278
f 278 326 279
f 278 328 327
f 278 327 326
f 280 283 367
f 281 323 282
f 282 368 283
f 282 323 368
f 283 369 370
f 283 370 367
f 283 368 371
f 283 371 372
f 283 372 369
f 284 373 285
f 285 373 374
f 285 374 375
f 285 375 286
f 286 376 377
f 286 377 287
f 286 375 378
f 286 378 379
f 286 379 380
f 286 380 381
f 286 381 382
f 286 382 376
f 287 377 383
f 287 383 288
f 288 383 384
f 288 384 385
f 288 385 386
f 288 386 289
f 289 387 388
f 289 388 389
f 289 389 390
f 289 390 391
f 289 391 290
f 289 386 387
f 290 391 392
f 291 393 394
f 291 394 292
f 291 304 395
f 291 395 396
f 291 396 393
f 292 394 397
f 292 397 293
f 293 397 309
f 293 309 294
f 294 308 295
f 294 309 306
f 300 398 301
f 301 398 302
f 302 398 399
f 302 399 400
f 302 400 401
f 302 401 303
f 303 401 402
f 303 402 304
f 304 403 395
f 304 402 404
f 304 404 403
f 309 397 405
f 309 405 406
f 309 406 310
f 310 406 311
f 311 406 407
f 311 407 313
f 312 408 409
f 312 409 316
f 312 314 408
f 313 407 410
f 313 410 314
f 314 410 411
f 314 411 517
f 314 517 412
f 314 412 408
f 315 316 317
f 316 409 413
f 316 413 318
f 316 318 317
f 318 413 414
f 318 414 319
f 320 414 321
f 321 414 415
f 321 415 322
f 322 415 416
f 323 325 371
f 323 371 368
f 324 331 417
f 324 417 418
f 324 418 371
f 324 371 325
f 329 366 348
f 330 364 419
f 330 419 335
f 331 333 420
f 331 420 421
f 331 421 417
f 333 339 347
f 333 347 345
f 333 345 422
f 333 422 420
f 334 338 337
f 334 336 423
f 334 423 340
f 334 340 338
f 335 419 468
f 335 468 424
f 335 424 423
f 335 423 336
f 340 423 425
f 340 425 341
f 341 425 426
f 341 426 427
f 341 427 342
f 342 427 428
f 342 428 343
f 343 428 427
f 343 427 429
f 343 429 430
f 343 430 344
f 344 430 431
f 344 431 432
f 344 432 346
f 345 433 434
f 345 434 422
f 345 346 433
f 346 432 435
f 346 435 436
f 346 436 437
f 346 437 438
f 346 438 433
f 348 366 365
f 348 365 439
f 348 439 349
f 349 439 440
f 349 440 441
f 349 441 442
f 349 442 350
f 350 443 444
f 350 444 445
f 350 445 446
f 350 446 351
f 350 442 443
f 351 446 352
f 352 447 353
f 352 446 448
f 352 448 447
f 354 447 449
f 354 449 355
f 355 449 450
f 355 450 451
f 355 451 452
f 355 452 453
f 355 453 454
f 357 455 358
f 357 454 456
f 357 456 455
f 358 457 359
f 358 455 457
f 359 458 459
f 359 459 460
f 359 460 461
f 359 461 362
f 359 362 360
f 359 457 458
f 361 363 462
f 361 462 463
f 361 463 464
f 361 464 465
f 361 465 466
f 361 466 467
f 361 467 468
f 361 468 469
f 361 469 364
f 362 470 363
f 362 461 470
f 363 470 471
f 363 471 462
f 364 469 419
f 369 372 473
f 369 473 472
f 371 474 372
f 371 418 474
f 372 474 418
f 372 418 473
f 374 475 476
f 374 476 375
f 375 476 378
f 376 382 377
f 377 382 477
f 377 477 384
f 377 384 383
f 378 476 379
f 379 476 478
f 379 478 479
f 379 479 380
f 380 479 480
f 380 480 481
f 380 481 482
f 380 482 483
f 380 483 382
f 380 382 381
f 382 483 484
f 382 484 485
f 382 485 477
f 384 477 385
f 385 477 484
f 385 484 486
f 385 486 487
f 385 487 488
f 385 488 387
f 385 387 386
f 387 488 489
f 387 489 490
f 387 490 431
f 387 431 491
f 387 491 388
f 388 491 492
f 388 492 389
f 389 493 494
f 389 494 390
f 389 492 493
f 390 495 392
f 390 392 391
f 390 494 493
f 390 493 496
f 390 496 495
f 393 396 394
f 394 497 397
f 394 396 498
f 394 498 499
f 394 499 497
f 395 403 498
f 395 498 396
f 397 497 405
f 398 500 399
f 399 500 501
f 399 501 400
f 400 502 503
f 400 503 504
f 400 504 401
f 400 501 502
f 401 504 505
f 401 505 506
f 401 506 507
f 401 507 508
f 401 508 402
f 402 508 404
f 403 404 509
f 403 509 498
f 404 508 510
f 404 510 509
f 405 497 511
f 405 511 406
f 406 511 512
f 406 512 516
f 406 516 513
f 406 513 407
f 407 513 410
f 408 412 514
f 408 514 515
f 408 515 413
f 408 413 409
f 410 513 411
f 411 513 516
f 411 516 624
f 411 624 517
f 412 517 518
f 412 518 514
f 413 515 519
f 413 519 520
f 413 520 414
f 414 520 521
f 414 521 522
f 414 522 415
f 415 522 523
f 415 523 524
f 415 524 416
f 417 421 525
f 417 525 418
f 418 525 526
f 418 526 527
f 418 527 528
f 418 528 473
f 419 469 468
f 420 529 421
f 420 422 529
f 421 529 530
f 421 530 531
f 421 531 525
f 422 434 433
f 422 433 532
f 422 532 533
f 422 533 529
f 423 424 425
f 424 534 425
f 424 468 534
f 425 534 426
f 426 534 535
f 426 535 427
f 427 535 536
f 427 536 429
f 429 536 430
f 430 536 537
f 430 537 538
f 430 538 431
f 431 539 540
f 431 540 541
f 431 541 542
f 431 542 543
f 431 543 435
f 431 435 432
f 431 538 544
f 431 544 545
f 431 545 546
f 431 546 547
f 431 547 548
f 431 548 491
f 431 490 539
f 433 438 437
f 433 437 532
f 435 543 436
f 436 543 542
f 436 542 549
f 436 549 550
f 436 550 551
f 436 551 552
f 436 552 553
f 436 553 437
f 437 553 533
f 437 533 532
f 441 554 555
f 441 555 443
f 441 443 442
f 443 555 444
f 444 555 556
f 444 556 557
f 444 557 558
f 444 558 445
f 445 558 448
f 445 448 446
f 447 448 449
f 448 558 559
f 448 559 451
f 448 451 450
f 448 450 449
f 451 559 560
f 451 560 452
f 452 560 561
f 452 561 453
f 453 561 455
f 453 455 456
f 453 456 454
f 455 562 457
f 455 561 563
f 455 563 564
f 455 564 562
f 457 562 458
f 458 565 566
f 458 566 459
f 458 562 567
f 458 567 565
f 459 566 460
f 460 568 569
f 460 569 461
f 460 566 568
f 461 569 570
f 461 570 571
f 461 571 572
f 461 572 573
f 461 573 471
f 461 471 470
f 462 471 463
f 463 471 574
f 463 574 575
f 463 575 576
f 463 576 577
f 463 577 465
f 463 465 464
f 465 578 466
f 465 577 578
f 466 578 579
f 466 579 467
f 467 579 536
f 467 536 580
f 467 580 534
f 467 534 468
f 471 573 574
f 472 473 581
f 473 528 581
f 475 582 476
f 476 582 583
f 476 583 584
f 476 584 585
f 476 585 586
f 476 586 478
f 477 485 484
f 478 586 587
f 478 587 588
f 478 588 589
f 478 589 479
f 479 589 590
f 479 590 480
f 480 590 481
f 481 484 482
f 481 590 591
f 481 591 551
f 481 551 592
f 481 592 593
f 481 593 484
f 482 484 483
f 484 593 486
f 486 593 487
f 487 593 594
f 487 594 595
f 487 595 488
f 488 595 596
f 488 596 489
f 489 596 539
f 489 539 490
f 491 548 492
f 492 548 547
f 492 547 597
f 492 597 598
f 492 598 599
f 492 599 600
f 492 600 493
f 493 600 601
f 493 601 496
f 497 499 511
f 498 602 603
f 498 603 499
f 498 509 604
f 498 604 605
f 498 605 602
f 499 603 606
f 499 606 607
f 499 607 511
f 501 608 609
f 501 609 502
f 502 504 503
f 502 609 610
f 502 610 504
f 504 610 611
f 504 611 505
f 505 612 613
f 505 613 614
f 505 614 615
f 505 615 616
f 505 616 617
f 505 617 506
f 505 611 610
f 505 610 612
f 506 617 507
f 507 617 508
f 508 617 510
f 509 510 605
f 509 605 604
f 510 617 616
f 510 616 618
f 510 618 605
f 511 619 512
f 511 607 606
f 511 606 619
f 512 619 606
f 512 606 620
f 512 620 516
f 514 518 621
f 514 621 519
f 514 519 515
f 516 620 622
f 516 622 623
f 516 623 625
f 516 625 624
f 517 624 625
f 517 625 518
f 518 625 626
f 518 626 621
f 519 627 520
f 519 621 628
f 519 628 627
f 520 627 629
f 520 629 630
f 520 630 521
f 521 631 522
f 521 630 631
f 522 631 632
f 522 632 633
f 522 633 523
f 525 531 526
f 526 531 634
f 526 634 635
f 526 635 527
f 527 635 636
f 527 636 528
f 528 636 637
f 528 637 581
f 529 533 638
f 529 638 530
f 530 639 640
f 530 640 531
f 530 638 641
f 530 641 642
f 530 642 639
f 531 640 634
f 533 553 638
f 534 580 535
f 535 580 536
f 536 579 643
f 536 643 537
f 537 644 538
f 537 643 645
f 537 645 646
f 537 646 644
f 538 644 647
f 538 647 648
f 538 648 544
f 539 596 540
f 540 596 649
f 540 649 541
f 541 649 650
f 541 650 542
f 542 650 549
f 544 648 647
f 544 647 651
f 544 651 545
f 545 652 653
f 545 653 654
f 545 654 655
f 545 655 546
f 545 651 652
f 546 656 547
f 546 655 656
f 547 598 597
f 547 656 657
f 547 657 598
f 549 650 550
f 550 650 592
f 550 592 551
f 551 591 552
f 552 591 658
f 552 658 553
f 553 658 638
f 554 659 555
f 555 659 556
f 556 659 660
f 556 660 661
f 556 661 662
f 556 662 663
f 556 663 664
f 556 664 557
f 557 664 558
f 558 664 663
f 558 663 665
f 558 665 666
f 558 666 559
f 559 666 563
f 559 563 560
f 560 563 561
f 562 564 667
f 562 667 567
f 563 668 667
f 563 667 564
f 563 666 668
f 565 669 670
f 565 670 671
f 565 671 672
f 565 672 566
f 565 567 667
f 565 667 669
f 566 672 673
f 566 673 569
f 566 569 568
f 569 673 771
f 569 771 674
f 569 674 570
f 570 674 675
f 570 675 571
f 571 675 572
f 572 675 676
f 572 676 677
f 572 677 573
f 573 677 678
f 573 678 574
f 574 679 575
f 574 678 680
f 574 680 679
f 575 679 576
f 576 679 681
f 576 681 577
f 577 681 682
f 577 682 646
f 577 646 578
f 578 646 645
f 578 645 643
f 578 643 579
f 581 637 683
f 581 683 684
f 582 685 686
f 582 686 583
f 583 687 688
f 583 688 584
f 583 686 689
f 583 689 687
f 584 690 691
f 584 691 585
f 584 688 690
f 585 691 586
f 586 691 692
f 586 692 587
f 587 692 693
f 587 693 589
f 587 589 588
f 589 693 591
f 589 591 694
f 589 694 590
f 590 694 591
f 591 693 692
f 591 692 695
f 591 695 641
f 591 641 638
f 591 638 658
f 592 650 593
f 593 650 596
f 593 596 594
f 594 596 595
f 596 650 649
f 598 696 599
f 598 657 696
f 599 696 697
f 599 697 698
f 599 698 601
f 599 601 600
f 602 699 700
f 602 700 606
f 602 606 603
f 602 605 699
f 605 618 701
f 605 701 702
f 605 702 699
f 606 700 703
f 606 703 704
f 606 704 705
f 606 705 622
f 606 622 620
f 608 706 609
f 609 707 610
f 609 706 708
f 609 708 709
f 609 709 710
f 609 710 707
f 610 707 612
f 612 707 613
f 613 711 712
f 613 712 713
f 613 713 714
f 613 714 614
f 613 707 715
f 613 715 711
f 614 714 716
f 614 716 615
f 615 716 717
f 615 717 616
f 616 717 618
f 618 717 718
f 618 718 701
f 621 626 721
f 621 721 628
f 622 705 719
f 622 719 623
f 623 719 625
f 625 719 705
f 625 705 704
f 625 704 720
f 625 720 721
f 625 721 626
f 627 628 722
f 627 722 629
f 628 721 723
f 628 723 722
f 629 724 630
f 629 722 725
f 629 725 724
f 630 724 726
f 630 726 631
f 634 690 727
f 634 727 635
f 634 640 690
f 635 728 729
f 635 729 730
f 635 730 636
f 635 727 688
f 635 688 728
f 636 731 732
f 636 732 683
f 636 683 637
f 636 730 731
f 639 733 692
f 639 692 640
f 639 642 695
f 639 695 733
f 640 692 690
f 641 695 642
f 644 646 734
f 644 734 735
f 644 735 736
f 644 736 647
f 646 682 737
f 646 737 738
f 646 738 735
f 646 735 734
f 647 736 739
f 647 739 651
f 651 739 740
f 651 740 741
f 651 741 742
f 651 742 743
f 651 743 652
f 652 743 744
f 652 744 745
f 652 745 653
f 653 746 747
f 653 747 654
f 653 745 748
f 653 748 746
f 654 747 746
f 654 746 655
f 655 749 750
f 655 750 657
f 655 657 656
f 655 746 751
f 655 751 749
f 657 750 752
f 657 752 696
f 661 753 662
f 662 753 754
f 662 754 755
f 662 755 756
f 662 756 757
f 662 757 663
f 663 757 758
f 663 758 759
f 663 759 760
f 663 760 665
f 665 760 759
f 665 759 761
f 665 761 666
f 666 761 668
f 667 668 762
f 667 762 669
f 668 761 762
f 669 762 761
f 669 761 763
f 669 763 764
f 669 764 765
f 669 765 766
f 669 766 670
f 670 766 767
f 670 767 768
f 670 768 671
f 671 768 672
f 672 768 769
f 672 769 770
f 672 770 771
f 672 771 673
f 674 771 772
f 674 772 773
f 674 773 774
f 674 774 675
f 675 774 775
f 675 775 676
f 676 775 776
f 676 776 777
f 676 777 677
f 677 777 778
f 677 778 779
f 677 779 678
f 678 779 679
f 678 679 680
f 679 738 681
f 679 779 780
f 679 780 738
f 681 738 737
f 681 737 682
f 683 732 731
f 683 731 684
f 684 731 781
f 685 782 689
f 685 689 686
f 687 728 688
f 687 689 728
f 688 727 690
f 689 783 729
f 689 729 728
f 689 782 781
f 689 781 784
f 689 784 783
f 690 692 691
f 692 733 695
f 696 752 785
f 696 785 786
f 696 786 697
f 697 786 787
f 697 787 788
f 697 788 698
f 699 702 700
f 700 702 789
f 700 789 790
f 700 790 791
f 700 791 792
f 700 792 703
f 701 718 793
f 701 793 794
f 701 794 795
f 701 795 796
f 701 796 702
f 702 796 789
f 703 792 720
f 703 720 704
f 706 797 798
f 706 798 799
f 706 799 800
f 706 800 801
f 706 801 708
f 707 710 802
f 707 802 715
f 708 801 803
f 708 803 709
f 709 803 804
f 709 804 805
f 709 805 710
f 710 805 806
f 710 806 807
f 710 807 802
f 711 715 808
f 711 808 802
f 711 802 712
f 712 802 807
f 712 807 713
f 713 807 806
f 713 806 809
f 713 809 716
f 713 716 714
f 715 802 808
f 716 810 717
f 716 809 810
f 717 810 811
f 717 811 812
f 717 812 793
f 717 793 718
f 720 792 721
f 721 792 813
f 721 813 723
f 722 814 725
f 722 723 814
f 723 813 815
f 723 815 814
f 724 725 816
f 725 814 817
f 725 817 818
f 725 818 816
f 729 783 784
f 729 784 731
f 729 731 730
f 731 784 781
f 735 738 819
f 735 819 736
f 736 819 740
f 736 740 739
f 738 780 820
f 738 820 819
f 740 819 820
f 740 820 741
f 741 820 821
f 741 821 822
f 741 822 742
f 742 822 823
f 742 823 743
f 743 745 744
f 743 823 824
f 743 824 825
f 743 825 745
f 745 825 826
f 745 826 751
f 745 751 746
f 745 746 748
f 749 752 750
f 749 751 785
f 749 785 752
f 751 827 785
f 751 826 828
f 751 828 827
f 754 829 755
f 755 829 756
f 756 829 830
f 756 830 831
f 756 831 832
f 756 832 757
f 757 832 759
f 757 759 758
f 759 832 763
f 759 763 761
f 763 832 764
f 764 832 833
f 764 833 765
f 765 833 834
f 765 834 835
f 765 835 836
f 765 836 837
f 765 837 766
f 766 837 767
f 767 837 838
f 767 838 768
f 768 838 769
f 769 838 839
f 769 839 770
f 770 839 840
f 770 840 771
f 771 840 841
f 771 841 772
f 772 841 773
f 773 841 842
f 773 842 843
f 773 843 844
f 773 844 845
f 773 845 774
f 774 845 846
f 774 846 847
f 774 847 848
f 774 848 775
f 775 848 847
f 775 847 849
f 775 849 776
f 776 850 931
f 776 931 851
f 776 851 778
f 776 778 777
f 776 849 852
f 776 852 850
f 778 851 853
f 778 853 854
f 778 854 779
f 779 855 856
f 779 856 857
f 779 857 858
f 779 858 780
f 779 854 859
f 779 859 855
f 780 858 860
f 780 860 820
f 785 827 861
f 785 861 786
f 786 861 787
f 787 862 863
f 787 863 864
f 787 864 788
f 787 861 862
f 789 865 866
f 789 866 867
f 789 867 790
f 789 796 795
f 789 795 868
f 789 868 865
f 790 867 791
f 791 869 813
f 791 813 792
f 791 867 866
f 791 866 870
f 791 870 869
f 793 812 871
f 793 871 872
f 793 872 873
f 793 873 874
f 793 874 794
f 794 875 795
f 794 874 875
f 795 875 876
f 795 876 897
f 795 897 877
f 795 877 865
f 795 865 868
f 797 878 798
f 798 878 879
f 798 879 799
f 799 879 880
f 799 880 800
f 800 880 881
f 800 881 882
f 800 882 801
f 801 882 883
f 801 883 884
f 801 884 803
f 803 885 804
f 803 884 885
f 804 885 805
f 805 886 887
f 805 887 888
f 805 888 806
f 805 885 886
f 806 888 889
f 806 889 809
f 809 889 890
f 809 890 891
f 809 891 892
f 809 892 812
f 809 812 811
f 809 811 810
f 812 892 871
f 813 869 893
f 813 893 815
f 814 815 894
f 814 894 817
f 815 895 896
f 815 896 894
f 815 893 869
f 815 869 870
f 815 870 866
f 815 866 865
f 815 865 877
f 815 877 897
f 815 897 895
f 817 894 898
f 817 898 818
f 820 860 899
f 820 899 821
f 821 856 900
f 821 900 822
f 821 899 856
f 822 900 901
f 822 901 823
f 823 902 824
f 823 901 903
f 823 903 904
f 823 904 905
f 823 905 906
f 823 906 902
f 824 902 907
f 824 907 825
f 825 907 908
f 825 908 909
f 825 909 826
f 826 909 910
f 826 910 911
f 826 911 828
f 827 828 912
f 827 912 861
f 828 911 910
f 828 910 913
f 828 913 912
f 829 914 915
f 829 915 916
f 829 916 830
f 830 916 831
f 831 916 833
f 831 833 832
f 833 916 834
f 834 916 835
f 835 917 918
f 835 918 919
f 835 919 920
f 835 920 921
f 835 921 836
f 835 916 917
f 836 921 922
f 836 922 837
f 837 922 838
f 838 922 923
f 838 923 924
f 838 924 843
f 838 843 842
f 838 842 925
f 838 925 839
f 839 925 840
f 840 925 841
f 841 925 842
f 843 924 926
f 843 926 844
f 844 926 845
f 845 926 927
f 845 927 846
f 846 927 928
f 846 928 847
f 847 929 849
f 847 928 930
f 847 930 929
f 849 929 852
f 850 852 932
f 850 932 934
f 850 934 931
f 851 931 853
f 852 933 934
f 852 934 932
f 852 929 930
f 852 930 935
f 852 935 933
f 853 931 936
f 853 936 937
f 853 937 854
f 854 937 938
f 854 938 859
f 855 859 940
f 855 940 939
f 855 939 856
f 856 939 940
f 856 940 900
f 856 899 857
f 857 899 858
f 858 899 860
f 859 938 940
f 861 863 862
f 861 912 863
f 863 912 941
f 871 892 942
f 871 942 943
f 871 943 872
f 872 943 944
f 872 944 873
f 873 944 874
f 874 945 946
f 874 946 875
f 874 944 945
f 878 947 948
f 878 948 879
f 879 949 950
f 879 950 951
f 879 951 952
f 879 952 953
f 879 953 954
f 879 954 881
f 879 881 880
f 879 948 947
f 879 947 955
f 879 955 956
f 879 956 949
f 881 954 883
f 881 883 882
f 883 954 953
f 883 953 957
f 883 957 884
f 884 957 885
f 885 957 887
f 885 887 886
f 887 957 953
f 887 953 958
f 887 958 888
f 888 958 959
f 888 959 960
f 888 960 889
f 889 961 962
f 889 962 963
f 889 963 964
f 889 964 890
f 889 960 961
f 890 964 965
f 890 965 966
f 890 966 967
f 890 967 891
f 891 967 892
f 892 967 942
f 894 968 898
f 894 896 969
f 894 969 968
f 895 897 970
f 895 970 969
f 895 969 896
f 900 940 971
f 900 971 972
f 900 972 973
f 900 973 974
f 900 974 975
f 900 975 901
f 901 975 976
f 901 976 904
f 901 904 903
f 902 977 978
f 902 978 979
f 902 979 980
f 902 980 908
f 902 908 907
f 902 906 981
f 902 981 977
f 904 982 983
f 904 983 984
f 904 984 985
f 904 985 986
f 904 986 987
f 904 987 988
f 904 988 989
f 904 989 990
f 904 990 991
f 904 991 992
f 904 992 905
f 904 976 993
f 904 993 994
f 904 994 995
f 904 995 982
f 905 992 906
f 906 992 996
f 906 996 981
f 908 997 998
f 908 998 999
f 908 999 1000
f 908 1000 913
f 908 913 910
f 908 910 909
f 908 980 1001
f 908 1001 1002
f 908 1002 1003
f 908 1003 1004
f 908 1004 1005
f 908 1005 997
f 912 913 941
f 913 1000 1006
f 913 1006 1007
f 913 1007 941
f 914 1008 1009
f 914 1009 915
f 915 1009 916
f 916 1009 917
f 917 1010 1011
f 917 1011 1012
f 917 1012 918
f 917 1009 1013
f 917 1013 1010
f 918 1012 919
f 919 1012 1014
f 919 1014 1015
f 919 1015 1016
f 919 1016 920
f 920 1016 1095
f 920 1095 1017
f 920 1017 1018
f 920 1018 1019
f 920 1019 922
f 920 922 921
f 922 1019 1018
f 922 1018 923
f 923 1018 1020
f 923 1020 924
f 924 1020 1021
f 924 1021 926
f 926 1021 1022
f 926 1022 1024
f 926 1024 1023
f 926 1023 927
f 927 1023 1024
f 927 1024 1025
f 927 1025 1026
f 927 1026 930
f 927 930 928
f 930 1026 1027
f 930 1027 1028
f 930 1028 1029
f 930 1029 935
f 931 934 1030
f 931 1030 936
f 933 1030 934
f 933 935 1031
f 933 1031 1030
f 935 1029 1031
f 936 1030 1032
f 936 1032 937
f 937 1032 938
f 938 1033 940
f 938 1032 1034
f 938 1034 1033
f 940 1033 1055
f 940 1055 971
f 941 1007 1006
f 941 1006 1035
f 941 1035 1036
f 949 1037 950
f 950 1037 1038
f 950 1038 1039
f 950 1039 1040
f 950 1040 1041
f 950 1041 951
f 951 1041 1042
f 951 1042 952
f 952 1042 1043
f 952 1043 953
f 953 1043 1044
f 953 1044 1045
f 953 1045 1046
f 953 1046 1047
f 953 1047 1048
f 953 1048 1049
f 953 1049 960
f 953 960 958
f 958 960 959
f 960 1049 1050
f 960 1050 1051
f 960 1051 1052
f 960 1052 1053
f 960 1053 961
f 961 1054 962
f 961 1053 1054
f 971 1055 995
f 971 995 972
f 972 974 973
f 972 995 994
f 972 994 974
f 974 994 976
f 974 976 975
f 976 994 993
f 977 981 978
f 978 1056 1001
f 978 1001 979
f 978 981 1057
f 978 1057 1056
f 979 1001 980
f 981 996 1058
f 981 1058 1057
f 982 1059 983
f 982 995 1060
f 982 1060 1061
f 982 1061 1059
f 983 1059 1062
f 983 1062 984
f 984 1062 985
f 985 1062 1063
f 985 1063 1064
f 985 1064 986
f 986 988 987
f 986 1064 1065
f 986 1065 1066
f 986 1066 1067
f 986 1067 1068
f 986 1068 1069
f 986 1069 1070
f 986 1070 988
f 988 1070 989
f 989 1071 990
f 989 1070 1072
f 989 1072 1073
f 989 1073 1071
f 990 1071 991
f 991 996 992
f 991 1071 1074
f 991 1074 1075
f 991 1075 1076
f 991 1076 996
f 995 1055 1077
f 995 1077 1078
f 995 1078 1060
f 996 1076 1058
f 997 1005 1079
f 997 1079 1080
f 997 1080 998
f 998 1080 1081
f 998 1081 1082
f 998 1082 999
f 999 1082 1000
f 1000 1082 1006
f 1001 1056 1002
f 1002 1056 1083
f 1002 1083 1003
f 1003 1084 1085
f 1003 1085 1005
f 1003 1005 1004
f 1005 1085 1086
f 1005 1086 1087
f 1005 1087 1079
f 1006 1082 1035
f 1008 1013 1009
f 1010 1088 1011
f 1011 1088 1089
f 1011 1089 1012
f 1012 1089 1090
f 1012 1090 1091
f 1012 1091 1014
f 1014 1091 1092
f 1014 1092 1015
f 1015 1092 1093
f 1015 1093 1094
f 1015 1094 1095
f 1015 1095 1016
f 1017 1020 1018
f 1017 1095 1020
f 1020 1095 1096
f 1020 1096 1021
f 1021 1096 1022
f 1022 1096 1024
f 1024 1096 1097
f 1024 1097 1025
f 1025 1097 1027
f 1025 1027 1026
f 1027 1097 1098
f 1027 1098 1099
f 1027 1099 1100
f 1027 1100 1028
f 1028 1100 1101
f 1028 1101 1029
f 1029 1101 1031
f 1030 1078 1032
f 1030 1031 1078
f 1031 1101 1102
f 1031 1102 1103
f 1031 1103 1104
f 1031 1104 1078
f 1032 1078 1034
f 1033 1034 1077
f 1033 1077 1055
f 1034 1078 1077
f 1035 1105 1036
f 1035 1082 1081
f 1035 1081 1106
f 1035 1106 1105
f 1038 1107 1039
f 1039 1107 1108
f 1039 1108 1040
f 1040 1108 1109
f 1040 1109 1041
f 1041 1109 1042
f 1042 1109 1110
f 1042 1110 1111
f 1042 1111 1043
f 1043 1111 1112
f 1043 1112 1113
f 1043 1113 1044
f 1044 1113 1045
f 1045 1113 1046
f 1046 1113 1114
f 1046 1114 1115
f 1046 1115 1116
f 1046 1116 1117
f 1046 1117 1118
f 1046 1118 1047
f 1047 1118 1119
f 1047 1119 1120
f 1047 1120 1121
f 1047 1121 1048
f 1048 1122 1049
f 1048 1121 1122
f 1049 1122 1123
f 1049 1123 1050
f 1050 1123 1124
f 1050 1124 1052
f 1050 1052 1051
f 1052 1124 1053
f 1053 1124 1125
f 1053 1125 1054
f 1056 1057 1126
f 1056 1126 1083
f 1057 1058 1076
f 1057 1076 1127
f 1057 1127 1128
f 1057 1128 1129
f 1057 1129 1126
f 1059 1130 1062
f 1059 1061 1130
f 1060 1078 1061
f 1061 1078 1131
f 1061 1131 1130
f 1062 1130 1132
f 1062 1132 1133
f 1062 1133 1134
f 1062 1134 1135
f 1062 1135 1063
f 1063 1135 1136
f 1063 1136 1066
f 1063 1066 1065
f 1063 1065 1064
f 1066 1136 1137
f 1066 1137 1067
f 1067 1137 1138
f 1067 1138 1068
f 1068 1138 1139
f 1068 1139 1140
f 1068 1140 1072
f 1068 1072 1069
f 1069 1072 1070
f 1075 1127 1076
f 1078 1104 1131
f 1079 1087 1080
f 1080 1087 1081
f 1081 1087 1141
f 1081 1141 1106
f 1084 1142 1085
f 1085 1142 1143
f 1085 1143 1087
f 1085 1087 1086
f 1087 1143 1141
f 1090 1144 1091
f 1091 1144 1145
f 1091 1145 1092
f 1092 1145 1146
f 1092 1146 1147
f 1092 1147 1148
f 1092 1148 1093
f 1093 1148 1094
f 1094 1149 1150
f 1094 1150 1096
f 1094 1096 1095
f 1094 1148 1149
f 1096 1150 1097
f 1097 1150 1149
f 1097 1149 1098
f 1098 1149 1151
f 1098 1151 1099
f 1099 1151 1121
f 1099 1121 1152
f 1099 1152 1100
f 1100 1152 1101
f 1101 1152 1102
f 1102 1152 1133
f 1102 1133 1132
f 1102 1132 1103
f 1103 1131 1104
f 1103 1132 1131
f 1105 1106 1141
f 1105 1141 1143
f 1105 1143 1153
f 1107 1154 1108
f 1108 1154 1155
f 1108 1155 1111
f 1108 1111 1109
f 1109 1111 1110
f 1111 1155 1156
f 1111 1156 1112
f 1112 1156 1113
f 1113 1156 1157
f 1113 1157 1114
f 1114 1157 1186
f 1114 1186 1158
f 1114 1158 1159
f 1114 1159 1160
f 1114 1160 1115
f 1115 1160 1161
f 1115 1161 1116
f 1116 1161 1118
f 1116 1118 1117
f 1118 1161 1136
f 1118 1136 1135
f 1118 1135 1134
f 1118 1134 1133
f 1118 1133 1120
f 1118 1120 1119
f 1120 1133 1152
f 1120 1152 1121
f 1121 1151 1162
f 1121 1162 1122
f 1122 1162 1163
f 1122 1163 1164
f 1122 1164 1123
f 1123 1164 1165
f 1123 1165 1124
f 1124 1165 1166
f 1124 1166 1167
f 1124 1167 1168
f 1124 1168 1125
f 1125 1168 1169
f 1130 1131 1132
f 1136 1161 1160
f 1136 1160 1138
f 1136 1138 1137
f 1138 1170 1159
f 1138 1159 1171
f 1138 1171 1172
f 1138 1172 1173
f 1138 1173 1174
f 1138 1174 1175
f 1138 1175 1139
f 1138 1160 1170
f 1139 1175 1174
f 1139 1174 1140
f 1142 1176 1143
f 1143 1176 1177
f 1143 1177 1153
f 1144 1178 1145
f 1145 1178 1179
f 1145 1179 1146
f 1146 1179 1180
f 1146 1180 1190
f 1146 1190 1181
f 1146 1181 1182
f 1146 1182 1147
f 1147 1182 1148
f 1148 1182 1183
f 1148 1183 1149
f 1149 1183 1184
f 1149 1184 1151
f 1151 1184 1163
f 1151 1163 1162
f 1155 1185 1172
f 1155 1172 1156
f 1156 1172 1186
f 1156 1186 1157
f 1158 1186 1172
f 1158 1172 1171
f 1158 1171 1159
f 1159 1170 1160
f 1163 1184 1164
f 1164 1184 1183
f 1164 1183 1165
f 1165 1182 1181
f 1165 1181 1166
f 1165 1183 1182
f 1166 1181 1187
f 1166 1187 1188
f 1166 1188 1167
f 1167 1188 1169
f 1167 1169 1168
f 1172 1185 1189
f 1172 1189 1173
f 1181 1190 1187

