# https://github.com/mikedh/trimesh
v 0.00162535 0.05630074 -0.01209914
v 0.00162535 0.05630074 -0.01375502
v -0.00017925 0.05630074 -0.01263293
v -0.00017925 0.02516578 -0.01533854
v 0.00162535 0.02516578 -0.01543397
v 0.00162535 0.05622760 -0.01378648
v 0.00110897 0.05630074 -0.01387510
v -0.00017925 0.05630074 -0.01408484
v -0.00017925 0.02516578 -0.01745479
v 0.00162535 0.02516578 -0.01640296
v 0.00162535 0.05609655 -0.01384206
v 0.00099732 0.05630074 -0.01389869
v 0.00162535 0.05600817 -0.01387877
v 0.00162535 0.05592588 -0.01391285
v -0.00012802 0.05630074 -0.01407959
v -0.00017925 0.05620017 -0.01411682
v -0.00005382 0.02516578 -0.01745532
v -0.00017925 0.02529378 -0.01744378
v 0.00137591 0.02516578 -0.01732109
v 0.00162535 0.02516883 -0.01642289
v 0.00093213 0.05630074 -0.01391128
v 0.00162535 0.05577350 -0.01396896
v 0.00162535 0.05574911 -0.01397787
v -0.00004640 0.05630074 -0.01407015
v -0.00001602 0.05553883 -0.01431030
v -0.00005294 0.05577350 -0.01423952
v -0.00009446 0.05601121 -0.01416821
v -0.00011601 0.05555406 -0.01431555
v -0.00017925 0.05608436 -0.01415352
v 0.00009705 0.02531512 -0.01744011
v 0.00009634 0.02516578 -0.01745322
v -0.00005294 0.02546750 -0.01742805
v 0.00009705 0.02546750 -0.01742648
v -0.00017925 0.02649456 -0.01733524
v 0.00129659 0.02516578 -0.01736356
v 0.00137520 0.02531512 -0.01731899
v 0.00162535 0.02531512 -0.01641659
v 0.00084716 0.05622455 -0.01395375
v 0.00077207 0.05630074 -0.01394064
v 0.00162535 0.05559673 -0.01402925
v 0.00099732 0.05487443 -0.01438424
v 0.00098531 0.05592588 -0.01403083
v 0.00003521 0.05630074 -0.01406019
v 0.00009705 0.05607522 -0.01412521
v 0.00009705 0.05562416 -0.01426993
v 0.00009705 0.05551749 -0.01430401
v 0.00009705 0.05544130 -0.01432813
v 0.00009705 0.05532244 -0.01436536
v -0.00005294 0.05532244 -0.01437899
v -0.00017925 0.05545044 -0.01435068
v -0.00017925 0.05556016 -0.01431764
v -0.00017925 0.05561502 -0.01430087
v -0.00017925 0.05590150 -0.01421120
v 0.00024633 0.02516578 -0.01745008
v -0.00017925 0.02784468 -0.01721307
v -0.00005294 0.02726867 -0.01726498
v 0.00009705 0.02836888 -0.01716274
v 0.00024721 0.02606789 -0.01736828
v 0.00024721 0.02546750 -0.01742281
v -0.00017925 0.03830122 -0.01626506
v -0.00012325 0.03829818 -0.01626453
v 0.00114642 0.02516578 -0.01740603
v 0.00129729 0.02531512 -0.01735465
v 0.00137379 0.02542788 -0.01731637
v 0.00162535 0.03909362 -0.01569457
v 0.00162535 0.03894428 -0.01570244
v 0.00162535 0.03056929 -0.01614341
v 0.00162535 0.02739058 -0.01631068
v 0.00162535 0.02573874 -0.01639719
v 0.00162535 0.02561988 -0.01640296
v 0.00162535 0.02558636 -0.01640453
v 0.00162535 0.02547055 -0.01640978
v 0.00162535 0.05112276 -0.01503600
v 0.00162535 0.05097342 -0.01504491
v 0.00162535 0.05071132 -0.01506012
v 0.00162535 0.05054675 -0.01506955
v 0.00162535 0.04734365 -0.01525045
v 0.00162535 0.04719431 -0.01525884
v 0.00162535 0.04707241 -0.01526566
v 0.00162535 0.04496952 -0.01538311
v 0.00162535 0.04479275 -0.01539255
v 0.00162535 0.04197061 -0.01554251
v 0.00063039 0.05615445 -0.01401562
v 0.00054736 0.05617579 -0.01402296
v 0.00061184 0.05630074 -0.01396896
v 0.00069258 0.05630074 -0.01395480
v 0.00162535 0.05454529 -0.01438266
v 0.00162535 0.05442338 -0.01442251
v 0.00084716 0.05487443 -0.01440993
v 0.00009705 0.05630074 -0.01405233
v 0.00039720 0.05531025 -0.01433390
v 0.00026187 0.05547178 -0.01429877
v 0.00039720 0.05517311 -0.01437689
v 0.00024721 0.05517311 -0.01439367
v 0.00009705 0.05517311 -0.01440836
v -0.00017925 0.05530111 -0.01439315
v 0.00039649 0.02516578 -0.01744588
v -0.00017925 0.02964585 -0.01705000
v -0.00017925 0.02981957 -0.01703427
v -0.00017925 0.03492136 -0.01657180
v -0.00017925 0.03664939 -0.01641502
v 0.00009705 0.03116968 -0.01690790
v -0.00005294 0.03942277 -0.01616071
v 0.00039720 0.02726867 -0.01725502
v 0.00024721 0.02981957 -0.01702693
v 0.00054736 0.03372058 -0.01666408
v 0.00039720 0.02546750 -0.01741862
v -0.00017925 0.04990674 -0.01520955
v -0.00012484 0.03994696 -0.01611457
v 0.00099644 0.02516578 -0.01741757
v 0.00099732 0.02546750 -0.01739083
v 0.00114731 0.02561684 -0.01736566
v 0.00121055 0.02613189 -0.01731375
v 0.00123634 0.02603132 -0.01731847
v 0.00125472 0.02591551 -0.01732319
v 0.00127450 0.02576617 -0.01733000
v 0.00128917 0.02561684 -0.01733682
v 0.00131142 0.02547360 -0.01733891
v 0.00162535 0.05127209 -0.01502394
v 0.00033466 0.05630074 -0.01401667
v 0.00047669 0.05630074 -0.01399255
v 0.00116126 0.05457271 -0.01445135
v 0.00099732 0.05472510 -0.01443248
v 0.00162535 0.05429538 -0.01445974
v 0.00069735 0.05487443 -0.01443090
v 0.00069735 0.05502377 -0.01438424
v 0.00054736 0.05535292 -0.01429877
v 0.00028360 0.05630074 -0.01402506
v 0.00016312 0.05630074 -0.01404289
v 0.00033218 0.05585273 -0.01416611
v 0.00054736 0.05502377 -0.01440468
v 0.00039720 0.05502377 -0.01442094
v -0.00005294 0.05517311 -0.01441832
v 0.00024721 0.05502377 -0.01443510
v 0.00014828 0.05494453 -0.01446289
v -0.00017925 0.05517311 -0.01442513
v 0.00054648 0.02516578 -0.01744116
v 0.00054736 0.02546750 -0.01741390
v 0.00069735 0.03942277 -0.01614131
v 0.00054736 0.03747226 -0.01632274
v 0.00024721 0.03687187 -0.01638513
v -0.00012696 0.04159575 -0.01596461
v -0.00017925 0.05143362 -0.01507060
v 0.00024721 0.05097342 -0.01510154
v 0.00085988 0.04796537 -0.01535952
v 0.00085882 0.03806655 -0.01625981
v 0.00084645 0.02516578 -0.01742805
v 0.00105403 0.02627818 -0.01731375
v 0.00084716 0.02561684 -0.01738768
v 0.00159744 0.05127209 -0.01502708
v 0.00162535 0.05142143 -0.01500821
v 0.00122062 0.05449652 -0.01446394
v 0.00085899 0.05472205 -0.01445135
v 0.00099732 0.05462757 -0.01445869
v 0.00162535 0.05423747 -0.01447495
v 0.00159744 0.05424661 -0.01447705
v 0.00069735 0.05477386 -0.01445764
v 0.00060530 0.05479215 -0.01446289
v 0.00055213 0.05486529 -0.01444873
v 0.00024721 0.05630074 -0.01403083
v 0.00039720 0.05490491 -0.01445293
v -0.00005294 0.05504206 -0.01445030
v -0.00017925 0.05515177 -0.01443038
v 0.00024721 0.05492929 -0.01445922
v 0.00024721 0.05472510 -0.01450851
v 0.00009705 0.05472510 -0.01451847
v 0.00009775 0.05488662 -0.01447967
v 0.00069646 0.02516578 -0.01743592
v 0.00069735 0.02546750 -0.01740918
v 0.00099732 0.05097342 -0.01508214
v -0.00017925 0.05156467 -0.01505854
v 0.00043765 0.05133914 -0.01506326
v 0.00099732 0.04017249 -0.01606371
v 0.00099732 0.04615811 -0.01551996
v 0.00114731 0.05115933 -0.01506064
v 0.00078833 0.02645494 -0.01731584
v 0.00144745 0.05127209 -0.01503704
v 0.00144745 0.05142143 -0.01502184
v 0.00159744 0.05142143 -0.01501135
v 0.00162535 0.05157381 -0.01499090
v 0.00116126 0.05443862 -0.01448596
v 0.00159744 0.05412471 -0.01450851
v 0.00091676 0.05464586 -0.01446394
v 0.00162535 0.05412471 -0.01450431
v 0.00081677 0.05467024 -0.01446970
v 0.00085899 0.05458795 -0.01448543
v 0.00069735 0.05469767 -0.01447652
v 0.00050531 0.05481043 -0.01446708
v 0.00069735 0.05457271 -0.01450693
v 0.00055213 0.05473424 -0.01448176
v 0.00039720 0.05482872 -0.01447180
v -0.00017925 0.05498110 -0.01447180
v 0.00039720 0.05472510 -0.01449697
v 0.00054736 0.05457271 -0.01452056
v 0.00024721 0.05457271 -0.01454259
v -0.00017925 0.05472510 -0.01453315
v -0.00017925 0.05487443 -0.01449749
v 0.00009705 0.05457271 -0.01455255
v 0.00085740 0.05126600 -0.01505907
v 0.00099732 0.05118371 -0.01506274
v -0.00017925 0.05172315 -0.01504229
v -0.00005294 0.05157381 -0.01505435
v 0.00114731 0.04842252 -0.01530918
v 0.00114731 0.04797147 -0.01535008
v 0.00099732 0.05127209 -0.01505435
v 0.00099732 0.05157381 -0.01502498
v 0.00114731 0.05157381 -0.01502026
v 0.00129729 0.05157381 -0.01501292
v 0.00144745 0.05157381 -0.01500506
v 0.00159744 0.05157381 -0.01499405
v 0.00162535 0.05169572 -0.01497570
v 0.00114731 0.05427404 -0.01452791
v 0.00162535 0.05397232 -0.01454102
v 0.00144745 0.05412471 -0.01452686
v 0.00099732 0.05427404 -0.01454468
v 0.00069735 0.05442338 -0.01453997
v 0.00054736 0.05442338 -0.01455203
v 0.00024721 0.05442338 -0.01457300
v -0.00005294 0.05457271 -0.01456042
v -0.00017925 0.05455138 -0.01457143
v 0.00009705 0.05442338 -0.01458244
v 0.00039720 0.05157381 -0.01504229
v 0.00054736 0.05157381 -0.01503809
v -0.00017925 0.05184810 -0.01502708
v 0.00069735 0.05172315 -0.01501764
v 0.00099732 0.05172315 -0.01500821
v 0.00114731 0.05172315 -0.01500244
v 0.00129729 0.05172315 -0.01499457
v 0.00144745 0.05172315 -0.01498618
v 0.00159744 0.05172315 -0.01497517
v 0.00162535 0.05172315 -0.01497203
v 0.00129729 0.05412471 -0.01454521
v 0.00114731 0.05412471 -0.01456251
v 0.00162535 0.05394489 -0.01454731
v 0.00084716 0.05427404 -0.01455884
v 0.00099732 0.05412471 -0.01457719
v 0.00069735 0.05427404 -0.01457038
v 0.00039720 0.05417652 -0.01461023
v 0.00020446 0.05421004 -0.01461652
v -0.00005294 0.05442338 -0.01459030
v -0.00017925 0.05441424 -0.01459869
v 0.00009705 0.05430147 -0.01460551
v -0.00017925 0.05439290 -0.01460289
v -0.00017925 0.05200048 -0.01500821
v 0.00039720 0.05187248 -0.01500768
v 0.00054736 0.05187248 -0.01500296
v 0.00069735 0.05187248 -0.01499824
v 0.00084716 0.05187248 -0.01499352
v 0.00099732 0.05187248 -0.01498776
v 0.00114731 0.05187248 -0.01498094
v 0.00129729 0.05187248 -0.01497255
v 0.00144745 0.05187248 -0.01496311
v 0.00159744 0.05187248 -0.01495158
v 0.00162535 0.05187248 -0.01494843
v 0.00162535 0.05382299 -0.01457352
v 0.00113441 0.05396013 -0.01459764
v 0.00107576 0.05389918 -0.01461495
v 0.00099732 0.05399061 -0.01460341
v 0.00054736 0.05414909 -0.01460498
v 0.00069735 0.05352432 -0.01471352
v 0.00054736 0.05352432 -0.01472349
v 0.00039720 0.05340241 -0.01475600
v 0.00024721 0.05342679 -0.01476071
v 0.00015146 0.05344203 -0.01476334
v 0.00005147 0.05345727 -0.01476596
v -0.00005294 0.05382299 -0.01470304
v -0.00005294 0.05354565 -0.01475495
v -0.00017925 0.05432281 -0.01461600
v -0.00017925 0.05214982 -0.01498828
v 0.00009705 0.05217420 -0.01497622
v 0.00054736 0.05202182 -0.01498251
v 0.00069735 0.05202182 -0.01497727
v 0.00069735 0.05217420 -0.01495472
v 0.00099732 0.05202182 -0.01496468
v 0.00099732 0.05217420 -0.01494109
v 0.00114731 0.05202182 -0.01495734
v 0.00129729 0.05202182 -0.01494843
v 0.00128563 0.05217725 -0.01492274
v 0.00144745 0.05212849 -0.01491907
v 0.00154003 0.05210715 -0.01491540
v 0.00159303 0.05202791 -0.01492483
v 0.00162535 0.05208582 -0.01491173
v 0.00162535 0.05365537 -0.01460708
v 0.00161104 0.05367365 -0.01460498
v 0.00162535 0.05352127 -0.01463382
v 0.00162535 0.05290869 -0.01475495
v 0.00162535 0.05280507 -0.01477540
v 0.00099732 0.05352432 -0.01469255
v 0.00130542 0.05307022 -0.01475390
v 0.00126090 0.05301840 -0.01476806
v 0.00114731 0.05311898 -0.01475862
v 0.00099555 0.05321346 -0.01475180
v 0.00084716 0.05317384 -0.01476963
v 0.00060371 0.05329269 -0.01476334
v 0.00054736 0.05292393 -0.01483570
v 0.00039720 0.05292393 -0.01484513
v 0.00024721 0.05292393 -0.01485405
v 0.00009970 0.05338413 -0.01477697
v 0.00009705 0.05307326 -0.01483465
v -0.00017925 0.05356089 -0.01475757
v -0.00017925 0.05395099 -0.01468521
v -0.00017925 0.05424966 -0.01462963
v -0.00005294 0.05307326 -0.01484199
v -0.00017925 0.05229915 -0.01496678
v -0.00005294 0.05217420 -0.01498094
v 0.00009705 0.05232354 -0.01495420
v 0.00024721 0.05217420 -0.01497098
v 0.00054736 0.05217420 -0.01496049
v 0.00054736 0.05232354 -0.01493794
v 0.00069735 0.05232354 -0.01493113
v 0.00054736 0.05243630 -0.01492012
v 0.00069735 0.05241497 -0.01491645
v 0.00099732 0.05229306 -0.01492169
v 0.00114731 0.05217420 -0.01493270
v 0.00122769 0.05225039 -0.01491435
v 0.00132768 0.05222906 -0.01491068
v 0.00144745 0.05232354 -0.01488446
v 0.00162535 0.05214068 -0.01490176
v 0.00162535 0.05244544 -0.01484461
v 0.00159744 0.05232354 -0.01487083
v 0.00144745 0.05247287 -0.01485615
v 0.00144745 0.05262221 -0.01482731
v 0.00129729 0.05262221 -0.01484041
v 0.00129729 0.05247287 -0.01486873
v 0.00114731 0.05262221 -0.01485248
v 0.00099732 0.05292393 -0.01480633
v 0.00099732 0.05262221 -0.01486296
v 0.00069735 0.05320126 -0.01477435
v 0.00084716 0.05262221 -0.01487240
v 0.00099732 0.05247287 -0.01489023
v 0.00069735 0.05262221 -0.01488131
v 0.00083885 0.05246068 -0.01490176
v 0.00054736 0.05262221 -0.01488970
v 0.00009705 0.05292393 -0.01486191
v -0.00017925 0.05307326 -0.01484723
v -0.00005294 0.05292393 -0.01486820
v -0.00017925 0.05275631 -0.01489862
v 0.00024721 0.05232354 -0.01494896
v -0.00005294 0.05266183 -0.01490858
v 0.00039720 0.05232354 -0.01494371
v 0.00039720 0.05245763 -0.01492326
v 0.00025198 0.05261307 -0.01490491
v 0.00039720 0.05262221 -0.01489704
v 0.00114731 0.05234182 -0.01490386
v 0.00088319 0.05238449 -0.01491225
v 0.00128563 0.05230830 -0.01489967
v 0.00114731 0.05247287 -0.01488027
v 0.00162535 0.05229611 -0.01487292
v 0.00024721 0.05277154 -0.01487974
v -0.00017925 0.05292393 -0.01487292
v 0.00009705 0.05264354 -0.01490596
f 1 2 7
f 1 7 12
f 1 12 21
f 1 21 39
f 1 39 86
f 1 86 85
f 1 85 121
f 1 121 120
f 1 120 128
f 1 128 160
f 1 160 129
f 1 129 90
f 1 90 43
f 1 43 24
f 1 24 15
f 1 15 8
f 1 8 3
f 1 3 4
f 1 4 5
f 1 5 10
f 1 10 20
f 1 20 37
f 1 37 72
f 1 72 71
f 1 71 70
f 1 70 69
f 1 69 68
f 1 68 67
f 1 67 66
f 1 66 65
f 1 65 82
f 1 82 81
f 1 81 80
f 1 80 79
f 1 79 78
f 1 78 77
f 1 77 76
f 1 76 75
f 1 75 74
f 1 74 73
f 1 73 119
f 1 119 151
f 1 151 180
f 1 180 211
f 1 211 231
f 1 231 254
f 1 254 282
f 1 282 318
f 1 318 348
f 1 348 319
f 1 319 287
f 1 287 286
f 1 286 285
f 1 285 283
f 1 283 255
f 1 255 234
f 1 234 213
f 1 213 184
f 1 184 155
f 1 155 124
f 1 124 88
f 1 88 87
f 1 87 40
f 1 40 23
f 1 23 22
f 1 22 14
f 1 14 13
f 1 13 11
f 1 11 6
f 1 6 2
f 2 6 7
f 3 8 16
f 3 16 29
f 3 29 53
f 3 53 52
f 3 52 51
f 3 51 50
f 3 50 96
f 3 96 136
f 3 136 163
f 3 163 192
f 3 192 197
f 3 197 196
f 3 196 220
f 3 220 241
f 3 241 243
f 3 243 268
f 3 268 302
f 3 302 301
f 3 301 300
f 3 300 335
f 3 335 350
f 3 350 337
f 3 337 304
f 3 304 269
f 3 269 244
f 3 244 224
f 3 224 201
f 3 201 171
f 3 171 143
f 3 143 108
f 3 108 60
f 3 60 101
f 3 101 100
f 3 100 99
f 3 99 98
f 3 98 55
f 3 55 34
f 3 34 18
f 3 18 9
f 3 9 4
f 4 9 17
f 4 17 31
f 4 31 54
f 4 54 97
f 4 97 137
f 4 137 168
f 4 168 147
f 4 147 110
f 4 110 62
f 4 62 35
f 4 35 19
f 4 19 10
f 4 10 5
f 6 11 7
f 7 11 13
f 7 13 14
f 7 14 12
f 8 15 16
f 9 18 17
f 10 19 20
f 12 14 22
f 12 22 23
f 12 23 21
f 15 24 25
f 15 25 26
f 15 26 27
f 15 27 16
f 16 27 26
f 16 26 25
f 16 25 28
f 16 28 29
f 17 30 31
f 17 18 32
f 17 32 33
f 17 33 30
f 18 34 32
f 19 35 36
f 19 36 20
f 20 36 37
f 21 38 39
f 21 23 38
f 23 40 41
f 23 41 42
f 23 42 38
f 24 43 44
f 24 44 45
f 24 45 25
f 25 45 46
f 25 46 47
f 25 47 48
f 25 48 28
f 28 48 49
f 28 49 50
f 28 50 51
f 28 51 52
f 28 52 53
f 28 53 29
f 30 54 31
f 30 33 54
f 32 34 55
f 32 55 98
f 32 98 56
f 32 56 33
f 33 57 58
f 33 58 59
f 33 59 54
f 33 56 60
f 33 60 61
f 33 61 57
f 35 62 63
f 35 63 64
f 35 64 36
f 36 65 66
f 36 66 67
f 36 67 68
f 36 68 69
f 36 69 70
f 36 70 71
f 36 71 72
f 36 72 37
f 36 64 73
f 36 73 74
f 36 74 75
f 36 75 76
f 36 76 77
f 36 77 78
f 36 78 79
f 36 79 80
f 36 80 81
f 36 81 82
f 36 82 65
f 38 42 83
f 38 83 84
f 38 84 85
f 38 85 86
f 38 86 39
f 40 87 41
f 41 87 88
f 41 88 89
f 41 89 84
f 41 84 42
f 42 84 83
f 43 90 44
f 44 90 91
f 44 91 92
f 44 92 45
f 45 92 46
f 46 92 91
f 46 91 47
f 47 91 93
f 47 93 48
f 48 93 94
f 48 94 95
f 48 95 49
f 49 95 96
f 49 96 50
f 54 59 97
f 56 98 99
f 56 99 100
f 56 100 101
f 56 101 60
f 57 102 58
f 57 61 103
f 57 103 102
f 58 104 107
f 58 107 59
f 58 102 105
f 58 105 140
f 58 140 106
f 58 106 104
f 59 107 97
f 60 108 61
f 61 108 109
f 61 109 103
f 62 110 111
f 62 111 112
f 62 112 113
f 62 113 114
f 62 114 115
f 62 115 116
f 62 116 117
f 62 117 63
f 63 118 64
f 63 117 118
f 64 118 117
f 64 117 119
f 64 119 73
f 84 120 121
f 84 121 85
f 84 89 120
f 88 122 123
f 88 123 89
f 88 124 122
f 89 125 126
f 89 126 127
f 89 127 128
f 89 128 120
f 89 123 125
f 90 129 130
f 90 130 91
f 91 130 127
f 91 127 126
f 91 126 131
f 91 131 93
f 93 131 94
f 94 131 132
f 94 132 95
f 95 133 96
f 95 132 134
f 95 134 135
f 95 135 133
f 96 133 136
f 97 107 138
f 97 138 169
f 97 169 137
f 102 103 105
f 103 139 140
f 103 140 141
f 103 141 105
f 103 109 142
f 103 142 108
f 103 108 143
f 103 143 144
f 103 144 145
f 103 145 139
f 104 106 139
f 104 139 146
f 104 146 107
f 105 141 140
f 106 140 139
f 107 146 138
f 108 142 109
f 110 147 111
f 111 148 112
f 111 147 149
f 111 149 150
f 111 150 148
f 112 148 150
f 112 150 113
f 113 150 119
f 113 119 114
f 114 119 115
f 115 119 116
f 116 119 117
f 119 150 179
f 119 179 151
f 122 124 152
f 122 152 123
f 123 153 125
f 123 152 154
f 123 154 153
f 124 155 156
f 124 156 152
f 125 153 157
f 125 157 158
f 125 158 159
f 125 159 132
f 125 132 131
f 125 131 126
f 127 130 160
f 127 160 128
f 129 160 130
f 132 159 161
f 132 161 134
f 133 135 162
f 133 162 163
f 133 163 136
f 134 161 164
f 134 164 135
f 135 164 165
f 135 165 166
f 135 166 167
f 135 167 162
f 137 169 168
f 138 146 169
f 139 145 170
f 139 170 146
f 143 171 172
f 143 172 170
f 143 170 144
f 144 170 145
f 146 173 169
f 146 170 174
f 146 174 175
f 146 175 173
f 147 168 169
f 147 169 149
f 149 169 176
f 149 176 177
f 149 177 150
f 150 177 178
f 150 178 179
f 151 179 210
f 151 210 180
f 152 181 154
f 152 156 182
f 152 182 181
f 153 154 183
f 153 183 157
f 154 181 183
f 155 184 156
f 156 184 182
f 157 183 185
f 157 185 186
f 157 186 187
f 157 187 158
f 158 188 161
f 158 161 159
f 158 187 189
f 158 189 190
f 158 190 188
f 161 188 191
f 161 191 164
f 162 167 192
f 162 192 163
f 164 191 193
f 164 193 165
f 165 193 194
f 165 194 195
f 165 195 198
f 165 198 166
f 166 196 197
f 166 197 167
f 166 198 196
f 167 197 192
f 169 173 176
f 170 172 199
f 170 199 200
f 170 200 175
f 170 175 174
f 171 201 202
f 171 202 199
f 171 199 172
f 173 175 203
f 173 203 204
f 173 204 177
f 173 177 176
f 175 200 199
f 175 199 205
f 175 205 206
f 175 206 207
f 175 207 177
f 175 177 203
f 177 204 203
f 177 207 178
f 178 207 208
f 178 208 209
f 178 209 179
f 179 209 210
f 180 210 211
f 181 212 186
f 181 186 183
f 181 182 212
f 182 184 213
f 182 213 214
f 182 214 212
f 183 186 185
f 186 189 187
f 186 212 215
f 186 215 189
f 188 190 191
f 189 194 190
f 189 215 216
f 189 216 194
f 190 193 191
f 190 194 193
f 194 216 217
f 194 217 195
f 195 217 218
f 195 218 198
f 196 198 219
f 196 219 220
f 198 218 221
f 198 221 220
f 198 220 219
f 199 202 222
f 199 222 223
f 199 223 206
f 199 206 205
f 201 224 225
f 201 225 223
f 201 223 222
f 201 222 202
f 206 223 225
f 206 225 226
f 206 226 207
f 207 226 227
f 207 227 208
f 208 227 209
f 209 227 228
f 209 228 229
f 209 229 230
f 209 230 210
f 210 230 211
f 211 230 231
f 212 214 232
f 212 232 233
f 212 233 215
f 213 232 214
f 213 234 232
f 215 235 216
f 215 233 236
f 215 236 235
f 216 235 217
f 217 235 236
f 217 236 237
f 217 237 238
f 217 238 218
f 218 238 239
f 218 239 221
f 220 221 240
f 220 240 241
f 221 239 242
f 221 242 243
f 221 243 240
f 224 244 245
f 224 245 225
f 225 245 246
f 225 246 247
f 225 247 226
f 226 247 248
f 226 248 249
f 226 249 227
f 227 249 250
f 227 250 228
f 228 250 229
f 229 250 251
f 229 251 252
f 229 252 230
f 230 252 253
f 230 253 254
f 230 254 231
f 232 234 233
f 233 234 255
f 233 255 256
f 233 256 236
f 236 256 257
f 236 257 258
f 236 258 237
f 237 258 259
f 237 259 238
f 238 259 260
f 238 260 261
f 238 261 239
f 239 261 262
f 239 262 263
f 239 263 264
f 239 264 242
f 240 243 241
f 242 264 265
f 242 265 266
f 242 266 243
f 243 266 267
f 243 267 268
f 244 269 245
f 245 269 246
f 246 269 247
f 247 269 248
f 248 269 270
f 248 270 271
f 248 271 272
f 248 272 249
f 249 272 273
f 249 273 274
f 249 274 250
f 250 274 275
f 250 275 276
f 250 276 251
f 251 276 277
f 251 277 252
f 252 277 278
f 252 278 279
f 252 279 253
f 253 279 280
f 253 280 281
f 253 281 282
f 253 282 254
f 255 283 284
f 255 284 256
f 256 284 285
f 256 285 286
f 256 286 287
f 256 287 257
f 257 288 258
f 257 287 289
f 257 289 290
f 257 290 291
f 257 291 288
f 258 288 259
f 259 288 260
f 260 288 292
f 260 292 293
f 260 293 261
f 261 293 294
f 261 294 262
f 262 294 295
f 262 295 296
f 262 296 263
f 263 296 297
f 263 297 264
f 264 297 298
f 264 298 265
f 265 267 266
f 265 298 299
f 265 299 267
f 267 300 301
f 267 301 302
f 267 302 268
f 267 299 303
f 267 303 300
f 269 304 305
f 269 305 270
f 270 305 304
f 270 304 306
f 270 306 338
f 270 338 307
f 270 307 271
f 271 307 308
f 271 308 272
f 272 308 273
f 273 308 309
f 273 309 310
f 273 310 275
f 273 275 274
f 275 310 311
f 275 311 312
f 275 312 313
f 275 313 314
f 275 314 276
f 276 314 277
f 277 314 315
f 277 315 278
f 278 315 316
f 278 316 279
f 279 316 317
f 279 317 280
f 280 282 281
f 280 317 282
f 282 317 318
f 283 285 284
f 287 319 320
f 287 320 321
f 287 321 322
f 287 322 289
f 288 291 292
f 289 322 290
f 290 322 321
f 290 321 291
f 291 321 323
f 291 323 324
f 291 324 325
f 291 325 292
f 292 325 326
f 292 326 293
f 293 326 327
f 293 327 328
f 293 328 294
f 294 328 327
f 294 327 295
f 295 327 329
f 295 329 296
f 296 329 330
f 296 330 297
f 297 330 331
f 297 331 332
f 297 332 333
f 297 333 334
f 297 334 299
f 297 299 298
f 299 334 303
f 300 303 335
f 303 334 336
f 303 336 335
f 304 337 306
f 306 337 339
f 306 339 338
f 307 338 308
f 308 338 340
f 308 340 309
f 309 340 341
f 309 341 311
f 309 311 310
f 311 341 342
f 311 342 343
f 311 343 312
f 312 343 333
f 312 333 313
f 313 344 314
f 313 333 345
f 313 345 332
f 313 332 330
f 313 330 344
f 314 344 315
f 315 344 346
f 315 346 316
f 316 346 317
f 317 346 347
f 317 347 324
f 317 324 323
f 317 323 321
f 317 321 320
f 317 320 318
f 318 320 348
f 319 348 320
f 324 347 325
f 325 347 327
f 325 327 326
f 327 347 330
f 327 330 329
f 330 332 331
f 330 347 344
f 332 345 333
f 333 343 349
f 333 349 334
f 334 349 342
f 334 342 336
f 335 336 350
f 336 342 350
f 337 350 339
f 338 339 340
f 339 350 351
f 339 351 340
f 340 342 341
f 340 351 342
f 342 351 350
f 342 349 343
f 344 347 346

