# https://github.com/mikedh/trimesh
v 0.00823345 0.05630033 0.00692350
v 0.00823345 0.05630033 0.00852519
v 0.00823345 0.05205598 0.00923797
v -0.00017943 0.05205598 0.01128647
v -0.00017943 0.05630033 0.01028468
v 0.00823345 0.05626252 0.00854883
v 0.00806545 0.05630033 0.00866526
v 0.00823345 0.05205598 0.01019603
v -0.00017943 0.05205598 0.01295199
v -0.00017943 0.05630033 0.01166650
v 0.00823345 0.05623260 0.00856715
v 0.00815027 0.05618523 0.00866585
v 0.00756394 0.05622554 0.00912745
v 0.00782993 0.05615739 0.00894896
v 0.00764629 0.05596294 0.00922142
v 0.00745112 0.05630033 0.00917473
v 0.00823345 0.05247480 0.01016293
v 0.00811569 0.05205598 0.01028704
v -0.00017120 0.05205598 0.01295258
v -0.00017943 0.05217440 0.01293485
v -0.00017943 0.05608302 0.01176461
v -0.00005261 0.05630033 0.01166650
v 0.00823345 0.05610130 0.00864753
v 0.00782087 0.05569536 0.00924152
v 0.00785711 0.05559564 0.00927225
v 0.00745524 0.05623842 0.00920960
v 0.00763723 0.05550049 0.00951398
v 0.00737042 0.05630033 0.00924152
v 0.00823345 0.05262480 0.01014993
v 0.00809181 0.05247480 0.01027050
v 0.00810086 0.05232439 0.01027641
v 0.00805639 0.05205598 0.01033255
v -0.00005261 0.05205598 0.01295672
v -0.00005261 0.05217440 0.01293958
v -0.00017943 0.05219808 0.01293130
v -0.00017943 0.05601986 0.01179298
v -0.00005261 0.05622554 0.01170019
v 0.00009727 0.05630033 0.01166591
v 0.00823015 0.05592554 0.00875687
v 0.00823345 0.05593053 0.00875096
v 0.00767429 0.05540035 0.00954471
v 0.00783323 0.05541323 0.00940227
v 0.00823345 0.05560976 0.00894482
v 0.00823345 0.05578012 0.00884198
v 0.00756065 0.05574896 0.00942414
v 0.00753677 0.05556738 0.00955476
v 0.00728972 0.05630033 0.00930535
v 0.00734654 0.05611543 0.00937331
v 0.00738524 0.05601571 0.00940346
v 0.00823345 0.05274696 0.01013338
v 0.00818239 0.05262480 0.01018775
v 0.00808028 0.05262480 0.01026281
v 0.00801687 0.05247480 0.01032487
v 0.00778629 0.05205598 0.01053528
v 0.00786699 0.05205598 0.01047617
v 0.00788264 0.05205598 0.01046435
v 0.00803416 0.05217440 0.01033964
v 0.00794193 0.05205598 0.01041943
v 0.00009727 0.05205598 0.01296085
v 0.00009727 0.05217440 0.01294430
v -0.00005261 0.05232439 0.01291653
v -0.00017943 0.05232439 0.01291180
v -0.00017943 0.05561558 0.01197384
v -0.00005261 0.05577513 0.01190232
v 0.00009727 0.05561475 0.01197384
v 0.00009727 0.05568995 0.01194015
v -0.00005261 0.05592554 0.01183495
v 0.00009727 0.05608219 0.01176402
v 0.00009727 0.05622554 0.01169960
v 0.00021256 0.05630033 0.01166532
v 0.00759194 0.05546018 0.00957367
v 0.00754582 0.05527944 0.00971079
v 0.00764547 0.05520922 0.00967237
v 0.00769982 0.05532515 0.00956540
v 0.00812639 0.05525326 0.00924624
v 0.00823345 0.05528983 0.00913454
v 0.00809263 0.05535298 0.00921728
v 0.00823345 0.05534966 0.00909967
v 0.00823345 0.05540825 0.00906539
v 0.00823345 0.05551254 0.00900333
v 0.00724689 0.05617900 0.00941173
v 0.00730536 0.05593718 0.00951102
v 0.00739842 0.05573109 0.00956244
v 0.00744865 0.05562057 0.00958904
v 0.00733748 0.05562514 0.00966824
v 0.00745442 0.05548636 0.00966174
v 0.00750794 0.05537957 0.00968301
v 0.00722054 0.05630033 0.00935913
v 0.00823345 0.05277480 0.01012924
v 0.00816921 0.05277480 0.01017711
v 0.00806463 0.05277480 0.01025217
v 0.00800534 0.05262480 0.01031600
v 0.00784887 0.05232439 0.01046199
v 0.00768911 0.05205598 0.01060502
v 0.00768253 0.05214947 0.01060029
v 0.00024714 0.05205598 0.01296026
v 0.00009727 0.05232439 0.01291948
v -0.00005261 0.05272951 0.01285033
v -0.00017943 0.05292479 0.01281605
v -0.00005261 0.05247480 0.01289229
v 0.00024714 0.05217440 0.01294312
v -0.00017943 0.05279765 0.01283674
v -0.00017943 0.05262480 0.01286452
v -0.00017943 0.05249807 0.01288461
v -0.00017943 0.05549716 0.01202526
v 0.00009727 0.05547514 0.01203412
v 0.00024714 0.05547514 0.01203353
v 0.00024714 0.05561392 0.01197325
v 0.00024714 0.05577513 0.01190114
v 0.00024714 0.05592554 0.01183376
v 0.00036490 0.05630033 0.01166414
v 0.00759688 0.05516559 0.00973207
v 0.00768006 0.05510908 0.00969897
v 0.00744206 0.05531642 0.00976458
v 0.00737618 0.05525285 0.00984614
v 0.00740501 0.05517515 0.00986741
v 0.00747994 0.05517515 0.00981304
v 0.00751288 0.05508374 0.00983609
v 0.00774429 0.05516684 0.00961505
v 0.00780770 0.05522459 0.00953053
v 0.00796746 0.05523914 0.00938809
v 0.00815192 0.05517515 0.00926752
v 0.00823345 0.05518512 0.00919305
v 0.00790405 0.05518180 0.00947320
v 0.00721972 0.05599493 0.00954117
v 0.00725925 0.05589480 0.00957072
v 0.00736877 0.05554370 0.00969129
v 0.00729466 0.05576931 0.00961682
v 0.00722960 0.05570782 0.00969897
v 0.00740830 0.05544398 0.00971847
v 0.00711843 0.05630033 0.00943301
v 0.00823345 0.05287659 0.01011210
v 0.00815274 0.05292479 0.01016529
v 0.00798969 0.05277480 0.01030477
v 0.00788675 0.05262106 0.01039875
v 0.00782829 0.05256871 0.01044662
v 0.00783652 0.05247480 0.01045312
v 0.00761994 0.05205598 0.01065289
v 0.00767429 0.05224960 0.01059438
v 0.00752771 0.05205598 0.01071554
v 0.00760182 0.05205598 0.01066530
v 0.00039784 0.05205598 0.01295612
v 0.00009727 0.05247480 0.01289407
v -0.00005261 0.05307479 0.01279182
v -0.00017943 0.05337478 0.01274040
v -0.00017943 0.05322478 0.01276582
v -0.00017943 0.05309847 0.01278709
v 0.00024714 0.05272078 0.01284856
v 0.00009727 0.05280430 0.01283733
v 0.00009727 0.05272909 0.01285033
v 0.00039784 0.05217440 0.01293899
v -0.00017943 0.05547514 0.01203471
v 0.00024714 0.05536046 0.01208022
v 0.00054772 0.05535838 0.01207904
v 0.00039784 0.05547514 0.01203235
v 0.00039784 0.05561267 0.01197265
v 0.00054772 0.05568622 0.01193838
v 0.00054772 0.05600324 0.01179594
v 0.00054772 0.05622554 0.01169605
v 0.00054772 0.05630033 0.01166237
v 0.00770558 0.05502515 0.00972025
v 0.00813133 0.05496116 0.00940050
v 0.00783981 0.05512446 0.00955771
v 0.00744618 0.05502058 0.00991765
v 0.00754665 0.05498360 0.00986150
v 0.00751371 0.05478375 0.00998621
v 0.00729219 0.05531185 0.00987332
v 0.00720572 0.05522542 0.00998089
v 0.00724360 0.05512529 0.01000749
v 0.00734324 0.05505715 0.00997262
v 0.00823345 0.05500147 0.00929293
v 0.00823345 0.05505258 0.00926516
v 0.00799957 0.05513900 0.00941587
v 0.00718925 0.05580796 0.00967060
v 0.00707808 0.05615532 0.00954708
v 0.00726254 0.05562514 0.00972143
v 0.00723701 0.05541697 0.00985382
v 0.00706490 0.05538955 0.00998798
v 0.00714807 0.05547015 0.00988633
v 0.00707314 0.05630033 0.00946433
v 0.00823345 0.05293518 0.01010146
v 0.00813545 0.05307479 0.01015229
v 0.00797899 0.05286579 0.01029709
v 0.00781758 0.05266843 0.01043953
v 0.00775993 0.05262106 0.01048386
v 0.00764794 0.05247480 0.01057783
v 0.00750383 0.05205598 0.01073150
v 0.00054772 0.05205598 0.01295199
v -0.00005261 0.05352478 0.01271380
v -0.00017943 0.05353849 0.01271203
v 0.00039784 0.05247480 0.01288698
v 0.00025291 0.05353807 0.01270671
v 0.00009727 0.05352478 0.01271203
v 0.00053537 0.05263436 0.01285506
v 0.00054772 0.05217440 0.01293426
v -0.00017943 0.05537874 0.01207313
v 0.00009727 0.05536088 0.01208022
v 0.00009727 0.05442475 0.01244430
v 0.00024714 0.05442475 0.01244370
v 0.00039784 0.05459885 0.01237515
v 0.00069760 0.05535672 0.01207845
v 0.00054772 0.05547514 0.01203117
v 0.00054772 0.05561101 0.01197206
v 0.00070666 0.05594009 0.01182253
v 0.00069760 0.05622554 0.01169428
v 0.00069760 0.05630033 0.01166059
v 0.00764712 0.05490549 0.00982368
v 0.00767758 0.05480535 0.00984732
v 0.00781017 0.05492502 0.00968301
v 0.00797075 0.05494413 0.00954176
v 0.00804981 0.05488637 0.00950393
v 0.00815604 0.05487516 0.00942119
v 0.00823345 0.05487806 0.00935558
v 0.00748241 0.05487516 0.00996375
v 0.00737948 0.05495743 0.00999744
v 0.00740748 0.05487516 0.01001694
v 0.00720737 0.05492377 0.01013279
v 0.00723948 0.05482405 0.01015406
v 0.00745771 0.05473015 0.01004709
v 0.00754418 0.05468361 0.01000867
v 0.00715301 0.05533387 0.00995784
v 0.00710525 0.05528941 0.01001517
v 0.00715301 0.05517515 0.01004236
v 0.00715384 0.05503554 0.01011328
v 0.00729548 0.05501435 0.01002758
v 0.00708878 0.05586779 0.00970429
v 0.00709784 0.05557860 0.00986032
v 0.00702125 0.05630033 0.00949979
v 0.00698996 0.05621349 0.00957131
v 0.00699655 0.05607471 0.00964637
v 0.00704514 0.05596751 0.00967592
v 0.00705502 0.05567874 0.00983254
v 0.00691091 0.05583538 0.00983609
v 0.00696443 0.05544606 0.01001990
v 0.00688455 0.05535381 0.01011978
v 0.00699573 0.05532140 0.01006718
v 0.00703443 0.05517515 0.01011978
v 0.00823345 0.05307479 0.01007546
v 0.00821039 0.05307479 0.01009378
v 0.00812557 0.05315373 0.01014520
v 0.00796499 0.05296593 0.01028823
v 0.00790899 0.05291939 0.01033433
v 0.00780358 0.05277480 0.01043066
v 0.00772864 0.05277480 0.01047972
v 0.00761253 0.05277480 0.01055478
v 0.00763065 0.05262480 0.01056660
v 0.00742889 0.05205598 0.01077878
v 0.00069760 0.05205598 0.01294549
v 0.00009727 0.05360829 0.01269726
v -0.00017943 0.05361286 0.01269844
v 0.00039784 0.05262480 0.01286097
v 0.00054772 0.05349860 0.01270376
v 0.00039784 0.05358793 0.01269312
v 0.00020597 0.05360414 0.01269607
v 0.00054772 0.05247480 0.01288225
v 0.00057737 0.05269086 0.01284324
v 0.00069760 0.05217440 0.01292717
v -0.00017943 0.05444054 0.01243779
v -0.00005261 0.05442475 0.01244430
v -0.00005261 0.05536088 0.01208022
v -0.00005261 0.05427476 0.01250044
v 0.00024714 0.05427476 0.01249808
v 0.00039784 0.05442475 0.01244193
v 0.00054772 0.05452198 0.01240351
v 0.00084747 0.05547514 0.01202762
v 0.00099735 0.05517515 0.01214464
v 0.00099735 0.05535174 0.01207609
v 0.00069760 0.05560893 0.01197088
v 0.00084747 0.05592347 0.01182785
v 0.00084747 0.05599867 0.01179417
v 0.00082277 0.05630033 0.01165882
v 0.00769982 0.05472516 0.00986564
v 0.00777476 0.05472516 0.00980417
v 0.00794111 0.05472516 0.00966765
v 0.00799957 0.05484399 0.00956540
v 0.00823345 0.05474926 0.00941587
v 0.00710690 0.05499233 0.01016470
v 0.00692738 0.05495410 0.01029591
v 0.00678244 0.05481283 0.01044958
v 0.00706078 0.05477751 0.01028586
v 0.00734407 0.05472516 0.01012451
v 0.00757300 0.05457475 0.01002936
v 0.00769652 0.05439193 0.01001103
v 0.00767017 0.05449206 0.00999094
v 0.00764794 0.05457475 0.00997321
v 0.00744783 0.05458389 0.01011033
v 0.00706819 0.05509246 0.01014047
v 0.00690102 0.05612457 0.00968006
v 0.00692244 0.05630033 0.00956481
v 0.00675691 0.05628121 0.00968360
v 0.00680138 0.05618108 0.00971197
v 0.00681044 0.05589189 0.00986800
v 0.00655433 0.05608136 0.00992297
v 0.00668856 0.05576142 0.01001694
v 0.00673962 0.05551212 0.01012333
v 0.00678409 0.05541198 0.01015052
v 0.00684009 0.05531226 0.01016825
v 0.00692655 0.05525368 0.01014579
v 0.00695949 0.05517515 0.01016588
v 0.00823345 0.05310761 0.01006836
v 0.00823345 0.05320858 0.01004413
v 0.00819804 0.05322104 0.01006836
v 0.00810581 0.05325387 0.01013101
v 0.00805310 0.05321232 0.01017652
v 0.00768911 0.05303532 0.01045371
v 0.00770723 0.05292479 0.01046613
v 0.00778217 0.05292479 0.01041707
v 0.00752688 0.05285707 0.01059556
v 0.00753759 0.05277480 0.01060265
v 0.00755571 0.05262480 0.01061388
v 0.00730701 0.05205598 0.01085502
v 0.00084747 0.05205598 0.01293603
v 0.00009727 0.05368308 0.01267716
v -0.00017943 0.05362450 0.01269548
v 0.00069760 0.05277480 0.01282255
v 0.00069760 0.05347616 0.01269962
v 0.00069760 0.05355137 0.01268603
v 0.00054772 0.05357339 0.01269016
v 0.00030643 0.05359666 0.01269430
v 0.00054772 0.05367519 0.01266534
v 0.00039784 0.05367519 0.01267066
v 0.00025291 0.05366272 0.01267893
v 0.00069760 0.05232439 0.01290116
v 0.00084747 0.05217440 0.01291712
v -0.00017943 0.05429844 0.01249158
v -0.00017943 0.05427476 0.01250044
v -0.00017943 0.05419041 0.01253118
v -0.00005261 0.05417296 0.01253650
v 0.00009727 0.05416964 0.01253531
v 0.00024714 0.05416465 0.01253413
v 0.00039784 0.05427476 0.01249512
v 0.00054772 0.05442475 0.01243957
v 0.00069760 0.05459137 0.01237337
v 0.00084747 0.05486061 0.01226817
v 0.00084747 0.05560644 0.01196970
v 0.00099735 0.05547514 0.01202467
v 0.00099735 0.05560353 0.01196852
v 0.00099735 0.05502515 0.01220197
v 0.00114805 0.05517515 0.01213814
v 0.00114805 0.05534301 0.01207254
v 0.00114805 0.05547514 0.01201757
v 0.00099735 0.05599576 0.01179298
v 0.00097594 0.05630033 0.01165646
v 0.00775252 0.05456852 0.00989165
v 0.00780523 0.05461422 0.00982900
v 0.00796581 0.05463458 0.00968774
v 0.00814780 0.05457475 0.00956422
v 0.00823345 0.05471851 0.00942946
v 0.00688620 0.05505382 0.01027168
v 0.00684173 0.05501227 0.01031955
v 0.00664574 0.05497529 0.01045726
v 0.00674538 0.05491297 0.01042712
v 0.00669680 0.05486768 0.01047735
v 0.00660045 0.05476131 0.01058138
v 0.00668774 0.05471685 0.01054355
v 0.00680797 0.05472516 0.01046553
v 0.00708961 0.05467738 0.01030418
v 0.00736877 0.05463998 0.01014047
v 0.00726913 0.05472516 0.01017238
v 0.00760018 0.05428930 0.01011505
v 0.00780440 0.05386258 0.01013160
v 0.00792958 0.05367519 0.01011446
v 0.00784887 0.05409692 0.01001281
v 0.00799463 0.05382518 0.01001044
v 0.00797487 0.05390122 0.00999448
v 0.00785546 0.05442475 0.00986978
v 0.00739677 0.05453985 0.01015820
v 0.00752359 0.05434872 0.01014402
v 0.00677585 0.05630033 0.00965996
v 0.00674621 0.05630033 0.00967888
v 0.00667291 0.05630033 0.00972557
v 0.00656504 0.05630033 0.00979354
v 0.00651233 0.05622554 0.00986860
v 0.00628340 0.05630033 0.00996966
v 0.00648680 0.05601446 0.01000217
v 0.00663997 0.05556780 0.01015347
v 0.00624799 0.05622263 0.01003467
v 0.00644975 0.05582333 0.01012983
v 0.00669350 0.05546725 0.01017475
v 0.00664327 0.05527196 0.01030537
v 0.00678656 0.05511490 0.01030182
v 0.00684173 0.05516892 0.01024094
v 0.00823345 0.05325387 0.01003054
v 0.00817827 0.05337478 0.01003822
v 0.00808028 0.05337478 0.01011328
v 0.00800534 0.05337478 0.01016352
v 0.00782664 0.05330456 0.01029532
v 0.00791805 0.05322478 0.01025867
v 0.00761088 0.05308102 0.01049095
v 0.00748653 0.05307479 0.01057074
v 0.00750959 0.05295720 0.01058492
v 0.00758535 0.05291399 0.01054650
v 0.00731771 0.05292479 0.01071022
v 0.00706243 0.05280970 0.01088694
v 0.00707725 0.05270956 0.01089639
v 0.00744948 0.05277480 0.01065703
v 0.00706819 0.05205598 0.01100337
v 0.00715137 0.05205598 0.01095195
v 0.00087959 0.05205598 0.01293367
v -0.00005261 0.05368599 0.01267775
v 0.00024714 0.05382518 0.01263402
v 0.00009727 0.05382518 0.01263756
v -0.00017943 0.05382518 0.01264111
v -0.00017943 0.05370967 0.01267243
v 0.00092735 0.05255167 0.01284560
v 0.00084747 0.05292479 0.01278591
v 0.00079065 0.05345747 0.01269666
v 0.00084336 0.05351439 0.01268130
v 0.00099735 0.05352478 0.01266652
v 0.00084747 0.05367519 0.01264524
v 0.00069760 0.05367519 0.01265766
v 0.00054772 0.05382518 0.01262397
v 0.00039784 0.05382518 0.01262929
v 0.00099735 0.05217440 0.01290412
v 0.00152604 0.05315124 0.01269548
v 0.00114805 0.05292479 0.01276404
v -0.00017943 0.05417462 0.01253650
v -0.00017943 0.05411146 0.01255718
v -0.00005261 0.05409775 0.01256014
v 0.00009727 0.05409443 0.01255896
v 0.00024714 0.05408944 0.01255718
v 0.00039784 0.05415800 0.01253236
v 0.00054772 0.05427476 0.01249099
v 0.00069760 0.05442475 0.01243366
v 0.00069760 0.05451616 0.01240115
v 0.00099735 0.05492959 0.01223744
v 0.00114805 0.05559481 0.01196497
v 0.00111676 0.05630033 0.01165114
v 0.00114805 0.05502515 0.01219429
v 0.00125099 0.05525700 0.01209736
v 0.00129958 0.05518720 0.01212041
v 0.00129958 0.05531434 0.01207018
v 0.00129793 0.05547514 0.01200280
v 0.00099735 0.05622554 0.01168955
v 0.00099735 0.05630033 0.01165586
v 0.00783158 0.05451409 0.00985086
v 0.00799298 0.05453444 0.00970961
v 0.00809675 0.05442475 0.00967178
v 0.00823345 0.05444179 0.00955121
v 0.00650163 0.05513111 0.01046022
v 0.00655021 0.05502515 0.01048681
v 0.00640528 0.05503388 0.01056601
v 0.00645963 0.05493291 0.01058610
v 0.00655021 0.05487973 0.01055951
v 0.00663009 0.05466159 0.01059792
v 0.00650080 0.05483277 0.01060915
v 0.00634598 0.05467946 0.01075632
v 0.00624387 0.05457392 0.01085443
v 0.00644563 0.05460383 0.01072854
v 0.00647610 0.05450370 0.01074568
v 0.00665315 0.05457475 0.01061270
v 0.00691091 0.05417504 0.01058610
v 0.00693726 0.05452406 0.01045253
v 0.00765041 0.05415592 0.01012924
v 0.00785464 0.05367519 0.01016293
v 0.00798393 0.05346868 0.01015052
v 0.00795757 0.05356882 0.01013338
v 0.00739759 0.05409360 0.01030891
v 0.00737124 0.05374416 0.01044248
v 0.00804075 0.05352145 0.01009200
v 0.00805063 0.05366272 0.01003113
v 0.00812639 0.05360414 0.00999567
v 0.00810086 0.05370427 0.00997498
v 0.00804240 0.05396188 0.00991411
v 0.00793040 0.05442475 0.00980831
v 0.00808357 0.05412518 0.00981127
v 0.00814533 0.05423985 0.00971138
v 0.00647363 0.05630033 0.00985086
v 0.00621011 0.05630033 0.01001517
v 0.00654857 0.05547680 0.01025395
v 0.00659880 0.05537210 0.01027936
v 0.00615905 0.05613413 0.01013574
v 0.00649421 0.05572361 0.01015643
v 0.00654610 0.05562098 0.01018007
v 0.00610305 0.05630033 0.01007959
v 0.00625211 0.05608053 0.01010914
v 0.00610470 0.05623385 0.01011446
v 0.00823345 0.05337478 0.00999271
v 0.00814533 0.05352478 0.01001222
v 0.00780440 0.05340470 0.01028172
v 0.00788593 0.05336273 0.01024213
v 0.00775252 0.05336273 0.01032605
v 0.00744289 0.05322935 0.01055655
v 0.00738854 0.05318282 0.01060324
v 0.00757382 0.05322478 0.01047558
v 0.00718431 0.05322478 0.01071968
v 0.00741159 0.05307479 0.01061743
v 0.00722878 0.05301038 0.01074686
v 0.00724278 0.05292479 0.01075573
v 0.00686891 0.05277480 0.01101105
v 0.00728478 0.05262480 0.01078173
v 0.00679397 0.05277480 0.01105656
v 0.00689114 0.05262480 0.01102406
v 0.00697843 0.05205598 0.01105834
v 0.00099735 0.05205598 0.01292303
v 0.00024714 0.05397518 0.01259087
v 0.00009727 0.05397518 0.01259442
v -0.00005261 0.05397518 0.01259678
v -0.00017943 0.05399429 0.01259264
v 0.00114805 0.05307479 0.01273804
v 0.00099735 0.05292479 0.01277527
v 0.00099735 0.05322478 0.01272267
v 0.00114805 0.05352478 0.01265234
v 0.00099735 0.05367519 0.01263224
v 0.00099735 0.05382518 0.01259264
v 0.00084747 0.05382518 0.01260505
v 0.00069760 0.05382518 0.01261628
v 0.00054772 0.05397518 0.01258141
v 0.00039784 0.05397518 0.01258614
v 0.00189826 0.05287784 0.01269962
v 0.00197567 0.05285166 0.01269548
v 0.00180191 0.05298546 0.01269253
v 0.00162568 0.05311883 0.01268957
v 0.00158451 0.05321066 0.01267539
v 0.00129793 0.05352478 0.01263579
v -0.00017943 0.05409983 0.01256073
v 0.00039784 0.05408279 0.01255482
v 0.00054772 0.05415011 0.01252999
v 0.00069760 0.05427476 0.01248389
v 0.00091747 0.05449871 0.01239465
v 0.00081700 0.05450785 0.01239760
v 0.00085900 0.05456478 0.01237515
v 0.00099735 0.05485480 0.01226462
v 0.00129793 0.05557860 0.01195729
v 0.00120981 0.05630033 0.01164286
v 0.00114805 0.05567001 0.01193128
v 0.00115629 0.05623925 0.01167537
v 0.00114805 0.05491463 0.01223330
v 0.00129793 0.05502515 0.01218070
v 0.00144781 0.05515811 0.01211805
v 0.00144781 0.05523332 0.01208791
v 0.00144781 0.05532515 0.01205067
v 0.00144781 0.05547514 0.01198684
v 0.00823345 0.05439234 0.00957249
v 0.00640363 0.05517889 0.01049213
v 0.00631469 0.05508997 0.01058906
v 0.00635916 0.05498983 0.01061329
v 0.00616564 0.05494081 0.01074036
v 0.00640528 0.05487973 0.01063930
v 0.00653539 0.05456228 0.01068953
v 0.00644892 0.05415426 0.01087925
v 0.00625458 0.05488471 0.01071790
v 0.00591447 0.05484856 0.01091649
v 0.00601494 0.05478832 0.01088930
v 0.00630810 0.05477959 0.01073563
v 0.00625458 0.05472765 0.01078646
v 0.00615411 0.05462336 0.01088398
v 0.00619034 0.05452364 0.01090349
v 0.00622164 0.05442475 0.01092240
v 0.00629657 0.05442475 0.01087925
v 0.00632128 0.05434539 0.01089285
v 0.00634928 0.05424526 0.01090999
v 0.00632210 0.05389665 0.01104356
v 0.00657245 0.05397518 0.01086270
v 0.00675691 0.05401839 0.01073386
v 0.00675691 0.05356799 0.01088398
v 0.00709125 0.05378156 0.01060502
v 0.00716043 0.05398266 0.01049449
v 0.00790405 0.05352145 0.01018302
v 0.00767758 0.05360663 0.01029650
v 0.00750465 0.05352478 0.01043185
v 0.00752441 0.05344957 0.01044426
v 0.00729630 0.05353267 0.01055951
v 0.00823345 0.05354389 0.00993124
v 0.00823345 0.05364693 0.00988928
v 0.00823345 0.05369887 0.00986800
v 0.00813627 0.05392241 0.00985441
v 0.00823345 0.05412518 0.00968715
v 0.00823345 0.05431672 0.00960500
v 0.00639951 0.05577430 0.01018480
v 0.00625458 0.05578303 0.01026399
v 0.00621175 0.05544232 0.01046613
v 0.00635669 0.05528692 0.01046317
v 0.00600753 0.05630033 0.01013633
v 0.00823345 0.05352478 0.00993893
v 0.00700808 0.05337644 0.01078764
v 0.00710937 0.05322478 0.01076637
v 0.00720819 0.05311052 0.01073445
v 0.00728642 0.05306606 0.01069722
v 0.00704349 0.05292479 0.01087630
v 0.00692738 0.05315747 0.01089639
v 0.00684914 0.05307479 0.01096259
v 0.00674374 0.05307479 0.01102642
v 0.00683679 0.05291939 0.01100219
v 0.00677915 0.05286538 0.01104770
v 0.00666880 0.05307479 0.01106956
v 0.00670668 0.05291939 0.01107784
v 0.00669927 0.05277480 0.01110916
v 0.00669927 0.05262480 0.01113458
v 0.00681538 0.05262480 0.01106956
v 0.00696279 0.05205598 0.01106779
v 0.00102947 0.05205598 0.01291948
v 0.00203414 0.05276815 0.01270198
v 0.00054772 0.05407490 0.01255245
v 0.00114805 0.05367519 0.01261747
v 0.00099735 0.05402421 0.01253768
v 0.00114805 0.05382518 0.01257787
v 0.00114805 0.05392283 0.01255127
v 0.00114805 0.05399803 0.01253059
v 0.00083924 0.05398391 0.01256132
v 0.00078324 0.05405288 0.01254595
v 0.00069760 0.05397518 0.01257373
v 0.00214119 0.05271413 0.01269785
v 0.00207531 0.05281427 0.01268839
v 0.00203414 0.05291067 0.01267598
v 0.00189826 0.05307479 0.01266357
v 0.00189826 0.05295263 0.01268662
v 0.00175003 0.05307146 0.01268307
v 0.00174838 0.05322478 0.01265115
v 0.00144781 0.05352478 0.01261747
v 0.00159768 0.05337478 0.01263461
v 0.00069760 0.05413764 0.01252645
v 0.00084747 0.05427476 0.01247326
v 0.00099735 0.05427476 0.01246025
v 0.00099735 0.05441146 0.01241534
v 0.00114805 0.05472516 0.01229654
v 0.00152439 0.05555076 0.01194488
v 0.00144781 0.05587735 0.01180717
v 0.00144781 0.05595255 0.01177348
v 0.00129793 0.05628828 0.01163931
v 0.00129793 0.05630033 0.01163340
v 0.00144781 0.05502515 0.01216651
v 0.00159768 0.05513568 0.01210918
v 0.00159768 0.05521088 0.01207904
v 0.00159768 0.05532515 0.01203176
v 0.00616893 0.05524495 0.01059142
v 0.00621422 0.05514482 0.01061625
v 0.00602153 0.05509745 0.01074332
v 0.00587247 0.05494870 0.01089403
v 0.00581318 0.05488928 0.01095195
v 0.00571930 0.05479455 0.01104238
v 0.00605447 0.05468860 0.01091058
v 0.00610223 0.05473306 0.01086625
v 0.00610223 0.05457392 0.01093126
v 0.00608741 0.05441520 0.01099864
v 0.00613352 0.05427476 0.01102465
v 0.00616399 0.05418584 0.01104001
v 0.00626199 0.05428722 0.01094781
v 0.00624552 0.05413182 0.01101046
v 0.00619364 0.05408612 0.01105538
v 0.00622493 0.05397518 0.01107134
v 0.00634846 0.05379651 0.01105834
v 0.00639869 0.05366189 0.01107016
v 0.00647527 0.05360331 0.01104533
v 0.00644810 0.05370344 0.01102937
v 0.00670338 0.05352062 0.01093245
v 0.00678326 0.05346785 0.01090053
v 0.00684009 0.05352062 0.01084793
v 0.00706408 0.05342755 0.01073800
v 0.00823345 0.05382518 0.00981481
v 0.00823345 0.05400884 0.00973680
v 0.00606270 0.05589355 0.01031660
v 0.00616646 0.05554204 0.01044012
v 0.00610964 0.05563843 0.01042239
v 0.00602070 0.05569702 0.01044248
v 0.00593094 0.05630033 0.01018007
v 0.00601741 0.05599327 0.01029059
v 0.00680550 0.05337478 0.01091412
v 0.00690679 0.05325761 0.01088339
v 0.00685326 0.05321440 0.01092772
v 0.00671574 0.05322478 0.01100928
v 0.00664080 0.05322478 0.01105420
v 0.00654857 0.05307479 0.01113458
v 0.00654115 0.05293227 0.01116472
v 0.00658068 0.05277480 0.01117240
v 0.00660374 0.05262480 0.01118422
v 0.00661774 0.05252633 0.01119132
v 0.00668856 0.05247564 0.01116177
v 0.00674044 0.05217440 0.01117713
v 0.00684914 0.05217440 0.01111626
v 0.00683432 0.05247480 0.01108079
v 0.00684914 0.05205598 0.01113340
v 0.00114805 0.05205598 0.01290589
v 0.00129793 0.05367519 0.01259914
v 0.00099735 0.05412518 0.01250754
v 0.00083924 0.05411188 0.01252408
v 0.00128887 0.05382892 0.01255955
v 0.00133252 0.05388169 0.01254004
v 0.00123287 0.05390454 0.01254595
v 0.00114805 0.05412518 0.01249217
v 0.00128887 0.05396271 0.01252290
v 0.00129793 0.05412518 0.01247385
v 0.00219390 0.05261981 0.01270317
v 0.00228942 0.05256663 0.01269726
v 0.00224084 0.05266677 0.01269016
v 0.00234789 0.05277480 0.01265352
v 0.00219390 0.05276815 0.01267952
v 0.00219801 0.05292479 0.01264879
v 0.00204814 0.05307479 0.01264229
v 0.00223013 0.05205598 0.01277173
v 0.00234789 0.05205598 0.01275636
v 0.00189826 0.05322478 0.01263106
v 0.00174838 0.05337478 0.01261451
v 0.00144781 0.05367519 0.01258023
v 0.00159768 0.05352478 0.01259796
v 0.00148239 0.05478790 0.01224098
v 0.00143875 0.05486186 0.01222148
v 0.00158368 0.05548013 0.01196734
v 0.00162486 0.05553373 0.01193719
v 0.00155898 0.05586239 0.01180008
v 0.00144781 0.05627000 0.01163104
v 0.00131934 0.05630033 0.01163104
v 0.00159768 0.05502515 0.01214878
v 0.00170391 0.05511490 0.01210091
v 0.00174838 0.05532515 0.01200693
v 0.00174838 0.05543401 0.01196024
v 0.00602153 0.05539786 0.01059320
v 0.00587412 0.05525035 0.01074450
v 0.00590953 0.05517515 0.01076341
v 0.00576130 0.05502515 0.01091412
v 0.00566083 0.05488762 0.01102760
v 0.00556942 0.05494621 0.01104297
v 0.00561883 0.05484607 0.01106306
v 0.00538990 0.05476339 0.01118186
v 0.00549037 0.05471810 0.01115881
v 0.00566083 0.05473679 0.01108552
v 0.00575636 0.05469483 0.01105952
v 0.00589471 0.05452780 0.01105420
v 0.00585683 0.05462793 0.01103647
v 0.00594576 0.05457683 0.01101105
v 0.00599435 0.05445882 0.01102997
v 0.00602976 0.05435869 0.01104711
v 0.00605858 0.05427476 0.01106011
v 0.00610799 0.05413182 0.01108138
v 0.00609893 0.05397518 0.01113103
v 0.00623481 0.05366231 0.01115231
v 0.00626281 0.05383806 0.01109025
v 0.00639869 0.05352478 0.01110798
v 0.00649586 0.05352478 0.01105656
v 0.00660127 0.05340220 0.01103174
v 0.00657080 0.05352478 0.01101223
v 0.00587165 0.05614825 0.01029295
v 0.00587082 0.05630033 0.01021376
v 0.00662515 0.05330248 0.01104533
v 0.00654857 0.05322478 0.01110325
v 0.00645386 0.05307479 0.01118422
v 0.00646951 0.05298712 0.01119250
v 0.00609893 0.05277480 0.01141709
v 0.00652880 0.05262480 0.01122264
v 0.00666550 0.05217440 0.01121614
v 0.00616317 0.05206096 0.01148919
v 0.00644398 0.05217440 0.01132962
v 0.00675526 0.05205598 0.01118481
v 0.00144781 0.05377948 0.01255304
v 0.00144781 0.05385427 0.01253295
v 0.00144781 0.05397518 0.01249867
v 0.00144781 0.05412518 0.01245375
v 0.00144781 0.05425647 0.01241297
v 0.00144781 0.05433168 0.01238933
v 0.00243518 0.05241289 0.01269666
v 0.00238989 0.05251261 0.01268957
v 0.00234295 0.05261981 0.01268130
v 0.00249859 0.05262480 0.01265588
v 0.00249859 0.05277480 0.01262751
v 0.00219801 0.05307479 0.01261688
v 0.00204814 0.05322478 0.01260801
v 0.00238001 0.05205598 0.01275163
v 0.00189826 0.05337478 0.01259323
v 0.00174838 0.05352478 0.01257728
v 0.00159192 0.05367851 0.01256014
v 0.00153757 0.05375746 0.01254713
v 0.00159768 0.05487516 0.01219843
v 0.00165862 0.05584535 0.01179239
v 0.00159768 0.05624839 0.01162099
v 0.00149145 0.05630033 0.01161095
v 0.00144781 0.05630033 0.01161627
v 0.00174838 0.05487516 0.01217361
v 0.00175168 0.05503388 0.01212041
v 0.00189826 0.05506379 0.01208200
v 0.00189826 0.05517515 0.01203885
v 0.00175168 0.05516892 0.01207018
v 0.00189826 0.05533304 0.01197325
v 0.00184803 0.05541198 0.01195020
v 0.00174838 0.05550921 0.01192656
v 0.00168744 0.05615698 0.01164759
v 0.00587330 0.05554993 0.01059438
v 0.00576212 0.05562514 0.01061447
v 0.00572507 0.05540160 0.01074509
v 0.00578436 0.05531019 0.01076046
v 0.00572424 0.05510119 0.01089462
v 0.00564848 0.05502515 0.01096850
v 0.00551260 0.05518928 0.01094959
v 0.00551096 0.05503512 0.01102583
v 0.00525896 0.05523706 0.01103883
v 0.00531414 0.05513692 0.01106011
v 0.00546978 0.05499150 0.01106188
v 0.00519144 0.05501767 0.01115645
v 0.00513709 0.05496241 0.01119959
v 0.00534296 0.05486934 0.01115940
v 0.00551096 0.05488762 0.01108848
v 0.00528943 0.05481574 0.01120077
v 0.00467428 0.05465120 0.01149511
v 0.00510662 0.05463126 0.01133789
v 0.00505309 0.05457849 0.01137690
v 0.00543519 0.05466367 0.01119900
v 0.00553566 0.05460259 0.01117950
v 0.00563448 0.05456145 0.01115290
v 0.00534873 0.05457475 0.01126283
v 0.00580330 0.05457683 0.01107784
v 0.00579836 0.05442475 0.01112808
v 0.00594576 0.05441520 0.01106720
v 0.00594823 0.05427476 0.01110916
v 0.00594000 0.05411894 0.01115881
v 0.00604705 0.05378779 0.01120491
v 0.00614670 0.05370386 0.01118245
v 0.00588400 0.05406493 0.01119900
v 0.00601576 0.05388751 0.01119132
v 0.00617552 0.05360372 0.01119545
v 0.00627269 0.05352478 0.01117063
v 0.00630316 0.05340927 0.01118481
v 0.00638634 0.05336564 0.01115408
v 0.00655021 0.05336148 0.01107016
v 0.00581153 0.05630033 0.01024685
v 0.00572342 0.05630033 0.01029414
v 0.00642257 0.05322478 0.01116886
v 0.00637892 0.05307479 0.01122264
v 0.00624222 0.05293393 0.01131661
v 0.00617058 0.05299044 0.01134262
v 0.00590871 0.05277480 0.01151224
v 0.00593341 0.05262480 0.01152466
v 0.00600835 0.05262480 0.01148683
v 0.00657080 0.05205598 0.01128056
v 0.00668033 0.05205598 0.01122382
v 0.00646539 0.05205598 0.01133494
v 0.00607176 0.05217440 0.01151875
v 0.00615740 0.05205598 0.01149274
v 0.00626940 0.05205598 0.01143541
v 0.00159192 0.05381480 0.01252408
v 0.00159768 0.05397518 0.01247858
v 0.00159768 0.05412518 0.01243248
v 0.00159768 0.05422323 0.01240233
v 0.00159768 0.05468901 0.01225694
v 0.00249036 0.05231276 0.01270139
v 0.00253483 0.05235514 0.01268898
v 0.00249036 0.05246732 0.01268012
v 0.00264847 0.05247480 0.01265175
v 0.00264847 0.05262480 0.01262751
v 0.00264847 0.05277480 0.01259619
v 0.00249859 0.05292479 0.01259264
v 0.00234789 0.05307479 0.01258732
v 0.00221284 0.05323974 0.01257314
v 0.00205143 0.05338184 0.01256605
v 0.00200367 0.05347201 0.01255068
v 0.00188508 0.05352311 0.01255718
v 0.00249859 0.05205598 0.01273331
v 0.00257765 0.05225500 0.01269548
v 0.00174838 0.05369970 0.01253177
v 0.00163721 0.05373086 0.01254004
v 0.00169733 0.05466408 0.01224926
v 0.00159768 0.05630033 0.01159617
v 0.00174180 0.05621432 0.01161095
v 0.00165615 0.05630033 0.01158553
v 0.00174756 0.05471851 0.01222325
v 0.00179779 0.05463541 0.01224039
v 0.00189826 0.05472516 0.01219370
v 0.00234789 0.05457475 0.01215883
v 0.00189826 0.05487516 0.01214583
v 0.00199461 0.05496200 0.01209914
v 0.00219801 0.05490383 0.01207904
v 0.00204567 0.05501726 0.01206899
v 0.00219801 0.05502515 0.01203471
v 0.00204814 0.05517515 0.01200753
v 0.00194849 0.05538788 0.01193956
v 0.00189826 0.05579300 0.01176875
v 0.00174838 0.05575145 0.01181781
v 0.00203331 0.05562597 0.01181544
v 0.00203331 0.05576059 0.01175516
v 0.00197320 0.05570034 0.01179476
v 0.00199790 0.05601197 0.01164995
v 0.00572424 0.05600117 0.01044485
v 0.00572507 0.05570200 0.01059497
v 0.00564848 0.05573815 0.01061329
v 0.00564848 0.05532515 0.01081956
v 0.00564848 0.05513734 0.01091294
v 0.00557190 0.05524869 0.01089344
v 0.00547143 0.05529440 0.01091649
v 0.00535943 0.05533678 0.01094604
v 0.00520461 0.05532888 0.01101755
v 0.00510250 0.05538124 0.01103588
v 0.00484557 0.05556946 0.01105361
v 0.00500286 0.05542528 0.01105597
v 0.00459852 0.05562514 0.01112453
v 0.00488510 0.05531185 0.01114876
v 0.00520461 0.05518221 0.01108257
v 0.00535778 0.05503512 0.01108611
v 0.00464875 0.05507792 0.01133553
v 0.00459852 0.05502681 0.01137572
v 0.00437123 0.05494787 0.01149392
v 0.00480439 0.05493166 0.01133730
v 0.00475169 0.05487931 0.01137808
v 0.00495674 0.05478333 0.01133848
v 0.00452358 0.05480037 0.01149451
v 0.00458369 0.05471062 0.01150633
v 0.00444782 0.05472516 0.01155125
v 0.00459852 0.05457475 0.01155066
v 0.00482251 0.05449871 0.01149392
v 0.00478628 0.05457475 0.01148033
v 0.00489827 0.05457475 0.01143778
v 0.00557601 0.05450245 0.01119545
v 0.00515026 0.05453112 0.01135503
v 0.00490733 0.05443930 0.01148033
v 0.00504815 0.05442475 0.01142950
v 0.00524991 0.05446963 0.01133553
v 0.00579918 0.05428099 0.01117063
v 0.00560483 0.05442475 0.01120727
v 0.00571271 0.05433500 0.01119013
v 0.00584859 0.05416506 0.01118422
v 0.00609893 0.05352478 0.01125160
v 0.00586341 0.05358419 0.01134025
v 0.00589471 0.05348406 0.01135385
v 0.00594659 0.05353059 0.01131839
v 0.00594659 0.05336024 0.01136390
v 0.00574895 0.05423487 0.01120491
v 0.00564848 0.05412518 0.01127820
v 0.00556201 0.05403377 0.01134025
v 0.00550684 0.05398058 0.01137808
v 0.00564766 0.05398058 0.01132016
v 0.00571024 0.05327963 0.01148919
v 0.00591282 0.05397518 0.01121141
v 0.00595894 0.05383266 0.01123092
v 0.00602400 0.05330041 0.01134439
v 0.00625128 0.05336564 0.01122028
v 0.00632787 0.05330913 0.01119664
v 0.00624881 0.05322478 0.01125515
v 0.00634763 0.05322478 0.01120668
v 0.00564107 0.05630033 0.01033314
v 0.00624881 0.05307479 0.01128706
v 0.00615246 0.05307479 0.01133434
v 0.00586753 0.05298462 0.01149156
v 0.00594165 0.05293061 0.01146614
v 0.00588730 0.05288449 0.01150161
v 0.00580989 0.05293061 0.01152879
v 0.00579836 0.05277480 0.01156307
v 0.00579836 0.05262480 0.01158790
v 0.00581812 0.05232439 0.01162040
v 0.00594823 0.05232439 0.01155894
v 0.00609811 0.05205598 0.01152170
v 0.00594823 0.05217440 0.01157903
v 0.00174838 0.05382518 0.01249867
v 0.00174838 0.05397518 0.01245552
v 0.00167921 0.05420329 0.01239583
v 0.00263612 0.05231276 0.01267716
v 0.00294822 0.05217440 0.01263874
v 0.00294822 0.05232439 0.01261628
v 0.00279835 0.05247480 0.01262220
v 0.00294822 0.05247480 0.01259028
v 0.00279835 0.05262480 0.01259501
v 0.00299928 0.05267383 0.01253945
v 0.00289964 0.05272494 0.01255068
v 0.00279752 0.05277480 0.01256250
v 0.00274729 0.05287244 0.01255068
v 0.00259412 0.05301869 0.01254950
v 0.00253730 0.05311883 0.01253768
v 0.00243683 0.05316080 0.01254773
v 0.00234789 0.05319528 0.01255718
v 0.00227295 0.05329957 0.01254477
v 0.00210414 0.05343627 0.01254122
v 0.00205143 0.05352311 0.01252763
v 0.00189826 0.05382518 0.01247326
v 0.00192626 0.05357173 0.01253709
v 0.00188508 0.05366106 0.01251995
v 0.00252083 0.05205598 0.01272976
v 0.00260647 0.05217440 0.01270080
v 0.00268141 0.05217440 0.01268780
v 0.00173685 0.05412642 0.01241061
v 0.00177968 0.05417711 0.01238756
v 0.00186944 0.05407698 0.01240351
v 0.00174591 0.05630033 0.01156898
v 0.00178791 0.05613454 0.01163754
v 0.00189826 0.05622554 0.01157430
v 0.00189826 0.05630033 0.01153884
v 0.00191144 0.05412642 0.01238046
v 0.00208437 0.05447752 0.01223803
v 0.00227048 0.05434830 0.01224453
v 0.00249859 0.05442475 0.01217656
v 0.00256777 0.05464663 0.01209382
v 0.00219801 0.05482862 0.01210445
v 0.00219801 0.05472516 0.01213814
v 0.00238165 0.05477585 0.01208672
v 0.00251012 0.05472558 0.01207845
v 0.00249859 0.05487516 0.01202762
v 0.00264847 0.05487516 0.01199571
v 0.00234789 0.05502515 0.01200221
v 0.00219554 0.05518097 0.01197206
v 0.00214449 0.05526157 0.01194961
v 0.00204814 0.05528692 0.01196024
v 0.00249200 0.05502848 0.01196911
v 0.00204814 0.05536212 0.01192833
v 0.00227625 0.05555159 0.01179535
v 0.00204814 0.05547514 0.01187927
v 0.00204814 0.05593302 0.01167478
v 0.00249859 0.05574065 0.01166296
v 0.00235036 0.05578386 0.01167596
v 0.00209755 0.05598828 0.01163931
v 0.00206049 0.05623925 0.01153352
v 0.00557107 0.05614825 0.01044308
v 0.00557190 0.05584868 0.01059379
v 0.00557190 0.05554910 0.01074391
v 0.00551260 0.05533678 0.01087689
v 0.00541708 0.05539453 0.01089167
v 0.00531661 0.05543899 0.01091412
v 0.00516097 0.05558359 0.01091117
v 0.00520626 0.05548345 0.01094072
v 0.00505062 0.05547514 0.01101223
v 0.00494521 0.05552542 0.01103292
v 0.00468828 0.05571364 0.01105065
v 0.00458781 0.05576848 0.01106543
v 0.00444782 0.05577513 0.01111685
v 0.00451370 0.05554204 0.01119132
v 0.00474839 0.05536254 0.01117890
v 0.00435723 0.05568663 0.01118895
v 0.00421230 0.05509122 0.01149097
v 0.00427076 0.05499108 0.01151165
v 0.00431194 0.05488887 0.01153766
v 0.00444782 0.05483610 0.01150870
v 0.00444452 0.05532057 0.01131011
v 0.00428970 0.05471643 0.01160976
v 0.00433500 0.05461256 0.01163163
v 0.00444041 0.05456769 0.01161036
v 0.00448570 0.05445716 0.01163104
v 0.00476239 0.05443930 0.01153589
v 0.00486286 0.05439858 0.01151047
v 0.00504980 0.05428182 0.01147265
v 0.00538825 0.05430343 0.01133080
v 0.00496333 0.05433625 0.01149038
v 0.00552990 0.05412518 0.01132666
v 0.00513873 0.05407075 0.01150102
v 0.00542613 0.05420329 0.01134558
v 0.00574236 0.05317949 0.01150279
v 0.00579506 0.05322769 0.01146674
v 0.00527543 0.05390288 0.01149511
v 0.00530179 0.05382518 0.01150633
v 0.00544261 0.05362865 0.01150279
v 0.00560319 0.05337478 0.01150693
v 0.00565507 0.05322769 0.01152525
v 0.00604294 0.05322478 0.01135385
v 0.00594823 0.05322478 0.01139818
v 0.00594823 0.05307479 0.01143305
v 0.00557684 0.05630033 0.01036329
v 0.00584530 0.05307479 0.01148210
v 0.00577036 0.05307479 0.01151638
v 0.00564848 0.05292479 0.01159972
v 0.00564683 0.05278934 0.01162513
v 0.00569542 0.05262480 0.01163281
v 0.00571436 0.05251635 0.01164050
v 0.00578683 0.05246982 0.01161449
v 0.00584118 0.05217440 0.01162986
v 0.00567319 0.05205598 0.01172206
v 0.00576624 0.05217440 0.01166414
v 0.00597459 0.05205598 0.01158140
v 0.00585765 0.05205598 0.01163695
v 0.00191144 0.05398889 0.01242302
v 0.00279835 0.05217440 0.01266652
v 0.00282387 0.05205598 0.01267657
v 0.00294822 0.05205598 0.01265352
v 0.00309810 0.05217440 0.01260919
v 0.00309810 0.05232439 0.01258496
v 0.00324221 0.05231442 0.01255541
v 0.00318869 0.05241705 0.01254832
v 0.00314586 0.05251718 0.01253886
v 0.00304622 0.05257369 0.01255009
v 0.00294905 0.05262438 0.01256132
v 0.00294905 0.05277480 0.01252763
v 0.00309728 0.05262438 0.01252763
v 0.00324880 0.05262480 0.01249158
v 0.00309810 0.05277480 0.01249217
v 0.00279752 0.05292355 0.01252704
v 0.00264600 0.05307105 0.01252527
v 0.00264847 0.05322478 0.01248567
v 0.00249200 0.05321647 0.01252172
v 0.00234789 0.05327049 0.01253709
v 0.00219801 0.05352478 0.01249808
v 0.00249859 0.05337478 0.01247739
v 0.00249859 0.05352478 0.01243661
v 0.00204814 0.05367519 0.01248626
v 0.00204814 0.05382518 0.01244430
v 0.00204814 0.05394693 0.01240883
v 0.00264847 0.05205598 0.01270789
v 0.00271353 0.05208423 0.01269312
v 0.00196990 0.05404831 0.01239406
v 0.00199296 0.05630033 0.01151934
v 0.00219801 0.05412518 0.01232609
v 0.00274647 0.05451450 0.01209973
v 0.00264847 0.05427476 0.01219134
v 0.00284693 0.05448209 0.01208968
v 0.00294822 0.05457475 0.01203767
v 0.00264847 0.05472516 0.01205008
v 0.00273000 0.05495369 0.01194606
v 0.00264847 0.05497571 0.01195552
v 0.00279835 0.05472516 0.01201816
v 0.00291446 0.05482530 0.01195492
v 0.00278764 0.05487516 0.01196438
v 0.00264847 0.05505091 0.01192419
v 0.00224413 0.05523457 0.01193838
v 0.00264847 0.05537791 0.01178530
v 0.00264847 0.05547514 0.01174393
v 0.00279835 0.05566378 0.01162927
v 0.00270282 0.05568954 0.01163991
v 0.00279835 0.05577513 0.01158080
v 0.00265094 0.05576931 0.01161627
v 0.00294822 0.05587153 0.01150456
v 0.00264847 0.05592554 0.01154712
v 0.00249859 0.05592554 0.01158021
v 0.00240142 0.05583954 0.01163991
v 0.00235036 0.05591848 0.01161567
v 0.00219801 0.05607554 0.01157785
v 0.00211649 0.05630033 0.01149274
v 0.00236271 0.05609008 0.01153530
v 0.00219801 0.05620393 0.01151934
v 0.00236271 0.05622471 0.01147324
v 0.00551178 0.05630033 0.01039343
v 0.00535943 0.05608343 0.01057192
v 0.00541708 0.05569452 0.01074154
v 0.00531661 0.05573898 0.01076400
v 0.00516097 0.05588316 0.01076105
v 0.00489745 0.05622263 0.01070667
v 0.00489745 0.05577638 0.01092949
v 0.00463146 0.05581377 0.01102642
v 0.00453099 0.05585740 0.01104770
v 0.00444782 0.05589272 0.01106425
v 0.00431276 0.05594009 0.01109380
v 0.00430370 0.05577721 0.01116945
v 0.00430370 0.05563220 0.01123092
v 0.00411265 0.05513318 0.01150870
v 0.00415630 0.05503471 0.01153352
v 0.00399901 0.05502515 0.01159085
v 0.00413736 0.05486352 0.01160681
v 0.00418018 0.05476089 0.01163045
v 0.00423453 0.05466076 0.01164877
v 0.00438523 0.05451284 0.01164877
v 0.00428970 0.05456769 0.01166237
v 0.00452934 0.05435703 0.01164700
v 0.00458699 0.05441395 0.01160799
v 0.00393560 0.05406327 0.01194901
v 0.00474839 0.05427476 0.01159144
v 0.00490733 0.05428182 0.01152879
v 0.00500121 0.05423653 0.01150574
v 0.00545413 0.05412518 0.01135740
v 0.00523838 0.05400302 0.01148092
v 0.00504980 0.05412227 0.01152052
v 0.00489827 0.05412518 0.01157844
v 0.00504815 0.05397518 0.01156307
v 0.00519226 0.05396188 0.01151106
v 0.00564848 0.05307479 0.01156721
v 0.00519803 0.05382518 0.01154652
v 0.00534873 0.05352478 0.01156780
v 0.00549860 0.05337478 0.01154889
v 0.00549860 0.05322478 0.01158790
v 0.00557354 0.05284917 0.01164463
v 0.00547884 0.05292479 0.01166650
v 0.00534873 0.05277480 0.01174866
v 0.00559495 0.05274945 0.01165350
v 0.00549860 0.05262480 0.01171497
v 0.00562048 0.05262480 0.01166414
v 0.00489827 0.05217440 0.01203826
v 0.00489004 0.05205598 0.01206013
v 0.00492792 0.05205598 0.01204417
v 0.00504980 0.05205598 0.01199275
v 0.00507615 0.05205598 0.01198152
v 0.00554060 0.05205598 0.01178057
v 0.00556778 0.05205598 0.01176875
v 0.00514203 0.05205598 0.01195315
v 0.00534873 0.05205598 0.01186391
v 0.00579836 0.05205598 0.01166473
v 0.00309810 0.05205598 0.01262397
v 0.00313022 0.05205598 0.01261747
v 0.00346950 0.05209254 0.01254418
v 0.00333033 0.05225750 0.01254654
v 0.00328833 0.05235763 0.01253709
v 0.00324221 0.05247023 0.01252586
v 0.00294822 0.05292479 0.01249158
v 0.00324880 0.05277480 0.01245552
v 0.00339868 0.05247480 0.01248685
v 0.00339868 0.05262480 0.01245316
v 0.00340197 0.05277729 0.01241593
v 0.00335503 0.05288158 0.01240292
v 0.00309810 0.05292479 0.01245552
v 0.00294822 0.05307479 0.01245493
v 0.00279835 0.05307479 0.01248980
v 0.00264847 0.05337478 0.01244548
v 0.00290293 0.05332617 0.01240174
v 0.00315163 0.05373170 0.01224039
v 0.00263776 0.05352062 0.01240824
v 0.00219801 0.05367519 0.01245612
v 0.00310057 0.05382352 0.01222680
v 0.00298610 0.05387255 0.01223744
v 0.00263776 0.05366355 0.01236864
v 0.00249859 0.05363613 0.01240529
v 0.00219554 0.05396853 0.01237278
v 0.00266000 0.05398764 0.01227231
v 0.00249859 0.05397518 0.01230895
v 0.00309810 0.05432088 0.01208672
v 0.00234789 0.05412518 0.01229595
v 0.00302069 0.05434788 0.01209441
v 0.00292105 0.05438196 0.01210445
v 0.00296222 0.05442891 0.01208200
v 0.00324880 0.05442475 0.01202348
v 0.00309810 0.05457475 0.01200516
v 0.00282964 0.05492502 0.01193483
v 0.00278764 0.05501227 0.01190823
v 0.00295810 0.05473638 0.01197798
v 0.00309810 0.05469234 0.01196143
v 0.00336986 0.05453112 0.01195729
v 0.00319363 0.05466242 0.01194961
v 0.00301410 0.05479413 0.01194251
v 0.00324880 0.05487516 0.01185209
v 0.00324880 0.05505964 0.01177880
v 0.00295810 0.05487516 0.01192419
v 0.00234789 0.05520673 0.01192656
v 0.00328915 0.05538124 0.01163695
v 0.00294822 0.05532515 0.01173920
v 0.00294740 0.05548179 0.01167300
v 0.00289717 0.05556281 0.01164995
v 0.00294740 0.05561766 0.01161508
v 0.00294822 0.05577513 0.01154652
v 0.00314586 0.05613662 0.01133848
v 0.00294822 0.05607554 0.01141118
v 0.00278435 0.05592637 0.01151638
v 0.00326033 0.05563843 0.01153293
v 0.00302563 0.05585158 0.01149511
v 0.00340774 0.05623717 0.01123151
v 0.00264847 0.05602028 0.01150397
v 0.00249859 0.05622554 0.01144250
v 0.00273247 0.05630033 0.01135503
v 0.00232154 0.05617401 0.01150574
v 0.00533143 0.05630033 0.01047499
v 0.00541543 0.05629326 0.01044071
v 0.00535861 0.05623634 0.01049509
v 0.00512144 0.05630033 0.01056896
v 0.00505144 0.05623011 0.01063516
v 0.00477392 0.05630033 0.01072027
v 0.00469569 0.05630033 0.01075396
v 0.00463063 0.05611418 0.01087630
v 0.00501686 0.05630033 0.01061506
v 0.00497650 0.05630033 0.01063280
v 0.00458781 0.05606848 0.01091767
v 0.00444782 0.05596793 0.01102819
v 0.00437288 0.05600034 0.01104415
v 0.00427241 0.05604064 0.01106306
v 0.00415547 0.05608468 0.01108611
v 0.00414642 0.05592097 0.01116177
v 0.00414642 0.05577721 0.01122382
v 0.00399901 0.05558234 0.01135858
v 0.00425676 0.05572818 0.01120668
v 0.00399901 0.05547514 0.01140409
v 0.00395289 0.05527445 0.01150515
v 0.00400148 0.05517972 0.01152761
v 0.00392242 0.05494912 0.01164404
v 0.00399901 0.05491629 0.01163222
v 0.00384913 0.05517515 0.01157844
v 0.00407971 0.05480618 0.01164700
v 0.00413736 0.05471643 0.01166059
v 0.00393807 0.05451284 0.01179948
v 0.00403689 0.05446381 0.01178293
v 0.00414147 0.05441811 0.01176284
v 0.00399901 0.05427476 0.01185859
v 0.00426665 0.05412518 0.01181071
v 0.00434159 0.05412518 0.01178353
v 0.00384254 0.05411811 0.01196261
v 0.00384913 0.05397518 0.01200280
v 0.00397019 0.05397518 0.01196143
v 0.00437205 0.05404872 0.01179417
v 0.00466934 0.05419498 0.01164345
v 0.00475416 0.05413723 0.01162868
v 0.00480851 0.05402919 0.01163931
v 0.00489580 0.05397767 0.01162040
v 0.00549778 0.05308268 0.01162395
v 0.00534873 0.05292479 0.01171733
v 0.00503662 0.05381480 0.01161036
v 0.00519803 0.05367519 0.01158612
v 0.00533884 0.05336772 0.01161272
v 0.00538661 0.05322478 0.01163104
v 0.00541625 0.05313794 0.01164168
v 0.00497156 0.05254544 0.01194369
v 0.00491227 0.05248685 0.01197856
v 0.00499380 0.05244530 0.01195315
v 0.00517744 0.05277480 0.01181603
v 0.00504815 0.05262480 0.01189759
v 0.00489827 0.05232439 0.01201344
v 0.00478957 0.05217440 0.01208200
v 0.00482910 0.05205598 0.01208495
v 0.00343244 0.05205598 0.01255600
v 0.00351891 0.05205598 0.01253768
v 0.00369843 0.05205598 0.01249512
v 0.00354855 0.05217440 0.01251108
v 0.00343821 0.05217440 0.01253709
v 0.00338797 0.05231442 0.01252231
v 0.00324880 0.05322478 0.01234441
v 0.00310222 0.05307894 0.01241652
v 0.00340444 0.05338060 0.01226758
v 0.00369843 0.05217440 0.01247089
v 0.00349585 0.05272909 0.01240174
v 0.00345468 0.05282923 0.01238992
v 0.00340197 0.05292895 0.01237928
v 0.00350656 0.05333406 0.01225339
v 0.00339868 0.05307479 0.01234441
v 0.00305528 0.05318074 0.01240292
v 0.00295069 0.05337561 0.01237810
v 0.00309810 0.05337478 0.01234382
v 0.00345797 0.05403709 0.01209145
v 0.00249859 0.05371134 0.01238401
v 0.00324880 0.05397518 0.01215351
v 0.00335833 0.05407656 0.01210209
v 0.00329162 0.05417670 0.01208791
v 0.00319116 0.05421285 0.01209854
v 0.00264847 0.05382518 0.01232077
v 0.00324386 0.05426769 0.01207195
v 0.00339868 0.05427476 0.01203649
v 0.00341185 0.05443846 0.01197975
v 0.00324551 0.05457849 0.01196911
v 0.00315410 0.05508872 0.01179003
v 0.00310222 0.05517058 0.01176875
v 0.00347032 0.05449747 0.01194369
v 0.00355679 0.05487557 0.01177407
v 0.00339868 0.05472516 0.01187395
v 0.00353538 0.05517266 0.01166237
v 0.00339868 0.05517515 0.01169546
v 0.00309810 0.05562514 0.01157667
v 0.00309810 0.05550838 0.01162690
v 0.00299681 0.05553580 0.01163872
v 0.00339868 0.05534966 0.01162395
v 0.00339868 0.05547514 0.01157076
v 0.00309645 0.05621681 0.01131248
v 0.00333939 0.05630033 0.01121909
v 0.00279505 0.05623135 0.01137335
v 0.00350903 0.05556987 0.01150338
v 0.00331797 0.05569702 0.01149333
v 0.00312610 0.05582458 0.01148328
v 0.00354855 0.05627207 0.01118186
v 0.00346950 0.05630033 0.01118836
v 0.00345962 0.05630033 0.01119072
v 0.00324880 0.05592554 0.01140881
v 0.00458781 0.05621432 0.01084379
v 0.00436876 0.05630033 0.01089285
v 0.00437041 0.05629825 0.01089344
v 0.00431276 0.05608468 0.01102642
v 0.00421065 0.05614077 0.01104001
v 0.00411101 0.05618025 0.01105834
v 0.00399819 0.05622844 0.01107725
v 0.00398913 0.05606432 0.01115349
v 0.00403195 0.05596793 0.01118068
v 0.00399901 0.05577513 0.01127524
v 0.00398913 0.05592097 0.01121555
v 0.00391172 0.05569162 0.01134085
v 0.00389113 0.05537459 0.01148387
v 0.00384419 0.05532473 0.01151934
v 0.00386313 0.05503180 0.01162986
v 0.00386313 0.05488928 0.01168364
v 0.00369020 0.05441520 0.01191060
v 0.00383678 0.05456769 0.01181071
v 0.00387878 0.05461298 0.01178116
v 0.00399901 0.05484150 0.01166000
v 0.00379066 0.05541282 0.01149983
v 0.00369843 0.05532515 0.01156012
v 0.00370173 0.05517266 0.01161981
v 0.00375443 0.05508665 0.01163931
v 0.00399901 0.05472516 0.01170256
v 0.00373467 0.05431423 0.01193306
v 0.00378819 0.05421409 0.01194961
v 0.00369843 0.05412518 0.01200398
v 0.00369843 0.05397518 0.01204653
v 0.00384913 0.05382518 0.01204121
v 0.00401383 0.05383973 0.01198152
v 0.00410853 0.05379942 0.01195788
v 0.00414806 0.05397518 0.01189641
v 0.00470804 0.05409526 0.01165764
v 0.00459852 0.05397518 0.01173093
v 0.00450876 0.05387961 0.01178944
v 0.00464463 0.05370884 0.01178412
v 0.00489580 0.05381480 0.01166296
v 0.00500780 0.05367519 0.01165764
v 0.00519720 0.05293144 0.01177348
v 0.00544755 0.05303781 0.01165350
v 0.00484474 0.05273408 0.01195315
v 0.00504815 0.05277480 0.01186627
v 0.00511403 0.05358586 0.01164109
v 0.00528202 0.05331287 0.01164818
v 0.00503827 0.05321731 0.01176284
v 0.00473769 0.05306606 0.01191237
v 0.00459852 0.05292479 0.01199925
v 0.00481345 0.05283421 0.01194133
v 0.00487521 0.05262480 0.01196556
v 0.00474839 0.05247480 0.01204417
v 0.00469075 0.05228409 0.01210150
v 0.00471463 0.05217440 0.01211096
v 0.00481098 0.05206720 0.01209027
v 0.00479863 0.05205598 0.01209677
v 0.00384996 0.05205598 0.01245139
v 0.00345797 0.05343420 0.01224098
v 0.00355514 0.05383183 0.01211864
v 0.00350985 0.05393695 0.01210386
v 0.00339868 0.05367519 0.01219606
v 0.00387878 0.05205598 0.01244252
v 0.00394878 0.05212952 0.01240411
v 0.00384831 0.05367934 0.01207609
v 0.00379808 0.05363239 0.01210209
v 0.00375772 0.05373253 0.01209086
v 0.00364655 0.05318074 0.01225221
v 0.00370420 0.05383183 0.01208081
v 0.00365808 0.05378613 0.01210386
v 0.00339868 0.05382518 0.01215883
v 0.00355514 0.05398224 0.01208140
v 0.00354855 0.05412518 0.01204476
v 0.00340444 0.05412601 0.01207845
v 0.00354855 0.05427476 0.01199925
v 0.00354855 0.05439234 0.01196024
v 0.00353538 0.05531102 0.01160681
v 0.00354855 0.05446713 0.01193247
v 0.00354855 0.05457475 0.01189228
v 0.00361196 0.05479206 0.01179180
v 0.00370173 0.05503180 0.01167478
v 0.00365396 0.05512072 0.01165291
v 0.00357655 0.05522085 0.01163281
v 0.00355432 0.05548511 0.01152879
v 0.00360867 0.05554162 0.01149097
v 0.00355432 0.05562223 0.01146910
v 0.00363255 0.05585532 0.01134676
v 0.00354855 0.05595338 0.01132371
v 0.00354855 0.05630033 0.01116886
v 0.00370255 0.05608427 0.01122796
v 0.00370255 0.05622097 0.01116708
v 0.00428559 0.05630033 0.01092713
v 0.00415547 0.05622844 0.01101755
v 0.00404760 0.05628038 0.01103410
v 0.00395783 0.05630033 0.01105834
v 0.00384913 0.05622554 0.01112689
v 0.00393231 0.05600698 0.01119723
v 0.00384419 0.05546766 0.01145905
v 0.00363420 0.05435869 0.01194783
v 0.00384913 0.05592554 0.01125810
v 0.00373219 0.05582666 0.01133434
v 0.00369843 0.05544065 0.01151224
v 0.00369020 0.05426852 0.01196143
v 0.00399077 0.05351937 0.01206840
v 0.00399901 0.05367519 0.01202821
v 0.00414806 0.05352478 0.01201403
v 0.00415465 0.05367768 0.01197265
v 0.00424441 0.05362948 0.01195256
v 0.00444782 0.05367519 0.01186568
v 0.00445440 0.05382768 0.01182312
v 0.00434406 0.05355968 0.01193424
v 0.00437947 0.05345954 0.01194724
v 0.00459852 0.05352478 0.01184913
v 0.00475745 0.05278061 0.01197502
v 0.00459852 0.05277480 0.01203590
v 0.00451123 0.05267840 0.01209086
v 0.00474839 0.05262480 0.01201403
v 0.00514779 0.05348572 0.01165409
v 0.00481427 0.05343627 0.01179121
v 0.00448323 0.05337478 0.01193010
v 0.00451370 0.05328545 0.01194133
v 0.00459769 0.05323102 0.01192360
v 0.00445770 0.05323102 0.01197561
v 0.00444782 0.05307479 0.01201757
v 0.00447911 0.05277480 0.01207963
v 0.00459275 0.05262688 0.01207136
v 0.00396854 0.05205598 0.01241120
v 0.00438111 0.05211498 0.01224807
v 0.00439182 0.05205598 0.01225221
v 0.00440335 0.05277480 0.01210505
v 0.00434076 0.05295429 0.01208436
v 0.00424112 0.05302534 0.01210091
v 0.00415300 0.05323766 0.01208081
v 0.00393560 0.05346578 0.01209854
v 0.00375525 0.05614036 0.01119013
v 0.00358808 0.05630033 0.01115881
v 0.00370584 0.05630033 0.01112867
v 0.00406818 0.05630033 0.01101519
v 0.00392984 0.05630033 0.01106720
v 0.00384913 0.05630033 0.01109143
v 0.00414806 0.05337478 0.01205008
v 0.00429794 0.05337478 0.01199807
v 0.00440829 0.05337478 0.01195788
v 0.00418183 0.05205598 0.01233200
v 0.00432676 0.05205598 0.01227704
f 1 2 6
f 1 6 11
f 1 11 23
f 1 23 40
f 1 40 44
f 1 44 43
f 1 43 80
f 1 80 79
f 1 79 78
f 1 78 76
f 1 76 123
f 1 123 172
f 1 172 171
f 1 171 213
f 1 213 276
f 1 276 348
f 1 348 439
f 1 439 534
f 1 534 569
f 1 569 568
f 1 568 651
f 1 651 650
f 1 650 566
f 1 566 565
f 1 565 564
f 1 564 575
f 1 575 478
f 1 478 383
f 1 383 301
f 1 301 300
f 1 300 238
f 1 238 181
f 1 181 132
f 1 132 89
f 1 89 50
f 1 50 29
f 1 29 17
f 1 17 8
f 1 8 3
f 1 3 4
f 1 4 5
f 1 5 10
f 1 10 22
f 1 22 38
f 1 38 70
f 1 70 111
f 1 111 160
f 1 160 206
f 1 206 271
f 1 271 343
f 1 343 435
f 1 435 428
f 1 428 525
f 1 525 621
f 1 621 702
f 1 702 766
f 1 766 765
f 1 765 850
f 1 850 852
f 1 852 968
f 1 968 971
f 1 971 1081
f 1 1081 1107
f 1 1107 1224
f 1 1224 1324
f 1 1324 1331
f 1 1331 1330
f 1 1330 1419
f 1 1419 1466
f 1 1466 1467
f 1 1467 1470
f 1 1470 1469
f 1 1469 1425
f 1 1425 1468
f 1 1468 1422
f 1 1422 1334
f 1 1334 1232
f 1 1232 1231
f 1 1231 1235
f 1 1235 1234
f 1 1234 1229
f 1 1229 1226
f 1 1226 1111
f 1 1111 1039
f 1 1039 926
f 1 926 814
f 1 814 813
f 1 813 733
f 1 733 656
f 1 656 574
f 1 574 475
f 1 475 469
f 1 469 374
f 1 374 468
f 1 468 372
f 1 372 371
f 1 371 370
f 1 370 369
f 1 369 289
f 1 289 228
f 1 228 180
f 1 180 131
f 1 131 88
f 1 88 47
f 1 47 28
f 1 28 16
f 1 16 7
f 1 7 2
f 2 7 6
f 3 8 18
f 3 18 32
f 3 32 58
f 3 58 56
f 3 56 55
f 3 55 54
f 3 54 94
f 3 94 138
f 3 138 141
f 3 141 140
f 3 140 187
f 3 187 247
f 3 247 311
f 3 311 398
f 3 398 397
f 3 397 494
f 3 494 591
f 3 591 672
f 3 672 743
f 3 743 823
f 3 823 822
f 3 822 824
f 3 824 827
f 3 827 826
f 3 826 937
f 3 937 1050
f 3 1050 1051
f 3 1051 1164
f 3 1164 1048
f 3 1048 1161
f 3 1161 1160
f 3 1160 1163
f 3 1163 1162
f 3 1162 1159
f 3 1159 1158
f 3 1158 1157
f 3 1157 1156
f 3 1156 1281
f 3 1281 1387
f 3 1387 1459
f 3 1459 1475
f 3 1475 1474
f 3 1474 1457
f 3 1457 1393
f 3 1393 1388
f 3 1388 1284
f 3 1284 1283
f 3 1283 1282
f 3 1282 1166
f 3 1166 1165
f 3 1165 1055
f 3 1055 1054
f 3 1054 1078
f 3 1078 962
f 3 962 845
f 3 845 757
f 3 757 691
f 3 691 690
f 3 690 673
f 3 673 592
f 3 592 495
f 3 495 399
f 3 399 312
f 3 312 248
f 3 248 188
f 3 188 142
f 3 142 96
f 3 96 59
f 3 59 33
f 3 33 19
f 3 19 9
f 3 9 4
f 4 9 20
f 4 20 35
f 4 35 62
f 4 62 104
f 4 104 103
f 4 103 102
f 4 102 99
f 4 99 147
f 4 147 146
f 4 146 145
f 4 145 190
f 4 190 250
f 4 250 314
f 4 314 404
f 4 404 403
f 4 403 499
f 4 499 516
f 4 516 418
f 4 418 417
f 4 417 327
f 4 327 326
f 4 326 325
f 4 325 258
f 4 258 196
f 4 196 152
f 4 152 105
f 4 105 63
f 4 63 36
f 4 36 21
f 4 21 10
f 4 10 5
f 6 7 12
f 6 12 11
f 7 13 14
f 7 14 15
f 7 15 12
f 7 16 13
f 8 17 18
f 9 19 20
f 10 21 22
f 11 12 23
f 12 15 24
f 12 24 25
f 12 25 23
f 13 15 14
f 13 16 26
f 13 26 15
f 15 27 24
f 15 26 27
f 16 28 26
f 17 29 30
f 17 30 31
f 17 31 32
f 17 32 18
f 19 33 34
f 19 34 20
f 20 34 35
f 21 36 67
f 21 67 37
f 21 37 22
f 22 37 69
f 22 69 38
f 23 39 40
f 23 25 39
f 24 27 41
f 24 41 25
f 25 41 42
f 25 42 43
f 25 43 44
f 25 44 39
f 26 28 45
f 26 45 27
f 27 45 28
f 27 28 46
f 27 46 41
f 28 47 48
f 28 48 49
f 28 49 46
f 29 50 51
f 29 51 30
f 30 51 52
f 30 52 53
f 30 53 54
f 30 54 55
f 30 55 56
f 30 56 57
f 30 57 31
f 31 57 32
f 32 57 58
f 33 59 60
f 33 60 34
f 34 61 35
f 34 60 61
f 35 61 62
f 36 63 64
f 36 64 65
f 36 65 66
f 36 66 67
f 37 67 68
f 37 68 69
f 38 69 70
f 39 44 40
f 41 46 71
f 41 71 72
f 41 72 73
f 41 73 74
f 41 74 75
f 41 75 76
f 41 76 77
f 41 77 42
f 42 77 78
f 42 78 79
f 42 79 80
f 42 80 43
f 46 49 81
f 46 81 82
f 46 82 83
f 46 83 84
f 46 84 85
f 46 85 86
f 46 86 87
f 46 87 71
f 47 88 48
f 48 88 49
f 49 88 81
f 50 89 90
f 50 90 51
f 51 90 52
f 52 90 91
f 52 91 92
f 52 92 93
f 52 93 53
f 53 93 54
f 54 93 95
f 54 95 94
f 56 58 57
f 59 96 60
f 60 97 98
f 60 98 99
f 60 99 100
f 60 100 61
f 60 96 101
f 60 101 97
f 61 100 102
f 61 102 103
f 61 103 104
f 61 104 62
f 63 105 65
f 63 65 64
f 65 106 107
f 65 107 108
f 65 108 109
f 65 109 110
f 65 110 66
f 65 105 106
f 66 110 68
f 66 68 67
f 68 110 69
f 69 110 70
f 70 110 111
f 71 87 72
f 72 112 113
f 72 113 73
f 72 87 114
f 72 114 115
f 72 115 116
f 72 116 117
f 72 117 118
f 72 118 112
f 73 113 74
f 74 113 119
f 74 119 120
f 74 120 121
f 74 121 75
f 75 122 123
f 75 123 76
f 75 121 124
f 75 124 122
f 76 78 77
f 81 88 125
f 81 125 82
f 82 125 126
f 82 126 83
f 83 126 85
f 83 85 84
f 85 127 87
f 85 87 86
f 85 126 128
f 85 128 129
f 85 129 127
f 87 127 130
f 87 130 114
f 88 131 125
f 89 132 133
f 89 133 90
f 90 133 91
f 91 133 134
f 91 134 92
f 92 134 135
f 92 135 136
f 92 136 137
f 92 137 95
f 92 95 93
f 94 95 138
f 95 139 140
f 95 140 141
f 95 141 138
f 95 137 139
f 96 142 151
f 96 151 101
f 97 143 98
f 97 101 143
f 98 143 144
f 98 144 145
f 98 145 146
f 98 146 147
f 98 147 99
f 99 102 100
f 101 148 149
f 101 149 150
f 101 150 143
f 101 151 148
f 105 152 106
f 106 153 107
f 106 152 153
f 107 153 154
f 107 154 155
f 107 155 156
f 107 156 108
f 108 156 109
f 109 156 110
f 110 156 157
f 110 157 158
f 110 158 159
f 110 159 111
f 111 159 160
f 112 118 113
f 113 161 162
f 113 162 163
f 113 163 119
f 113 118 164
f 113 164 165
f 113 165 166
f 113 166 161
f 114 130 167
f 114 167 115
f 115 167 168
f 115 168 116
f 116 168 169
f 116 169 170
f 116 170 164
f 116 164 117
f 117 164 118
f 119 163 124
f 119 124 120
f 120 124 121
f 122 171 172
f 122 172 123
f 122 124 173
f 122 173 171
f 124 163 162
f 124 162 173
f 125 174 126
f 125 131 175
f 125 175 174
f 126 174 129
f 126 129 128
f 127 129 176
f 127 176 130
f 129 177 167
f 129 167 176
f 129 174 178
f 129 178 179
f 129 179 177
f 130 176 167
f 131 180 175
f 132 181 182
f 132 182 133
f 133 182 183
f 133 183 134
f 134 183 184
f 134 184 135
f 135 184 136
f 136 184 139
f 136 139 137
f 139 184 185
f 139 185 186
f 139 186 187
f 139 187 140
f 142 188 151
f 143 150 144
f 144 189 190
f 144 190 145
f 144 150 149
f 144 149 189
f 148 151 191
f 148 191 192
f 148 192 149
f 149 193 189
f 149 192 193
f 151 194 191
f 151 188 195
f 151 195 194
f 152 196 197
f 152 197 153
f 153 197 198
f 153 198 199
f 153 199 200
f 153 200 154
f 154 200 201
f 154 201 202
f 154 202 155
f 155 202 156
f 156 202 203
f 156 203 157
f 157 203 204
f 157 204 158
f 158 204 159
f 159 204 205
f 159 205 206
f 159 206 160
f 161 166 207
f 161 207 208
f 161 208 209
f 161 209 210
f 161 210 162
f 162 211 212
f 162 212 213
f 162 213 171
f 162 171 173
f 162 210 211
f 164 214 165
f 164 170 215
f 164 215 214
f 165 214 166
f 166 214 215
f 166 215 216
f 166 216 217
f 166 217 218
f 166 218 219
f 166 219 220
f 166 220 208
f 166 208 207
f 167 177 179
f 167 179 168
f 168 179 221
f 168 221 222
f 168 222 169
f 169 222 223
f 169 223 224
f 169 224 217
f 169 217 225
f 169 225 170
f 170 225 215
f 174 175 226
f 174 226 227
f 174 227 178
f 175 180 228
f 175 228 229
f 175 229 230
f 175 230 231
f 175 231 226
f 178 222 221
f 178 221 179
f 178 227 232
f 178 232 233
f 178 233 292
f 178 292 234
f 178 234 235
f 178 235 236
f 178 236 237
f 178 237 222
f 181 238 239
f 181 239 182
f 182 239 240
f 182 240 183
f 183 241 242
f 183 242 243
f 183 243 184
f 183 240 241
f 184 243 244
f 184 244 245
f 184 245 246
f 184 246 185
f 185 246 186
f 186 246 187
f 187 246 310
f 187 310 247
f 188 248 195
f 189 193 249
f 189 249 250
f 189 250 190
f 191 251 192
f 191 194 251
f 192 251 194
f 192 194 252
f 192 252 253
f 192 253 254
f 192 254 193
f 193 254 249
f 194 195 255
f 194 255 256
f 194 256 252
f 195 248 257
f 195 257 255
f 196 258 259
f 196 259 260
f 196 260 197
f 197 260 259
f 197 259 198
f 198 259 325
f 198 325 326
f 198 326 261
f 198 261 199
f 199 262 263
f 199 263 264
f 199 264 200
f 199 261 262
f 200 264 201
f 201 265 202
f 201 264 266
f 201 266 267
f 201 267 265
f 202 265 203
f 203 265 268
f 203 268 204
f 204 268 269
f 204 269 270
f 204 270 205
f 205 270 271
f 205 271 206
f 208 220 272
f 208 272 273
f 208 273 274
f 208 274 275
f 208 275 209
f 209 275 210
f 210 275 211
f 211 275 212
f 212 275 276
f 212 276 213
f 215 225 217
f 215 217 216
f 217 224 277
f 217 277 278
f 217 278 279
f 217 279 218
f 218 280 281
f 218 281 220
f 218 220 219
f 218 279 280
f 220 282 283
f 220 283 284
f 220 284 285
f 220 285 272
f 220 281 286
f 220 286 282
f 222 237 287
f 222 287 223
f 223 287 224
f 224 287 277
f 226 231 288
f 226 288 232
f 226 232 227
f 228 289 229
f 229 289 290
f 229 290 288
f 229 288 230
f 230 288 231
f 232 288 291
f 232 291 233
f 233 291 292
f 234 292 293
f 234 293 294
f 234 294 295
f 234 295 296
f 234 296 235
f 235 297 298
f 235 298 237
f 235 237 236
f 235 296 297
f 237 298 299
f 237 299 287
f 238 300 240
f 238 240 239
f 240 300 301
f 240 301 302
f 240 302 303
f 240 303 304
f 240 304 305
f 240 305 306
f 240 306 307
f 240 307 241
f 241 307 242
f 242 307 243
f 243 307 306
f 243 306 244
f 244 306 308
f 244 308 245
f 245 309 246
f 245 308 309
f 246 309 310
f 247 310 311
f 248 312 257
f 249 254 313
f 249 313 314
f 249 314 250
f 252 256 315
f 252 315 316
f 252 316 317
f 252 317 318
f 252 318 253
f 253 319 254
f 253 318 320
f 253 320 319
f 254 319 320
f 254 320 321
f 254 321 322
f 254 322 313
f 255 257 323
f 255 323 256
f 256 323 315
f 257 312 324
f 257 324 323
f 258 325 259
f 261 326 327
f 261 327 328
f 261 328 262
f 262 328 329
f 262 329 330
f 262 330 331
f 262 331 332
f 262 332 263
f 263 332 264
f 264 332 333
f 264 333 334
f 264 334 266
f 265 335 268
f 265 267 336
f 265 336 337
f 265 337 335
f 266 334 338
f 266 338 339
f 266 339 267
f 267 339 340
f 267 340 341
f 267 341 336
f 268 335 269
f 269 335 337
f 269 337 342
f 269 342 270
f 270 342 343
f 270 343 271
f 272 285 344
f 272 344 345
f 272 345 273
f 273 345 274
f 274 346 276
f 274 276 275
f 274 345 346
f 276 347 348
f 276 346 347
f 277 287 278
f 278 349 350
f 278 350 351
f 278 351 352
f 278 352 279
f 278 287 349
f 279 352 353
f 279 353 354
f 279 354 355
f 279 355 356
f 279 356 280
f 280 357 358
f 280 358 359
f 280 359 281
f 280 356 357
f 281 359 358
f 281 358 286
f 282 286 360
f 282 360 361
f 282 361 362
f 282 362 283
f 283 362 363
f 283 363 364
f 283 364 284
f 284 344 285
f 284 364 365
f 284 365 366
f 284 366 344
f 286 358 357
f 286 357 367
f 286 367 368
f 286 368 360
f 287 299 349
f 288 290 291
f 289 369 290
f 290 369 370
f 290 370 371
f 290 371 372
f 290 372 291
f 291 372 373
f 291 373 293
f 291 293 292
f 293 373 374
f 293 374 375
f 293 375 294
f 294 375 295
f 295 376 296
f 295 375 377
f 295 377 378
f 295 378 376
f 296 376 379
f 296 379 380
f 296 380 351
f 296 351 381
f 296 381 297
f 297 382 298
f 297 381 382
f 298 382 299
f 299 382 381
f 299 381 349
f 301 383 384
f 301 384 302
f 302 384 303
f 303 385 386
f 303 386 304
f 303 384 385
f 304 386 387
f 304 387 388
f 304 388 305
f 305 388 387
f 305 387 389
f 305 389 390
f 305 390 391
f 305 391 392
f 305 392 306
f 306 392 308
f 308 391 393
f 308 393 394
f 308 394 395
f 308 395 396
f 308 396 309
f 308 392 391
f 309 396 397
f 309 397 398
f 309 398 311
f 309 311 310
f 312 399 324
f 313 400 314
f 313 322 401
f 313 401 402
f 313 402 403
f 313 403 400
f 314 400 404
f 315 323 324
f 315 324 405
f 315 405 406
f 315 406 407
f 315 407 316
f 316 407 317
f 317 407 408
f 317 408 409
f 317 409 410
f 317 410 411
f 317 411 318
f 318 411 320
f 320 412 413
f 320 413 321
f 320 411 507
f 320 507 412
f 321 413 322
f 322 413 401
f 324 399 414
f 324 414 415
f 324 415 416
f 324 416 405
f 327 417 328
f 328 417 418
f 328 418 419
f 328 419 420
f 328 420 329
f 329 420 330
f 330 420 421
f 330 421 422
f 330 422 331
f 331 422 423
f 331 423 332
f 332 423 424
f 332 424 425
f 332 425 333
f 333 425 426
f 333 426 338
f 333 338 334
f 336 341 337
f 337 341 427
f 337 427 428
f 337 428 342
f 338 426 429
f 338 429 339
f 339 430 340
f 339 429 431
f 339 431 430
f 340 430 432
f 340 432 341
f 341 432 433
f 341 433 427
f 342 434 343
f 342 428 434
f 343 434 435
f 344 366 436
f 344 436 345
f 345 436 437
f 345 437 346
f 346 437 347
f 347 438 439
f 347 439 348
f 347 437 438
f 349 381 350
f 350 381 351
f 351 380 440
f 351 440 441
f 351 441 442
f 351 442 443
f 351 443 444
f 351 444 352
f 352 444 353
f 353 444 354
f 354 445 355
f 354 444 446
f 354 446 447
f 354 447 448
f 354 448 449
f 354 449 450
f 354 450 445
f 355 445 451
f 355 451 452
f 355 452 453
f 355 453 356
f 356 453 368
f 356 368 367
f 356 367 357
f 360 454 361
f 360 368 454
f 361 455 456
f 361 456 457
f 361 457 362
f 361 454 368
f 361 368 458
f 361 458 459
f 361 459 455
f 362 457 460
f 362 460 364
f 362 364 363
f 364 460 461
f 364 461 462
f 364 462 463
f 364 463 464
f 364 464 365
f 365 464 366
f 366 465 436
f 366 464 466
f 366 466 467
f 366 467 465
f 368 453 458
f 372 468 373
f 373 468 374
f 374 469 375
f 375 469 377
f 376 470 471
f 376 471 379
f 376 378 472
f 376 472 473
f 376 473 474
f 376 474 470
f 377 469 475
f 377 475 378
f 378 475 476
f 378 476 477
f 378 477 472
f 379 471 380
f 380 471 440
f 383 478 384
f 384 479 385
f 384 478 479
f 385 479 460
f 385 460 456
f 385 456 386
f 386 456 480
f 386 480 481
f 386 481 387
f 387 481 482
f 387 482 483
f 387 483 484
f 387 484 485
f 387 485 389
f 389 485 390
f 390 484 486
f 390 486 577
f 390 577 487
f 390 487 391
f 390 485 484
f 391 487 488
f 391 488 393
f 393 488 489
f 393 489 492
f 393 492 490
f 393 490 394
f 394 490 395
f 395 397 491
f 395 491 396
f 395 490 492
f 395 492 493
f 395 493 397
f 396 491 397
f 397 493 494
f 399 495 414
f 400 403 404
f 401 413 509
f 401 509 496
f 401 496 497
f 401 497 402
f 402 497 498
f 402 498 403
f 403 498 499
f 405 407 406
f 405 416 500
f 405 500 501
f 405 501 407
f 407 501 502
f 407 502 415
f 407 415 408
f 408 415 409
f 409 415 503
f 409 503 504
f 409 504 410
f 410 504 505
f 410 505 506
f 410 506 411
f 411 506 507
f 412 508 413
f 412 507 602
f 412 602 508
f 413 508 509
f 414 495 415
f 415 495 510
f 415 510 511
f 415 511 512
f 415 512 513
f 415 513 514
f 415 514 515
f 415 515 503
f 415 502 500
f 415 500 416
f 418 516 419
f 419 516 499
f 419 499 498
f 419 498 420
f 420 498 497
f 420 497 421
f 421 497 496
f 421 496 517
f 421 517 422
f 422 517 594
f 422 594 518
f 422 518 423
f 423 518 519
f 423 519 424
f 424 519 520
f 424 520 521
f 424 521 522
f 424 522 523
f 424 523 425
f 425 523 426
f 426 523 429
f 427 433 524
f 427 524 525
f 427 525 526
f 427 526 428
f 428 526 527
f 428 527 525
f 428 435 434
f 429 528 529
f 429 529 530
f 429 530 431
f 429 523 528
f 430 431 432
f 431 530 432
f 432 530 531
f 432 531 532
f 432 532 433
f 433 532 533
f 433 533 524
f 436 465 437
f 437 465 438
f 438 467 439
f 438 465 467
f 439 467 534
f 440 535 442
f 440 442 441
f 440 471 535
f 442 535 536
f 442 536 443
f 443 536 537
f 443 537 538
f 443 538 539
f 443 539 446
f 443 446 444
f 445 450 540
f 445 540 541
f 445 541 451
f 446 539 542
f 446 542 543
f 446 543 544
f 446 544 545
f 446 545 546
f 446 546 547
f 446 547 447
f 447 547 448
f 448 547 548
f 448 548 549
f 448 549 449
f 449 549 550
f 449 550 551
f 449 551 450
f 450 551 552
f 450 552 553
f 450 553 541
f 450 541 540
f 451 554 452
f 451 541 554
f 452 554 555
f 452 555 556
f 452 556 557
f 452 557 558
f 452 558 458
f 452 458 453
f 455 559 456
f 455 459 560
f 455 560 559
f 456 460 457
f 456 559 561
f 456 561 562
f 456 562 480
f 458 558 459
f 459 558 557
f 459 557 563
f 459 563 561
f 459 561 560
f 460 479 461
f 461 479 462
f 462 479 564
f 462 564 565
f 462 565 566
f 462 566 463
f 463 566 567
f 463 567 464
f 464 567 466
f 466 567 467
f 467 567 568
f 467 568 569
f 467 569 534
f 470 474 570
f 470 570 571
f 470 571 572
f 470 572 471
f 471 572 573
f 471 573 535
f 472 571 570
f 472 570 473
f 472 477 574
f 472 574 571
f 473 570 474
f 475 477 476
f 475 574 477
f 478 575 479
f 479 575 564
f 480 482 481
f 480 562 482
f 482 562 576
f 482 576 486
f 482 486 483
f 483 486 484
f 486 576 577
f 487 577 578
f 487 578 579
f 487 579 488
f 488 580 489
f 488 579 581
f 488 581 582
f 488 582 583
f 488 583 584
f 488 584 580
f 489 580 492
f 492 585 586
f 492 586 587
f 492 587 588
f 492 588 589
f 492 589 590
f 492 590 493
f 492 580 585
f 493 590 591
f 493 591 494
f 495 592 593
f 495 593 511
f 495 511 510
f 496 509 594
f 496 594 517
f 500 502 501
f 503 515 595
f 503 595 504
f 504 595 597
f 504 597 505
f 505 596 506
f 505 597 598
f 505 598 599
f 505 599 596
f 506 600 507
f 506 596 600
f 507 600 601
f 507 601 602
f 508 594 509
f 508 602 594
f 511 593 603
f 511 603 604
f 511 604 605
f 511 605 606
f 511 606 607
f 511 607 512
f 512 607 608
f 512 608 513
f 513 608 606
f 513 606 609
f 513 609 514
f 514 610 515
f 514 609 611
f 514 611 610
f 515 610 674
f 515 674 595
f 518 594 612
f 518 612 519
f 519 612 613
f 519 613 520
f 520 522 521
f 520 613 614
f 520 614 615
f 520 615 616
f 520 616 528
f 520 528 523
f 520 523 522
f 524 533 617
f 524 617 618
f 524 618 619
f 524 619 620
f 524 620 525
f 525 527 526
f 525 620 621
f 528 616 622
f 528 622 529
f 529 622 530
f 530 622 623
f 530 623 624
f 530 624 531
f 531 624 532
f 532 624 625
f 532 625 533
f 533 625 617
f 535 573 572
f 535 572 536
f 536 572 626
f 536 626 627
f 536 627 628
f 536 628 537
f 537 628 629
f 537 629 538
f 538 542 539
f 538 629 542
f 541 553 554
f 542 629 543
f 543 629 630
f 543 630 631
f 543 631 544
f 544 631 632
f 544 632 633
f 544 633 545
f 545 633 546
f 546 633 632
f 546 632 547
f 547 632 634
f 547 634 548
f 548 634 635
f 548 635 636
f 548 636 549
f 549 636 637
f 549 637 638
f 549 638 550
f 550 638 551
f 551 638 639
f 551 639 552
f 552 639 553
f 553 639 637
f 553 637 640
f 553 640 641
f 553 641 642
f 553 642 643
f 553 643 644
f 553 644 645
f 553 645 646
f 553 646 556
f 553 556 554
f 554 556 555
f 556 646 647
f 556 647 648
f 556 648 557
f 557 648 563
f 559 560 561
f 561 563 562
f 562 563 647
f 562 647 649
f 562 649 576
f 563 648 647
f 566 650 567
f 567 650 651
f 567 651 568
f 571 574 572
f 572 574 652
f 572 652 657
f 572 657 653
f 572 653 654
f 572 654 655
f 572 655 626
f 574 656 657
f 574 657 652
f 576 649 658
f 576 658 659
f 576 659 577
f 577 659 660
f 577 660 578
f 578 660 581
f 578 581 579
f 580 584 585
f 581 660 661
f 581 661 582
f 582 661 583
f 583 661 662
f 583 662 586
f 583 586 585
f 583 585 584
f 586 662 663
f 586 663 588
f 586 588 587
f 588 663 664
f 588 664 665
f 588 665 589
f 589 665 666
f 589 666 667
f 589 667 668
f 589 668 669
f 589 669 590
f 590 670 671
f 590 671 591
f 590 669 670
f 591 671 670
f 591 670 672
f 592 673 603
f 592 603 593
f 594 602 612
f 595 674 597
f 596 675 676
f 596 676 601
f 596 601 600
f 596 599 675
f 597 674 677
f 597 677 678
f 597 678 679
f 597 679 598
f 598 679 599
f 599 680 675
f 599 679 678
f 599 678 681
f 599 681 682
f 599 682 680
f 601 676 612
f 601 612 602
f 603 683 684
f 603 684 685
f 603 685 686
f 603 686 687
f 603 687 688
f 603 688 689
f 603 689 605
f 603 605 604
f 603 673 690
f 603 690 691
f 603 691 683
f 605 689 606
f 606 692 609
f 606 608 607
f 606 689 692
f 609 693 695
f 609 695 611
f 609 692 693
f 610 694 674
f 610 611 695
f 610 695 694
f 612 676 613
f 613 676 675
f 613 675 614
f 614 675 680
f 614 680 696
f 614 696 697
f 614 697 615
f 615 697 616
f 616 697 622
f 617 625 698
f 617 698 699
f 617 699 700
f 617 700 701
f 617 701 619
f 617 619 618
f 619 701 620
f 620 701 702
f 620 702 621
f 622 697 696
f 622 696 703
f 622 703 623
f 623 703 704
f 623 704 624
f 624 704 705
f 624 705 625
f 625 705 706
f 625 706 698
f 626 628 627
f 626 655 707
f 626 707 628
f 628 707 708
f 628 708 709
f 628 709 629
f 629 709 710
f 629 710 630
f 630 710 631
f 631 710 711
f 631 711 712
f 631 712 713
f 631 713 714
f 631 714 715
f 631 715 716
f 631 716 717
f 631 717 718
f 631 718 719
f 631 719 720
f 631 720 634
f 631 634 632
f 634 720 635
f 635 720 721
f 635 721 636
f 636 721 722
f 636 722 637
f 637 639 638
f 637 722 723
f 637 723 724
f 637 724 640
f 640 724 725
f 640 725 641
f 641 725 726
f 641 726 727
f 641 727 642
f 642 727 643
f 643 727 728
f 643 728 729
f 643 729 644
f 644 729 730
f 644 730 731
f 644 731 646
f 644 646 645
f 646 731 647
f 647 731 730
f 647 730 658
f 647 658 649
f 653 657 654
f 654 657 732
f 654 732 655
f 655 732 814
f 655 814 870
f 655 870 776
f 655 776 707
f 656 733 732
f 656 732 657
f 658 730 734
f 658 734 659
f 659 734 660
f 660 734 661
f 661 734 662
f 662 734 735
f 662 735 663
f 663 735 736
f 663 736 737
f 663 737 664
f 664 737 665
f 665 737 738
f 665 738 739
f 665 739 666
f 666 739 667
f 667 740 668
f 667 739 741
f 667 741 742
f 667 742 740
f 668 740 669
f 669 740 823
f 669 823 743
f 669 743 672
f 669 672 670
f 674 694 744
f 674 744 677
f 677 744 678
f 678 744 745
f 678 745 681
f 680 682 696
f 681 745 746
f 681 746 682
f 682 746 829
f 682 829 747
f 682 747 748
f 682 748 749
f 682 749 696
f 683 691 684
f 684 691 750
f 684 750 751
f 684 751 752
f 684 752 685
f 685 752 753
f 685 753 686
f 686 688 687
f 686 753 754
f 686 754 688
f 688 754 755
f 688 755 689
f 689 756 692
f 689 755 756
f 691 757 750
f 692 758 759
f 692 759 693
f 692 756 758
f 693 759 695
f 694 695 760
f 694 760 761
f 694 761 744
f 695 759 760
f 696 749 762
f 696 762 703
f 698 706 699
f 699 706 763
f 699 763 700
f 700 764 701
f 700 763 764
f 701 764 765
f 701 765 766
f 701 766 702
f 703 762 767
f 703 767 768
f 703 768 704
f 704 768 769
f 704 769 770
f 704 770 771
f 704 771 705
f 705 771 770
f 705 770 772
f 705 772 773
f 705 773 706
f 706 774 775
f 706 775 763
f 706 773 774
f 707 776 708
f 708 776 777
f 708 777 778
f 708 778 779
f 708 779 710
f 708 710 709
f 710 778 780
f 710 780 781
f 710 781 711
f 710 779 778
f 711 781 712
f 712 782 783
f 712 783 784
f 712 784 785
f 712 785 786
f 712 786 787
f 712 787 788
f 712 788 789
f 712 789 790
f 712 790 713
f 712 781 782
f 713 790 791
f 713 791 714
f 714 791 792
f 714 792 793
f 714 793 715
f 715 793 794
f 715 794 795
f 715 795 716
f 716 796 797
f 716 797 717
f 716 795 798
f 716 798 796
f 717 797 799
f 717 799 718
f 718 799 800
f 718 800 801
f 718 801 722
f 718 722 721
f 718 721 720
f 718 720 719
f 722 801 723
f 723 801 802
f 723 802 724
f 724 802 803
f 724 803 725
f 725 804 805
f 725 805 726
f 725 803 806
f 725 806 807
f 725 807 804
f 726 805 808
f 726 808 809
f 726 809 728
f 726 728 727
f 728 809 810
f 728 810 811
f 728 811 812
f 728 812 729
f 729 812 734
f 729 734 730
f 732 733 813
f 732 813 814
f 734 812 815
f 734 815 735
f 735 815 736
f 736 815 816
f 736 816 737
f 737 816 817
f 737 817 738
f 738 817 818
f 738 818 819
f 738 819 820
f 738 820 821
f 738 821 739
f 739 821 741
f 740 822 823
f 740 742 741
f 740 741 824
f 740 824 822
f 741 825 826
f 741 826 827
f 741 827 824
f 741 821 820
f 741 820 825
f 744 761 745
f 745 761 828
f 745 828 829
f 745 829 746
f 747 829 830
f 747 830 831
f 747 831 748
f 748 831 832
f 748 832 762
f 748 762 749
f 750 833 834
f 750 834 835
f 750 835 751
f 750 757 833
f 751 835 753
f 751 753 752
f 753 834 836
f 753 836 837
f 753 837 754
f 753 835 834
f 754 837 838
f 754 838 839
f 754 839 755
f 755 839 840
f 755 840 841
f 755 841 756
f 756 842 843
f 756 843 844
f 756 844 758
f 756 841 842
f 757 845 846
f 757 846 833
f 758 844 759
f 759 847 848
f 759 848 760
f 759 844 847
f 760 848 761
f 761 848 828
f 762 832 849
f 762 849 767
f 763 775 764
f 764 850 765
f 764 775 851
f 764 851 852
f 764 852 850
f 767 849 853
f 767 853 854
f 767 854 855
f 767 855 856
f 767 856 857
f 767 857 768
f 768 857 858
f 768 858 769
f 769 858 859
f 769 859 860
f 769 860 861
f 769 861 770
f 770 861 862
f 770 862 772
f 772 862 863
f 772 863 773
f 773 864 865
f 773 865 774
f 773 863 866
f 773 866 867
f 773 867 868
f 773 868 869
f 773 869 864
f 774 865 775
f 775 865 851
f 776 870 777
f 777 870 871
f 777 871 778
f 778 871 872
f 778 872 873
f 778 873 874
f 778 874 780
f 780 874 781
f 781 874 875
f 781 875 782
f 782 875 876
f 782 876 877
f 782 877 783
f 783 877 784
f 784 877 878
f 784 878 879
f 784 879 880
f 784 880 881
f 784 881 882
f 784 882 883
f 784 883 884
f 784 884 785
f 785 885 786
f 785 884 787
f 785 787 885
f 786 885 787
f 787 884 883
f 787 883 886
f 787 886 887
f 787 887 888
f 787 888 788
f 788 889 789
f 788 888 889
f 789 889 890
f 789 890 791
f 789 791 790
f 791 890 891
f 791 891 792
f 792 891 892
f 792 892 893
f 792 893 894
f 792 894 895
f 792 895 896
f 792 896 897
f 792 897 898
f 792 898 793
f 793 898 896
f 793 896 794
f 794 896 795
f 795 896 798
f 796 899 797
f 796 798 899
f 797 899 800
f 797 800 799
f 798 896 900
f 798 900 901
f 798 901 902
f 798 902 903
f 798 903 899
f 800 904 802
f 800 802 801
f 800 899 905
f 800 905 906
f 800 906 904
f 802 904 907
f 802 907 806
f 802 806 803
f 804 908 805
f 804 807 909
f 804 909 910
f 804 910 911
f 804 911 912
f 804 912 908
f 805 908 808
f 806 907 904
f 806 904 913
f 806 913 914
f 806 914 915
f 806 915 916
f 806 916 917
f 806 917 918
f 806 918 909
f 806 909 919
f 806 919 807
f 807 919 920
f 807 920 909
f 808 908 809
f 809 908 921
f 809 921 922
f 809 922 810
f 810 923 811
f 810 922 924
f 810 924 923
f 811 923 925
f 811 925 815
f 811 815 812
f 814 926 870
f 815 925 816
f 816 925 927
f 816 927 818
f 816 818 817
f 818 927 928
f 818 928 929
f 818 929 930
f 818 930 819
f 819 930 931
f 819 931 932
f 819 932 933
f 819 933 934
f 819 934 820
f 820 934 935
f 820 935 936
f 820 936 825
f 825 937 826
f 825 936 938
f 825 938 937
f 828 848 939
f 828 939 829
f 829 939 940
f 829 940 830
f 830 940 831
f 831 941 849
f 831 849 832
f 831 940 941
f 833 846 834
f 834 846 942
f 834 942 836
f 836 942 943
f 836 943 944
f 836 944 945
f 836 945 837
f 837 945 946
f 837 946 947
f 837 947 838
f 838 947 948
f 838 948 949
f 838 949 950
f 838 950 951
f 838 951 952
f 838 952 839
f 839 952 953
f 839 953 840
f 840 954 955
f 840 955 841
f 840 953 954
f 841 955 956
f 841 956 957
f 841 957 842
f 842 957 843
f 843 957 958
f 843 958 959
f 843 959 960
f 843 960 844
f 844 961 939
f 844 939 847
f 844 960 961
f 845 962 846
f 846 962 963
f 846 963 964
f 846 964 942
f 847 939 848
f 849 941 965
f 849 965 966
f 849 966 967
f 849 967 853
f 851 968 852
f 851 865 969
f 851 969 970
f 851 970 971
f 851 971 968
f 853 967 972
f 853 972 854
f 854 972 973
f 854 973 855
f 855 973 856
f 856 974 975
f 856 975 976
f 856 976 977
f 856 977 978
f 856 978 857
f 856 973 974
f 857 978 977
f 857 977 858
f 858 977 979
f 858 979 859
f 859 979 980
f 859 980 981
f 859 981 860
f 860 981 861
f 861 981 982
f 861 982 983
f 861 983 862
f 862 984 985
f 862 985 986
f 862 986 863
f 862 983 987
f 862 987 984
f 863 986 985
f 863 985 988
f 863 988 989
f 863 989 990
f 863 990 866
f 864 970 865
f 864 869 970
f 865 970 969
f 866 991 867
f 866 990 992
f 866 992 993
f 866 993 991
f 867 991 869
f 867 869 868
f 869 991 994
f 869 994 995
f 869 995 970
f 870 926 996
f 870 996 997
f 870 997 872
f 870 872 871
f 872 997 998
f 872 998 873
f 873 998 875
f 873 875 874
f 875 998 999
f 875 999 876
f 876 1000 877
f 876 999 1000
f 877 1000 1001
f 877 1001 1002
f 877 1002 1003
f 877 1003 878
f 878 1002 1004
f 878 1004 879
f 878 1003 1002
f 879 1004 1005
f 879 1005 1006
f 879 1006 880
f 880 1006 1007
f 880 1007 1008
f 880 1008 882
f 880 882 881
f 882 1009 1010
f 882 1010 883
f 882 1008 1011
f 882 1011 1009
f 883 1010 886
f 886 1010 888
f 886 888 887
f 888 1011 1012
f 888 1012 1013
f 888 1013 1014
f 888 1014 894
f 888 894 1015
f 888 1015 892
f 888 892 890
f 888 890 889
f 888 1010 1009
f 888 1009 1016
f 888 1016 1011
f 890 892 891
f 892 1015 894
f 892 894 893
f 894 1014 1017
f 894 1017 1018
f 894 1018 1019
f 894 1019 895
f 895 1019 1020
f 895 1020 1021
f 895 1021 896
f 896 1021 1022
f 896 1022 901
f 896 901 900
f 896 898 897
f 899 903 1023
f 899 1023 1024
f 899 1024 905
f 901 1022 1025
f 901 1025 902
f 902 1025 903
f 903 1025 1023
f 904 906 913
f 905 1026 906
f 905 1024 1027
f 905 1027 1028
f 905 1028 1026
f 906 1026 913
f 908 912 921
f 909 920 919
f 909 918 1029
f 909 1029 910
f 910 1029 1030
f 910 1030 911
f 911 1030 912
f 912 1030 921
f 913 1026 914
f 914 1026 915
f 915 1026 1031
f 915 1031 916
f 916 1031 1032
f 916 1032 917
f 917 1032 1033
f 917 1033 918
f 918 1033 1034
f 918 1034 1035
f 918 1035 1029
f 921 1036 922
f 921 1030 1037
f 921 1037 1036
f 922 1036 924
f 923 924 925
f 924 928 925
f 924 1036 1038
f 924 1038 928
f 925 928 927
f 926 1039 996
f 928 1038 929
f 929 1040 1041
f 929 1041 932
f 929 932 931
f 929 931 930
f 929 1038 1040
f 932 1041 1042
f 932 1042 933
f 933 1042 1043
f 933 1043 1044
f 933 1044 934
f 934 1044 1045
f 934 1045 1046
f 934 1046 935
f 935 1047 936
f 935 1046 1048
f 935 1048 1049
f 935 1049 1047
f 936 1047 938
f 937 938 1050
f 938 1047 1051
f 938 1051 1050
f 939 961 959
f 939 959 940
f 940 959 1052
f 940 1052 967
f 940 967 965
f 940 965 941
f 942 964 1053
f 942 1053 943
f 943 1053 1054
f 943 1054 1055
f 943 1055 1165
f 943 1165 1056
f 943 1056 944
f 944 1056 1057
f 944 1057 945
f 945 1057 946
f 946 1057 1058
f 946 1058 1059
f 946 1059 947
f 947 1059 1060
f 947 1060 1061
f 947 1061 1062
f 947 1062 948
f 948 1063 949
f 948 1062 1061
f 948 1061 1064
f 948 1064 1065
f 948 1065 1066
f 948 1066 1063
f 949 1063 950
f 950 1063 1067
f 950 1067 951
f 951 1068 952
f 951 1067 1068
f 952 1068 953
f 953 1068 1069
f 953 1069 1070
f 953 1070 954
f 954 1070 955
f 955 1070 1071
f 955 1071 956
f 956 1072 957
f 956 1071 1073
f 956 1073 1074
f 956 1074 1072
f 957 1075 958
f 957 1072 1075
f 958 1075 959
f 959 1075 1076
f 959 1076 1077
f 959 1077 1052
f 959 961 960
f 962 1078 963
f 963 1078 964
f 964 1078 1079
f 964 1079 1054
f 964 1054 1053
f 965 967 966
f 967 1052 1080
f 967 1080 972
f 970 995 1081
f 970 1081 971
f 972 1080 974
f 972 974 973
f 974 1082 975
f 974 1080 1082
f 975 1083 976
f 975 1082 1084
f 975 1084 1085
f 975 1085 1083
f 976 1083 1085
f 976 1085 1086
f 976 1086 1087
f 976 1087 980
f 976 980 979
f 976 979 977
f 980 1087 981
f 981 1087 1090
f 981 1090 982
f 982 1088 1089
f 982 1089 987
f 982 987 983
f 982 1090 1091
f 982 1091 1092
f 982 1092 1088
f 984 987 1093
f 984 1093 985
f 985 1093 1094
f 985 1094 1095
f 985 1095 1096
f 985 1096 1097
f 985 1097 1098
f 985 1098 988
f 987 1089 1093
f 988 1098 989
f 989 1098 992
f 989 992 990
f 991 993 994
f 992 1098 1099
f 992 1099 1100
f 992 1100 1101
f 992 1101 1102
f 992 1102 1103
f 992 1103 1104
f 992 1104 993
f 993 1104 1105
f 993 1105 994
f 994 1105 1103
f 994 1103 1106
f 994 1106 995
f 995 1107 1081
f 995 1106 1108
f 995 1108 1109
f 995 1109 1110
f 995 1110 1107
f 996 1039 1111
f 996 1111 997
f 997 1111 1112
f 997 1112 1113
f 997 1113 998
f 998 1113 1000
f 998 1000 999
f 1000 1113 1002
f 1000 1002 1001
f 1002 1113 1114
f 1002 1114 1115
f 1002 1115 1116
f 1002 1116 1117
f 1002 1117 1118
f 1002 1118 1004
f 1004 1118 1005
f 1005 1118 1006
f 1006 1118 1119
f 1006 1119 1007
f 1007 1119 1120
f 1007 1120 1008
f 1008 1120 1121
f 1008 1121 1122
f 1008 1122 1011
f 1009 1011 1016
f 1011 1122 1123
f 1011 1123 1012
f 1012 1123 1124
f 1012 1124 1013
f 1013 1124 1125
f 1013 1125 1126
f 1013 1126 1014
f 1014 1126 1127
f 1014 1127 1017
f 1017 1127 1128
f 1017 1128 1129
f 1017 1129 1018
f 1018 1130 1019
f 1018 1129 1131
f 1018 1131 1130
f 1019 1130 1020
f 1020 1132 1133
f 1020 1133 1021
f 1020 1130 1134
f 1020 1134 1132
f 1021 1135 1022
f 1021 1133 1132
f 1021 1132 1135
f 1022 1136 1025
f 1022 1135 1136
f 1023 1137 1027
f 1023 1027 1024
f 1023 1025 1137
f 1025 1136 1137
f 1026 1028 1138
f 1026 1138 1139
f 1026 1139 1031
f 1027 1137 1140
f 1027 1140 1141
f 1027 1141 1142
f 1027 1142 1143
f 1027 1143 1031
f 1027 1031 1139
f 1027 1139 1028
f 1028 1139 1138
f 1029 1035 1144
f 1029 1144 1041
f 1029 1041 1037
f 1029 1037 1030
f 1031 1143 1032
f 1032 1143 1145
f 1032 1145 1146
f 1032 1146 1147
f 1032 1147 1034
f 1032 1034 1033
f 1034 1147 1035
f 1035 1147 1148
f 1035 1148 1144
f 1036 1037 1040
f 1036 1040 1038
f 1037 1041 1040
f 1041 1144 1042
f 1042 1149 1043
f 1042 1144 1150
f 1042 1150 1151
f 1042 1151 1149
f 1043 1149 1152
f 1043 1152 1153
f 1043 1153 1154
f 1043 1154 1044
f 1044 1154 1155
f 1044 1155 1156
f 1044 1156 1157
f 1044 1157 1158
f 1044 1158 1159
f 1044 1159 1045
f 1045 1160 1161
f 1045 1161 1048
f 1045 1048 1046
f 1045 1159 1162
f 1045 1162 1163
f 1045 1163 1160
f 1047 1164 1051
f 1047 1049 1048
f 1047 1048 1164
f 1052 1077 1080
f 1054 1079 1078
f 1056 1165 1166
f 1056 1166 1167
f 1056 1167 1057
f 1057 1167 1168
f 1057 1168 1058
f 1058 1168 1059
f 1059 1168 1169
f 1059 1169 1060
f 1060 1064 1061
f 1060 1169 1170
f 1060 1170 1065
f 1060 1065 1064
f 1063 1066 1171
f 1063 1171 1067
f 1065 1172 1066
f 1065 1170 1173
f 1065 1173 1174
f 1065 1174 1175
f 1065 1175 1176
f 1065 1176 1172
f 1066 1172 1177
f 1066 1177 1178
f 1066 1178 1171
f 1067 1171 1178
f 1067 1178 1179
f 1067 1179 1068
f 1068 1179 1069
f 1069 1180 1070
f 1069 1179 1181
f 1069 1181 1182
f 1069 1182 1180
f 1070 1180 1183
f 1070 1183 1073
f 1070 1073 1071
f 1072 1074 1184
f 1072 1184 1075
f 1073 1183 1074
f 1074 1183 1185
f 1074 1185 1186
f 1074 1186 1187
f 1074 1187 1188
f 1074 1188 1184
f 1075 1184 1076
f 1076 1189 1077
f 1076 1184 1190
f 1076 1190 1191
f 1076 1191 1192
f 1076 1192 1189
f 1077 1189 1193
f 1077 1193 1082
f 1077 1082 1080
f 1082 1193 1084
f 1084 1193 1189
f 1084 1189 1192
f 1084 1192 1194
f 1084 1194 1195
f 1084 1195 1085
f 1085 1195 1194
f 1085 1194 1192
f 1085 1192 1196
f 1085 1196 1197
f 1085 1197 1086
f 1086 1197 1198
f 1086 1198 1090
f 1086 1090 1087
f 1088 1093 1089
f 1088 1092 1199
f 1088 1199 1200
f 1088 1200 1093
f 1090 1198 1201
f 1090 1201 1091
f 1091 1201 1202
f 1091 1202 1203
f 1091 1203 1204
f 1091 1204 1205
f 1091 1205 1206
f 1091 1206 1207
f 1091 1207 1208
f 1091 1208 1199
f 1091 1199 1092
f 1093 1095 1209
f 1093 1209 1094
f 1093 1200 1210
f 1093 1210 1211
f 1093 1211 1212
f 1093 1212 1095
f 1094 1209 1095
f 1095 1212 1096
f 1096 1212 1213
f 1096 1213 1097
f 1097 1213 1214
f 1097 1214 1215
f 1097 1215 1098
f 1098 1215 1099
f 1099 1215 1101
f 1099 1101 1100
f 1101 1216 1217
f 1101 1217 1218
f 1101 1218 1102
f 1101 1215 1219
f 1101 1219 1220
f 1101 1220 1221
f 1101 1221 1216
f 1102 1222 1108
f 1102 1108 1103
f 1102 1218 1222
f 1103 1108 1106
f 1103 1105 1104
f 1107 1110 1223
f 1107 1223 1224
f 1108 1110 1225
f 1108 1225 1109
f 1108 1222 1110
f 1109 1225 1110
f 1110 1222 1223
f 1111 1226 1227
f 1111 1227 1112
f 1112 1227 1228
f 1112 1228 1226
f 1112 1226 1229
f 1112 1229 1115
f 1112 1115 1113
f 1113 1115 1114
f 1115 1229 1230
f 1115 1230 1116
f 1116 1231 1232
f 1116 1232 1233
f 1116 1233 1118
f 1116 1118 1117
f 1116 1230 1234
f 1116 1234 1235
f 1116 1235 1231
f 1118 1233 1236
f 1118 1236 1237
f 1118 1237 1238
f 1118 1238 1119
f 1119 1238 1120
f 1120 1238 1121
f 1121 1238 1239
f 1121 1239 1240
f 1121 1240 1122
f 1122 1240 1241
f 1122 1241 1242
f 1122 1242 1243
f 1122 1243 1244
f 1122 1244 1123
f 1123 1244 1245
f 1123 1245 1246
f 1123 1246 1124
f 1124 1246 1247
f 1124 1247 1126
f 1124 1126 1125
f 1126 1248 1249
f 1126 1249 1127
f 1126 1247 1246
f 1126 1246 1250
f 1126 1250 1248
f 1127 1249 1251
f 1127 1251 1128
f 1128 1251 1252
f 1128 1252 1129
f 1129 1252 1253
f 1129 1253 1131
f 1130 1131 1254
f 1130 1254 1255
f 1130 1255 1256
f 1130 1256 1134
f 1131 1253 1254
f 1132 1134 1257
f 1132 1257 1258
f 1132 1258 1135
f 1134 1256 1259
f 1134 1259 1260
f 1134 1260 1261
f 1134 1261 1262
f 1134 1262 1258
f 1134 1258 1257
f 1135 1263 1264
f 1135 1264 1141
f 1135 1141 1136
f 1135 1258 1263
f 1136 1141 1137
f 1137 1141 1140
f 1141 1264 1265
f 1141 1265 1266
f 1141 1266 1142
f 1142 1145 1143
f 1142 1266 1145
f 1144 1148 1267
f 1144 1267 1268
f 1144 1268 1150
f 1145 1266 1269
f 1145 1269 1270
f 1145 1270 1146
f 1146 1270 1271
f 1146 1271 1147
f 1147 1271 1148
f 1148 1271 1272
f 1148 1272 1273
f 1148 1273 1267
f 1149 1153 1152
f 1149 1151 1274
f 1149 1274 1275
f 1149 1275 1276
f 1149 1276 1153
f 1150 1268 1277
f 1150 1277 1151
f 1151 1277 1278
f 1151 1278 1274
f 1153 1276 1279
f 1153 1279 1155
f 1153 1155 1154
f 1155 1279 1280
f 1155 1280 1281
f 1155 1281 1156
f 1166 1282 1167
f 1167 1282 1283
f 1167 1283 1284
f 1167 1284 1285
f 1167 1285 1286
f 1167 1286 1168
f 1168 1286 1287
f 1168 1287 1169
f 1169 1287 1170
f 1170 1287 1173
f 1172 1288 1289
f 1172 1289 1177
f 1172 1176 1290
f 1172 1290 1288
f 1173 1287 1285
f 1173 1285 1291
f 1173 1291 1174
f 1174 1291 1292
f 1174 1292 1293
f 1174 1293 1175
f 1175 1293 1176
f 1176 1293 1294
f 1176 1294 1295
f 1176 1295 1296
f 1176 1296 1290
f 1177 1289 1297
f 1177 1297 1178
f 1178 1298 1179
f 1178 1297 1299
f 1178 1299 1298
f 1179 1298 1181
f 1180 1182 1185
f 1180 1185 1183
f 1181 1298 1182
f 1182 1298 1300
f 1182 1300 1185
f 1184 1188 1301
f 1184 1301 1190
f 1185 1300 1302
f 1185 1302 1186
f 1186 1302 1303
f 1186 1303 1304
f 1186 1304 1305
f 1186 1305 1306
f 1186 1306 1188
f 1186 1188 1187
f 1188 1306 1301
f 1190 1301 1306
f 1190 1306 1305
f 1190 1305 1192
f 1190 1192 1191
f 1192 1305 1307
f 1192 1307 1197
f 1192 1197 1196
f 1197 1307 1308
f 1197 1308 1309
f 1197 1309 1203
f 1197 1203 1198
f 1198 1203 1310
f 1198 1310 1201
f 1199 1208 1311
f 1199 1311 1312
f 1199 1312 1200
f 1200 1312 1210
f 1201 1310 1202
f 1202 1310 1203
f 1203 1309 1313
f 1203 1313 1314
f 1203 1314 1315
f 1203 1315 1204
f 1204 1315 1205
f 1205 1315 1206
f 1206 1315 1316
f 1206 1316 1207
f 1207 1311 1208
f 1207 1316 1317
f 1207 1317 1311
f 1210 1219 1318
f 1210 1318 1319
f 1210 1319 1320
f 1210 1320 1212
f 1210 1212 1211
f 1210 1312 1321
f 1210 1321 1322
f 1210 1322 1219
f 1212 1320 1213
f 1213 1320 1214
f 1214 1320 1319
f 1214 1319 1318
f 1214 1318 1215
f 1215 1318 1219
f 1216 1323 1217
f 1216 1221 1324
f 1216 1324 1323
f 1217 1323 1325
f 1217 1325 1222
f 1217 1222 1218
f 1219 1322 1326
f 1219 1326 1327
f 1219 1327 1328
f 1219 1328 1220
f 1220 1328 1221
f 1221 1329 1330
f 1221 1330 1331
f 1221 1331 1324
f 1221 1328 1332
f 1221 1332 1329
f 1222 1325 1223
f 1223 1325 1324
f 1223 1324 1224
f 1226 1228 1227
f 1229 1234 1230
f 1232 1333 1233
f 1232 1334 1335
f 1232 1335 1333
f 1233 1333 1238
f 1233 1238 1236
f 1236 1238 1237
f 1238 1335 1336
f 1238 1336 1337
f 1238 1337 1239
f 1238 1333 1335
f 1239 1337 1240
f 1240 1337 1338
f 1240 1338 1339
f 1240 1339 1340
f 1240 1340 1241
f 1241 1340 1341
f 1241 1341 1243
f 1241 1243 1242
f 1243 1341 1342
f 1243 1342 1343
f 1243 1343 1344
f 1243 1344 1345
f 1243 1345 1246
f 1243 1246 1245
f 1243 1245 1244
f 1246 1345 1346
f 1246 1346 1250
f 1248 1347 1348
f 1248 1348 1349
f 1248 1349 1350
f 1248 1350 1351
f 1248 1351 1352
f 1248 1352 1249
f 1248 1250 1347
f 1249 1352 1251
f 1250 1346 1353
f 1250 1353 1354
f 1250 1354 1355
f 1250 1355 1356
f 1250 1356 1347
f 1251 1352 1357
f 1251 1357 1253
f 1251 1253 1252
f 1253 1357 1352
f 1253 1352 1351
f 1253 1351 1350
f 1253 1350 1349
f 1253 1349 1358
f 1253 1358 1359
f 1253 1359 1254
f 1254 1256 1255
f 1254 1359 1256
f 1256 1359 1259
f 1258 1262 1263
f 1259 1359 1360
f 1259 1360 1260
f 1260 1360 1361
f 1260 1361 1362
f 1260 1362 1363
f 1260 1363 1261
f 1261 1363 1364
f 1261 1364 1365
f 1261 1365 1262
f 1262 1365 1265
f 1262 1265 1366
f 1262 1366 1263
f 1263 1366 1264
f 1264 1366 1265
f 1265 1367 1368
f 1265 1368 1369
f 1265 1369 1266
f 1265 1365 1367
f 1266 1369 1370
f 1266 1370 1371
f 1266 1371 1269
f 1267 1273 1372
f 1267 1372 1373
f 1267 1373 1268
f 1268 1373 1372
f 1268 1372 1374
f 1268 1374 1375
f 1268 1375 1277
f 1269 1371 1376
f 1269 1376 1270
f 1270 1376 1271
f 1271 1376 1377
f 1271 1377 1272
f 1272 1377 1273
f 1273 1377 1378
f 1273 1378 1379
f 1273 1379 1380
f 1273 1380 1381
f 1273 1381 1372
f 1274 1278 1382
f 1274 1382 1275
f 1275 1382 1383
f 1275 1383 1384
f 1275 1384 1279
f 1275 1279 1276
f 1277 1375 1382
f 1277 1382 1278
f 1279 1384 1280
f 1280 1385 1386
f 1280 1386 1281
f 1280 1384 1385
f 1281 1386 1387
f 1284 1388 1291
f 1284 1291 1285
f 1285 1287 1286
f 1288 1297 1289
f 1288 1290 1297
f 1290 1296 1389
f 1290 1389 1390
f 1290 1390 1391
f 1290 1391 1392
f 1290 1392 1297
f 1291 1388 1393
f 1291 1393 1394
f 1291 1394 1395
f 1291 1395 1396
f 1291 1396 1397
f 1291 1397 1398
f 1291 1398 1292
f 1292 1398 1397
f 1292 1397 1293
f 1293 1397 1399
f 1293 1399 1294
f 1294 1399 1295
f 1295 1390 1296
f 1295 1399 1400
f 1295 1400 1390
f 1296 1390 1389
f 1297 1392 1391
f 1297 1391 1401
f 1297 1401 1300
f 1297 1300 1299
f 1298 1299 1300
f 1300 1401 1391
f 1300 1391 1402
f 1300 1402 1403
f 1300 1403 1404
f 1300 1404 1303
f 1300 1303 1302
f 1303 1404 1304
f 1304 1307 1305
f 1304 1404 1307
f 1307 1404 1308
f 1308 1404 1403
f 1308 1403 1405
f 1308 1405 1309
f 1309 1405 1406
f 1309 1406 1313
f 1311 1317 1407
f 1311 1407 1321
f 1311 1321 1312
f 1313 1406 1408
f 1313 1408 1409
f 1313 1409 1410
f 1313 1410 1314
f 1314 1410 1411
f 1314 1411 1412
f 1314 1412 1315
f 1315 1412 1316
f 1316 1412 1413
f 1316 1413 1317
f 1317 1413 1407
f 1321 1407 1414
f 1321 1414 1322
f 1322 1414 1326
f 1323 1324 1325
f 1326 1414 1415
f 1326 1415 1416
f 1326 1416 1417
f 1326 1417 1418
f 1326 1418 1332
f 1326 1332 1327
f 1327 1332 1328
f 1329 1419 1330
f 1329 1332 1418
f 1329 1418 1420
f 1329 1420 1421
f 1329 1421 1419
f 1334 1422 1335
f 1335 1422 1423
f 1335 1423 1337
f 1335 1337 1336
f 1337 1423 1424
f 1337 1424 1425
f 1337 1425 1338
f 1338 1425 1339
f 1339 1425 1340
f 1340 1425 1426
f 1340 1426 1427
f 1340 1427 1344
f 1340 1344 1343
f 1340 1343 1341
f 1341 1343 1342
f 1344 1427 1353
f 1344 1353 1428
f 1344 1428 1345
f 1345 1428 1353
f 1345 1353 1346
f 1347 1356 1410
f 1347 1410 1409
f 1347 1409 1348
f 1348 1409 1408
f 1348 1408 1349
f 1349 1408 1406
f 1349 1406 1429
f 1349 1429 1358
f 1353 1427 1430
f 1353 1430 1426
f 1353 1426 1431
f 1353 1431 1432
f 1353 1432 1354
f 1354 1412 1355
f 1354 1432 1407
f 1354 1407 1413
f 1354 1413 1412
f 1355 1412 1356
f 1356 1412 1411
f 1356 1411 1410
f 1358 1429 1433
f 1358 1433 1359
f 1359 1433 1360
f 1360 1433 1405
f 1360 1405 1403
f 1360 1403 1361
f 1361 1399 1397
f 1361 1397 1362
f 1361 1403 1402
f 1361 1402 1399
f 1362 1397 1395
f 1362 1395 1434
f 1362 1434 1435
f 1362 1435 1363
f 1363 1435 1436
f 1363 1436 1437
f 1363 1437 1364
f 1364 1437 1438
f 1364 1438 1439
f 1364 1439 1440
f 1364 1440 1368
f 1364 1368 1365
f 1365 1368 1367
f 1368 1440 1439
f 1368 1439 1369
f 1369 1439 1441
f 1369 1441 1442
f 1369 1442 1443
f 1369 1443 1371
f 1369 1371 1370
f 1371 1443 1376
f 1372 1381 1374
f 1374 1381 1444
f 1374 1444 1445
f 1374 1445 1446
f 1374 1446 1447
f 1374 1447 1382
f 1374 1382 1375
f 1376 1448 1377
f 1376 1443 1448
f 1377 1448 1443
f 1377 1443 1449
f 1377 1449 1450
f 1377 1450 1451
f 1377 1451 1452
f 1377 1452 1378
f 1378 1452 1379
f 1379 1452 1380
f 1380 1452 1451
f 1380 1451 1453
f 1380 1453 1454
f 1380 1454 1455
f 1380 1455 1445
f 1380 1445 1381
f 1381 1445 1444
f 1382 1447 1383
f 1383 1447 1456
f 1383 1456 1394
f 1383 1394 1457
f 1383 1457 1458
f 1383 1458 1384
f 1384 1458 1385
f 1385 1387 1386
f 1385 1458 1387
f 1387 1458 1459
f 1390 1402 1391
f 1390 1400 1402
f 1393 1457 1394
f 1394 1460 1461
f 1394 1461 1462
f 1394 1462 1463
f 1394 1463 1434
f 1394 1434 1464
f 1394 1464 1395
f 1394 1456 1446
f 1394 1446 1460
f 1395 1397 1396
f 1395 1464 1434
f 1399 1402 1400
f 1405 1433 1429
f 1405 1429 1406
f 1407 1432 1414
f 1414 1432 1415
f 1415 1432 1431
f 1415 1431 1417
f 1415 1417 1416
f 1417 1431 1465
f 1417 1465 1420
f 1417 1420 1418
f 1419 1421 1466
f 1420 1465 1421
f 1421 1465 1426
f 1421 1426 1467
f 1421 1467 1466
f 1422 1468 1424
f 1422 1424 1423
f 1424 1468 1425
f 1425 1469 1426
f 1426 1470 1467
f 1426 1465 1431
f 1426 1430 1427
f 1426 1469 1470
f 1434 1463 1471
f 1434 1471 1435
f 1435 1471 1436
f 1436 1472 1442
f 1436 1442 1437
f 1436 1471 1455
f 1436 1455 1472
f 1437 1442 1438
f 1438 1442 1441
f 1438 1441 1439
f 1442 1472 1473
f 1442 1473 1451
f 1442 1451 1450
f 1442 1450 1443
f 1443 1450 1449
f 1445 1455 1446
f 1446 1456 1447
f 1446 1455 1460
f 1451 1473 1453
f 1453 1473 1472
f 1453 1472 1454
f 1454 1472 1455
f 1455 1471 1461
f 1455 1461 1460
f 1457 1474 1458
f 1458 1474 1475
f 1458 1475 1459
f 1461 1471 1463
f 1461 1463 1462

