# https://github.com/mikedh/trimesh
v -0.00574641 0.02156441 0.01477765
v -0.00583145 0.02269365 0.01464565
v -0.00590519 0.02156441 0.01472893
v -0.00565598 0.02156441 0.01473129
v -0.00566351 0.02276525 0.01466058
v -0.00567643 0.02302234 0.01464879
v -0.00569258 0.02302234 0.01464879
v -0.00545251 0.05157239 0.01194980
v -0.00586052 0.02246585 0.01465743
v -0.00590519 0.02186706 0.01469986
v -0.00606344 0.02156441 0.01466843
v -0.00562422 0.02156441 0.01457022
v -0.00562422 0.02231615 0.01457022
v -0.00565221 0.02231615 0.01467865
v -0.00565436 0.02246585 0.01467315
v -0.00565813 0.02261555 0.01466686
v -0.00545251 0.05142269 0.01196316
v -0.00545251 0.05172208 0.01192937
v -0.00547243 0.05172208 0.01192152
v -0.00560538 0.05172208 0.01186494
v -0.00572380 0.05172208 0.01181387
v -0.00560538 0.05157239 0.01188302
v -0.00718519 0.02316227 0.01404771
v -0.00714321 0.02201676 0.01417971
v -0.00675619 0.02186706 0.01435650
v -0.00631589 0.02216645 0.01451050
v -0.00627391 0.02251466 0.01449322
v -0.00618186 0.02156441 0.01462286
v -0.00607367 0.02156441 0.01466451
v -0.00545251 0.02156441 0.01339476
v -0.00562637 0.02246585 0.01457022
v -0.00545251 0.02276850 0.01334683
v -0.00545251 0.02291820 0.01334055
v -0.00545251 0.02306464 0.01333426
v -0.00545251 0.02622132 0.01319047
v -0.00545251 0.03236871 0.01289504
v -0.00545251 0.03552214 0.01274339
v -0.00545251 0.04497265 0.01228845
v -0.00545251 0.05127299 0.01197102
v -0.00545251 0.05139665 0.01196473
v -0.00545251 0.05180995 0.01191444
v -0.00598486 0.05210609 0.01164651
v -0.00599993 0.05202148 0.01165280
v -0.00590519 0.05187178 0.01171487
v -0.00590519 0.05172208 0.01173451
v -0.00602254 0.05187178 0.01166380
v -0.00581799 0.05157239 0.01178951
v -0.00583953 0.05138689 0.01179894
v -0.00664423 0.03477039 0.01311740
v -0.00659794 0.03462069 0.01315276
v -0.00687784 0.03198145 0.01329419
v -0.00718304 0.02465275 0.01389685
v -0.00731868 0.02261555 0.01403985
v -0.00738220 0.02201676 0.01407049
v -0.00740588 0.02156441 0.01410506
v -0.00727078 0.02156441 0.01416792
v -0.00718519 0.02165878 0.01419700
v -0.00717335 0.02175967 0.01419228
v -0.00605537 0.04962306 0.01188144
v -0.00613073 0.05015025 0.01179501
v -0.00711629 0.02171085 0.01422135
v -0.00686708 0.02156441 0.01434000
v -0.00643377 0.02180523 0.01449714
v -0.00646230 0.02156441 0.01450893
v -0.00635572 0.02156441 0.01455293
v -0.00545251 0.02156441 0.01256817
v -0.00545251 0.05202148 0.01187752
v -0.00566136 0.05205402 0.01178716
v -0.00545251 0.05217118 0.01185001
v -0.00590842 0.05216467 0.01166615
v -0.00596010 0.05220698 0.01163630
v -0.00604299 0.05216467 0.01161037
v -0.00607475 0.05202148 0.01161980
v -0.00604191 0.05172208 0.01167323
v -0.00590519 0.05157239 0.01175101
v -0.00609735 0.05187178 0.01162922
v -0.00606398 0.05020883 0.01181859
v -0.00598593 0.04927159 0.01194745
v -0.00676696 0.03671972 0.01286282
v -0.00700380 0.03297076 0.01313233
v -0.00658126 0.04069649 0.01254539
v -0.00755606 0.02201676 0.01398642
v -0.00757974 0.02156441 0.01402099
v -0.00719542 0.02156441 0.01420171
v -0.00710553 0.02156441 0.01424021
v -0.00605537 0.05142269 0.01169837
v -0.00606829 0.05157890 0.01167637
v -0.00612750 0.05163422 0.01164337
v -0.00627552 0.04802519 0.01194273
v -0.01095036 0.02156441 0.00849180
v -0.00545251 0.02166854 0.01254853
v -0.00545251 0.05233064 0.01181623
v -0.00545736 0.05231437 0.01181780
v -0.00553756 0.05225905 0.01179737
v -0.00592888 0.05232413 0.01162372
v -0.00605537 0.05232413 0.01157108
v -0.00621631 0.05217443 0.01152787
v -0.00617756 0.05232413 0.01151687
v -0.00625291 0.05232413 0.01148229
v -0.00620555 0.05202148 0.01155694
v -0.00620555 0.05187178 0.01157579
v -0.00658933 0.04208608 0.01239924
v -0.00700864 0.03732177 0.01268446
v -0.00730899 0.03297076 0.01298461
v -0.00766425 0.02516693 0.01361163
v -0.00755606 0.02231615 0.01395578
v -0.00801897 0.02187031 0.01377741
v -0.00788494 0.02156441 0.01387327
v -0.00620555 0.05172208 0.01159308
v -0.00622385 0.05142269 0.01161508
v -0.00626906 0.05097359 0.01163865
v -0.00635572 0.04992245 0.01170387
v -0.00642785 0.04728321 0.01194352
v -0.01095036 0.02156441 0.01185394
v -0.01095090 0.05271465 0.00675062
v -0.01095036 0.02161973 0.00848158
v -0.01095036 0.02165878 0.00847608
v -0.01095036 0.02171410 0.00846901
v -0.00545251 0.02174339 0.01253989
v -0.00545251 0.05248359 0.01178008
v -0.00590519 0.05262353 0.01156244
v -0.00602361 0.05262353 0.01151372
v -0.00615064 0.05243478 0.01150351
v -0.00606614 0.05248034 0.01152944
v -0.00627337 0.05222650 0.01149094
v -0.00643592 0.05255844 0.01134715
v -0.00645207 0.05247383 0.01135579
v -0.00628844 0.05212562 0.01149879
v -0.00630243 0.05202148 0.01150665
v -0.00631966 0.05187178 0.01151608
v -0.00777728 0.02627339 0.01344348
v -0.00806741 0.02201676 0.01373891
v -0.00807710 0.02192238 0.01374363
v -0.00800605 0.02171410 0.01379942
v -0.00800605 0.02156441 0.01381434
v -0.00638910 0.05052125 0.01162294
v -0.00641924 0.05022185 0.01163865
v -0.00636918 0.05007866 0.01168030
v -0.00654681 0.04827252 0.01177694
v -0.00716958 0.03792056 0.01253910
v -0.00749200 0.03191962 0.01300111
v -0.01081687 0.02156441 0.01197730
v -0.01095036 0.02160346 0.01185001
v -0.01095090 0.05275045 0.00675062
v -0.01095036 0.04372299 0.00675062
v -0.01095036 0.02258951 0.00838337
v -0.01095036 0.02242680 0.00839672
v -0.01095036 0.02231615 0.00840615
v -0.01095036 0.02209486 0.00842815
v -0.01095036 0.02192889 0.00844544
v -0.01095036 0.02187031 0.00845173
v -0.00545251 0.02186380 0.01252889
v -0.00545251 0.05262678 0.01174473
v -0.00599562 0.05272116 0.01150115
v -0.00609897 0.05262353 0.01148072
v -0.00656672 0.05297499 0.01118843
v -0.00640955 0.05265933 0.01133536
v -0.00634550 0.05217443 0.01146108
v -0.00671690 0.05265933 0.01118764
v -0.00673359 0.05255844 0.01119629
v -0.00650536 0.05277323 0.01126543
v -0.00659525 0.05287411 0.01120100
v -0.00664962 0.05292292 0.01116486
v -0.00687784 0.05299127 0.01104307
v -0.00669375 0.05277323 0.01117743
v -0.00655111 0.05232413 0.01132907
v -0.00637779 0.05202148 0.01146579
v -0.00639448 0.05187178 0.01147444
v -0.00643108 0.05150079 0.01149486
v -0.00779182 0.02756860 0.01330126
v -0.00808302 0.02330221 0.01359670
v -0.00814492 0.02187031 0.01371377
v -0.00818798 0.02156441 0.01372320
v -0.00811316 0.02156441 0.01376170
v -0.00642785 0.05013398 0.01164337
v -0.00643754 0.05003310 0.01164887
v -0.00672228 0.04725392 0.01179030
v -0.00672766 0.04578297 0.01194352
v -0.00717819 0.03783270 0.01254382
v -0.01042179 0.02156441 0.01234031
v -0.01071514 0.02186706 0.01203388
v -0.01095036 0.02187031 0.01181701
v -0.01095036 0.03851935 0.00973168
v -0.01095036 0.03986989 0.00955804
v -0.01095036 0.03999681 0.00954154
v -0.01095036 0.04227157 0.00924374
v -0.01095036 0.04238547 0.00922881
v -0.01095036 0.04353099 0.00907717
v -0.01095036 0.04363187 0.00906381
v -0.01095036 0.04437060 0.00896559
v -0.01095036 0.04557144 0.00880531
v -0.01095036 0.04578297 0.00877702
v -0.01095036 0.04648590 0.00868195
v -0.01095036 0.04675276 0.00864580
v -0.01095036 0.04770952 0.00851616
v -0.01095036 0.04802194 0.00847294
v -0.01095036 0.04872812 0.00837394
v -0.01095036 0.04886155 0.00835508
v -0.01095036 0.04938549 0.00828044
v -0.01095036 0.04947336 0.00826787
v -0.01095036 0.05069698 0.00809186
v -0.01095036 0.05107773 0.00803686
v -0.01095036 0.05117536 0.00802272
v -0.01095036 0.05127299 0.00800700
v -0.01095036 0.05142269 0.00798264
v -0.01095036 0.05147801 0.00797322
v -0.01095036 0.05157239 0.00795672
v -0.01095036 0.05173185 0.00792764
v -0.01095036 0.05185877 0.00790093
v -0.01095036 0.05198243 0.00787343
v -0.01095036 0.05232413 0.00779643
v -0.01095036 0.05247383 0.00776107
v -0.01095036 0.05256170 0.00773907
v -0.01095036 0.05265607 0.00771471
v -0.01095036 0.05277323 0.00768014
v -0.01095036 0.05282204 0.00766521
v -0.01095036 0.05297499 0.00761728
v -0.01095036 0.05311818 0.00757014
v -0.01095036 0.05322232 0.00752928
v -0.01095036 0.05326788 0.00751121
v -0.01095036 0.05337202 0.00746642
v -0.01095036 0.05353148 0.00739492
v -0.01095036 0.05367467 0.00732813
v -0.01095036 0.05375277 0.00728963
v -0.01095036 0.05398058 0.00717648
v -0.01095036 0.05427997 0.00702562
v -0.01095036 0.05438411 0.00697298
v -0.01095036 0.05443618 0.00694548
v -0.01095036 0.05457286 0.00687319
v -0.01095036 0.05464445 0.00683469
v -0.01095036 0.05468351 0.00681269
v -0.01095036 0.05475836 0.00676948
v -0.01095036 0.05478764 0.00675062
v -0.01095036 0.02441518 0.01150036
v -0.01095036 0.02560626 0.01135186
v -0.01095036 0.03071552 0.01071306
v -0.01095036 0.03162022 0.01059992
v -0.01095036 0.03374203 0.01033434
v -0.01095036 0.03462069 0.01022434
v -0.01095036 0.03531061 0.01013791
v -0.01095036 0.03640731 0.01000040
v -0.01095036 0.03749099 0.00986369
v -0.01095036 0.03770578 0.00983618
v -0.01085079 0.04467976 0.00675062
v -0.00545251 0.02216320 0.01250689
v -0.01070115 0.04618000 0.00675062
v -0.01040241 0.04918047 0.00675062
v -0.00995457 0.05368443 0.00675062
v -0.00545251 0.05277648 0.01170623
v -0.00591004 0.05277323 0.01152236
v -0.00596386 0.05282204 0.01148779
v -0.00620232 0.05290991 0.01136286
v -0.00634065 0.05290991 0.01130315
v -0.00653658 0.05307262 0.01117586
v -0.00665554 0.05307262 0.01112400
v -0.00680571 0.05277323 0.01112086
v -0.00691283 0.05277323 0.01106350
v -0.00693274 0.05262353 0.01107528
v -0.00674435 0.05247383 0.01120257
v -0.00677934 0.05307262 0.01106743
v -0.00733860 0.05302055 0.01074999
v -0.00719111 0.05273092 0.01090085
v -0.00698765 0.05277323 0.01101793
v -0.00674866 0.05317676 0.01105328
v -0.00685416 0.05307262 0.01103050
v -0.00690475 0.05337202 0.01090792
v -0.00695858 0.05321581 0.01092678
v -0.00701079 0.05326137 0.01088278
v -0.00719649 0.05332971 0.01075471
v -0.00747962 0.05329717 0.01059442
v -0.00732083 0.05312144 0.01073899
v -0.00657049 0.05217118 0.01133929
v -0.00657910 0.05208982 0.01134400
v -0.00658879 0.05199219 0.01134950
v -0.00661463 0.05172208 0.01136443
v -0.00683586 0.05097359 0.01131886
v -0.00645261 0.05127299 0.01150744
v -0.00658664 0.04927810 0.01164808
v -0.00657695 0.04937898 0.01164258
v -0.00815622 0.02486753 0.01339083
v -0.00815622 0.02381639 0.01350241
v -0.00886028 0.02201676 0.01331148
v -0.00829833 0.02186706 0.01363205
v -0.00752807 0.03297076 0.01287068
v -0.00731814 0.03717207 0.01253832
v -0.00768524 0.03071878 0.01302468
v -0.00832039 0.02173038 0.01363441
v -0.00830586 0.02156441 0.01365955
v -0.00793284 0.03395356 0.01254617
v -0.00803996 0.03221901 0.01267268
v -0.00779289 0.03462069 0.01255167
v -0.00787686 0.03312046 0.01266561
v -0.00739781 0.03777086 0.01243146
v -0.01026515 0.02156441 0.01248410
v -0.01032490 0.02189309 0.01238903
v -0.01093583 0.02212415 0.01179894
v -0.01062471 0.03297076 0.01073899
v -0.01092991 0.02462996 0.01149329
v -0.01094767 0.03986989 0.00956118
v -0.01094444 0.04106748 0.00940796
v -0.01092829 0.04247009 0.00924139
v -0.01093206 0.04354726 0.00909524
v -0.01094606 0.04331946 0.00911017
v -0.01093691 0.04572114 0.00880059
v -0.01094068 0.04677228 0.00865444
v -0.01094983 0.04661933 0.00866466
v -0.01093691 0.04794058 0.00850044
v -0.01092614 0.04812282 0.00848787
v -0.01093152 0.04909911 0.00834487
v -0.01094498 0.04887131 0.00836058
v -0.01091861 0.05037155 0.00817829
v -0.01093152 0.05119489 0.00804393
v -0.01094444 0.05097359 0.00805965
v -0.01092668 0.05127299 0.00803765
v -0.01083141 0.05157239 0.00810679
v -0.01090623 0.05157239 0.00801250
v -0.01089546 0.05172208 0.00799915
v -0.01094283 0.05187178 0.00790800
v -0.01092560 0.05206379 0.00788679
v -0.01080772 0.05187178 0.00807693
v -0.01090138 0.05232413 0.00785693
v -0.01094821 0.05247383 0.00776421
v -0.01093798 0.05257471 0.00775164
v -0.01092668 0.05267560 0.00773828
v -0.01091430 0.05277323 0.00772335
v -0.01082010 0.05292292 0.00779014
v -0.01094229 0.05304008 0.00760706
v -0.01092883 0.05313771 0.00759056
v -0.01091538 0.05322232 0.00757406
v -0.01079588 0.05349243 0.00761178
v -0.01076520 0.05367467 0.00757249
v -0.01093475 0.05345989 0.00744835
v -0.01091807 0.05355751 0.00742635
v -0.01089761 0.05367467 0.00739885
v -0.01085940 0.05383088 0.00737292
v -0.01082333 0.05397407 0.00735013
v -0.01093745 0.05406519 0.00715134
v -0.01068769 0.05427997 0.00737842
v -0.01062525 0.05433204 0.00743578
v -0.01078081 0.05449801 0.00714270
v -0.01093529 0.05465747 0.00684883
v -0.01094229 0.05481042 0.00675062
v -0.01092991 0.02703165 0.01119314
v -0.01094391 0.03041938 0.01075628
v -0.01084863 0.03432130 0.01035870
v -0.01091376 0.03567183 0.01012769
v -0.01092345 0.03671972 0.00998705
v -0.01092883 0.03782619 0.00984247
v -0.01092130 0.03911815 0.00968454
v -0.00545251 0.03221576 0.01178401
v -0.00992766 0.05396430 0.00675062
v -0.00545251 0.05308564 0.01162451
v -0.00605537 0.05292292 0.01142179
v -0.00545251 0.05358680 0.01149172
v -0.00545251 0.05416282 0.01133850
v -0.00546112 0.05457611 0.01122457
v -0.00590519 0.05367467 0.01128272
v -0.00601339 0.05322232 0.01135893
v -0.00615011 0.05303032 0.01135265
v -0.00621577 0.05338178 0.01123007
v -0.00635572 0.05307262 0.01125364
v -0.00646176 0.05307262 0.01120807
v -0.00643592 0.05315723 0.01119629
v -0.00635465 0.05338178 0.01117036
v -0.00635572 0.05352172 0.01113186
v -0.00666253 0.05322558 0.01107843
v -0.00650536 0.05337202 0.01110750
v -0.00650482 0.05351521 0.01106821
v -0.00700810 0.05262353 0.01103050
v -0.00702102 0.05249986 0.01103835
v -0.00696504 0.05245756 0.01107686
v -0.00695589 0.05232413 0.01109886
v -0.00681971 0.05247383 0.01116014
v -0.00756305 0.05291316 0.01062977
v -0.00778105 0.05314747 0.01044513
v -0.00746940 0.05264956 0.01073821
v -0.00720457 0.05262353 0.01090949
v -0.00710553 0.05262353 0.01097078
v -0.00745271 0.05277323 0.01072720
v -0.00671744 0.05327764 0.01103757
v -0.00680141 0.05322558 0.01101085
v -0.00645476 0.05363887 0.01105564
v -0.00642408 0.05373650 0.01104150
v -0.00688269 0.05345012 0.01089535
v -0.00701402 0.05372023 0.01073585
v -0.00709745 0.05367141 0.01070363
v -0.00717066 0.05342734 0.01073899
v -0.00732998 0.05359657 0.01059442
v -0.00735582 0.05349568 0.01061013
v -0.00746132 0.05337202 0.01058342
v -0.00763895 0.05346314 0.01044984
v -0.00766102 0.05337202 0.01046320
v -0.00792208 0.05342734 0.01028955
v -0.00786556 0.05337527 0.01033827
v -0.00794415 0.05332971 0.01030291
v -0.00676104 0.05232413 0.01121200
v -0.00665554 0.05217118 0.01129057
v -0.00683639 0.05232413 0.01116879
v -0.00664585 0.05203450 0.01131179
v -0.00686600 0.05202148 0.01118607
v -0.00692306 0.05142269 0.01121907
v -0.00705009 0.04677228 0.01165594
v -0.00786879 0.04151983 0.01175887
v -0.00815622 0.03762117 0.01202052
v -0.00808679 0.03727621 0.01209831
v -0.00795061 0.03792056 0.01210616
v -0.00674327 0.04842222 0.01165201
v -0.00787579 0.03732177 0.01221381
v -0.00780097 0.03732177 0.01225624
v -0.00782627 0.03567183 0.01242046
v -0.00815622 0.02906884 0.01294454
v -0.00788548 0.03162022 0.01282039
v -0.00895017 0.02186706 0.01327847
v -0.00867134 0.02459417 0.01314019
v -0.00839037 0.02169132 0.01360063
v -0.00891303 0.02156441 0.01333033
v -0.00892594 0.02351699 0.01311426
v -0.00886512 0.02336729 0.01316454
v -0.01018979 0.02156441 0.01255246
v -0.01018387 0.02165878 0.01254696
v -0.01023124 0.02216645 0.01244089
v -0.01019679 0.03597123 0.01075942
v -0.01029206 0.03567183 0.01070913
v -0.01063063 0.03408699 0.01059442
v -0.01020002 0.04316976 0.00986211
v -0.01017795 0.04712049 0.00939146
v -0.01093260 0.04010420 0.00954625
v -0.01092560 0.04137013 0.00938832
v -0.01080611 0.04437060 0.00912038
v -0.01079319 0.04572114 0.00895695
v -0.01082549 0.04631993 0.00884223
v -0.01063117 0.04939525 0.00864423
v -0.01076574 0.04842222 0.00862694
v -0.01076036 0.04962306 0.00847058
v -0.01079050 0.05022185 0.00835508
v -0.01077866 0.05042362 0.00834094
v -0.01079965 0.05112329 0.00821679
v -0.01088362 0.05097359 0.00813508
v -0.01088631 0.05113631 0.00810836
v -0.01078458 0.05137062 0.00819794
v -0.01083141 0.05142269 0.00813193
v -0.01077112 0.05157239 0.00818143
v -0.01076036 0.05172208 0.00816808
v -0.01077812 0.05147150 0.00819008
v -0.01074636 0.05187178 0.00815158
v -0.01073183 0.05202148 0.00813429
v -0.01083087 0.05216792 0.00797950
v -0.01072591 0.05216792 0.00810679
v -0.01082602 0.05232413 0.00794807
v -0.01088577 0.05247383 0.00783964
v -0.01079427 0.05262353 0.00790957
v -0.01081095 0.05247383 0.00792921
v -0.01078458 0.05270814 0.00789779
v -0.01070707 0.05277648 0.00797007
v -0.01062956 0.05284157 0.00804157
v -0.01075713 0.05292292 0.00786478
v -0.01080019 0.05307262 0.00776657
v -0.01088523 0.05308239 0.00766207
v -0.01078727 0.05316700 0.00775085
v -0.01077112 0.05326788 0.00773200
v -0.01063817 0.05361935 0.00775164
v -0.01068231 0.05367141 0.00767699
v -0.01066347 0.05382437 0.00763457
v -0.01064409 0.05393176 0.00761021
v -0.01082280 0.05367467 0.00749706
v -0.01078135 0.05389922 0.00744363
v -0.01062525 0.05403264 0.00758585
v -0.01066454 0.05412376 0.00748763
v -0.01058596 0.05427997 0.00751435
v -0.01064355 0.05453055 0.00731006
v -0.01048638 0.05466072 0.00745070
v -0.01064194 0.05481042 0.00715841
v -0.01091376 0.05475836 0.00681976
v -0.01077220 0.05481042 0.00698162
v -0.00985499 0.05481042 0.00675062
v -0.01063063 0.03528783 0.01044434
v -0.01083894 0.03327015 0.01049934
v -0.01068446 0.03567183 0.01034534
v -0.01080880 0.03732177 0.01002083
v -0.01078888 0.03881875 0.00985190
v -0.01017795 0.04832133 0.00924139
v -0.01033028 0.04714002 0.00924374
v -0.01049714 0.04572114 0.00926024
v -0.01032167 0.04962306 0.00893495
v -0.01048746 0.04704239 0.00910074
v -0.01063978 0.04467000 0.00925317
v -0.01076520 0.04272067 0.00937810
v -0.00545251 0.04526879 0.01084585
v -0.00991528 0.05410424 0.00675062
v -0.00545251 0.05367467 0.01024319
v -0.00545251 0.05336876 0.01026441
v -0.00545251 0.05307262 0.01028562
v -0.00545251 0.05425394 0.01131415
v -0.00545520 0.05442316 0.01126779
v -0.00545251 0.05457611 0.01122772
v -0.00545251 0.05459889 0.01122143
v -0.00545251 0.05481042 0.01116171
v -0.00551495 0.05462493 0.01118843
v -0.00560107 0.05457611 0.01116564
v -0.00565598 0.05442316 0.01118450
v -0.00568020 0.05434831 0.01119471
v -0.00575932 0.05428973 0.01117743
v -0.00595095 0.05397407 0.01118214
v -0.00605752 0.05366816 0.01121986
v -0.00620555 0.05382437 0.01111379
v -0.00632181 0.05382437 0.01106271
v -0.00722125 0.05247383 0.01091892
v -0.00703824 0.05232413 0.01104935
v -0.00705332 0.05217118 0.01105800
v -0.00695589 0.05202148 0.01113343
v -0.00785049 0.05308889 0.01041291
v -0.00803781 0.05322232 0.01026755
v -0.00755606 0.05277323 0.01066120
v -0.00766479 0.05262353 0.01061720
v -0.00768255 0.05247383 0.01062820
v -0.00748985 0.05247383 0.01075078
v -0.00729607 0.05247383 0.01087257
v -0.00816645 0.05322232 0.01018584
v -0.00664423 0.05351521 0.01099985
v -0.00675512 0.05408797 0.01075785
v -0.00680571 0.05382437 0.01081599
v -0.00688538 0.05390573 0.01074763
v -0.00639663 0.05382437 0.01102735
v -0.00650536 0.05382437 0.01097235
v -0.00629167 0.05391549 0.01105014
v -0.00612804 0.05419536 0.01104307
v -0.00690906 0.05382437 0.01076099
v -0.00694351 0.05396430 0.01069656
v -0.00704470 0.05407495 0.01060306
v -0.00707323 0.05397407 0.01061956
v -0.00723310 0.05367467 0.01062506
v -0.00730792 0.05367467 0.01058184
v -0.00740588 0.05367467 0.01052370
v -0.00761257 0.05356402 0.01043413
v -0.00755982 0.05351846 0.01048049
v -0.00810509 0.05349243 0.01015912
v -0.00799905 0.05337527 0.01025655
v -0.00813039 0.05337202 0.01017562
v -0.00820521 0.05337202 0.01012848
v -0.00698388 0.05157239 0.01116721
v -0.00701241 0.05127299 0.01118371
v -0.00807172 0.04016929 0.01178951
v -0.00897869 0.02988242 0.01239374
v -0.00874240 0.03146401 0.01235681
v -0.00940500 0.02501723 0.01268053
v -0.00816914 0.03582153 0.01220988
v -0.00815622 0.03492009 0.01231517
v -0.00800605 0.03582153 0.01230260
v -0.00941631 0.02351699 0.01283689
v -0.00905567 0.02201676 0.01320304
v -0.00918754 0.02156441 0.01317712
v -0.00897493 0.02160997 0.01329183
v -0.00897923 0.02156441 0.01329419
v -0.00944160 0.02186706 0.01300111
v -0.01010636 0.02156441 0.01262318
v -0.01016934 0.02186706 0.01253439
v -0.01018387 0.02286287 0.01239767
v -0.01018495 0.02526781 0.01209831
v -0.01017203 0.02666716 0.01193645
v -0.01011498 0.03717207 0.01068478
v -0.01003047 0.04819116 0.00939382
v -0.01003800 0.05049521 0.00910074
v -0.01047346 0.04842222 0.00893652
v -0.01073075 0.04557144 0.00904181
v -0.01053644 0.04857191 0.00885166
v -0.01062095 0.04842222 0.00878331
v -0.01060803 0.04977275 0.00861909
v -0.01064894 0.05022185 0.00851380
v -0.01067047 0.05097359 0.00838808
v -0.01066132 0.05112329 0.00837787
v -0.01074529 0.05097359 0.00830244
v -0.01072698 0.05127299 0.00828044
v -0.01068554 0.05157239 0.00828201
v -0.01062794 0.05162446 0.00834015
v -0.01068500 0.05172208 0.00825608
v -0.01067154 0.05187178 0.00824036
v -0.01065647 0.05202148 0.00822386
v -0.01063279 0.05225579 0.00819636
v -0.01076412 0.05232413 0.00802272
v -0.01074798 0.05247383 0.00800386
v -0.01060910 0.05247383 0.00816808
v -0.01065593 0.05262353 0.00807300
v -0.01059188 0.05262353 0.00814843
v -0.01064194 0.05274068 0.00805650
v -0.01049876 0.05277323 0.00821444
v -0.01048638 0.05286760 0.00820029
v -0.01061825 0.05292292 0.00802900
v -0.01066185 0.05307262 0.00792921
v -0.01064463 0.05318978 0.00790957
v -0.01070814 0.05322883 0.00782078
v -0.01034912 0.05367467 0.00806436
v -0.01046323 0.05382437 0.00787343
v -0.01052783 0.05382437 0.00779800
v -0.01060318 0.05382437 0.00770921
v -0.01048584 0.05405868 0.00774928
v -0.01046754 0.05415956 0.00772650
v -0.01044655 0.05427346 0.00769900
v -0.01032974 0.05449476 0.00774221
v -0.01050468 0.05427346 0.00762435
v -0.01034804 0.05469001 0.00761649
v -0.01032759 0.05479090 0.00758899
v -0.01046539 0.05476161 0.00742242
v -0.01045893 0.05481042 0.00740277
v -0.00985607 0.05479741 0.00675062
v -0.00545520 0.05481042 0.01017719
v -0.00545251 0.05480717 0.01017798
v -0.00545251 0.05471930 0.01018191
v -0.00545251 0.05441991 0.01019762
v -0.00545251 0.05427021 0.01020626
v -0.00545251 0.05397407 0.01022434
v -0.00545251 0.05382111 0.01023377
v -0.01066454 0.03717207 0.01017641
v -0.01017042 0.04962306 0.00908424
v -0.01017634 0.05070999 0.00893967
v -0.01025492 0.05066118 0.00886816
v -0.01031952 0.05082064 0.00878252
v -0.00990074 0.05427346 0.00675062
v -0.00551980 0.05481042 0.01113264
v -0.00545251 0.05481042 0.01036184
v -0.00590950 0.05442316 0.01107528
v -0.00590519 0.05427346 0.01111928
v -0.00605537 0.05397407 0.01113736
v -0.00606883 0.05413678 0.01108628
v -0.00615979 0.05409448 0.01105800
v -0.00723579 0.05232413 0.01092835
v -0.00762388 0.05191083 0.01074056
v -0.00763357 0.05180995 0.01074685
v -0.00765671 0.05157239 0.01076099
v -0.00714267 0.05202148 0.01102107
v -0.00708131 0.05187178 0.01107528
v -0.00771969 0.05277323 0.01055591
v -0.00806095 0.05307262 0.01028169
v -0.00807495 0.05297499 0.01029112
v -0.00774014 0.05262353 0.01056849
v -0.00775737 0.05247383 0.01057949
v -0.00784134 0.05231111 0.01054806
v -0.00778159 0.05225254 0.01059520
v -0.00770569 0.05217118 0.01065492
v -0.00750600 0.05232413 0.01076099
v -0.00761257 0.05202148 0.01073349
v -0.00822243 0.05327114 0.01013948
v -0.00823750 0.05317351 0.01014969
v -0.00672390 0.05418885 0.01074135
v -0.00688753 0.05436133 0.01059913
v -0.00620770 0.05413678 0.01102185
v -0.00664746 0.05441991 0.01070520
v -0.00602738 0.05427346 0.01106586
v -0.00599562 0.05437109 0.01105171
v -0.00610274 0.05427346 0.01103050
v -0.00714805 0.05397407 0.01057634
v -0.00717335 0.05388620 0.01059049
v -0.00694512 0.05441665 0.01054727
v -0.00709907 0.05412376 0.01055513
v -0.00723364 0.05412376 0.01047656
v -0.00733052 0.05404892 0.01044434
v -0.00779558 0.05362585 0.01030370
v -0.00745863 0.05430926 0.01028169
v -0.00769708 0.05397081 0.01025027
v -0.00807817 0.05359331 0.01014262
v -0.00815569 0.05353473 0.01011355
v -0.00828164 0.05352172 0.01003183
v -0.00837584 0.05343385 0.00999097
v -0.00831770 0.05337853 0.01004755
v -0.00829510 0.05322232 0.01009941
v -0.00710553 0.05127299 0.01112793
v -0.00717927 0.05029019 0.01119393
v -0.00718896 0.05018931 0.01119943
v -0.00730307 0.04842222 0.01132829
v -0.00763895 0.04508980 0.01149958
v -0.00837315 0.03720461 0.01194037
v -0.00912618 0.02911766 0.01239217
v -0.00937001 0.02607813 0.01258467
v -0.00960847 0.02366669 0.01271118
v -0.00970966 0.02201676 0.01283297
v -0.00962031 0.02216645 0.01286754
v -0.00924837 0.02171410 0.01312683
v -0.00935602 0.02156441 0.01308204
v -0.00973819 0.02171410 0.01284947
v -0.00975272 0.02156441 0.01285732
v -0.01002455 0.02156441 0.01268996
v -0.01008322 0.02201676 0.01258782
v -0.01005038 0.02246585 0.01256032
v -0.01005146 0.02366669 0.01241181
v -0.01004177 0.02501723 0.01225388
v -0.01004446 0.02741891 0.01195609
v -0.01003101 0.03004188 0.01164415
v -0.01003154 0.03124597 0.01149486
v -0.01003962 0.03717207 0.01075313
v -0.01008160 0.03777086 0.01064077
v -0.01000409 0.04857191 0.00937025
v -0.01000517 0.05097359 0.00907088
v -0.01007460 0.05112329 0.00898602
v -0.01038249 0.05097359 0.00869766
v -0.01045731 0.05097359 0.00861987
v -0.01051921 0.05112329 0.00853501
v -0.01060318 0.05097359 0.00846273
v -0.01059403 0.05112329 0.00845251
v -0.01058434 0.05127299 0.00844230
v -0.01064194 0.05142269 0.00835587
v -0.01048853 0.05157239 0.00850201
v -0.01048261 0.05165374 0.00849573
v -0.01061987 0.05172208 0.00833151
v -0.01060587 0.05187178 0.00831579
v -0.01059134 0.05202148 0.00829851
v -0.01057627 0.05217118 0.00828122
v -0.01046915 0.05247383 0.00832994
v -0.01033513 0.05241525 0.00849887
v -0.01032436 0.05251614 0.00848630
v -0.01031198 0.05262353 0.00847216
v -0.01021886 0.05277323 0.00853816
v -0.01019894 0.05292292 0.00851458
v -0.01040833 0.05292943 0.00827101
v -0.01059672 0.05307262 0.00800465
v -0.01031629 0.05307262 0.00832758
v -0.01029260 0.05322232 0.00830008
v -0.01040456 0.05336876 0.00811700
v -0.01032921 0.05299127 0.00834172
v -0.01020863 0.05367467 0.00822465
v -0.01019087 0.05377881 0.00820501
v -0.01025439 0.05381786 0.00811700
v -0.01033459 0.05375928 0.00804786
v -0.01018064 0.05344687 0.00834330
v -0.01022263 0.05397407 0.00809186
v -0.01029745 0.05397407 0.00800543
v -0.01036258 0.05397407 0.00793000
v -0.01043740 0.05397407 0.00784278
v -0.01050145 0.05397407 0.00776735
v -0.01032490 0.05418234 0.00788679
v -0.01030821 0.05427346 0.00786714
v -0.01037119 0.05427346 0.00779171
v -0.01028991 0.05443618 0.00781686
v -0.01034858 0.05439387 0.00776500
v -0.01023178 0.05456960 0.00782471
v -0.01020863 0.05472256 0.00777678
v -0.01019733 0.05481042 0.00774614
v -0.01031413 0.05457286 0.00772178
v -0.01029099 0.05473232 0.00766757
v -0.01030337 0.05481042 0.00760942
v -0.01032328 0.05481042 0.00758349
v -0.01014942 0.05112329 0.00891295
v -0.01022532 0.05112329 0.00883831
v -0.01030014 0.05112329 0.00876288
v -0.00560646 0.05481042 0.01109336
v -0.00586213 0.05454357 0.01105957
v -0.00769224 0.05186527 0.01070363
v -0.00771700 0.05172208 0.01070599
v -0.00774606 0.05142269 0.01072406
v -0.00717066 0.05172208 0.01103835
v -0.00814492 0.05292292 0.01025341
v -0.00825042 0.05307262 0.01015834
v -0.00792369 0.05266583 0.01044041
v -0.00794630 0.05247383 0.01045534
v -0.00785587 0.05247383 0.01051506
v -0.00796299 0.05232413 0.01046634
v -0.00799528 0.05202148 0.01048756
v -0.00789732 0.05187178 0.01057242
v -0.00780635 0.05202148 0.01061092
v -0.00782196 0.05187178 0.01062113
v -0.00832524 0.05307262 0.01010569
v -0.00680625 0.05441665 0.01062349
v -0.00675673 0.05454032 0.01060856
v -0.00685685 0.05446221 0.01058184
v -0.00632504 0.05427346 0.01091735
v -0.00630620 0.05481042 0.01074999
v -0.00637079 0.05481042 0.01071699
v -0.00655488 0.05481042 0.01062270
v -0.00596225 0.05447198 0.01103521
v -0.00604945 0.05442316 0.01100771
v -0.00732998 0.05449801 0.01029427
v -0.00735851 0.05439713 0.01031155
v -0.00717120 0.05478439 0.01028955
v -0.00726109 0.05481042 0.01022827
v -0.00720080 0.05468351 0.01030684
v -0.00782465 0.05397407 0.01017169
v -0.00798129 0.05367467 0.01017484
v -0.00748554 0.05465747 0.01014812
v -0.00756090 0.05441991 0.01018269
v -0.00766802 0.05427346 0.01016698
v -0.00779666 0.05407820 0.01015441
v -0.00805611 0.05367467 0.01012926
v -0.00801627 0.05398058 0.01004755
v -0.00816860 0.05368443 0.01005226
v -0.00825311 0.05364213 0.01001062
v -0.00835646 0.05352172 0.00997683
v -0.00842213 0.05367467 0.00987547
v -0.00844796 0.05337853 0.00994854
v -0.00839252 0.05333297 0.01000433
v -0.00852009 0.05357053 0.00983697
v -0.00868534 0.05360958 0.00969790
v -0.00840975 0.05322232 0.01001690
v -0.00842912 0.05307262 0.01003105
v -0.00722610 0.05112329 0.01107214
v -0.00778105 0.05104844 0.01074528
v -0.00740588 0.04827252 0.01128350
v -0.00959447 0.02516693 0.01255325
v -0.00940715 0.02636777 0.01253125
v -0.00975434 0.02291494 0.01270882
v -0.00980601 0.02201676 0.01277718
v -0.00982754 0.02156441 0.01281411
v -0.01003262 0.02270016 0.01254617
v -0.00994973 0.02156441 0.01273868
v -0.00991043 0.02201676 0.01271432
v -0.00988783 0.02228035 0.01269939
v -0.00987921 0.02237798 0.01269389
v -0.01001163 0.02171410 0.01268132
v -0.00989159 0.02351699 0.01255246
v -0.00988675 0.02482848 0.01239924
v -0.01003477 0.02511486 0.01224760
v -0.01002831 0.02642309 0.01209202
v -0.00985607 0.03866905 0.01072485
v -0.00988675 0.04313396 0.01014969
v -0.00988029 0.04443894 0.00999412
v -0.00988191 0.04925206 0.00939539
v -0.00995027 0.04947336 0.00930660
v -0.00999494 0.05112329 0.00906145
v -0.00994058 0.05082064 0.00914788
v -0.01006384 0.05127299 0.00897581
v -0.01013920 0.05127299 0.00890274
v -0.01044816 0.05112329 0.00860966
v -0.01043794 0.05127299 0.00859944
v -0.01050952 0.05127299 0.00852401
v -0.01034158 0.05157239 0.00865523
v -0.01042717 0.05142269 0.00858844
v -0.01053267 0.05171232 0.00842973
v -0.01033459 0.05166676 0.00864737
v -0.01032651 0.05176765 0.00863952
v -0.01047400 0.05175463 0.00848630
v -0.01046323 0.05187178 0.00847451
v -0.01053105 0.05187178 0.00839908
v -0.01044924 0.05202148 0.00845801
v -0.01034481 0.05232413 0.00850908
v -0.01018064 0.05254543 0.00864344
v -0.01015158 0.05277323 0.00861280
v -0.01017042 0.05262353 0.00863323
v -0.01012951 0.05292292 0.00858923
v -0.01018549 0.05301079 0.00849887
v -0.01016934 0.05311167 0.00848080
v -0.01014027 0.05367467 0.00830008
v -0.01015642 0.05397407 0.00816729
v -0.01003423 0.05345663 0.00849730
v -0.01019679 0.05412376 0.00806200
v -0.01018280 0.05420187 0.00804629
v -0.01020540 0.05442316 0.00792293
v -0.01018818 0.05451428 0.00790171
v -0.01016719 0.05461516 0.00787814
v -0.01019033 0.05481042 0.00775478
v -0.01021509 0.05127299 0.00882809
v -0.01028991 0.05127299 0.00875266
v -0.01036312 0.05127299 0.00867723
v -0.00565490 0.05481042 0.01107057
v -0.00783757 0.05172208 0.01063056
v -0.00786664 0.05156588 0.01063213
v -0.00785587 0.05142269 0.01065570
v -0.00786287 0.05097359 0.01070363
v -0.00776006 0.05127299 0.01073270
v -0.00826818 0.05292292 0.01017012
v -0.00819121 0.05262353 0.01026834
v -0.00811639 0.05262353 0.01031862
v -0.00799367 0.05262027 0.01040113
v -0.00834300 0.05292292 0.01011826
v -0.00802112 0.05247383 0.01040505
v -0.00803781 0.05232413 0.01041605
v -0.00805449 0.05217118 0.01042706
v -0.00808948 0.05183924 0.01045063
v -0.00802004 0.05188155 0.01049070
v -0.00800605 0.05172208 0.01052134
v -0.00791239 0.05172208 0.01058263
v -0.00792369 0.05160818 0.01059049
v -0.00659417 0.05481042 0.01060227
v -0.00680625 0.05458262 0.01056692
v -0.00687946 0.05481042 0.01044434
v -0.00695643 0.05481042 0.01040113
v -0.00590950 0.05458588 0.01102264
v -0.00736982 0.05481042 0.01016462
v -0.00716258 0.05481042 0.01028484
v -0.00792369 0.05388620 0.01014026
v -0.00745648 0.05475836 0.01013005
v -0.00758458 0.05457286 0.01011512
v -0.00761419 0.05446872 0.01013398
v -0.00764164 0.05436784 0.01015126
v -0.00790001 0.05397407 0.01012533
v -0.00776921 0.05417583 0.01013791
v -0.00810024 0.05393501 0.01000826
v -0.00813039 0.05382437 0.01002790
v -0.00785049 0.05412702 0.01010333
v -0.00786341 0.05427346 0.01004205
v -0.00797321 0.05412376 0.01002398
v -0.00820467 0.05382437 0.00997683
v -0.00834516 0.05397407 0.00981968
v -0.00830425 0.05368443 0.00995797
v -0.00849695 0.05367467 0.00981968
v -0.00861052 0.05366491 0.00973718
v -0.00845012 0.05382762 0.00979926
v -0.00856154 0.05382437 0.00971833
v -0.00869987 0.05352172 0.00970968
v -0.00881829 0.05326137 0.00968454
v -0.00876339 0.05321581 0.00974033
v -0.00858038 0.05322232 0.00988412
v -0.00848510 0.05322232 0.00995876
v -0.00863690 0.05382437 0.00966175
v -0.00873109 0.05382437 0.00958711
v -0.00875478 0.05367141 0.00961932
v -0.00884413 0.05363236 0.00955646
v -0.00877469 0.05352172 0.00964840
v -0.00850448 0.05307262 0.00997447
v -0.00852924 0.05284157 0.00999412
v -0.00847003 0.05278299 0.01004755
v -0.00792746 0.05027717 0.01074292
v -0.00886620 0.03432130 0.01196630
v -0.00886727 0.03297076 0.01211716
v -0.00980601 0.02216645 0.01276068
v -0.01002616 0.02400839 0.01239060
v -0.00973496 0.02826828 0.01209752
v -0.00883875 0.04992245 0.01015126
v -0.00922145 0.04422090 0.01054806
v -0.00966660 0.04060537 0.01063920
v -0.00973711 0.04046869 0.01059992
v -0.00958155 0.02794285 0.01224524
v -0.00972850 0.02582755 0.01239296
v -0.00988406 0.02360811 0.01254696
v -0.00808194 0.04940176 0.01074528
v -0.00968813 0.02756860 0.01221459
v -0.01002078 0.02651746 0.01208652
v -0.00973980 0.04287037 0.01030212
v -0.00961493 0.04962306 0.00957218
v -0.00964345 0.05007215 0.00949361
v -0.00973657 0.04778437 0.00969947
v -0.00972527 0.05037155 0.00938989
v -0.00973819 0.05019581 0.00940089
v -0.00975972 0.05112329 0.00926810
v -0.00977048 0.05097359 0.00927753
v -0.00984477 0.04977275 0.00936317
v -0.00988783 0.05037155 0.00925081
v -0.00991958 0.05112329 0.00912903
v -0.00994004 0.04962306 0.00929717
v -0.00990774 0.05127299 0.00911881
v -0.00998310 0.05127299 0.00905045
v -0.01005200 0.05142269 0.00896402
v -0.01020433 0.05142269 0.00881709
v -0.01026784 0.05157239 0.00872988
v -0.01038841 0.05187178 0.00855466
v -0.01019249 0.05157239 0.00880531
v -0.01018495 0.05166676 0.00879745
v -0.01017580 0.05176765 0.00878959
v -0.01022909 0.05202148 0.00869216
v -0.01021563 0.05217118 0.00867880
v -0.01030444 0.05202148 0.00861516
v -0.01019033 0.05244454 0.00865366
v -0.01027699 0.05232413 0.00858452
v -0.01002670 0.05252590 0.00879038
v -0.01001540 0.05262353 0.00877938
v -0.01009560 0.05262353 0.00870473
v -0.00999656 0.05277323 0.00876209
v -0.01007622 0.05277323 0.00868666
v -0.01012251 0.05232413 0.00874009
v -0.01005469 0.05292292 0.00866623
v -0.01003854 0.05302055 0.00865130
v -0.01010367 0.05306611 0.00856644
v -0.01007514 0.05322232 0.00854051
v -0.01001593 0.05355751 0.00847844
v -0.01006545 0.05367467 0.00838022
v -0.01008160 0.05397407 0.00824744
v -0.01005361 0.05412376 0.00821758
v -0.01012897 0.05412376 0.00813665
v -0.01000302 0.05322232 0.00861594
v -0.00988567 0.05345989 0.00864894
v -0.01010044 0.05425719 0.00811229
v -0.01016396 0.05430275 0.00802429
v -0.01014027 0.05442316 0.00799757
v -0.01010582 0.05457286 0.00796772
v -0.01002185 0.05462818 0.00803372
v -0.01004715 0.05481042 0.00791114
v -0.00793338 0.05151056 0.01059677
v -0.00795545 0.05127299 0.01061092
v -0.00828487 0.05277323 0.01018191
v -0.00837261 0.05265933 0.01013869
v -0.00820736 0.05247383 0.01027934
v -0.00835969 0.05277323 0.01013005
v -0.00816537 0.05230786 0.01033198
v -0.00815622 0.05217118 0.01035791
v -0.00817560 0.05172208 0.01040584
v -0.00810024 0.05172208 0.01045848
v -0.00799259 0.05156588 0.01055041
v -0.00838283 0.05255844 0.01014655
v -0.00831394 0.05217118 0.01024791
v -0.00832847 0.05202148 0.01025812
v -0.00671259 0.05481042 0.01053706
v -0.00739673 0.05481042 0.01014812
v -0.00776167 0.05461516 0.00998155
v -0.00770946 0.05456635 0.01003498
v -0.00743656 0.05481042 0.01012298
v -0.00746778 0.05481042 0.01010255
v -0.00781550 0.05442316 0.01001848
v -0.00774284 0.05427346 0.01012062
v -0.00824396 0.05407495 0.00985426
v -0.00794576 0.05422465 0.01000512
v -0.00819013 0.05427346 0.00981654
v -0.00836076 0.05431251 0.00968061
v -0.00851363 0.05401637 0.00968218
v -0.00837045 0.05387969 0.00983697
v -0.00860621 0.05411075 0.00957925
v -0.00853947 0.05391549 0.00970104
v -0.00868157 0.05405217 0.00954546
v -0.00899269 0.05318652 0.00955489
v -0.00883444 0.05316049 0.00969790
v -0.00886351 0.05352172 0.00957297
v -0.00888773 0.05337202 0.00959418
v -0.00867188 0.05310842 0.00983776
v -0.00869933 0.05397407 0.00955961
v -0.00880645 0.05382437 0.00952268
v -0.00882475 0.05373325 0.00953918
v -0.00877415 0.05397407 0.00949596
v -0.00891249 0.05369094 0.00947553
v -0.00915309 0.05367467 0.00926496
v -0.00918162 0.05352172 0.00929010
v -0.00902283 0.05352172 0.00943232
v -0.00893832 0.05352172 0.00950696
v -0.00860568 0.05292292 0.00992104
v -0.00859653 0.05278299 0.00995090
v -0.00854001 0.05274068 0.01000197
v -0.00796891 0.05112329 0.01061956
v -0.00896470 0.04557144 0.01058342
v -0.00898946 0.04526879 0.01060149
v -0.00958963 0.03162022 0.01180130
v -0.00883821 0.04869558 0.01030055
v -0.00880268 0.05037155 0.01012376
v -0.00887535 0.05067094 0.01003026
v -0.00917839 0.04992245 0.00988254
v -0.00901853 0.04857191 0.01017484
v -0.00943407 0.04611491 0.01014733
v -0.00951750 0.04766396 0.00989119
v -0.00957509 0.04770627 0.00984011
v -0.00961223 0.04722138 0.00986997
v -0.00957725 0.05012096 0.00954154
v -0.00814169 0.04946034 0.01069892
v -0.00808679 0.05063189 0.01059913
v -0.00822351 0.04992245 0.01059049
v -0.00829563 0.04978577 0.01055591
v -0.00832416 0.04962306 0.01055513
v -0.00844097 0.04900799 0.01054570
v -0.00867834 0.04593267 0.01074371
v -0.00879622 0.04542174 0.01072092
v -0.00893456 0.04467000 0.01071228
v -0.00967952 0.05097359 0.00935296
v -0.00966768 0.05112329 0.00934353
v -0.00974734 0.05127299 0.00925789
v -0.00983454 0.05112329 0.00920367
v -0.00984530 0.05097359 0.00921310
v -0.00986683 0.05067094 0.00923196
v -0.00996964 0.05142269 0.00903867
v -0.00982216 0.05127299 0.00919346
v -0.00988513 0.05152032 0.00909838
v -0.01003854 0.05157239 0.00895145
v -0.01003154 0.05165049 0.00894438
v -0.01009129 0.05187178 0.00885009
v -0.01007730 0.05202148 0.00883673
v -0.01015212 0.05202148 0.00876680
v -0.01020164 0.05232413 0.00866466
v -0.00978340 0.05262353 0.00899152
v -0.00968329 0.05277323 0.00905124
v -0.00976564 0.05277323 0.00897581
v -0.01004715 0.05232413 0.00880923
v -0.00988191 0.05240223 0.00894517
v -0.00984046 0.05277323 0.00890667
v -0.00992120 0.05277323 0.00883202
v -0.00974519 0.05292292 0.00895774
v -0.00990074 0.05292292 0.00881238
v -0.00997556 0.05292292 0.00874166
v -0.01006222 0.05217118 0.00882338
v -0.00988675 0.05301405 0.00879980
v -0.00987006 0.05311493 0.00878409
v -0.00992766 0.05322232 0.00869059
v -0.00986737 0.05356077 0.00863009
v -0.00991905 0.05367467 0.00853344
v -0.01002670 0.05388620 0.00833937
v -0.00997987 0.05412376 0.00829301
v -0.01003693 0.05421163 0.00819951
v -0.00982485 0.05337202 0.00873930
v -0.00971666 0.05355751 0.00878016
v -0.01001647 0.05431251 0.00817908
v -0.01006545 0.05442316 0.00808007
v -0.01004392 0.05452730 0.00805729
v -0.00987329 0.05463144 0.00818615
v -0.00977264 0.05481042 0.00820108
v -0.00991635 0.05481042 0.00805100
v -0.00803027 0.05127299 0.01056142
v -0.00830586 0.05247383 0.01021177
v -0.00822082 0.05235017 0.01028798
v -0.00834246 0.05187178 0.01026755
v -0.00839629 0.05127299 0.01030605
v -0.00830586 0.05127299 0.01037048
v -0.00818906 0.05157239 0.01041527
v -0.00811424 0.05157239 0.01046791
v -0.00855185 0.05262353 0.01001062
v -0.00856584 0.05247383 0.01002162
v -0.00847972 0.05232413 0.01010726
v -0.00841890 0.05217118 0.01017326
v -0.00852924 0.05179043 0.01014419
v -0.00854916 0.05157239 0.01015834
v -0.00763195 0.05480066 0.00999569
v -0.00823373 0.05450452 0.00969711
v -0.00806203 0.05446547 0.00983147
v -0.00791831 0.05432553 0.00998547
v -0.00778966 0.05451428 0.01000119
v -0.00759104 0.05481042 0.01001926
v -0.00825580 0.05442316 0.00971283
v -0.00809002 0.05436458 0.00985111
v -0.00833062 0.05442316 0.00965940
v -0.00853032 0.05434831 0.00954389
v -0.00855669 0.05424743 0.00956354
v -0.00865681 0.05414980 0.00952661
v -0.00867134 0.05448174 0.00938753
v -0.00869664 0.05438085 0.00940718
v -0.00881076 0.05460866 0.00922803
v -0.00883444 0.05450777 0.00924767
v -0.00933234 0.05307262 0.00928853
v -0.00924567 0.05307262 0.00936396
v -0.00913479 0.05331019 0.00939775
v -0.00922361 0.05322232 0.00934432
v -0.00884413 0.05307262 0.00970575
v -0.00942223 0.05296523 0.00923667
v -0.00943514 0.05286435 0.00924767
v -0.00909980 0.05292292 0.00951875
v -0.00902499 0.05292292 0.00958161
v -0.00896308 0.05337202 0.00952896
v -0.00868265 0.05300754 0.00984640
v -0.00881937 0.05417258 0.00938439
v -0.00885974 0.05397407 0.00942053
v -0.00888988 0.05382437 0.00944803
v -0.00896524 0.05382437 0.00938046
v -0.00909335 0.05397407 0.00921074
v -0.00920369 0.05381786 0.00916753
v -0.00922845 0.05367467 0.00919660
v -0.00925644 0.05352172 0.00922253
v -0.00944699 0.05334273 0.00910860
v -0.00929143 0.05332646 0.00925396
v -0.00920423 0.05336876 0.00931839
v -0.00869126 0.05292292 0.00985347
v -0.00872140 0.05262353 0.00987783
v -0.00862667 0.05262353 0.00995247
v -0.00805718 0.05097359 0.01057870
v -0.00878115 0.04812282 0.01040977
v -0.00881129 0.04902101 0.01028091
v -0.00869072 0.05082064 0.01015205
v -0.00886351 0.05082064 0.01002083
v -0.00868319 0.05091176 0.01014655
v -0.00874240 0.05096708 0.01009469
v -0.00875585 0.05112329 0.01006483
v -0.00930165 0.05052125 0.00971125
v -0.00919131 0.05097359 0.00974268
v -0.00926505 0.04977275 0.00983226
v -0.00938832 0.05037155 0.00966097
v -0.00955625 0.04917071 0.00967511
v -0.00953472 0.05067094 0.00950775
v -0.00815622 0.05097359 0.01051191
v -0.00818475 0.05037155 0.01056377
v -0.00816807 0.05111678 0.01048677
v -0.00823373 0.05106471 0.01044748
v -0.00844258 0.04947336 0.01048913
v -0.00850502 0.04962306 0.01042706
v -0.00876877 0.04752403 0.01048991
v -0.00960470 0.05097359 0.00941346
v -0.00959286 0.05112329 0.00940403
v -0.00958478 0.05121767 0.00939775
v -0.00964345 0.05126974 0.00934275
v -0.00973711 0.05138038 0.00925003
v -0.00979040 0.05172208 0.00914631
v -0.00985069 0.05187178 0.00906774
v -0.00996588 0.05170907 0.00899388
v -0.01001001 0.05187178 0.00892552
v -0.00969943 0.05262353 0.00906695
v -0.00960793 0.05277323 0.00911803
v -0.00959340 0.05289038 0.00910545
v -0.00988998 0.05232413 0.00895224
v -0.00957886 0.05299127 0.00909288
v -0.00973334 0.05300428 0.00894674
v -0.00971827 0.05310517 0.00893181
v -0.00962354 0.05322232 0.00898445
v -0.00969836 0.05322232 0.00891295
v -0.00977641 0.05322232 0.00883831
v -0.00977048 0.05367467 0.00868352
v -0.00984584 0.05367467 0.00860809
v -0.00995134 0.05426370 0.00826472
v -0.00981247 0.05384064 0.00857587
v -0.00986037 0.05397407 0.00847373
v -0.00956379 0.05355101 0.00892788
v -0.00954064 0.05367467 0.00890588
v -0.00969405 0.05367467 0.00875895
v -0.00964937 0.05350545 0.00886266
v -0.00991851 0.05442316 0.00823172
v -0.00999333 0.05442316 0.00815551
v -0.00989536 0.05453055 0.00820894
v -0.00980924 0.05458262 0.00827258
v -0.00972366 0.05463144 0.00833701
v -0.00970212 0.05472256 0.00831501
v -0.00960577 0.05481042 0.00836922
v -0.00812770 0.05142269 0.01047734
v -0.00865143 0.05127299 0.01012376
v -0.00847111 0.05127299 0.01025262
v -0.00848457 0.05112329 0.01026205
v -0.00849748 0.05097359 0.01027148
v -0.00822512 0.05116560 0.01044120
v -0.00864120 0.05247383 0.00996347
v -0.00865466 0.05232413 0.00997447
v -0.00866865 0.05217118 0.00998547
v -0.00867727 0.05208006 0.00999176
v -0.00869611 0.05187178 0.01000669
v -0.00859545 0.05173510 0.01010255
v -0.00863797 0.05142269 0.01011355
v -0.00820413 0.05460540 0.00967590
v -0.00762011 0.05481042 0.00999962
v -0.00762926 0.05481042 0.00999333
v -0.00788171 0.05481042 0.00981654
v -0.00830425 0.05457286 0.00961854
v -0.00854431 0.05467374 0.00940482
v -0.00843451 0.05442316 0.00958397
v -0.00868803 0.05481042 0.00924453
v -0.00878169 0.05472256 0.00920446
v -0.00884897 0.05481042 0.00911095
v -0.00886889 0.05472256 0.00912903
v -0.00890118 0.05456310 0.00916517
v -0.00898946 0.05451754 0.00910231
v -0.00892702 0.05442316 0.00919581
v -0.00885166 0.05442316 0.00926339
v -0.00940715 0.05307262 0.00922331
v -0.00938401 0.05322232 0.00920289
v -0.00930919 0.05322232 0.00926889
v -0.00949220 0.05307262 0.00914867
v -0.00913587 0.05257146 0.00954861
v -0.00916063 0.05232413 0.00956904
v -0.00894909 0.05277323 0.00966882
v -0.00887427 0.05277323 0.00973011
v -0.00876662 0.05292292 0.00979297
v -0.00952019 0.05277323 0.00919267
v -0.00944483 0.05277323 0.00925632
v -0.00927528 0.05282204 0.00938989
v -0.00929573 0.05262353 0.00940718
v -0.00940177 0.05232413 0.00937025
v -0.00919400 0.05262353 0.00949203
v -0.00897547 0.05418560 0.00923981
v -0.00913102 0.05419861 0.00909445
v -0.00929089 0.05377230 0.00910388
v -0.00931027 0.05367467 0.00912117
v -0.00941361 0.05352172 0.00907874
v -0.00950027 0.05338504 0.00904495
v -0.00954334 0.05322232 0.00905910
v -0.00946798 0.05322232 0.00912746
v -0.00899323 0.05232413 0.00970497
v -0.00930865 0.05157239 0.00956668
v -0.00882260 0.05235342 0.00983776
v -0.00873594 0.05247383 0.00988883
v -0.00866058 0.04992245 0.01028091
v -0.00883875 0.05112329 0.01000119
v -0.00892648 0.05097359 0.00995169
v -0.00902122 0.05097359 0.00987704
v -0.00867457 0.05101265 0.01014026
v -0.00866489 0.05112329 0.01013319
v -0.00873701 0.05142269 0.01003812
v -0.00944806 0.05082064 0.00955804
v -0.00943837 0.05094430 0.00955018
v -0.00942384 0.05112329 0.00953918
v -0.00952288 0.05082064 0.00949832
v -0.00941146 0.05127299 0.00952896
v -0.00951804 0.05126974 0.00944411
v -0.00956594 0.05142269 0.00938203
v -0.00943676 0.05197592 0.00939932
v -0.00949435 0.05202474 0.00934353
v -0.00971827 0.05157239 0.00923353
v -0.00947605 0.05157239 0.00943153
v -0.00968813 0.05187178 0.00920839
v -0.00972527 0.05236969 0.00908974
v -0.00971504 0.05247383 0.00908031
v -0.00982054 0.05217118 0.00904103
v -0.00962461 0.05262353 0.00913138
v -0.00956702 0.05307262 0.00908188
v -0.00966337 0.05306286 0.00899545
v -0.00974788 0.05378857 0.00866073
v -0.00971612 0.05431251 0.00847923
v -0.00971020 0.05397407 0.00862380
v -0.00967952 0.05412376 0.00859316
v -0.00938509 0.05367467 0.00905203
v -0.00944429 0.05378206 0.00895695
v -0.00940554 0.05397407 0.00892002
v -0.00955841 0.05397407 0.00877230
v -0.00961815 0.05442316 0.00853108
v -0.00974572 0.05453055 0.00835901
v -0.00965960 0.05458262 0.00842265
v -0.00942276 0.05463144 0.00863637
v -0.00932372 0.05481042 0.00865130
v -0.00945614 0.05481042 0.00851930
v -0.00883175 0.05225254 0.00984561
v -0.00875585 0.05217118 0.00991712
v -0.00874401 0.05202799 0.00994697
v -0.00878492 0.05172208 0.00995876
v -0.00882260 0.05130228 0.00998862
v -0.00804965 0.05481042 0.00969868
v -0.00824881 0.05481042 0.00955804
v -0.00843235 0.05481042 0.00942760
v -0.00847757 0.05481042 0.00939539
v -0.00868157 0.05481042 0.00924924
v -0.00876393 0.05481042 0.00918167
v -0.00886135 0.05481042 0.00909917
v -0.00912080 0.05462493 0.00893417
v -0.00896793 0.05461842 0.00908188
v -0.00900938 0.05442316 0.00912038
v -0.00905513 0.05457286 0.00901902
v -0.00916386 0.05442316 0.00897581
v -0.00953526 0.05262353 0.00920681
v -0.00947605 0.05247383 0.00928224
v -0.00957671 0.05222650 0.00924060
v -0.00926290 0.05430601 0.00892709
v -0.00930004 0.05412376 0.00896245
v -0.00935763 0.05382762 0.00902138
v -0.00925106 0.05397407 0.00906617
v -0.00939747 0.05142269 0.00951796
v -0.00932265 0.05142269 0.00957768
v -0.00883175 0.05120139 0.00999569
v -0.00899592 0.05127299 0.00985661
v -0.00907074 0.05127299 0.00979768
v -0.00908366 0.05112329 0.00980790
v -0.00963969 0.05247383 0.00914474
v -0.00956541 0.05431251 0.00862930
v -0.00952773 0.05412376 0.00874245
v -0.00958640 0.05421163 0.00864973
v -0.00944483 0.05453055 0.00865759
v -0.00935817 0.05457937 0.00872202
v -0.00927205 0.05462818 0.00878566
v -0.00915417 0.05481042 0.00881709
v -0.00913910 0.05157239 0.00970104
v -0.00900184 0.05481042 0.00896402
v -0.00909765 0.05472256 0.00891216
v -0.00920746 0.05457611 0.00887052
v -0.00914233 0.05452404 0.00895538
v -0.00923868 0.05442316 0.00890352
v -0.00950027 0.05426045 0.00871416
v -0.00939047 0.05442316 0.00875502
v -0.00929358 0.05452730 0.00880688
f 1 2 3
f 1 3 11
f 1 11 29
f 1 29 28
f 1 28 65
f 1 65 64
f 1 64 62
f 1 62 85
f 1 85 84
f 1 84 56
f 1 56 55
f 1 55 83
f 1 83 108
f 1 108 135
f 1 135 174
f 1 174 173
f 1 173 288
f 1 288 416
f 1 416 553
f 1 553 551
f 1 551 677
f 1 677 679
f 1 679 799
f 1 799 801
f 1 801 680
f 1 680 555
f 1 555 419
f 1 419 294
f 1 294 180
f 1 180 142
f 1 142 114
f 1 114 90
f 1 90 66
f 1 66 30
f 1 30 12
f 1 12 4
f 1 4 5
f 1 5 6
f 1 6 7
f 1 7 8
f 1 8 2
f 2 9 10
f 2 10 3
f 2 8 9
f 3 10 11
f 4 12 13
f 4 13 14
f 4 14 15
f 4 15 16
f 4 16 5
f 5 16 17
f 5 17 6
f 6 17 8
f 6 8 7
f 8 17 40
f 8 40 39
f 8 39 38
f 8 38 37
f 8 37 36
f 8 36 35
f 8 35 34
f 8 34 33
f 8 33 32
f 8 32 30
f 8 30 66
f 8 66 91
f 8 91 119
f 8 119 152
f 8 152 245
f 8 245 350
f 8 350 488
f 8 488 492
f 8 492 491
f 8 491 490
f 8 490 611
f 8 611 610
f 8 610 609
f 8 609 608
f 8 608 607
f 8 607 606
f 8 606 619
f 8 619 497
f 8 497 496
f 8 496 495
f 8 495 493
f 8 493 355
f 8 355 354
f 8 354 352
f 8 352 249
f 8 249 153
f 8 153 120
f 8 120 92
f 8 92 69
f 8 69 67
f 8 67 41
f 8 41 18
f 8 18 19
f 8 19 20
f 8 20 21
f 8 21 22
f 8 22 23
f 8 23 24
f 8 24 25
f 8 25 26
f 8 26 27
f 8 27 28
f 8 28 10
f 8 10 9
f 10 28 29
f 10 29 11
f 12 30 13
f 13 31 14
f 13 30 32
f 13 32 33
f 13 33 34
f 13 34 35
f 13 35 36
f 13 36 37
f 13 37 38
f 13 38 39
f 13 39 40
f 13 40 17
f 13 17 31
f 14 31 17
f 14 17 15
f 15 17 16
f 18 41 19
f 19 41 42
f 19 42 43
f 19 43 20
f 20 43 44
f 20 44 21
f 21 45 22
f 21 44 46
f 21 46 45
f 22 45 47
f 22 47 48
f 22 48 49
f 22 49 50
f 22 50 23
f 23 51 52
f 23 52 53
f 23 53 54
f 23 54 55
f 23 55 56
f 23 56 57
f 23 57 58
f 23 58 24
f 23 50 49
f 23 49 59
f 23 59 60
f 23 60 51
f 24 58 61
f 24 61 25
f 25 61 62
f 25 62 63
f 25 63 26
f 26 63 64
f 26 64 65
f 26 65 28
f 26 28 27
f 41 67 68
f 41 68 42
f 42 68 69
f 42 69 70
f 42 70 71
f 42 71 72
f 42 72 73
f 42 73 43
f 43 73 46
f 43 46 44
f 45 74 75
f 45 75 47
f 45 46 74
f 46 76 74
f 46 73 76
f 47 75 48
f 48 75 60
f 48 60 77
f 48 77 59
f 48 59 78
f 48 78 49
f 49 78 59
f 51 79 80
f 51 80 52
f 51 60 81
f 51 81 79
f 52 54 53
f 52 80 54
f 54 82 83
f 54 83 55
f 54 80 82
f 56 84 57
f 57 84 85
f 57 85 58
f 58 85 61
f 59 77 60
f 60 75 86
f 60 86 87
f 60 87 88
f 60 88 89
f 60 89 81
f 61 85 62
f 62 64 63
f 66 90 91
f 67 69 68
f 69 92 93
f 69 93 94
f 69 94 70
f 70 94 71
f 71 94 95
f 71 95 96
f 71 96 72
f 72 97 73
f 72 96 98
f 72 98 99
f 72 99 97
f 73 100 76
f 73 97 100
f 74 76 88
f 74 88 87
f 74 87 75
f 75 87 86
f 76 101 88
f 76 100 101
f 79 81 80
f 80 81 89
f 80 89 102
f 80 102 103
f 80 103 104
f 80 104 105
f 80 105 106
f 80 106 82
f 82 106 107
f 82 107 83
f 83 107 108
f 88 101 109
f 88 109 110
f 88 110 111
f 88 111 112
f 88 112 113
f 88 113 104
f 88 104 103
f 88 103 89
f 89 103 102
f 90 114 115
f 90 115 116
f 90 116 91
f 91 116 117
f 91 117 118
f 91 118 119
f 92 95 94
f 92 94 93
f 92 120 95
f 95 120 121
f 95 121 122
f 95 122 96
f 96 123 98
f 96 122 124
f 96 124 123
f 97 125 100
f 97 99 125
f 98 123 126
f 98 126 99
f 99 127 125
f 99 126 127
f 100 128 129
f 100 129 101
f 100 125 128
f 101 130 109
f 101 129 130
f 104 131 132
f 104 132 107
f 104 107 105
f 104 113 131
f 105 107 106
f 107 132 133
f 107 133 134
f 107 134 108
f 108 134 135
f 109 130 136
f 109 136 110
f 110 136 137
f 110 137 111
f 111 137 138
f 111 138 112
f 112 138 139
f 112 139 140
f 112 140 141
f 112 141 113
f 113 141 132
f 113 132 131
f 114 142 143
f 114 143 144
f 114 144 115
f 115 144 233
f 115 233 342
f 115 342 475
f 115 475 604
f 115 604 617
f 115 617 489
f 115 489 351
f 115 351 248
f 115 248 247
f 115 247 246
f 115 246 244
f 115 244 145
f 115 145 146
f 115 146 147
f 115 147 148
f 115 148 149
f 115 149 150
f 115 150 151
f 115 151 118
f 115 118 117
f 115 117 116
f 118 151 119
f 119 151 150
f 119 150 149
f 119 149 148
f 119 148 152
f 120 153 121
f 121 153 154
f 121 154 122
f 122 155 123
f 122 123 124
f 122 154 156
f 122 156 155
f 123 155 157
f 123 157 126
f 125 158 128
f 125 127 159
f 125 159 160
f 125 160 158
f 126 157 161
f 126 161 162
f 126 162 163
f 126 163 164
f 126 164 165
f 126 165 127
f 127 165 159
f 128 158 166
f 128 166 129
f 129 167 130
f 129 166 167
f 130 167 168
f 130 168 169
f 130 169 137
f 130 137 136
f 132 141 170
f 132 170 171
f 132 171 172
f 132 172 173
f 132 173 133
f 133 173 174
f 133 174 134
f 134 174 135
f 137 175 139
f 137 139 138
f 137 169 175
f 139 175 176
f 139 176 177
f 139 177 178
f 139 178 179
f 139 179 140
f 140 179 141
f 141 179 170
f 142 180 143
f 143 180 181
f 143 181 182
f 143 182 144
f 144 183 184
f 144 184 185
f 144 185 186
f 144 186 187
f 144 187 188
f 144 188 189
f 144 189 190
f 144 190 191
f 144 191 192
f 144 192 193
f 144 193 194
f 144 194 195
f 144 195 196
f 144 196 197
f 144 197 198
f 144 198 199
f 144 199 200
f 144 200 201
f 144 201 202
f 144 202 203
f 144 203 204
f 144 204 205
f 144 205 206
f 144 206 207
f 144 207 208
f 144 208 209
f 144 209 210
f 144 210 211
f 144 211 212
f 144 212 213
f 144 213 214
f 144 214 215
f 144 215 216
f 144 216 217
f 144 217 218
f 144 218 219
f 144 219 220
f 144 220 221
f 144 221 222
f 144 222 223
f 144 223 224
f 144 224 225
f 144 225 226
f 144 226 227
f 144 227 228
f 144 228 229
f 144 229 230
f 144 230 231
f 144 231 232
f 144 232 233
f 144 182 234
f 144 234 235
f 144 235 236
f 144 236 237
f 144 237 238
f 144 238 239
f 144 239 240
f 144 240 241
f 144 241 242
f 144 242 243
f 144 243 183
f 145 244 146
f 146 244 152
f 146 152 147
f 147 152 148
f 152 244 246
f 152 246 247
f 152 247 248
f 152 248 245
f 153 249 250
f 153 250 154
f 154 250 251
f 154 251 252
f 154 252 253
f 154 253 156
f 155 156 162
f 155 162 161
f 155 161 157
f 156 163 162
f 156 253 254
f 156 254 255
f 156 255 163
f 158 160 166
f 159 165 164
f 159 164 256
f 159 256 160
f 160 256 257
f 160 257 258
f 160 258 259
f 160 259 166
f 163 255 260
f 163 260 164
f 164 261 262
f 164 262 263
f 164 263 257
f 164 257 256
f 164 260 264
f 164 264 265
f 164 265 266
f 164 266 267
f 164 267 268
f 164 268 269
f 164 269 270
f 164 270 271
f 164 271 261
f 166 259 167
f 167 259 272
f 167 272 168
f 168 272 273
f 168 273 274
f 168 274 169
f 169 274 275
f 169 275 276
f 169 276 277
f 169 277 278
f 169 278 279
f 169 279 175
f 170 179 171
f 171 280 281
f 171 281 282
f 171 282 283
f 171 283 173
f 171 173 172
f 171 179 284
f 171 284 285
f 171 285 286
f 171 286 280
f 173 283 287
f 173 287 288
f 175 279 278
f 175 278 176
f 176 278 177
f 177 278 289
f 177 289 290
f 177 290 291
f 177 291 292
f 177 292 293
f 177 293 285
f 177 285 178
f 178 285 179
f 179 285 284
f 180 294 295
f 180 295 181
f 181 296 182
f 181 295 297
f 181 297 296
f 182 296 298
f 182 298 234
f 183 299 184
f 183 243 299
f 184 299 185
f 185 299 186
f 186 300 187
f 186 299 300
f 187 300 301
f 187 301 302
f 187 302 303
f 187 303 188
f 188 303 189
f 189 303 190
f 190 303 302
f 190 302 304
f 190 304 191
f 191 304 192
f 192 304 305
f 192 305 306
f 192 306 193
f 193 306 194
f 194 306 195
f 195 307 196
f 195 306 307
f 196 307 308
f 196 308 309
f 196 309 310
f 196 310 197
f 197 310 198
f 198 310 199
f 199 310 309
f 199 309 200
f 200 309 311
f 200 311 312
f 200 312 313
f 200 313 201
f 201 313 202
f 202 313 203
f 203 312 314
f 203 314 204
f 203 313 312
f 204 314 205
f 205 314 315
f 205 315 206
f 206 315 316
f 206 316 207
f 207 316 317
f 207 317 208
f 208 318 209
f 208 317 318
f 209 318 210
f 210 318 319
f 210 319 211
f 211 319 320
f 211 320 321
f 211 321 322
f 211 322 212
f 212 322 213
f 213 323 214
f 213 322 323
f 214 324 215
f 214 323 324
f 215 324 325
f 215 325 216
f 216 326 327
f 216 327 217
f 216 325 326
f 217 327 218
f 218 328 219
f 218 327 328
f 219 328 220
f 220 328 329
f 220 329 330
f 220 330 221
f 221 330 331
f 221 331 332
f 221 332 222
f 222 333 223
f 222 332 333
f 223 333 334
f 223 334 224
f 224 334 335
f 224 335 225
f 225 335 336
f 225 336 337
f 225 337 226
f 226 338 227
f 226 337 338
f 227 339 340
f 227 340 228
f 227 338 339
f 228 340 229
f 229 340 341
f 229 341 230
f 230 341 231
f 231 341 232
f 232 342 233
f 232 341 342
f 234 298 235
f 235 298 343
f 235 343 344
f 235 344 236
f 236 344 237
f 237 344 345
f 237 345 346
f 237 346 238
f 238 346 239
f 239 346 240
f 240 346 347
f 240 347 241
f 241 347 348
f 241 348 242
f 242 348 243
f 243 348 349
f 243 349 299
f 245 248 351
f 245 351 350
f 249 251 250
f 249 352 251
f 251 353 252
f 251 352 354
f 251 354 355
f 251 355 356
f 251 356 357
f 251 357 358
f 251 358 353
f 252 353 359
f 252 359 360
f 252 360 361
f 252 361 362
f 252 362 254
f 252 254 253
f 254 362 363
f 254 363 364
f 254 364 365
f 254 365 255
f 255 366 264
f 255 264 260
f 255 365 367
f 255 367 368
f 255 368 366
f 257 263 369
f 257 369 258
f 258 369 370
f 258 370 371
f 258 371 372
f 258 372 373
f 258 373 259
f 259 373 272
f 261 374 262
f 261 271 375
f 261 375 374
f 262 376 377
f 262 377 378
f 262 378 369
f 262 369 263
f 262 374 379
f 262 379 376
f 264 380 381
f 264 381 265
f 264 366 368
f 264 368 382
f 264 382 383
f 264 383 380
f 265 381 384
f 265 384 266
f 266 268 267
f 266 384 385
f 266 385 268
f 268 385 386
f 268 386 387
f 268 387 269
f 269 387 388
f 269 388 389
f 269 389 390
f 269 390 270
f 270 390 391
f 270 391 392
f 270 392 393
f 270 393 394
f 270 394 395
f 270 395 271
f 271 395 375
f 272 373 396
f 272 396 397
f 272 397 273
f 273 397 398
f 273 398 399
f 273 399 274
f 274 399 400
f 274 400 275
f 275 401 276
f 275 400 401
f 276 402 277
f 276 401 403
f 276 403 404
f 276 404 402
f 277 402 405
f 277 405 406
f 277 406 407
f 277 407 278
f 278 407 408
f 278 408 409
f 278 409 410
f 278 410 289
f 280 411 282
f 280 282 281
f 280 286 285
f 280 285 412
f 280 412 411
f 282 413 283
f 282 411 414
f 282 414 413
f 283 413 415
f 283 415 287
f 285 293 412
f 287 415 288
f 288 415 416
f 289 410 409
f 289 409 417
f 289 417 418
f 289 418 413
f 289 413 290
f 290 413 414
f 290 414 292
f 290 292 291
f 292 414 411
f 292 411 412
f 292 412 293
f 294 419 420
f 294 420 295
f 295 420 421
f 295 421 422
f 295 422 423
f 295 423 297
f 296 297 298
f 297 424 298
f 297 423 425
f 297 425 426
f 297 426 424
f 298 424 476
f 298 476 343
f 299 349 427
f 299 427 428
f 299 428 300
f 300 428 301
f 301 429 430
f 301 430 302
f 301 428 429
f 302 430 431
f 302 431 304
f 304 431 432
f 304 432 433
f 304 433 305
f 305 433 434
f 305 434 308
f 305 308 307
f 305 307 306
f 308 434 435
f 308 435 436
f 308 436 309
f 309 436 437
f 309 437 438
f 309 438 311
f 311 438 439
f 311 439 312
f 312 439 440
f 312 440 441
f 312 441 314
f 314 441 315
f 315 442 443
f 315 443 317
f 315 317 316
f 315 441 444
f 315 444 442
f 317 443 320
f 317 320 318
f 318 320 319
f 320 443 445
f 320 445 446
f 320 446 447
f 320 447 321
f 321 447 448
f 321 448 449
f 321 449 322
f 322 450 323
f 322 449 450
f 323 451 324
f 323 450 452
f 323 452 451
f 324 451 453
f 324 453 454
f 324 454 325
f 325 454 326
f 326 454 455
f 326 455 456
f 326 456 457
f 326 457 458
f 326 458 327
f 327 458 328
f 328 458 459
f 328 459 460
f 328 460 329
f 329 460 330
f 330 460 461
f 330 461 462
f 330 462 331
f 331 462 463
f 331 463 464
f 331 464 465
f 331 465 333
f 331 333 332
f 333 465 334
f 334 465 464
f 334 464 466
f 334 466 335
f 335 466 336
f 336 466 467
f 336 467 468
f 336 468 338
f 336 338 337
f 338 468 467
f 338 467 339
f 339 469 470
f 339 470 340
f 339 467 469
f 340 470 341
f 341 471 472
f 341 472 473
f 341 473 342
f 341 470 471
f 342 473 474
f 342 474 472
f 342 472 603
f 342 603 739
f 342 739 738
f 342 738 735
f 342 735 846
f 342 846 972
f 342 972 1085
f 342 1085 1084
f 342 1084 1196
f 342 1196 1290
f 342 1290 1289
f 342 1289 1328
f 342 1328 1330
f 342 1330 1302
f 342 1302 1219
f 342 1219 1301
f 342 1301 1217
f 342 1217 1300
f 342 1300 1299
f 342 1299 1298
f 342 1298 1297
f 342 1297 1296
f 342 1296 1213
f 342 1213 1212
f 342 1212 1211
f 342 1211 1105
f 342 1105 992
f 342 992 991
f 342 991 988
f 342 988 874
f 342 874 772
f 342 772 875
f 342 875 872
f 342 872 871
f 342 871 987
f 342 987 869
f 342 869 766
f 342 766 765
f 342 765 764
f 342 764 850
f 342 850 743
f 342 743 618
f 342 618 497
f 342 497 619
f 342 619 605
f 342 605 475
f 343 476 477
f 343 477 344
f 344 477 345
f 345 478 612
f 345 612 479
f 345 479 346
f 345 477 478
f 346 479 347
f 347 479 480
f 347 480 348
f 348 480 481
f 348 481 482
f 348 482 483
f 348 483 484
f 348 484 349
f 349 484 485
f 349 485 486
f 349 486 487
f 349 487 427
f 350 351 488
f 351 489 490
f 351 490 491
f 351 491 492
f 351 492 488
f 353 358 360
f 353 360 359
f 355 493 356
f 356 493 494
f 356 494 495
f 356 495 496
f 356 496 497
f 356 497 498
f 356 498 499
f 356 499 500
f 356 500 501
f 356 501 357
f 357 501 502
f 357 502 503
f 357 503 504
f 357 504 360
f 357 360 358
f 360 504 505
f 360 505 365
f 360 365 364
f 360 364 363
f 360 363 361
f 361 363 362
f 365 368 367
f 365 505 368
f 368 505 506
f 368 506 382
f 369 378 370
f 370 378 507
f 370 507 508
f 370 508 372
f 370 372 371
f 372 508 509
f 372 509 510
f 372 510 400
f 372 400 398
f 372 398 373
f 373 398 396
f 374 375 511
f 374 511 379
f 375 395 512
f 375 512 511
f 376 379 513
f 376 513 514
f 376 514 515
f 376 515 516
f 376 516 377
f 377 516 517
f 377 517 507
f 377 507 378
f 379 511 518
f 379 518 513
f 380 519 381
f 380 383 519
f 381 519 520
f 381 520 521
f 381 521 522
f 381 522 384
f 382 506 383
f 383 523 524
f 383 524 519
f 383 506 525
f 383 525 526
f 383 526 523
f 384 522 527
f 384 527 385
f 385 527 528
f 385 528 529
f 385 529 530
f 385 530 531
f 385 531 386
f 386 531 388
f 386 388 387
f 388 531 532
f 388 532 533
f 388 533 534
f 388 534 535
f 388 535 389
f 389 535 391
f 389 391 390
f 391 535 536
f 391 536 393
f 391 393 392
f 393 536 395
f 393 395 394
f 395 536 537
f 395 537 538
f 395 538 539
f 395 539 512
f 396 398 397
f 398 400 399
f 400 510 540
f 400 540 541
f 400 541 401
f 401 541 403
f 402 404 405
f 403 541 542
f 403 542 543
f 403 543 404
f 404 543 544
f 404 544 405
f 405 544 406
f 406 544 545
f 406 545 546
f 406 546 408
f 406 408 407
f 408 546 545
f 408 545 547
f 408 547 409
f 409 547 548
f 409 548 549
f 409 549 417
f 413 418 417
f 413 417 550
f 413 550 551
f 413 551 552
f 413 552 416
f 413 416 415
f 416 552 553
f 417 549 554
f 417 554 550
f 419 555 420
f 420 555 556
f 420 556 421
f 421 556 557
f 421 557 558
f 421 558 422
f 422 558 559
f 422 559 560
f 422 560 561
f 422 561 562
f 422 562 425
f 422 425 423
f 424 426 481
f 424 481 476
f 425 562 426
f 426 562 481
f 427 487 563
f 427 563 428
f 428 564 429
f 428 563 565
f 428 565 564
f 429 564 566
f 429 566 430
f 430 566 567
f 430 567 432
f 430 432 431
f 432 567 433
f 433 567 568
f 433 568 434
f 434 568 569
f 434 569 435
f 435 569 436
f 436 569 570
f 436 570 571
f 436 571 437
f 437 571 572
f 437 572 440
f 437 440 439
f 437 439 438
f 440 572 444
f 440 444 441
f 442 573 443
f 442 444 573
f 443 574 575
f 443 575 576
f 443 576 445
f 443 573 574
f 444 572 573
f 445 576 577
f 445 577 446
f 446 577 448
f 446 448 447
f 448 577 578
f 448 578 579
f 448 579 450
f 448 450 449
f 450 579 452
f 451 452 580
f 451 580 581
f 451 581 582
f 451 582 453
f 452 579 578
f 452 578 580
f 453 582 454
f 454 582 583
f 454 583 584
f 454 584 585
f 454 585 455
f 455 586 587
f 455 587 457
f 455 457 456
f 455 585 586
f 457 587 588
f 457 588 459
f 457 459 458
f 459 588 589
f 459 589 590
f 459 590 460
f 460 590 461
f 461 591 592
f 461 592 593
f 461 593 594
f 461 594 462
f 461 590 589
f 461 589 591
f 462 594 463
f 463 594 595
f 463 595 464
f 464 595 596
f 464 596 597
f 464 597 467
f 464 467 466
f 467 597 598
f 467 598 599
f 467 599 469
f 469 599 598
f 469 598 471
f 469 471 470
f 471 600 601
f 471 601 602
f 471 602 472
f 471 598 600
f 472 474 473
f 472 602 603
f 475 605 606
f 475 606 607
f 475 607 608
f 475 608 609
f 475 609 610
f 475 610 611
f 475 611 604
f 476 478 477
f 476 481 478
f 478 481 612
f 479 612 481
f 479 481 480
f 481 562 613
f 481 613 482
f 482 613 614
f 482 614 483
f 483 614 484
f 484 614 615
f 484 615 616
f 484 616 485
f 485 616 486
f 486 616 487
f 487 616 563
f 489 617 490
f 490 617 604
f 490 604 611
f 493 495 494
f 497 618 499
f 497 499 498
f 499 618 620
f 499 620 621
f 499 621 502
f 499 502 500
f 500 502 501
f 502 621 622
f 502 622 503
f 503 622 505
f 503 505 504
f 505 622 623
f 505 623 506
f 506 623 624
f 506 624 525
f 507 625 508
f 507 517 626
f 507 626 625
f 508 625 627
f 508 627 628
f 508 628 509
f 509 628 747
f 509 747 629
f 509 629 748
f 509 748 630
f 509 630 510
f 510 630 540
f 511 512 518
f 512 539 518
f 513 631 514
f 513 518 632
f 513 632 633
f 513 633 631
f 514 631 634
f 514 634 515
f 515 634 635
f 515 635 636
f 515 636 637
f 515 637 638
f 515 638 516
f 516 639 517
f 516 638 639
f 517 639 640
f 517 640 626
f 518 539 641
f 518 641 642
f 518 642 632
f 519 524 520
f 520 522 521
f 520 524 643
f 520 643 644
f 520 644 522
f 522 644 527
f 523 526 645
f 523 645 524
f 524 645 646
f 524 646 643
f 525 624 526
f 526 647 648
f 526 648 649
f 526 649 645
f 526 624 647
f 527 644 528
f 528 644 529
f 529 650 651
f 529 651 530
f 529 644 652
f 529 652 653
f 529 653 650
f 530 651 531
f 531 651 532
f 532 651 650
f 532 650 654
f 532 654 655
f 532 655 533
f 533 656 534
f 533 655 657
f 533 657 658
f 533 658 656
f 534 656 536
f 534 536 535
f 536 539 538
f 536 538 537
f 536 656 659
f 536 659 660
f 536 660 539
f 539 660 661
f 539 661 662
f 539 662 663
f 539 663 664
f 539 664 641
f 540 630 541
f 541 630 665
f 541 665 666
f 541 666 667
f 541 667 668
f 541 668 669
f 541 669 670
f 541 670 542
f 542 670 671
f 542 671 543
f 543 671 672
f 543 672 544
f 544 672 673
f 544 673 545
f 545 673 674
f 545 674 675
f 545 675 549
f 545 549 547
f 547 549 548
f 549 675 554
f 550 554 676
f 550 676 551
f 551 553 552
f 551 676 677
f 554 675 678
f 554 678 679
f 554 679 677
f 554 677 676
f 555 680 681
f 555 681 556
f 556 559 557
f 556 681 682
f 556 682 683
f 556 683 684
f 556 684 685
f 556 685 686
f 556 686 687
f 556 687 688
f 556 688 559
f 557 559 558
f 559 688 689
f 559 689 560
f 560 689 561
f 561 690 691
f 561 691 562
f 561 689 688
f 561 688 690
f 562 691 692
f 562 692 613
f 563 616 693
f 563 693 565
f 564 565 566
f 565 693 694
f 565 694 566
f 566 694 695
f 566 695 567
f 567 695 568
f 568 695 696
f 568 696 569
f 569 696 697
f 569 697 570
f 570 697 698
f 570 698 699
f 570 699 572
f 570 572 571
f 572 699 573
f 573 699 574
f 574 700 701
f 574 701 702
f 574 702 575
f 574 699 700
f 575 702 576
f 576 702 703
f 576 703 577
f 577 703 704
f 577 704 705
f 577 705 578
f 578 706 581
f 578 581 580
f 578 705 707
f 578 707 708
f 578 708 706
f 581 706 708
f 581 708 583
f 581 583 582
f 583 708 709
f 583 709 710
f 583 710 585
f 583 585 584
f 585 710 586
f 586 711 712
f 586 712 587
f 586 710 711
f 587 712 588
f 588 713 589
f 588 712 713
f 589 714 715
f 589 715 716
f 589 716 591
f 589 713 717
f 589 717 714
f 591 718 719
f 591 719 720
f 591 720 721
f 591 721 592
f 591 716 722
f 591 722 718
f 592 721 723
f 592 723 724
f 592 724 841
f 592 841 725
f 592 725 726
f 592 726 593
f 593 726 727
f 593 727 594
f 594 727 595
f 595 727 728
f 595 728 729
f 595 729 730
f 595 730 596
f 596 730 731
f 596 731 732
f 596 732 598
f 596 598 597
f 598 732 731
f 598 731 733
f 598 733 734
f 598 734 735
f 598 735 736
f 598 736 600
f 600 737 601
f 600 736 737
f 601 737 735
f 601 735 738
f 601 738 739
f 601 739 602
f 602 739 603
f 605 619 606
f 613 692 614
f 614 692 740
f 614 740 741
f 614 741 615
f 615 741 616
f 616 741 742
f 616 742 693
f 618 743 620
f 620 744 648
f 620 648 647
f 620 647 623
f 620 623 621
f 620 743 744
f 621 623 622
f 623 647 624
f 625 626 627
f 626 745 746
f 626 746 627
f 626 640 745
f 627 746 747
f 627 747 628
f 629 747 855
f 629 855 748
f 630 748 667
f 630 667 666
f 630 666 665
f 631 633 634
f 632 642 633
f 633 749 634
f 633 642 750
f 633 750 749
f 634 749 751
f 634 751 752
f 634 752 753
f 634 753 635
f 635 753 636
f 636 753 754
f 636 754 755
f 636 755 756
f 636 756 637
f 637 757 638
f 637 756 757
f 638 757 758
f 638 758 639
f 639 758 640
f 640 758 745
f 641 664 642
f 642 664 759
f 642 759 750
f 643 646 760
f 643 760 644
f 644 760 761
f 644 761 762
f 644 762 652
f 645 649 763
f 645 763 646
f 646 761 760
f 646 763 649
f 646 649 764
f 646 764 765
f 646 765 766
f 646 766 761
f 648 744 767
f 648 767 649
f 649 767 768
f 649 768 764
f 650 653 654
f 652 769 770
f 652 770 654
f 652 654 653
f 652 762 771
f 652 771 772
f 652 772 773
f 652 773 769
f 654 770 655
f 655 770 657
f 656 658 774
f 656 774 775
f 656 775 659
f 657 770 776
f 657 776 777
f 657 777 778
f 657 778 779
f 657 779 658
f 658 779 774
f 659 775 774
f 659 774 780
f 659 780 660
f 660 780 781
f 660 781 782
f 660 782 783
f 660 783 661
f 661 784 662
f 661 783 785
f 661 785 784
f 662 786 787
f 662 787 663
f 662 784 788
f 662 788 789
f 662 789 786
f 663 787 664
f 664 787 790
f 664 790 791
f 664 791 759
f 667 748 792
f 667 792 793
f 667 793 794
f 667 794 669
f 667 669 668
f 669 794 795
f 669 795 796
f 669 796 670
f 670 796 671
f 671 796 672
f 672 796 673
f 673 797 798
f 673 798 674
f 673 796 797
f 674 798 799
f 674 799 678
f 674 678 675
f 678 799 679
f 680 800 682
f 680 682 681
f 680 801 802
f 680 802 803
f 680 803 804
f 680 804 805
f 680 805 806
f 680 806 807
f 680 807 800
f 682 800 684
f 682 684 683
f 684 800 808
f 684 808 809
f 684 809 685
f 685 809 686
f 686 809 810
f 686 810 811
f 686 811 812
f 686 812 687
f 687 812 688
f 688 812 813
f 688 813 690
f 690 813 814
f 690 814 691
f 691 815 692
f 691 814 816
f 691 816 815
f 692 815 817
f 692 817 818
f 692 818 740
f 693 742 819
f 693 819 694
f 694 819 695
f 695 819 820
f 695 820 821
f 695 821 698
f 695 698 697
f 695 697 696
f 698 821 700
f 698 700 699
f 700 822 701
f 700 821 820
f 700 820 823
f 700 823 822
f 701 824 702
f 701 822 825
f 701 825 826
f 701 826 827
f 701 827 824
f 702 824 827
f 702 827 828
f 702 828 829
f 702 829 703
f 703 829 830
f 703 830 831
f 703 831 704
f 704 831 705
f 705 831 707
f 707 831 832
f 707 832 708
f 708 832 709
f 709 832 710
f 710 833 711
f 710 832 834
f 710 834 833
f 711 835 836
f 711 836 717
f 711 717 712
f 711 833 835
f 712 717 713
f 714 837 715
f 714 717 836
f 714 836 837
f 715 837 722
f 715 722 716
f 718 722 719
f 719 722 838
f 719 838 839
f 719 839 723
f 719 723 720
f 720 723 721
f 722 837 840
f 722 840 838
f 723 839 841
f 723 841 724
f 725 841 726
f 726 841 842
f 726 842 727
f 727 842 728
f 728 842 729
f 729 842 843
f 729 843 731
f 729 731 730
f 731 844 733
f 731 843 844
f 733 844 845
f 733 845 734
f 734 845 846
f 734 846 735
f 735 737 736
f 740 818 847
f 740 847 741
f 741 847 848
f 741 848 742
f 742 848 849
f 742 849 819
f 743 850 744
f 744 850 767
f 745 851 852
f 745 852 746
f 745 758 851
f 746 852 747
f 747 852 853
f 747 853 854
f 747 854 855
f 748 855 793
f 748 793 792
f 749 750 856
f 749 856 857
f 749 857 858
f 749 858 859
f 749 859 751
f 750 759 860
f 750 860 856
f 751 859 752
f 752 859 858
f 752 858 857
f 752 857 861
f 752 861 862
f 752 862 754
f 752 754 753
f 754 862 863
f 754 863 864
f 754 864 755
f 755 864 865
f 755 865 756
f 756 865 866
f 756 866 867
f 756 867 758
f 756 758 757
f 758 867 868
f 758 868 851
f 759 791 860
f 761 766 869
f 761 869 762
f 762 869 870
f 762 870 871
f 762 871 872
f 762 872 771
f 764 873 850
f 764 768 767
f 764 767 873
f 767 850 873
f 769 773 874
f 769 874 776
f 769 776 770
f 771 872 875
f 771 875 772
f 772 874 773
f 774 779 876
f 774 876 780
f 776 874 877
f 776 877 878
f 776 878 879
f 776 879 777
f 777 879 880
f 777 880 778
f 778 880 779
f 779 881 876
f 779 880 879
f 779 879 882
f 779 882 881
f 780 876 881
f 780 881 781
f 781 883 884
f 781 884 782
f 781 881 885
f 781 885 886
f 781 886 887
f 781 887 883
f 782 884 783
f 783 884 883
f 783 883 888
f 783 888 889
f 783 889 890
f 783 890 785
f 784 785 891
f 784 891 892
f 784 892 788
f 785 890 893
f 785 893 894
f 785 894 891
f 786 789 895
f 786 895 896
f 786 896 897
f 786 897 898
f 786 898 787
f 787 898 899
f 787 899 790
f 788 892 789
f 789 892 900
f 789 900 901
f 789 901 902
f 789 902 903
f 789 903 904
f 789 904 896
f 789 896 895
f 790 899 905
f 790 905 791
f 791 905 906
f 791 906 907
f 791 907 860
f 793 855 854
f 793 854 908
f 793 908 804
f 793 804 795
f 793 795 909
f 793 909 794
f 794 909 910
f 794 910 795
f 795 804 797
f 795 797 796
f 795 910 909
f 797 804 911
f 797 911 798
f 798 911 804
f 798 804 799
f 799 804 803
f 799 803 802
f 799 802 801
f 800 912 809
f 800 809 808
f 800 807 913
f 800 913 914
f 800 914 915
f 800 915 916
f 800 916 917
f 800 917 912
f 804 918 919
f 804 919 920
f 804 920 805
f 804 908 921
f 804 921 918
f 805 920 806
f 806 920 922
f 806 922 913
f 806 913 807
f 809 912 923
f 809 923 917
f 809 917 810
f 810 917 924
f 810 924 925
f 810 925 926
f 810 926 927
f 810 927 811
f 811 927 928
f 811 928 812
f 812 928 929
f 812 929 930
f 812 930 931
f 812 931 932
f 812 932 813
f 813 932 933
f 813 933 934
f 813 934 816
f 813 816 935
f 813 935 814
f 814 935 816
f 815 934 936
f 815 936 937
f 815 937 817
f 815 816 934
f 817 937 938
f 817 938 942
f 817 942 939
f 817 939 818
f 818 939 847
f 819 849 820
f 820 849 822
f 820 822 823
f 822 940 825
f 822 849 848
f 822 848 939
f 822 939 940
f 825 940 826
f 826 941 827
f 826 940 942
f 826 942 943
f 826 943 944
f 826 944 945
f 826 945 946
f 826 946 947
f 826 947 941
f 827 941 947
f 827 947 948
f 827 948 949
f 827 949 828
f 828 949 830
f 828 830 829
f 830 949 831
f 831 949 832
f 832 950 951
f 832 951 952
f 832 952 953
f 832 953 954
f 832 954 834
f 832 949 948
f 832 948 955
f 832 955 950
f 833 954 956
f 833 956 835
f 833 834 954
f 835 956 957
f 835 957 958
f 835 958 837
f 835 837 836
f 837 959 840
f 837 958 959
f 838 960 961
f 838 961 962
f 838 962 839
f 838 840 960
f 839 962 963
f 839 963 964
f 839 964 842
f 839 842 841
f 840 959 965
f 840 965 966
f 840 966 1073
f 840 1073 960
f 842 964 967
f 842 967 968
f 842 968 843
f 843 969 844
f 843 968 969
f 844 970 845
f 844 969 970
f 845 970 846
f 846 970 971
f 846 971 972
f 847 939 848
f 851 868 852
f 852 868 973
f 852 973 974
f 852 974 853
f 853 974 854
f 854 974 908
f 856 860 978
f 856 978 975
f 856 975 857
f 857 975 976
f 857 976 977
f 857 977 862
f 857 862 861
f 860 907 978
f 862 977 863
f 863 977 979
f 863 979 980
f 863 980 864
f 864 981 982
f 864 982 983
f 864 983 866
f 864 866 865
f 864 980 984
f 864 984 985
f 864 985 986
f 864 986 981
f 866 983 973
f 866 973 868
f 866 868 867
f 869 987 870
f 870 987 871
f 874 988 877
f 877 989 990
f 877 990 878
f 877 988 991
f 877 991 992
f 877 992 989
f 878 990 993
f 878 993 879
f 879 993 886
f 879 886 885
f 879 885 994
f 879 994 882
f 881 882 994
f 881 994 885
f 883 995 888
f 883 887 996
f 883 996 997
f 883 997 995
f 886 996 887
f 886 993 996
f 888 995 889
f 889 995 998
f 889 998 999
f 889 999 893
f 889 893 1000
f 889 1000 890
f 890 1000 893
f 891 894 900
f 891 900 892
f 893 999 1001
f 893 1001 1002
f 893 1002 894
f 894 1002 1003
f 894 1003 900
f 896 1004 1005
f 896 1005 897
f 896 904 1006
f 896 1006 1007
f 896 1007 1004
f 897 1005 898
f 898 1005 1008
f 898 1008 899
f 899 1008 905
f 900 1003 1009
f 900 1009 901
f 901 1010 1011
f 901 1011 902
f 901 1009 1012
f 901 1012 1010
f 902 1011 903
f 903 1011 1013
f 903 1013 1014
f 903 1014 1015
f 903 1015 1016
f 903 1016 1017
f 903 1017 1006
f 903 1006 904
f 905 1008 1018
f 905 1018 906
f 906 1018 1019
f 906 1019 1020
f 906 1020 907
f 907 1020 984
f 907 984 976
f 907 976 978
f 908 974 1021
f 908 1021 921
f 912 917 923
f 913 922 1022
f 913 1022 1023
f 913 1023 1024
f 913 1024 914
f 914 1023 1025
f 914 1025 1026
f 914 1026 1027
f 914 1027 1028
f 914 1028 1029
f 914 1029 915
f 914 1024 1023
f 915 1029 1030
f 915 1030 916
f 916 1030 1031
f 916 1031 917
f 917 1031 1032
f 917 1032 1033
f 917 1033 1034
f 917 1034 924
f 918 922 919
f 918 921 1035
f 918 1035 1036
f 918 1036 1037
f 918 1037 1038
f 918 1038 922
f 919 922 920
f 921 1021 1036
f 921 1036 1035
f 922 1038 1039
f 922 1039 1040
f 922 1040 1041
f 922 1041 1042
f 922 1042 1043
f 922 1043 1022
f 924 1034 925
f 925 1034 926
f 926 1034 1044
f 926 1044 928
f 926 928 927
f 928 1044 930
f 928 930 929
f 930 1044 1045
f 930 1045 1046
f 930 1046 1051
f 930 1051 1047
f 930 1047 1048
f 930 1048 931
f 931 1048 932
f 932 1048 1049
f 932 1049 933
f 933 1049 934
f 934 1048 1047
f 934 1047 936
f 934 1049 1048
f 936 1050 938
f 936 938 937
f 936 1047 1051
f 936 1051 1052
f 936 1052 1050
f 938 1050 1053
f 938 1053 944
f 938 944 943
f 938 943 942
f 939 942 940
f 944 1053 1054
f 944 1054 1055
f 944 1055 1056
f 944 1056 1057
f 944 1057 946
f 944 946 945
f 946 1057 1058
f 946 1058 947
f 947 1058 948
f 948 1058 1057
f 948 1057 955
f 950 1059 1060
f 950 1060 1061
f 950 1061 951
f 950 955 1062
f 950 1062 1063
f 950 1063 1059
f 951 1061 1064
f 951 1064 1065
f 951 1065 953
f 951 953 952
f 953 1065 1066
f 953 1066 1067
f 953 1067 1068
f 953 1068 954
f 954 1068 956
f 955 1057 1056
f 955 1056 1069
f 955 1069 1062
f 956 1068 1070
f 956 1070 957
f 957 1070 1071
f 957 1071 1072
f 957 1072 965
f 957 965 959
f 957 959 958
f 960 1073 1074
f 960 1074 1075
f 960 1075 962
f 960 962 961
f 962 1075 963
f 963 1075 1074
f 963 1074 1076
f 963 1076 1077
f 963 1077 964
f 964 1077 967
f 965 1072 966
f 966 1072 1078
f 966 1078 1079
f 966 1079 1073
f 967 1080 1081
f 967 1081 968
f 967 1077 1080
f 968 1081 969
f 969 1081 1082
f 969 1082 970
f 970 1082 971
f 971 1083 1084
f 971 1084 1085
f 971 1085 972
f 971 1082 1083
f 973 983 1086
f 973 1086 974
f 974 1086 1141
f 974 1141 1021
f 975 978 976
f 976 984 977
f 977 1087 1088
f 977 1088 979
f 977 984 1087
f 979 1088 980
f 980 1088 1087
f 980 1087 984
f 981 1089 1090
f 981 1090 1091
f 981 1091 1092
f 981 1092 1197
f 981 1197 1093
f 981 1093 982
f 981 986 1089
f 982 1093 983
f 983 1093 1086
f 984 1020 1094
f 984 1094 1095
f 984 1095 1096
f 984 1096 1097
f 984 1097 986
f 984 986 985
f 986 1097 1098
f 986 1098 1099
f 986 1099 1089
f 989 992 1100
f 989 1100 1101
f 989 1101 1102
f 989 1102 1103
f 989 1103 1104
f 989 1104 990
f 990 1104 993
f 992 1105 1100
f 993 1104 1103
f 993 1103 996
f 995 997 1106
f 995 1106 998
f 996 1103 997
f 997 1103 1107
f 997 1107 1101
f 997 1101 1106
f 998 1106 1108
f 998 1108 1109
f 998 1109 1110
f 998 1110 999
f 999 1110 1001
f 1001 1003 1002
f 1001 1110 1111
f 1001 1111 1003
f 1003 1111 1112
f 1003 1112 1113
f 1003 1113 1114
f 1003 1114 1115
f 1003 1115 1009
f 1004 1116 1117
f 1004 1117 1005
f 1004 1007 1118
f 1004 1118 1119
f 1004 1119 1116
f 1005 1120 1008
f 1005 1117 1121
f 1005 1121 1122
f 1005 1122 1123
f 1005 1123 1124
f 1005 1124 1120
f 1006 1125 1007
f 1006 1017 1118
f 1006 1118 1125
f 1007 1125 1118
f 1008 1120 1126
f 1008 1126 1018
f 1009 1115 1127
f 1009 1127 1012
f 1010 1128 1129
f 1010 1129 1011
f 1010 1012 1127
f 1010 1127 1128
f 1011 1130 1013
f 1011 1129 1130
f 1013 1130 1014
f 1014 1130 1131
f 1014 1131 1132
f 1014 1132 1133
f 1014 1133 1134
f 1014 1134 1015
f 1015 1134 1135
f 1015 1135 1136
f 1015 1136 1016
f 1016 1136 1137
f 1016 1137 1118
f 1016 1118 1017
f 1018 1126 1138
f 1018 1138 1019
f 1019 1138 1139
f 1019 1139 1140
f 1019 1140 1020
f 1020 1140 1094
f 1021 1141 1036
f 1022 1043 1142
f 1022 1142 1143
f 1022 1143 1025
f 1022 1025 1023
f 1025 1143 1146
f 1025 1146 1144
f 1025 1144 1026
f 1026 1145 1027
f 1026 1144 1146
f 1026 1146 1147
f 1026 1147 1148
f 1026 1148 1145
f 1027 1149 1028
f 1027 1145 1150
f 1027 1150 1149
f 1028 1149 1152
f 1028 1152 1151
f 1028 1151 1031
f 1028 1031 1030
f 1028 1030 1029
f 1031 1151 1152
f 1031 1152 1153
f 1031 1153 1032
f 1032 1153 1034
f 1032 1034 1033
f 1034 1153 1154
f 1034 1154 1044
f 1036 1141 1155
f 1036 1155 1156
f 1036 1156 1037
f 1037 1156 1155
f 1037 1155 1157
f 1037 1157 1158
f 1037 1158 1038
f 1038 1158 1039
f 1039 1158 1040
f 1040 1158 1159
f 1040 1159 1160
f 1040 1160 1041
f 1041 1160 1042
f 1042 1160 1161
f 1042 1161 1043
f 1043 1161 1142
f 1044 1162 1163
f 1044 1163 1045
f 1044 1154 1162
f 1045 1163 1164
f 1045 1164 1046
f 1046 1164 1165
f 1046 1165 1166
f 1046 1166 1051
f 1050 1052 1053
f 1051 1166 1052
f 1052 1167 1168
f 1052 1168 1169
f 1052 1169 1053
f 1052 1166 1167
f 1053 1169 1054
f 1054 1169 1170
f 1054 1170 1055
f 1055 1170 1056
f 1056 1170 1069
f 1059 1171 1060
f 1059 1063 1171
f 1060 1172 1173
f 1060 1173 1061
f 1060 1171 1172
f 1061 1173 1066
f 1061 1066 1064
f 1062 1069 1170
f 1062 1170 1174
f 1062 1174 1063
f 1063 1174 1171
f 1064 1066 1065
f 1066 1175 1275
f 1066 1275 1176
f 1066 1176 1067
f 1066 1173 1175
f 1067 1176 1070
f 1067 1070 1068
f 1070 1176 1177
f 1070 1177 1071
f 1071 1177 1178
f 1071 1178 1179
f 1071 1179 1180
f 1071 1180 1078
f 1071 1078 1072
f 1073 1079 1181
f 1073 1181 1182
f 1073 1182 1074
f 1074 1182 1076
f 1076 1183 1080
f 1076 1080 1077
f 1076 1182 1184
f 1076 1184 1185
f 1076 1185 1183
f 1078 1180 1079
f 1079 1186 1187
f 1079 1187 1188
f 1079 1188 1181
f 1079 1180 1189
f 1079 1189 1186
f 1080 1183 1190
f 1080 1190 1191
f 1080 1191 1081
f 1081 1191 1082
f 1082 1192 1083
f 1082 1191 1192
f 1083 1193 1194
f 1083 1194 1195
f 1083 1195 1084
f 1083 1192 1193
f 1084 1195 1196
f 1086 1157 1155
f 1086 1155 1141
f 1086 1093 1197
f 1086 1197 1157
f 1089 1099 1198
f 1089 1198 1199
f 1089 1199 1090
f 1090 1199 1200
f 1090 1200 1091
f 1091 1200 1201
f 1091 1201 1202
f 1091 1202 1092
f 1092 1202 1197
f 1094 1140 1203
f 1094 1203 1095
f 1095 1203 1204
f 1095 1204 1205
f 1095 1205 1206
f 1095 1206 1207
f 1095 1207 1208
f 1095 1208 1096
f 1096 1208 1098
f 1096 1098 1097
f 1098 1208 1209
f 1098 1209 1198
f 1098 1198 1099
f 1100 1210 1101
f 1100 1105 1211
f 1100 1211 1212
f 1100 1212 1213
f 1100 1213 1210
f 1101 1108 1106
f 1101 1107 1103
f 1101 1103 1102
f 1101 1210 1214
f 1101 1214 1215
f 1101 1215 1108
f 1108 1216 1109
f 1108 1215 1216
f 1109 1112 1110
f 1109 1216 1215
f 1109 1215 1112
f 1110 1112 1111
f 1112 1215 1217
f 1112 1217 1114
f 1112 1114 1113
f 1114 1217 1218
f 1114 1218 1219
f 1114 1219 1220
f 1114 1220 1221
f 1114 1221 1115
f 1115 1221 1222
f 1115 1222 1223
f 1115 1223 1224
f 1115 1224 1127
f 1116 1225 1121
f 1116 1121 1117
f 1116 1119 1225
f 1118 1136 1226
f 1118 1226 1227
f 1118 1227 1119
f 1118 1137 1136
f 1119 1227 1228
f 1119 1228 1225
f 1120 1124 1229
f 1120 1229 1230
f 1120 1230 1231
f 1120 1231 1232
f 1120 1232 1233
f 1120 1233 1126
f 1121 1173 1122
f 1121 1225 1173
f 1122 1173 1172
f 1122 1172 1234
f 1122 1234 1235
f 1122 1235 1236
f 1122 1236 1123
f 1123 1236 1124
f 1124 1236 1237
f 1124 1237 1238
f 1124 1238 1239
f 1124 1239 1229
f 1126 1233 1138
f 1127 1224 1240
f 1127 1240 1128
f 1128 1240 1129
f 1129 1240 1130
f 1130 1240 1131
f 1131 1240 1241
f 1131 1241 1132
f 1132 1242 1133
f 1132 1241 1242
f 1133 1242 1243
f 1133 1243 1244
f 1133 1244 1135
f 1133 1135 1134
f 1135 1244 1245
f 1135 1245 1246
f 1135 1246 1247
f 1135 1247 1136
f 1136 1247 1226
f 1138 1233 1139
f 1139 1233 1232
f 1139 1232 1248
f 1139 1248 1249
f 1139 1249 1250
f 1139 1250 1251
f 1139 1251 1203
f 1139 1203 1140
f 1142 1161 1201
f 1142 1201 1252
f 1142 1252 1146
f 1142 1146 1143
f 1145 1148 1253
f 1145 1253 1254
f 1145 1254 1255
f 1145 1255 1150
f 1146 1252 1201
f 1146 1201 1256
f 1146 1256 1148
f 1146 1148 1147
f 1148 1256 1257
f 1148 1257 1198
f 1148 1198 1209
f 1148 1209 1258
f 1148 1258 1253
f 1149 1259 1154
f 1149 1154 1152
f 1149 1150 1259
f 1150 1260 1259
f 1150 1255 1320
f 1150 1320 1261
f 1150 1261 1260
f 1152 1154 1153
f 1154 1259 1260
f 1154 1260 1262
f 1154 1262 1163
f 1154 1163 1162
f 1157 1202 1158
f 1157 1197 1202
f 1158 1202 1201
f 1158 1201 1159
f 1159 1201 1160
f 1160 1201 1161
f 1163 1261 1263
f 1163 1263 1164
f 1163 1262 1261
f 1164 1263 1264
f 1164 1264 1165
f 1165 1264 1265
f 1165 1265 1166
f 1166 1266 1267
f 1166 1267 1238
f 1166 1238 1268
f 1166 1268 1167
f 1166 1265 1269
f 1166 1269 1248
f 1166 1248 1230
f 1166 1230 1266
f 1167 1268 1270
f 1167 1270 1271
f 1167 1271 1168
f 1168 1271 1272
f 1168 1272 1273
f 1168 1273 1174
f 1168 1174 1169
f 1169 1174 1170
f 1171 1274 1172
f 1171 1174 1272
f 1171 1272 1274
f 1172 1274 1234
f 1173 1225 1228
f 1173 1228 1175
f 1174 1273 1272
f 1175 1228 1275
f 1176 1276 1177
f 1176 1275 1276
f 1177 1246 1178
f 1177 1276 1246
f 1178 1246 1245
f 1178 1245 1186
f 1178 1186 1189
f 1178 1189 1179
f 1179 1189 1180
f 1181 1188 1277
f 1181 1277 1184
f 1181 1184 1182
f 1183 1278 1190
f 1183 1185 1279
f 1183 1279 1280
f 1183 1280 1278
f 1184 1277 1279
f 1184 1279 1185
f 1186 1281 1187
f 1186 1245 1244
f 1186 1244 1281
f 1187 1281 1282
f 1187 1282 1188
f 1188 1282 1283
f 1188 1283 1284
f 1188 1284 1279
f 1188 1279 1277
f 1190 1285 1286
f 1190 1286 1192
f 1190 1192 1191
f 1190 1278 1285
f 1192 1286 1287
f 1192 1287 1193
f 1193 1287 1194
f 1194 1287 1288
f 1194 1288 1289
f 1194 1289 1290
f 1194 1290 1195
f 1195 1290 1196
f 1198 1257 1200
f 1198 1200 1199
f 1200 1257 1256
f 1200 1256 1201
f 1203 1251 1291
f 1203 1291 1292
f 1203 1292 1204
f 1204 1292 1293
f 1204 1293 1205
f 1205 1293 1294
f 1205 1294 1206
f 1206 1294 1207
f 1207 1294 1295
f 1207 1295 1258
f 1207 1258 1208
f 1208 1258 1209
f 1210 1213 1296
f 1210 1296 1297
f 1210 1297 1214
f 1214 1297 1298
f 1214 1298 1299
f 1214 1299 1215
f 1215 1299 1300
f 1215 1300 1217
f 1217 1301 1218
f 1218 1301 1219
f 1219 1302 1303
f 1219 1303 1304
f 1219 1304 1220
f 1220 1304 1221
f 1221 1304 1222
f 1222 1305 1223
f 1222 1304 1306
f 1222 1306 1307
f 1222 1307 1241
f 1222 1241 1305
f 1223 1305 1241
f 1223 1241 1240
f 1223 1240 1224
f 1226 1247 1275
f 1226 1275 1228
f 1226 1228 1227
f 1229 1239 1266
f 1229 1266 1230
f 1230 1248 1232
f 1230 1232 1231
f 1234 1274 1235
f 1235 1274 1308
f 1235 1308 1236
f 1236 1308 1237
f 1237 1308 1309
f 1237 1309 1238
f 1238 1267 1266
f 1238 1266 1239
f 1238 1309 1310
f 1238 1310 1270
f 1238 1270 1268
f 1241 1307 1311
f 1241 1311 1312
f 1241 1312 1283
f 1241 1283 1282
f 1241 1282 1313
f 1241 1313 1314
f 1241 1314 1242
f 1242 1281 1243
f 1242 1314 1313
f 1242 1313 1281
f 1243 1281 1244
f 1246 1276 1275
f 1246 1275 1247
f 1248 1269 1249
f 1249 1269 1265
f 1249 1265 1315
f 1249 1315 1263
f 1249 1263 1316
f 1249 1316 1291
f 1249 1291 1250
f 1250 1291 1251
f 1253 1258 1317
f 1253 1317 1318
f 1253 1318 1319
f 1253 1319 1263
f 1253 1263 1320
f 1253 1320 1255
f 1253 1255 1254
f 1258 1295 1317
f 1260 1261 1262
f 1261 1320 1263
f 1263 1319 1316
f 1263 1315 1264
f 1264 1315 1265
f 1270 1310 1308
f 1270 1308 1321
f 1270 1321 1272
f 1270 1272 1271
f 1272 1321 1274
f 1274 1321 1308
f 1278 1280 1322
f 1278 1322 1285
f 1279 1284 1323
f 1279 1323 1324
f 1279 1324 1280
f 1280 1324 1322
f 1281 1313 1282
f 1283 1312 1311
f 1283 1311 1284
f 1284 1311 1323
f 1285 1325 1287
f 1285 1287 1286
f 1285 1322 1325
f 1287 1325 1288
f 1288 1325 1326
f 1288 1326 1327
f 1288 1327 1289
f 1289 1327 1328
f 1291 1316 1329
f 1291 1329 1294
f 1291 1294 1292
f 1292 1294 1293
f 1294 1329 1319
f 1294 1319 1318
f 1294 1318 1295
f 1295 1318 1317
f 1302 1330 1331
f 1302 1331 1303
f 1303 1331 1327
f 1303 1327 1332
f 1303 1332 1333
f 1303 1333 1306
f 1303 1306 1304
f 1306 1333 1307
f 1307 1333 1334
f 1307 1334 1311
f 1308 1310 1309
f 1311 1334 1335
f 1311 1335 1323
f 1316 1319 1329
f 1322 1324 1335
f 1322 1335 1334
f 1322 1334 1336
f 1322 1336 1325
f 1323 1335 1324
f 1325 1336 1334
f 1325 1334 1337
f 1325 1337 1326
f 1326 1337 1332
f 1326 1332 1327
f 1327 1331 1328
f 1328 1331 1330
f 1332 1337 1334
f 1332 1334 1333

