# https://github.com/mikedh/trimesh
v -0.00418801 0.06293076 -0.01125742
v -0.00394132 0.06417077 -0.01107619
v -0.00392916 0.06417077 -0.01107619
v -0.00373459 0.06394079 -0.01110374
v -0.00369290 0.06342629 -0.01117478
v -0.00245425 0.06317852 -0.01107619
v -0.00369290 0.06293076 -0.01120088
v -0.00414631 0.06239136 -0.01118348
v -0.00459452 0.06243641 -0.01116753
v -0.00458931 0.06293076 -0.01117478
v -0.00346880 0.06569293 -0.01060354
v -0.00302928 0.06621810 -0.01063399
v -0.00270094 0.06590158 -0.01075722
v -0.00449202 0.06326862 -0.01111969
v -0.00359909 0.06411861 -0.01107039
v -0.00270094 0.06540723 -0.01082682
v -0.00319605 0.06441617 -0.01100080
v -0.00330897 0.06378786 -0.01109069
v -0.00270094 0.06328403 -0.01108924
v -0.00334198 0.06262372 -0.01109794
v -0.00369290 0.06252058 -0.01113564
v 0.00373549 0.06491170 -0.01021643
v 0.00423234 0.06491170 -0.01015843
v 0.00460585 0.06491170 -0.01010624
v 0.00457631 0.06461414 -0.01010624
v 0.00061543 0.06361597 -0.01060209
v -0.00428356 0.06210092 -0.01110954
v -0.00449897 0.06210092 -0.01110954
v -0.00484294 0.06243641 -0.01101530
v -0.00483773 0.06293076 -0.01098050
v -0.00468312 0.06342748 -0.01082972
v -0.00400734 0.06477063 -0.01065138
v -0.00390310 0.06510019 -0.01054265
v -0.00380582 0.06540723 -0.01044115
v -0.00395696 0.06567989 -0.01010334
v -0.00335935 0.06602368 -0.01049335
v -0.00303275 0.06670415 -0.01014828
v -0.00270094 0.06649076 -0.01042811
v -0.00270094 0.06624300 -0.01064993
v -0.00351744 0.06623588 -0.01016278
v -0.00336282 0.06656663 -0.01001200
v -0.00336109 0.06707402 -0.00952775
v -0.00220583 0.06621573 -0.01062384
v -0.00179758 0.06618135 -0.01060064
v -0.00146751 0.06614697 -0.01058034
v -0.00220583 0.06590158 -0.01070648
v -0.00052767 0.06560758 -0.01057599
v -0.00220583 0.06540723 -0.01077607
v -0.00270094 0.06441617 -0.01095005
v -0.00270094 0.06392182 -0.01101095
v -0.00121561 0.06392182 -0.01085581
v -0.00369290 0.06227282 -0.01104574
v 0.00225016 0.06540723 -0.01031067
v 0.00455025 0.06521163 -0.01009319
v 0.00621278 0.06540723 -0.00987426
v 0.00670789 0.06540723 -0.00980177
v 0.00621278 0.06491170 -0.00982497
v 0.00671658 0.06488206 -0.00970318
v 0.00395091 0.06419211 -0.01007724
v 0.00362084 0.06410202 -0.01011784
v 0.00000566 0.06318801 -0.01057744
v -0.00094634 0.06267351 -0.01058614
v -0.00414631 0.06193733 -0.01100950
v -0.00418801 0.06149514 -0.01074707
v -0.00468312 0.06158405 -0.01068763
v -0.00467096 0.06193733 -0.01092396
v -0.00512264 0.06243641 -0.01076737
v -0.00502709 0.06194088 -0.01066443
v -0.00641687 0.06218628 -0.00959154
v -0.00507052 0.06293076 -0.01073258
v -0.00497671 0.06325558 -0.01063109
v -0.00641687 0.06219220 -0.00959154
v -0.00636128 0.06252177 -0.00952920
v -0.00444164 0.06417907 -0.01058759
v -0.00590265 0.06413758 -0.00907539
v -0.00541623 0.06415299 -0.00957994
v -0.00429050 0.06540723 -0.00993371
v -0.00493154 0.06565500 -0.00909569
v -0.00590439 0.06562892 -0.00808659
v -0.00639081 0.06561588 -0.00758059
v -0.00384751 0.06601064 -0.00998445
v -0.00303101 0.06718901 -0.00964229
v -0.00270094 0.06673379 -0.01018018
v -0.00220583 0.06673379 -0.01017728
v -0.00171072 0.06672786 -0.01016858
v -0.00121561 0.06671837 -0.01015843
v -0.00072050 0.06670771 -0.01014683
v -0.00022539 0.06669704 -0.01013379
v 0.00026798 0.06668637 -0.01012074
v 0.00076483 0.06667214 -0.01010624
v 0.00109143 0.06665673 -0.01009464
v -0.00399865 0.06621929 -0.00965388
v -0.00368769 0.06639237 -0.00983367
v -0.00352786 0.06674327 -0.00968143
v -0.00369811 0.06689975 -0.00934941
v -0.00353828 0.06721391 -0.00919863
v -0.00315609 0.06736565 -0.00931172
v 0.00142150 0.06661642 -0.01007434
v 0.00125821 0.06643030 -0.01015843
v 0.00545014 0.06663776 -0.00958864
v 0.00324038 0.06639711 -0.00993371
v 0.00225016 0.06622284 -0.01011059
v 0.00400650 0.06566211 -0.01008884
v 0.00373549 0.06540723 -0.01015408
v -0.00033136 0.06527801 -0.01059629
v -0.00121561 0.06441617 -0.01079492
v 0.00472050 0.06538826 -0.01004824
v 0.00522256 0.06540723 -0.00998880
v 0.00571767 0.06540723 -0.00993226
v 0.00621278 0.06590158 -0.00974378
v 0.00669573 0.06592055 -0.00966983
v 0.00704492 0.06576762 -0.00963939
v 0.00720821 0.06536100 -0.00965968
v 0.00745316 0.06516539 -0.00959154
v 0.00745316 0.06515472 -0.00959154
v 0.00720300 0.06505751 -0.00963939
v 0.00720300 0.06480975 -0.00953210
v 0.00688857 0.06469831 -0.00957269
v 0.00655849 0.06461414 -0.00961619
v 0.00621278 0.06452523 -0.00966113
v -0.00192961 0.06217442 -0.01058904
v 0.00125994 0.06299952 -0.01017728
v -0.00369290 0.06194088 -0.01090076
v -0.00319605 0.06164095 -0.01061659
v -0.00369290 0.06154374 -0.01068473
v -0.00418801 0.06124738 -0.01052815
v -0.00369290 0.06129598 -0.01050785
v -0.00020975 0.05818883 -0.00738051
v -0.00369290 0.06100317 -0.01025992
v -0.00459278 0.06110156 -0.01020918
v -0.00472829 0.06131139 -0.01035706
v -0.00494544 0.06167889 -0.01059339
v -0.00648115 0.06159117 -0.00872888
v -0.00687550 0.06126753 -0.00751825
v -0.00695715 0.06159709 -0.00771398
v -0.00688593 0.06174883 -0.00804455
v -0.00696063 0.06207958 -0.00821853
v -0.00728549 0.06244708 -0.00784737
v -0.00743663 0.06262016 -0.00767628
v -0.00791089 0.06315956 -0.00712969
v -0.00543186 0.06168600 -0.01009319
v -0.00592003 0.06169430 -0.00959009
v -0.00551873 0.05818883 -0.00620613
v -0.00576715 0.05818883 -0.00586831
v -0.00605206 0.05818883 -0.00539566
v -0.00531894 0.06293076 -0.01046435
v -0.00536238 0.06356618 -0.01001925
v -0.00791089 0.06323543 -0.00712969
v -0.00695889 0.06280510 -0.00866943
v -0.00675563 0.06295447 -0.00883907
v -0.00648463 0.06293076 -0.00917543
v -0.00626400 0.06293076 -0.00942336
v -0.00601731 0.06293076 -0.00969593
v -0.00554478 0.06293076 -0.01021643
v -0.00552220 0.06531239 -0.00870133
v -0.00545792 0.06323661 -0.01012219
v -0.00599646 0.06380801 -0.00917833
v -0.00619103 0.06395976 -0.00887096
v -0.00682686 0.06501247 -0.00751825
v -0.00644119 0.06470543 -0.00813154
v -0.00649679 0.06528631 -0.00769368
v -0.00668441 0.06544161 -0.00738486
v -0.00687203 0.06559691 -0.00701515
v -0.00591655 0.06614460 -0.00758639
v -0.00544055 0.06616594 -0.00811994
v -0.00447986 0.06620150 -0.00914354
v -0.00295110 0.06763594 -0.00909569
v -0.00270094 0.06766083 -0.00912759
v -0.00270094 0.06746167 -0.00937551
v -0.00270094 0.06721391 -0.00966838
v -0.00270094 0.06698155 -0.00991631
v -0.00220583 0.06721628 -0.00967128
v -0.00171072 0.06721746 -0.00967128
v -0.00121561 0.06721509 -0.00966548
v -0.00121561 0.06696614 -0.00991341
v 0.00026798 0.06693413 -0.00988151
v 0.00242215 0.06713685 -0.00958719
v 0.00423234 0.06734786 -0.00930012
v 0.00324038 0.06711314 -0.00956979
v 0.00373549 0.06709180 -0.00955819
v 0.00423234 0.06705979 -0.00954805
v 0.00472745 0.06700526 -0.00953065
v -0.00400907 0.06672667 -0.00917108
v -0.00448855 0.06669585 -0.00865928
v -0.00394827 0.06714515 -0.00861434
v -0.00369811 0.06724473 -0.00880717
v -0.00493849 0.06664962 -0.00811414
v 0.00571767 0.06689264 -0.00946395
v 0.00512007 0.06669585 -0.00960749
v 0.00621278 0.06650261 -0.00954080
v 0.00621278 0.06625485 -0.00962489
v 0.00472745 0.06590158 -0.00992211
v 0.00652201 0.06618965 -0.00960459
v 0.00685208 0.06609718 -0.00955964
v 0.00720821 0.06592055 -0.00944221
v 0.00737499 0.06549496 -0.00952920
v 0.00650985 0.06718545 -0.00913484
v 0.00797607 0.06521044 -0.00912324
v 0.00854241 0.06491170 -0.00868683
v 0.00858236 0.06441617 -0.00870423
v 0.00816890 0.06441617 -0.00896665
v 0.00798823 0.06458095 -0.00911889
v 0.00844338 0.06367169 -0.00860129
v 0.00785968 0.06425020 -0.00907104
v 0.00720300 0.06441617 -0.00934796
v 0.00769638 0.06394672 -0.00897970
v 0.00752786 0.06412928 -0.00911599
v 0.00590703 0.06419923 -0.00957559
v -0.00294589 0.06169193 -0.01058179
v -0.00220583 0.06211040 -0.01062384
v 0.00100631 0.06268655 -0.01008449
v 0.00621278 0.06329470 -0.00903625
v 0.00296069 0.06270078 -0.00958139
v 0.00002130 0.06218746 -0.01008594
v 0.00225016 0.06293076 -0.00988441
v -0.00319605 0.06194088 -0.01077897
v -0.00274958 0.06193614 -0.01066588
v 0.00047124 0.05818883 -0.00723553
v 0.00008210 0.05818883 -0.00733412
v -0.00369290 0.06075658 -0.01003520
v -0.00220583 0.05818883 -0.00750230
v -0.00251332 0.05818883 -0.00750375
v -0.00270094 0.05818883 -0.00749650
v -0.00297021 0.05818883 -0.00745446
v -0.00418801 0.06102213 -0.01028022
v -0.00072050 0.05818883 -0.00741821
v -0.00456846 0.05818883 -0.00673968
v -0.00418801 0.06077437 -0.00999750
v -0.00340104 0.05818883 -0.00732107
v -0.00357824 0.05818883 -0.00723553
v -0.00492286 0.06120233 -0.01008014
v -0.00742447 0.06166111 -0.00665994
v -0.00704054 0.06192547 -0.00787056
v -0.00735498 0.06180455 -0.00698905
v -0.00743141 0.06213530 -0.00717173
v -0.00749917 0.06244708 -0.00734572
v -0.00795606 0.06296870 -0.00682087
v -0.00811936 0.06293076 -0.00636996
v -0.00825834 0.06342629 -0.00636996
v -0.00802207 0.06341088 -0.00690206
v -0.00619451 0.05818883 -0.00488531
v -0.00793869 0.06163029 -0.00523908
v -0.00788136 0.06173224 -0.00556965
v -0.00584706 0.06354128 -0.00950745
v -0.00788310 0.06356618 -0.00709054
v -0.00689114 0.06313466 -0.00857519
v -0.00747485 0.06342629 -0.00769658
v -0.00641861 0.06318327 -0.00909859
v -0.00694673 0.06374637 -0.00814749
v -0.00698842 0.06441617 -0.00769948
v -0.00686334 0.06407593 -0.00804890
v -0.00692067 0.06468172 -0.00761974
v -0.00593914 0.06321053 -0.00961039
v -0.00647594 0.06378194 -0.00866653
v -0.00697626 0.06526616 -0.00718768
v -0.00740536 0.06515710 -0.00661209
v -0.00693804 0.06567396 -0.00668458
v -0.00433915 0.06653225 -0.00898985
v -0.00002213 0.06913083 -0.00713404
v -0.00072050 0.06869932 -0.00777052
v -0.00072050 0.06858788 -0.00801845
v -0.00153178 0.06814451 -0.00862014
v -0.00297890 0.06765135 -0.00884777
v -0.00210333 0.06820497 -0.00785606
v 0.00076483 0.06992510 -0.00537971
v 0.00039480 0.06967615 -0.00587556
v 0.00045908 0.06964296 -0.00618148
v 0.00149099 0.07011597 -0.00563489
v 0.00076483 0.06968208 -0.00626702
v -0.00009336 0.06864715 -0.00813009
v -0.00121561 0.06816466 -0.00864044
v -0.00220583 0.06769047 -0.00915803
v -0.00171072 0.06769758 -0.00916093
v -0.00022539 0.06818244 -0.00865348
v 0.00076483 0.06866375 -0.00814169
v 0.00026798 0.06817889 -0.00864769
v 0.00125994 0.06865664 -0.00813444
v -0.00072050 0.06720561 -0.00965533
v 0.00076483 0.06791927 -0.00888546
v 0.00225016 0.06813740 -0.00860564
v 0.00472745 0.06758496 -0.00904495
v 0.00373549 0.06735854 -0.00931172
v 0.00522256 0.06757429 -0.00903045
v 0.00472745 0.06733720 -0.00928272
v 0.00522256 0.06732653 -0.00925807
v 0.00571767 0.06731230 -0.00923488
v -0.00397433 0.06715937 -0.00835192
v -0.00496455 0.06666384 -0.00785606
v -0.00595824 0.06616950 -0.00725583
v -0.00624489 0.06605450 -0.00686581
v 0.00621278 0.06725540 -0.00918993
v 0.00621278 0.06689264 -0.00938711
v 0.00717521 0.06635562 -0.00919718
v 0.00746011 0.06616357 -0.00910439
v 0.00699106 0.06668044 -0.00912179
v 0.00753481 0.06590158 -0.00917978
v 0.00625100 0.06752213 -0.00885501
v 0.00644036 0.06762408 -0.00858099
v 0.00662103 0.06728859 -0.00884777
v 0.00745490 0.06664962 -0.00860564
v 0.00788400 0.06554119 -0.00902465
v 0.00846076 0.06518554 -0.00862304
v 0.00866749 0.06491170 -0.00835192
v 0.00876651 0.06441617 -0.00835192
v 0.00866749 0.06392182 -0.00835192
v 0.00849724 0.06392182 -0.00863609
v 0.00853546 0.06347490 -0.00834032
v 0.00849203 0.06313466 -0.00816778
v 0.00819496 0.06333738 -0.00850270
v 0.00785099 0.06322832 -0.00857229
v 0.00819496 0.06358514 -0.00864479
v 0.00769116 0.06340614 -0.00870713
v 0.00720300 0.06342629 -0.00884487
v 0.00621278 0.06354247 -0.00916238
v 0.00752092 0.06315126 -0.00861724
v 0.00066234 0.05818883 -0.00717898
v -0.00121561 0.05818883 -0.00744866
v -0.00171072 0.05818883 -0.00747765
v -0.00319605 0.05818883 -0.00738631
v -0.00796648 0.06206180 -0.00578277
v -0.00789873 0.06219813 -0.00611334
v -0.00773543 0.06248146 -0.00682087
v -0.00790568 0.06267706 -0.00662514
v -0.00795780 0.06256208 -0.00636996
v -0.00806029 0.06239136 -0.00591906
v -0.00830177 0.06295802 -0.00585382
v -0.00840947 0.06314059 -0.00567403
v -0.00836257 0.06342629 -0.00594081
v -0.00840426 0.06368472 -0.00566968
v -0.00815410 0.06392182 -0.00636996
v -0.00800470 0.06392182 -0.00675273
v -0.00623794 0.05818883 -0.00438511
v -0.00890111 0.06267232 -0.00270908
v -0.00840947 0.06216849 -0.00422128
v -0.00838515 0.06222303 -0.00455185
v -0.00818016 0.06194088 -0.00488531
v -0.00803423 0.06191480 -0.00539421
v -0.00727333 0.06342629 -0.00794451
v -0.00702664 0.06342629 -0.00824173
v -0.00781187 0.06392182 -0.00700065
v -0.00714130 0.06388389 -0.00783432
v -0.00704575 0.06487258 -0.00735587
v -0.00738972 0.06462837 -0.00709199
v -0.00792826 0.06421463 -0.00665704
v -0.00795953 0.06426680 -0.00636996
v -0.00754955 0.06496030 -0.00641636
v -0.00788136 0.06462600 -0.00547685
v -0.00790394 0.06466631 -0.00514629
v -0.00742968 0.06518910 -0.00628152
v -0.00744879 0.06520926 -0.00587556
v -0.00695194 0.06568463 -0.00636996
v -0.00666356 0.06585890 -0.00636996
v -0.00628484 0.06607703 -0.00636996
v 0.00107753 0.06960384 -0.00658744
v 0.00067102 0.06909052 -0.00754000
v -0.00042170 0.06861752 -0.00808514
v 0.00100283 0.06912372 -0.00761249
v -0.00327423 0.06754229 -0.00835192
v -0.00302580 0.06767743 -0.00835192
v -0.00240214 0.06810539 -0.00736166
v -0.00235176 0.06807931 -0.00785606
v -0.00369290 0.06731349 -0.00835192
v -0.00125904 0.06873844 -0.00688466
v -0.00022539 0.06937148 -0.00587556
v 0.00033574 0.06970935 -0.00537971
v 0.00103237 0.07010174 -0.00498100
v 0.00114007 0.07008040 -0.00537971
v 0.00138850 0.07016812 -0.00537971
v 0.00175505 0.07026059 -0.00537971
v 0.00175505 0.07013968 -0.00569288
v 0.00175505 0.07003180 -0.00594081
v 0.00175505 0.06984093 -0.00636996
v 0.00125994 0.06913557 -0.00762409
v 0.00026798 0.06866138 -0.00814459
v -0.00072050 0.06817889 -0.00865348
v 0.00175505 0.06914150 -0.00762989
v 0.00175505 0.06889373 -0.00787781
v 0.00225016 0.06863530 -0.00811269
v 0.00423234 0.06809353 -0.00855924
v 0.00254375 0.06862818 -0.00810689
v 0.00287557 0.06862107 -0.00809819
v 0.00571767 0.06755888 -0.00900580
v -0.00525467 0.06655122 -0.00736166
v -0.00468312 0.06681796 -0.00785606
v -0.00599646 0.06619084 -0.00686581
v 0.00611029 0.06770707 -0.00869408
v 0.00732114 0.06649313 -0.00893621
v 0.00753134 0.06635562 -0.00880137
v 0.00801776 0.06575576 -0.00869553
v 0.00601821 0.06815873 -0.00814169
v 0.00649769 0.06816822 -0.00766613
v 0.00656197 0.06773078 -0.00825043
v 0.00610334 0.06873132 -0.00725583
v 0.00601821 0.06916758 -0.00669473
v 0.00675827 0.06743559 -0.00842441
v 0.00695458 0.06713922 -0.00859839
v 0.00696674 0.06765016 -0.00763859
v 0.00748443 0.06669230 -0.00835192
v 0.00769290 0.06639711 -0.00835192
v 0.00808204 0.06584586 -0.00835192
v 0.00656023 0.06826069 -0.00736166
v 0.00832873 0.06548429 -0.00835192
v 0.00849029 0.06523652 -0.00835192
v 0.00857194 0.06493185 -0.00783867
v 0.00870918 0.06441617 -0.00785606
v 0.00848855 0.06523652 -0.00799235
v 0.00869702 0.06392182 -0.00785606
v 0.00859974 0.06342629 -0.00785606
v 0.00848508 0.06313585 -0.00785606
v 0.00797086 0.06266047 -0.00736166
v 0.00796738 0.06266758 -0.00770818
v 0.00792395 0.06269603 -0.00803875
v 0.00759388 0.06260594 -0.00817213
v 0.00819496 0.06303034 -0.00825622
v 0.00694242 0.06219339 -0.00809674
v 0.00080305 0.05818883 -0.00713259
v -0.00828787 0.06248028 -0.00533767
v -0.00836083 0.06281103 -0.00547395
v -0.00840079 0.06267469 -0.00514339
v -0.00889590 0.06317141 -0.00365729
v -0.00889590 0.06318564 -0.00365729
v -0.00892369 0.06324966 -0.00340066
v -0.00897581 0.06333382 -0.00290481
v -0.00849634 0.06384358 -0.00438946
v -0.00828092 0.06396806 -0.00537971
v -0.00620841 0.05818883 -0.00389796
v -0.00890111 0.06267232 -0.00261919
v -0.00896713 0.06291653 -0.00243651
v -0.00896365 0.06290705 -0.00288741
v -0.00887853 0.06272567 -0.00303965
v -0.00835562 0.06233090 -0.00488531
v -0.00884726 0.06283355 -0.00340066
v -0.00741578 0.06369065 -0.00761829
v -0.00747137 0.06429762 -0.00719058
v -0.00733413 0.06402022 -0.00752115
v -0.00800818 0.06444344 -0.00533912
v -0.00835041 0.06409134 -0.00438946
v -0.00791263 0.06467697 -0.00488531
v -0.00883683 0.06358159 -0.00290481
v -0.00837473 0.06413402 -0.00389361
v -0.00792479 0.06469239 -0.00438946
v -0.00793695 0.06470543 -0.00389361
v -0.00794911 0.06471254 -0.00340066
v -0.00745921 0.06521400 -0.00537971
v -0.00694325 0.06567871 -0.00587556
v -0.00634912 0.06610074 -0.00488531
v -0.00549614 0.06669467 -0.00340066
v -0.00634391 0.06610548 -0.00537971
v -0.00631959 0.06609481 -0.00587556
v -0.00745921 0.06520688 -0.00488531
v -0.00607116 0.06623351 -0.00587556
v -0.00471613 0.06702186 -0.00537971
v -0.00418801 0.06731349 -0.00537971
v -0.00444512 0.06714633 -0.00569288
v -0.00603642 0.06621336 -0.00636996
v 0.00140761 0.06963703 -0.00666428
v 0.00175505 0.06967260 -0.00673098
v 0.00175505 0.06955049 -0.00697745
v -0.00306750 0.06770114 -0.00785606
v -0.00369290 0.06735972 -0.00785606
v -0.00265925 0.06801648 -0.00685712
v -0.00243688 0.06812198 -0.00701660
v -0.00182190 0.06855706 -0.00587556
v -0.00157522 0.06868390 -0.00587556
v -0.00167597 0.06852623 -0.00688466
v 0.00008731 0.06958369 -0.00537971
v -0.00468312 0.06686419 -0.00736166
v 0.00001435 0.06962043 -0.00466784
v 0.00100978 0.07011359 -0.00465044
v 0.00122346 0.07018354 -0.00484327
v 0.00175505 0.07028786 -0.00488531
v 0.00225016 0.07029853 -0.00537971
v 0.00274527 0.07019658 -0.00583497
v 0.00225016 0.07017287 -0.00578132
v 0.00225016 0.07007329 -0.00602925
v 0.00175505 0.06932288 -0.00736166
v 0.00225016 0.06955642 -0.00701805
v 0.00208339 0.06913201 -0.00761974
v 0.00571767 0.06776160 -0.00875787
v 0.00472745 0.06807457 -0.00853025
v -0.00567334 0.06641252 -0.00636996
v -0.00508963 0.06673260 -0.00636996
v 0.00571767 0.06800937 -0.00843601
v 0.00571767 0.06819549 -0.00818953
v 0.00587750 0.06861040 -0.00758639
v 0.00601821 0.06916758 -0.00650335
v 0.00642646 0.06857484 -0.00686581
v 0.00680865 0.06793705 -0.00736166
v 0.00571767 0.06922567 -0.00677012
v 0.00472745 0.06974373 -0.00631197
v 0.00506795 0.06967615 -0.00622353
v 0.00698932 0.06768928 -0.00736166
v 0.00753829 0.06677172 -0.00785606
v 0.00736457 0.06701949 -0.00785606
v 0.00698932 0.06769165 -0.00703255
v 0.00849203 0.06477892 -0.00749650
v 0.00788747 0.06601775 -0.00736166
v 0.00816195 0.06540723 -0.00736166
v 0.00672005 0.06540723 -0.00389361
v 0.00701712 0.06529580 -0.00448950
v 0.00648032 0.06520451 -0.00310779
v 0.00852677 0.06441617 -0.00741966
v 0.00842775 0.06392182 -0.00714999
v 0.00852503 0.06392182 -0.00739646
v 0.00827487 0.06342629 -0.00686581
v 0.00840343 0.06342629 -0.00723263
v 0.00848508 0.06342629 -0.00748055
v 0.00845033 0.06316548 -0.00757914
v 0.00795870 0.06266995 -0.00707314
v 0.00292247 0.05818883 -0.00092286
v 0.00292421 0.05818883 -0.00106930
v 0.00292768 0.05818883 -0.00141871
v 0.00291900 0.05818883 -0.00154920
v 0.00289120 0.05818883 -0.00191456
v 0.00287383 0.05818883 -0.00209434
v 0.00284256 0.05818883 -0.00240896
v 0.00273659 0.05818883 -0.00293236
v 0.00225885 0.05818883 -0.00511584
v 0.00178111 0.05818883 -0.00655990
v 0.00163866 0.05818883 -0.00675563
v 0.00125994 0.05818883 -0.00693396
v -0.00879340 0.06297581 -0.00385157
v -0.00892369 0.06308131 -0.00340066
v -0.00898102 0.06332790 -0.00240896
v -0.00618582 0.05818883 -0.00366454
v -0.00873955 0.06247909 -0.00243651
v -0.00886637 0.06274227 -0.00228862
v -0.00614587 0.05818883 -0.00340066
v -0.00607116 0.05818883 -0.00293236
v -0.00580537 0.05818883 -0.00141436
v -0.00893759 0.06307302 -0.00208854
v -0.00855367 0.06396924 -0.00291786
v -0.00839558 0.06416603 -0.00309184
v -0.00882815 0.06357566 -0.00240896
v -0.00858841 0.06392182 -0.00240896
v -0.00840600 0.06418026 -0.00240896
v -0.00840253 0.06417670 -0.00276273
v -0.00794911 0.06470898 -0.00290481
v -0.00744879 0.06519385 -0.00438946
v -0.00711350 0.06549259 -0.00488821
v -0.00692762 0.06566685 -0.00537971
v -0.00548746 0.06669230 -0.00290481
v -0.00488811 0.06711433 -0.00240896
v -0.00549093 0.06668637 -0.00389361
v -0.00486900 0.06710484 -0.00290481
v -0.00547182 0.06667214 -0.00438946
v -0.00396912 0.06765253 -0.00240896
v -0.00418801 0.06745930 -0.00340066
v -0.00359214 0.06771773 -0.00438946
v -0.00196783 0.06863174 -0.00420533
v -0.00216240 0.06851082 -0.00437786
v -0.00194351 0.06861870 -0.00453590
v -0.00441906 0.06713092 -0.00602345
v -0.00220583 0.06844443 -0.00488531
v -0.00257586 0.06819786 -0.00537971
v 0.00225016 0.06991325 -0.00636996
v 0.00225016 0.06970461 -0.00677012
v -0.00335761 0.06758852 -0.00736166
v -0.00369290 0.06745100 -0.00686581
v -0.00191571 0.06860329 -0.00488531
v -0.00187054 0.06858077 -0.00537971
v -0.00116697 0.06900043 -0.00483747
v -0.00096892 0.06912253 -0.00464174
v -0.00434783 0.06709299 -0.00686581
v -0.00123646 0.06900635 -0.00438946
v -0.00098803 0.06913201 -0.00438946
v -0.00126599 0.06902414 -0.00389361
v -0.00101930 0.06914743 -0.00389361
v 0.00026798 0.06976032 -0.00438946
v -0.00131289 0.06904785 -0.00290481
v -0.00106447 0.06916995 -0.00290481
v -0.00210681 0.06870050 -0.00191456
v 0.00100978 0.07011359 -0.00463159
v 0.00125994 0.07014679 -0.00454895
v 0.00125994 0.07007329 -0.00430102
v 0.00175505 0.07016694 -0.00450400
v 0.00225016 0.07026415 -0.00488531
v 0.00324038 0.07028904 -0.00537971
v 0.00274527 0.07029616 -0.00537971
v 0.00373549 0.07022147 -0.00583932
v 0.00324038 0.07021792 -0.00585962
v 0.00274527 0.07009581 -0.00608144
v 0.00324038 0.07010529 -0.00610754
v 0.00373549 0.07008989 -0.00608724
v 0.00274527 0.06970698 -0.00674838
v 0.00225016 0.06927664 -0.00740371
v 0.00241520 0.06911186 -0.00759654
v 0.00522256 0.06804374 -0.00848675
v 0.00522256 0.06823461 -0.00823883
v 0.00373549 0.06858314 -0.00804890
v -0.00438953 0.06711551 -0.00636996
v 0.00440085 0.06960621 -0.00660339
v 0.00498456 0.06912372 -0.00711664
v 0.00554742 0.06864123 -0.00762844
v 0.00571420 0.06877993 -0.00739791
v 0.00571767 0.06905496 -0.00701660
v 0.00593483 0.06908697 -0.00617278
v 0.00613287 0.06890322 -0.00635112
v 0.00506795 0.06967615 -0.00598865
v 0.00472745 0.06957776 -0.00655990
v 0.00423408 0.06977455 -0.00641201
v 0.00408989 0.07017998 -0.00575088
v 0.00706403 0.06739054 -0.00686726
v 0.00651680 0.06825594 -0.00648305
v 0.00692157 0.06755770 -0.00670198
v 0.00777629 0.06585297 -0.00691511
v 0.00700148 0.06674445 -0.00601475
v 0.00620931 0.06837923 -0.00587556
v 0.00562560 0.06643504 -0.00237272
v 0.00484732 0.06638051 -0.00044296
v 0.00493071 0.06605095 -0.00028783
v 0.00453636 0.06578184 0.00094890
v 0.00793785 0.06455368 -0.00614089
v 0.00399608 0.06567634 0.00231901
v 0.00841559 0.06441617 -0.00717173
v 0.00808899 0.06392182 -0.00636996
v 0.00830788 0.06392182 -0.00686581
v 0.00796738 0.06342629 -0.00608144
v 0.00808725 0.06342629 -0.00636996
v 0.00795696 0.06315956 -0.00610174
v 0.00800560 0.06308369 -0.00636996
v 0.00274527 0.05818883 0.00090250
v 0.00280781 0.05818883 0.00055744
v 0.00284603 0.05818883 0.00006739
v -0.00893759 0.06325795 -0.00208854
v -0.00840253 0.06417670 -0.00215234
v -0.00843380 0.06213174 -0.00209434
v -0.00852587 0.06244353 -0.00192326
v -0.00563165 0.05818883 -0.00091851
v -0.00876734 0.06291653 -0.00191891
v -0.00833651 0.06284778 -0.00127083
v -0.00839732 0.06317852 -0.00117079
v -0.00818711 0.06442684 -0.00240896
v -0.00793869 0.06469594 -0.00240896
v -0.00743489 0.06518199 -0.00389361
v -0.00690677 0.06565025 -0.00472583
v -0.00760688 0.06499350 -0.00293236
v -0.00765552 0.06492711 -0.00240896
v -0.00741925 0.06516895 -0.00340066
v -0.00547008 0.06668162 -0.00240896
v -0.00517823 0.06690331 -0.00240896
v -0.00487943 0.06710247 -0.00191456
v -0.00463274 0.06727199 -0.00191456
v -0.00400212 0.06767743 -0.00141871
v -0.00336282 0.06808049 -0.00092286
v -0.00424360 0.06751976 -0.00191456
v -0.00399518 0.06766913 -0.00191456
v -0.00464142 0.06726251 -0.00240896
v -0.00484468 0.06709180 -0.00340066
v -0.00334024 0.06807338 -0.00141871
v -0.00306055 0.06819311 -0.00191456
v -0.00226837 0.06852386 -0.00340066
v -0.00198868 0.06864241 -0.00389361
v -0.00171072 0.06879297 -0.00389361
v -0.00175241 0.06873488 -0.00437786
v -0.00166729 0.06873488 -0.00488531
v -0.00205122 0.06867679 -0.00290481
v -0.00235523 0.06857603 -0.00191456
v -0.00270094 0.06842073 -0.00141871
v -0.00311614 0.06822749 -0.00092286
v -0.00234655 0.06858906 -0.00141871
v 0.00076483 0.06989310 -0.00389361
v -0.00270094 0.06841717 -0.00092286
v -0.00209812 0.06867916 -0.00141871
v -0.00203732 0.06864478 -0.00111714
v -0.00097761 0.06912372 -0.00215524
v 0.00076483 0.06974373 -0.00340066
v 0.00125994 0.06994051 -0.00389361
v 0.00175505 0.07006499 -0.00425608
v 0.00225016 0.07013849 -0.00457359
v 0.00273311 0.07019776 -0.00485342
v 0.00125994 0.06963703 -0.00310489
v 0.00324038 0.07018354 -0.00496796
v 0.00377024 0.07022147 -0.00534057
v 0.00373549 0.06987768 -0.00636996
v 0.00324038 0.06968564 -0.00670778
v 0.00274527 0.06952797 -0.00699485
v 0.00373549 0.06902295 -0.00748055
v 0.00472745 0.06851675 -0.00796190
v 0.00472745 0.06826899 -0.00828232
v 0.00472745 0.06870761 -0.00771398
v 0.00423408 0.06945921 -0.00682522
v 0.00407078 0.06962873 -0.00663384
v 0.00517913 0.06925175 -0.00689191
v 0.00531464 0.06909289 -0.00707459
v 0.00597478 0.06864123 -0.00560444
v 0.00522951 0.06948292 -0.00584367
v 0.00558391 0.06921500 -0.00587556
v 0.00545883 0.06861633 -0.00465189
v 0.00495503 0.06761341 -0.00218858
v 0.00551268 0.06818600 -0.00404295
v 0.00638998 0.06840413 -0.00633952
v 0.00408989 0.07017998 -0.00547830
v 0.00603037 0.06834960 -0.00541596
v 0.00545014 0.06759089 -0.00320058
v 0.00461106 0.06641608 0.00008334
v 0.00446166 0.06611259 0.00077057
v 0.00440954 0.06592884 0.00109099
v 0.00827835 0.06441617 -0.00686581
v 0.00621452 0.06491170 -0.00240896
v 0.00603385 0.06491170 -0.00201025
v 0.00399608 0.06559335 0.00231901
v 0.00652548 0.06441617 -0.00301790
v 0.00576458 0.06491170 -0.00141871
v 0.00444602 0.06659271 0.00025877
v 0.00397523 0.06613986 0.00178982
v 0.00387274 0.06603554 0.00204789
v 0.00351487 0.06616713 0.00231901
v 0.00370249 0.06586601 0.00242195
v 0.00348186 0.06559691 0.00278877
v 0.00349402 0.06526616 0.00279601
v 0.00796217 0.06392182 -0.00609014
v 0.00748791 0.06392182 -0.00505205
v 0.00737151 0.06392182 -0.00480412
v 0.00748270 0.06352943 -0.00506655
v 0.00763905 0.06392182 -0.00537971
v 0.00456936 0.06491170 0.00097790
v 0.00698064 0.06358277 -0.00409514
v 0.00223279 0.05818883 0.00209139
v 0.00229186 0.05818883 0.00197395
v 0.00267752 0.05818883 0.00106344
v -0.00846854 0.06337769 -0.00145786
v -0.00840947 0.06369184 -0.00164779
v -0.00847375 0.06388270 -0.00195806
v -0.00839732 0.06317971 -0.00117079
v -0.00830177 0.06402259 -0.00182177
v -0.00797169 0.06425850 -0.00155935
v -0.00783793 0.06458925 -0.00179132
v -0.00792305 0.06468053 -0.00212189
v -0.00843727 0.06261423 -0.00160139
v -0.00512437 0.05818883 0.00006159
v -0.00461015 0.05818883 0.00103734
v -0.00407683 0.05818883 0.00193625
v -0.00349485 0.05818883 0.00248430
v -0.00604337 0.06624774 -0.00290481
v -0.00571851 0.06648246 -0.00240896
v -0.00545097 0.06666503 -0.00203200
v -0.00522340 0.06682507 -0.00188557
v -0.00483252 0.06706098 -0.00141871
v -0.00458583 0.06725658 -0.00141871
v -0.00396912 0.06765846 -0.00092286
v -0.00425055 0.06750435 -0.00141871
v -0.00369290 0.06785525 -0.00092286
v -0.00369290 0.06786711 -0.00141871
v -0.00329507 0.06804374 -0.00042846
v -0.00309182 0.06821090 -0.00141871
v -0.00229964 0.06854165 -0.00290481
v -0.00201995 0.06866019 -0.00340066
v -0.00270094 0.06838990 -0.00191456
v -0.00304665 0.06818837 -0.00042846
v -0.00270094 0.06830811 -0.00042846
v -0.00220583 0.06839820 -0.00042846
v -0.00171072 0.06866731 -0.00104900
v -0.00072050 0.06913913 -0.00211029
v 0.00076483 0.06963822 -0.00310054
v -0.00022539 0.06929680 -0.00240896
v 0.00026798 0.06935251 -0.00240896
v -0.00022539 0.06879297 -0.00092286
v -0.00022539 0.06866731 -0.00056185
v 0.00026798 0.06900043 -0.00141871
v 0.00076483 0.06937622 -0.00240896
v 0.00076483 0.06920196 -0.00195516
v 0.00076483 0.06910475 -0.00170723
v 0.00225016 0.06985042 -0.00389361
v 0.00289120 0.07009937 -0.00466639
v 0.00324038 0.07007566 -0.00472003
v 0.00362779 0.07014916 -0.00504770
v 0.00225016 0.06968089 -0.00349925
v 0.00395786 0.07010292 -0.00514774
v 0.00373549 0.06965244 -0.00666284
v 0.00423234 0.06917944 -0.00718913
v 0.00423234 0.06898857 -0.00743706
v 0.00498804 0.06716056 -0.00163474
v 0.00424624 0.06999268 -0.00534057
v 0.00495503 0.06960028 -0.00565809
v 0.00460932 0.06972238 -0.00537971
v 0.00450856 0.06964059 -0.00509119
v 0.00548836 0.06913676 -0.00560154
v 0.00448077 0.06714159 -0.00067494
v 0.00784925 0.06439957 -0.00591906
v 0.00670268 0.06441617 -0.00340066
v 0.00715262 0.06441617 -0.00438946
v 0.00349402 0.06514168 0.00279601
v 0.00363473 0.06494964 0.00256694
v 0.00396133 0.06526260 0.00225522
v 0.00400476 0.06666147 0.00084016
v 0.00387795 0.06656782 0.00117073
v 0.00362605 0.06624655 0.00204789
v 0.00340889 0.06659153 0.00170572
v 0.00324212 0.06650024 0.00205949
v 0.00250032 0.06714159 0.00180286
v 0.00291552 0.06660457 0.00223057
v 0.00324038 0.06625604 0.00240165
v 0.00328729 0.06591225 0.00267568
v 0.00315179 0.06575339 0.00284821
v 0.00202259 0.06567041 0.00329476
v 0.00274527 0.06540723 0.00308744
v 0.00250727 0.06468409 0.00329041
v 0.00252812 0.06441617 0.00330636
v 0.00252986 0.06407238 0.00330926
v 0.00443560 0.06491170 0.00122437
v 0.00540497 0.06441617 -0.00079527
v 0.00359825 0.06441617 0.00243645
v 0.00186971 0.05818883 0.00244950
v -0.00829482 0.06350927 -0.00131867
v -0.00786051 0.06410320 -0.00122878
v -0.00545445 0.06422531 0.00033126
v -0.00444512 0.06468172 0.00081696
v -0.00731502 0.06392182 -0.00073293
v -0.00697279 0.06427628 -0.00063724
v -0.00687898 0.06460585 -0.00069958
v -0.00796475 0.06377245 -0.00112149
v -0.00270441 0.05818883 0.00301784
v -0.00257412 0.06491170 0.00186956
v -0.00740015 0.06465445 -0.00118239
v -0.00750785 0.06476707 -0.00151295
v -0.00642035 0.06565737 -0.00116644
v -0.00709960 0.06531358 -0.00191456
v -0.00654890 0.06576051 -0.00191456
v -0.00591308 0.06614223 -0.00120413
v -0.00541970 0.06664013 -0.00170143
v -0.00452503 0.06721391 -0.00092286
v -0.00421754 0.06746167 -0.00092286
v -0.00538670 0.06661287 -0.00141871
v -0.00393958 0.06763594 -0.00067349
v -0.00371374 0.06776397 -0.00047631
v -0.00389268 0.06759444 -0.00034292
v -0.00356261 0.06771773 -0.00008340
v -0.00296326 0.06813858 -0.00017039
v -0.00270094 0.06817415 -0.00009644
v -0.00217630 0.06820734 0.00007899
v -0.00199041 0.06813858 0.00033126
v -0.00171072 0.06815636 0.00038056
v -0.00171072 0.06827491 0.00006739
v -0.00121561 0.06833300 0.00006739
v -0.00121561 0.06851201 -0.00042846
v -0.00171072 0.06858432 -0.00080107
v 0.00026798 0.06910831 -0.00170578
v -0.00022539 0.06896131 -0.00141871
v -0.00063364 0.06864478 -0.00062129
v -0.00076740 0.06856891 -0.00044586
v -0.00072050 0.06838990 0.00006739
v -0.00022539 0.06857721 -0.00031392
v 0.00026798 0.06880956 -0.00092286
v 0.00026798 0.06866968 -0.00056765
v 0.00026798 0.06856654 -0.00031972
v 0.00076483 0.06897909 -0.00141871
v 0.00125994 0.06917825 -0.00203200
v 0.00324038 0.06992985 -0.00438946
v 0.00274527 0.06978403 -0.00389361
v 0.00336025 0.06959317 -0.00369353
v 0.00393006 0.06958487 -0.00419808
v 0.00406209 0.06967734 -0.00452865
v 0.00252986 0.06765372 0.00084741
v 0.00303713 0.06815992 -0.00062419
v 0.00357393 0.06917588 -0.00305125
v 0.00354092 0.06866138 -0.00210014
v 0.00373897 0.06897672 -0.00289321
v 0.00422887 0.06976151 -0.00490996
v 0.00400303 0.06864241 -0.00262934
v 0.00403430 0.06718071 -0.00010949
v 0.00179675 0.05818883 0.00251619
v 0.00397349 0.06812436 -0.00167969
v 0.00394222 0.06760512 -0.00072858
v 0.00354787 0.06668518 0.00137661
v 0.00307708 0.06670178 0.00190000
v 0.00347491 0.06762645 -0.00019648
v 0.00322301 0.06737632 0.00054149
v 0.00285472 0.06704794 0.00155349
v 0.00225016 0.06718782 0.00187681
v 0.00225016 0.06701356 0.00212473
v 0.00258545 0.06669467 0.00233931
v 0.00287209 0.06608296 0.00274382
v 0.00254202 0.06617068 0.00280906
v 0.00272269 0.06591225 0.00290475
v 0.00221194 0.06586246 0.00311788
v 0.00209034 0.06540723 0.00331796
v 0.00233876 0.06540723 0.00323097
v 0.00175505 0.06597626 0.00319037
v 0.00175505 0.06572850 0.00331796
v 0.00175505 0.06540723 0.00338176
v 0.00175505 0.06491170 0.00344990
v 0.00225885 0.06487376 0.00334696
v 0.00225016 0.06441617 0.00341800
v 0.00228664 0.06391352 0.00341220
v 0.00217720 0.06342629 0.00340640
v -0.00753044 0.06432370 -0.00107075
v -0.00089248 0.06540723 0.00274817
v -0.00250984 0.06526260 0.00183476
v -0.00604858 0.06441617 -0.00010079
v -0.00150051 0.06571664 0.00232046
v -0.00596172 0.06472914 -0.00015444
v -0.00652979 0.06491170 -0.00060244
v -0.00643425 0.06517843 -0.00066334
v -0.00494370 0.06517962 0.00032401
v -0.00392569 0.06563010 0.00080101
v -0.00585749 0.06505870 -0.00022258
v -0.00261234 0.05818883 0.00306714
v -0.00022539 0.06540723 0.00312223
v -0.00064580 0.06540723 0.00289025
v -0.00691025 0.06515710 -0.00117369
v -0.00720905 0.06496267 -0.00134332
v -0.00597735 0.06571190 -0.00062999
v -0.00549093 0.06621810 -0.00061114
v -0.00500103 0.06670652 -0.00058795
v -0.00595303 0.06617542 -0.00153470
v -0.00447639 0.06717360 -0.00058650
v -0.00477345 0.06701119 -0.00092286
v -0.00571851 0.06633783 -0.00138971
v -0.00439648 0.06708706 -0.00025593
v -0.00334024 0.06753873 0.00024717
v -0.00301017 0.06766913 0.00035011
v -0.00315262 0.06785881 0.00003839
v -0.00406640 0.06726488 -0.00008775
v -0.00232049 0.06808879 0.00025152
v -0.00270094 0.06775330 0.00044870
v -0.00149357 0.06765609 0.00132441
v -0.00121561 0.06771536 0.00140705
v -0.00121561 0.06792401 0.00105764
v -0.00121561 0.06809116 0.00070677
v -0.00082821 0.06811487 0.00076767
v -0.00121561 0.06818600 0.00045885
v -0.00049813 0.06813384 0.00081696
v -0.00044428 0.06813384 0.00081696
v 0.00026798 0.06839228 0.00006739
v 0.00064670 0.06864715 -0.00062854
v 0.00125994 0.06906918 -0.00178408
v -0.00011421 0.06811606 0.00077782
v 0.00321433 0.06970223 -0.00387187
v 0.00274527 0.06964652 -0.00358334
v 0.00274527 0.06870169 -0.00150135
v 0.00250901 0.06813503 -0.00017184
v 0.00390401 0.06906563 -0.00324988
v 0.00225016 0.06768336 0.00091555
v 0.00225016 0.06756125 0.00116203
v 0.00225016 0.06735972 0.00155349
v 0.00311530 0.06771655 0.00006739
v 0.00350792 0.06814451 -0.00114904
v 0.00336720 0.06805086 -0.00081847
v 0.00209381 0.06293076 0.00334841
v 0.00203475 0.06259882 0.00330781
v 0.00073877 0.05818883 0.00292795
v 0.00175505 0.06747590 0.00155349
v 0.00175505 0.06725184 0.00196525
v 0.00175505 0.06707046 0.00221317
v 0.00225016 0.06676579 0.00240890
v 0.00225016 0.06648602 0.00265683
v 0.00225016 0.06623825 0.00286706
v 0.00175505 0.06631531 0.00294245
v 0.00125994 0.06603435 0.00323097
v 0.00125994 0.06578659 0.00333246
v 0.00125994 0.06540723 0.00340495
v 0.00175505 0.06441617 0.00351224
v 0.00175505 0.06392182 0.00355429
v 0.00175505 0.06342629 0.00354124
v 0.00175505 0.06293076 0.00346730
v -0.00022539 0.06590158 0.00303089
v -0.00121561 0.06540723 0.00255969
v -0.00055199 0.06590158 0.00283661
v -0.00048250 0.06616357 0.00279891
v -0.00140149 0.06604739 0.00225667
v -0.00168466 0.06588972 0.00213633
v -0.00402645 0.06530054 0.00086481
v -0.00568550 0.06544517 -0.00028203
v -0.00348617 0.06620862 0.00083726
v -0.00496802 0.06620269 -0.00015589
v -0.00452156 0.06675750 -0.00012254
v -0.00232744 0.06590158 0.00172022
v -0.00198868 0.06619913 0.00182026
v -0.00290593 0.06607940 0.00127802
v -0.00195046 0.05818883 0.00341220
v 0.00008558 0.06540723 0.00327157
v -0.00350007 0.06720916 0.00035301
v -0.00292157 0.06710603 0.00079377
v -0.00259149 0.06727674 0.00089671
v -0.00241951 0.06760749 0.00078797
v -0.00167945 0.06735972 0.00140415
v -0.00122256 0.06739410 0.00165788
v -0.00082300 0.06756244 0.00175212
v -0.00049292 0.06764187 0.00180721
v -0.00068228 0.06774974 0.00157379
v -0.00068575 0.06803307 0.00101269
v -0.00039390 0.06764187 0.00180721
v -0.00022713 0.06774145 0.00159554
v -0.00025840 0.06802596 0.00101269
v 0.00026798 0.06820497 0.00047335
v 0.00149447 0.06763357 0.00130121
v 0.00076483 0.06816585 0.00039071
v 0.00076483 0.06831285 0.00006739
v 0.00079263 0.06854283 -0.00044876
v 0.00026798 0.06772722 0.00149839
v 0.00026798 0.06808998 0.00072127
v 0.00225016 0.06815755 -0.00012254
v 0.00225016 0.06804493 0.00012538
v 0.00225016 0.06784577 0.00056324
v -0.00120519 0.05818883 0.00343975
v 0.00175505 0.06761223 0.00125482
v 0.00076483 0.06768928 0.00142010
v 0.00076483 0.06756955 0.00166803
v 0.00026798 0.06760630 0.00174487
v -0.00006556 0.06762882 0.00178837
v 0.00125994 0.06709062 0.00224217
v 0.00175505 0.06682270 0.00246980
v 0.00175505 0.06656308 0.00271772
v 0.00125994 0.06634732 0.00298305
v 0.00076483 0.06636984 0.00300769
v 0.00076483 0.06605095 0.00325562
v 0.00076483 0.06580318 0.00332086
v 0.00042955 0.06576051 0.00330491
v 0.00076483 0.06540723 0.00337161
v 0.00125994 0.06491170 0.00345135
v -0.00171072 0.05818883 0.00346150
v -0.00156305 0.05818883 0.00346440
v 0.00125994 0.06441617 0.00348325
v -0.00017675 0.06635562 0.00286271
v 0.00026625 0.06591580 0.00323532
v -0.00061800 0.06678713 0.00238136
v -0.00094808 0.06662116 0.00228422
v -0.00155263 0.06674090 0.00185796
v -0.00188444 0.06652870 0.00175357
v -0.00467617 0.06591462 0.00017613
v -0.00367726 0.06684878 0.00040955
v -0.00383188 0.06698511 0.00024137
v -0.00246468 0.06665910 0.00131281
v 0.00002998 0.06512034 0.00328607
v 0.00033400 0.06540723 0.00331796
v -0.00199389 0.06717479 0.00132731
v -0.00139107 0.06707165 0.00175792
v -0.00106100 0.06723169 0.00185651
v 0.00001956 0.06664606 0.00279167
v 0.00002998 0.06664606 0.00279167
v 0.00026798 0.06712736 0.00228277
v 0.00076483 0.06710840 0.00226392
v 0.00140240 0.06811369 0.00027762
v 0.00125994 0.06684285 0.00249589
v 0.00125994 0.06659508 0.00274237
v 0.00076483 0.06661761 0.00276412
v 0.00036006 0.06663302 0.00278007
v 0.00022455 0.06643978 0.00294970
v 0.00076483 0.06491170 0.00339915
v -0.00122256 0.06690094 0.00196090
f 1 2 3
f 1 3 4
f 1 4 5
f 1 5 6
f 1 6 7
f 1 7 8
f 1 8 9
f 1 9 10
f 1 10 2
f 2 11 12
f 2 12 13
f 2 13 3
f 2 10 14
f 2 14 11
f 3 13 4
f 4 15 5
f 4 13 15
f 5 15 13
f 5 13 16
f 5 16 17
f 5 17 18
f 5 18 19
f 5 19 6
f 6 20 21
f 6 21 8
f 6 8 7
f 6 19 22
f 6 22 23
f 6 23 24
f 6 24 25
f 6 25 26
f 6 26 20
f 8 27 28
f 8 28 9
f 8 21 27
f 9 28 29
f 9 29 10
f 10 29 30
f 10 30 14
f 11 14 31
f 11 31 32
f 11 32 33
f 11 33 34
f 11 34 35
f 11 35 36
f 11 36 12
f 12 37 38
f 12 38 39
f 12 39 13
f 12 36 40
f 12 40 41
f 12 41 42
f 12 42 37
f 13 39 43
f 13 43 44
f 13 44 45
f 13 45 46
f 13 46 47
f 13 47 16
f 14 30 31
f 16 47 48
f 16 48 18
f 16 18 17
f 18 48 49
f 18 49 50
f 18 50 19
f 19 50 51
f 19 51 22
f 20 52 21
f 20 26 52
f 21 52 27
f 22 53 54
f 22 54 23
f 22 51 53
f 23 54 55
f 23 55 24
f 24 55 56
f 24 56 25
f 25 56 57
f 25 57 58
f 25 58 59
f 25 59 60
f 25 60 61
f 25 61 26
f 26 61 52
f 27 52 62
f 27 62 63
f 27 63 64
f 27 64 28
f 28 65 66
f 28 66 29
f 28 64 65
f 29 67 30
f 29 66 68
f 29 68 69
f 29 69 67
f 30 70 71
f 30 71 31
f 30 67 72
f 30 72 73
f 30 73 70
f 31 74 32
f 31 71 75
f 31 75 76
f 31 76 74
f 32 35 33
f 32 74 35
f 33 35 34
f 35 74 77
f 35 77 78
f 35 78 36
f 36 78 79
f 36 79 80
f 36 80 81
f 36 81 40
f 37 82 83
f 37 83 38
f 37 42 82
f 38 83 84
f 38 84 85
f 38 85 86
f 38 86 87
f 38 87 39
f 39 87 88
f 39 88 89
f 39 89 90
f 39 90 91
f 39 91 43
f 40 92 93
f 40 93 94
f 40 94 41
f 40 81 80
f 40 80 92
f 41 94 42
f 42 94 95
f 42 95 96
f 42 96 97
f 42 97 82
f 43 91 44
f 44 91 45
f 45 91 98
f 45 98 99
f 45 99 100
f 45 100 101
f 45 101 102
f 45 102 103
f 45 103 46
f 46 103 47
f 47 103 104
f 47 104 53
f 47 53 48
f 48 53 105
f 48 105 49
f 49 105 106
f 49 106 51
f 49 51 50
f 51 106 53
f 52 61 62
f 53 104 54
f 53 106 105
f 54 103 107
f 54 107 108
f 54 108 109
f 54 109 55
f 54 104 103
f 55 110 111
f 55 111 56
f 55 109 103
f 55 103 110
f 56 111 112
f 56 112 113
f 56 113 114
f 56 114 115
f 56 115 116
f 56 116 57
f 57 116 58
f 58 116 117
f 58 117 118
f 58 118 59
f 59 118 119
f 59 119 60
f 60 119 120
f 60 120 62
f 60 62 61
f 62 121 63
f 62 120 122
f 62 122 121
f 63 123 124
f 63 124 125
f 63 125 64
f 63 121 123
f 64 126 65
f 64 125 127
f 64 127 128
f 64 128 129
f 64 129 126
f 65 126 130
f 65 130 131
f 65 131 132
f 65 132 66
f 66 132 68
f 67 69 72
f 68 132 69
f 69 133 134
f 69 134 135
f 69 135 136
f 69 136 137
f 69 137 138
f 69 138 139
f 69 139 140
f 69 140 148
f 69 148 72
f 69 132 141
f 69 141 142
f 69 142 143
f 69 143 144
f 69 144 145
f 69 145 133
f 70 146 71
f 70 73 146
f 71 146 147
f 71 147 75
f 72 148 149
f 72 149 73
f 73 149 150
f 73 150 151
f 73 151 152
f 73 152 153
f 73 153 154
f 73 154 146
f 74 76 161
f 74 161 155
f 74 155 78
f 74 78 77
f 75 147 156
f 75 156 157
f 75 157 158
f 75 158 159
f 75 159 160
f 75 160 161
f 75 161 76
f 78 155 161
f 78 161 79
f 79 161 80
f 80 161 162
f 80 162 163
f 80 163 164
f 80 164 165
f 80 165 166
f 80 166 92
f 82 97 167
f 82 167 168
f 82 168 169
f 82 169 170
f 82 170 171
f 82 171 83
f 83 171 172
f 83 172 173
f 83 173 84
f 84 173 274
f 84 274 275
f 84 275 174
f 84 174 85
f 85 174 175
f 85 175 86
f 86 175 176
f 86 176 87
f 87 176 177
f 87 177 178
f 87 178 88
f 88 178 89
f 89 178 179
f 89 179 90
f 90 179 180
f 90 180 181
f 90 181 91
f 91 181 182
f 91 182 98
f 92 166 93
f 93 166 183
f 93 183 94
f 94 183 95
f 95 183 165
f 95 165 184
f 95 184 96
f 96 185 186
f 96 186 167
f 96 167 97
f 96 184 164
f 96 164 187
f 96 187 185
f 98 182 188
f 98 188 189
f 98 189 100
f 98 100 99
f 100 189 188
f 100 188 190
f 100 190 191
f 100 191 110
f 100 110 192
f 100 192 103
f 100 103 101
f 101 103 102
f 103 192 110
f 103 109 108
f 103 108 107
f 110 191 193
f 110 193 111
f 111 193 194
f 111 194 112
f 112 195 196
f 112 196 114
f 112 114 113
f 112 194 197
f 112 197 195
f 114 196 198
f 114 198 199
f 114 199 200
f 114 200 115
f 115 200 201
f 115 201 202
f 115 202 203
f 115 203 204
f 115 204 116
f 116 204 117
f 117 205 118
f 117 204 206
f 117 206 207
f 117 207 205
f 118 205 119
f 119 205 208
f 119 208 120
f 120 208 122
f 121 209 210
f 121 210 123
f 121 122 211
f 121 211 212
f 121 212 213
f 121 213 214
f 121 214 209
f 122 208 215
f 122 215 211
f 123 210 216
f 123 216 124
f 124 216 217
f 124 217 209
f 124 209 218
f 124 218 125
f 125 218 219
f 125 219 127
f 126 129 128
f 126 128 220
f 126 220 221
f 126 221 222
f 126 222 223
f 126 223 224
f 126 224 225
f 126 225 130
f 127 219 128
f 128 226 220
f 128 219 218
f 128 218 316
f 128 316 416
f 128 416 521
f 128 521 520
f 128 520 519
f 128 519 518
f 128 518 517
f 128 517 516
f 128 516 515
f 128 515 514
f 128 514 513
f 128 513 512
f 128 512 511
f 128 511 510
f 128 510 624
f 128 624 623
f 128 623 622
f 128 622 721
f 128 721 720
f 128 720 719
f 128 719 804
f 128 804 862
f 128 862 942
f 128 942 996
f 128 996 1013
f 128 1013 1012
f 128 1012 971
f 128 971 898
f 128 898 813
f 128 813 734
f 128 734 733
f 128 733 732
f 128 732 731
f 128 731 629
f 128 629 530
f 128 530 529
f 128 529 528
f 128 528 525
f 128 525 426
f 128 426 332
f 128 332 241
f 128 241 145
f 128 145 144
f 128 144 143
f 128 143 227
f 128 227 230
f 128 230 229
f 128 229 319
f 128 319 224
f 128 224 223
f 128 223 222
f 128 222 221
f 128 221 318
f 128 318 317
f 128 317 226
f 130 227 143
f 130 143 131
f 130 225 228
f 130 228 229
f 130 229 230
f 130 230 227
f 131 231 132
f 131 143 231
f 132 231 143
f 132 143 141
f 133 145 134
f 134 232 135
f 134 145 232
f 135 233 136
f 135 232 234
f 135 234 235
f 135 235 233
f 136 233 137
f 137 233 138
f 138 233 139
f 139 236 140
f 139 233 236
f 140 236 237
f 140 237 238
f 140 238 239
f 140 239 240
f 140 240 148
f 141 143 142
f 145 241 242
f 145 242 243
f 145 243 232
f 146 154 244
f 146 244 157
f 146 157 156
f 146 156 147
f 148 240 245
f 148 245 149
f 149 246 150
f 149 245 247
f 149 247 246
f 150 246 151
f 151 248 152
f 151 246 249
f 151 249 250
f 151 250 251
f 151 251 252
f 151 252 248
f 152 248 153
f 153 248 253
f 153 253 154
f 154 253 244
f 157 244 158
f 158 244 253
f 158 253 254
f 158 254 252
f 158 252 159
f 159 252 255
f 159 255 161
f 159 161 160
f 161 255 162
f 162 255 163
f 163 255 256
f 163 256 257
f 163 257 164
f 164 184 165
f 164 257 187
f 165 183 258
f 165 258 166
f 166 258 183
f 167 259 260
f 167 260 261
f 167 261 262
f 167 262 168
f 167 186 185
f 167 185 263
f 167 263 264
f 167 264 265
f 167 265 266
f 167 266 267
f 167 267 268
f 167 268 269
f 167 269 259
f 168 262 270
f 168 270 271
f 168 271 272
f 168 272 169
f 169 272 170
f 170 272 273
f 170 273 172
f 170 172 171
f 172 273 274
f 172 274 173
f 174 275 276
f 174 276 277
f 174 277 175
f 175 278 176
f 175 277 278
f 176 279 280
f 176 280 281
f 176 281 282
f 176 282 178
f 176 178 177
f 176 278 279
f 178 281 283
f 178 283 284
f 178 284 179
f 178 282 281
f 179 284 180
f 180 284 285
f 180 285 286
f 180 286 181
f 181 286 182
f 182 286 188
f 185 287 263
f 185 187 288
f 185 288 287
f 187 257 289
f 187 289 290
f 187 290 288
f 188 286 291
f 188 291 292
f 188 292 190
f 190 292 193
f 190 193 191
f 193 292 194
f 194 292 197
f 195 293 294
f 195 294 196
f 195 197 295
f 195 295 293
f 196 294 296
f 196 296 198
f 197 292 291
f 197 291 297
f 197 297 298
f 197 298 299
f 197 299 300
f 197 300 295
f 198 296 294
f 198 294 301
f 198 301 302
f 198 302 199
f 199 302 303
f 199 303 304
f 199 304 200
f 200 304 305
f 200 305 306
f 200 306 201
f 201 306 203
f 201 203 202
f 203 306 305
f 203 305 307
f 203 307 308
f 203 308 309
f 203 309 310
f 203 310 311
f 203 311 204
f 204 311 206
f 205 207 206
f 205 206 312
f 205 312 313
f 205 313 314
f 205 314 208
f 206 311 310
f 206 310 312
f 208 314 215
f 209 217 210
f 209 214 218
f 210 217 216
f 211 215 314
f 211 314 212
f 212 314 313
f 212 313 312
f 212 312 213
f 213 312 214
f 214 312 310
f 214 310 315
f 214 315 218
f 218 315 316
f 220 226 317
f 220 317 318
f 220 318 221
f 224 319 225
f 225 319 229
f 225 229 228
f 232 243 320
f 232 320 321
f 232 321 234
f 233 235 236
f 234 321 235
f 235 321 322
f 235 322 237
f 235 237 236
f 237 322 323
f 237 323 324
f 237 324 238
f 238 324 325
f 238 325 326
f 238 326 239
f 239 326 327
f 239 327 328
f 239 328 329
f 239 329 330
f 239 330 331
f 239 331 240
f 240 331 245
f 241 332 333
f 241 333 334
f 241 334 335
f 241 335 336
f 241 336 242
f 242 336 337
f 242 337 243
f 243 337 320
f 245 331 247
f 246 247 338
f 246 338 339
f 246 339 249
f 247 331 340
f 247 340 338
f 248 252 254
f 248 254 253
f 249 339 341
f 249 341 250
f 250 342 252
f 250 252 251
f 250 341 343
f 250 343 342
f 252 342 255
f 255 342 343
f 255 343 344
f 255 344 256
f 256 344 345
f 256 345 346
f 256 346 347
f 256 347 348
f 256 348 349
f 256 349 257
f 257 349 350
f 257 350 351
f 257 351 352
f 257 352 353
f 257 353 290
f 257 290 289
f 259 261 260
f 259 269 268
f 259 268 354
f 259 354 355
f 259 355 261
f 261 355 356
f 261 356 262
f 262 356 357
f 262 357 270
f 263 358 359
f 263 359 360
f 263 360 361
f 263 361 264
f 263 287 362
f 263 362 358
f 264 361 363
f 264 363 364
f 264 364 365
f 264 365 265
f 265 365 366
f 265 366 367
f 265 367 266
f 266 367 267
f 267 367 368
f 267 368 268
f 268 368 369
f 268 369 370
f 268 370 371
f 268 371 372
f 268 372 354
f 270 272 271
f 270 357 373
f 270 373 374
f 270 374 272
f 272 374 375
f 272 375 273
f 273 375 274
f 274 375 374
f 274 374 275
f 275 374 376
f 275 376 276
f 276 376 277
f 277 376 377
f 277 377 378
f 277 378 280
f 277 280 279
f 277 279 278
f 280 378 281
f 281 379 283
f 281 378 380
f 281 380 381
f 281 381 379
f 283 285 284
f 283 379 382
f 283 382 286
f 283 286 285
f 286 382 291
f 287 288 384
f 287 384 362
f 288 290 383
f 288 383 384
f 290 353 455
f 290 455 385
f 290 385 383
f 291 382 386
f 291 386 297
f 293 295 294
f 294 295 387
f 294 387 300
f 294 300 388
f 294 388 389
f 294 389 302
f 294 302 301
f 295 300 387
f 297 386 390
f 297 390 298
f 298 391 392
f 298 392 299
f 298 390 393
f 298 393 394
f 298 394 391
f 299 392 395
f 299 395 396
f 299 396 300
f 300 397 398
f 300 398 399
f 300 399 400
f 300 400 302
f 300 302 389
f 300 389 388
f 300 396 391
f 300 391 401
f 300 401 397
f 302 400 402
f 302 402 403
f 302 403 303
f 303 404 405
f 303 405 304
f 303 403 406
f 303 406 404
f 304 405 407
f 304 407 408
f 304 408 305
f 305 408 308
f 305 308 307
f 308 408 409
f 308 409 410
f 308 410 411
f 308 411 412
f 308 412 413
f 308 413 414
f 308 414 309
f 309 414 310
f 310 414 413
f 310 413 415
f 310 415 416
f 310 416 316
f 310 316 315
f 320 337 325
f 320 325 321
f 321 325 324
f 321 324 323
f 321 323 322
f 325 337 417
f 325 417 326
f 326 417 418
f 326 418 327
f 327 419 420
f 327 420 328
f 327 418 419
f 328 420 421
f 328 421 329
f 329 345 330
f 329 421 422
f 329 422 423
f 329 423 424
f 329 424 425
f 329 425 346
f 329 346 345
f 330 345 344
f 330 344 331
f 331 344 343
f 331 343 340
f 332 426 427
f 332 427 333
f 333 427 428
f 333 428 429
f 333 429 430
f 333 430 334
f 334 430 335
f 335 431 336
f 335 430 432
f 335 432 431
f 336 431 337
f 337 431 417
f 338 340 433
f 338 433 339
f 339 433 341
f 340 343 434
f 340 434 433
f 341 433 435
f 341 435 343
f 343 435 434
f 346 425 347
f 347 425 436
f 347 436 424
f 347 424 437
f 347 437 348
f 348 438 350
f 348 350 349
f 348 437 439
f 348 439 440
f 348 440 438
f 350 438 441
f 350 441 442
f 350 442 443
f 350 443 444
f 350 444 351
f 351 445 446
f 351 446 447
f 351 447 448
f 351 448 449
f 351 449 352
f 351 444 450
f 351 450 445
f 352 449 353
f 353 451 452
f 353 452 453
f 353 453 454
f 353 454 455
f 353 449 451
f 354 372 456
f 354 456 355
f 355 456 372
f 355 372 357
f 355 357 356
f 357 372 457
f 357 457 458
f 357 458 373
f 358 459 359
f 358 362 460
f 358 460 459
f 359 459 461
f 359 461 462
f 359 462 360
f 360 462 463
f 360 463 464
f 360 464 361
f 361 464 465
f 361 465 466
f 361 466 363
f 362 384 467
f 362 467 460
f 363 466 364
f 364 466 365
f 365 466 468
f 365 468 366
f 366 469 470
f 366 470 368
f 366 368 367
f 366 468 469
f 368 470 369
f 369 470 471
f 369 471 472
f 369 472 473
f 369 473 474
f 369 474 370
f 370 474 475
f 370 475 371
f 371 475 372
f 372 475 457
f 373 458 476
f 373 476 376
f 373 376 374
f 376 476 477
f 376 477 478
f 376 478 381
f 376 381 380
f 376 380 377
f 377 380 378
f 379 381 478
f 379 478 382
f 382 479 386
f 382 478 480
f 382 480 479
f 383 467 384
f 383 385 467
f 385 455 481
f 385 481 482
f 385 482 467
f 386 479 390
f 390 394 393
f 390 479 483
f 390 483 484
f 390 484 485
f 390 485 394
f 391 394 401
f 391 396 395
f 391 395 392
f 394 486 487
f 394 487 488
f 394 488 397
f 394 397 401
f 394 485 489
f 394 489 490
f 394 490 491
f 394 491 599
f 394 599 486
f 397 488 492
f 397 492 493
f 397 493 494
f 397 494 398
f 398 494 399
f 399 494 400
f 400 494 493
f 400 493 402
f 402 493 492
f 402 492 403
f 403 492 495
f 403 495 406
f 404 496 405
f 404 406 495
f 404 495 497
f 404 497 498
f 404 498 499
f 404 499 500
f 404 500 501
f 404 501 496
f 405 496 502
f 405 502 503
f 405 503 504
f 405 504 407
f 407 504 505
f 407 505 506
f 407 506 507
f 407 507 408
f 408 507 508
f 408 508 409
f 409 508 509
f 409 509 410
f 410 509 510
f 410 510 511
f 410 511 512
f 410 512 411
f 411 512 513
f 411 513 514
f 411 514 515
f 411 515 516
f 411 516 517
f 411 517 518
f 411 518 412
f 412 518 519
f 412 519 520
f 412 520 413
f 413 520 415
f 415 520 521
f 415 521 416
f 417 431 418
f 418 431 419
f 419 522 420
f 419 431 522
f 420 522 432
f 420 432 523
f 420 523 422
f 420 422 421
f 422 523 423
f 423 523 429
f 423 429 524
f 423 524 439
f 423 439 424
f 424 439 437
f 424 436 425
f 426 525 427
f 427 526 527
f 427 527 428
f 427 525 528
f 427 528 529
f 427 529 530
f 427 530 526
f 428 524 429
f 428 527 531
f 428 531 524
f 429 523 432
f 429 432 430
f 431 432 522
f 433 434 435
f 438 440 532
f 438 532 533
f 438 533 441
f 439 524 534
f 439 534 535
f 439 535 536
f 439 536 532
f 439 532 440
f 441 533 537
f 441 537 442
f 442 537 443
f 443 538 444
f 443 537 536
f 443 536 538
f 444 538 450
f 445 450 539
f 445 539 540
f 445 540 541
f 445 541 542
f 445 542 446
f 446 542 447
f 447 542 543
f 447 543 448
f 448 543 544
f 448 544 449
f 449 544 545
f 449 545 546
f 449 546 547
f 449 547 451
f 450 538 634
f 450 634 539
f 451 547 548
f 451 548 452
f 452 548 549
f 452 549 550
f 452 550 551
f 452 551 453
f 453 551 552
f 453 552 454
f 454 553 482
f 454 482 481
f 454 481 455
f 454 552 554
f 454 554 555
f 454 555 553
f 457 475 556
f 457 556 458
f 458 556 557
f 458 557 476
f 459 460 461
f 460 558 461
f 460 467 558
f 461 558 559
f 461 559 555
f 461 555 560
f 461 560 462
f 462 560 561
f 462 561 463
f 463 561 562
f 463 562 563
f 463 563 464
f 464 563 466
f 464 466 465
f 466 563 468
f 467 482 564
f 467 564 559
f 467 559 558
f 468 563 565
f 468 565 566
f 468 566 567
f 468 567 568
f 468 568 569
f 468 569 469
f 469 569 570
f 469 570 571
f 469 571 572
f 469 572 573
f 469 573 470
f 470 573 471
f 471 574 575
f 471 575 576
f 471 576 577
f 471 577 578
f 471 578 579
f 471 579 472
f 471 573 574
f 472 579 580
f 472 580 581
f 472 581 473
f 473 581 582
f 473 582 475
f 473 475 474
f 475 582 556
f 476 557 477
f 477 557 583
f 477 583 584
f 477 584 585
f 477 585 586
f 477 586 478
f 478 586 587
f 478 587 480
f 479 480 588
f 479 588 589
f 479 589 483
f 480 587 590
f 480 590 588
f 482 553 555
f 482 555 591
f 482 591 564
f 483 589 592
f 483 592 484
f 484 592 593
f 484 593 594
f 484 594 485
f 485 594 595
f 485 595 596
f 485 596 489
f 486 597 598
f 486 598 495
f 486 495 487
f 486 599 597
f 487 495 492
f 487 492 488
f 489 596 600
f 489 600 490
f 490 600 601
f 490 601 584
f 490 584 580
f 490 580 602
f 490 602 491
f 491 602 693
f 491 693 599
f 495 603 497
f 495 598 604
f 495 604 603
f 496 501 502
f 497 603 604
f 497 604 605
f 497 605 498
f 498 605 606
f 498 606 499
f 499 501 500
f 499 606 607
f 499 607 608
f 499 608 609
f 499 609 610
f 499 610 611
f 499 611 612
f 499 612 501
f 501 613 502
f 501 612 614
f 501 614 613
f 502 613 615
f 502 615 616
f 502 616 617
f 502 617 503
f 503 617 618
f 503 618 619
f 503 619 504
f 504 619 505
f 505 619 620
f 505 620 506
f 506 508 507
f 506 620 508
f 508 620 621
f 508 621 622
f 508 622 509
f 509 622 623
f 509 623 624
f 509 624 510
f 524 531 625
f 524 625 626
f 524 626 534
f 526 530 527
f 527 530 627
f 527 627 628
f 527 628 531
f 530 629 627
f 531 628 630
f 531 630 631
f 531 631 632
f 531 632 725
f 531 725 625
f 532 536 537
f 532 537 533
f 534 626 535
f 535 626 536
f 536 626 633
f 536 633 538
f 538 633 634
f 539 635 540
f 539 634 635
f 540 636 541
f 540 635 637
f 540 637 638
f 540 638 639
f 540 639 636
f 541 636 640
f 541 640 542
f 542 640 641
f 542 641 543
f 543 641 642
f 543 642 643
f 543 643 644
f 543 644 645
f 543 645 646
f 543 646 647
f 543 647 648
f 543 648 545
f 543 545 544
f 545 648 647
f 545 647 546
f 546 647 649
f 546 649 650
f 546 650 547
f 547 650 651
f 547 651 548
f 548 651 549
f 549 651 652
f 549 652 550
f 550 652 653
f 550 653 654
f 550 654 655
f 550 655 552
f 550 552 551
f 552 655 560
f 552 560 554
f 554 560 555
f 555 559 564
f 555 564 591
f 556 582 557
f 557 582 583
f 560 655 656
f 560 656 561
f 561 656 562
f 562 656 563
f 563 656 565
f 565 656 655
f 565 655 654
f 565 654 567
f 565 567 566
f 567 572 568
f 567 654 657
f 567 657 658
f 567 658 572
f 568 572 570
f 568 570 569
f 570 572 571
f 572 658 659
f 572 659 660
f 572 660 661
f 572 661 573
f 573 662 574
f 573 661 663
f 573 663 664
f 573 664 665
f 573 665 666
f 573 666 662
f 574 662 575
f 575 662 667
f 575 667 668
f 575 668 576
f 576 669 670
f 576 670 671
f 576 671 577
f 576 668 672
f 576 672 669
f 577 671 673
f 577 673 578
f 578 673 674
f 578 674 602
f 578 602 580
f 578 580 579
f 580 584 583
f 580 583 581
f 581 583 582
f 584 675 676
f 584 676 677
f 584 677 585
f 584 601 675
f 585 677 586
f 586 677 587
f 587 677 676
f 587 676 678
f 587 678 679
f 587 679 680
f 587 680 588
f 587 588 590
f 588 680 679
f 588 679 681
f 588 681 589
f 589 681 592
f 592 681 682
f 592 682 683
f 592 683 675
f 592 675 601
f 592 601 600
f 592 600 593
f 593 600 684
f 593 684 685
f 593 685 595
f 593 595 594
f 595 685 596
f 596 685 684
f 596 684 600
f 597 686 598
f 597 599 687
f 597 687 688
f 597 688 689
f 597 689 690
f 597 690 691
f 597 691 686
f 598 686 692
f 598 692 604
f 599 693 687
f 602 674 693
f 604 692 608
f 604 608 605
f 605 608 606
f 606 608 607
f 608 692 686
f 608 686 694
f 608 694 695
f 608 695 610
f 608 610 609
f 610 695 696
f 610 696 697
f 610 697 612
f 610 612 611
f 612 697 698
f 612 698 614
f 613 699 615
f 613 614 700
f 613 700 701
f 613 701 699
f 614 702 703
f 614 703 704
f 614 704 701
f 614 701 700
f 614 698 697
f 614 697 705
f 614 705 706
f 614 706 707
f 614 707 708
f 614 708 709
f 614 709 710
f 614 710 711
f 614 711 783
f 614 783 702
f 615 699 616
f 616 712 618
f 616 618 617
f 616 699 712
f 618 713 714
f 618 714 715
f 618 715 620
f 618 620 619
f 618 712 716
f 618 716 713
f 620 715 702
f 620 702 717
f 620 717 718
f 620 718 719
f 620 719 720
f 620 720 721
f 620 721 622
f 620 622 621
f 625 722 723
f 625 723 724
f 625 724 626
f 625 725 722
f 626 724 723
f 626 723 726
f 626 726 727
f 626 727 728
f 626 728 729
f 626 729 634
f 626 634 633
f 627 629 628
f 628 730 630
f 628 629 731
f 628 731 732
f 628 732 730
f 630 730 631
f 631 730 733
f 631 733 632
f 632 733 734
f 632 734 725
f 634 729 638
f 634 638 637
f 634 637 635
f 636 639 638
f 636 638 735
f 636 735 736
f 636 736 640
f 638 729 737
f 638 737 736
f 638 736 735
f 640 736 737
f 640 737 642
f 640 642 641
f 642 737 738
f 642 738 739
f 642 739 740
f 642 740 741
f 642 741 742
f 642 742 644
f 642 644 643
f 644 742 743
f 644 743 645
f 645 744 646
f 645 743 745
f 645 745 660
f 645 660 744
f 646 744 647
f 647 744 660
f 647 660 650
f 647 650 649
f 650 660 746
f 650 746 651
f 651 746 747
f 651 747 652
f 652 747 748
f 652 748 653
f 653 748 654
f 654 748 657
f 657 748 747
f 657 747 746
f 657 746 749
f 657 749 658
f 658 749 746
f 658 746 659
f 659 746 660
f 660 750 663
f 660 663 661
f 660 745 750
f 662 666 667
f 663 750 751
f 663 751 665
f 663 665 664
f 665 752 753
f 665 753 666
f 665 751 752
f 666 753 754
f 666 754 667
f 667 755 668
f 667 754 756
f 667 756 757
f 667 757 758
f 667 758 759
f 667 759 755
f 668 755 760
f 668 760 761
f 668 761 762
f 668 762 672
f 669 672 763
f 669 763 764
f 669 764 765
f 669 765 671
f 669 671 670
f 671 765 673
f 672 762 763
f 673 766 767
f 673 767 674
f 673 765 763
f 673 763 768
f 673 768 766
f 674 767 769
f 674 769 693
f 675 770 676
f 675 683 682
f 675 682 770
f 676 770 771
f 676 771 772
f 676 772 678
f 678 772 679
f 679 772 771
f 679 771 681
f 681 771 682
f 682 771 770
f 686 691 705
f 686 705 773
f 686 773 696
f 686 696 695
f 686 695 694
f 687 693 774
f 687 774 775
f 687 775 688
f 688 775 776
f 688 776 777
f 688 777 778
f 688 778 689
f 689 778 779
f 689 779 706
f 689 706 690
f 690 706 691
f 691 706 705
f 693 769 774
f 696 705 697
f 696 773 705
f 699 780 712
f 699 701 780
f 701 704 781
f 701 781 782
f 701 782 780
f 702 783 784
f 702 784 785
f 702 785 717
f 702 715 714
f 702 714 703
f 703 714 713
f 703 713 704
f 704 713 781
f 706 786 787
f 706 787 788
f 706 788 708
f 706 708 707
f 706 779 786
f 708 710 709
f 708 788 789
f 708 789 790
f 708 790 791
f 708 791 792
f 708 792 793
f 708 793 794
f 708 794 710
f 710 794 795
f 710 795 796
f 710 796 797
f 710 797 798
f 710 798 799
f 710 799 711
f 711 799 800
f 711 800 783
f 712 780 782
f 712 782 716
f 713 716 781
f 716 782 781
f 717 785 801
f 717 801 802
f 717 802 718
f 718 802 719
f 719 803 784
f 719 784 783
f 719 783 804
f 719 802 801
f 719 801 785
f 719 785 803
f 722 725 723
f 723 725 805
f 723 805 806
f 723 806 726
f 725 807 808
f 725 808 809
f 725 809 810
f 725 810 811
f 725 811 812
f 725 812 806
f 725 806 805
f 725 734 813
f 725 813 814
f 725 814 807
f 726 806 727
f 727 806 815
f 727 815 728
f 728 815 816
f 728 816 817
f 728 817 729
f 729 818 819
f 729 819 737
f 729 817 820
f 729 820 818
f 730 732 733
f 737 821 738
f 737 819 821
f 738 821 739
f 739 822 823
f 739 823 740
f 739 821 824
f 739 824 822
f 740 823 741
f 741 823 825
f 741 825 826
f 741 826 743
f 741 743 742
f 743 826 745
f 745 826 827
f 745 827 828
f 745 828 829
f 745 829 750
f 750 829 751
f 751 829 830
f 751 830 831
f 751 831 752
f 752 831 832
f 752 832 833
f 752 833 834
f 752 834 835
f 752 835 842
f 752 842 836
f 752 836 837
f 752 837 753
f 753 837 754
f 754 837 756
f 755 759 838
f 755 838 760
f 756 837 757
f 757 837 839
f 757 839 758
f 758 839 840
f 758 840 759
f 759 840 841
f 759 841 842
f 759 842 843
f 759 843 838
f 760 844 762
f 760 762 761
f 760 838 843
f 760 843 844
f 762 844 763
f 763 844 845
f 763 845 846
f 763 846 847
f 763 847 848
f 763 848 768
f 763 765 764
f 766 849 767
f 766 768 850
f 766 850 849
f 767 849 851
f 767 851 769
f 768 848 850
f 769 852 853
f 769 853 774
f 769 851 854
f 769 854 855
f 769 855 856
f 769 856 857
f 769 857 858
f 769 858 852
f 774 777 776
f 774 776 775
f 774 853 859
f 774 859 777
f 777 859 860
f 777 860 861
f 777 861 779
f 777 779 778
f 779 861 786
f 783 800 862
f 783 862 804
f 784 803 785
f 786 861 863
f 786 863 864
f 786 864 787
f 787 864 865
f 787 865 788
f 788 865 789
f 789 866 790
f 789 865 867
f 789 867 868
f 789 868 869
f 789 869 866
f 790 866 791
f 791 854 870
f 791 870 871
f 791 871 872
f 791 872 792
f 791 866 869
f 791 869 855
f 791 855 854
f 792 872 793
f 793 872 873
f 793 873 794
f 794 873 795
f 795 873 874
f 795 874 875
f 795 875 876
f 795 876 796
f 796 877 878
f 796 878 797
f 796 876 879
f 796 879 880
f 796 880 881
f 796 881 882
f 796 882 877
f 797 878 883
f 797 883 798
f 798 883 884
f 798 884 799
f 799 884 885
f 799 885 800
f 800 885 886
f 800 886 862
f 806 887 815
f 806 812 887
f 807 814 888
f 807 888 889
f 807 889 808
f 808 890 809
f 808 889 891
f 808 891 890
f 809 890 810
f 810 890 892
f 810 892 811
f 811 893 894
f 811 894 887
f 811 887 812
f 811 892 895
f 811 895 896
f 811 896 897
f 811 897 893
f 813 898 899
f 813 899 900
f 813 900 888
f 813 888 814
f 815 901 902
f 815 902 816
f 815 887 894
f 815 894 903
f 815 903 904
f 815 904 901
f 816 902 817
f 817 902 901
f 817 901 904
f 817 904 905
f 817 905 820
f 818 820 906
f 818 906 821
f 818 821 819
f 820 905 907
f 820 907 827
f 820 827 908
f 820 908 822
f 820 822 909
f 820 909 906
f 821 906 824
f 822 824 909
f 822 908 825
f 822 825 823
f 824 906 909
f 825 908 827
f 825 827 826
f 827 907 905
f 827 905 910
f 827 910 828
f 828 911 912
f 828 912 913
f 828 913 829
f 828 910 914
f 828 914 911
f 829 915 830
f 829 913 916
f 829 916 917
f 829 917 918
f 829 918 915
f 830 915 832
f 830 832 831
f 832 918 919
f 832 919 920
f 832 920 833
f 832 915 918
f 833 920 921
f 833 921 922
f 833 922 834
f 834 922 835
f 835 922 921
f 835 921 842
f 836 842 841
f 836 841 840
f 836 840 837
f 837 840 839
f 842 921 923
f 842 923 843
f 843 923 924
f 843 924 845
f 843 845 844
f 845 924 846
f 846 925 926
f 846 926 927
f 846 927 848
f 846 848 847
f 846 924 928
f 846 928 925
f 848 927 850
f 849 929 851
f 849 850 930
f 849 930 929
f 850 927 930
f 851 929 931
f 851 931 932
f 851 932 854
f 852 933 860
f 852 860 853
f 852 858 933
f 853 860 859
f 854 932 934
f 854 934 935
f 854 935 936
f 854 936 870
f 855 937 857
f 855 857 856
f 855 869 937
f 857 938 858
f 857 937 939
f 857 939 938
f 858 938 865
f 858 865 933
f 860 933 863
f 860 863 861
f 862 886 940
f 862 940 941
f 862 941 942
f 863 933 865
f 863 865 864
f 865 938 867
f 867 938 868
f 868 938 939
f 868 939 937
f 868 937 869
f 870 936 943
f 870 943 944
f 870 944 871
f 871 944 945
f 871 945 946
f 871 946 872
f 872 946 947
f 872 947 874
f 872 874 873
f 874 947 948
f 874 948 876
f 874 876 875
f 876 948 879
f 877 882 884
f 877 884 883
f 877 883 878
f 879 949 950
f 879 950 880
f 879 948 949
f 880 950 951
f 880 951 881
f 881 951 952
f 881 952 882
f 882 952 953
f 882 953 884
f 884 953 954
f 884 954 885
f 885 954 955
f 885 955 886
f 886 955 956
f 886 956 940
f 888 900 957
f 888 957 958
f 888 958 889
f 889 958 957
f 889 957 891
f 890 891 892
f 891 957 959
f 891 959 960
f 891 960 961
f 891 961 962
f 891 962 963
f 891 963 892
f 892 963 895
f 893 964 894
f 893 897 965
f 893 965 964
f 894 964 966
f 894 966 967
f 894 967 903
f 895 963 968
f 895 968 896
f 896 968 969
f 896 969 970
f 896 970 897
f 897 970 965
f 898 971 899
f 899 957 900
f 899 971 972
f 899 972 957
f 903 967 914
f 903 914 910
f 903 910 904
f 904 910 905
f 911 914 973
f 911 973 974
f 911 974 975
f 911 975 976
f 911 976 912
f 912 976 917
f 912 917 916
f 912 916 913
f 914 967 973
f 917 977 978
f 917 978 979
f 917 979 918
f 917 976 977
f 918 979 980
f 918 980 981
f 918 981 919
f 919 981 982
f 919 982 920
f 920 982 921
f 921 982 923
f 923 980 983
f 923 983 924
f 923 982 980
f 924 983 984
f 924 984 985
f 924 985 928
f 925 986 987
f 925 987 988
f 925 988 989
f 925 989 990
f 925 990 926
f 925 928 986
f 926 990 929
f 926 929 930
f 926 930 927
f 928 985 991
f 928 991 992
f 928 992 986
f 929 993 994
f 929 994 995
f 929 995 931
f 929 990 993
f 931 995 932
f 932 995 934
f 934 995 943
f 934 943 935
f 935 943 936
f 940 956 941
f 941 956 942
f 942 956 996
f 943 997 987
f 943 987 998
f 943 998 991
f 943 991 999
f 943 999 1000
f 943 1000 944
f 943 995 997
f 944 1000 1001
f 944 1001 945
f 945 1002 1003
f 945 1003 946
f 945 1001 1002
f 946 1003 1004
f 946 1004 949
f 946 949 947
f 947 949 948
f 949 1004 1005
f 949 1005 950
f 950 1005 1006
f 950 1006 1007
f 950 1007 951
f 951 1007 1008
f 951 1008 952
f 952 1008 1009
f 952 1009 1010
f 952 1010 1011
f 952 1011 953
f 953 1011 954
f 954 1012 1013
f 954 1013 955
f 954 1011 1014
f 954 1014 1012
f 955 1013 996
f 955 996 956
f 957 1015 960
f 957 960 959
f 957 972 1016
f 957 1016 1015
f 960 1015 1017
f 960 1017 1018
f 960 1018 1019
f 960 1019 1020
f 960 1020 969
f 960 969 961
f 961 969 968
f 961 968 962
f 962 968 963
f 964 1021 1022
f 964 1022 1023
f 964 1023 966
f 964 965 1024
f 964 1024 1021
f 965 970 1024
f 966 1023 967
f 967 1023 973
f 969 1020 970
f 970 1020 1024
f 971 1012 1025
f 971 1025 972
f 972 1025 1026
f 972 1026 1009
f 972 1009 1016
f 973 1023 974
f 974 1023 1024
f 974 1024 1020
f 974 1020 1019
f 974 1019 1027
f 974 1027 975
f 975 1027 977
f 975 977 976
f 977 1027 1028
f 977 1028 978
f 978 1028 1029
f 978 1029 979
f 979 1029 1017
f 979 1017 1030
f 979 1030 980
f 980 1030 1031
f 980 1031 983
f 980 982 981
f 983 1001 984
f 983 1031 1032
f 983 1032 1033
f 983 1033 1002
f 983 1002 1001
f 984 1001 985
f 985 1001 991
f 986 992 987
f 987 997 994
f 987 994 1034
f 987 1034 989
f 987 989 988
f 987 992 998
f 989 1034 990
f 990 1034 993
f 991 1000 999
f 991 998 992
f 991 1001 1000
f 993 1034 994
f 994 997 995
f 1002 1033 1035
f 1002 1035 1003
f 1003 1035 1036
f 1003 1036 1005
f 1003 1005 1004
f 1005 1036 1006
f 1006 1037 1038
f 1006 1038 1031
f 1006 1031 1030
f 1006 1030 1007
f 1006 1036 1037
f 1007 1039 1016
f 1007 1016 1009
f 1007 1009 1008
f 1007 1030 1039
f 1009 1026 1010
f 1010 1026 1040
f 1010 1040 1014
f 1010 1014 1011
f 1012 1014 1040
f 1012 1040 1026
f 1012 1026 1025
f 1015 1016 1030
f 1015 1030 1017
f 1016 1039 1030
f 1017 1029 1041
f 1017 1041 1018
f 1018 1041 1019
f 1019 1041 1028
f 1019 1028 1027
f 1021 1024 1022
f 1022 1024 1023
f 1028 1041 1029
f 1031 1038 1032
f 1032 1038 1033
f 1033 1038 1035
f 1035 1038 1037
f 1035 1037 1036

