# https://github.com/mikedh/trimesh
v -0.00424941 0.06286907 -0.01121141
v -0.00424941 0.06324024 -0.01112357
v -0.00369598 0.06454744 -0.01095510
v -0.00366128 0.06454744 -0.01095510
v -0.00387814 0.06361257 -0.01109621
v -0.00387814 0.06324024 -0.01114805
v -0.00313560 0.06324024 -0.01107030
v -0.00276259 0.06324024 -0.01102710
v -0.00387814 0.06286907 -0.01116677
v -0.00424941 0.06249790 -0.01117253
v -0.00465538 0.06246775 -0.01107606
v -0.00463630 0.06286907 -0.01108325
v -0.00411930 0.06388630 -0.01099254
v -0.00335246 0.06570386 -0.01060953
v -0.00302109 0.06609590 -0.01062249
v -0.00276259 0.06584073 -0.01071032
v -0.00352422 0.06435490 -0.01097094
v -0.00350687 0.06398373 -0.01101846
v -0.00313560 0.06361257 -0.01102566
v -0.00202005 0.06361257 -0.01090903
v -0.00164878 0.06361257 -0.01087015
v 0.00342411 0.06460080 -0.01021644
v 0.00342411 0.06451033 -0.01021644
v 0.00048690 0.06374479 -0.01059801
v -0.00247807 0.06299666 -0.01097382
v -0.00387814 0.06249790 -0.01109477
v -0.00423380 0.06210122 -0.01102566
v -0.00434657 0.06189824 -0.01097094
v -0.00447148 0.06189824 -0.01097094
v -0.00455129 0.06212674 -0.01101558
v -0.00480112 0.06232508 -0.01094934
v -0.00484275 0.06257214 -0.01098822
v -0.00484275 0.06274612 -0.01098822
v -0.00450792 0.06324024 -0.01101558
v -0.00444372 0.06344090 -0.01096230
v -0.00426329 0.06400461 -0.01078088
v -0.00349646 0.06582333 -0.01038347
v -0.00326745 0.06595208 -0.01053177
v -0.00315468 0.06622929 -0.01040938
v -0.00304018 0.06646939 -0.01028555
v -0.00276259 0.06630700 -0.01050874
v -0.00276259 0.06612026 -0.01063401
v -0.00239132 0.06609590 -0.01061529
v -0.00202005 0.06605995 -0.01059513
v -0.00180492 0.06603443 -0.01058361
v -0.00239132 0.06584073 -0.01067288
v -0.00324663 0.06423195 -0.01096086
v -0.00299854 0.06412756 -0.01094790
v 0.00055456 0.06432938 -0.01055193
v 0.00466457 0.06509723 -0.01002781
v 0.00169267 0.06435374 -0.01042954
v 0.00503584 0.06509723 -0.00998749
v 0.00606291 0.06532921 -0.00984782
v 0.00540712 0.06509723 -0.00994142
v 0.00604383 0.06509723 -0.00984638
v 0.00597096 0.06490817 -0.00983919
v -0.00236877 0.06287139 -0.01090471
v 0.00300252 0.06416468 -0.01021212
v -0.00387814 0.06221257 -0.01098966
v -0.00410021 0.06196203 -0.01094502
v -0.00387814 0.06175441 -0.01078088
v -0.00423380 0.06176601 -0.01087159
v -0.00424941 0.06147719 -0.01067144
v -0.00452700 0.06150851 -0.01065273
v -0.00462242 0.06174977 -0.01077368
v -0.00488266 0.06184836 -0.01064697
v -0.00473692 0.06212674 -0.01090615
v -0.00500063 0.06214414 -0.01070024
v -0.00519494 0.06227868 -0.01059513
v -0.00558877 0.06223925 -0.01024236
v -0.00597739 0.06222765 -0.00988958
v -0.00520188 0.06272757 -0.01060809
v -0.00498675 0.06286095 -0.01076072
v -0.00517586 0.06342234 -0.01020636
v -0.00476989 0.06299318 -0.01091335
v -0.00633998 0.06241903 -0.00952529
v -0.00469355 0.06324024 -0.01083271
v -0.00480979 0.06343162 -0.01058505
v -0.00535976 0.06397561 -0.00964768
v -0.00448710 0.06499284 -0.00989246
v -0.00363872 0.06594164 -0.01015164
v -0.00444893 0.06567486 -0.00948065
v -0.00554539 0.06564702 -0.00834601
v -0.00339237 0.06611446 -0.01028411
v -0.00328827 0.06636268 -0.01017756
v -0.00305059 0.06719665 -0.00952673
v -0.00276259 0.06650535 -0.01032299
v -0.00329868 0.06712473 -0.00945185
v -0.00239132 0.06650535 -0.01031867
v -0.00202005 0.06650071 -0.01031147
v -0.00164878 0.06649259 -0.01030139
v -0.00090624 0.06647635 -0.01027403
v -0.00239132 0.06628265 -0.01050442
v -0.00053496 0.06646359 -0.01025819
v -0.00016369 0.06644155 -0.01023948
v 0.00012257 0.06641720 -0.01022220
v -0.00016369 0.06621189 -0.01033019
v 0.00121383 0.06605415 -0.01021932
v 0.00532037 0.06568994 -0.00984926
v 0.00556846 0.06564122 -0.00983487
v 0.00225304 0.06565514 -0.01020924
v -0.00155683 0.06594628 -0.01057065
v 0.00037066 0.06638936 -0.01020636
v 0.00057885 0.06635224 -0.01019484
v -0.00202005 0.06584073 -0.01063401
v 0.00392203 0.06509723 -0.01010557
v 0.00278566 0.06544520 -0.01018044
v 0.00652266 0.06546840 -0.00976431
v 0.00689394 0.06546840 -0.00970815
v 0.00622946 0.06509723 -0.00981327
v 0.00689394 0.06509723 -0.00968080
v 0.00718020 0.06485481 -0.00949505
v 0.00689394 0.06477942 -0.00953393
v 0.00611669 0.06476086 -0.00972687
v 0.00615139 0.06440246 -0.00953681
v 0.00155908 0.06339915 -0.01022364
v -0.00211374 0.06226477 -0.01060377
v -0.00113351 0.06270900 -0.01057065
v -0.00042393 0.06309989 -0.01056489
v -0.00313560 0.06243179 -0.01090903
v -0.00239132 0.06219401 -0.01063833
v -0.00274177 0.06209658 -0.01067720
v -0.00260298 0.06195391 -0.01057353
v -0.00285107 0.06189940 -0.01060665
v -0.00364393 0.06155027 -0.01059513
v -0.00387814 0.06150851 -0.01062825
v -0.00313560 0.06184024 -0.01064409
v -0.00387814 0.06132293 -0.01048282
v -0.00387814 0.06110487 -0.01029707
v -0.00387814 0.06091928 -0.01011421
v -0.00424941 0.06129161 -0.01047850
v -0.00449751 0.06116402 -0.01025243
v -0.00484449 0.06042865 -0.00912932
v -0.00486704 0.06077778 -0.00952817
v -0.00474560 0.06123826 -0.01016460
v -0.00477509 0.06160014 -0.01055193
v -0.00424941 0.06112111 -0.01029275
v -0.00424941 0.06093552 -0.01007677
v -0.00513075 0.06203162 -0.01053897
v -0.00552111 0.06199103 -0.01018044
v -0.00589064 0.06198059 -0.00980607
v -0.00611618 0.06210586 -0.00966496
v -0.00633998 0.06223113 -0.00952529
v -0.00592361 0.06268697 -0.00984063
v -0.00570848 0.06282152 -0.00999469
v -0.00583339 0.06361257 -0.00936978
v -0.00513248 0.06297462 -0.01053177
v -0.00627406 0.06450685 -0.00833161
v -0.00558009 0.06384802 -0.00949937
v -0.00657767 0.06286907 -0.00899397
v -0.00628273 0.06266609 -0.00945617
v -0.00705477 0.06278904 -0.00838921
v -0.00746247 0.06324024 -0.00769230
v -0.00732368 0.06324024 -0.00787805
v -0.00703222 0.06303610 -0.00834745
v -0.00673034 0.06286907 -0.00880822
v -0.00631396 0.06494529 -0.00800188
v -0.00623589 0.06519234 -0.00792124
v -0.00590973 0.06563659 -0.00796876
v -0.00411756 0.06608894 -0.00952385
v -0.00352249 0.06623277 -0.01004077
v -0.00365260 0.06634992 -0.00979311
v -0.00340451 0.06649607 -0.00992990
v -0.00341145 0.06687652 -0.00956705
v -0.00314080 0.06732887 -0.00928771
v -0.00298293 0.06752954 -0.00912500
v -0.00276259 0.06741007 -0.00934242
v -0.00276259 0.06722448 -0.00955697
v -0.00276259 0.06705050 -0.00974271
v -0.00276259 0.06669093 -0.01012572
v -0.00239132 0.06686607 -0.00994286
v -0.00239132 0.06669093 -0.01012860
v -0.00353983 0.06699367 -0.00931794
v -0.00366648 0.06711081 -0.00903716
v -0.00342013 0.06721520 -0.00920419
v -0.00016369 0.06795174 -0.00879382
v -0.00202005 0.06668629 -0.01012572
v -0.00164878 0.06686492 -0.00993422
v 0.00095012 0.06848993 -0.00821642
v 0.00095012 0.06811645 -0.00858648
v 0.00057885 0.06737759 -0.00933378
v 0.00095012 0.06699598 -0.00969520
v 0.00169267 0.06697975 -0.00967936
v 0.00169267 0.06679416 -0.00985934
v 0.00206394 0.06678372 -0.00984926
v 0.00228774 0.06677444 -0.00984206
v 0.00023013 0.06624437 -0.01027259
v 0.00095012 0.06610054 -0.01023516
v 0.00317949 0.06644271 -0.00985358
v 0.00615139 0.06621189 -0.00957568
v 0.00466457 0.06580593 -0.00988958
v 0.00542967 0.06582449 -0.00979167
v 0.00652266 0.06584073 -0.00965488
v 0.00253583 0.06674081 -0.00982767
v 0.00531169 0.06680112 -0.00947777
v 0.00663717 0.06636848 -0.00945185
v 0.00678811 0.06612026 -0.00950081
v 0.00690435 0.06585349 -0.00956273
v 0.00714550 0.06573866 -0.00951521
v 0.00726694 0.06544868 -0.00955697
v 0.00746646 0.06531181 -0.00948065
v 0.00746646 0.06520394 -0.00948065
v 0.00728776 0.06508679 -0.00954401
v 0.00742829 0.06495573 -0.00945905
v 0.00815869 0.06383063 -0.00871319
v 0.00802336 0.06362185 -0.00865127
v 0.00763648 0.06398373 -0.00893637
v 0.00655563 0.06435490 -0.00940722
v 0.00669442 0.06380511 -0.00909188
v -0.00052802 0.06247702 -0.01029995
v -0.00040138 0.06233900 -0.01019628
v 0.00522148 0.06305582 -0.00909476
v 0.00301814 0.06267305 -0.00947345
v 0.00668401 0.06306741 -0.00871607
v 0.00080786 0.06229492 -0.00984926
v -0.00141630 0.06192259 -0.01022220
v 0.00445812 0.06269393 -0.00908900
v 0.00169267 0.06221257 -0.00953825
v 0.00563092 0.06266841 -0.00873479
v 0.00058926 0.05840579 -0.00713362
v -0.00217099 0.06007024 -0.00910484
v -0.00180319 0.05970139 -0.00873191
v -0.00350687 0.06114198 -0.01025532
v -0.00350687 0.06074530 -0.00991550
v -0.00128792 0.05840579 -0.00745184
v -0.00350687 0.06055971 -0.00973407
v -0.00145794 0.05933835 -0.00835321
v -0.00387814 0.06074182 -0.00992846
v -0.00350687 0.06037297 -0.00954833
v -0.00239132 0.05840579 -0.00752383
v -0.00247113 0.05840579 -0.00752815
v -0.00350687 0.06018623 -0.00935970
v -0.00276259 0.05840579 -0.00752383
v -0.00444893 0.06082069 -0.00984494
v -0.00480285 0.06008416 -0.00872183
v -0.00515677 0.05934994 -0.00759727
v -0.00424941 0.06078126 -0.00989102
v -0.00488092 0.06112806 -0.00991694
v -0.00518627 0.05970371 -0.00799036
v -0.00527475 0.06184836 -0.01029131
v -0.00489654 0.06148531 -0.01030427
v -0.00564255 0.06185416 -0.00993278
v -0.00282158 0.05840579 -0.00751663
v -0.00381222 0.06003660 -0.00914948
v -0.00600862 0.06185880 -0.00955841
v -0.00625671 0.06198291 -0.00942161
v -0.00641112 0.06211514 -0.00929058
v -0.00669911 0.06223345 -0.00880534
v -0.00705477 0.06263941 -0.00838921
v -0.00622722 0.06286907 -0.00939426
v -0.00585421 0.06293519 -0.00976431
v -0.00596698 0.06313585 -0.00951665
v -0.00660716 0.06398373 -0.00828842
v -0.00663492 0.06448597 -0.00794716
v -0.00667656 0.06493369 -0.00762319
v -0.00660196 0.06518074 -0.00754255
v -0.00668003 0.06308829 -0.00874342
v -0.00661757 0.06333651 -0.00866999
v -0.00713804 0.06324024 -0.00810411
v -0.00666094 0.06379119 -0.00834745
v -0.00817205 0.06353369 -0.00654614
v -0.00763596 0.06324024 -0.00742304
v -0.00787365 0.06361257 -0.00699107
v -0.00772792 0.06361257 -0.00717682
v -0.00635386 0.06537677 -0.00767358
v -0.00671820 0.06536285 -0.00729489
v -0.00627232 0.06562499 -0.00758719
v -0.00447842 0.06607619 -0.00914228
v -0.00221436 0.06788563 -0.00872759
v -0.00276259 0.06755621 -0.00915667
v -0.00352942 0.06725000 -0.00891189
v -0.00372894 0.06716069 -0.00878950
v -0.00320500 0.06744835 -0.00890901
v -0.00301936 0.06754810 -0.00890901
v -0.00183268 0.06825447 -0.00797308
v 0.00005664 0.06936217 -0.00643527
v -0.00107973 0.06862448 -0.00759871
v -0.00239132 0.06758057 -0.00917395
v -0.00239132 0.06741239 -0.00935970
v -0.00239132 0.06722680 -0.00955841
v -0.00239132 0.06705282 -0.00974415
v -0.00127751 0.06777660 -0.00898101
v -0.00016369 0.06831479 -0.00841513
v -0.00016369 0.06813848 -0.00860087
v 0.00020758 0.06831479 -0.00841369
v 0.00095012 0.06867551 -0.00803068
v -0.00425288 0.06658770 -0.00891333
v -0.00592014 0.06602399 -0.00760591
v -0.00520362 0.06641487 -0.00800764
v -0.00446975 0.06678952 -0.00839497
v 0.00169267 0.06903392 -0.00764478
v 0.00169267 0.06884718 -0.00783053
v 0.00169267 0.06866160 -0.00801484
v 0.00169267 0.06828811 -0.00838489
v 0.00355076 0.06806193 -0.00852888
v 0.00169267 0.06716765 -0.00949361
v 0.00429330 0.06729872 -0.00925171
v 0.00466457 0.06729060 -0.00924307
v 0.00503584 0.06728248 -0.00923011
v 0.00540712 0.06727436 -0.00921283
v 0.00578012 0.06726508 -0.00919555
v 0.00466457 0.06707022 -0.00942881
v 0.00503584 0.06702846 -0.00941586
v 0.00578012 0.06695423 -0.00936402
v 0.00578012 0.06653202 -0.00951233
v 0.00615139 0.06665149 -0.00942737
v 0.00578012 0.06584073 -0.00974415
v 0.00638908 0.06642067 -0.00947489
v 0.00651746 0.06623161 -0.00952241
v 0.00615139 0.06695423 -0.00931650
v 0.00638908 0.06718621 -0.00913364
v 0.00690435 0.06623161 -0.00937842
v 0.00703620 0.06598687 -0.00944033
v 0.00710213 0.06642415 -0.00911204
v 0.00718887 0.06621189 -0.00918115
v 0.00745084 0.06602399 -0.00909332
v 0.00739186 0.06555887 -0.00941154
v 0.00761739 0.06543244 -0.00926035
v 0.00783599 0.06530601 -0.00910772
v 0.00826105 0.06509723 -0.00878950
v 0.00806847 0.06509723 -0.00897525
v 0.00851781 0.06472606 -0.00866279
v 0.00833218 0.06472606 -0.00882694
v 0.00807194 0.06472606 -0.00901269
v 0.00788631 0.06472606 -0.00913652
v 0.00783946 0.06451496 -0.00910484
v 0.00857507 0.06341190 -0.00836185
v 0.00838076 0.06335159 -0.00839785
v 0.00799214 0.06322632 -0.00843961
v 0.00689394 0.06312077 -0.00868727
v 0.00763648 0.06349542 -0.00868871
v 0.00615139 0.06324024 -0.00894645
v 0.00785855 0.06304074 -0.00836185
v 0.00060834 0.05840579 -0.00712786
v 0.00020758 0.05840579 -0.00722865
v -0.00001796 0.05840579 -0.00728193
v -0.00016369 0.05840579 -0.00731073
v -0.00053496 0.05840579 -0.00736544
v -0.00047598 0.05840579 -0.00735825
v -0.00461895 0.05840579 -0.00667717
v -0.00462069 0.06037877 -0.00919267
v -0.00313213 0.05840579 -0.00742016
v -0.00507523 0.05840579 -0.00644103
v -0.00534241 0.05840579 -0.00629704
v -0.00554366 0.05840579 -0.00613577
v -0.00551764 0.05899385 -0.00683700
v -0.00553672 0.05935110 -0.00722434
v -0.00564255 0.05962484 -0.00742304
v -0.00568419 0.05994497 -0.00774126
v -0.00569980 0.06030222 -0.00812859
v -0.00574491 0.06137512 -0.00929058
v -0.00303150 0.05856469 -0.00764622
v -0.00581604 0.06018159 -0.00786941
v -0.00591840 0.05971415 -0.00723297
v -0.00612486 0.06174165 -0.00929634
v -0.00633825 0.06187272 -0.00917395
v -0.00624109 0.06162450 -0.00902564
v -0.00663665 0.06162218 -0.00829706
v -0.00659328 0.06211630 -0.00892197
v -0.00664359 0.06198639 -0.00867575
v -0.00675810 0.06211630 -0.00854616
v -0.00710161 0.06250834 -0.00815307
v -0.00757524 0.06286907 -0.00742304
v -0.00817205 0.06337363 -0.00654614
v -0.00698364 0.06509723 -0.00718114
v -0.00698364 0.06324024 -0.00828986
v -0.00678065 0.06322400 -0.00854328
v -0.00672340 0.06354297 -0.00842233
v -0.00703568 0.06491049 -0.00723729
v -0.00853291 0.06344902 -0.00506449
v -0.00820502 0.06363924 -0.00633016
v -0.00814603 0.06378075 -0.00646839
v -0.00807490 0.06363924 -0.00667430
v -0.00781640 0.06387586 -0.00691188
v -0.00744686 0.06462051 -0.00691476
v -0.00740522 0.06416583 -0.00723585
v -0.00711029 0.06398373 -0.00769806
v -0.00701313 0.06375059 -0.00795292
v -0.00707385 0.06350353 -0.00802636
v -0.00707559 0.06534081 -0.00691476
v -0.00663318 0.06561107 -0.00718546
v -0.00602423 0.06577693 -0.00772110
v -0.00519841 0.06605067 -0.00837481
v -0.00000929 0.06900493 -0.00725169
v -0.00053496 0.06868131 -0.00772974
v 0.00061181 0.06905248 -0.00742880
v -0.00031463 0.06861984 -0.00796444
v 0.00075928 0.06899913 -0.00761023
v -0.00114218 0.06826491 -0.00836905
v -0.00202005 0.06790534 -0.00875494
v 0.00030300 0.06938885 -0.00653750
v 0.00057885 0.06941785 -0.00660230
v -0.00006827 0.06864420 -0.00800620
v -0.00090624 0.06828695 -0.00839497
v -0.00164878 0.06793434 -0.00878806
v -0.00450445 0.06680808 -0.00816603
v -0.00305232 0.06756781 -0.00853752
v -0.00376364 0.06717925 -0.00853752
v -0.00350687 0.06732075 -0.00853752
v -0.00259604 0.06789375 -0.00770382
v -0.00254920 0.06786938 -0.00816603
v -0.00276259 0.06771976 -0.00853752
v 0.00045047 0.06971130 -0.00519408
v 0.00095012 0.06996532 -0.00519408
v 0.00067601 0.06978554 -0.00556558
v 0.00071764 0.06976466 -0.00581324
v 0.00146019 0.07012771 -0.00541295
v 0.00020758 0.06866391 -0.00802636
v -0.00053496 0.06830783 -0.00841369
v -0.00127751 0.06794826 -0.00879526
v -0.00202005 0.06758753 -0.00917539
v 0.00057885 0.06867551 -0.00803356
v 0.00132139 0.06903508 -0.00765054
v -0.00671993 0.06568530 -0.00693780
v -0.00524005 0.06643459 -0.00779453
v 0.00188698 0.06937029 -0.00723873
v 0.00206394 0.06902464 -0.00763615
v 0.00280821 0.06863608 -0.00799036
v 0.00243521 0.06864536 -0.00799900
v 0.00243521 0.06827187 -0.00836905
v 0.00355076 0.06824751 -0.00834457
v 0.00466457 0.06766408 -0.00887445
v 0.00466457 0.06747618 -0.00906020
v 0.00503584 0.06746806 -0.00905156
v 0.00540712 0.06745994 -0.00904148
v 0.00578012 0.06745066 -0.00902564
v 0.00615139 0.06723376 -0.00916963
v 0.00615139 0.06742051 -0.00896949
v 0.00634397 0.06751794 -0.00873335
v 0.00648970 0.06729524 -0.00886294
v 0.00663717 0.06705862 -0.00899397
v 0.00747513 0.06642764 -0.00875638
v 0.00674820 0.06681040 -0.00912644
v 0.00688179 0.06656218 -0.00918979
v 0.00737451 0.06621189 -0.00902564
v 0.00755147 0.06621189 -0.00883990
v 0.00788457 0.06575489 -0.00878950
v 0.00820380 0.06529906 -0.00873335
v 0.00866181 0.06472606 -0.00847704
v 0.00869478 0.06435374 -0.00849432
v 0.00849353 0.06435374 -0.00868007
v 0.00830789 0.06435374 -0.00878950
v 0.00824023 0.06407884 -0.00875062
v 0.00810664 0.06309293 -0.00830282
v 0.00837035 0.06396633 -0.00864263
v 0.00860630 0.06361257 -0.00839209
v 0.00871039 0.06398373 -0.00816603
v 0.00863926 0.06361257 -0.00816603
v 0.00858374 0.06339335 -0.00816603
v 0.00826105 0.06299434 -0.00779453
v 0.00824543 0.06301754 -0.00805515
v 0.00781691 0.06268697 -0.00795868
v 0.00712121 0.06228680 -0.00800476
v 0.00689394 0.06223113 -0.00804508
v 0.00636479 0.06192839 -0.00798892
v 0.00096227 0.05840579 -0.00701123
v -0.00572583 0.05840579 -0.00590971
v -0.00561479 0.05852758 -0.00620201
v -0.00582819 0.05979766 -0.00742304
v -0.00589932 0.05936502 -0.00683412
v -0.00632264 0.06152475 -0.00877798
v -0.00668523 0.06116402 -0.00765054
v -0.00669391 0.06151547 -0.00804939
v -0.00675289 0.06174977 -0.00817035
v -0.00693159 0.06177297 -0.00777726
v -0.00740696 0.06231348 -0.00723585
v -0.00736705 0.06240279 -0.00742304
v -0.00745033 0.06258837 -0.00742304
v -0.00740869 0.06267885 -0.00761455
v -0.00781813 0.06296766 -0.00695939
v -0.00811827 0.06312541 -0.00641655
v -0.00816685 0.06301406 -0.00616889
v -0.00820675 0.06324604 -0.00629848
v -0.00830044 0.06324024 -0.00593707
v -0.00853291 0.06337710 -0.00506449
v -0.00714325 0.06509723 -0.00699539
v -0.00705477 0.06420759 -0.00763183
v -0.00889898 0.06308597 -0.00317535
v -0.00892327 0.06316948 -0.00296656
v -0.00895103 0.06327735 -0.00262531
v -0.00887990 0.06335507 -0.00296656
v -0.00889204 0.06342466 -0.00276930
v -0.00855373 0.06348845 -0.00482259
v -0.00816338 0.06382251 -0.00622073
v -0.00806796 0.06396169 -0.00633016
v -0.00743472 0.06495689 -0.00656918
v -0.00731674 0.06508796 -0.00668725
v -0.00738614 0.06486873 -0.00681684
v -0.00775567 0.06412408 -0.00683124
v -0.00712417 0.06539185 -0.00668005
v -0.00694547 0.06557743 -0.00668005
v 0.00169267 0.06994676 -0.00593707
v 0.00094318 0.06944801 -0.00670309
v 0.00169267 0.06961271 -0.00668005
v 0.00132139 0.06941089 -0.00695795
v 0.00132139 0.06932622 -0.00714370
v 0.00162500 0.06935289 -0.00720274
v 0.00095012 0.06901652 -0.00763183
v 0.00169267 0.07007087 -0.00565773
v 0.00132139 0.06986905 -0.00593707
v -0.00675983 0.06570966 -0.00668005
v -0.00602250 0.06608199 -0.00705155
v -0.00546559 0.06635224 -0.00742304
v -0.00220569 0.06825447 -0.00611562
v -0.00313560 0.06766060 -0.00705155
v -0.00222650 0.06826607 -0.00586795
v -0.00624109 0.06599731 -0.00668005
v -0.00218834 0.06824519 -0.00630856
v -0.00160194 0.06869987 -0.00482259
v -0.00171644 0.06856648 -0.00556558
v -0.00215190 0.06822779 -0.00668005
v -0.00127751 0.06886922 -0.00482259
v -0.00242602 0.06796914 -0.00781469
v -0.00108146 0.06899333 -0.00458501
v -0.00013593 0.06945033 -0.00482259
v 0.00060140 0.06982265 -0.00482259
v 0.00095012 0.06999664 -0.00482259
v 0.00116699 0.07010103 -0.00482259
v 0.00120862 0.07008595 -0.00519408
v -0.00034412 0.06936681 -0.00459509
v 0.00139426 0.07016134 -0.00519408
v 0.00169267 0.07023442 -0.00519408
v 0.00169267 0.07015091 -0.00547198
v 0.00187136 0.06937029 -0.00723873
v 0.00213507 0.06935521 -0.00721858
v 0.00235020 0.06901189 -0.00762463
v 0.00355076 0.07017178 -0.00585499
v 0.00355076 0.07005811 -0.00604074
v 0.00317949 0.06975538 -0.00651447
v 0.00303202 0.06863028 -0.00798460
v 0.00466457 0.06784967 -0.00868727
v 0.00578012 0.06760493 -0.00883990
v 0.00392203 0.06823823 -0.00833305
v 0.00503584 0.06783691 -0.00866711
v 0.00615139 0.06755737 -0.00878374
v 0.00578012 0.06779167 -0.00860087
v 0.00601607 0.06790418 -0.00838057
v 0.00633703 0.06825563 -0.00761023
v 0.00638387 0.06792738 -0.00804796
v 0.00653134 0.06770584 -0.00817755
v 0.00698242 0.06705050 -0.00853752
v 0.00672391 0.06715489 -0.00874630
v 0.00598311 0.06901073 -0.00688452
v 0.00710386 0.06679184 -0.00875494
v 0.00750810 0.06647519 -0.00853752
v 0.00780823 0.06600195 -0.00866855
v 0.00705875 0.06712009 -0.00830714
v 0.00671351 0.06789026 -0.00762031
v 0.00859589 0.06495456 -0.00840793
v 0.00866875 0.06476086 -0.00813291
v 0.00876244 0.06435374 -0.00816603
v 0.00865487 0.06398373 -0.00844393
v 0.00858027 0.06339566 -0.00793564
v 0.00798520 0.06278556 -0.00781901
v 0.00823155 0.06301174 -0.00749072
v 0.00784814 0.06265913 -0.00705155
v 0.00746819 0.06229840 -0.00675781
v 0.00746819 0.06229840 -0.00695507
v 0.00786375 0.06264985 -0.00742304
v 0.00784640 0.06266725 -0.00771102
v 0.00409552 0.06008880 -0.00720562
v 0.00561183 0.06118490 -0.00762319
v 0.00217844 0.05840579 -0.00482259
v 0.00182105 0.05840579 -0.00630856
v 0.00335818 0.05971415 -0.00723297
v 0.00486409 0.06081953 -0.00761455
v 0.00103166 0.05840579 -0.00698819
v -0.00587156 0.05840579 -0.00561885
v -0.00592708 0.05858789 -0.00576428
v -0.00595136 0.05892078 -0.00618329
v -0.00588023 0.05901937 -0.00643095
v -0.00597045 0.05926643 -0.00658646
v -0.00630529 0.06117794 -0.00837625
v -0.00637642 0.06139368 -0.00851448
v -0.00666094 0.06083229 -0.00722865
v -0.00673034 0.06108399 -0.00742304
v -0.00698711 0.06128813 -0.00705155
v -0.00739134 0.06160014 -0.00645255
v -0.00691598 0.06140876 -0.00740000
v -0.00674422 0.06138904 -0.00778301
v -0.00648745 0.06099816 -0.00781181
v -0.00625324 0.06014099 -0.00716530
v -0.00704609 0.06155027 -0.00726177
v -0.00699405 0.06166162 -0.00750943
v -0.00740175 0.06195391 -0.00685140
v -0.00776261 0.06271944 -0.00682692
v -0.00811307 0.06276584 -0.00603066
v -0.00816164 0.06265565 -0.00578300
v -0.00815644 0.06229840 -0.00539567
v -0.00818593 0.06251762 -0.00553822
v -0.00826574 0.06249790 -0.00519408
v -0.00837157 0.06286907 -0.00519408
v -0.00846525 0.06288183 -0.00481539
v -0.00855720 0.06288183 -0.00442806
v -0.00889898 0.06303958 -0.00317535
v -0.00838718 0.06324024 -0.00556558
v -0.00892327 0.06298738 -0.00296656
v -0.00896144 0.06293170 -0.00259507
v -0.00894930 0.06296534 -0.00230277
v -0.00893888 0.06324024 -0.00232005
v -0.00889898 0.06343394 -0.00239781
v -0.00889898 0.06343394 -0.00252164
v -0.00851904 0.06379467 -0.00387946
v -0.00850516 0.06377031 -0.00407960
v -0.00861272 0.06358357 -0.00407960
v -0.00858323 0.06353833 -0.00445110
v -0.00855026 0.06383526 -0.00333806
v -0.00785456 0.06464255 -0.00482259
v -0.00770536 0.06480958 -0.00519408
v -0.00748676 0.06502996 -0.00593707
v -0.00734450 0.06518539 -0.00630856
v -0.00746074 0.06499980 -0.00630856
v -0.00813042 0.06413568 -0.00519408
v -0.00775567 0.06449989 -0.00630856
v -0.00715886 0.06541041 -0.00630856
v -0.00695761 0.06559715 -0.00630856
v 0.00189565 0.06973914 -0.00648999
v 0.00169267 0.06980177 -0.00625961
v 0.00169267 0.06971826 -0.00644535
v 0.00199974 0.07009755 -0.00571676
v -0.00677198 0.06572358 -0.00630856
v -0.00630182 0.06603095 -0.00582188
v -0.00647878 0.06589640 -0.00630856
v -0.00647878 0.06586624 -0.00668005
v -0.00178757 0.06860128 -0.00482259
v -0.00539966 0.06648911 -0.00633304
v -0.00608322 0.06611562 -0.00630856
v -0.00487919 0.06680924 -0.00593707
v -0.00369077 0.06751098 -0.00536831
v -0.00163143 0.06871843 -0.00445110
v -0.00124801 0.06892025 -0.00445686
v -0.00156724 0.06868131 -0.00519408
v -0.00110575 0.06900493 -0.00433735
v 0.00039668 0.06973914 -0.00458645
v 0.00054415 0.06981685 -0.00445830
v 0.00037413 0.06974958 -0.00407960
v 0.00037413 0.06974958 -0.00386074
v 0.00135262 0.07016598 -0.00482259
v 0.00169267 0.07021702 -0.00482259
v 0.00206394 0.07025529 -0.00519408
v 0.00280821 0.07022978 -0.00556558
v 0.00243521 0.07020078 -0.00556558
v 0.00210037 0.07016366 -0.00558141
v 0.00214201 0.06975538 -0.00652023
v 0.00243521 0.06988761 -0.00630856
v 0.00243521 0.06976698 -0.00654038
v 0.00317949 0.07006623 -0.00603066
v 0.00337727 0.06974262 -0.00649719
v 0.00362536 0.06972638 -0.00647559
v 0.00280821 0.06930998 -0.00715954
v 0.00317949 0.06909888 -0.00736832
v 0.00259829 0.06899449 -0.00760447
v 0.00355076 0.06860128 -0.00794716
v 0.00429330 0.06822083 -0.00830858
v 0.00317949 0.07015554 -0.00584492
v 0.00317949 0.07024138 -0.00556558
v 0.00355076 0.07023790 -0.00556558
v 0.00392203 0.07016251 -0.00582908
v 0.00392203 0.07003491 -0.00601482
v 0.00352126 0.06984701 -0.00633448
v 0.00540712 0.06781603 -0.00863687
v 0.00578012 0.06793086 -0.00841513
v 0.00590157 0.06824287 -0.00796444
v 0.00540712 0.06795986 -0.00845113
v 0.00503584 0.06831479 -0.00805803
v 0.00503584 0.06850037 -0.00781613
v 0.00478602 0.06898869 -0.00722578
v 0.00523189 0.06862796 -0.00761167
v 0.00628325 0.06858388 -0.00714370
v 0.00663196 0.06781139 -0.00786797
v 0.00578012 0.06903508 -0.00691620
v 0.00534466 0.06939697 -0.00653175
v 0.00487276 0.06975190 -0.00614153
v 0.00578012 0.06916615 -0.00668005
v 0.00601433 0.06904668 -0.00668005
v 0.00634744 0.06864304 -0.00689604
v 0.00771108 0.06618754 -0.00854184
v 0.00673779 0.06792506 -0.00742304
v 0.00714550 0.06723260 -0.00779453
v 0.00741961 0.06672457 -0.00816603
v 0.00817430 0.06562499 -0.00825530
v 0.00820033 0.06566326 -0.00800764
v 0.00859589 0.06495456 -0.00823370
v 0.00820033 0.06566326 -0.00796588
v 0.00856466 0.06490817 -0.00798604
v 0.00861150 0.06465995 -0.00788093
v 0.00863232 0.06435374 -0.00781757
v 0.00855425 0.06398373 -0.00764047
v 0.00862017 0.06398373 -0.00782621
v 0.00859936 0.06361257 -0.00788093
v 0.00819165 0.06305813 -0.00724305
v 0.00853690 0.06361257 -0.00769518
v 0.00820727 0.06339335 -0.00682836
v 0.00782732 0.06304653 -0.00611274
v 0.00782385 0.06268117 -0.00686004
v 0.00744911 0.06231464 -0.00651015
v 0.00284812 0.05840579 -0.00039347
v 0.00292966 0.05840579 -0.00110910
v 0.00294180 0.05840579 -0.00148059
v 0.00287761 0.05840579 -0.00187080
v 0.00253063 0.05840579 -0.00333806
v 0.00168226 0.05840579 -0.00664982
v 0.00167358 0.05840579 -0.00666422
v 0.00232764 0.05892078 -0.00691476
v 0.00185054 0.05860877 -0.00683988
v 0.00160418 0.05855425 -0.00690180
v 0.00132139 0.05848814 -0.00695076
v 0.00257747 0.05935806 -0.00722290
v 0.00132139 0.05840579 -0.00687156
v -0.00593401 0.05840579 -0.00545038
v -0.00668176 0.05968283 -0.00542591
v -0.00675289 0.05989045 -0.00555550
v -0.00700272 0.06088449 -0.00640503
v -0.00702701 0.06121390 -0.00684132
v -0.00670779 0.06074994 -0.00698099
v -0.00635560 0.06073370 -0.00772398
v -0.00743819 0.06151431 -0.00620489
v -0.00780252 0.06189708 -0.00580892
v -0.00775047 0.06200031 -0.00605658
v -0.00804540 0.06251762 -0.00591835
v -0.00818073 0.06223925 -0.00519408
v -0.00835248 0.06249790 -0.00482259
v -0.00803326 0.06215457 -0.00553822
v -0.00783548 0.06176601 -0.00552958
v -0.00809745 0.06205366 -0.00519408
v -0.00852771 0.06266725 -0.00428839
v -0.00844790 0.06252458 -0.00442806
v -0.00881744 0.06289691 -0.00331502
v -0.00855200 0.06261157 -0.00407960
v -0.00822410 0.06216037 -0.00482259
v -0.00859364 0.06253734 -0.00370955
v -0.00884347 0.06280180 -0.00296656
v -0.00868732 0.06249790 -0.00296656
v -0.00885734 0.06274496 -0.00259507
v -0.00856588 0.06261042 -0.00196440
v -0.00863875 0.06286559 -0.00184489
v -0.00855894 0.06298622 -0.00160586
v -0.00855894 0.06315788 -0.00160586
v -0.00884347 0.06324024 -0.00213431
v -0.00870294 0.06249790 -0.00259507
v -0.00853638 0.06229028 -0.00236613
v -0.00743992 0.06077662 -0.00197304
v -0.00816685 0.06191332 -0.00200759
v -0.00851383 0.06340610 -0.00167930
v -0.00858843 0.06353253 -0.00192696
v -0.00851036 0.06377959 -0.00206807
v -0.00818420 0.06421803 -0.00198312
v -0.00822237 0.06426675 -0.00222358
v -0.00823972 0.06428646 -0.00259507
v -0.00856935 0.06385962 -0.00259507
v -0.00821369 0.06425167 -0.00370955
v -0.00814603 0.06416236 -0.00497810
v -0.00780946 0.06458920 -0.00556558
v -0.00771404 0.06482814 -0.00482259
v -0.00750758 0.06504272 -0.00556558
v -0.00735317 0.06521554 -0.00593707
v -0.00779037 0.06455904 -0.00582908
v -0.00716754 0.06540229 -0.00593707
v -0.00735317 0.06522830 -0.00556558
v -0.00734623 0.06522714 -0.00519408
v -0.00716754 0.06539301 -0.00556558
v -0.00695241 0.06558787 -0.00593707
v -0.00631396 0.06604255 -0.00482259
v -0.00586635 0.06635804 -0.00407960
v -0.00631917 0.06604603 -0.00519408
v 0.00203791 0.06982729 -0.00634312
v 0.00224784 0.07011263 -0.00575276
v 0.00210037 0.07003259 -0.00590107
v -0.00631223 0.06603907 -0.00556558
v -0.00628620 0.06602167 -0.00606954
v -0.00519321 0.06677792 -0.00401337
v -0.00582298 0.06634296 -0.00519408
v -0.00614047 0.06611214 -0.00594283
v -0.00231325 0.06831363 -0.00482259
v -0.00181707 0.06861752 -0.00445110
v -0.00490695 0.06682432 -0.00556558
v -0.00183268 0.06862564 -0.00424951
v -0.00130700 0.06891909 -0.00407960
v -0.00168521 0.06871611 -0.00410696
v -0.00090624 0.06911859 -0.00407960
v -0.00164878 0.06880310 -0.00296656
v -0.00164878 0.06883674 -0.00222358
v 0.00018850 0.06965911 -0.00407960
v -0.00295864 0.06826027 -0.00064113
v 0.00140293 0.07013350 -0.00458501
v -0.00295864 0.06826027 -0.00054034
v 0.00169267 0.07013467 -0.00458357
v 0.00206741 0.07017990 -0.00479523
v 0.00280821 0.07023674 -0.00519408
v 0.00243521 0.07024950 -0.00519408
v 0.00280821 0.07013814 -0.00581468
v 0.00243521 0.07012190 -0.00577436
v 0.00243521 0.07004767 -0.00596011
v 0.00280821 0.07005927 -0.00600042
v 0.00392203 0.06984817 -0.00626249
v 0.00429330 0.06935174 -0.00684276
v 0.00392203 0.06857576 -0.00791549
v 0.00466457 0.06819648 -0.00827546
v 0.00355076 0.07017874 -0.00522576
v 0.00381620 0.07014974 -0.00529776
v 0.00393244 0.07017411 -0.00556414
v 0.00414757 0.07013467 -0.00578876
v 0.00466457 0.06977974 -0.00617897
v 0.00429330 0.06981917 -0.00622649
v 0.00503584 0.06817096 -0.00824378
v 0.00565347 0.06826607 -0.00799612
v 0.00577839 0.06813732 -0.00813867
v 0.00578012 0.06857693 -0.00754111
v 0.00429330 0.06967883 -0.00641223
v 0.00503584 0.06929142 -0.00675925
v 0.00503584 0.06942713 -0.00657350
v 0.00466457 0.06964867 -0.00636472
v 0.00487276 0.06975190 -0.00608538
v 0.00555632 0.06934014 -0.00630856
v 0.00601086 0.06904900 -0.00639784
v 0.00634744 0.06864304 -0.00682260
v 0.00747166 0.06679880 -0.00770094
v 0.00689914 0.06769772 -0.00742304
v 0.00783773 0.06604835 -0.00842089
v 0.00773710 0.06627453 -0.00816603
v 0.00755147 0.06653782 -0.00816603
v 0.00784987 0.06608779 -0.00754255
v 0.00641683 0.06845049 -0.00669157
v 0.00672565 0.06792390 -0.00682260
v 0.00821420 0.06495456 -0.00719122
v 0.00746125 0.06493253 -0.00535823
v 0.00661288 0.06805613 -0.00669157
v 0.00725827 0.06695423 -0.00705155
v 0.00819339 0.06454048 -0.00686580
v 0.00855598 0.06435374 -0.00763183
v 0.00814307 0.06361257 -0.00662246
v 0.00821767 0.06361257 -0.00680821
v 0.00846924 0.06398373 -0.00742304
v 0.00830963 0.06361257 -0.00705155
v 0.00844321 0.06361257 -0.00742304
v 0.00790019 0.06286559 -0.00671317
v 0.00786028 0.06299898 -0.00630856
v 0.00773884 0.06281224 -0.00630856
v 0.00800775 0.06361257 -0.00630856
v 0.00785508 0.06324024 -0.00605226
v 0.00795917 0.06324024 -0.00630856
v 0.00776833 0.06324024 -0.00586651
v 0.00733113 0.06290155 -0.00522864
v 0.00710386 0.06262317 -0.00496658
v 0.00633356 0.06194927 -0.00389818
v 0.00521454 0.06085201 -0.00243092
v 0.00301120 0.05893934 0.00059574
v 0.00485021 0.06045416 -0.00203783
v 0.00672565 0.06191564 -0.00495506
v 0.00250634 0.05840579 0.00114434
v -0.00601556 0.05840579 -0.00519120
v -0.00628967 0.05897414 -0.00536975
v -0.00777996 0.06156767 -0.00538127
v -0.00763944 0.06141920 -0.00552958
v -0.00773312 0.06165002 -0.00562893
v -0.00793611 0.06175441 -0.00519408
v -0.00813389 0.06197363 -0.00482259
v -0.00824839 0.06209078 -0.00447989
v -0.00861619 0.06246543 -0.00335678
v -0.00853465 0.06228912 -0.00324446
v -0.00823625 0.06179269 -0.00333806
v -0.00812694 0.06160710 -0.00333806
v -0.00855026 0.06226592 -0.00296656
v -0.00817379 0.06227404 -0.00162890
v -0.00849128 0.06273916 -0.00171674
v -0.00809919 0.06202582 -0.00175993
v -0.00453047 0.05840579 0.00074117
v -0.00431881 0.05840579 0.00111122
v -0.00816685 0.06265333 -0.00126893
v -0.00822410 0.06286907 -0.00122429
v -0.00824145 0.06324024 -0.00121709
v -0.00865262 0.06326575 -0.00182329
v -0.00844097 0.06326575 -0.00148059
v -0.00812868 0.06160130 -0.00296656
v -0.00855200 0.06226592 -0.00259507
v -0.00843402 0.06208034 -0.00296656
v -0.00608322 0.05840579 -0.00482259
v -0.00776608 0.06121622 -0.00211271
v -0.00583512 0.05840579 -0.00185209
v -0.00592708 0.05858905 -0.00165626
v -0.00572930 0.05840579 -0.00148203
v -0.00552631 0.05840579 -0.00110190
v -0.00549855 0.05840579 -0.00105006
v -0.00818940 0.06348614 -0.00125885
v -0.00826574 0.06361025 -0.00148347
v -0.00845831 0.06363808 -0.00182329
v -0.00826053 0.06398025 -0.00185641
v -0.00810613 0.06410204 -0.00173545
v -0.00777823 0.06416816 -0.00129629
v -0.00785803 0.06427255 -0.00154395
v -0.00797427 0.06436766 -0.00183913
v -0.00784242 0.06459384 -0.00194136
v -0.00807316 0.06445117 -0.00222358
v -0.00808704 0.06447089 -0.00259507
v -0.00808531 0.06445929 -0.00296656
v -0.00771924 0.06483974 -0.00445110
v -0.00786671 0.06465415 -0.00445110
v -0.00772098 0.06485018 -0.00407960
v -0.00771404 0.06485133 -0.00370955
v -0.00733409 0.06522250 -0.00482259
v -0.00770189 0.06484786 -0.00333806
v -0.00716060 0.06538257 -0.00519408
v -0.00694026 0.06557859 -0.00556558
v -0.00649960 0.06589408 -0.00482259
v -0.00584900 0.06633948 -0.00333806
v -0.00565122 0.06647867 -0.00296656
v -0.00520882 0.06679416 -0.00222358
v -0.00522097 0.06680228 -0.00259507
v -0.00522617 0.06680228 -0.00296656
v -0.00586115 0.06636036 -0.00445110
v -0.00567551 0.06647171 -0.00445110
v -0.00520709 0.06678604 -0.00370955
v -0.00584380 0.06635340 -0.00482259
v -0.00410021 0.06753302 -0.00185209
v -0.00408286 0.06752258 -0.00222358
v -0.00361097 0.06783807 -0.00148059
v -0.00313560 0.06813152 -0.00110910
v -0.00406898 0.06751562 -0.00245396
v -0.00563734 0.06644619 -0.00519408
v -0.00313560 0.06810485 -0.00148059
v -0.00511687 0.06673501 -0.00519408
v -0.00375323 0.06754578 -0.00445110
v -0.00278515 0.06816400 -0.00333806
v -0.00267238 0.06830783 -0.00222358
v -0.00186738 0.06864536 -0.00370955
v -0.00189167 0.06865811 -0.00333806
v -0.00191422 0.06866856 -0.00296656
v -0.00213976 0.06859316 -0.00222358
v -0.00215711 0.06860244 -0.00185209
v -0.00195412 0.06868596 -0.00222358
v -0.00212067 0.06858272 -0.00259507
v -0.00294476 0.06825215 -0.00088880
v -0.00343921 0.06795522 -0.00110910
v -0.00387814 0.06767800 -0.00148059
v -0.00476642 0.06711661 -0.00222358
v -0.00362484 0.06784039 -0.00110910
v 0.00095012 0.06991544 -0.00407960
v 0.00096400 0.06979134 -0.00368939
v 0.00109585 0.06974494 -0.00351373
v -0.00109534 0.06899913 -0.00203495
v -0.00342359 0.06795638 -0.00073761
v -0.00360923 0.06782067 -0.00073761
v -0.00380007 0.06759797 -0.00036611
v -0.00374802 0.06755621 -0.00013141
v -0.00330562 0.06787518 -0.00019909
v -0.00305753 0.06794246 -0.00011125
v -0.00275045 0.06799233 0.00000970
v -0.00276259 0.06818952 -0.00030564
v -0.00148049 0.06789026 0.00094563
v -0.00276259 0.06827767 -0.00049138
v -0.00191249 0.06863956 -0.00125741
v 0.00169267 0.07005695 -0.00439782
v 0.00194596 0.07012075 -0.00461812
v 0.00117219 0.06974494 -0.00351373
v 0.00243521 0.07016946 -0.00487443
v 0.00321592 0.07019034 -0.00515665
v 0.00355076 0.07009755 -0.00504001
v 0.00336339 0.07011263 -0.00500834
v 0.00355076 0.06999548 -0.00482259
v 0.00301640 0.06863840 -0.00164186
v 0.00366179 0.06971710 -0.00430711
v 0.00380232 0.06978322 -0.00455477
v 0.00406429 0.07008595 -0.00544030
v 0.00414757 0.07013467 -0.00568797
v 0.00529782 0.06942829 -0.00601482
v 0.00594667 0.06897361 -0.00615017
v 0.00608547 0.06883442 -0.00628840
v 0.00631621 0.06858040 -0.00657494
v 0.00786375 0.06500096 -0.00639784
v 0.00712641 0.06693103 -0.00670885
v 0.00449282 0.06568530 0.00096723
v 0.00414236 0.06573170 0.00175773
v 0.00559796 0.06529326 -0.00128621
v 0.00637173 0.06833335 -0.00641079
v 0.00677770 0.06769076 -0.00669157
v 0.00612710 0.06844122 -0.00593707
v 0.00703967 0.06472606 -0.00435462
v 0.00813093 0.06398373 -0.00663542
v 0.00787416 0.06361257 -0.00601194
v 0.00761046 0.06324024 -0.00556558
v 0.00745431 0.06304770 -0.00537551
v 0.00778742 0.06361257 -0.00582620
v 0.00766077 0.06361257 -0.00556558
v 0.00633876 0.06416120 -0.00277650
v 0.00218885 0.05840579 0.00185276
v 0.00226692 0.05840579 0.00170734
v 0.00236408 0.05840579 0.00149999
v -0.00703222 0.06008996 -0.00498386
v -0.00742257 0.06079981 -0.00506737
v -0.00750064 0.06099236 -0.00519264
v -0.00738961 0.06085665 -0.00531503
v -0.00801244 0.06175441 -0.00482259
v -0.00814776 0.06194347 -0.00462388
v -0.00851730 0.06231928 -0.00349213
v -0.00795519 0.06138324 -0.00370955
v -0.00808184 0.06169062 -0.00407960
v -0.00779558 0.06116982 -0.00401049
v -0.00781293 0.06113851 -0.00370955
v -0.00777996 0.06193767 -0.00129197
v -0.00783375 0.06212674 -0.00120557
v -0.00771924 0.06212674 -0.00101983
v -0.00414011 0.05840579 0.00140208
v -0.00777476 0.06232624 -0.00093055
v -0.00801591 0.06286907 -0.00103854
v -0.00782334 0.06257330 -0.00089168
v -0.00783028 0.06286907 -0.00088880
v -0.00794304 0.06325416 -0.00101407
v -0.00776608 0.06338638 -0.00093055
v -0.00667309 0.05932790 -0.00416888
v -0.00607975 0.05840579 -0.00445110
v -0.00842535 0.06208034 -0.00259507
v -0.00666094 0.05934646 -0.00459653
v -0.00635213 0.05886859 -0.00482259
v -0.00584033 0.05840579 -0.00190248
v -0.00573276 0.05840579 -0.00149067
v -0.00785977 0.06392110 -0.00121997
v -0.00810786 0.06373320 -0.00136108
v -0.00771230 0.06361257 -0.00096511
v -0.00738961 0.06413684 -0.00093487
v -0.00707038 0.06458224 -0.00090032
v -0.00798295 0.06401157 -0.00145179
v -0.00743124 0.06456484 -0.00126317
v -0.00770710 0.06437926 -0.00144460
v -0.00776088 0.06451960 -0.00169370
v -0.00697670 0.06483046 -0.00100399
v -0.00744512 0.06494297 -0.00194856
v -0.00788753 0.06463096 -0.00222358
v -0.00669738 0.06531646 -0.00124445
v -0.00632958 0.06568646 -0.00123869
v -0.00701487 0.06526426 -0.00174985
v -0.00790141 0.06464487 -0.00259507
v -0.00768975 0.06484090 -0.00296656
v -0.00732195 0.06521438 -0.00445110
v -0.00714845 0.06537329 -0.00482259
v -0.00582472 0.06631977 -0.00259507
v -0.00730980 0.06520510 -0.00407960
v -0.00707559 0.06531529 -0.00259507
v -0.00562694 0.06645895 -0.00222358
v -0.00519494 0.06678256 -0.00196440
v -0.00475948 0.06710502 -0.00185209
v -0.00499196 0.06695539 -0.00222358
v -0.00475427 0.06710850 -0.00259507
v -0.00293088 0.06824519 -0.00110910
v -0.00403602 0.06749706 -0.00296656
v -0.00457384 0.06723376 -0.00185209
v -0.00410195 0.06753765 -0.00148059
v 0.00057885 0.06963011 -0.00333806
v 0.00084776 0.06973218 -0.00355116
v -0.00016369 0.06861404 -0.00058786
v -0.00016369 0.06853169 -0.00036611
v -0.00202005 0.06845513 -0.00073761
v -0.00000408 0.06937261 -0.00277218
v -0.00408633 0.06752954 -0.00119837
v -0.00384691 0.06763393 -0.00073761
v -0.00403255 0.06748662 -0.00073761
v -0.00442985 0.06713517 -0.00057634
v -0.00411062 0.06718969 -0.00014581
v -0.00387467 0.06731843 -0.00005942
v -0.00333338 0.06752026 0.00019833
v -0.00347738 0.06761305 -0.00000182
v -0.00481673 0.06677792 -0.00053890
v -0.00518453 0.06640444 -0.00054610
v -0.00316336 0.06778123 0.00000970
v -0.00286495 0.06783691 0.00013641
v -0.00217619 0.06786707 0.00054246
v -0.00172858 0.06782879 0.00086932
v -0.00078826 0.06755737 0.00171741
v -0.00090624 0.06785199 0.00123505
v -0.00127751 0.06790418 0.00098451
v -0.00239132 0.06823475 -0.00023364
v -0.00239132 0.06830203 -0.00041939
v -0.00239132 0.06840758 -0.00073761
v 0.00169267 0.06992356 -0.00407960
v 0.00020758 0.06868596 -0.00076640
v 0.00020758 0.06861404 -0.00058066
v 0.00057885 0.06893765 -0.00144172
v 0.00095012 0.06922647 -0.00222358
v 0.00130578 0.06966839 -0.00336830
v 0.00317949 0.06989225 -0.00445110
v 0.00317949 0.06977510 -0.00418904
v 0.00317949 0.06969159 -0.00400329
v 0.00317949 0.06942133 -0.00341005
v 0.00260870 0.06788098 0.00018681
v 0.00280821 0.06972058 -0.00393849
v 0.00234499 0.06975306 -0.00386650
v 0.00169613 0.06943873 -0.00293921
v 0.00080265 0.06900261 -0.00165482
v 0.00182105 0.06936217 -0.00279810
v 0.00206394 0.06934361 -0.00283841
v 0.00340329 0.06902233 -0.00273618
v 0.00377803 0.06939929 -0.00384202
v 0.00404868 0.06969739 -0.00471460
v 0.00414063 0.06976814 -0.00496226
v 0.00422217 0.06983425 -0.00519408
v 0.00456221 0.06980757 -0.00563325
v 0.00541579 0.06927518 -0.00590971
v 0.00568470 0.06907220 -0.00593707
v 0.00596576 0.06862680 -0.00575132
v 0.00558928 0.06862216 -0.00501410
v 0.00447547 0.06676400 -0.00018469
v 0.00561877 0.06829043 -0.00457637
v 0.00627110 0.06845049 -0.00629560
v 0.00634570 0.06604487 -0.00387370
v 0.00453272 0.06582101 0.00072533
v 0.00645847 0.06698670 -0.00516241
v 0.00419788 0.06584884 0.00149855
v 0.00406950 0.06546840 0.00197084
v 0.00415971 0.06546840 0.00178509
v 0.00430024 0.06546840 0.00149135
v 0.00443383 0.06546840 0.00120481
v 0.00408164 0.06597875 0.00162670
v 0.00378671 0.06572358 0.00247912
v 0.00525271 0.06509723 -0.00048707
v 0.00536721 0.06509723 -0.00073761
v 0.00560663 0.06509723 -0.00126605
v 0.00600219 0.06840990 -0.00560301
v 0.00557193 0.06783459 -0.00394713
v 0.00730685 0.06398373 -0.00482259
v 0.00749248 0.06435374 -0.00529056
v 0.00748034 0.06324024 -0.00532655
v 0.00704140 0.06361257 -0.00433591
v 0.00560663 0.06449293 -0.00127037
v 0.00423084 0.06506011 0.00152879
v 0.00418400 0.06472606 0.00144383
v 0.00706396 0.06398373 -0.00429991
v 0.00516596 0.06509723 -0.00030132
v 0.00501849 0.06509723 0.00000538
v 0.00393764 0.06546840 0.00223434
v 0.00451710 0.06509723 0.00101043
v 0.00441995 0.06509723 0.00119617
v 0.00379365 0.06472606 0.00215370
v 0.00372251 0.06495573 0.00239705
v 0.00337206 0.06377379 0.00242872
v 0.00224437 0.05898805 0.00203851
v 0.00218191 0.05840579 0.00186428
v -0.00651695 0.05915392 -0.00482259
v -0.00675116 0.05955988 -0.00482259
v -0.00747115 0.06071514 -0.00445110
v -0.00784242 0.06145748 -0.00482259
v -0.00807316 0.06177529 -0.00447989
v -0.00787018 0.06140992 -0.00445110
v -0.00777823 0.06119998 -0.00425815
v -0.00788232 0.06134729 -0.00411272
v -0.00749717 0.06067223 -0.00407960
v -0.00666962 0.06118606 -0.00017317
v -0.00399785 0.05840579 0.00158638
v -0.00445760 0.05892774 0.00132576
v -0.00556621 0.06005284 0.00057990
v -0.00719183 0.06212674 -0.00044387
v -0.00559744 0.06026858 0.00060294
v -0.00361444 0.05840579 0.00197948
v -0.00343053 0.05840579 0.00214218
v -0.00320673 0.05840579 0.00232793
v -0.00302109 0.05840579 0.00248056
v -0.00737399 0.06249790 -0.00057202
v -0.00759259 0.06286907 -0.00074769
v -0.00780425 0.06313933 -0.00090895
v -0.00274004 0.05840579 0.00267207
v -0.00256134 0.05840579 0.00278582
v -0.00762382 0.06325416 -0.00082400
v -0.00631223 0.06383643 -0.00017029
v -0.00555927 0.06418788 0.00019689
v -0.00745553 0.06388978 -0.00089312
v -0.00663145 0.06447901 -0.00057202
v -0.00714151 0.06435374 -0.00085568
v -0.00655685 0.06472606 -0.00062386
v -0.00630355 0.06492789 -0.00054466
v -0.00597045 0.06535357 -0.00051874
v -0.00444893 0.06678720 -0.00017029
v -0.00554713 0.06602283 -0.00055474
v -0.00672861 0.06497892 -0.00087440
v -0.00706344 0.06494065 -0.00125165
v -0.00750411 0.06464139 -0.00148059
v -0.00624803 0.06560875 -0.00099103
v -0.00732542 0.06482698 -0.00148059
v -0.00704609 0.06529094 -0.00199752
v -0.00766199 0.06481654 -0.00222358
v -0.00767760 0.06483046 -0.00259507
v -0.00749197 0.06498008 -0.00259507
v -0.00581257 0.06630932 -0.00222358
v -0.00619946 0.06594976 -0.00185209
v -0.00533720 0.06664570 -0.00184489
v -0.00516718 0.06675937 -0.00171674
v -0.00495379 0.06688812 -0.00148059
v -0.00472305 0.06707370 -0.00148059
v -0.00453741 0.06722100 -0.00148059
v -0.00645796 0.06578853 -0.00222358
v -0.00724561 0.06515291 -0.00222358
v 0.00001327 0.06899913 -0.00166346
v -0.00093746 0.06858272 -0.00075201
v -0.00090624 0.06845398 -0.00036611
v -0.00053496 0.06849573 -0.00036611
v -0.00053496 0.06836234 0.00000538
v -0.00053496 0.06820344 0.00042583
v -0.00053496 0.06807585 0.00074836
v -0.00016369 0.06838438 0.00000538
v -0.00108146 0.06862564 -0.00092623
v -0.00422512 0.06739847 -0.00108750
v -0.00449404 0.06718737 -0.00110910
v -0.00428238 0.06728132 -0.00071457
v -0.00596871 0.06606459 -0.00148059
v -0.00424074 0.06692871 -0.00009829
v -0.00368383 0.06712821 0.00018537
v -0.00360229 0.06732655 0.00013065
v -0.00263594 0.06755042 0.00059862
v -0.00341666 0.06732655 0.00025448
v -0.00300375 0.06720013 0.00059862
v -0.00276086 0.06732423 0.00067349
v -0.00241908 0.06735091 0.00086644
v -0.00173552 0.06741471 0.00124513
v -0.00103635 0.06745878 0.00164398
v -0.00148743 0.06753070 0.00132000
v -0.00193851 0.06758057 0.00099747
v -0.00127751 0.06759449 0.00138480
v -0.00090971 0.06733120 0.00179661
v -0.00037188 0.06678952 0.00243304
v -0.00004051 0.06644039 0.00282757
v -0.00045342 0.06719665 0.00210331
v -0.00053496 0.06758057 0.00174909
v -0.00053496 0.06774528 0.00149135
v -0.00053496 0.06786359 0.00125809
v -0.00053496 0.06794130 0.00107234
v -0.00090624 0.06792622 0.00104930
v -0.00127751 0.06799582 0.00074836
v -0.00202872 0.06819648 -0.00001766
v -0.00190902 0.06826375 -0.00015733
v 0.00142028 0.06973102 -0.00354828
v 0.00020758 0.06852009 -0.00036611
v 0.00057885 0.06879614 -0.00110910
v -0.00016369 0.06820228 0.00043879
v 0.00246470 0.06797262 0.00003994
v 0.00299212 0.06899797 -0.00240933
v 0.00057885 0.06858736 -0.00063825
v 0.00057885 0.06846441 -0.00036611
v 0.00057885 0.06823360 0.00014361
v 0.00184187 0.06750634 0.00129265
v 0.00206394 0.06757245 0.00106658
v 0.00300079 0.06825911 -0.00091471
v 0.00206394 0.06737875 0.00149135
v 0.00206394 0.06721752 0.00183405
v 0.00232417 0.06718157 0.00176349
v 0.00104901 0.06898637 -0.00169226
v 0.00057885 0.06867088 -0.00082400
v 0.00365138 0.06894113 -0.00288161
v 0.00373119 0.06862332 -0.00241508
v 0.00373639 0.06714097 0.00019113
v 0.00411981 0.06937841 -0.00424951
v 0.00378497 0.06643459 0.00137184
v 0.00419094 0.06943641 -0.00445110
v 0.00467845 0.06965795 -0.00553246
v 0.00513994 0.06930302 -0.00556558
v 0.00561183 0.06901189 -0.00572684
v 0.00448414 0.06640792 0.00020408
v 0.00405562 0.06672689 0.00048774
v 0.00411807 0.06640792 0.00095283
v 0.00448935 0.06604719 0.00058566
v 0.00478775 0.06659466 -0.00072321
v 0.00376068 0.06604719 0.00208459
v 0.00384569 0.06584421 0.00221850
v 0.00379191 0.06546840 0.00248632
v 0.00365832 0.06597064 0.00233225
v 0.00341023 0.06605647 0.00245032
v 0.00354035 0.06584421 0.00254103
v 0.00333042 0.06558207 0.00277862
v 0.00337900 0.06533385 0.00280022
v 0.00414236 0.06515987 0.00174045
v 0.00375895 0.06520278 0.00244888
v 0.00383702 0.06508679 0.00225738
v 0.00331134 0.06472606 0.00274694
v 0.00300773 0.06263129 0.00243448
v 0.00198066 0.05840579 0.00214938
v -0.00381395 0.05840579 0.00179373
v -0.00727857 0.06324024 -0.00062386
v -0.00240000 0.05840579 0.00287941
v -0.00634519 0.06361257 -0.00015013
v -0.00213976 0.06509723 0.00200971
v -0.00016369 0.06584073 0.00301044
v -0.00189687 0.06540576 0.00208459
v -0.00335073 0.06496964 0.00132432
v -0.00328654 0.06521670 0.00128401
v -0.00649613 0.06435490 -0.00044531
v -0.00517933 0.06491397 0.00019257
v -0.00586809 0.06482002 -0.00021493
v -0.00562000 0.06501836 -0.00013429
v -0.00183441 0.06565398 0.00204859
v -0.00409154 0.06569458 0.00058134
v -0.00332644 0.06603443 0.00093843
v -0.00553845 0.06526542 -0.00018757
v -0.00511861 0.06593932 -0.00022068
v -0.00478377 0.06636500 -0.00019621
v -0.00349993 0.06620145 0.00074405
v -0.00423727 0.06617710 0.00026024
v -0.00661410 0.06561339 -0.00185209
v -0.00101380 0.06824635 0.00016665
v -0.00090624 0.06803989 0.00074836
v -0.00325184 0.06704122 0.00051654
v -0.00487051 0.06611678 -0.00013717
v -0.00222650 0.06679300 0.00132000
v -0.00178584 0.06670485 0.00164686
v -0.00255961 0.06712009 0.00092259
v -0.00165745 0.06696119 0.00157630
v -0.00186217 0.06716765 0.00132288
v -0.00141110 0.06708994 0.00164542
v -0.00116300 0.06721057 0.00172029
v -0.00083163 0.06687767 0.00211339
v -0.00153774 0.06684172 0.00172173
v -0.00107973 0.06675705 0.00204139
v -0.00051068 0.06656102 0.00248920
v -0.00074315 0.06642299 0.00243448
v -0.00028514 0.06631977 0.00275558
v -0.00016196 0.06620262 0.00288517
v 0.00032555 0.06606111 0.00318611
v 0.00020758 0.06646127 0.00285061
v -0.00016369 0.06721752 0.00212491
v -0.00016369 0.06740311 0.00193484
v -0.00016369 0.06756897 0.00174909
v -0.00016369 0.06771744 0.00149135
v -0.00016369 0.06784503 0.00122353
v -0.00016369 0.06793202 0.00103778
v -0.00016369 0.06806425 0.00074836
v -0.00164878 0.06820924 0.00006873
v 0.00022666 0.06833798 0.00003706
v 0.00011563 0.06826955 0.00022136
v 0.00206394 0.06748778 0.00125233
v 0.00036372 0.06825099 0.00018105
v 0.00159377 0.06752606 0.00133584
v 0.00170828 0.06744487 0.00147263
v 0.00244388 0.06704470 0.00187724
v 0.00257227 0.06710733 0.00161950
v 0.00267810 0.06717809 0.00137184
v 0.00280474 0.06724304 0.00110978
v 0.00346401 0.06869291 -0.00222358
v 0.00132139 0.06746110 0.00156767
v 0.00072458 0.06750634 0.00166414
v 0.00187657 0.06713981 0.00204859
v 0.00206394 0.06712241 0.00201979
v 0.00319510 0.06780559 -0.00034164
v 0.00371210 0.06675240 0.00090531
v 0.00343972 0.06644735 0.00176493
v 0.00365659 0.06745878 -0.00027396
v 0.00445465 0.06934941 -0.00467284
v 0.00516770 0.06858272 -0.00434310
v 0.00467672 0.06882166 -0.00406376
v 0.00443383 0.06747502 -0.00135964
v 0.00368608 0.06636384 0.00161950
v 0.00355770 0.06630352 0.00187868
v 0.00354035 0.06611910 0.00221850
v 0.00337900 0.06522830 0.00280022
v 0.00334951 0.06498008 0.00277862
v 0.00265207 0.06678952 0.00207451
v 0.00317949 0.06611910 0.00250216
v 0.00288108 0.06596136 0.00274694
v 0.00319510 0.06583841 0.00270230
v 0.00243521 0.06685912 0.00213786
v 0.00292966 0.06636732 0.00238553
v 0.00308233 0.06571314 0.00282325
v 0.00280821 0.06546840 0.00298308
v 0.00260002 0.06486409 0.00315587
v 0.00223569 0.06562383 0.00315875
v 0.00264513 0.06461588 0.00317603
v 0.00262431 0.06415888 0.00316595
v 0.00280301 0.06399649 0.00297444
v 0.00288629 0.06324024 0.00270230
v 0.00283077 0.06250370 0.00254967
v 0.00223569 0.06012939 0.00240712
v 0.00225825 0.06303262 0.00316883
v 0.00190432 0.05926527 0.00243736
v 0.00184187 0.05901705 0.00240712
v 0.00169267 0.05840579 0.00231785
v -0.00239479 0.05840579 0.00288229
v 0.00003235 0.06562847 0.00316019
v -0.00050547 0.06546840 0.00288085
v -0.00069111 0.06546840 0.00277574
v -0.00143191 0.06516103 0.00240280
v -0.00195412 0.06509723 0.00211627
v -0.00508391 0.06398373 0.00050934
v -0.00090624 0.06546840 0.00265191
v 0.00007226 0.06584073 0.00314291
v -0.00038229 0.06607271 0.00281317
v -0.00114218 0.06574214 0.00245176
v -0.00259257 0.06531066 0.00168718
v -0.00510299 0.06516219 0.00014217
v -0.00372720 0.06534081 0.00095715
v -0.00195239 0.06621189 0.00175341
v -0.00213802 0.06621189 0.00163390
v -0.00338716 0.06584073 0.00097731
v -0.00159153 0.06584073 0.00213066
v -0.00143538 0.06635108 0.00202987
v -0.00227508 0.06576649 0.00172173
v -0.00187605 0.06645779 0.00170302
v -0.00256134 0.06637080 0.00129409
v -0.00248674 0.06658306 0.00124513
v -0.00277474 0.06658306 0.00105218
v -0.00230111 0.06658306 0.00136896
v -0.00200791 0.06658190 0.00156047
v 0.00025789 0.06584073 0.00320195
v 0.00057885 0.06584073 0.00325090
v 0.00057885 0.06607502 0.00319619
v 0.00057885 0.06626061 0.00303492
v 0.00020758 0.06664685 0.00267351
v 0.00020758 0.06683592 0.00248776
v 0.00020758 0.06702150 0.00229913
v 0.00020758 0.06720360 0.00211339
v 0.00057885 0.06718969 0.00209899
v 0.00163021 0.06714909 0.00205867
v 0.00020758 0.06754462 0.00172317
v 0.00047649 0.06752490 0.00169582
v 0.00020758 0.06766408 0.00149135
v 0.00059273 0.06759333 0.00152015
v 0.00095012 0.06757593 0.00144239
v 0.00055803 0.06794942 0.00076708
v 0.00020758 0.06801090 0.00074836
v 0.00022666 0.06818952 0.00035815
v 0.00290016 0.06670717 0.00193916
v 0.00280474 0.06702498 0.00149423
v 0.00132139 0.06697975 0.00225594
v 0.00057885 0.06645431 0.00284917
v 0.00162327 0.06678024 0.00243160
v 0.00187136 0.06676864 0.00242008
v 0.00206394 0.06693683 0.00220986
v 0.00333389 0.06637660 0.00201259
v 0.00264166 0.06435374 0.00317459
v 0.00268157 0.06642532 0.00244456
v 0.00278219 0.06619914 0.00259575
v 0.00263472 0.06603211 0.00279590
v 0.00243521 0.06666889 0.00232361
v 0.00209343 0.06585464 0.00310547
v 0.00198760 0.06574097 0.00320195
v 0.00229468 0.06537677 0.00317891
v 0.00245950 0.06473418 0.00322642
v 0.00209343 0.06548696 0.00323074
v 0.00206394 0.06398373 0.00345105
v 0.00206394 0.06435374 0.00341937
v 0.00245082 0.06401505 0.00325378
v 0.00235020 0.06361257 0.00324658
v 0.00229121 0.06324024 0.00319763
v 0.00237796 0.06101208 0.00252664
v 0.00206394 0.06324024 0.00334018
v 0.00221314 0.06278440 0.00313571
v 0.00191300 0.06074066 0.00281317
v 0.00184534 0.06049244 0.00278150
v 0.00146019 0.05840579 0.00240280
v -0.00200791 0.05840579 0.00307956
v -0.00200791 0.05840695 0.00307956
v -0.00000235 0.06538141 0.00317459
v 0.00020758 0.06509723 0.00324082
v 0.00057885 0.06546840 0.00328114
v 0.00017635 0.06549044 0.00320915
v 0.00095012 0.06509723 0.00334450
v 0.00095012 0.06546840 0.00331426
v 0.00132139 0.06546840 0.00333154
v 0.00095012 0.06584073 0.00325666
v 0.00132139 0.06584073 0.00324946
v 0.00095012 0.06606111 0.00319043
v 0.00095012 0.06624669 0.00301764
v 0.00095012 0.06643807 0.00283189
v 0.00182799 0.06639168 0.00278582
v 0.00206394 0.06674081 0.00239560
v 0.00132139 0.06641952 0.00281317
v 0.00132139 0.06622697 0.00299892
v 0.00243521 0.06648331 0.00249352
v 0.00243521 0.06626409 0.00267926
v 0.00243521 0.06607851 0.00283621
v 0.00177074 0.06598919 0.00314291
v 0.00166491 0.06585464 0.00321923
v 0.00169267 0.06546840 0.00332434
v 0.00206394 0.06509723 0.00330418
v 0.00206394 0.06472606 0.00336321
v 0.00169267 0.06435374 0.00346401
v 0.00169267 0.06398373 0.00349281
v 0.00169267 0.06361257 0.00349857
v 0.00169267 0.06324024 0.00347121
v 0.00206394 0.06361257 0.00342225
v 0.00169267 0.06509723 0.00337473
v 0.00169267 0.06472606 0.00342369
v 0.00207955 0.06289343 0.00324514
v 0.00191300 0.06223345 0.00318179
v 0.00197025 0.06249790 0.00321491
v 0.00183840 0.06198639 0.00315155
v 0.00127629 0.05840579 0.00246904
v -0.00181880 0.05840579 0.00316307
v -0.00003184 0.06509723 0.00318755
v 0.00020758 0.06472606 0.00325522
v 0.00057885 0.06509723 0.00329842
v -0.00164531 0.05840579 0.00319763
v 0.00095012 0.06472606 0.00336465
v 0.00132139 0.06472606 0.00340641
v 0.00132139 0.06509723 0.00337185
v 0.00132139 0.06604139 0.00317603
v 0.00206394 0.06616202 0.00290965
v 0.00206394 0.06634760 0.00274982
v 0.00206394 0.06655406 0.00256407
v 0.00152264 0.06602863 0.00316595
v 0.00132139 0.06398373 0.00344385
v 0.00132139 0.06361257 0.00345537
v 0.00132139 0.06324024 0.00346545
v 0.00132139 0.06286907 0.00345393
v 0.00169267 0.06286907 0.00340641
v -0.00136946 0.05840579 0.00319187
v 0.00169267 0.06249790 0.00331858
v 0.00095012 0.05840579 0.00256839
v 0.00095012 0.06435374 0.00337761
v -0.00053496 0.05840579 0.00297732
f 1 2 3
f 1 3 4
f 1 4 5
f 1 5 6
f 1 6 7
f 1 7 8
f 1 8 9
f 1 9 10
f 1 10 11
f 1 11 12
f 1 12 2
f 2 13 3
f 2 12 13
f 3 14 15
f 3 15 16
f 3 16 4
f 3 13 14
f 4 17 6
f 4 6 5
f 4 16 17
f 6 17 16
f 6 16 18
f 6 18 19
f 6 19 20
f 6 20 21
f 6 21 7
f 7 21 22
f 7 22 8
f 8 22 23
f 8 23 24
f 8 24 9
f 9 24 25
f 9 25 10
f 10 25 26
f 10 26 27
f 10 27 28
f 10 28 29
f 10 29 30
f 10 30 11
f 11 30 31
f 11 31 32
f 11 32 33
f 11 33 12
f 12 33 34
f 12 34 13
f 13 34 35
f 13 35 14
f 14 35 36
f 14 36 37
f 14 37 38
f 14 38 15
f 15 39 40
f 15 40 41
f 15 41 42
f 15 42 16
f 15 38 39
f 16 42 43
f 16 43 44
f 16 44 45
f 16 45 46
f 16 46 18
f 18 46 47
f 18 47 19
f 19 47 48
f 19 48 49
f 19 49 20
f 20 49 21
f 21 49 50
f 21 50 51
f 21 51 22
f 22 51 50
f 22 50 52
f 22 52 53
f 22 53 54
f 22 54 23
f 23 54 55
f 23 55 56
f 23 56 24
f 24 56 25
f 25 57 26
f 25 56 58
f 25 58 57
f 26 59 27
f 26 57 59
f 27 59 60
f 27 60 28
f 28 60 61
f 28 61 62
f 28 62 63
f 28 63 29
f 29 64 65
f 29 65 66
f 29 66 67
f 29 67 31
f 29 31 30
f 29 63 64
f 31 67 68
f 31 68 69
f 31 69 32
f 32 69 70
f 32 70 71
f 32 71 33
f 33 72 73
f 33 73 74
f 33 74 75
f 33 75 35
f 33 35 34
f 33 71 76
f 33 76 72
f 35 75 77
f 35 77 36
f 36 77 78
f 36 78 79
f 36 79 80
f 36 80 37
f 37 81 38
f 37 80 82
f 37 82 83
f 37 83 81
f 38 81 84
f 38 84 85
f 38 85 39
f 39 85 40
f 40 86 87
f 40 87 41
f 40 85 88
f 40 88 86
f 41 87 89
f 41 89 90
f 41 90 91
f 41 91 92
f 41 92 93
f 41 93 42
f 42 93 94
f 42 94 95
f 42 95 43
f 43 95 44
f 44 95 96
f 44 96 45
f 45 97 98
f 45 98 99
f 45 99 100
f 45 100 101
f 45 101 102
f 45 102 46
f 45 96 103
f 45 103 104
f 45 104 97
f 46 48 47
f 46 102 105
f 46 105 50
f 46 50 106
f 46 106 48
f 48 106 49
f 49 106 50
f 50 53 52
f 50 105 107
f 50 107 101
f 50 101 53
f 53 100 108
f 53 108 109
f 53 109 55
f 53 55 54
f 53 101 100
f 55 109 110
f 55 110 56
f 56 110 111
f 56 111 112
f 56 112 113
f 56 113 114
f 56 114 115
f 56 115 116
f 56 116 117
f 56 117 118
f 56 118 60
f 56 60 119
f 56 119 58
f 57 120 59
f 57 58 120
f 58 119 120
f 59 120 60
f 60 120 119
f 60 118 117
f 60 117 121
f 60 121 122
f 60 122 123
f 60 123 124
f 60 124 61
f 61 125 126
f 61 126 62
f 61 124 127
f 61 127 125
f 62 126 63
f 63 126 128
f 63 128 129
f 63 129 130
f 63 130 131
f 63 131 64
f 64 132 133
f 64 133 134
f 64 134 135
f 64 135 136
f 64 136 65
f 64 131 137
f 64 137 138
f 64 138 132
f 65 136 66
f 66 139 67
f 66 136 140
f 66 140 139
f 67 139 68
f 68 139 70
f 68 70 69
f 70 140 71
f 70 139 140
f 71 140 141
f 71 141 142
f 71 142 143
f 71 143 76
f 72 144 145
f 72 145 146
f 72 146 147
f 72 147 73
f 72 76 144
f 73 147 74
f 74 78 77
f 74 77 75
f 74 147 146
f 74 146 148
f 74 148 149
f 74 149 79
f 74 79 78
f 76 150 151
f 76 151 144
f 76 143 249
f 76 249 152
f 76 152 153
f 76 153 154
f 76 154 155
f 76 155 156
f 76 156 150
f 79 149 157
f 79 157 158
f 79 158 80
f 80 158 82
f 81 83 159
f 81 159 84
f 82 158 83
f 83 158 159
f 84 160 161
f 84 161 85
f 84 159 160
f 85 161 162
f 85 162 163
f 85 163 164
f 85 164 88
f 86 165 166
f 86 166 167
f 86 167 168
f 86 168 169
f 86 169 170
f 86 170 87
f 86 88 165
f 87 170 171
f 87 171 172
f 87 172 89
f 88 164 173
f 88 173 174
f 88 174 175
f 88 175 165
f 89 172 176
f 89 176 177
f 89 177 90
f 90 177 178
f 90 178 179
f 90 179 180
f 90 180 181
f 90 181 182
f 90 182 183
f 90 183 184
f 90 184 91
f 91 184 185
f 91 185 92
f 92 94 93
f 92 185 186
f 92 186 94
f 94 186 95
f 95 186 96
f 96 186 103
f 97 104 187
f 97 187 188
f 97 188 98
f 98 188 104
f 98 104 189
f 98 189 190
f 98 190 191
f 98 191 99
f 99 191 192
f 99 192 193
f 99 193 100
f 100 193 108
f 101 107 105
f 101 105 102
f 103 186 194
f 103 194 104
f 104 188 187
f 104 194 195
f 104 195 189
f 108 193 109
f 109 111 110
f 109 193 196
f 109 196 197
f 109 197 198
f 109 198 199
f 109 199 200
f 109 200 201
f 109 201 202
f 109 202 203
f 109 203 111
f 111 203 204
f 111 204 112
f 112 204 205
f 112 205 206
f 112 206 207
f 112 207 113
f 113 207 208
f 113 208 115
f 113 115 114
f 115 208 209
f 115 209 210
f 115 210 116
f 116 210 117
f 117 210 123
f 117 123 121
f 121 123 122
f 123 210 211
f 123 211 212
f 123 212 213
f 123 213 214
f 123 214 215
f 123 215 124
f 124 125 127
f 124 215 216
f 124 216 125
f 125 216 217
f 125 217 218
f 125 218 219
f 125 219 220
f 125 220 126
f 126 221 222
f 126 222 223
f 126 223 128
f 126 220 221
f 128 223 222
f 128 222 129
f 129 224 225
f 129 225 226
f 129 226 130
f 129 222 227
f 129 227 224
f 130 228 131
f 130 226 229
f 130 229 230
f 130 230 231
f 130 231 232
f 130 232 233
f 130 233 228
f 131 228 137
f 132 234 235
f 132 235 236
f 132 236 133
f 132 138 237
f 132 237 234
f 133 236 134
f 134 238 135
f 134 236 239
f 134 239 238
f 135 238 136
f 136 240 140
f 136 238 241
f 136 241 242
f 136 242 240
f 137 228 243
f 137 243 244
f 137 244 138
f 138 244 237
f 140 240 141
f 141 245 246
f 141 246 142
f 141 240 242
f 141 242 245
f 142 246 143
f 143 246 247
f 143 247 248
f 143 248 249
f 144 250 251
f 144 251 145
f 144 151 250
f 145 251 252
f 145 252 146
f 146 252 253
f 146 253 148
f 148 253 254
f 148 254 255
f 148 255 256
f 148 256 149
f 149 256 157
f 150 257 258
f 150 258 151
f 150 156 155
f 150 155 259
f 150 259 257
f 151 258 260
f 151 260 250
f 152 249 364
f 152 364 261
f 152 261 262
f 152 262 153
f 153 262 261
f 153 261 263
f 153 263 154
f 154 263 264
f 154 264 259
f 154 259 155
f 157 256 158
f 158 256 265
f 158 265 159
f 159 265 266
f 159 266 267
f 159 267 160
f 160 162 161
f 160 267 268
f 160 268 162
f 162 268 163
f 163 173 164
f 163 268 173
f 165 175 166
f 166 269 270
f 166 270 167
f 166 175 271
f 166 271 272
f 166 272 273
f 166 273 274
f 166 274 275
f 166 275 276
f 166 276 277
f 166 277 269
f 167 270 278
f 167 278 168
f 168 278 279
f 168 279 280
f 168 280 281
f 168 281 169
f 169 281 170
f 170 281 171
f 171 281 282
f 171 282 283
f 171 283 172
f 172 283 284
f 172 284 285
f 172 285 286
f 172 286 176
f 173 268 287
f 173 287 288
f 173 288 174
f 174 272 175
f 174 288 289
f 174 289 290
f 174 290 272
f 175 272 271
f 176 286 177
f 177 286 178
f 178 286 179
f 179 286 291
f 179 291 292
f 179 292 293
f 179 293 294
f 179 294 180
f 180 294 181
f 181 294 295
f 181 295 296
f 181 296 182
f 182 296 183
f 183 296 297
f 183 297 298
f 183 298 184
f 184 298 185
f 185 298 299
f 185 299 300
f 185 300 186
f 186 300 301
f 186 301 302
f 186 302 303
f 186 303 304
f 186 304 194
f 189 195 305
f 189 305 190
f 190 305 306
f 190 306 193
f 190 193 307
f 190 307 192
f 190 192 191
f 192 307 193
f 193 306 308
f 193 308 309
f 193 309 196
f 194 304 195
f 195 304 306
f 195 306 305
f 196 309 308
f 196 308 310
f 196 310 311
f 196 311 312
f 196 312 313
f 196 313 199
f 196 199 197
f 197 199 198
f 199 314 315
f 199 315 316
f 199 316 317
f 199 317 201
f 199 201 200
f 199 313 314
f 201 318 319
f 201 319 320
f 201 320 321
f 201 321 322
f 201 322 323
f 201 323 202
f 201 317 316
f 201 316 318
f 202 323 324
f 202 324 325
f 202 325 204
f 202 204 203
f 204 325 326
f 204 326 205
f 205 326 327
f 205 327 328
f 205 328 206
f 206 328 329
f 206 329 330
f 206 330 214
f 206 214 331
f 206 331 207
f 207 331 208
f 208 331 209
f 209 331 332
f 209 332 210
f 210 332 211
f 211 332 212
f 212 332 214
f 212 214 213
f 214 332 331
f 214 330 329
f 214 329 333
f 214 333 217
f 214 217 215
f 215 217 216
f 217 333 219
f 217 219 218
f 219 333 220
f 220 333 334
f 220 334 456
f 220 456 567
f 220 567 709
f 220 709 703
f 220 703 702
f 220 702 564
f 220 564 563
f 220 563 701
f 220 701 700
f 220 700 699
f 220 699 698
f 220 698 697
f 220 697 850
f 220 850 987
f 220 987 986
f 220 986 985
f 220 985 1135
f 220 1135 1271
f 220 1271 1369
f 220 1369 1442
f 220 1442 1480
f 220 1480 1501
f 220 1501 1503
f 220 1503 1499
f 220 1499 1485
f 220 1485 1481
f 220 1481 1443
f 220 1443 1370
f 220 1370 1274
f 220 1274 1159
f 220 1159 1158
f 220 1158 1154
f 220 1154 1153
f 220 1153 1152
f 220 1152 1151
f 220 1151 1272
f 220 1272 1146
f 220 1146 1002
f 220 1002 868
f 220 868 867
f 220 867 883
f 220 883 882
f 220 882 881
f 220 881 1015
f 220 1015 879
f 220 879 1014
f 220 1014 1010
f 220 1010 877
f 220 877 851
f 220 851 710
f 220 710 568
f 220 568 457
f 220 457 345
f 220 345 344
f 220 344 343
f 220 343 340
f 220 340 342
f 220 342 243
f 220 243 233
f 220 233 231
f 220 231 230
f 220 230 225
f 220 225 338
f 220 338 339
f 220 339 337
f 220 337 336
f 220 336 335
f 220 335 222
f 220 222 221
f 222 336 337
f 222 337 227
f 222 335 336
f 224 227 225
f 225 227 338
f 225 230 226
f 226 230 229
f 227 337 339
f 227 339 338
f 228 233 243
f 231 233 232
f 234 340 341
f 234 341 235
f 234 237 342
f 234 342 340
f 235 341 343
f 235 343 344
f 235 344 236
f 236 344 345
f 236 345 239
f 237 244 342
f 238 239 241
f 239 345 346
f 239 346 347
f 239 347 348
f 239 348 349
f 239 349 350
f 239 350 241
f 241 350 351
f 241 351 245
f 241 245 242
f 243 342 352
f 243 352 244
f 244 352 342
f 245 351 350
f 245 350 353
f 245 353 354
f 245 354 355
f 245 355 246
f 246 356 247
f 246 355 354
f 246 354 357
f 246 357 356
f 247 356 358
f 247 358 359
f 247 359 248
f 248 359 360
f 248 360 361
f 248 361 362
f 248 362 363
f 248 363 249
f 249 363 364
f 250 252 251
f 250 260 253
f 250 253 252
f 253 260 365
f 253 365 254
f 254 365 255
f 255 365 256
f 256 365 266
f 256 266 265
f 257 259 366
f 257 366 367
f 257 367 368
f 257 368 258
f 258 368 260
f 259 264 366
f 260 368 369
f 260 369 365
f 261 364 475
f 261 475 370
f 261 370 371
f 261 371 372
f 261 372 373
f 261 373 263
f 263 374 264
f 263 373 374
f 264 374 375
f 264 375 369
f 264 369 376
f 264 376 377
f 264 377 378
f 264 378 379
f 264 379 367
f 264 367 366
f 266 365 380
f 266 380 267
f 267 380 381
f 267 381 288
f 267 288 382
f 267 382 268
f 268 382 383
f 268 383 287
f 269 384 385
f 269 385 386
f 269 386 387
f 269 387 388
f 269 388 389
f 269 389 390
f 269 390 270
f 269 277 391
f 269 391 392
f 269 392 384
f 270 390 393
f 270 393 394
f 270 394 395
f 270 395 278
f 272 290 396
f 272 396 273
f 273 397 274
f 273 396 398
f 273 398 399
f 273 399 397
f 274 397 400
f 274 400 401
f 274 401 402
f 274 402 275
f 275 402 401
f 275 401 403
f 275 403 404
f 275 404 405
f 275 405 406
f 275 406 276
f 276 406 407
f 276 407 277
f 277 407 391
f 278 395 408
f 278 408 409
f 278 409 410
f 278 410 279
f 279 410 411
f 279 411 283
f 279 283 282
f 279 282 280
f 280 282 281
f 283 411 410
f 283 410 412
f 283 412 284
f 284 412 285
f 285 412 286
f 286 412 413
f 286 413 291
f 287 383 288
f 288 383 382
f 288 381 414
f 288 414 289
f 289 414 415
f 289 415 290
f 290 415 396
f 291 413 416
f 291 416 417
f 291 417 418
f 291 418 421
f 291 421 419
f 291 419 292
f 292 419 293
f 293 419 420
f 293 420 294
f 294 420 295
f 295 420 419
f 295 419 421
f 295 421 422
f 295 422 296
f 296 422 297
f 297 422 423
f 297 423 424
f 297 424 298
f 298 424 425
f 298 425 299
f 299 425 426
f 299 426 300
f 300 426 301
f 301 426 427
f 301 427 303
f 301 303 302
f 303 427 304
f 304 427 310
f 304 310 306
f 306 310 308
f 310 427 311
f 311 427 428
f 311 428 429
f 311 429 430
f 311 430 431
f 311 431 432
f 311 432 433
f 311 433 312
f 312 433 434
f 312 434 313
f 313 434 314
f 314 435 316
f 314 316 315
f 314 434 433
f 314 433 432
f 314 432 435
f 316 435 432
f 316 432 436
f 316 436 437
f 316 437 438
f 316 438 318
f 318 438 319
f 319 438 320
f 320 438 439
f 320 439 322
f 320 322 321
f 322 439 440
f 322 440 441
f 322 441 323
f 323 441 324
f 324 441 325
f 325 441 442
f 325 442 326
f 326 442 443
f 326 443 327
f 327 444 328
f 327 443 445
f 327 445 441
f 327 441 446
f 327 446 447
f 327 447 448
f 327 448 449
f 327 449 450
f 327 450 451
f 327 451 452
f 327 452 453
f 327 453 444
f 328 444 333
f 328 333 329
f 333 444 453
f 333 453 454
f 333 454 455
f 333 455 334
f 334 455 456
f 340 343 341
f 345 457 458
f 345 458 346
f 346 458 347
f 347 458 354
f 347 354 459
f 347 459 348
f 348 459 349
f 349 459 350
f 350 459 353
f 353 459 354
f 354 458 457
f 354 457 460
f 354 460 461
f 354 461 356
f 354 356 357
f 356 461 462
f 356 462 358
f 358 462 463
f 358 463 464
f 358 464 360
f 358 360 359
f 360 464 361
f 361 464 465
f 361 465 466
f 361 466 467
f 361 467 468
f 361 468 469
f 361 469 362
f 362 469 363
f 363 469 470
f 363 470 364
f 364 470 471
f 364 471 472
f 364 472 473
f 364 473 474
f 364 474 475
f 365 369 476
f 365 476 380
f 367 379 378
f 367 378 368
f 368 378 369
f 369 378 477
f 369 477 376
f 369 375 476
f 370 475 595
f 370 595 478
f 370 478 479
f 370 479 480
f 370 480 481
f 370 481 482
f 370 482 483
f 370 483 372
f 370 372 371
f 372 483 484
f 372 484 485
f 372 485 486
f 372 486 487
f 372 487 488
f 372 488 489
f 372 489 374
f 372 374 373
f 374 489 375
f 375 489 488
f 375 488 380
f 375 380 476
f 376 477 377
f 377 477 378
f 380 488 487
f 380 487 490
f 380 490 491
f 380 491 414
f 380 414 381
f 384 392 492
f 384 492 493
f 384 493 494
f 384 494 385
f 385 494 386
f 386 494 495
f 386 495 496
f 386 496 388
f 386 388 387
f 388 496 497
f 388 497 498
f 388 498 393
f 388 393 389
f 389 393 390
f 391 407 499
f 391 499 500
f 391 500 392
f 392 500 492
f 393 498 394
f 394 498 408
f 394 408 395
f 396 415 501
f 396 501 502
f 396 502 503
f 396 503 399
f 396 399 398
f 397 504 400
f 397 399 504
f 399 505 506
f 399 506 504
f 399 503 507
f 399 507 505
f 400 504 508
f 400 508 509
f 400 509 510
f 400 510 511
f 400 511 512
f 400 512 513
f 400 513 401
f 401 513 403
f 403 513 512
f 403 512 514
f 403 514 515
f 403 515 404
f 404 516 517
f 404 517 518
f 404 518 519
f 404 519 405
f 404 515 520
f 404 520 516
f 405 519 406
f 406 519 521
f 406 521 407
f 407 521 522
f 407 522 523
f 407 523 499
f 408 498 413
f 408 413 409
f 409 413 412
f 409 412 410
f 413 524 416
f 413 498 524
f 414 491 501
f 414 501 415
f 416 525 526
f 416 526 417
f 416 524 527
f 416 527 528
f 416 528 529
f 416 529 525
f 417 526 530
f 417 530 418
f 418 530 421
f 421 530 531
f 421 531 425
f 421 425 422
f 422 425 424
f 422 424 423
f 425 531 426
f 426 532 428
f 426 428 427
f 426 531 533
f 426 533 530
f 426 530 526
f 426 526 534
f 426 534 532
f 428 535 429
f 428 532 536
f 428 536 537
f 428 537 535
f 429 538 539
f 429 539 540
f 429 540 541
f 429 541 542
f 429 542 430
f 429 535 543
f 429 543 538
f 430 542 544
f 430 544 431
f 431 544 432
f 432 545 546
f 432 546 437
f 432 437 436
f 432 544 541
f 432 541 547
f 432 547 548
f 432 548 545
f 437 546 438
f 438 546 549
f 438 549 439
f 439 550 551
f 439 551 440
f 439 549 550
f 440 551 552
f 440 552 441
f 441 552 446
f 441 445 442
f 442 445 443
f 446 552 447
f 447 552 551
f 447 551 553
f 447 553 448
f 448 553 449
f 449 553 450
f 450 554 451
f 450 553 555
f 450 555 556
f 450 556 557
f 450 557 558
f 450 558 559
f 450 559 560
f 450 560 554
f 451 554 452
f 452 561 562
f 452 562 453
f 452 554 560
f 452 560 563
f 452 563 564
f 452 564 561
f 453 562 565
f 453 565 566
f 453 566 454
f 454 566 455
f 455 566 567
f 455 567 456
f 457 568 569
f 457 569 570
f 457 570 571
f 457 571 460
f 460 571 570
f 460 570 572
f 460 572 461
f 461 573 574
f 461 574 462
f 461 572 573
f 462 575 576
f 462 576 577
f 462 577 578
f 462 578 579
f 462 579 580
f 462 580 463
f 462 574 581
f 462 581 582
f 462 582 570
f 462 570 569
f 462 569 575
f 463 580 583
f 463 583 584
f 463 584 464
f 464 584 465
f 465 584 466
f 466 585 586
f 466 586 470
f 466 470 468
f 466 468 467
f 466 584 583
f 466 583 585
f 468 470 469
f 470 586 471
f 471 587 472
f 471 586 585
f 471 585 587
f 472 587 588
f 472 588 473
f 473 588 589
f 473 589 590
f 473 590 474
f 474 591 592
f 474 592 593
f 474 593 594
f 474 594 595
f 474 595 596
f 474 596 475
f 474 590 591
f 475 596 595
f 478 595 597
f 478 597 479
f 479 597 598
f 479 598 480
f 480 599 600
f 480 600 601
f 480 601 602
f 480 602 482
f 480 482 481
f 480 598 599
f 482 603 604
f 482 604 605
f 482 605 606
f 482 606 483
f 482 602 607
f 482 607 608
f 482 608 609
f 482 609 610
f 482 610 611
f 482 611 612
f 482 612 603
f 483 606 484
f 484 606 605
f 484 605 485
f 485 605 604
f 485 604 613
f 485 613 614
f 485 614 486
f 486 614 612
f 486 612 611
f 486 611 490
f 486 490 487
f 490 615 491
f 490 611 615
f 491 616 501
f 491 615 616
f 492 500 499
f 492 499 617
f 492 617 618
f 492 618 493
f 493 618 619
f 493 619 494
f 494 619 617
f 494 617 497
f 494 497 496
f 494 496 495
f 497 617 524
f 497 524 498
f 499 523 620
f 499 620 617
f 501 616 621
f 501 621 622
f 501 622 623
f 501 623 624
f 501 624 502
f 502 507 503
f 502 624 507
f 504 506 625
f 504 625 508
f 505 507 626
f 505 626 506
f 506 626 625
f 507 624 627
f 507 627 628
f 507 628 629
f 507 629 626
f 508 625 509
f 509 625 630
f 509 630 631
f 509 631 512
f 509 512 632
f 509 632 510
f 510 632 512
f 510 512 511
f 512 631 514
f 514 631 633
f 514 633 520
f 514 520 515
f 516 634 517
f 516 520 634
f 517 634 635
f 517 635 518
f 518 635 636
f 518 636 637
f 518 637 638
f 518 638 521
f 518 521 519
f 520 633 634
f 521 638 522
f 522 638 639
f 522 639 640
f 522 640 641
f 522 641 642
f 522 642 643
f 522 643 523
f 523 643 620
f 524 617 644
f 524 644 645
f 524 645 646
f 524 646 647
f 524 647 527
f 525 529 648
f 525 648 649
f 525 649 650
f 525 650 651
f 525 651 652
f 525 652 526
f 526 652 653
f 526 653 654
f 526 654 534
f 527 647 655
f 527 655 641
f 527 641 656
f 527 656 657
f 527 657 658
f 527 658 528
f 528 658 659
f 528 659 529
f 529 659 660
f 529 660 648
f 530 533 531
f 532 534 654
f 532 654 661
f 532 661 536
f 535 537 543
f 536 662 663
f 536 663 537
f 536 661 664
f 536 664 665
f 536 665 666
f 536 666 667
f 536 667 668
f 536 668 662
f 537 663 543
f 538 669 548
f 538 548 670
f 538 670 541
f 538 541 540
f 538 540 539
f 538 543 669
f 541 544 542
f 541 670 548
f 541 548 547
f 543 663 671
f 543 671 672
f 543 672 673
f 543 673 674
f 543 674 675
f 543 675 676
f 543 676 669
f 545 677 546
f 545 548 678
f 545 678 679
f 545 679 680
f 545 680 677
f 546 677 681
f 546 681 549
f 548 669 676
f 548 676 678
f 549 681 682
f 549 682 684
f 549 684 683
f 549 683 550
f 550 683 684
f 550 684 685
f 550 685 686
f 550 686 551
f 551 686 687
f 551 687 688
f 551 688 689
f 551 689 690
f 551 690 553
f 553 691 555
f 553 690 692
f 553 692 693
f 553 693 694
f 553 694 691
f 555 691 695
f 555 695 696
f 555 696 556
f 556 696 557
f 557 696 697
f 557 697 698
f 557 698 699
f 557 699 558
f 558 560 559
f 558 699 700
f 558 700 560
f 560 700 701
f 560 701 563
f 561 564 702
f 561 702 703
f 561 703 562
f 562 703 704
f 562 704 705
f 562 705 565
f 565 705 706
f 565 706 566
f 566 706 707
f 566 707 708
f 566 708 567
f 567 707 706
f 567 706 709
f 567 708 707
f 568 710 569
f 569 710 711
f 569 711 712
f 569 712 713
f 569 713 714
f 569 714 715
f 569 715 575
f 570 582 572
f 572 582 716
f 572 716 573
f 573 716 581
f 573 581 574
f 575 715 714
f 575 714 576
f 576 714 577
f 577 714 578
f 578 717 718
f 578 718 583
f 578 583 579
f 578 714 717
f 579 583 580
f 581 716 582
f 583 718 719
f 583 719 585
f 585 719 720
f 585 720 587
f 587 720 589
f 587 589 588
f 589 721 722
f 589 722 591
f 589 591 590
f 589 720 723
f 589 723 724
f 589 724 725
f 589 725 721
f 591 722 595
f 591 595 594
f 591 594 593
f 591 593 592
f 595 722 726
f 595 726 727
f 595 727 728
f 595 728 597
f 597 728 727
f 597 727 729
f 597 729 730
f 597 730 731
f 597 731 732
f 597 732 598
f 598 732 733
f 598 733 734
f 598 734 599
f 599 735 736
f 599 736 737
f 599 737 738
f 599 738 739
f 599 739 600
f 599 734 740
f 599 740 741
f 599 741 742
f 599 742 743
f 599 743 735
f 600 739 601
f 601 739 744
f 601 744 745
f 601 745 746
f 601 746 747
f 601 747 748
f 601 748 749
f 601 749 602
f 602 749 750
f 602 750 751
f 602 751 607
f 603 752 604
f 603 612 753
f 603 753 752
f 604 752 613
f 607 751 754
f 607 754 608
f 608 754 755
f 608 755 609
f 609 755 610
f 610 755 756
f 610 756 611
f 611 756 615
f 612 614 757
f 612 757 752
f 612 752 753
f 613 752 614
f 614 752 757
f 615 758 616
f 615 756 759
f 615 759 758
f 616 758 760
f 616 760 761
f 616 761 762
f 616 762 763
f 616 763 764
f 616 764 765
f 616 765 621
f 617 620 766
f 617 766 644
f 617 619 618
f 620 643 767
f 620 767 768
f 620 768 766
f 621 765 769
f 621 769 622
f 622 770 623
f 622 769 771
f 622 771 772
f 622 772 773
f 622 773 770
f 623 770 627
f 623 627 624
f 625 629 774
f 625 774 775
f 625 775 630
f 625 626 629
f 627 770 776
f 627 776 629
f 627 629 628
f 629 777 775
f 629 775 774
f 629 776 777
f 630 778 633
f 630 633 631
f 630 775 777
f 630 777 779
f 630 779 778
f 633 778 634
f 634 778 780
f 634 780 781
f 634 781 782
f 634 782 783
f 634 783 635
f 635 783 636
f 636 783 782
f 636 782 784
f 636 784 786
f 636 786 637
f 637 785 638
f 637 786 785
f 638 785 639
f 639 785 787
f 639 787 788
f 639 788 789
f 639 789 790
f 639 790 640
f 640 790 657
f 640 657 656
f 640 656 641
f 641 655 791
f 641 791 642
f 642 791 792
f 642 792 643
f 643 792 767
f 644 766 645
f 645 793 794
f 645 794 647
f 645 647 646
f 645 766 793
f 647 794 655
f 648 660 649
f 649 651 650
f 649 660 795
f 649 795 796
f 649 796 665
f 649 665 651
f 651 653 652
f 651 665 797
f 651 797 653
f 653 797 805
f 653 805 798
f 653 798 661
f 653 661 654
f 655 794 793
f 655 793 791
f 657 799 800
f 657 800 801
f 657 801 802
f 657 802 658
f 657 790 789
f 657 789 799
f 658 802 803
f 658 803 804
f 658 804 659
f 659 795 660
f 659 804 795
f 661 798 805
f 661 805 665
f 661 665 664
f 662 668 806
f 662 806 807
f 662 807 663
f 663 807 806
f 663 806 668
f 663 668 808
f 663 808 671
f 665 796 667
f 665 667 666
f 665 805 797
f 667 796 795
f 667 795 809
f 667 809 804
f 667 804 668
f 668 804 810
f 668 810 808
f 671 808 810
f 671 810 811
f 671 811 672
f 672 811 812
f 672 812 803
f 672 803 673
f 673 813 814
f 673 814 675
f 673 675 674
f 673 803 802
f 673 802 964
f 673 964 813
f 675 814 815
f 675 815 816
f 675 816 676
f 676 816 684
f 676 684 682
f 676 682 817
f 676 817 818
f 676 818 679
f 676 679 678
f 677 819 681
f 677 680 819
f 679 818 817
f 679 817 820
f 679 820 821
f 679 821 680
f 680 821 819
f 681 819 820
f 681 820 817
f 681 817 682
f 684 822 685
f 684 816 823
f 684 823 824
f 684 824 822
f 685 825 826
f 685 826 686
f 685 822 824
f 685 824 827
f 685 827 828
f 685 828 825
f 686 829 830
f 686 830 687
f 686 826 829
f 687 830 831
f 687 831 832
f 687 832 833
f 687 833 688
f 688 833 832
f 688 832 834
f 688 834 835
f 688 835 689
f 689 835 692
f 689 692 690
f 691 836 695
f 691 694 837
f 691 837 838
f 691 838 836
f 692 835 693
f 693 835 834
f 693 834 832
f 693 832 831
f 693 831 839
f 693 839 840
f 693 840 841
f 693 841 694
f 694 841 840
f 694 840 842
f 694 842 843
f 694 843 844
f 694 844 845
f 694 845 846
f 694 846 847
f 694 847 848
f 694 848 837
f 695 836 849
f 695 849 850
f 695 850 696
f 696 850 697
f 703 709 705
f 703 705 704
f 705 709 706
f 710 851 852
f 710 852 711
f 711 852 851
f 711 851 853
f 711 853 712
f 712 853 854
f 712 854 713
f 713 854 714
f 714 854 853
f 714 853 855
f 714 855 717
f 717 855 718
f 718 855 724
f 718 724 723
f 718 723 719
f 719 723 720
f 721 725 730
f 721 730 727
f 721 727 722
f 722 727 726
f 724 855 853
f 724 853 725
f 725 856 857
f 725 857 730
f 725 853 856
f 727 730 729
f 730 857 858
f 730 858 731
f 731 859 732
f 731 858 859
f 732 859 733
f 733 859 860
f 733 860 861
f 733 861 862
f 733 862 863
f 733 863 734
f 734 863 740
f 735 864 865
f 735 865 736
f 735 743 866
f 735 866 867
f 735 867 868
f 735 868 864
f 736 865 737
f 737 865 869
f 737 869 870
f 737 870 871
f 737 871 738
f 738 872 739
f 738 871 873
f 738 873 744
f 738 744 872
f 739 872 744
f 740 874 875
f 740 875 741
f 740 863 876
f 740 876 877
f 740 877 874
f 741 878 742
f 741 875 879
f 741 879 880
f 741 880 878
f 742 878 880
f 742 880 743
f 743 880 881
f 743 881 882
f 743 882 883
f 743 883 867
f 743 867 866
f 744 873 884
f 744 884 885
f 744 885 745
f 745 885 886
f 745 886 887
f 745 887 747
f 745 747 746
f 747 888 889
f 747 889 890
f 747 890 891
f 747 891 892
f 747 892 893
f 747 893 748
f 747 887 888
f 748 893 749
f 749 751 750
f 749 893 894
f 749 894 895
f 749 895 896
f 749 896 754
f 749 754 897
f 749 897 751
f 751 897 754
f 754 896 756
f 754 756 755
f 756 896 759
f 758 759 760
f 759 896 898
f 759 898 899
f 759 899 760
f 760 900 761
f 760 899 901
f 760 901 900
f 761 900 762
f 762 900 902
f 762 902 1034
f 762 1034 903
f 762 903 904
f 762 904 763
f 763 904 905
f 763 905 906
f 763 906 907
f 763 907 908
f 763 908 764
f 764 908 909
f 764 909 765
f 765 909 910
f 765 910 769
f 766 768 793
f 767 792 793
f 767 793 768
f 769 910 911
f 769 911 912
f 769 912 913
f 769 913 771
f 770 773 776
f 771 913 912
f 771 912 914
f 771 914 915
f 771 915 916
f 771 916 917
f 771 917 918
f 771 918 772
f 772 919 773
f 772 918 917
f 772 917 920
f 772 920 919
f 773 919 776
f 776 919 921
f 776 921 922
f 776 922 777
f 777 922 923
f 777 923 924
f 777 924 925
f 777 925 779
f 778 779 926
f 778 926 927
f 778 927 784
f 778 784 928
f 778 928 781
f 778 781 780
f 779 925 926
f 781 928 784
f 781 784 929
f 781 929 930
f 781 930 782
f 782 930 929
f 782 929 784
f 784 927 931
f 784 931 926
f 784 926 932
f 784 932 917
f 784 917 916
f 784 916 914
f 784 914 933
f 784 933 934
f 784 934 935
f 784 935 936
f 784 936 786
f 785 937 938
f 785 938 939
f 785 939 787
f 785 786 940
f 785 940 937
f 786 936 941
f 786 941 942
f 786 942 943
f 786 943 944
f 786 944 945
f 786 945 946
f 786 946 947
f 786 947 948
f 786 948 949
f 786 949 950
f 786 950 951
f 786 951 940
f 787 952 953
f 787 953 788
f 787 939 954
f 787 954 952
f 788 953 955
f 788 955 956
f 788 956 789
f 789 956 799
f 791 793 792
f 795 804 809
f 799 957 800
f 799 956 955
f 799 955 958
f 799 958 957
f 800 957 959
f 800 959 960
f 800 960 961
f 800 961 962
f 800 962 963
f 800 963 964
f 800 964 801
f 801 964 802
f 803 812 804
f 804 812 811
f 804 811 810
f 813 965 815
f 813 815 814
f 813 964 965
f 815 966 967
f 815 967 968
f 815 968 816
f 815 965 966
f 816 968 823
f 819 821 820
f 823 968 824
f 824 968 827
f 825 969 826
f 825 828 970
f 825 970 969
f 826 969 971
f 826 971 972
f 826 972 973
f 826 973 829
f 827 968 967
f 827 967 974
f 827 974 975
f 827 975 828
f 828 975 976
f 828 976 970
f 829 977 830
f 829 973 977
f 830 978 979
f 830 979 839
f 830 839 831
f 830 977 978
f 836 838 849
f 837 848 838
f 838 848 849
f 839 979 840
f 840 979 982
f 840 982 842
f 842 980 981
f 842 981 843
f 842 982 983
f 842 983 984
f 842 984 980
f 843 981 845
f 843 845 844
f 845 981 985
f 845 985 986
f 845 986 846
f 846 986 847
f 847 986 987
f 847 987 850
f 847 850 848
f 848 850 849
f 851 877 988
f 851 988 989
f 851 989 990
f 851 990 991
f 851 991 853
f 853 991 990
f 853 990 856
f 856 992 857
f 856 990 989
f 856 989 992
f 857 993 858
f 857 992 993
f 858 993 859
f 859 994 860
f 859 993 994
f 860 995 861
f 860 994 996
f 860 996 997
f 860 997 995
f 861 995 998
f 861 998 862
f 862 998 877
f 862 877 863
f 863 877 876
f 864 999 865
f 864 868 999
f 865 999 1000
f 865 1000 1001
f 865 1001 869
f 868 1000 999
f 868 1002 1000
f 869 1001 1003
f 869 1003 870
f 870 1004 871
f 870 1003 1005
f 870 1005 1004
f 871 1004 1006
f 871 1006 1007
f 871 1007 1008
f 871 1008 884
f 871 884 873
f 874 877 1009
f 874 1009 1010
f 874 1010 875
f 875 1010 1011
f 875 1011 879
f 877 1010 1009
f 877 998 1012
f 877 1012 1013
f 877 1013 988
f 879 1015 880
f 879 1011 1014
f 880 1015 881
f 884 1016 889
f 884 889 1017
f 884 1017 885
f 884 1008 1018
f 884 1018 1019
f 884 1019 1020
f 884 1020 1016
f 885 887 886
f 885 1017 888
f 885 888 887
f 888 1017 1021
f 888 1021 889
f 889 1022 1023
f 889 1023 1024
f 889 1024 890
f 889 1021 1017
f 889 1016 1020
f 889 1020 1025
f 889 1025 1022
f 890 1024 891
f 891 1024 892
f 892 1026 1027
f 892 1027 893
f 892 1024 1028
f 892 1028 1029
f 892 1029 1030
f 892 1030 1026
f 893 1027 894
f 894 1027 1031
f 894 1031 899
f 894 899 898
f 894 898 896
f 894 896 895
f 899 1031 901
f 900 901 1032
f 900 1032 1033
f 900 1033 902
f 901 1031 1032
f 902 1033 1036
f 902 1036 1034
f 903 1034 904
f 904 1034 905
f 905 1035 1038
f 905 1038 906
f 905 1034 1036
f 905 1036 1037
f 905 1037 1035
f 906 1038 907
f 907 1038 1039
f 907 1039 1040
f 907 1040 1041
f 907 1041 908
f 908 1041 935
f 908 935 909
f 909 935 910
f 910 935 1042
f 910 1042 911
f 911 1042 912
f 912 1042 914
f 914 934 933
f 914 916 915
f 914 1042 935
f 914 935 934
f 917 932 1043
f 917 1043 920
f 919 920 1044
f 919 1044 921
f 920 1043 924
f 920 924 1044
f 921 1044 924
f 921 924 922
f 922 924 923
f 924 1043 925
f 925 1043 926
f 926 931 927
f 926 1043 932
f 935 1041 1040
f 935 1040 1045
f 935 1045 1046
f 935 1046 936
f 936 1046 941
f 937 1047 938
f 937 940 1047
f 938 1047 1048
f 938 1048 939
f 939 1048 1049
f 939 1049 1050
f 939 1050 954
f 940 951 1051
f 940 1051 1052
f 940 1052 1047
f 941 1046 1053
f 941 1053 942
f 942 1053 1054
f 942 1054 943
f 943 1054 1055
f 943 1055 1056
f 943 1056 944
f 944 1057 1058
f 944 1058 1059
f 944 1059 1060
f 944 1060 945
f 944 1056 1061
f 944 1061 1062
f 944 1062 1057
f 945 1060 946
f 946 1063 1064
f 946 1064 1065
f 946 1065 949
f 946 949 947
f 946 1060 1063
f 947 949 948
f 949 1066 1067
f 949 1067 1068
f 949 1068 1069
f 949 1069 1070
f 949 1070 950
f 949 1065 1066
f 950 1070 1071
f 950 1071 1072
f 950 1072 951
f 951 1072 1051
f 952 1073 953
f 952 954 1073
f 953 1073 958
f 953 958 955
f 954 1050 1074
f 954 1074 1075
f 954 1075 1076
f 954 1076 1077
f 954 1077 1078
f 954 1078 1073
f 957 958 1079
f 957 1079 1080
f 957 1080 1081
f 957 1081 1082
f 957 1082 1083
f 957 1083 960
f 957 960 959
f 958 1084 1079
f 958 1073 1085
f 958 1085 1086
f 958 1086 1087
f 958 1087 1088
f 958 1088 1089
f 958 1089 1084
f 960 1083 962
f 960 962 961
f 962 1083 1090
f 962 1090 1091
f 962 1091 1092
f 962 1092 963
f 963 1092 1093
f 963 1093 1094
f 963 1094 1095
f 963 1095 964
f 964 1095 965
f 965 1095 1096
f 965 1096 1097
f 965 1097 966
f 966 1098 967
f 966 1097 1099
f 966 1099 1100
f 966 1100 1101
f 966 1101 1098
f 967 1098 1102
f 967 1102 974
f 969 970 1103
f 969 1103 1104
f 969 1104 971
f 970 976 1105
f 970 1105 1103
f 971 1104 1106
f 971 1106 972
f 972 1107 1108
f 972 1108 1109
f 972 1109 1110
f 972 1110 973
f 972 1106 1111
f 972 1111 1112
f 972 1112 1107
f 973 1110 1113
f 973 1113 1114
f 973 1114 1115
f 973 1115 977
f 974 1102 976
f 974 976 975
f 976 1103 1105
f 976 1102 1098
f 976 1098 1116
f 976 1116 1117
f 976 1117 1103
f 977 1118 1119
f 977 1119 978
f 977 1115 1114
f 977 1114 1118
f 978 1119 1118
f 978 1118 979
f 979 1118 1113
f 979 1113 1126
f 979 1126 982
f 980 1120 981
f 980 984 1121
f 980 1121 1120
f 981 1120 1121
f 981 1121 1122
f 981 1122 1123
f 981 1123 1124
f 981 1124 985
f 982 1125 984
f 982 984 983
f 982 1126 1125
f 984 1125 1126
f 984 1126 1127
f 984 1127 1107
f 984 1107 1128
f 984 1128 1129
f 984 1129 1130
f 984 1130 1122
f 984 1122 1121
f 985 1131 1132
f 985 1132 1133
f 985 1133 1134
f 985 1134 1135
f 985 1124 1131
f 988 1013 1136
f 988 1136 1137
f 988 1137 1138
f 988 1138 1139
f 988 1139 992
f 988 992 989
f 992 1140 993
f 992 1139 1141
f 992 1141 1140
f 993 1140 996
f 993 996 994
f 995 997 998
f 996 1140 1141
f 996 1141 1142
f 996 1142 1143
f 996 1143 997
f 997 1144 998
f 997 1143 1142
f 997 1142 1012
f 997 1012 1144
f 998 1144 1012
f 1000 1002 1001
f 1001 1145 1003
f 1001 1002 1145
f 1002 1146 1147
f 1002 1147 1148
f 1002 1148 1145
f 1003 1145 1005
f 1004 1005 1006
f 1005 1149 1006
f 1005 1145 1148
f 1005 1148 1150
f 1005 1150 1151
f 1005 1151 1152
f 1005 1152 1153
f 1005 1153 1154
f 1005 1154 1149
f 1006 1155 1156
f 1006 1156 1157
f 1006 1157 1007
f 1006 1149 1154
f 1006 1154 1158
f 1006 1158 1159
f 1006 1159 1155
f 1007 1157 1008
f 1008 1157 1160
f 1008 1160 1161
f 1008 1161 1162
f 1008 1162 1018
f 1010 1014 1011
f 1012 1142 1138
f 1012 1138 1137
f 1012 1137 1136
f 1012 1136 1013
f 1018 1163 1019
f 1018 1162 1163
f 1019 1163 1164
f 1019 1164 1165
f 1019 1165 1020
f 1020 1165 1164
f 1020 1164 1166
f 1020 1166 1167
f 1020 1167 1168
f 1020 1168 1169
f 1020 1169 1170
f 1020 1170 1171
f 1020 1171 1025
f 1022 1172 1173
f 1022 1173 1024
f 1022 1024 1023
f 1022 1025 1170
f 1022 1170 1062
f 1022 1062 1174
f 1022 1174 1172
f 1024 1173 1175
f 1024 1175 1028
f 1025 1171 1170
f 1026 1030 1027
f 1027 1030 1176
f 1027 1176 1177
f 1027 1177 1178
f 1027 1178 1031
f 1028 1175 1174
f 1028 1174 1062
f 1028 1062 1061
f 1028 1061 1029
f 1029 1061 1030
f 1030 1061 1056
f 1030 1056 1176
f 1031 1178 1032
f 1032 1036 1033
f 1032 1178 1179
f 1032 1179 1037
f 1032 1037 1036
f 1035 1037 1038
f 1037 1179 1038
f 1038 1180 1039
f 1038 1179 1178
f 1038 1178 1180
f 1039 1181 1182
f 1039 1182 1183
f 1039 1183 1184
f 1039 1184 1185
f 1039 1185 1186
f 1039 1186 1053
f 1039 1053 1040
f 1039 1180 1187
f 1039 1187 1188
f 1039 1188 1176
f 1039 1176 1181
f 1040 1053 1046
f 1040 1046 1045
f 1047 1052 1189
f 1047 1189 1048
f 1048 1189 1049
f 1049 1189 1190
f 1049 1190 1191
f 1049 1191 1192
f 1049 1192 1193
f 1049 1193 1050
f 1050 1193 1194
f 1050 1194 1195
f 1050 1195 1196
f 1050 1196 1075
f 1050 1075 1074
f 1051 1191 1190
f 1051 1190 1197
f 1051 1197 1052
f 1051 1072 1071
f 1051 1071 1191
f 1052 1197 1189
f 1053 1198 1055
f 1053 1055 1054
f 1053 1186 1185
f 1053 1185 1198
f 1055 1198 1199
f 1055 1199 1200
f 1055 1200 1056
f 1056 1199 1184
f 1056 1184 1201
f 1056 1201 1176
f 1056 1200 1199
f 1057 1202 1203
f 1057 1203 1204
f 1057 1204 1058
f 1057 1062 1170
f 1057 1170 1169
f 1057 1169 1202
f 1058 1204 1059
f 1059 1205 1066
f 1059 1066 1065
f 1059 1065 1063
f 1059 1063 1060
f 1059 1204 1206
f 1059 1206 1207
f 1059 1207 1208
f 1059 1208 1209
f 1059 1209 1210
f 1059 1210 1211
f 1059 1211 1212
f 1059 1212 1205
f 1063 1065 1064
f 1066 1213 1214
f 1066 1214 1067
f 1066 1205 1213
f 1067 1215 1216
f 1067 1216 1217
f 1067 1217 1218
f 1067 1218 1219
f 1067 1219 1068
f 1067 1214 1212
f 1067 1212 1211
f 1067 1211 1215
f 1068 1219 1220
f 1068 1220 1221
f 1068 1221 1222
f 1068 1222 1195
f 1068 1195 1223
f 1068 1223 1069
f 1069 1223 1224
f 1069 1224 1070
f 1070 1224 1225
f 1070 1225 1226
f 1070 1226 1071
f 1071 1226 1191
f 1073 1078 1227
f 1073 1227 1077
f 1073 1077 1085
f 1075 1228 1229
f 1075 1229 1087
f 1075 1087 1076
f 1075 1196 1230
f 1075 1230 1228
f 1076 1087 1077
f 1077 1087 1086
f 1077 1086 1085
f 1077 1227 1078
f 1079 1084 1080
f 1080 1084 1089
f 1080 1089 1081
f 1081 1231 1232
f 1081 1232 1082
f 1081 1089 1233
f 1081 1233 1234
f 1081 1234 1235
f 1081 1235 1236
f 1081 1236 1237
f 1081 1237 1231
f 1082 1232 1083
f 1083 1238 1090
f 1083 1232 1231
f 1083 1231 1239
f 1083 1239 1240
f 1083 1240 1241
f 1083 1241 1238
f 1087 1229 1242
f 1087 1242 1088
f 1088 1242 1243
f 1088 1243 1089
f 1089 1243 1233
f 1090 1244 1091
f 1090 1238 1244
f 1091 1244 1245
f 1091 1245 1246
f 1091 1246 1092
f 1092 1247 1093
f 1092 1246 1248
f 1092 1248 1247
f 1093 1247 1249
f 1093 1249 1094
f 1094 1249 1250
f 1094 1250 1095
f 1095 1250 1096
f 1096 1250 1251
f 1096 1251 1252
f 1096 1252 1097
f 1097 1252 1099
f 1098 1101 1100
f 1098 1100 1111
f 1098 1111 1253
f 1098 1253 1106
f 1098 1106 1117
f 1098 1117 1116
f 1099 1252 1254
f 1099 1254 1255
f 1099 1255 1100
f 1100 1255 1111
f 1103 1117 1256
f 1103 1256 1104
f 1104 1256 1106
f 1106 1253 1111
f 1106 1256 1257
f 1106 1257 1117
f 1107 1127 1108
f 1107 1112 1128
f 1108 1127 1126
f 1108 1126 1109
f 1109 1126 1113
f 1109 1113 1110
f 1111 1255 1258
f 1111 1258 1259
f 1111 1259 1112
f 1112 1260 1128
f 1112 1259 1258
f 1112 1258 1261
f 1112 1261 1262
f 1112 1262 1263
f 1112 1263 1264
f 1112 1264 1265
f 1112 1265 1260
f 1113 1118 1114
f 1117 1257 1256
f 1122 1130 1266
f 1122 1266 1123
f 1123 1266 1131
f 1123 1131 1124
f 1128 1260 1267
f 1128 1267 1266
f 1128 1266 1130
f 1128 1130 1129
f 1131 1268 1132
f 1131 1266 1268
f 1132 1268 1267
f 1132 1267 1133
f 1133 1267 1269
f 1133 1269 1270
f 1133 1270 1271
f 1133 1271 1134
f 1134 1271 1135
f 1138 1142 1139
f 1139 1142 1141
f 1146 1272 1147
f 1147 1272 1148
f 1148 1272 1151
f 1148 1151 1150
f 1155 1159 1156
f 1156 1273 1157
f 1156 1159 1274
f 1156 1274 1273
f 1157 1273 1160
f 1160 1273 1275
f 1160 1275 1161
f 1161 1275 1276
f 1161 1276 1162
f 1162 1276 1277
f 1162 1277 1278
f 1162 1278 1279
f 1162 1279 1280
f 1162 1280 1163
f 1163 1281 1164
f 1163 1280 1281
f 1164 1282 1283
f 1164 1283 1284
f 1164 1284 1166
f 1164 1281 1280
f 1164 1280 1285
f 1164 1285 1282
f 1166 1284 1286
f 1166 1286 1287
f 1166 1287 1167
f 1167 1288 1168
f 1167 1287 1288
f 1168 1289 1290
f 1168 1290 1169
f 1168 1288 1291
f 1168 1291 1292
f 1168 1292 1289
f 1169 1290 1203
f 1169 1203 1202
f 1172 1174 1173
f 1173 1174 1175
f 1176 1293 1181
f 1176 1188 1177
f 1176 1201 1293
f 1177 1188 1178
f 1178 1188 1187
f 1178 1187 1180
f 1181 1184 1182
f 1181 1293 1184
f 1182 1184 1183
f 1184 1199 1185
f 1184 1293 1201
f 1185 1199 1198
f 1189 1197 1190
f 1191 1226 1193
f 1191 1193 1192
f 1193 1294 1295
f 1193 1295 1223
f 1193 1223 1194
f 1193 1226 1294
f 1194 1223 1195
f 1195 1222 1196
f 1196 1222 1221
f 1196 1221 1230
f 1203 1292 1296
f 1203 1296 1207
f 1203 1207 1206
f 1203 1206 1204
f 1203 1290 1289
f 1203 1289 1297
f 1203 1297 1292
f 1205 1212 1213
f 1207 1296 1298
f 1207 1298 1299
f 1207 1299 1300
f 1207 1300 1208
f 1208 1300 1301
f 1208 1301 1302
f 1208 1302 1209
f 1209 1302 1210
f 1210 1302 1211
f 1211 1302 1301
f 1211 1301 1303
f 1211 1303 1306
f 1211 1306 1304
f 1211 1304 1215
f 1212 1214 1213
f 1215 1305 1216
f 1215 1304 1306
f 1215 1306 1307
f 1215 1307 1305
f 1216 1308 1217
f 1216 1305 1308
f 1217 1308 1309
f 1217 1309 1310
f 1217 1310 1311
f 1217 1311 1312
f 1217 1312 1313
f 1217 1313 1218
f 1218 1313 1314
f 1218 1314 1219
f 1219 1314 1315
f 1219 1315 1316
f 1219 1316 1220
f 1220 1316 1317
f 1220 1317 1221
f 1221 1317 1318
f 1221 1318 1319
f 1221 1319 1320
f 1221 1320 1230
f 1223 1295 1321
f 1223 1321 1225
f 1223 1225 1224
f 1225 1321 1226
f 1226 1321 1294
f 1228 1322 1243
f 1228 1243 1229
f 1228 1230 1323
f 1228 1323 1322
f 1229 1243 1242
f 1230 1320 1323
f 1231 1237 1324
f 1231 1324 1239
f 1233 1243 1322
f 1233 1322 1234
f 1234 1322 1325
f 1234 1325 1235
f 1235 1325 1236
f 1236 1325 1326
f 1236 1326 1327
f 1236 1327 1239
f 1236 1239 1324
f 1236 1324 1237
f 1238 1241 1328
f 1238 1328 1329
f 1238 1329 1330
f 1238 1330 1331
f 1238 1331 1332
f 1238 1332 1244
f 1239 1327 1240
f 1240 1327 1333
f 1240 1333 1334
f 1240 1334 1335
f 1240 1335 1336
f 1240 1336 1241
f 1241 1336 1328
f 1244 1332 1331
f 1244 1331 1337
f 1244 1337 1245
f 1245 1338 1246
f 1245 1337 1339
f 1245 1339 1340
f 1245 1340 1338
f 1246 1338 1258
f 1246 1258 1248
f 1247 1254 1249
f 1247 1248 1258
f 1247 1258 1254
f 1249 1254 1341
f 1249 1341 1250
f 1250 1341 1251
f 1251 1342 1252
f 1251 1341 1343
f 1251 1343 1342
f 1252 1342 1344
f 1252 1344 1254
f 1254 1344 1341
f 1254 1258 1255
f 1258 1338 1345
f 1258 1345 1346
f 1258 1346 1347
f 1258 1347 1261
f 1260 1265 1348
f 1260 1348 1349
f 1260 1349 1267
f 1261 1347 1350
f 1261 1350 1262
f 1262 1351 1352
f 1262 1352 1353
f 1262 1353 1263
f 1262 1350 1354
f 1262 1354 1355
f 1262 1355 1351
f 1263 1353 1356
f 1263 1356 1264
f 1264 1357 1358
f 1264 1358 1265
f 1264 1356 1359
f 1264 1359 1357
f 1265 1358 1360
f 1265 1360 1348
f 1266 1267 1268
f 1267 1349 1269
f 1269 1349 1361
f 1269 1361 1362
f 1269 1362 1363
f 1269 1363 1364
f 1269 1364 1270
f 1270 1364 1365
f 1270 1365 1271
f 1271 1365 1366
f 1271 1366 1367
f 1271 1367 1368
f 1271 1368 1369
f 1273 1274 1275
f 1274 1370 1371
f 1274 1371 1372
f 1274 1372 1373
f 1274 1373 1374
f 1274 1374 1375
f 1274 1375 1376
f 1274 1376 1275
f 1275 1376 1375
f 1275 1375 1276
f 1276 1375 1373
f 1276 1373 1377
f 1276 1377 1277
f 1277 1377 1373
f 1277 1373 1371
f 1277 1371 1378
f 1277 1378 1379
f 1277 1379 1380
f 1277 1380 1278
f 1278 1380 1279
f 1279 1380 1381
f 1279 1381 1280
f 1280 1381 1285
f 1282 1382 1283
f 1282 1285 1383
f 1282 1383 1384
f 1282 1384 1385
f 1282 1385 1386
f 1282 1386 1286
f 1282 1286 1382
f 1283 1382 1284
f 1284 1382 1286
f 1285 1380 1379
f 1285 1379 1387
f 1285 1387 1388
f 1285 1388 1384
f 1285 1384 1389
f 1285 1389 1383
f 1285 1381 1380
f 1286 1386 1287
f 1287 1386 1385
f 1287 1385 1390
f 1287 1390 1391
f 1287 1391 1392
f 1287 1392 1393
f 1287 1393 1291
f 1287 1291 1288
f 1289 1292 1297
f 1291 1393 1292
f 1292 1393 1296
f 1294 1321 1295
f 1296 1393 1392
f 1296 1392 1298
f 1298 1392 1394
f 1298 1394 1395
f 1298 1395 1299
f 1299 1395 1390
f 1299 1390 1309
f 1299 1309 1306
f 1299 1306 1300
f 1300 1306 1301
f 1301 1306 1303
f 1305 1307 1308
f 1306 1309 1307
f 1307 1309 1308
f 1309 1379 1311
f 1309 1311 1310
f 1309 1390 1388
f 1309 1388 1379
f 1311 1378 1312
f 1311 1379 1378
f 1312 1396 1397
f 1312 1397 1398
f 1312 1398 1313
f 1312 1378 1396
f 1313 1398 1399
f 1313 1399 1400
f 1313 1400 1314
f 1314 1400 1401
f 1314 1401 1402
f 1314 1402 1403
f 1314 1403 1315
f 1315 1403 1404
f 1315 1404 1405
f 1315 1405 1335
f 1315 1335 1316
f 1316 1335 1406
f 1316 1406 1317
f 1317 1406 1407
f 1317 1407 1334
f 1317 1334 1408
f 1317 1408 1318
f 1318 1408 1334
f 1318 1334 1319
f 1319 1334 1409
f 1319 1409 1410
f 1319 1410 1411
f 1319 1411 1412
f 1319 1412 1413
f 1319 1413 1323
f 1319 1323 1320
f 1322 1323 1325
f 1323 1413 1325
f 1325 1413 1411
f 1325 1411 1333
f 1325 1333 1326
f 1326 1333 1327
f 1328 1354 1350
f 1328 1350 1347
f 1328 1347 1414
f 1328 1414 1329
f 1328 1336 1354
f 1329 1414 1415
f 1329 1415 1330
f 1330 1415 1331
f 1331 1415 1337
f 1333 1411 1410
f 1333 1410 1334
f 1334 1410 1409
f 1334 1407 1335
f 1335 1405 1416
f 1335 1416 1417
f 1335 1417 1418
f 1335 1418 1419
f 1335 1419 1420
f 1335 1420 1336
f 1335 1407 1406
f 1336 1420 1354
f 1337 1415 1339
f 1338 1340 1339
f 1338 1339 1346
f 1338 1346 1345
f 1339 1421 1346
f 1339 1415 1421
f 1341 1344 1343
f 1342 1343 1344
f 1346 1421 1347
f 1347 1421 1414
f 1348 1360 1422
f 1348 1422 1361
f 1348 1361 1349
f 1351 1355 1423
f 1351 1423 1424
f 1351 1424 1425
f 1351 1425 1352
f 1352 1425 1356
f 1352 1356 1353
f 1354 1426 1355
f 1354 1420 1426
f 1355 1426 1423
f 1356 1425 1427
f 1356 1427 1428
f 1356 1428 1359
f 1357 1359 1429
f 1357 1429 1358
f 1358 1430 1360
f 1358 1429 1430
f 1359 1428 1431
f 1359 1431 1429
f 1360 1432 1422
f 1360 1430 1433
f 1360 1433 1432
f 1361 1422 1434
f 1361 1434 1435
f 1361 1435 1436
f 1361 1436 1362
f 1362 1436 1363
f 1363 1436 1437
f 1363 1437 1364
f 1364 1437 1365
f 1365 1436 1366
f 1365 1437 1436
f 1366 1436 1438
f 1366 1438 1439
f 1366 1439 1367
f 1367 1440 1368
f 1367 1439 1440
f 1368 1440 1441
f 1368 1441 1369
f 1369 1441 1442
f 1370 1443 1444
f 1370 1444 1371
f 1371 1373 1372
f 1371 1444 1445
f 1371 1445 1396
f 1371 1396 1378
f 1373 1375 1374
f 1379 1388 1387
f 1383 1389 1384
f 1384 1388 1390
f 1384 1390 1385
f 1390 1395 1394
f 1390 1394 1391
f 1391 1394 1392
f 1396 1446 1447
f 1396 1447 1397
f 1396 1445 1448
f 1396 1448 1446
f 1397 1447 1449
f 1397 1449 1450
f 1397 1450 1451
f 1397 1451 1452
f 1397 1452 1398
f 1398 1452 1453
f 1398 1453 1454
f 1398 1454 1399
f 1399 1454 1455
f 1399 1455 1417
f 1399 1417 1400
f 1400 1417 1401
f 1401 1417 1402
f 1402 1417 1403
f 1403 1417 1404
f 1404 1417 1416
f 1404 1416 1405
f 1411 1413 1412
f 1414 1421 1415
f 1417 1455 1456
f 1417 1456 1418
f 1418 1456 1419
f 1419 1457 1458
f 1419 1458 1420
f 1419 1456 1455
f 1419 1455 1459
f 1419 1459 1460
f 1419 1460 1457
f 1420 1458 1426
f 1422 1432 1434
f 1423 1426 1461
f 1423 1461 1462
f 1423 1462 1424
f 1424 1462 1425
f 1425 1462 1463
f 1425 1463 1464
f 1425 1464 1427
f 1426 1458 1461
f 1427 1464 1428
f 1428 1464 1465
f 1428 1465 1466
f 1428 1466 1431
f 1429 1431 1430
f 1430 1431 1467
f 1430 1467 1468
f 1430 1468 1433
f 1431 1466 1467
f 1432 1433 1469
f 1432 1469 1470
f 1432 1470 1471
f 1432 1471 1472
f 1432 1472 1473
f 1432 1473 1434
f 1433 1468 1466
f 1433 1466 1474
f 1433 1474 1475
f 1433 1475 1469
f 1434 1473 1435
f 1435 1473 1438
f 1435 1438 1436
f 1438 1476 1439
f 1438 1473 1477
f 1438 1477 1478
f 1438 1478 1476
f 1439 1476 1478
f 1439 1478 1440
f 1440 1478 1477
f 1440 1477 1441
f 1441 1479 1480
f 1441 1480 1442
f 1441 1477 1479
f 1443 1481 1444
f 1444 1481 1445
f 1445 1482 1448
f 1445 1481 1482
f 1446 1483 1484
f 1446 1484 1447
f 1446 1448 1482
f 1446 1482 1481
f 1446 1481 1485
f 1446 1485 1483
f 1447 1484 1486
f 1447 1486 1470
f 1447 1470 1449
f 1449 1470 1487
f 1449 1487 1450
f 1450 1487 1488
f 1450 1488 1451
f 1451 1488 1475
f 1451 1475 1474
f 1451 1474 1466
f 1451 1466 1453
f 1451 1453 1452
f 1453 1466 1465
f 1453 1465 1489
f 1453 1489 1454
f 1454 1489 1455
f 1455 1489 1460
f 1455 1460 1459
f 1457 1464 1490
f 1457 1490 1491
f 1457 1491 1492
f 1457 1492 1458
f 1457 1460 1489
f 1457 1489 1493
f 1457 1493 1464
f 1458 1492 1461
f 1461 1492 1491
f 1461 1491 1490
f 1461 1490 1462
f 1462 1490 1463
f 1463 1490 1464
f 1464 1493 1465
f 1465 1493 1489
f 1466 1468 1467
f 1469 1475 1488
f 1469 1488 1487
f 1469 1487 1470
f 1470 1494 1495
f 1470 1495 1496
f 1470 1496 1471
f 1470 1486 1494
f 1471 1497 1472
f 1471 1496 1485
f 1471 1485 1497
f 1472 1498 1473
f 1472 1497 1499
f 1472 1499 1498
f 1473 1498 1477
f 1477 1498 1479
f 1479 1498 1500
f 1479 1500 1480
f 1480 1500 1501
f 1483 1485 1484
f 1484 1502 1494
f 1484 1494 1486
f 1484 1485 1502
f 1485 1499 1497
f 1485 1496 1495
f 1485 1495 1494
f 1485 1494 1502
f 1498 1501 1500
f 1498 1499 1503
f 1498 1503 1501

