# https://github.com/mikedh/trimesh
v 0.01472573 0.02034986 -0.00259176
v 0.01472292 0.02034986 -0.00222077
v 0.01468913 0.02034986 -0.00296559
v 0.01150743 0.03055230 -0.00036011
v 0.01153277 0.03055230 0.00000522
v 0.01153277 0.03055230 0.00013833
v 0.01472010 0.02034986 -0.00199703
v 0.01459339 0.02034986 -0.00337058
v 0.01120615 0.03055230 -0.00295427
v 0.01127654 0.03055230 -0.00259743
v 0.01131878 0.03055230 -0.00222643
v 0.01151869 0.03055230 0.00041304
v 0.01464971 0.02034986 0.00090015
v 0.01466660 0.02034986 0.00054614
v 0.01468913 0.02034986 -0.00017320
v 0.01469757 0.02034986 -0.00053853
v 0.01470884 0.02034986 -0.00126637
v 0.01120334 0.03055230 -0.00296559
v 0.01420202 0.02034986 -0.00483758
v 0.01147364 0.03055230 0.00074439
v 0.01461029 0.02034986 0.00149205
v 0.01463000 0.02034986 0.00125132
v 0.01463844 0.02034986 0.00111822
v 0.01110479 0.03055230 -0.00331110
v 0.01380219 0.02034986 -0.00629891
v 0.01140888 0.03055230 0.00111822
v 0.01459058 0.02034986 0.00160250
v 0.01097527 0.03055230 -0.00371326
v 0.01362199 0.02034986 -0.00667558
v 0.01018970 0.03055230 -0.00556825
v 0.01036145 0.03055230 -0.00518592
v 0.01037271 0.03055230 -0.00516043
v 0.01085419 0.03055230 -0.00403894
v 0.01133849 0.03055230 0.00148638
v 0.01119489 0.03055230 0.00221705
v 0.01433998 0.02034986 0.00284860
v 0.01343334 0.02034986 -0.00705790
v 0.01007707 0.03055230 -0.00580047
v 0.01111887 0.03055230 0.00259371
v 0.01103440 0.03055230 0.00297321
v 0.01400210 0.02034986 0.00409470
v 0.01299691 0.02034986 -0.00776308
v 0.00949986 0.03055230 -0.00678036
v 0.00957870 0.03055230 -0.00665292
v 0.00985182 0.03055230 -0.00619130
v 0.00997007 0.03055230 -0.00598739
v 0.01092458 0.03055230 0.00334421
v 0.01392045 0.02034986 0.00434675
v 0.01228173 0.02034986 -0.00889873
v 0.00937878 0.03055230 -0.00697011
v 0.01082604 0.03055230 0.00360192
v 0.01353189 0.02034986 0.00519070
v 0.01074157 0.03055230 0.00379167
v 0.01197483 0.02034986 -0.00929522
v 0.00923800 0.03055230 -0.00715419
v 0.01275195 0.02034986 0.00683612
v 0.01037835 0.03055230 0.00455349
v 0.00812581 0.03055230 -0.00847393
v 0.00834825 0.03055230 -0.00821904
v 0.00838767 0.03055230 -0.00817373
v 0.00869458 0.03055230 -0.00780840
v 0.00905217 0.03055230 -0.00738076
v 0.01002076 0.02034986 -0.01148156
v 0.01010523 0.03055230 0.00512273
v 0.01001231 0.03055230 0.00531248
v 0.01238310 0.02034986 0.00758378
v 0.00807513 0.03055230 -0.00853057
v 0.00966598 0.02034986 -0.01186105
v 0.00987716 0.03055230 0.00557303
v 0.01210153 0.02034986 0.00807372
v 0.00973074 0.03055230 0.00584774
v 0.00962656 0.03055230 0.00603748
v 0.00785551 0.03055230 -0.00876280
v 0.00930558 0.02034986 -0.01220373
v 0.00766686 0.03055230 -0.00894688
v 0.01169608 0.02034986 0.00875625
v 0.00941820 0.03055230 0.00633768
v 0.00821592 0.02034986 -0.01295706
v 0.00552133 0.03055230 -0.01053282
v 0.00691508 0.03055230 -0.00955577
v 0.00723325 0.03055230 -0.00932071
v 0.00724451 0.03055230 -0.00931221
v 0.00747821 0.03055230 -0.00912530
v 0.01134975 0.02034986 0.00912158
v 0.00929431 0.03055230 0.00649061
v 0.00709810 0.02034986 -0.01369905
v 0.00533268 0.03055230 -0.01066027
v 0.01097245 0.02034986 0.00947559
v 0.00913101 0.03055230 0.00663504
v 0.01020941 0.02034986 0.01017227
v 0.00596620 0.02034986 -0.01442122
v 0.00529607 0.03055230 -0.01068292
v 0.00870584 0.03055230 0.00698905
v 0.00877060 0.02034986 0.01142687
v 0.00911693 0.02034986 0.01113800
v 0.00576629 0.02034986 -0.01449486
v 0.00465692 0.03055230 -0.01099162
v 0.00467100 0.03055230 -0.01098595
v 0.00500324 0.03055230 -0.01084718
v 0.00502577 0.03055230 -0.01083585
v 0.00848059 0.03055230 0.00717597
v 0.00688411 0.03055230 0.00848154
v 0.00667012 0.03055230 0.00864863
v 0.00663351 0.03055230 0.00867695
v 0.00645049 0.03055230 0.00880722
v 0.00614922 0.03055230 0.00896865
v 0.00871147 0.02034986 0.01145519
v 0.00829475 0.03055230 0.00732890
v 0.00565366 0.02034986 -0.01453451
v 0.00390795 0.03055230 -0.01125216
v 0.00590144 0.03055230 0.00907910
v 0.00838767 0.02034986 0.01159396
v 0.00466536 0.03055230 0.00962568
v 0.00429370 0.03055230 0.00978994
v 0.00413039 0.03055230 0.00986075
v 0.00454148 0.02034986 -0.01488002
v 0.00281266 0.03055230 -0.01162883
v 0.00355599 0.03055230 -0.01137394
v 0.00800756 0.02034986 0.01175539
v 0.00398116 0.03055230 0.00990889
v 0.00468226 0.02034986 0.01289387
v 0.00579163 0.02034986 0.01251720
v 0.00690100 0.02034986 0.01213771
v 0.00337579 0.02034986 -0.01520853
v 0.00279013 0.03055230 -0.01163449
v 0.00221011 0.02034986 -0.01551723
v 0.00394174 0.03055230 0.00992022
v 0.00429370 0.02034986 0.01299582
v 0.00240439 0.03055230 -0.01172795
v 0.00206369 0.02034986 -0.01555404
v 0.00355036 0.03055230 0.01001934
v 0.00392766 0.02034986 0.01305246
v 0.00274227 0.03055230 0.01016661
v 0.00169202 0.03055230 0.01035069
v 0.00206088 0.03055230 -0.01177892
v 0.00188630 0.02034986 -0.01558803
v 0.00094869 0.02126065 0.01304397
v 0.00355036 0.02034986 0.01308362
v 0.00132036 0.03055230 0.01037901
v 0.00131754 0.03055230 -0.01188088
v 0.00169202 0.02034986 -0.01560502
v 0.00057702 0.03055230 -0.01198000
v 0.00057702 0.02126065 0.01305813
v -0.00016350 0.02034986 0.01331584
v 0.00097403 0.02034986 0.01326487
v 0.00317869 0.02034986 0.01311194
v 0.00094869 0.03055230 0.01036202
v -0.00104762 0.02034986 0.01331584
v -0.00069566 0.02034986 0.01332434
v 0.00132036 0.02034986 -0.01560785
v 0.00020254 0.03055230 -0.01200832
v -0.00033244 0.02034986 0.01331868
v 0.00020817 0.03055230 0.01031387
v -0.00139394 0.02034986 0.01329602
v 0.00020817 0.02034986 -0.01559652
v -0.00016631 0.03055230 -0.01199699
v -0.00053517 0.02034986 -0.01558803
v -0.00072663 0.02034986 -0.01558520
v -0.00090402 0.02034986 -0.01558236
v -0.00016350 0.03055230 0.01028838
v -0.00373658 0.02034986 0.01302131
v -0.00051546 0.03055230 0.01026290
v -0.00054643 0.03055230 0.01026006
v -0.00062245 0.03055230 0.01025157
v -0.00053798 0.03055230 -0.01197434
v -0.00127569 0.02034986 -0.01555121
v -0.00128132 0.03055230 -0.01192619
v -0.00404630 0.02034986 0.01296750
v -0.00087586 0.03055230 0.01020342
v -0.00167833 0.02034986 -0.01548607
v -0.00165298 0.03055230 -0.01187521
v -0.00424903 0.02034986 0.01291369
v -0.00091247 0.03055230 0.01019493
v -0.00317063 0.02034986 -0.01512074
v -0.00202465 0.03055230 -0.01178459
v -0.00433068 0.02034986 0.01289104
v -0.00127569 0.03055230 0.01007598
v -0.00388017 0.02034986 -0.01492533
v -0.00352259 0.03055230 -0.01137111
v -0.00483750 0.02034986 0.01270695
v -0.00167269 0.03055230 0.00992588
v -0.00424903 0.02034986 -0.01480072
v -0.00486566 0.03054731 -0.01097746
v -0.00462069 0.03054731 -0.01105958
v -0.00425184 0.03055230 -0.01116720
v -0.00515567 0.02034986 0.01256252
v -0.00375910 0.03055230 0.00913291
v -0.00497265 0.03055230 0.00867129
v -0.00536403 0.03055230 0.00850986
v -0.00460662 0.02034986 -0.01467611
v -0.00486847 0.03055230 -0.01097462
v -0.00462351 0.03055230 -0.01105675
v -0.00634388 0.02034986 0.01189416
v -0.00560055 0.03055230 0.00839375
v -0.00610455 0.02034986 -0.01397376
v -0.00505149 0.03055230 -0.01089816
v -0.00704498 0.02034986 0.01147784
v -0.00578638 0.03055230 0.00828330
v -0.00685915 0.02034986 -0.01361976
v -0.00536684 0.03055230 -0.01073673
v -0.00761093 0.02034986 -0.01326575
v -0.00835426 0.02034986 -0.01289758
v -0.00812620 0.02034986 0.01071886
v -0.00605668 0.03055230 0.00809638
v -0.00558647 0.03055230 -0.01060646
v -0.00906381 0.02034986 -0.01243596
v -0.00624252 0.03055230 0.00794911
v -0.00892584 0.02034986 0.01003633
v -0.00689857 0.03055230 -0.00974835
v -0.01016474 0.02034986 -0.01166847
v -0.00687041 0.03055230 0.00739970
v -0.00933693 0.02034986 0.00967666
v -0.00716887 0.03055230 -0.00955860
v -0.01057582 0.02034986 -0.01137394
v -0.00743636 0.03055230 0.00690409
v -0.00980151 0.02034986 0.00926318
v -0.00783337 0.03055230 0.00655575
v -0.00735189 0.03055230 -0.00941417
v -0.01088555 0.02034986 -0.01108791
v -0.01013095 0.02034986 0.00896865
v -0.00801920 0.03055230 0.00638016
v -0.01019289 0.02034986 0.00891201
v -0.00752083 0.03055230 -0.00922725
v -0.01094749 0.02034986 -0.01102277
v -0.00820222 0.03055230 0.00619608
v -0.01048572 0.02034986 0.00860332
v -0.00770666 0.03055230 -0.00900635
v -0.01126848 0.02034986 -0.01060079
v -0.00832892 0.03055230 -0.00823037
v -0.00819659 0.03055230 -0.00840312
v -0.00835426 0.03055230 0.00594969
v -0.01152752 0.02034986 0.00705419
v -0.01080389 0.02034986 0.00817851
v -0.01053359 0.02034986 0.00854101
v -0.01198928 0.02034986 -0.00945381
v -0.00939606 0.03055230 -0.00670956
v -0.00935101 0.03055230 -0.00678036
v -0.00928062 0.03055230 -0.00689081
v -0.00896808 0.03055230 -0.00733828
v -0.00870059 0.03055230 -0.00771777
v -0.00851757 0.03055230 -0.00797549
v -0.00839932 0.03055230 -0.00813691
v -0.00848941 0.03055230 0.00569764
v -0.01259747 0.02034986 0.00518787
v -0.01195550 0.02034986 0.00633768
v -0.01238348 0.02034986 -0.00876563
v -0.00958471 0.03055230 -0.00640087
v -0.00941014 0.03055230 -0.00668690
v -0.00857952 0.03055230 0.00551072
v -0.01297758 0.02034986 0.00443171
v -0.01279457 0.02034986 -0.00765546
v -0.01035338 0.03055230 -0.00456570
v -0.01025765 0.03055230 -0.00482059
v -0.01006900 0.03055230 -0.00531053
v -0.00996482 0.03055230 -0.00557674
v -0.00981559 0.03055230 -0.00593641
v -0.00968607 0.03055230 -0.00621112
v -0.00908352 0.03055230 0.00446286
v -0.00967199 0.03055230 0.00323659
v -0.01003522 0.03055230 0.00247760
v -0.01342527 0.02034986 0.00336686
v -0.01317468 0.02034986 -0.00654813
v -0.01041815 0.03055230 -0.00437595
v -0.01013376 0.03055230 0.00223404
v -0.01356606 0.02034986 0.00297038
v -0.01353509 0.02034986 -0.00541532
v -0.01050543 0.03055230 -0.00407859
v -0.01025202 0.03055230 0.00186305
v -0.01034494 0.03055230 0.00151470
v -0.01044349 0.03055230 0.00113804
v -0.01054485 0.03055230 0.00074722
v -0.01073913 0.03055230 -0.00000894
v -0.01079826 0.03055230 -0.00026099
v -0.01364208 0.02034986 0.00260504
v -0.01393491 0.02034986 -0.00320915
v -0.01067719 0.03055230 -0.00333659
v -0.01059835 0.03055230 -0.00370759
v -0.01081515 0.03055230 -0.00034312
v -0.01377442 0.02034986 0.00188004
v -0.01397996 0.02034986 -0.00284382
v -0.01086865 0.03055230 -0.00222077
v -0.01078981 0.03055230 -0.00269372
v -0.01087147 0.03055230 -0.00073961
v -0.01390394 0.02034986 0.00037622
v -0.01401656 0.02034986 -0.00249264
v -0.01090244 0.03055230 -0.00184977
v -0.01395743 0.02034986 -0.00036861
v -0.01393209 0.02034986 0.00000522
v -0.01089118 0.03055230 -0.00111060
v -0.01403627 0.02034986 -0.00184977
v -0.01403627 0.02034986 -0.00222077
v -0.01403909 0.02034986 -0.00214147
v -0.01089962 0.03055230 -0.00147877
f 1 2 7
f 1 7 17
f 1 17 16
f 1 16 15
f 1 15 14
f 1 14 13
f 1 13 23
f 1 23 22
f 1 22 21
f 1 21 27
f 1 27 36
f 1 36 41
f 1 41 48
f 1 48 52
f 1 52 56
f 1 56 66
f 1 66 70
f 1 70 76
f 1 76 84
f 1 84 88
f 1 88 90
f 1 90 95
f 1 95 94
f 1 94 107
f 1 107 112
f 1 112 119
f 1 119 123
f 1 123 122
f 1 122 121
f 1 121 128
f 1 128 132
f 1 132 138
f 1 138 146
f 1 146 145
f 1 145 144
f 1 144 152
f 1 152 149
f 1 149 148
f 1 148 154
f 1 154 161
f 1 161 168
f 1 168 172
f 1 172 176
f 1 176 180
f 1 180 186
f 1 186 193
f 1 193 197
f 1 197 203
f 1 203 208
f 1 208 212
f 1 212 216
f 1 216 220
f 1 220 222
f 1 222 226
f 1 226 234
f 1 234 233
f 1 233 232
f 1 232 245
f 1 245 244
f 1 244 250
f 1 250 261
f 1 261 265
f 1 265 274
f 1 274 279
f 1 279 284
f 1 284 288
f 1 288 287
f 1 287 290
f 1 290 292
f 1 292 291
f 1 291 285
f 1 285 280
f 1 280 275
f 1 275 266
f 1 266 262
f 1 262 251
f 1 251 246
f 1 246 235
f 1 235 228
f 1 228 224
f 1 224 219
f 1 219 214
f 1 214 210
f 1 210 206
f 1 206 202
f 1 202 201
f 1 201 199
f 1 199 195
f 1 195 190
f 1 190 182
f 1 182 178
f 1 178 174
f 1 174 170
f 1 170 166
f 1 166 159
f 1 159 158
f 1 158 157
f 1 157 155
f 1 155 150
f 1 150 141
f 1 141 136
f 1 136 130
f 1 130 126
f 1 126 124
f 1 124 116
f 1 116 109
f 1 109 96
f 1 96 91
f 1 91 86
f 1 86 78
f 1 78 74
f 1 74 68
f 1 68 63
f 1 63 54
f 1 54 49
f 1 49 42
f 1 42 37
f 1 37 29
f 1 29 25
f 1 25 19
f 1 19 8
f 1 8 3
f 1 3 4
f 1 4 5
f 1 5 6
f 1 6 2
f 2 6 7
f 3 8 9
f 3 9 10
f 3 10 11
f 3 11 4
f 4 11 10
f 4 10 9
f 4 9 18
f 4 18 24
f 4 24 28
f 4 28 33
f 4 33 32
f 4 32 31
f 4 31 30
f 4 30 38
f 4 38 46
f 4 46 45
f 4 45 44
f 4 44 43
f 4 43 50
f 4 50 55
f 4 55 62
f 4 62 61
f 4 61 60
f 4 60 59
f 4 59 58
f 4 58 67
f 4 67 73
f 4 73 75
f 4 75 83
f 4 83 82
f 4 82 81
f 4 81 80
f 4 80 79
f 4 79 87
f 4 87 92
f 4 92 100
f 4 100 99
f 4 99 98
f 4 98 97
f 4 97 110
f 4 110 118
f 4 118 117
f 4 117 125
f 4 125 129
f 4 129 135
f 4 135 140
f 4 140 142
f 4 142 151
f 4 151 156
f 4 156 165
f 4 165 167
f 4 167 171
f 4 171 175
f 4 175 179
f 4 179 185
f 4 185 192
f 4 192 191
f 4 191 196
f 4 196 200
f 4 200 205
f 4 205 209
f 4 209 213
f 4 213 218
f 4 218 223
f 4 223 227
f 4 227 230
f 4 230 229
f 4 229 242
f 4 242 241
f 4 241 240
f 4 240 239
f 4 239 238
f 4 238 237
f 4 237 236
f 4 236 248
f 4 248 247
f 4 247 257
f 4 257 256
f 4 256 255
f 4 255 254
f 4 254 253
f 4 253 252
f 4 252 263
f 4 263 267
f 4 267 277
f 4 277 276
f 4 276 282
f 4 282 281
f 4 281 286
f 4 286 293
f 4 293 289
f 4 289 283
f 4 283 278
f 4 278 273
f 4 273 272
f 4 272 271
f 4 271 270
f 4 270 269
f 4 269 268
f 4 268 264
f 4 264 260
f 4 260 259
f 4 259 258
f 4 258 249
f 4 249 243
f 4 243 231
f 4 231 225
f 4 225 221
f 4 221 217
f 4 217 215
f 4 215 211
f 4 211 207
f 4 207 204
f 4 204 198
f 4 198 194
f 4 194 189
f 4 189 188
f 4 188 187
f 4 187 181
f 4 181 177
f 4 177 173
f 4 173 169
f 4 169 164
f 4 164 163
f 4 163 162
f 4 162 160
f 4 160 153
f 4 153 147
f 4 147 139
f 4 139 134
f 4 134 133
f 4 133 131
f 4 131 127
f 4 127 120
f 4 120 115
f 4 115 114
f 4 114 113
f 4 113 111
f 4 111 106
f 4 106 105
f 4 105 104
f 4 104 103
f 4 103 102
f 4 102 108
f 4 108 101
f 4 101 93
f 4 93 89
f 4 89 85
f 4 85 77
f 4 77 72
f 4 72 71
f 4 71 69
f 4 69 65
f 4 65 64
f 4 64 57
f 4 57 53
f 4 53 51
f 4 51 47
f 4 47 40
f 4 40 39
f 4 39 35
f 4 35 34
f 4 34 26
f 4 26 20
f 4 20 12
f 4 12 6
f 4 6 5
f 6 12 13
f 6 13 14
f 6 14 15
f 6 15 16
f 6 16 17
f 6 17 7
f 8 18 9
f 8 19 18
f 12 20 21
f 12 21 22
f 12 22 23
f 12 23 13
f 18 19 25
f 18 25 24
f 20 26 21
f 21 26 27
f 24 25 28
f 25 29 30
f 25 30 31
f 25 31 32
f 25 32 33
f 25 33 28
f 26 34 27
f 27 34 35
f 27 35 36
f 29 37 38
f 29 38 30
f 35 39 36
f 36 39 40
f 36 40 41
f 37 42 43
f 37 43 44
f 37 44 45
f 37 45 46
f 37 46 38
f 40 47 41
f 41 47 48
f 42 49 43
f 43 49 50
f 47 51 48
f 48 51 53
f 48 53 52
f 49 54 55
f 49 55 50
f 52 53 56
f 53 57 56
f 54 58 59
f 54 59 60
f 54 60 61
f 54 61 62
f 54 62 55
f 54 63 58
f 56 57 64
f 56 64 65
f 56 65 66
f 58 63 67
f 63 68 67
f 65 69 66
f 66 69 71
f 66 71 72
f 66 72 70
f 67 68 73
f 68 74 75
f 68 75 73
f 70 72 76
f 72 77 76
f 74 78 79
f 74 79 80
f 74 80 81
f 74 81 82
f 74 82 83
f 74 83 75
f 76 77 85
f 76 85 84
f 78 86 87
f 78 87 79
f 84 85 88
f 85 89 90
f 85 90 88
f 86 91 87
f 87 91 92
f 89 93 94
f 89 94 95
f 89 95 90
f 91 96 97
f 91 97 98
f 91 98 99
f 91 99 100
f 91 100 92
f 93 101 94
f 94 102 103
f 94 103 104
f 94 104 105
f 94 105 106
f 94 106 107
f 94 101 108
f 94 108 102
f 96 109 97
f 97 109 110
f 106 111 107
f 107 111 113
f 107 113 114
f 107 114 115
f 107 115 112
f 109 116 117
f 109 117 118
f 109 118 110
f 112 115 119
f 115 120 121
f 115 121 122
f 115 122 123
f 115 123 119
f 116 124 117
f 117 124 126
f 117 126 130
f 117 130 125
f 120 127 121
f 121 127 128
f 125 130 129
f 127 131 128
f 128 131 133
f 128 133 134
f 128 134 132
f 129 130 136
f 129 136 135
f 132 137 138
f 132 134 137
f 134 139 137
f 135 136 140
f 136 141 142
f 136 142 140
f 137 143 144
f 137 144 145
f 137 145 146
f 137 146 138
f 137 139 143
f 139 147 148
f 139 148 149
f 139 149 143
f 141 150 151
f 141 151 142
f 143 149 152
f 143 152 144
f 147 153 154
f 147 154 148
f 150 155 151
f 151 155 157
f 151 157 158
f 151 158 159
f 151 159 156
f 153 160 154
f 154 160 162
f 154 162 163
f 154 163 164
f 154 164 161
f 156 159 165
f 159 166 167
f 159 167 165
f 161 164 168
f 164 169 168
f 166 170 171
f 166 171 167
f 168 169 173
f 168 173 172
f 170 174 175
f 170 175 171
f 172 173 176
f 173 177 176
f 174 178 175
f 175 178 179
f 176 177 180
f 177 181 180
f 178 182 183
f 178 183 184
f 178 184 185
f 178 185 179
f 180 181 187
f 180 187 188
f 180 188 189
f 180 189 186
f 182 190 183
f 183 191 192
f 183 192 184
f 183 190 191
f 184 192 185
f 186 189 194
f 186 194 193
f 190 195 196
f 190 196 191
f 193 194 197
f 194 198 197
f 195 199 196
f 196 199 201
f 196 201 202
f 196 202 200
f 197 198 204
f 197 204 203
f 200 202 205
f 202 206 205
f 203 204 207
f 203 207 208
f 205 206 209
f 206 210 209
f 207 211 212
f 207 212 208
f 209 210 213
f 210 214 213
f 211 215 212
f 212 215 217
f 212 217 216
f 213 214 218
f 214 219 218
f 216 217 220
f 217 221 222
f 217 222 220
f 218 219 224
f 218 224 223
f 221 225 222
f 222 225 226
f 223 224 227
f 224 228 229
f 224 229 230
f 224 230 227
f 225 231 232
f 225 232 233
f 225 233 234
f 225 234 226
f 228 235 236
f 228 236 237
f 228 237 238
f 228 238 239
f 228 239 240
f 228 240 241
f 228 241 242
f 228 242 229
f 231 243 244
f 231 244 245
f 231 245 232
f 235 246 247
f 235 247 248
f 235 248 236
f 243 249 250
f 243 250 244
f 246 251 252
f 246 252 253
f 246 253 254
f 246 254 255
f 246 255 256
f 246 256 257
f 246 257 247
f 249 258 250
f 250 258 259
f 250 259 260
f 250 260 261
f 251 262 252
f 252 262 263
f 260 264 261
f 261 264 265
f 262 266 263
f 263 266 267
f 264 268 265
f 265 268 269
f 265 269 270
f 265 270 271
f 265 271 272
f 265 272 273
f 265 273 274
f 266 275 276
f 266 276 277
f 266 277 267
f 273 278 274
f 274 278 279
f 275 280 281
f 275 281 282
f 275 282 276
f 278 283 279
f 279 283 284
f 280 285 281
f 281 285 286
f 283 287 288
f 283 288 284
f 283 289 290
f 283 290 287
f 285 291 286
f 286 291 292
f 286 292 293
f 289 293 290
f 290 293 292

